<?xml version="1.0" encoding="UTF-8"?>
<svg width="16px" height="16px" viewBox="0 0 16 16" version="1.1" xmlns="http://www.w3.org/2000/svg" xmlns:xlink="http://www.w3.org/1999/xlink">
    <title>收缩箭头</title>
    <g id="HECO" stroke="none" stroke-width="1" fill="none" fill-rule="evenodd">
        <g id="HECO流动性挖矿-列表-Light" transform="translate(-1306.000000, -505.000000)">
            <g id="编组-14" transform="translate(1178.000000, 495.000000)">
                <g id="收缩箭头" transform="translate(128.000000, 10.000000)">
                    <rect id="矩形" x="0" y="0" width="16" height="15.8993711"></rect>
                    <path d="M8.73502635,6.75906801 L11.9520625,10.2464898 C12.3265329,10.6524336 12.3010186,11.2850843 11.8950747,11.6595546 C11.7103798,11.8299298 11.4683128,11.9245283 11.2170362,11.9245283 L4.7829638,11.9245283 C4.23067905,11.9245283 3.7829638,11.4768131 3.7829638,10.9245283 C3.7829638,10.6732517 3.87756226,10.4311847 4.04793746,10.2464898 L7.26497365,6.75906801 C7.639444,6.35312417 8.2720947,6.32760986 8.67803855,6.70208021 C8.69779254,6.72030265 8.71680391,6.73931402 8.73502635,6.75906801 Z" id="三角形" fill="#000000" transform="translate(8.000000, 8.943396) rotate(-180.000000) translate(-8.000000, -8.943396) "></path>
                </g>
            </g>
        </g>
    </g>
</svg>