<svg width="20" height="20" viewBox="0 0 20 20" fill="none" xmlns="http://www.w3.org/2000/svg">
<path fill-rule="evenodd" clip-rule="evenodd" d="M9.08153 14.0451C9.6198 14.1917 10.1883 14.1853 10.7231 14.0267L15.3874 12.6431C16.3707 12.3514 17.1034 13.5525 16.3941 14.2933L11.9815 18.9024C10.835 20.1 8.9344 20.1405 7.73787 18.9929L2.83473 14.2902C2.08674 13.5728 2.78976 12.3313 3.78974 12.6037L9.08153 14.0451Z" fill="white"/>
<path opacity="0.7" fill-rule="evenodd" clip-rule="evenodd" d="M9.0234 6.51686C9.56167 6.66348 10.1302 6.6571 10.665 6.49844L14.03 5.50025C15.0133 5.20856 15.746 6.40964 15.0367 7.1505L11.9233 10.4025C10.7768 11.6 8.87627 11.6406 7.67974 10.493L4.19159 7.14742C3.44361 6.43002 4.14663 5.18848 5.1466 5.46087L9.0234 6.51686Z" fill="white"/>
<path opacity="0.4" fill-rule="evenodd" clip-rule="evenodd" d="M9.45707 1.46694C9.63649 1.51582 9.82599 1.51369 10.0043 1.4608L13.1224 0.535828C13.6141 0.389984 13.9804 0.990524 13.6258 1.36095L10.4237 4.70558C10.0415 5.10477 9.40803 5.11828 9.00918 4.73574L5.48893 1.35941C5.11494 1.00071 5.46645 0.379948 5.96644 0.516138L9.45707 1.46694Z" fill="white"/>
</svg>
