<?xml version="1.0" encoding="UTF-8"?>
<svg width="24px" height="24px" viewBox="0 0 24 24" version="1.1" xmlns="http://www.w3.org/2000/svg" xmlns:xlink="http://www.w3.org/1999/xlink">
    <title>资产列表</title>
    <g id="组件/弹窗/导航" stroke="none" stroke-width="1" fill="none" fill-rule="evenodd">
        <g id="H5更多-Light" transform="translate(-32.000000, -370.000000)">
            <g id="编组-4" transform="translate(16.000000, 348.000000)">
                <g id="编组-17" transform="translate(16.000000, 10.000000)">
                    <g id="资产列表" transform="translate(0.000000, 12.000000)">
                        <rect id="矩形备份-2" x="0" y="0" width="24" height="24"></rect>
                        <g id="编组-30" transform="translate(4.000000, 2.000000)">
                            <path d="M3.33333333,0 L10.663792,0 C11.2036952,-1.34619794e-16 11.7206641,0.218282627 12.0971847,0.605229302 L15.4333927,4.03381892 C15.7967135,4.40720023 16,4.90761403 16,5.42858962 L16,15.3333333 L16,15.3333333 C16,17.1742825 14.5076158,18.6666667 12.6666667,18.6666667 L3.33333333,18.6666667 C1.49238417,18.6666667 0,17.1742825 0,15.3333333 L0,3.33333333 C0,1.49238417 1.49238417,0 3.33333333,0 Z" id="矩形" stroke="#90979E" stroke-width="2"></path>
                            <path d="M8,12.5714286 L6.20971778,13.5126356 C5.96529549,13.641136 5.66298191,13.5471628 5.53448151,13.3027405 C5.48331197,13.2054102 5.46565463,13.0939262 5.48424305,12.9855474 L5.82615653,10.9920388 L5.82615653,10.9920388 L4.37778779,9.58022825 C4.180046,9.38747764 4.17599985,9.07092101 4.36875046,8.87317922 C4.44550476,8.79443741 4.54607597,8.74319382 4.65489448,8.72738156 L6.65649085,8.43653258 L6.65649085,8.43653258 L7.55163196,6.62277859 C7.67384311,6.37515176 7.97365603,6.27348226 8.22128286,6.39569341 C8.31988916,6.44435853 8.39970292,6.52417229 8.44836804,6.62277859 L9.34350915,8.43653258 L9.34350915,8.43653258 L11.3451055,8.72738156 C11.618378,8.76709037 11.8077187,9.0208118 11.7680099,9.29408423 C11.7521976,9.40290274 11.700954,9.50347395 11.6222122,9.58022825 L10.1738435,10.9920388 L10.1738435,10.9920388 L10.5157569,12.9855474 C10.5624374,13.2577156 10.3796435,13.5161936 10.1074753,13.5628741 C9.9990965,13.5814625 9.88761246,13.5638052 9.79028222,13.5126356 L8,12.5714286 L8,12.5714286 Z" id="星形" fill="#90979E"></path>
                        </g>
                    </g>
                </g>
            </g>
        </g>
    </g>
</svg>