<?xml version="1.0" encoding="UTF-8"?>
<svg width="50px" height="50px" viewBox="0 0 50 50" version="1.1" xmlns="http://www.w3.org/2000/svg" xmlns:xlink="http://www.w3.org/1999/xlink">
    <title>bsc</title>
    <g id="BSC" stroke="none" stroke-width="1" fill="none" fill-rule="evenodd">
        <g id="BSC首页-Dark" transform="translate(-864.000000, -1191.000000)">
            <g id="编组-21" transform="translate(-1.000000, 673.000000)">
                <g id="编组-39" transform="translate(361.000000, 100.000000)">
                    <g id="编组-26" transform="translate(0.000000, 254.000000)">
                        <g id="编组-54备份-2" transform="translate(474.191781, 139.000000)">
                            <g id="编组-28" transform="translate(0.000000, 0.000000)">
                                <g id="编组-52备份" transform="translate(29.808219, 21.000000)">
                                    <g id="bsc" transform="translate(0.000000, 4.000000)">
                                        <circle id="椭圆形" fill="#FFFFFF" cx="25" cy="25" r="25"></circle>
                                        <g id="bsc1" transform="translate(10.000000, 8.750000)" fill="#F0B90B" fill-rule="nonzero">
                                            <polygon id="路径" points="14.6115536 3.80357143 8.95974107 7.07142857 5.61152679 5.16964286 14.5847411 0 23.5579554 5.16964286 20.2633125 7.07142857"></polygon>
                                            <polygon id="路径" points="20.290125 9.80357143 23.5847679 11.7053571 23.5847679 15.5089286 17.9329554 18.7767857 17.9329554 25.3125 14.6383125 27.2142857 11.3436429 25.3125 11.3436429 18.7767857 5.69191071 15.5089286 5.69191071 11.7053571 8.98655357 9.80357143 14.6383125 13.0714286"></polygon>
                                            <polygon id="路径" points="23.5847679 18.2410714 23.5847679 22.0446429 20.290125 23.9464286 20.290125 20.1428571"></polygon>
                                            <polygon id="路径" points="20.290125 26.6785714 25.9418571 23.4107143 25.9686696 23.4107143 25.9686696 16.875 29.2633929 14.9732143 29.2633929 25.3125 20.290125 30.4821429"></polygon>
                                            <polygon id="路径" points="25.9418571 10.3392857 22.6472679 8.4375 25.9418571 6.53571429 29.2366071 8.4375 29.2366071 12.2410714 25.9418571 14.1428571"></polygon>
                                            <polygon id="路径" points="11.3169107 31.8482143 11.3169107 28.0446429 14.6115536 29.9464286 17.9061429 28.0446429 17.9061429 31.8482143 14.6115536 33.75"></polygon>
                                            <polygon id="路径" points="8.95974107 23.9464286 5.66509821 22.0446429 5.66509821 18.2410714 8.95974107 20.1428571"></polygon>
                                            <polygon id="路径" points="14.6115536 10.3392857 11.3169107 8.4375 14.6115536 6.53571429 17.9061429 8.4375"></polygon>
                                            <polygon id="路径" points="6.60259821 8.4375 3.30792857 10.3392857 3.30792857 14.1428571 0.0133405446 12.2410714 0.0133405446 8.4375 3.30792857 6.53571429"></polygon>
                                            <polygon id="路径" points="0.0133405446 14.9732143 3.30792857 16.875 3.33474107 16.875 3.33474107 23.4107143 8.98655357 26.6785714 8.98655357 30.4821429 0.0133405446 25.3125"></polygon>
                                        </g>
                                    </g>
                                </g>
                            </g>
                        </g>
                    </g>
                </g>
            </g>
        </g>
    </g>
</svg>