<?xml version="1.0" encoding="UTF-8"?>
<svg width="172px" height="43px" viewBox="0 0 172 43" version="1.1" xmlns="http://www.w3.org/2000/svg" xmlns:xlink="http://www.w3.org/1999/xlink">
    <title>Bsc</title>
    <g id="HECO" stroke="none" stroke-width="1" fill="none" fill-rule="evenodd">
        <g id="合作伙伴" transform="translate(-3051.000000, -1414.000000)">
            <g id="编组-2备份-4" transform="translate(1920.000000, 903.000000)">
                <g id="编组-8" transform="translate(360.000000, 100.000000)">
                    <g id="编组-7" transform="translate(0.000000, 411.000000)">
                        <g id="Bsc" transform="translate(771.000000, 0.000000)">
                            <rect id="矩形" x="0" y="0" width="172" height="43"></rect>
                            <g id="编组-28" transform="translate(0.000000, 4.914286)" fill="#F0B90B" fill-rule="nonzero">
                                <path d="M41.8151437,16.3330236 L35.8686008,16.3330236 L35.8686008,4.3111299 L41.6869854,4.3111299 C44.2501504,4.3111299 45.8139374,5.5428813 45.8139374,7.41514343 L45.8139374,7.43977846 C45.8139374,8.794705 45.0703632,9.55839086 44.1732555,10.0264564 C45.6086279,10.568427 46.5057357,11.3567479 46.5057357,12.9826598 L46.5057357,13.0072948 C46.5057357,15.2490823 44.6602568,16.3330236 41.8151437,16.3330236 Z M43.0713508,7.85857393 C43.0713508,7.07025304 42.4305596,6.62682253 41.2771353,6.62682253 L38.5599241,6.62682253 L38.5599241,9.16423042 L41.0974574,9.16423042 C42.302145,9.16423042 43.0713508,8.794705 43.0713508,7.88320896 L43.0713508,7.85857393 Z M43.7634054,12.6870394 C43.7634054,11.8740835 43.1479895,11.3813829 41.7382487,11.3813829 L38.5599241,11.3813829 L38.5599241,14.0173309 L41.8410316,14.0173309 C43.0457192,14.0173309 43.7887807,13.5985355 43.7887807,12.7116744 L43.7887807,12.6870394 L43.7634054,12.6870394 Z M49.5305267,16.3330236 L49.5305267,4.3111299 L52.272857,4.3111299 L52.272857,16.3330236 L49.5305267,16.3330236 Z M64.7300954,16.3330236 L58.6807696,8.69616488 L58.6807696,16.3330236 L55.9638146,16.3330236 L55.9638146,4.3111299 L58.5016043,4.3111299 L64.370996,11.7262733 L64.370996,4.3111299 L67.0882072,4.3111299 L67.0882072,16.3330236 L64.7300954,16.3330236 Z M79.4424064,16.3330236 L78.2889821,13.6478055 L73.0088621,13.6478055 L71.8554379,16.3330236 L69.061588,16.3330236 L74.4186029,4.21258979 L76.9563926,4.21258979 L82.3131512,16.3330236 L79.4424064,16.3330236 Z M75.6489221,7.41514343 L73.9828648,11.3074779 L77.3149794,11.3074779 L75.6489221,7.41514343 Z M93.1043323,16.3330236 L87.0550065,8.69616488 L87.0550065,16.3330236 L84.3383079,16.3330236 L84.3383079,4.3111299 L86.875585,4.3111299 L92.7452329,11.7262733 L92.7452329,4.3111299 L95.4621878,4.3111299 L95.4621878,16.3330236 L93.1043323,16.3330236 Z M104.510417,16.5547388 C100.819459,16.5547388 98.1025041,13.8202507 98.1025041,10.3713468 L98.1025041,10.3467118 C98.1025041,6.92244287 100.793827,4.1386847 104.638575,4.1386847 C106.996687,4.1386847 108.406171,4.90237057 109.559596,5.9863118 L107.816643,7.93247902 C106.842641,7.09488806 105.868638,6.57755248 104.612687,6.57755248 C102.510892,6.57755248 100.972993,8.25273438 100.972993,10.3220767 L100.972993,10.3467118 C100.972993,12.4160541 102.459628,14.115871 104.612687,14.115871 C106.048059,14.115871 106.919792,13.5739004 107.893538,12.7116744 L109.636747,14.4114914 C108.355164,15.7171479 106.945424,16.5547388 104.510417,16.5547388 Z M111.866444,16.3330236 L111.866444,4.3111299 L121.299148,4.3111299 L121.299148,6.67609259 L114.609031,6.67609259 L114.609031,9.11496036 L120.50431,9.11496036 L120.50431,11.479923 L114.609031,11.479923 L114.609031,14.0173309 L121.401418,14.0173309 L121.401418,16.3822936 L111.866444,16.3822936 L111.866444,16.3330236 Z" id="形状"></path>
                                <path d="M37.100534,22.4073511 C37.100534,21.821992 37.6350505,21.3611775 38.5513644,21.3611775 C39.3658657,21.3611775 40.1676404,21.6725387 40.9694151,22.2578977 L41.8093696,21.0996341 C40.9057822,20.3897306 39.874929,20.0036427 38.5768176,20.0036427 C36.8078226,20.0036427 35.5351643,21.0249074 35.5351643,22.54435 C35.5351643,24.1634281 36.6041973,24.7114238 38.5004581,25.1597839 C40.1549138,25.5334174 40.5112582,25.8696355 40.5112582,26.5048124 C40.5112582,27.1773525 39.9003822,27.6132582 38.9331619,27.6132582 C37.8259492,27.6132582 36.9732682,27.2022614 36.1205871,26.4799035 L35.17882,27.5758948 C36.2478529,28.5099784 37.5332378,28.9707929 38.8949821,28.9707929 C40.7657898,28.9707929 42.0766278,27.999346 42.0766278,26.355359 C42.0766278,24.8982405 41.096681,24.2381548 39.2131467,23.7897947 C37.5077846,23.3912524 37.100534,23.0923457 37.100534,22.4073511 Z" id="路径"></path>
                                <polygon id="路径" points="50.2537384 22.5400803 50.2537384 28.9707929 51.7335588 28.9707929 51.7335588 20.0036427 50.1574899 20.0036427 47.5948741 24.243849 45.0322583 20.0036427 43.4561894 20.0036427 43.4561894 28.9707929 44.9119477 28.9707929 44.9119477 22.5657009 47.5467499 26.7674229 47.5948741 26.7674229"></polygon>
                                <path d="M57.6070894,20.0036427 L56.2067399,20.0036427 L52.4233396,28.9707929 L53.9710943,28.9707929 L54.8555255,26.8212081 L58.9214525,26.8212081 L59.7936,28.9707929 L61.3904898,28.9707929 L57.6070894,20.0036427 Z M58.368683,25.4348424 L55.4082951,25.4348424 L56.8823471,21.8734 L58.368683,25.4348424 Z" id="形状"></path>
                                <path d="M70.35764,28.9707929 L67.9434072,25.5761192 C69.1952316,25.2302414 70.0766182,24.333521 70.0766182,22.8475273 C70.0766182,21.0925175 68.8120201,20.0036427 66.7554514,20.0036427 L62.7700513,20.0036427 L62.7700513,28.9707929 L64.3412187,28.9707929 L64.3412187,25.845082 L66.3083713,25.845082 L68.5054508,28.9707929 L70.35764,28.9707929 Z M68.4799034,22.9371993 C68.4799034,23.8595403 67.7645752,24.4488136 66.640488,24.4488136 L64.3412187,24.4488136 L64.3412187,21.4383953 L66.6277143,21.4383953 C67.7901226,21.4383953 68.4799034,21.9508069 68.4799034,22.9371993 Z" id="形状"></path>
                                <polygon id="路径" points="75.2492544 21.4640159 77.9452286 21.4640159 77.9452286 20.0036427 71.0474208 20.0036427 71.0474208 21.4640159 73.7433949 21.4640159 73.7433949 28.9707929 75.2492544 28.9707929"></polygon>
                                <path d="M90.3612827,27.4349738 L89.4246897,26.4441228 C88.7133533,27.1377185 88.0612949,27.5712159 87.0417127,27.5712159 C85.4530613,27.5712159 84.3030674,26.1840244 84.3030674,24.474858 C84.3030674,22.76564 85.4530613,21.4032198 87.0417127,21.4032198 C87.9901613,21.4032198 88.7014977,21.8367171 89.3654117,22.4807703 L90.3020047,21.3536773 C89.507679,20.5609964 88.5829416,20.0036427 87.0535683,20.0036427 C84.5401796,20.0036427 82.7736941,22.0225017 82.7736941,24.4996293 C82.7736941,27.0014765 84.5757464,28.9707929 86.9942903,28.9707929 C88.5473748,28.9707929 89.4958234,28.3762823 90.3612827,27.4349738 Z" id="路径"></path>
                                <polygon id="路径" points="97.8656219 25.1918105 97.8656219 28.9707929 99.3284329 28.9707929 99.3284329 20.0036427 97.8656219 20.0036427 97.8656219 23.7314374 93.893436 23.7314374 93.893436 20.0036427 92.4306251 20.0036427 92.4306251 28.9707929 93.893436 28.9707929 93.893436 25.1918105"></polygon>
                                <path d="M105.891744,20.0036427 L104.491395,20.0036427 L100.707994,28.9707929 L102.255749,28.9707929 L103.14018,26.8212081 L107.206107,26.8212081 L108.078255,28.9707929 L109.675145,28.9707929 L105.891744,20.0036427 Z M106.653338,25.4348424 L103.69295,25.4348424 L105.167002,21.8734 L106.653338,25.4348424 Z" id="形状"></path>
                                <polygon id="路径" points="110.364925 20.0036427 110.364925 28.9707929 111.744487 28.9707929 111.744487 20.0036427"></polygon>
                                <polygon id="路径" points="120.58612 26.2037701 115.921619 20.0036427 114.50361 20.0036427 114.50361 28.9707929 116.008689 28.9707929 116.008689 22.5913215 120.810016 28.9707929 122.091199 28.9707929 122.091199 20.0036427 120.58612 20.0036427"></polygon>
                                <polygon id="路径" points="14.1662699 3.71018452 8.73550739 6.89780784 5.51824627 5.04271558 14.1405061 0 22.7627659 5.04271558 19.5969809 6.89780784"></polygon>
                                <polygon id="路径" points="19.5875025 9.65693098 22.7627659 11.4652178 22.7627659 15.0817915 17.3157436 18.1889887 17.3157436 24.4033829 14.1404803 26.2116698 10.9651911 24.4033829 10.9651911 18.1889887 5.51824627 15.0817915 5.51824627 11.4652178 8.69350961 9.65693098 14.1404803 12.7641281"></polygon>
                                <polygon id="路径" points="22.7627659 17.2445196 22.7627659 20.9233504 19.313862 22.7627659 19.313862 19.083935"></polygon>
                                <polygon id="路径" points="19.313862 25.4182432 24.9617409 22.3660526 24.9885352 22.3660526 24.9885352 16.2616713 28.2810121 14.4853965 28.2810121 24.1423274 19.313862 28.9707929"></polygon>
                                <polygon id="路径" points="24.4871421 9.65693098 21.3832043 7.93247902 24.4871421 6.20802706 27.5912314 7.93247902 27.5912314 11.3813829 24.4871421 13.1058349"></polygon>
                                <polygon id="路径" points="11.0364925 30.5802814 11.0364925 26.9014506 14.1405313 28.740866 17.2445196 26.9014506 17.2445196 30.5802814 14.1405313 32.4196969"></polygon>
                                <polygon id="路径" points="8.96715019 22.7627659 5.51824627 20.9233504 5.51824627 17.2445196 8.96715019 19.083935"></polygon>
                                <polygon id="路径" points="14.1405313 10.3467118 11.0364925 8.27736941 14.1405313 6.20802706 17.2445196 8.27736941"></polygon>
                                <polygon id="路径" points="6.20802706 7.93247902 3.10397508 9.65693098 3.10397508 13.1058349 0 11.3813829 0 7.93247902 3.10397508 6.20802706"></polygon>
                                <polygon id="路径" points="0 14.4853965 3.29236201 16.2616713 3.31915639 16.2616713 3.31915639 22.3660526 8.96715019 25.4182432 8.96715019 28.9707929 0 24.1423274"></polygon>
                            </g>
                        </g>
                    </g>
                </g>
            </g>
        </g>
    </g>
</svg>