<svg width="180" height="44" viewBox="0 0 180 44" fill="none" xmlns="http://www.w3.org/2000/svg">
<path fill-rule="evenodd" clip-rule="evenodd" d="M14.1666 9.71018L8.73582 12.8978L5.51855 11.0427L14.1408 6L22.7631 11.0427L19.5973 12.8978L14.1666 9.71018ZM104.51 22.5547C100.819 22.5547 98.1025 19.8202 98.1025 16.3713V16.3467C98.1025 12.9224 100.794 10.1387 104.639 10.1387C106.997 10.1387 108.406 10.9024 109.56 11.9863L107.817 13.9325C106.843 13.0949 105.869 12.5775 104.613 12.5775C102.511 12.5775 100.973 14.2527 100.973 16.3221V16.3467C100.973 18.416 102.46 20.1159 104.613 20.1159C106.048 20.1159 106.92 19.5739 107.894 18.7117L109.637 20.4115C108.355 21.7171 106.945 22.5547 104.51 22.5547ZM78.2889 19.6479L79.4423 22.3331H82.3131L76.9563 10.2126H74.4185L69.0615 22.3331H71.8554L73.0088 19.6479H78.2889ZM64.7292 22.3329L58.6798 14.6961V22.3329H55.9629V10.311H58.5007L64.3701 17.7262V10.311H67.0873V22.3329H64.7292ZM35.8682 22.333H41.8147C44.6598 22.333 46.5053 21.2491 46.5053 19.0073V18.9826C46.5053 17.3567 45.6082 16.5684 44.1728 16.0264C45.0699 15.5584 45.8135 14.7947 45.8135 13.4398V13.4151C45.8135 11.5429 44.2497 10.3111 41.6866 10.3111H35.8682V22.333ZM41.2767 12.6268C42.4301 12.6268 43.0709 13.0702 43.0709 13.8586V13.8832C43.0709 14.7947 42.3017 15.1642 41.097 15.1642H38.5595V12.6268H41.2767ZM43.763 18.687C43.763 17.8741 43.1476 17.3814 41.7378 17.3814H38.5595V20.0173H41.8406C43.0453 20.0173 43.7883 19.5985 43.7883 18.7117V18.687H43.763ZM49.5301 10.3111V22.333H52.2724V10.3111H49.5301ZM75.6485 13.4151L73.9824 17.3075H77.3145L75.6485 13.4151ZM87.0546 14.6962L93.1039 22.333H95.4618V10.3111H92.7448V17.7263L86.8752 10.3111H84.3379V22.333H87.0546V14.6962ZM121.299 10.3111H111.866V22.333V22.3823H121.401V20.0173H114.609V17.4799H120.504V15.1149H114.609V12.6761H121.299V10.3111ZM37.1004 28.4074C37.1004 27.822 37.6349 27.3612 38.5513 27.3612C39.3658 27.3612 40.1675 27.6726 40.9693 28.2579L41.8093 27.0997C40.9057 26.3897 39.8748 26.0037 38.5767 26.0037C36.8077 26.0037 35.5351 27.0249 35.5351 28.5444C35.5351 30.1634 36.6041 30.7114 38.5004 31.1598C40.1548 31.5334 40.5112 31.8697 40.5112 32.5048C40.5112 33.1774 39.9003 33.6133 38.9331 33.6133C37.8258 33.6133 36.9732 33.2023 36.1205 32.4799L35.1787 33.5759C36.2477 34.51 37.5331 34.9708 38.8949 34.9708C40.7657 34.9708 42.0765 33.9994 42.0765 32.3554C42.0765 30.8983 41.0966 30.2382 39.213 29.7898C37.5077 29.3913 37.1004 29.0924 37.1004 28.4074ZM50.2536 34.9708V28.5401L47.5947 32.7674H47.5466L44.9118 28.5657V34.9708H43.4561V26.0037H45.0321L47.5947 30.2439L50.1574 26.0037H51.7334V34.9708H50.2536ZM56.2072 26.0037H57.6076L61.391 34.9708H59.7941L58.9219 32.8212H54.856L53.9716 34.9708H52.4238L56.2072 26.0037ZM55.4092 31.435H58.3696L56.8832 27.8735L55.4092 31.435ZM70.3581 34.9708L67.9439 31.5761C69.1957 31.2303 70.0771 30.3335 70.0771 28.8475C70.0771 27.0925 68.8125 26.0037 66.7559 26.0037H62.7705V34.9708H64.3417V31.8451H66.3088L68.5059 34.9708H70.3581ZM68.4804 28.9372C68.4804 29.8596 67.765 30.4488 66.6409 30.4488H64.3417V27.4384H66.6282C67.7906 27.4384 68.4804 27.9508 68.4804 28.9372ZM75.2497 27.464H77.9457V26.0037H71.0479V27.464H73.7438V34.9708H75.2497V27.464ZM89.4244 32.4441L90.361 33.435C89.4956 34.3763 88.5471 34.9708 86.994 34.9708C84.5755 34.9708 82.7734 33.0015 82.7734 30.4996C82.7734 28.0225 84.5399 26.0037 87.0533 26.0037C88.5827 26.0037 89.5074 26.561 90.3018 27.3537L89.3652 28.4808C88.7012 27.8367 87.9899 27.4032 87.0415 27.4032C85.4528 27.4032 84.3028 28.7657 84.3028 30.4749C84.3028 32.184 85.4528 33.5712 87.0415 33.5712C88.061 33.5712 88.7131 33.1377 89.4244 32.4441ZM97.8657 31.1918V34.9708H99.3285V26.0037H97.8657V29.7315H93.8935V26.0037H92.4307V34.9708H93.8935V31.1918H97.8657ZM105.892 26.0037H104.491L100.708 34.9708H102.256L103.14 32.8212H107.206L108.078 34.9708H109.675L105.892 26.0037ZM106.654 31.435H103.693L105.167 27.8735L106.654 31.435ZM110.365 26.0037V34.9708H111.745V26.0037H110.365ZM115.922 26.0037L120.586 32.2038V26.0037H122.091V34.9708H120.81L116.009 28.5913V34.9708H114.504V26.0037H115.922ZM22.7631 17.4653L19.5878 15.657L14.1408 18.7642L8.69382 15.657L5.51855 17.4653V21.0818L10.9655 24.189V30.4034L14.1408 32.2117L17.3161 30.4034V24.189L22.7631 21.0818V17.4653ZM22.7624 23.2446V26.9235L19.3135 28.7629V25.084L22.7624 23.2446ZM24.9614 28.366L19.3135 31.4182V34.9707L28.2806 30.1423V20.4854L24.9881 22.2616V28.366H24.9614ZM24.4867 15.6569L21.3828 13.9325L24.4867 12.208L27.5908 13.9325V17.3814L24.4867 19.1058V15.6569ZM11.0361 32.9014V36.5802L14.1402 38.4196L17.2442 36.5802V32.9014L14.1402 34.7408L11.0361 32.9014ZM8.96746 28.7629L5.51855 26.9235V23.2446L8.96746 25.084V28.7629ZM11.0361 14.2774L14.1402 16.3467L17.2442 14.2774L14.1402 12.208L11.0361 14.2774ZM6.20803 13.9325L3.10398 15.6569V19.1058L0 17.3814V13.9325L3.10398 12.208L6.20803 13.9325ZM3.29236 22.2616L0 20.4854V30.1423L8.96715 34.9707V31.4182L3.31916 28.366V22.2616H3.29236Z" fill="#F0B90B"/>
</svg>
