<?xml version="1.0" encoding="UTF-8"?>
<svg width="172px" height="43px" viewBox="0 0 172 43" version="1.1" xmlns="http://www.w3.org/2000/svg" xmlns:xlink="http://www.w3.org/1999/xlink">
    <title>BitKeep</title>
    <g id="HECO" stroke="none" stroke-width="1" fill="none" fill-rule="evenodd">
        <g id="合作伙伴" transform="translate(-3308.000000, -594.000000)">
            <g id="编组-2备份-3" transform="translate(1920.000000, 0.000000)">
                <g id="编组-8" transform="translate(360.000000, 100.000000)">
                    <g id="编组-7" transform="translate(0.000000, 411.000000)">
                        <g id="BitKeep" transform="translate(1028.000000, 83.000000)">
                            <rect id="矩形" x="0" y="0" width="172" height="43"></rect>
                            <g id="编组-23" transform="translate(0.000000, 6.142857)" fill="#4C63DB">
                                <path d="M40.8000163,14.1393876 C41.926751,13.7341414 42.783715,12.8727038 42.783715,11.454728 C42.783715,9.79977965 41.4725217,8.4327491 39.0015449,8.4327491 L34.6244957,8.4327491 C34.5814554,8.4327491 34.5461008,8.46748449 34.5461008,8.51071075 L34.5461008,20.0891739 C34.5461008,20.1324002 34.5814554,20.1671356 34.6244957,20.1671356 L39.2198209,20.1671356 C41.6070228,20.1671356 43.0534857,18.7993331 43.0534857,17.0093027 C43.0534857,15.6083087 42.0443434,14.3593784 40.8000163,14.1393876 L40.8000163,14.1393876 Z M36.4629332,10.0027887 L38.8332264,10.0027887 C40.0775534,10.0027887 40.8338338,10.6280257 40.8338338,11.6917005 C40.8338338,12.7723571 40.0775534,13.3628587 38.8332264,13.3628587 L36.4629332,13.3628587 L36.4629332,10.0027887 Z M39.052271,18.597096 L36.4629332,18.597096 L36.4629332,14.9328983 L38.9846362,14.9328983 C40.2620121,14.9328983 41.1366533,15.6422722 41.1366533,16.8078375 C41.1366533,17.9378955 40.3465556,18.597096 39.052271,18.597096 L39.052271,18.597096 Z" id="Fill-1"></path>
                                <polygon id="Fill-3" points="45.1369458 20.1668268 47.0530096 20.1668268 47.0530096 10.8639176 45.1369458 10.8639176"></polygon>
                                <path d="M46.1117327,7.1662968 C45.4230872,7.1662968 44.8843143,7.70662508 44.8843143,8.39901718 C44.8843143,9.09140927 45.4230872,9.63173755 46.1117327,9.63173755 C46.784238,9.63173755 47.3222423,9.09140927 47.3222423,8.39901718 C47.3222423,7.70662508 46.784238,7.1662968 46.1117327,7.1662968" id="Fill-5"></path>
                                <path d="M51.7327246,8.5510038 L49.9550047,8.5510038 C49.9119644,8.5510038 49.8773784,8.58573919 49.8773784,8.62896546 L49.8773784,10.7856472 C49.8773784,10.8288735 49.8420238,10.8643807 49.7989835,10.8643807 L48.8620875,10.8643807 C48.8190471,10.8643807 48.7844611,10.8991161 48.7844611,10.9423424 L48.7844611,12.3556868 C48.7844611,12.3989131 48.8190471,12.4344203 48.8620875,12.4344203 L49.7989835,12.4344203 C49.8420238,12.4344203 49.8773784,12.4691557 49.8773784,12.512382 L49.8773784,17.5837489 C49.8773784,19.4741259 50.9026609,20.1672899 52.5497226,20.1672899 L53.9854254,20.1672899 C54.0276972,20.1672899 54.0622832,20.1317827 54.0622832,20.0885564 L54.0622832,18.6412485 C54.0622832,18.5987941 54.0276972,18.5632868 53.9854254,18.5632868 L52.8863595,18.5632868 C52.0793531,18.5632868 51.810351,18.2769129 51.810351,17.5837489 L51.810351,12.512382 C51.810351,12.4691557 51.844937,12.4344203 51.8879773,12.4344203 L53.9854254,12.4344203 C54.0276972,12.4344203 54.0622832,12.3989131 54.0622832,12.3556868 L54.0622832,10.9423424 C54.0622832,10.8991161 54.0276972,10.8643807 53.9854254,10.8643807 L51.8879773,10.8643807 C51.844937,10.8643807 51.810351,10.8288735 51.810351,10.7856472 L51.810351,8.62896546 C51.810351,8.58573919 51.775765,8.5510038 51.7327246,8.5510038" id="Fill-7"></path>
                                <path d="M64.5163214,8.43228596 L62.3197267,8.43228596 C62.2959008,8.43228596 62.2743807,8.44232063 62.2597777,8.46007427 L57.743616,13.7853954 L57.743616,8.51101951 C57.743616,8.46702135 57.7097986,8.43228596 57.6659896,8.43228596 L55.905947,8.43228596 C55.8621381,8.43228596 55.8275521,8.46702135 55.8275521,8.51101951 L55.8275521,20.0887108 C55.8275521,20.131937 55.8621381,20.1674443 55.905947,20.1674443 L57.6659896,20.1674443 C57.7097986,20.1674443 57.743616,20.131937 57.743616,20.0887108 L57.743616,14.9154534 L62.242869,20.139656 C62.2582405,20.1566378 62.2797607,20.1674443 62.3020494,20.1674443 L64.5977906,20.1674443 C64.6654254,20.1674443 64.70078,20.087167 64.6577396,20.0369936 L59.6104908,14.3079701 L64.5755019,8.56196475 C64.6193108,8.51179141 64.5831876,8.43228596 64.5163214,8.43228596" id="Fill-9"></path>
                                <path d="M69.0460101,10.7121625 C66.3060311,10.7121625 64.4230161,12.5863298 64.4230161,15.5064182 C64.4230161,18.4280504 66.389806,20.3191994 69.0460101,20.3191994 C71.2664306,20.3191994 72.7144307,19.0741286 73.2647323,17.5025452 C73.2824095,17.4516 73.2432121,17.3975672 73.1901802,17.3975672 L71.2787279,17.3975672 C71.2495219,17.3975672 71.2241588,17.4145489 71.2103244,17.4407934 C70.8529359,18.1463078 70.199645,18.6982145 69.0460101,18.6982145 C67.6341331,18.6982145 66.5412158,17.7696218 66.4067147,16.2327738 L73.4169106,16.2327738 C73.4545709,16.2327738 73.4883883,16.2034417 73.4945369,16.1656187 C73.5368087,15.8684381 73.5514117,15.5851517 73.5514117,15.2871993 C73.5514117,12.5523663 71.686074,10.7121625 69.0460101,10.7121625 L69.0460101,10.7121625 Z M66.4236234,14.6797159 C66.6257593,13.2107949 67.6671819,12.3323755 68.9630037,12.3323755 C70.3910208,12.3323755 71.5177555,13.2447584 71.5515729,14.6797159 L66.4236234,14.6797159 Z" id="Fill-11"></path>
                                <path d="M79.418041,10.7121625 C76.678062,10.7121625 74.7942784,12.5863298 74.7942784,15.5064182 C74.7942784,18.4280504 76.761837,20.3191994 79.418041,20.3191994 C81.6384616,20.3191994 83.0864617,19.0741286 83.6359946,17.5025452 C83.6536719,17.4516 83.615243,17.3975672 83.5614426,17.3975672 L81.6507588,17.3975672 C81.6215529,17.3975672 81.5954212,17.4145489 81.5815868,17.4407934 C81.2241983,18.1463078 80.5716759,18.6982145 79.418041,18.6982145 C78.0053955,18.6982145 76.9132468,17.7696218 76.7779771,16.2327738 L83.788173,16.2327738 C83.8266019,16.2327738 83.8604193,16.2034417 83.8665679,16.1656187 C83.9088397,15.8684381 83.9226741,15.5851517 83.9226741,15.2871993 C83.9226741,12.5523663 82.0573363,10.7121625 79.418041,10.7121625 L79.418041,10.7121625 Z M76.7956544,14.6797159 C76.9970217,13.2107949 78.0392129,12.3323755 79.3342661,12.3323755 C80.7622832,12.3323755 81.8890179,13.2447584 81.9228353,14.6797159 L76.7956544,14.6797159 Z" id="Fill-13"></path>
                                <path d="M90.9497018,10.7121625 C89.4363726,10.7121625 88.3096379,11.454728 87.7216761,12.2312569 L87.7216761,10.942188 C87.7216761,10.8989618 87.6870901,10.8634545 87.6432811,10.8634545 L85.8832385,10.8634545 C85.8401982,10.8634545 85.8056122,10.8989618 85.8056122,10.942188 L85.8056122,24.5121468 C85.8056122,24.5553731 85.8401982,24.5901085 85.8832385,24.5901085 L87.6432811,24.5901085 C87.6870901,24.5901085 87.7216761,24.5553731 87.7216761,24.5121468 L87.7216761,18.8163149 C88.3273152,19.5418986 89.4202325,20.3184275 90.9497018,20.3184275 C93.3876298,20.3184275 95.3036936,18.3439136 95.3036936,15.4732266 C95.3036936,12.6033115 93.3876298,10.7121625 90.9497018,10.7121625 M90.5292899,18.6472693 C89.1005042,18.6472693 87.7216761,17.5156675 87.7216761,15.5064182 C87.7216761,13.5141506 89.1005042,12.3840926 90.5292899,12.3840926 C91.9749842,12.3840926 93.3538124,13.4639773 93.3538124,15.4732266 C93.3538124,17.4824759 91.9749842,18.6472693 90.5292899,18.6472693" id="Fill-15"></path>
                                <path d="M13.4708588,19.0349934 C13.5884512,19.1029204 13.7329437,19.1029204 13.8505361,19.0349934 L16.6227954,17.4271309 C16.7403877,17.3592039 16.8134026,17.2333846 16.8134026,17.0967587 L16.8134026,13.8818054 C16.8134026,13.7451796 16.7403877,13.6193603 16.6227954,13.5514333 L13.8505361,11.9435707 C13.7329437,11.8756437 13.5884512,11.8756437 13.4708588,11.9435707 L10.6985996,13.5514333 C10.5810072,13.6193603 10.5079923,13.7451796 10.5079923,13.8818054 L10.5079923,17.0967587 C10.5079923,17.2333846 10.5810072,17.3592039 10.6985996,17.4271309 L13.4708588,19.0349934 Z" id="Fill-17"></path>
                                <path d="M26.182363,6.90732517 L14.800498,0.306829274 C14.0957124,-0.102276425 13.2272197,-0.102276425 12.5216655,0.306829274 L10.5079923,1.47471026 L10.5079923,1.55344381 L10.5079923,4.52061797 L10.5079923,7.56729757 L10.5072237,7.56729757 L10.5079923,10.6147491 L13.4708588,8.89650514 C13.5884512,8.82857816 13.7329437,8.82857816 13.8505361,8.89650514 L19.250562,12.0273216 C19.3681544,12.0960205 19.4404007,12.2218398 19.4404007,12.3576937 L19.4404007,18.6200985 C19.4404007,18.7567244 19.3681544,18.8817718 19.250562,18.9504707 L13.8505361,22.0812871 C13.7329437,22.149986 13.5884512,22.149986 13.4708588,22.0812871 L8.07160148,18.9504707 C7.95400911,18.8817718 7.88099425,18.7567244 7.88099425,18.6200985 L7.88099425,2.99843601 L1.13980051,6.90732517 C0.434246318,7.31643087 0,8.07134667 0,8.88955807 L0,22.0882342 C0,22.9064456 0.434246318,23.6621333 1.13980051,24.0704671 L12.5224341,30.6678754 C13.2272197,31.0762092 14.0949438,31.0762092 14.7997294,30.6678754 L26.1815944,24.0704671 C26.8871486,23.6621333 27.3206263,22.9064456 27.3206263,22.0882342 L27.3206263,8.88878617 C27.3206263,8.07134667 26.8871486,7.31643087 26.182363,6.90732517 L26.182363,6.90732517 Z M14.0403748,28.064265 C13.80519,28.2001189 13.5162049,28.2001189 13.2810201,28.064265 L3.00744397,22.1067597 C2.77225924,21.9701338 2.62699808,21.7184952 2.62699808,21.4460154 L2.62699808,9.53177682 C2.62699808,9.25929699 2.77225924,9.00765839 3.00744397,8.87103253 L5.25476474,7.56806947 L5.25476474,19.7030708 C5.25476474,20.1114046 5.47150361,20.4896344 5.82351213,20.6941872 L16.286927,26.7613019 L14.0403748,28.064265 Z M24.6943968,21.4452435 C24.6943968,21.7177234 24.5499042,21.969362 24.3147195,22.1059878 L19.1990673,25.073162 C19.0222945,25.1758243 18.8055556,25.1758243 18.6295513,25.073162 L16.286927,23.7146223 L21.4978828,20.6941872 C21.8498913,20.4896344 22.0673987,20.1114046 22.0673987,19.7030708 L22.0673987,11.2754934 C22.0673987,10.8663877 21.8498913,10.4889298 21.4978828,10.2843769 L14.1864045,6.04434372 C13.8620648,5.85600072 13.4608673,5.85600072 13.135759,6.04357182 L13.135759,2.99766411 L13.2810201,2.91352728 C13.5162049,2.77690141 13.80519,2.77690141 14.0403748,2.91352728 L24.3147195,8.87103253 C24.5499042,9.00765839 24.6943968,9.25929699 24.6943968,9.53177682 L24.6943968,21.4452435 Z" id="Fill-19"></path>
                                <polygon id="Fill-21" points="34.5507891 22.1926719 34.9565981 22.1926719 35.5068996 24.2104121 36.10101 22.1926719 36.506819 22.1926719 37.087095 24.2142716 37.6289422 22.1926719 38.0216853 22.1926719 37.274628 24.595589 36.8649761 24.595589 36.288543 22.689002 35.7121098 24.595589 35.302458 24.595589"></polygon>
                                <path d="M41.4852801,22.1534595 C41.9302865,22.1534595 42.2361804,22.3819412 42.3760615,22.6312641 L42.3760615,22.1928263 L42.7780275,22.1928263 L42.7780275,24.5957433 L42.3760615,24.5957433 L42.3760615,24.1488147 C42.2323375,24.4074003 41.9218321,24.6351101 41.4806686,24.6351101 C40.8435178,24.6351101 40.350091,24.1318329 40.350091,23.3861799 C40.350091,22.6358955 40.8435178,22.1534595 41.4852801,22.1534595 M41.5644436,22.5000415 C41.127123,22.5000415 40.7559,22.820379 40.7559,23.3861799 C40.7559,23.9512089 41.127123,24.2846686 41.5644436,24.2846686 C42.0002271,24.2846686 42.3760615,23.9558403 42.3760615,23.3900394 C42.3760615,22.8327294 42.0002271,22.5000415 41.5644436,22.5000415" id="Fill-23"></path>
                                <polygon id="Fill-25" points="45.5335318 24.5959749 45.9308864 24.5959749 45.9308864 21.3509176 45.5335318 21.3509176"></polygon>
                                <polygon id="Fill-27" points="48.6908484 24.5959749 49.088203 24.5959749 49.088203 21.3509176 48.6908484 21.3509176"></polygon>
                                <path d="M52.8825935,24.6357276 C52.2008652,24.6357276 51.6997527,24.1525198 51.6997527,23.389885 C51.6997527,22.6311097 52.1847251,22.1533051 52.8825935,22.1533051 C53.576619,22.1533051 54.0308484,22.6450039 54.0308484,23.3018887 C54.0308484,23.389885 54.0262369,23.4601277 54.0185511,23.5434926 L52.1055616,23.5434926 C52.1355361,24.03056 52.4767846,24.2984084 52.8825935,24.2984084 C53.2407506,24.2984084 53.467481,24.113153 53.5550989,23.8545673 L53.9831966,23.8545673 C53.8602242,24.2930051 53.4759354,24.6357276 52.8825935,24.6357276 M52.1101731,23.2185237 L53.620428,23.2185237 C53.6250394,22.7499819 53.2761052,22.4913963 52.8656848,22.4913963 C52.4767846,22.4913963 52.1532134,22.7499819 52.1101731,23.2185237" id="Fill-29"></path>
                                <path d="M56.7254813,22.5220406 L56.4157445,22.5220406 L56.4157445,22.1924403 L56.7254813,22.1924403 L56.7254813,21.5880446 L57.1236045,21.5880446 L57.1236045,22.1924403 L57.7469209,22.1924403 L57.7469209,22.5220406 L57.1236045,22.5220406 L57.1236045,23.9384726 C57.1236045,24.1754451 57.2104537,24.2580382 57.4548614,24.2580382 L57.7469209,24.2580382 L57.7469209,24.5961293 L57.3895323,24.5961293 C56.9652775,24.5961293 56.7254813,24.4201367 56.7254813,23.9384726 L56.7254813,22.5220406 Z" id="Fill-31"></path>
                            </g>
                        </g>
                    </g>
                </g>
            </g>
        </g>
    </g>
</svg>