<svg width="180" height="44" viewBox="0 0 180 44" fill="none" xmlns="http://www.w3.org/2000/svg">
<path fill-rule="evenodd" clip-rule="evenodd" d="M48.9565 17.0092C49.3213 17.374 49.7635 17.5508 50.2941 17.5508C50.8246 17.5508 51.2778 17.374 51.6315 17.0092C51.9964 16.6334 52.1732 16.1912 52.1732 15.6717C52.1732 15.1411 51.9963 14.6879 51.6315 14.3342C51.2667 13.9584 50.8246 13.7705 50.2941 13.7705C49.7635 13.7705 49.3103 13.9584 48.9565 14.3342C48.5918 14.699 48.415 15.1411 48.415 15.6717C48.415 16.1912 48.5918 16.6334 48.9565 17.0092Z" fill="#4C63DB"/>
<path fill-rule="evenodd" clip-rule="evenodd" d="M48.6236 18.8434C48.5573 18.9099 48.5352 18.9872 48.5352 19.0978V29.9081C48.5352 30.0186 48.5683 30.1069 48.6236 30.1622C48.69 30.2285 48.7673 30.2506 48.8778 30.2506H51.6964C51.807 30.2506 51.8955 30.2175 51.9508 30.1622C52.017 30.096 52.0502 30.0186 52.0502 29.9081V19.0978C52.0502 18.9872 52.017 18.8987 51.9508 18.8434C51.8844 18.7771 51.807 18.755 51.6964 18.755H48.8778C48.7783 18.744 48.69 18.7771 48.6236 18.8434Z" fill="#4C63DB"/>
<path fill-rule="evenodd" clip-rule="evenodd" d="M85.3873 25.3878C85.4979 25.1557 85.5531 24.7799 85.5531 24.2604C85.5531 23.2214 85.3209 22.2708 84.8678 21.3975C84.4145 20.5243 83.7734 19.8279 82.9444 19.3084C82.1154 18.7889 81.1537 18.5347 80.0817 18.5347C78.9874 18.5347 77.9926 18.8 77.0972 19.3305C76.2018 19.85 75.4945 20.5575 74.9859 21.4638C74.4885 22.3702 74.2344 23.3761 74.2344 24.4704C74.2344 25.5648 74.4885 26.5706 75.0081 27.477C75.5276 28.3835 76.2461 29.1019 77.1745 29.6434C78.114 30.174 79.1753 30.4393 80.3468 30.4393C81.1758 30.4393 81.9496 30.2956 82.6681 29.9972C83.4088 29.6877 84.0497 29.2455 84.6136 28.6818C84.702 28.5934 84.7573 28.494 84.7573 28.4055C84.7573 28.317 84.7241 28.2286 84.6578 28.1733L83.4309 27.0018C83.3314 26.9022 83.2539 26.858 83.1766 26.858C83.0771 26.858 82.9997 26.8912 82.9223 26.9574C82.5354 27.2117 82.1597 27.3886 81.7949 27.4992C81.4522 27.5875 81.0875 27.6428 80.6896 27.6428C79.9047 27.6428 79.2526 27.488 78.7441 27.1785C78.2467 26.8469 77.9041 26.3716 77.7383 25.7416H84.7129C85.0557 25.7195 85.2768 25.6089 85.3873 25.3878M78.523 22.0277C78.9651 21.685 79.4847 21.5081 80.0927 21.5081C80.6896 21.5081 81.198 21.685 81.618 22.0277C82.038 22.3593 82.3034 22.8456 82.4139 23.4867H77.6719C77.8045 22.8456 78.092 22.3593 78.523 22.0277" fill="#4C63DB"/>
<path fill-rule="evenodd" clip-rule="evenodd" d="M97.7683 24.26C97.7683 24.7795 97.713 25.1555 97.6025 25.3875C97.4919 25.6086 97.2709 25.7191 96.9172 25.7191H89.9423C90.1193 26.3491 90.4509 26.8244 90.9483 27.1561C91.4678 27.4656 92.1198 27.6203 92.8936 27.6203C93.2916 27.6203 93.6564 27.5761 93.9989 27.4767C94.3637 27.3662 94.7396 27.1892 95.1265 26.935C95.2039 26.8688 95.2923 26.8355 95.3806 26.8355C95.4581 26.8355 95.5464 26.8797 95.6348 26.9793L96.8619 28.1509C96.9282 28.2172 96.9613 28.2946 96.9613 28.383C96.9613 28.4715 96.9172 28.5709 96.8176 28.6593C96.254 29.2231 95.6017 29.6652 94.8723 29.9747C94.1538 30.2731 93.3801 30.4168 92.551 30.4168C91.3793 30.4168 90.3182 30.1516 89.3787 29.621C88.4501 29.0904 87.7316 28.3719 87.2122 27.4545C86.6927 26.5481 86.4385 25.5424 86.4385 24.4479C86.4385 23.3538 86.6927 22.3478 87.1901 21.4414C87.7096 20.5351 88.4169 19.8166 89.3012 19.3081C90.1967 18.7775 91.1915 18.5122 92.2856 18.5122C93.3689 18.5122 94.3196 18.7665 95.1486 19.286C95.9776 19.8055 96.6187 20.5018 97.0718 21.3751C97.536 22.2704 97.7683 23.2211 97.7683 24.26M92.3189 21.508C91.7109 21.508 91.1804 21.6848 90.7494 22.0276C90.3073 22.3592 90.0309 22.8454 89.9092 23.4865H94.6513C94.5407 22.8454 94.2754 22.3592 93.8554 22.0276C93.4133 21.6848 92.9048 21.508 92.3189 21.508" fill="#4C63DB"/>
<path fill-rule="evenodd" clip-rule="evenodd" d="M108.025 19.3305C107.174 18.8 106.234 18.5347 105.184 18.5347C103.835 18.5347 102.73 19.0873 101.868 20.1816L101.746 19.1205C101.713 18.8884 101.603 18.7668 101.393 18.7668H98.994C98.8835 18.7668 98.7951 18.8 98.7398 18.8552C98.6734 18.9215 98.6514 18.9989 98.6514 19.1095V34.3854C98.6514 34.4959 98.6845 34.5844 98.7398 34.6396C98.8061 34.7061 98.8835 34.7391 98.994 34.7391H101.813C101.923 34.7391 102.012 34.7061 102.067 34.6396C102.133 34.5733 102.155 34.485 102.155 34.3854V29.2346C102.929 30.0303 103.924 30.4282 105.162 30.4282C106.212 30.4282 107.163 30.1741 108.003 29.6545C108.865 29.124 109.528 28.4056 110.003 27.5101C110.49 26.6038 110.733 25.609 110.733 24.5257C110.733 23.4093 110.49 22.4035 110.003 21.4971C109.55 20.5906 108.887 19.8611 108.025 19.3305M106.609 26.4711C106.123 26.9685 105.504 27.2228 104.752 27.2228C103.989 27.2228 103.359 26.9685 102.873 26.4711C102.398 25.9737 102.166 25.3216 102.166 24.5257C102.166 23.7409 102.398 23.0888 102.873 22.5471C103.359 22.0166 103.989 21.7513 104.752 21.7513C105.504 21.7513 106.123 22.0055 106.609 22.525C107.106 23.0445 107.361 23.7078 107.361 24.5257C107.361 25.3216 107.118 25.9737 106.609 26.4711" fill="#4C63DB"/>
<path fill-rule="evenodd" clip-rule="evenodd" d="M60.5842 18.7445C60.6948 18.7445 60.7832 18.7777 60.8385 18.8329C60.9048 18.8991 60.9269 18.9766 60.9269 19.0872V21.2204C60.9269 21.3309 60.8937 21.4195 60.8385 21.4747C60.7721 21.541 60.6948 21.5742 60.5842 21.5742H58.7051V29.8975C58.7051 30.008 58.672 30.0965 58.6057 30.1517C58.5393 30.2181 58.462 30.2513 58.3514 30.2513H55.5328C55.4223 30.2513 55.3338 30.2181 55.2786 30.1517C55.2122 30.0855 55.1791 30.008 55.1791 29.8975V21.5742H53.3C53.1895 21.5742 53.101 21.541 53.0458 21.4747C52.9794 21.4084 52.9463 21.3309 52.9463 21.2204V19.0872C52.9463 18.9766 52.9794 18.8882 53.0458 18.8329C53.1121 18.7666 53.2005 18.7445 53.3 18.7445H55.1791V15.5722C55.1791 15.4616 55.2122 15.3732 55.2786 15.3179C55.3449 15.2515 55.4223 15.2295 55.5328 15.2295H58.3514C58.462 15.2295 58.5504 15.2627 58.6057 15.3179C58.672 15.3842 58.7051 15.4616 58.7051 15.5722V18.7445H60.5842Z" fill="#4C63DB"/>
<path fill-rule="evenodd" clip-rule="evenodd" d="M44.4128 21.4746C45.2859 21.7068 46.0377 22.182 46.6676 22.9116C47.3088 23.6301 47.6294 24.5032 47.6294 25.5202C47.6294 27.1008 47.1208 28.2946 46.104 29.0904C45.098 29.8753 43.5617 30.2622 41.4947 30.2622H35.7138C35.6032 30.2622 35.5148 30.2289 35.4595 30.1736C35.3931 30.1074 35.3711 30.03 35.3711 29.9194V14.1682C35.3711 14.0576 35.4043 13.9693 35.4595 13.914C35.5258 13.8477 35.6032 13.8145 35.7138 13.8145H41.4725C42.5116 13.8145 43.3959 14.0024 44.1253 14.3783C44.8771 14.754 45.4408 15.2626 45.8166 15.9037C46.2035 16.5447 46.4025 17.2631 46.4025 18.0701C46.4025 18.8881 46.2035 19.5956 45.8166 20.2035C45.4517 20.8114 44.9766 21.2315 44.4128 21.4746V21.4746ZM43.0083 18.5346C43.0083 17.5288 42.3893 17.0314 41.1514 17.0314H39.018V20.1816H41.1514C41.7261 20.1816 42.1903 20.049 42.5109 19.7836C42.8425 19.4963 43.0083 19.0872 43.0083 18.5346V18.5346ZM41.638 27.0457C42.3565 27.0457 42.9314 26.8799 43.3513 26.5483C43.7714 26.2167 43.9815 25.7304 43.9815 25.0672C43.9815 24.426 43.7714 23.9507 43.3513 23.6523C42.9314 23.3428 42.3565 23.177 41.638 23.177H39.0074V27.0347L41.638 27.0457Z" fill="#4C63DB"/>
<path fill-rule="evenodd" clip-rule="evenodd" d="M75.5162 30.1408C75.5162 30.0634 75.4942 29.9971 75.4498 29.9308L68.9062 21.11L75.2178 14.3121C75.2951 14.2349 75.3393 14.1574 75.3393 14.1021C75.3393 14.0358 75.3062 13.9916 75.2399 13.9585C75.1957 13.9142 75.1182 13.8921 75.0299 13.8921H71.8355C71.6807 13.8921 71.5481 13.9585 71.4375 14.08L65.3802 20.6459V14.2458C65.3802 14.1353 65.3471 14.0468 65.2806 13.9916C65.2144 13.9253 65.1371 13.8921 65.0265 13.8921H62.2079C62.0974 13.8921 62.0089 13.9253 61.9537 13.9916C61.8873 14.0579 61.8652 14.1353 61.8652 14.2458V30.0081C61.8652 30.1186 61.8984 30.2072 61.9537 30.2625C62.0199 30.3287 62.0974 30.3508 62.2079 30.3508H65.0265C65.1371 30.3508 65.2254 30.3177 65.2806 30.2625C65.3471 30.196 65.3802 30.1186 65.3802 30.0081V24.9235L66.7619 23.4202L71.7802 30.1519C71.8686 30.2955 72.0123 30.3618 72.2002 30.3618H75.2288C75.4168 30.3508 75.5162 30.2844 75.5162 30.1408Z" fill="#4C63DB"/>
<path fill-rule="evenodd" clip-rule="evenodd" d="M28.3189 14.9866V16.5893C28.3189 16.9098 28.1531 17.1973 27.8767 17.3519L22.6928 20.3475L27.3241 23.0114C27.9432 23.3652 28.3189 24.0284 28.3189 24.7358V29.0245C28.3189 29.7319 27.9432 30.3951 27.3241 30.7489L15.1542 37.7347C14.5353 38.0884 13.7836 38.0884 13.1646 37.7347L9.17438 35.4356C8.87593 35.2698 8.87593 34.8387 9.17438 34.6729L22.328 27.1012C22.4717 27.0128 22.4717 26.8027 22.328 26.7144L17.4424 23.8957C17.166 23.7409 16.8344 23.7409 16.5581 23.8957L3.19434 31.6C2.99538 31.7215 2.74126 31.7215 2.53113 31.6L1.01681 30.7377C0.397814 30.3841 0.0109429 29.7209 0.0109429 29.0134V27.2559C0.0109429 27.0238 0.132531 26.8027 0.342547 26.6812L19.4982 15.6718C19.642 15.5834 19.642 15.3735 19.4982 15.2849L14.6015 12.4553C14.3252 12.3005 13.9936 12.3005 13.7172 12.4553L0.663208 19.9607C0.364764 20.1265 0 19.9165 0 19.5738V14.9754C0 14.2681 0.375707 13.6049 0.994812 13.2512L13.1646 6.26537C13.7836 5.91154 14.5353 5.91154 15.1542 6.26537L27.3021 13.2733C27.9432 13.616 28.3189 14.2792 28.3189 14.9866Z" fill="#4C63DB"/>
</svg>
