<?xml version="1.0" encoding="UTF-8"?>
<svg width="24px" height="24px" viewBox="0 0 24 24" version="1.1" xmlns="http://www.w3.org/2000/svg" xmlns:xlink="http://www.w3.org/1999/xlink">
    <title>董事会-Light</title>
    <g id="组件/弹窗/导航" stroke="none" stroke-width="1" fill="none" fill-rule="evenodd">
        <g id="H5导航" transform="translate(-496.000000, -159.000000)">
            <g id="HECO-Light默认" transform="translate(170.000000, 152.000000)">
                <g id="5董事会" transform="translate(300.000000, 0.000000)">
                    <g id="5董事会-Light" transform="translate(26.000000, 7.000000)">
                        <polygon id="路径" points="0 24 24 24 24 0 0 0"></polygon>
                        <g id="编组" transform="translate(0.750051, 0.000000)">
                            <path d="M11.2494033,6.08238491 L16.0339681,11.2123824 C16.0508218,11.2304529 16.0683395,11.2478925 16.0864851,11.2646653 C16.4920496,11.6395464 17.1247258,11.6146726 17.499607,11.2091081 L17.499607,11.2091081 L20.0059564,8.49761801 C20.330176,8.14686162 20.810145,7.98444955 21.2807359,8.06625771 C22.0466688,8.19940851 22.55964,8.92825982 22.4264892,9.69419268 L22.4264892,9.69419268 L20.5158167,20.6850904 C20.1827228,22.6011702 18.519739,24 16.574922,24 L16.574922,24 L5.76562512,24 C3.80709886,24 2.13661176,22.5818767 1.81868032,20.6493279 L1.81868032,20.6493279 L0.0191153703,9.71065824 C-0.0592509213,9.23430812 0.106372978,8.75039057 0.460182244,8.42195532 C1.04285521,7.88106971 1.95367939,7.91494505 2.494565,8.49761801 L2.494565,8.49761801 L5.01356273,11.2112267 L5.01356273,11.2112267 L5.06543203,11.263145 C5.46984586,11.6392672 6.10259532,11.6163322 6.47871751,11.2119184 L6.47871751,11.2119184 L11.2494033,6.08238491 Z M11.2499491,0 C12.630661,0 13.7499491,1.11928813 13.7499491,2.5 C13.7499491,3.16527449 13.4900903,3.7698557 13.0663374,4.21777879 C12.7625343,4.53891032 12.1548759,5.16044569 11.2433621,6.08238491 C10.3487385,5.16420204 9.7497804,4.5471876 9.44648785,4.23134158 C9.01509889,3.78209714 8.74994912,3.17201309 8.74994912,2.5 C8.74994912,1.11928813 9.86923725,0 11.2499491,0 Z" id="形状结合" fill="#A1AAB3"></path>
                            <rect id="矩形" fill="#FFFFFF" x="6.24994912" y="18.995236" width="10" height="2" rx="1"></rect>
                        </g>
                    </g>
                </g>
            </g>
        </g>
    </g>
</svg>