<svg width="861" height="219" viewBox="0 0 861 219" fill="none" xmlns="http://www.w3.org/2000/svg">
<g clip-path="url(#clip0_720_56927)">
<rect x="0.255371" width="860" height="219" rx="40" fill="url(#paint0_linear_720_56927)"/>
<path opacity="0.04" d="M738.915 15H738.905C737.464 15 736.295 16.1685 736.295 17.61V66.39C736.295 67.8315 737.464 69 738.905 69H738.915C740.357 69 741.525 67.8315 741.525 66.39V17.61C741.525 16.1685 740.357 15 738.915 15Z" fill="url(#paint1_linear_720_56927)"/>
<path opacity="0.08" d="M613.915 0H613.905C612.464 0 611.295 1.16854 611.295 2.61V51.39C611.295 52.8315 612.464 54 613.905 54H613.915C615.357 54 616.525 52.8315 616.525 51.39V2.61C616.525 1.16854 615.357 0 613.915 0Z" fill="url(#paint2_linear_720_56927)"/>
<path opacity="0.15" d="M574.915 113H574.905C573.464 113 572.295 114.169 572.295 115.61V164.39C572.295 165.831 573.464 167 574.905 167H574.915C576.357 167 577.525 165.831 577.525 164.39V115.61C577.525 114.169 576.357 113 574.915 113Z" fill="url(#paint3_linear_720_56927)"/>
<path opacity="0.08" d="M778.765 78C779.09 78 779.411 78.0639 779.711 78.188C780.01 78.3121 780.283 78.4941 780.512 78.7234C780.741 78.9528 780.923 79.2251 781.047 79.5248C781.172 79.8244 781.235 80.1456 781.235 80.47V126.53C781.235 126.854 781.172 127.176 781.047 127.475C780.923 127.775 780.741 128.047 780.512 128.277C780.283 128.506 780.01 128.688 779.711 128.812C779.411 128.936 779.09 129 778.765 129C778.441 129.001 778.119 128.938 777.819 128.815C777.518 128.691 777.246 128.509 777.016 128.279C776.786 128.05 776.604 127.777 776.481 127.477C776.357 127.177 776.294 126.855 776.295 126.53V80.47C776.294 80.1453 776.357 79.8235 776.481 79.5232C776.604 79.2229 776.786 78.9501 777.016 78.7205C777.246 78.4909 777.518 78.309 777.819 78.1853C778.119 78.0617 778.441 77.9987 778.765 78Z" fill="url(#paint4_linear_720_56927)"/>
<path opacity="0.27" d="M759.765 142C760.421 142 761.049 142.26 761.512 142.723C761.975 143.187 762.235 143.815 762.235 144.47V190.53C762.235 191.185 761.975 191.813 761.512 192.277C761.049 192.74 760.421 193 759.765 193C759.441 193.001 759.119 192.938 758.819 192.815C758.518 192.691 758.246 192.509 758.016 192.28C757.786 192.05 757.604 191.777 757.481 191.477C757.357 191.177 757.294 190.855 757.295 190.53V144.47C757.294 144.145 757.357 143.824 757.481 143.523C757.604 143.223 757.786 142.95 758.016 142.721C758.246 142.491 758.518 142.309 758.819 142.185C759.119 142.062 759.441 141.999 759.765 142Z" fill="url(#paint5_linear_720_56927)"/>
<path opacity="0.4" fill-rule="evenodd" clip-rule="evenodd" d="M697.295 256C641.295 256 588.595 249.33 548.965 237.21C529.675 231.32 514.525 224.43 503.965 216.77C492.895 208.79 487.295 200.29 487.295 191.5C487.295 182.71 492.895 174.21 503.935 166.23C514.525 158.57 529.675 151.69 548.935 145.79C588.595 133.67 641.295 127 697.295 127C753.295 127 805.995 133.67 845.615 145.79C864.905 151.68 880.065 158.57 890.615 166.23C901.615 174.23 907.255 182.71 907.255 191.5C907.255 200.29 901.655 208.79 890.615 216.77C880.025 224.43 864.875 231.31 845.615 237.21C805.995 249.33 753.295 256 697.295 256ZM697.295 127.8C581.945 127.8 488.095 156.38 488.095 191.5C488.095 226.62 581.945 255.2 697.295 255.2C812.645 255.2 906.495 226.62 906.495 191.5C906.495 156.38 812.645 127.8 697.295 127.8ZM561.445 234.05C597.935 245 646.035 251 697.115 251H698.935C741.245 250.88 781.335 246.68 814.865 238.85C831.005 235.07 845.065 230.57 856.645 225.47C868.405 220.29 877.345 214.61 883.205 208.58C888.735 202.89 891.455 196.96 891.285 190.94C890.845 174.94 870.195 160.06 833.145 148.94C796.665 138 748.555 132 697.475 132H695.665C653.345 132.12 613.255 136.32 579.725 144.15C563.585 147.93 549.525 152.43 537.945 157.53C526.185 162.71 517.245 168.39 511.385 174.42C505.855 180.11 503.135 186 503.295 192.06C503.745 208 524.395 222.94 561.445 234.05ZM695.665 132.8H697.465C803.175 132.8 889.595 158.8 890.465 190.97C890.625 196.76 887.975 202.49 882.615 208.02C871.115 219.84 846.985 230.51 814.615 238.02C781.155 245.84 741.115 250.02 698.855 250.16H697.045C591.345 250.16 504.915 224.16 504.045 191.99C503.885 186.2 506.535 180.46 511.905 174.93C523.385 163.11 547.525 152.45 579.905 144.93C613.375 137.11 653.405 132.92 695.665 132.8ZM696.935 246C650.805 246 607.255 240.61 573.935 230.75C539.605 220.6 520.215 206.88 519.295 192.11C518.995 186.54 521.295 181 526.295 175.75C531.495 170.16 539.535 164.88 550.165 160.06C560.635 155.31 573.395 151.12 588.095 147.58C618.625 140.25 655.265 136.25 694.095 136.01C741.575 135.72 786.545 141.13 820.735 151.24C854.925 161.35 874.455 175.12 875.345 189.89C875.675 195.46 873.345 200.97 868.425 206.25C863.225 211.84 855.185 217.12 844.555 221.94C834.095 226.69 821.325 230.88 806.625 234.41C776.095 241.75 739.455 245.76 700.625 245.99L696.935 246ZM697.655 136.81H694.025C655.295 137.05 618.705 141 588.295 148.36C558.875 155.43 537.065 165.36 526.865 176.29C522.105 181.41 519.865 186.71 520.165 192.05C520.595 199.29 525.665 206.31 535.165 212.91C544.465 219.33 557.585 225.07 574.165 229.97C607.415 239.8 650.885 245.18 696.935 245.18H700.575C739.295 244.94 775.875 241 806.295 233.63C835.705 226.56 857.525 216.63 867.715 205.7C872.485 200.58 874.715 195.28 874.415 189.94C873.985 182.7 868.925 175.68 859.365 169.08C850.065 162.66 836.955 156.92 820.365 152.02C787.185 142.19 743.705 136.81 697.655 136.81ZM586.445 226.73C616.585 235.32 655.575 240 696.755 240C698.565 240 700.395 240 702.205 240C737.485 239.65 770.665 235.92 798.205 229.23C809.9 226.518 821.314 222.711 832.295 217.86C841.805 213.49 848.935 208.71 853.495 203.66C857.825 198.87 859.765 193.88 859.255 188.85C857.925 175.56 839.785 163.29 808.185 154.28C776.585 145.27 735.555 140.6 692.375 141C657.095 141.34 623.915 145.07 596.375 151.77C584.683 154.485 573.273 158.296 562.295 163.15C552.785 167.52 545.655 172.29 541.095 177.34C536.765 182.13 534.835 187.12 535.335 192.15C536.705 205.44 554.845 217.72 586.445 226.73ZM550.595 210.73C541.675 204.84 536.815 198.55 536.165 192.05C535.685 187.24 537.555 182.46 541.725 177.86C550.625 167.99 570.105 159 596.605 152.55C624.055 145.87 657.165 142.14 692.385 141.8C735.495 141.37 776.525 146.06 807.925 155.01C823.165 159.35 835.305 164.47 843.985 170.21C852.905 176.09 857.765 182.39 858.415 188.89C858.895 193.69 857.025 198.47 852.855 203.09C843.955 212.95 824.465 221.93 797.975 228.38C770.535 235.07 737.415 238.78 702.195 239.14C659.095 239.57 618.065 234.87 586.665 225.92C571.415 221.61 559.295 216.5 550.595 210.76V210.73ZM696.595 234C660.345 234 625.925 230 598.975 222.55C570.105 214.55 553.225 203.63 551.445 191.71C550.775 187.15 552.325 182.63 556.085 178.26C563.925 169.14 580.795 161.14 604.845 155.12C629.315 149.01 659.025 145.52 690.745 145.05C729.625 144.48 766.875 148.53 795.615 156.45C824.355 164.37 841.365 175.36 843.145 187.29C843.815 191.85 842.265 196.37 838.515 200.73C830.685 209.85 813.815 217.85 789.755 223.87C765.285 229.98 735.585 233.47 703.855 233.94C701.435 234 699.005 234 696.595 234ZM697.995 145.8C695.585 145.8 693.175 145.8 690.745 145.8C659.085 146.27 629.445 149.74 605.035 155.85C581.475 161.74 564.305 169.85 556.695 178.73C553.105 182.91 551.615 187.22 552.255 191.54C553.125 197.37 557.765 202.99 566.055 208.24C574.135 213.35 585.275 217.89 599.195 221.73C626.085 229.14 660.425 233.16 696.595 233.16C699.015 233.16 701.425 233.16 703.845 233.11C735.515 232.64 765.155 229.16 789.565 223.11C813.125 217.22 830.295 209.11 837.905 200.23C841.495 196.05 842.985 191.74 842.345 187.42C841.475 181.59 836.835 175.97 828.535 170.72C820.465 165.6 809.315 161.06 795.395 157.23C768.515 149.81 734.165 145.8 697.995 145.8ZM611.365 219.24C635.005 225.59 664.745 229 695.945 229C698.945 229 701.945 229 704.945 228.91C732.995 228.32 759.095 225.04 780.445 219.44C801.445 213.93 815.995 206.67 822.525 198.44C825.695 194.44 826.855 190.34 826.005 186.19C823.795 175.48 808.235 165.74 782.205 158.74C756.175 151.74 723.055 148.35 688.605 149.07C660.605 149.66 634.465 152.94 613.105 158.54C592.105 164.05 577.555 171.31 571.025 179.54C567.865 183.54 566.695 187.65 567.545 191.79C569.775 202.5 585.295 212.25 611.365 219.24ZM581.465 206.53C573.845 201.86 569.465 196.85 568.355 191.63C567.555 187.73 568.675 183.83 571.685 180.04C578.015 172.04 592.805 164.73 613.335 159.34C634.625 153.75 660.665 150.49 688.645 149.9C723.035 149.18 756.195 152.6 782.035 159.54C794.575 162.91 804.705 166.91 812.135 171.47C819.755 176.14 824.135 181.15 825.245 186.37C826.055 190.27 824.935 194.17 821.925 197.96C815.595 205.96 800.805 213.27 780.275 218.66C758.985 224.25 732.945 227.51 704.965 228.1C670.585 228.82 637.435 225.39 611.575 218.46C599.015 215.09 588.895 211.09 581.465 206.53ZM695.805 224C669.515 224 644.345 221.23 623.955 216C600.685 210.06 586.395 201.66 583.745 192.31C582.745 188.62 583.495 184.94 586.115 181.36C591.385 174.17 603.695 167.76 621.685 162.84C639.975 157.84 662.555 154.84 686.995 154.11C717.125 153.25 746.475 156.02 769.635 161.93C792.795 167.84 807.185 176.26 809.845 185.61C810.895 189.3 810.115 192.98 807.475 196.56C802.195 203.75 789.895 210.16 771.905 215.08C753.605 220.08 731.025 223.08 706.595 223.8C702.989 223.933 699.392 224 695.805 224ZM584.505 192.14C589.855 210.96 644.615 224.82 706.565 223.04C730.935 222.34 753.455 219.34 771.685 214.35C789.255 209.54 801.735 203.07 806.835 196.13C809.295 192.77 810.045 189.32 809.075 185.88C803.725 167.06 748.965 153.19 687.015 154.97C662.655 155.67 640.135 158.68 621.905 163.67C604.295 168.48 591.855 175 586.755 181.89C584.295 185.25 583.535 188.69 584.505 192.14ZM636.585 212.8C653.675 216.86 674.285 219 695.675 219C699.835 219 704.025 218.92 708.215 218.76C750.135 217.13 783.945 207.5 792.325 194.76C793.335 193.38 793.979 191.767 794.2 190.072C794.42 188.376 794.209 186.652 793.585 185.06C790.495 177.06 777.505 170.06 757.005 165.16C736.505 160.26 711.165 158.16 685.375 159.16C643.455 160.8 609.645 170.43 601.265 183.16C600.257 184.541 599.613 186.153 599.393 187.849C599.172 189.544 599.383 191.268 600.005 192.86C603.105 200.88 616.095 207.94 636.585 212.8ZM708.185 217.96C655.185 220.03 606.985 208.65 600.755 192.61C600.174 191.133 599.978 189.532 600.184 187.958C600.391 186.384 600.993 184.888 601.935 183.61C605.835 177.7 616.015 172.13 630.605 167.93C645.755 163.55 664.715 160.81 685.405 160.01C738.405 157.95 786.615 169.32 792.845 185.36C793.42 186.839 793.613 188.439 793.405 190.013C793.197 191.586 792.595 193.081 791.655 194.36C787.755 200.26 777.575 205.83 762.995 210.04C747.835 214.41 728.885 217.16 708.185 218V217.96ZM696.065 213.96C680.429 214.066 664.824 212.538 649.505 209.4C631.705 205.52 619.955 199.7 616.415 192.99C615.66 191.658 615.273 190.149 615.296 188.617C615.319 187.086 615.75 185.589 616.545 184.28C622.545 173.62 649.755 165.2 684.215 163.34C705.755 162.19 727.375 163.67 745.085 167.52C762.795 171.37 774.635 177.23 778.185 183.93C778.938 185.263 779.321 186.773 779.297 188.304C779.272 189.835 778.84 191.331 778.045 192.64C772.045 203.31 744.835 211.72 710.385 213.58C705.605 213.87 700.805 214 696.065 214V213.96ZM617.125 192.61C624.255 206.11 666.075 215.16 710.335 212.77C744.525 210.93 771.465 202.68 777.335 192.24C778.06 191.049 778.454 189.687 778.477 188.293C778.5 186.899 778.151 185.524 777.465 184.31C770.325 170.81 728.465 161.76 684.245 164.15C650.055 165.99 623.125 174.24 617.245 184.68C616.511 185.875 616.112 187.246 616.09 188.649C616.069 190.051 616.427 191.433 617.125 192.65V192.61ZM661.555 205C672.771 207.052 684.154 208.057 695.555 208C700.895 208 706.245 207.8 711.555 207.4C724.915 206.4 736.815 204.13 745.965 200.93C755.115 197.73 760.775 193.87 762.655 189.67C763.239 188.396 763.448 186.983 763.258 185.595C763.069 184.207 762.489 182.901 761.585 181.83C757.585 176.4 747.115 171.83 732.075 168.98C715.579 166.055 698.775 165.258 682.075 166.61C668.725 167.61 656.825 169.87 647.665 173.08C638.505 176.29 632.875 180.08 630.985 184.33C630.405 185.604 630.197 187.017 630.386 188.405C630.576 189.792 631.154 191.098 632.055 192.17C636.035 197.59 646.515 202.15 661.555 205ZM711.455 206.57C676.045 209.28 640.715 202.57 632.695 191.68C631.887 190.725 631.365 189.562 631.188 188.324C631.011 187.086 631.187 185.823 631.695 184.68C635.425 176.38 655.695 169.45 682.125 167.43C717.545 164.71 752.875 171.43 760.895 182.32C761.708 183.272 762.233 184.436 762.41 185.675C762.587 186.914 762.409 188.178 761.895 189.32C758.165 197.62 737.895 204.55 711.455 206.58V206.57ZM695.635 203C674.635 203 655.245 199 648.125 192.65C645.685 190.46 644.795 188.07 645.565 185.72C646.565 182.65 650.315 179.72 656.415 177.32C662.515 174.92 670.875 173 680.415 171.95C707.205 168.95 736.415 173.2 745.485 181.35C747.925 183.54 748.815 185.93 748.045 188.28C747.045 191.35 743.295 194.28 737.195 196.68C731.095 199.08 722.725 201 713.195 202.05C707.364 202.692 701.502 203.009 695.635 203ZM698.045 171.79C692.176 171.783 686.311 172.097 680.475 172.73C661.665 174.81 648.295 180 646.295 186C645.625 188.06 646.405 190.11 648.635 192.1C657.575 200.1 686.485 204.24 713.065 201.3C731.915 199.17 745.295 194 747.295 188C747.965 185.94 747.175 183.89 744.955 181.9C737.935 175.68 718.775 171.79 698.045 171.79ZM664.205 193.35C670.815 196.98 682.965 199 695.615 199C702.092 199.019 708.558 198.461 714.935 197.33C726.345 195.22 733.575 191.45 734.245 187.24C734.505 185.6 733.885 183.12 729.385 180.65C719.385 175.14 696.595 173.35 678.655 176.65C667.235 178.76 660.015 182.53 659.345 186.74C659.085 188.4 659.705 190.87 664.205 193.35ZM678.795 177.46C685.146 176.333 691.585 175.777 698.035 175.8C710.525 175.8 722.505 177.8 729.035 181.36C732.265 183.14 733.795 185.13 733.485 187.11C732.875 190.91 725.715 194.52 714.815 196.53C697.035 199.82 674.515 198.08 664.625 192.64C661.395 190.86 659.855 188.87 660.175 186.89C660.745 183.09 667.895 179.48 678.795 177.46ZM695.795 195C690.747 195.054 685.71 194.496 680.795 193.34C674.875 191.84 671.525 189.6 671.345 187.01C671.235 185.51 672.185 183.28 677.345 181.23C686.205 177.64 702.155 176.94 712.925 179.66C718.845 181.15 722.185 183.4 722.375 185.99C722.475 187.49 721.535 189.72 716.375 191.77C711.215 193.82 703.435 195 695.795 195ZM697.795 178.79C690.275 178.79 682.695 179.89 677.575 181.97C673.935 183.44 671.995 185.21 672.115 186.97C672.265 189.11 675.555 191.21 680.975 192.58C691.595 195.27 707.335 194.58 716.055 191.04C719.695 189.57 721.635 187.8 721.515 186.04C721.365 183.9 718.055 181.8 712.655 180.43C707.779 179.291 702.783 178.74 697.775 178.79H697.795ZM696.795 191C688.105 191 681.295 188.8 681.295 186C681.295 183.2 688.105 181 696.795 181C705.485 181 712.295 183.2 712.295 186C712.295 188.8 705.485 191 696.795 191ZM696.795 181.76C688.015 181.76 682.115 183.95 682.115 186C682.115 188.05 688.015 190.24 696.795 190.24C705.575 190.24 711.475 188.05 711.475 186C711.475 183.95 705.575 181.76 696.795 181.76Z" fill="url(#paint6_linear_720_56927)"/>
<path d="M733.725 54H734.045H735.245H735.575L737.045 53.94H737.355L738.635 53.86H739.015L740.575 53.74H740.845L742.235 53.62H742.655L744.325 53.45H744.495L746.065 53.26L746.515 53.2L748.295 52.96L735.565 45.89L733.785 46.13L733.295 46L731.725 46.19H731.555L729.885 46.37H729.465L728.065 46.49H727.805L726.235 46.61H725.855L724.585 46.69H724.275L722.795 46.75H722.465C722.065 46.75 721.665 46.75 721.275 46.75H717.815C717.375 46.75 716.945 46.75 716.515 46.75H716.315H715.215H714.895L713.665 46.67H713.565L712.465 46.58H712.155L711.015 46.46L709.905 46.33H709.615L708.615 46.19H708.495L707.495 46.03L707.295 46L706.435 45.85H706.275L705.325 45.66H705.095L704.335 45.48H704.145L703.295 45.26L702.695 45L702.315 44.89C702.085 44.83 701.855 44.75 701.625 44.68L701.365 44.61L700.455 44.32L700.295 44.2C700.055 44.12 699.825 44.04 699.605 43.95L699.295 43.83L698.765 43.63L698.445 43.5L697.975 43.3L697.645 43.15L697.195 43L696.875 42.85L696.475 42.65L696.075 42.45L695.885 42.35L695.295 42L708.025 49C708.215 49.11 708.405 49.22 708.605 49.32L708.795 49.42L709.085 49.57H709.205L709.595 49.76L709.925 49.92L710.345 50.11L710.675 50.26L711.145 50.45L711.475 50.59L712.005 50.79L712.305 50.91L712.985 51.15L713.175 51.22L714.085 51.51L714.355 51.59L715.045 51.8L715.415 51.9L716.035 52.07H716.115L716.895 52.26H717.075L717.815 52.53H718.035L719.035 52.73H719.195L720.045 52.89H720.305L721.305 53.06H721.415L722.415 53.2H722.705L723.815 53.33C724.185 53.33 724.565 53.41 724.955 53.45H725.265C725.625 53.45 725.985 53.52 726.355 53.54H726.465L727.685 53.62H728.005H729.105H729.305H730.615H732.365C732.798 53.8062 733.272 53.8733 733.725 54Z" fill="url(#paint7_linear_720_56927)"/>
<path d="M677.873 172.2C653.613 157.77 652.485 141.345 652.455 140.445L652.585 66.2048L639.885 59.2048L639.745 133.455C639.745 134.345 640.205 151.285 664.475 165.705C668.255 167.945 671.405 169.755 674.045 171.215L687.936 177.618C685.296 176.138 681.643 174.44 677.873 172.2Z" fill="url(#paint8_linear_720_56927)"/>
<path d="M700.395 42C700.795 42.81 708.395 58.13 748.295 52.51L748.155 126.35C748.155 127.25 747.625 144.21 723.155 165.44C705.955 180.35 701.575 182.82 700.485 182.97C698.755 183.22 694.375 181.97 677.225 171.89C652.765 157.55 652.295 140.73 652.295 139.83L652.435 66C692.375 60.37 699.995 42.92 700.395 42Z" fill="url(#paint9_linear_720_56927)"/>
<path d="M748.295 53.31V52.77C732.295 54.33 721.475 53.53 714.295 52C721.205 53.72 731.905 54.77 748.295 53.31Z" fill="url(#paint10_linear_720_56927)"/>
<path d="M678.765 171.79C654.435 157.51 653.995 140.79 653.975 139.88L654.105 66.42C688.715 61.56 698.955 47.78 701.295 43.69C700.872 43.166 700.503 42.5997 700.195 42C699.795 42.91 692.195 60.28 652.435 65.87L652.295 139.33C652.295 140.21 652.755 156.97 677.085 171.23C689.665 178.63 695.335 181.23 698.155 182C694.915 180.77 689.235 177.93 678.765 171.79Z" fill="url(#paint11_linear_720_56927)"/>
<path d="M741.735 64.6V64L741.175 64.07V63.43L740.605 63.5V62.86C717.865 66.06 707.675 61.15 703.375 57.45C702.918 56.922 702.525 56.3412 702.205 55.72L702.105 55.94C701.937 55.6893 701.783 55.4289 701.645 55.16L701.545 55.38C701.377 55.1294 701.223 54.8689 701.085 54.6C701.085 54.6 701.085 54.71 700.985 54.82C700.816 54.5715 700.666 54.3108 700.535 54.04C700.195 54.81 693.825 69.46 660.405 74.17L660.295 136.17V136.74C660.295 137.31 660.535 146.07 670.385 155.61L670.955 156.18C674.359 159.483 678.17 162.34 682.295 164.68C696.405 172.99 700.175 174.14 701.685 173.98C701.894 174.01 702.106 174.01 702.315 173.98C703.225 173.85 706.885 171.78 721.315 159.27C741.825 141.49 742.245 127.27 742.315 126.49L742.295 64.54L741.735 64.6Z" fill="url(#paint12_linear_720_56927)"/>
<path d="M702.375 54C702.705 54.68 709.005 67.61 742.295 62.88L742.185 125.2C742.185 125.95 741.725 140.28 721.325 158.2C706.985 170.78 703.325 172.87 702.435 173C700.985 173.2 697.345 172.15 683.045 163.65C662.685 151.52 662.295 137.31 662.295 136.57L662.415 74.24C695.685 69.51 702.035 54.77 702.375 54Z" fill="url(#paint13_linear_720_56927)"/>
<path d="M701.375 54C701.705 54.68 708.005 67.61 741.295 62.88L741.185 125.2C741.185 125.95 740.725 140.28 720.325 158.2C705.985 170.78 702.325 172.87 701.435 173C699.985 173.2 696.345 172.15 682.045 163.65C661.685 151.52 661.295 137.31 661.295 136.57L661.415 74.24C694.685 69.51 701.035 54.77 701.375 54Z" fill="#6CC5F2"/>
<path d="M701.455 171C700.455 170.9 696.825 169.71 683.825 162.13C665.345 151.35 664.355 139.26 664.295 137.75L664.405 78.59C688.045 74.83 698.115 66.19 702.155 61C705.725 64.4 713.265 68.77 728.445 68.77C732.071 68.7484 735.693 68.5314 739.295 68.12L739.185 126.5C739.185 127.4 738.275 140.57 719.185 157.04C705.915 168.42 702.295 170.6 701.455 171Z" fill="url(#paint14_linear_720_56927)"/>
<path fill-rule="evenodd" clip-rule="evenodd" d="M729.295 98.87L710.575 101.56L718.405 81.42L718.485 81.21L696.845 84.32L683.675 123.41L696.675 121.54L691.125 153L729.125 99.12L729.295 98.87ZM728.755 99.23L691.545 152L696.975 121.24L684.035 123.1L697.035 84.6L718.115 81.6L710.295 101.69L710.215 101.89L728.755 99.23Z" fill="white"/>
<path d="M697.175 137L696.785 136.79L700.415 116.31L700.795 116.53L697.175 137Z" fill="#848484"/>
<path d="M703.945 106.62L703.565 106.41L719.905 104.07L720.285 104.28L703.945 106.62Z" fill="#9A9A9A"/>
<path d="M711.905 86.21L703.905 106.62L720.295 104.28L697.175 137L700.795 116.53L688.675 118.26L698.865 88.09L711.905 86.21Z" fill="white"/>
<path d="M688.675 118.25L688.295 118L698.485 87.83L698.865 88.04L688.675 118.25Z" fill="#878787"/>
<path d="M698.865 88.08L698.485 87.87L711.485 86L711.875 86.21L698.865 88.08Z" fill="#9A9A9A"/>
<path d="M687.825 34.3759V34.4659L687.755 34.6159L687.655 34.8359L687.515 35.1059V35.1559L687.325 35.4959V35.5559L687.095 35.9559V36.0259C687.015 36.1759 686.915 36.3259 686.815 36.4859V36.5459L686.465 37.0859L686.125 37.5659L686.045 37.6759L685.665 38.1859L685.595 38.2759L685.195 38.7859L685.135 38.8659L684.655 39.4359L684.545 39.5659C684.375 39.7659 684.195 39.9659 684.015 40.1559L683.955 40.2159L683.415 40.8059L683.285 40.9359L682.655 41.5759L682.525 41.6959L681.885 42.3059L681.795 42.3859C681.535 42.6459 681.245 42.8959 680.955 43.1459L680.645 43.3759C680.355 43.6259 680.065 43.8859 679.745 44.1359L679.565 44.2759L678.565 45.0559L678.425 45.1659L677.295 45.9959L676.525 46.5259L676.245 46.7059L675.665 47.0859L675.335 47.3059L674.765 47.6659L674.415 47.8759L673.785 48.2659L673.465 48.4459L672.545 48.9859H672.495L671.495 49.5459L671.165 49.7159L670.425 50.1059L670.015 50.3159L669.285 50.6959L668.875 50.8959L667.945 51.3359L667.635 51.4759L666.365 52.0359L666.075 52.1659L665.075 52.6059L664.615 52.7859L663.615 53.1759L663.155 53.3459L661.885 53.8159L661.705 53.8859C661.215 54.0659 660.705 54.2359 660.205 54.4059L659.755 54.5559L658.635 54.9259L658.095 55.0959L656.915 55.4559L656.445 55.5959L654.765 56.0759L654.495 56.1459C654.005 56.2859 653.495 56.4159 653.015 56.5359L652.435 56.6859L651.175 56.9859L650.555 57.1259L649.065 57.4659L648.665 57.5559L646.735 57.9559L646.215 58.0559C645.715 58.1459 645.215 58.2359 644.705 58.3459L644.025 58.4759L642.545 58.7259L641.895 58.8259C641.185 58.9459 640.475 59.0559 639.745 59.1559L652.485 66.3759L654.635 66.0459L655.285 65.9359L656.765 65.6859L657.445 65.5659C657.955 65.4759 658.445 65.3759 658.955 65.2659L659.465 65.1659L661.405 64.7759L661.805 64.6859L663.295 64.3459L663.915 64.2059L665.185 63.9059L665.755 63.7659L667.245 63.3659L667.505 63.2959C668.072 63.1492 668.632 62.9892 669.185 62.8159L669.655 62.6859C670.055 62.5559 670.455 62.4459 670.835 62.3159L671.375 62.1459L672.505 61.7759L672.955 61.6359L674.455 61.1059L674.615 61.0459C675.055 60.8859 675.485 60.7359 675.905 60.5659L676.355 60.3959L677.355 60.0059L677.805 59.8259L678.805 59.3859L679.095 59.2659L680.365 58.6959L680.675 58.5559L681.595 58.1159L681.775 58.0359L682.015 57.9159L682.735 57.5559L683.145 57.3559L683.885 56.9659L684.215 56.7959L685.215 56.2259L686.155 55.6859L686.465 55.4959L687.095 55.1159L687.435 54.9059L688.015 54.5359L688.345 54.3259L688.915 53.9459L689.185 53.7559L689.945 53.2359H689.995C690.385 52.9659 690.755 52.6859 691.125 52.4059L691.265 52.2959C691.615 52.0359 691.945 51.7759 692.265 51.5159L692.425 51.3859L693.335 50.6259L693.475 50.4959L694.335 49.7359L694.395 49.6759L695.035 49.0659L695.165 48.9359C695.385 48.7292 695.595 48.5192 695.795 48.3059C695.836 48.2601 695.88 48.2167 695.925 48.1759L696.465 47.5859L696.515 47.5259L697.055 46.9359L697.115 46.8759V46.8059L697.595 46.2359L697.655 46.1659L698.055 45.6559L698.125 45.5559C698.265 45.3859 698.385 45.2059 698.505 45.0459L698.585 44.9359C698.705 44.7759 698.815 44.6059 698.925 44.4459C699.035 44.2859 699.165 44.0859 699.275 43.9159V43.8559L699.565 43.3959V43.3259L699.795 42.9259V42.8659C699.865 42.7459 699.935 42.6259 699.985 42.5159L700.115 42.2459L700.225 42.0259L700.295 41.8759V41.7859L687.825 34.3759Z" fill="url(#paint15_linear_720_56927)"/>
<path d="M619.795 105C621.728 105 623.295 103.433 623.295 101.5C623.295 99.567 621.728 98 619.795 98C617.862 98 616.295 99.567 616.295 101.5C616.295 103.433 617.862 105 619.795 105Z" fill="#0C81BB"/>
<path d="M759.295 93C762.057 93 764.295 90.7614 764.295 88C764.295 85.2386 762.057 83 759.295 83C756.534 83 754.295 85.2386 754.295 88C754.295 90.7614 756.534 93 759.295 93Z" fill="#0C81BB"/>
<path d="M599.295 80C602.609 80 605.295 77.3137 605.295 74C605.295 70.6863 602.609 68 599.295 68C595.982 68 593.295 70.6863 593.295 74C593.295 77.3137 595.982 80 599.295 80Z" fill="#0EAFFF"/>
<path d="M601.175 163.54L601.075 163.6C598.295 165.5 596.735 168.68 596.365 172.6C596.127 175.778 596.483 178.972 597.415 182.02C598.217 184.757 599.328 187.394 600.725 189.88C601.445 191.16 602.245 192.41 603.125 193.71C603.875 194.78 604.655 195.78 605.465 196.71C607.296 198.896 609.358 200.878 611.615 202.62C614.091 204.576 616.885 206.092 619.875 207.1C624.035 208.44 627.965 208.25 630.945 206.26L631.055 206.18L639.295 200.59L635.735 195.51C635.716 192.678 635.264 189.866 634.395 187.17C633.534 184.466 632.381 181.864 630.955 179.41C630.325 178.33 629.635 177.25 628.955 176.18C628.081 174.945 627.143 173.757 626.145 172.62C624.277 170.447 622.171 168.491 619.865 166.79C617.764 165.219 615.451 163.953 612.995 163.03L609.395 158L601.175 163.54Z" fill="#056392"/>
<path d="M599.897 164.947L599.787 165.023C597.049 166.889 595.549 170.045 595.151 173.929C594.915 177.065 595.266 180.218 596.185 183.229C596.975 185.929 598.066 188.534 599.439 190.997C600.164 192.303 600.956 193.571 601.812 194.797C602.552 195.852 603.321 196.856 604.118 197.81C605.919 199.975 607.954 201.94 610.186 203.67C612.623 205.599 615.378 207.1 618.331 208.106C622.433 209.429 626.315 209.245 629.256 207.269L629.366 207.194L637.494 201.653L633.985 196.63C633.965 193.823 633.516 191.035 632.654 188.36C631.812 185.687 630.675 183.113 629.264 180.684C628.648 179.613 627.97 178.549 627.23 177.495C626.376 176.267 625.457 175.085 624.476 173.954C622.631 171.81 620.55 169.875 618.272 168.187C616.199 166.639 613.917 165.388 611.491 164.47L607.982 159.448L599.897 164.947Z" fill="#0670A6"/>
<mask id="mask0_720_56927" style="mask-type:alpha" maskUnits="userSpaceOnUse" x="595" y="159" width="45" height="50">
<path d="M599.897 164.947L599.787 165.023C597.049 166.889 595.549 170.045 595.151 173.929C594.915 177.065 595.266 180.218 596.185 183.229C596.975 185.929 598.066 188.534 599.439 190.997C600.164 192.303 600.956 193.571 601.812 194.797C602.552 195.852 603.321 196.856 604.118 197.81C605.919 199.975 607.954 201.94 610.186 203.67C612.623 205.599 615.378 207.1 618.331 208.106C622.433 209.429 626.315 209.245 629.256 207.269L629.366 207.194L639.469 200.012L633.985 196.63C633.965 193.823 633.516 191.035 632.654 188.36C631.812 185.687 630.675 183.113 629.264 180.684C628.648 179.613 627.97 178.549 627.23 177.495C626.376 176.267 625.457 175.085 624.476 173.954C622.631 171.81 620.55 169.875 618.272 168.187C616.199 166.639 613.917 165.388 611.491 164.47L607.982 159.448L599.897 164.947Z" fill="#0670A6"/>
</mask>
<g mask="url(#mask0_720_56927)">
<path d="M634.942 197.366L618.332 208.156C622.572 209.466 626.572 209.286 629.602 207.336L629.712 207.266L639.53 200.194L634.942 197.366Z" fill="#52BEF4"/>
<path d="M600.086 164.93L599.976 165C597.116 167 595.515 170.23 595.135 174.28L611.406 163.21L608.565 159.16L600.086 164.93Z" fill="#056392"/>
<path d="M633.992 189.226L611.362 204.566C613.823 206.493 616.592 207.99 619.552 208.996L635.772 198.066L635.362 197.506C635.346 194.7 634.897 191.914 634.032 189.246L633.992 189.226Z" fill="#3BB4F1"/>
<path d="M629.202 180.506L603.612 199.116V199.596C605.3 201.789 607.244 203.773 609.402 205.506V206.006L633.582 190.126L633.202 188.476C632.342 185.476 630.912 183.786 629.472 181.086L629.202 180.506Z" fill="#26A9EB"/>
<path d="M624.092 174.116L599.702 191.576C600.392 192.876 601.162 194.146 602.012 195.456C602.732 196.536 603.482 197.556 604.252 198.536L628.792 180.996C628.192 179.906 627.532 178.806 626.792 177.736C625.961 176.484 625.063 175.279 624.102 174.126L624.092 174.116Z" fill="#1296D9"/>
<path d="M618.032 169.476L596.252 183.996C597.034 186.616 598.111 189.139 599.462 191.516L624.142 174.996C622.323 172.918 620.281 171.046 618.052 169.416L618.032 169.476Z" fill="#0784C3"/>
<path d="M610.762 163.646L595.162 174.796C594.907 178.089 595.246 181.402 596.162 184.576L618.292 168.786C616.233 167.16 613.95 165.843 611.512 164.876L610.762 163.646Z" fill="#0670A6"/>
</g>
<path d="M638.931 200.259C645.921 195.434 645.015 182.001 636.907 170.257C628.799 158.513 616.56 152.904 609.57 157.73C602.58 162.556 603.486 175.988 611.594 187.733C619.701 199.477 631.941 205.085 638.931 200.259Z" fill="url(#paint16_linear_720_56927)"/>
<path d="M609.547 157.749C608.984 158.148 608.465 158.603 607.997 159.109C607.767 159.359 607.547 159.629 607.337 159.899C607.127 160.169 607.147 160.179 607.047 160.319C606.944 160.453 606.851 160.593 606.767 160.739C606.081 161.913 605.588 163.189 605.307 164.519C604.777 167.179 604.777 169.918 605.307 172.579C605.809 175.243 606.628 177.838 607.747 180.309C608.88 182.791 610.25 185.159 611.837 187.379C612.627 188.489 613.467 189.569 614.357 190.599C615.251 191.647 616.199 192.649 617.197 193.599C619.187 195.522 621.399 197.2 623.787 198.599C626.166 200.033 628.796 201.003 631.537 201.459C632.915 201.679 634.319 201.679 635.697 201.459C635.869 201.44 636.04 201.407 636.207 201.359C636.377 201.359 636.557 201.289 636.717 201.239C637.057 201.129 637.387 201.059 637.717 200.919C638.371 200.679 638.998 200.371 639.587 199.999C638.428 200.792 637.117 201.333 635.737 201.589C634.344 201.842 632.92 201.876 631.517 201.689C628.727 201.271 626.041 200.335 623.597 198.929C621.162 197.546 618.908 195.867 616.887 193.929C612.846 190.145 609.597 185.597 607.327 180.549C606.197 178.045 605.39 175.407 604.927 172.699C604.433 169.99 604.48 167.21 605.067 164.519C605.389 163.178 605.925 161.898 606.657 160.729C607.397 159.541 608.382 158.525 609.547 157.749Z" fill="#5AC3F8"/>
<path d="M614.295 186.11C617.815 191.36 622.295 195.41 626.875 197.53C632.345 200.06 635.525 198.76 636.935 197.76C638.345 196.76 640.645 194.17 640.285 188C639.732 182.195 637.667 176.637 634.295 171.88C630.775 166.64 626.295 162.58 621.715 160.47C616.245 157.94 613.055 159.24 611.655 160.24C610.255 161.24 607.945 163.83 608.305 169.99C608.848 175.797 610.914 181.358 614.295 186.11Z" fill="url(#paint17_linear_720_56927)"/>
<path d="M627.125 197.36C627.505 197.5 627.875 197.65 628.255 197.77L628.835 197.96L629.405 198.11L629.995 198.26L630.575 198.38C630.77 198.424 630.967 198.457 631.165 198.48L631.755 198.55C633.317 198.731 634.898 198.478 636.325 197.82C637.686 197.098 638.749 195.919 639.325 194.49C639.941 193.074 640.28 191.553 640.325 190.01C640.343 186.863 639.777 183.74 638.655 180.8C636.387 174.882 632.723 169.599 627.975 165.4C625.63 163.312 622.918 161.677 619.975 160.58C618.516 160.049 616.968 159.801 615.415 159.85C613.87 159.893 612.39 160.481 611.235 161.51C610.114 162.606 609.318 163.99 608.935 165.51C608.935 165.71 608.845 165.9 608.785 166.09C608.725 166.28 608.705 166.48 608.675 166.67C608.645 166.86 608.595 167.06 608.575 167.26L608.505 167.86C608.509 168.061 608.492 168.262 608.455 168.46V170.26C608.274 168.65 608.338 167.021 608.645 165.43C608.948 163.792 609.715 162.275 610.855 161.06C611.455 160.46 612.164 159.981 612.945 159.65C613.692 159.318 614.484 159.099 615.295 159C616.966 158.89 618.643 159.1 620.235 159.62C623.359 160.677 626.248 162.327 628.745 164.48C633.723 168.753 637.513 174.241 639.745 180.41C640.875 183.477 641.401 186.733 641.295 190C641.224 191.671 640.826 193.312 640.125 194.83C639.754 195.589 639.264 196.284 638.675 196.89C638.089 197.507 637.385 198 636.605 198.34C635.064 198.972 633.374 199.149 631.735 198.85C630.131 198.593 628.577 198.09 627.125 197.36Z" fill="#0670A6"/>
<path fill-rule="evenodd" clip-rule="evenodd" d="M622.22 170.729L624.46 171.589L623.7 172.519L621.46 171.659L621.53 170.929L621.59 170.209C621.638 169.573 621.863 168.963 622.24 168.449L623 167.519C622.623 168.033 622.398 168.643 622.35 169.279L622.29 169.999L622.22 170.729ZM625.66 169.872C625.975 170.06 626.247 170.311 626.46 170.609L634.49 180.619L633.43 181.549L625.43 171.549C625.189 171.216 624.879 170.94 624.52 170.739C624.233 170.589 623.922 170.491 623.6 170.449H623.4C623.071 170.439 622.748 170.537 622.48 170.729L623.54 169.799C623.809 169.609 624.131 169.51 624.46 169.519H624.63C624.994 169.564 625.345 169.684 625.66 169.872ZM626.38 183.519C626.178 183.497 625.977 183.46 625.78 183.409C624.253 183.025 622.9 182.137 621.94 180.889C620.406 178.956 620.519 178.115 620.728 176.567L620.73 176.549V176.309L624.29 177.199C624.466 177.235 624.64 177.282 624.81 177.339C625.098 177.366 625.377 177.455 625.627 177.6C625.878 177.745 626.094 177.942 626.26 178.179C626.636 178.621 626.848 179.179 626.86 179.759C626.87 179.98 626.832 180.201 626.749 180.406C626.666 180.611 626.541 180.796 626.38 180.949L627.38 180.039C627.543 179.885 627.67 179.699 627.755 179.492C627.839 179.285 627.879 179.062 627.87 178.839C627.847 178.259 627.633 177.704 627.26 177.259C627.091 177.025 626.875 176.829 626.625 176.684C626.375 176.539 626.097 176.449 625.81 176.419L625.28 176.279L618.46 174.629C618.316 174.589 618.169 174.558 618.02 174.539C617.723 174.499 617.42 174.519 617.13 174.599C616.896 174.659 616.682 174.78 616.51 174.949L615.51 175.859C615.689 175.699 615.901 175.58 616.13 175.509C616.421 175.439 616.722 175.419 617.02 175.449C617.169 175.469 617.316 175.499 617.46 175.539L620.51 176.309L619.73 176.999L619.67 177.519L619.67 177.519C619.45 179.079 619.33 179.929 620.87 181.849C621.836 183.096 623.191 183.983 624.72 184.369C624.915 184.416 625.112 184.453 625.31 184.479C626.373 184.63 627.452 184.353 628.31 183.709L628.44 183.589L629.44 182.679L629.3 182.789C628.459 183.403 627.412 183.665 626.38 183.519ZM622.202 191.027C622.584 191.274 623.012 191.442 623.46 191.519C623.823 191.57 624.194 191.535 624.541 191.416C624.876 191.303 625.18 191.115 625.432 190.867L624.46 191.839C624.202 192.099 623.887 192.295 623.54 192.413C623.193 192.531 622.823 192.567 622.46 192.519C622.012 192.444 621.585 192.278 621.204 192.03C620.824 191.782 620.499 191.459 620.25 191.079L612.81 180.609C612.065 179.637 611.605 178.477 611.48 177.259C611.386 176.582 611.449 175.893 611.664 175.244C611.879 174.596 612.24 174.005 612.72 173.519L613.696 172.543C613.498 172.743 613.322 172.962 613.17 173.199C612.585 174.105 612.34 175.19 612.48 176.259C612.607 177.477 613.067 178.636 613.81 179.609L621.24 190.079C621.493 190.457 621.821 190.779 622.202 191.027ZM613.72 172.519L613.696 172.543C613.704 172.535 613.712 172.527 613.72 172.519ZM625.46 190.839C625.451 190.849 625.441 190.858 625.432 190.867L625.46 190.839Z" fill="#0670A6"/>
<path d="M625.385 173.48L624.925 173.33L618.415 171.28C618.064 171.168 617.702 171.091 617.335 171.05C616.668 170.95 615.986 170.991 615.335 171.17C614.381 171.424 613.555 172.023 613.015 172.85C612.42 173.729 612.167 174.797 612.305 175.85C612.443 177.061 612.914 178.21 613.665 179.17L621.295 189.55C621.559 189.927 621.896 190.248 622.286 190.494C622.676 190.74 623.111 190.905 623.565 190.98C623.935 191.03 624.31 190.996 624.665 190.882C625.02 190.768 625.344 190.576 625.615 190.32L625.815 190.12L616.465 177.52C616.176 177.135 615.984 176.685 615.905 176.21C615.838 175.788 615.923 175.355 616.145 174.99C616.342 174.653 616.649 174.395 617.015 174.26C617.296 174.17 617.595 174.15 617.885 174.2C618.028 174.212 618.168 174.239 618.305 174.28L625.015 176.06L625.535 176.21C625.822 176.247 626.098 176.345 626.343 176.499C626.588 176.653 626.797 176.858 626.955 177.1C627.319 177.583 627.525 178.166 627.545 178.77C627.557 179.028 627.509 179.284 627.405 179.52C627.301 179.756 627.144 179.965 626.945 180.13C626.78 180.256 626.592 180.347 626.391 180.399C626.19 180.45 625.981 180.461 625.775 180.43L625.445 180.36C624.855 180.162 624.343 179.78 623.985 179.27C623.788 179.023 623.65 178.734 623.583 178.425C623.515 178.117 623.519 177.797 623.595 177.49C623.588 177.212 623.612 176.933 623.665 176.66L620.585 175.86L620.525 176.4C620.327 177.203 620.331 178.043 620.537 178.844C620.743 179.645 621.144 180.382 621.705 180.99C622.605 182.284 623.928 183.224 625.445 183.65L626.045 183.77C626.575 183.86 627.118 183.833 627.636 183.691C628.154 183.55 628.635 183.297 629.045 182.95C629.485 182.538 629.826 182.031 630.043 181.468C630.259 180.905 630.345 180.301 630.295 179.7C630.229 178.306 629.737 176.966 628.885 175.86C628.511 175.231 628.004 174.693 627.4 174.281C626.795 173.87 626.107 173.597 625.385 173.48Z" fill="#DAD4FF"/>
<path d="M634.605 178.42L629.115 170.71C628.579 169.946 627.9 169.294 627.115 168.79C626.456 168.378 625.716 168.112 624.945 168.01H624.685C623.924 167.951 623.165 168.163 622.545 168.61C621.941 169.111 621.557 169.829 621.475 170.61L621.395 171.35L621.305 172.09L624.185 172.96V172.55L624.235 171.84C624.241 171.51 624.373 171.195 624.605 170.96C624.843 170.768 625.14 170.665 625.445 170.67H625.635C625.977 170.724 626.303 170.852 626.591 171.043C626.88 171.235 627.123 171.486 627.305 171.78L634.605 182L634.745 181.87C635.545 181.13 635.445 179.62 634.605 178.42Z" fill="#DAD4FF"/>
<g opacity="0.85">
<path d="M809.524 99.0057L809.575 99.0566C810.876 100.51 811.317 102.522 810.993 104.782C810.993 104.782 810.993 104.832 810.993 104.861C810.68 106.708 810.025 108.481 809.061 110.092C808.219 111.545 807.216 112.899 806.071 114.132C805.476 114.771 804.837 115.396 804.153 115.999C803.58 116.5 802.993 116.972 802.398 117.416C801.044 118.415 799.586 119.268 798.048 119.958C796.365 120.741 794.558 121.232 792.707 121.412C790.15 121.6 787.939 120.947 786.521 119.377C786.508 119.355 786.49 119.335 786.469 119.319L782.568 114.96L785.316 112.548C785.725 110.927 786.384 109.379 787.27 107.956C788.143 106.528 789.17 105.198 790.334 103.99C790.848 103.459 791.392 102.936 791.965 102.428C792.636 101.84 793.337 101.287 794.066 100.771C795.44 99.7914 796.918 98.9631 798.474 98.301C799.891 97.6926 801.387 97.2865 802.919 97.095L805.66 94.6829L809.524 99.0057Z" fill="#056392"/>
<path d="M805.623 94.6611L809.576 99.0202C810.876 100.473 811.317 102.486 810.993 104.745L803.544 96.492L805.623 94.6611Z" fill="#056392"/>
<path d="M784.963 112.824L792.67 121.404C790.114 121.593 787.902 120.939 786.484 119.37C786.471 119.347 786.454 119.328 786.433 119.312L782.531 114.953L784.963 112.824Z" fill="#52BEF4"/>
<path d="M787.219 107.949L798.041 119.973C796.357 120.755 794.551 121.247 792.7 121.426L785 112.846L785.309 112.577C785.718 110.956 786.377 109.408 787.263 107.985L787.219 107.949Z" fill="#3BB4F1"/>
<path d="M790.282 103.975L802.375 117.43C801.022 118.43 799.564 119.282 798.026 119.973L787.233 107.964C788.106 106.536 789.133 105.205 790.297 103.997L790.282 103.975Z" fill="#26A9EB"/>
<path d="M794.022 100.749L806.056 114.139C805.461 114.778 804.822 115.403 804.139 116.006C803.566 116.508 802.978 116.98 802.383 117.423L790.282 103.982C790.797 103.452 791.34 102.929 791.913 102.42C792.584 101.833 793.286 101.28 794.015 100.764L794.022 100.749Z" fill="#1296D9"/>
<path d="M798.438 99.2815L809.061 110.348C808.22 111.708 807.217 112.977 806.071 114.132L794.037 101.589C795.411 100.671 796.889 99.895 798.445 99.2747L798.438 99.2815Z" fill="#0784C3"/>
<path d="M803.5 96.5283L810.986 104.861C810.673 106.708 810.018 108.481 809.054 110.092L798.43 98.2792C799.846 97.6708 801.343 97.2647 802.875 97.0732L803.5 96.5283Z" fill="#0670A6"/>
<ellipse cx="794.105" cy="104.843" rx="15.3821" ry="9.14159" transform="rotate(-41.63 794.105 104.843)" fill="url(#paint18_linear_720_56927)"/>
<path d="M805.674 94.7192C806.236 95.3203 806.659 96.034 806.916 96.8116C807.169 97.5935 807.296 98.41 807.291 99.2309C807.237 100.871 806.868 102.486 806.203 103.99C805.556 105.497 804.719 106.917 803.713 108.218C801.726 110.837 799.227 113.036 796.366 114.684C794.943 115.519 793.42 116.176 791.833 116.638C790.244 117.112 788.578 117.282 786.925 117.14C786.099 117.051 785.292 116.83 784.537 116.486C783.79 116.142 783.124 115.647 782.583 115.033C782.863 115.329 783.176 115.592 783.516 115.817C783.848 116.05 784.205 116.245 784.581 116.399C785.333 116.707 786.129 116.896 786.94 116.958C788.566 117.06 790.196 116.855 791.745 116.355C793.3 115.875 794.792 115.214 796.19 114.386C797.589 113.564 798.903 112.608 800.113 111.531C801.338 110.466 802.455 109.286 803.448 108.007C804.441 106.733 805.279 105.348 805.946 103.881C806.629 102.417 807.025 100.84 807.114 99.2309C807.148 98.4266 807.051 97.6221 806.828 96.8479C806.772 96.6558 806.705 96.4666 806.63 96.2813C806.554 96.0926 806.469 95.9082 806.372 95.7291C806.176 95.3691 805.942 95.0306 805.674 94.7192V94.7192Z" fill="#67C4FB"/>
<path d="M799.143 110.456C796.57 112.833 793.398 114.484 789.959 115.236C786.286 115.905 784.574 114.691 783.869 113.907C783.163 113.122 782.15 111.284 783.252 107.768C785.747 101.146 791.4 96.1797 798.342 94.5086C802.016 93.8402 803.735 95.0535 804.433 95.8381C805.131 96.6227 806.152 98.4536 805.057 101.977C803.885 105.274 801.843 108.201 799.143 110.456Z" fill="url(#paint19_linear_720_56927)"/>
<path d="M789.959 115.236C788.999 115.473 788.009 115.566 787.021 115.512C785.997 115.453 785.011 115.108 784.177 114.517C783.76 114.204 783.41 113.811 783.149 113.362C782.881 112.911 782.687 112.42 782.576 111.909C782.374 110.911 782.374 109.884 782.576 108.886C782.973 106.924 783.757 105.057 784.883 103.394C787.108 100.068 790.172 97.374 793.772 95.5765C795.562 94.6782 797.51 94.1305 799.51 93.9637C800.538 93.8886 801.571 94.012 802.552 94.3269C803.046 94.4944 803.51 94.7397 803.926 95.0535C804.348 95.3661 804.702 95.7588 804.969 96.2086C805.465 97.0954 805.694 98.1035 805.63 99.1147C805.574 100.094 805.366 101.06 805.013 101.977C805.065 101.737 805.123 101.505 805.167 101.251C805.212 100.996 805.263 100.778 805.285 100.524C805.351 100.043 805.376 99.5566 805.358 99.0711C805.345 98.1297 805.07 97.21 804.565 96.412C804.033 95.6643 803.253 95.1244 802.361 94.8864C801.454 94.6451 800.51 94.5736 799.576 94.6757C797.676 94.9007 795.834 95.4748 794.147 96.3685C792.44 97.2438 790.853 98.3302 789.423 99.6015C787.974 100.855 786.695 102.288 785.617 103.866C784.52 105.42 783.726 107.161 783.274 109.003C783.063 109.905 783.023 110.839 783.156 111.756C783.294 112.663 783.746 113.495 784.434 114.11C785.177 114.7 786.069 115.077 787.013 115.2C787.499 115.276 787.991 115.308 788.483 115.294C788.725 115.294 788.967 115.294 789.217 115.294L789.959 115.236Z" fill="#0670A6"/>
<path fill-rule="evenodd" clip-rule="evenodd" d="M793.398 107.528H793.471L793.684 107.484H793.736L793.993 107.412H794.059L794.257 107.332H794.323L794.573 107.208H794.617L794.749 107.128L794.808 107.085L794.911 107.019L795.058 106.903L795.161 106.823L795.212 106.78L795.367 106.634L795.521 106.475L795.565 106.424L795.646 106.336L795.734 106.22L795.778 106.169C795.82 106.12 795.857 106.066 795.888 106.01C795.919 105.966 795.946 105.92 795.969 105.872L796.013 105.792V105.741C796.014 105.714 796.014 105.687 796.013 105.661C796.016 105.644 796.016 105.627 796.013 105.61V105.566V105.479C796.016 105.46 796.016 105.44 796.013 105.421V105.327V105.138V105.094C796.017 105.036 796.017 104.978 796.013 104.92C796.017 104.852 796.017 104.784 796.013 104.716V104.658V104.455C796.021 104.363 796.021 104.271 796.013 104.179V100.771V100.539C796.017 100.469 796.017 100.398 796.013 100.328C796 100.26 795.978 100.194 795.947 100.132C795.92 100.067 795.888 100.004 795.851 99.9431L795.785 99.8414L795.367 99.2747L795.433 99.3764C795.469 99.4347 795.501 99.4954 795.528 99.5581C795.528 99.5962 795.546 99.6343 795.563 99.6725C795.576 99.6997 795.588 99.727 795.594 99.7542C795.617 99.8227 795.632 99.8933 795.638 99.9649V100.197V103.605C795.647 103.697 795.647 103.789 795.638 103.881V104.084V104.142C795.642 104.21 795.642 104.278 795.638 104.346C795.642 104.404 795.642 104.462 795.638 104.52V104.564V104.753V104.796V104.891C795.643 104.91 795.643 104.93 795.638 104.949V105.036C795.643 105.06 795.643 105.085 795.638 105.109C795.639 105.126 795.639 105.143 795.638 105.16L795.602 105.239V105.29L795.55 105.385V105.428L795.462 105.566C795.462 105.6 795.429 105.634 795.397 105.668C795.38 105.685 795.364 105.702 795.352 105.719L795.308 105.77L795.22 105.886L795.124 105.988L795.08 106.039L794.926 106.198L794.713 106.387C794.684 106.418 794.652 106.445 794.617 106.467L794.47 106.583C794.433 106.603 794.399 106.628 794.367 106.656L794.169 106.772L793.919 106.896H793.853L793.647 106.983H793.589L793.331 107.063H793.28L793.067 107.107H792.994H792.736C792 107.168 791.278 106.877 790.797 106.322L790.709 106.206L791.127 106.78L791.216 106.896C791.701 107.445 792.42 107.735 793.155 107.681L793.398 107.528ZM792.972 100.452L793.06 100.394L793.148 100.343H793.192L793.332 100.277C793.442 100.235 793.559 100.211 793.677 100.205C793.76 100.198 793.843 100.198 793.927 100.205C794.103 100.227 794.265 100.313 794.382 100.444L793.956 99.8704C793.835 99.738 793.672 99.6508 793.493 99.6234C793.412 99.6162 793.331 99.6162 793.251 99.6234C793.132 99.6294 793.016 99.6539 792.905 99.6961L792.766 99.7615H792.722L792.648 99.8051L792.56 99.8704H792.523C792.497 99.8928 792.472 99.9171 792.45 99.9431L787.66 104.731L788.086 105.305L792.869 100.51L792.972 100.452ZM797.115 103.299L797.637 103.263H797.703C797.935 103.253 798.165 103.303 798.371 103.408C798.512 103.483 798.634 103.588 798.729 103.715L798.32 103.161C798.224 103.026 798.098 102.915 797.953 102.834C797.746 102.731 797.515 102.683 797.284 102.696H797.218H796.696L796.41 102.74L796.829 103.314L797.115 103.299ZM792.252 104.614V104.702C792.304 104.736 792.358 104.768 792.413 104.796V104.854V104.978V105.043C792.423 105.078 792.436 105.112 792.45 105.145V105.21C792.471 105.25 792.496 105.288 792.522 105.325L792.105 104.752L792.061 104.694C792.062 104.675 792.062 104.656 792.061 104.636V104.571C792.057 104.537 792.057 104.503 792.061 104.469V104.404V104.28V104.222C792.057 104.159 792.057 104.096 792.061 104.033V103.982V103.924C792.065 103.905 792.065 103.885 792.061 103.866C792.065 103.849 792.065 103.832 792.061 103.815L792.127 103.655C792.149 103.607 792.176 103.561 792.207 103.517L792.31 103.379L792.391 103.292L792.457 103.227L792.545 103.161L792.634 103.118H792.7H792.795H792.898H792.964H793.317H793.427L793.471 101.592L793.89 102.159L793.846 103.684H793.743H793.383H793.118H793.016H792.92H792.854L792.766 103.735L792.67 103.808L792.575 103.895L792.494 103.982C792.456 104.025 792.421 104.071 792.391 104.12L792.31 104.258C792.288 104.308 792.268 104.359 792.252 104.411C792.248 104.425 792.248 104.44 792.252 104.455V104.505C792.256 104.525 792.256 104.544 792.252 104.564V104.614ZM801.119 104.535C801.116 104.576 801.116 104.617 801.119 104.658C801.112 104.687 800.928 104.876 800.928 104.876C800.932 104.902 800.932 104.929 800.928 104.956C800.928 104.966 800.934 104.969 800.939 104.972C800.948 104.977 800.957 104.982 800.928 105.029C800.884 105.101 800.884 105.174 800.884 105.247V105.312V105.435C800.885 105.46 800.885 105.484 800.884 105.508L800.833 105.646C800.83 105.673 800.83 105.699 800.833 105.726C800.829 105.745 800.829 105.765 800.833 105.784C800.829 105.808 800.829 105.833 800.833 105.857L800.789 105.929L800.708 106.067L800.671 106.126C800.639 106.182 800.602 106.235 800.561 106.285L800.414 106.467C800.354 106.538 800.29 106.606 800.223 106.671L795.264 111.524L795.22 111.574H795.168L795.117 111.618L795.043 111.676H794.992L794.845 111.756H794.801L794.61 111.836H794.441H794.389H794.198C793.656 111.864 793.136 111.618 792.817 111.182L792.398 110.615C792.719 111.047 793.239 111.29 793.78 111.262C793.843 111.266 793.907 111.266 793.971 111.262H794.022L794.191 111.219L794.375 111.146H794.426L794.573 111.066H794.617H794.661L794.742 111.008L794.794 110.964L794.889 110.884L799.848 106.024C799.916 105.96 799.979 105.892 800.039 105.82L800.194 105.632L800.318 105.457C800.32 105.438 800.32 105.418 800.318 105.399L800.399 105.261L800.443 105.188L800.509 105.058C800.507 105.031 800.507 105.004 800.509 104.978C800.561 104.934 800.561 104.891 800.561 104.84V104.774L800.605 104.629V104.556L800.649 104.338V104.186V104.084C800.646 104.043 800.646 104.002 800.649 103.961V103.859C800.653 103.818 800.653 103.776 800.649 103.735V103.634V103.51V103.416V103.285V103.198C800.652 103.154 800.652 103.111 800.649 103.067C800.652 103.038 800.652 103.009 800.649 102.98C800.635 102.93 800.618 102.882 800.598 102.834C800.599 102.81 800.599 102.786 800.598 102.762C800.591 102.747 800.584 102.731 800.577 102.715C800.554 102.663 800.53 102.609 800.502 102.558L800.928 103.132L801.024 103.336V103.408L801.083 103.554V103.634C801.098 103.676 801.11 103.72 801.119 103.764V103.859V103.99C801.116 104.021 801.116 104.053 801.119 104.084C801.116 104.125 801.116 104.167 801.119 104.208V104.309C801.123 104.35 801.123 104.392 801.119 104.433V104.535Z" fill="#0670A6"/>
<path d="M787.586 104.68L788.012 105.254L787.594 104.68" fill="#9A7D7C"/>
<path d="M787.652 104.767L788.078 105.341L788.012 105.254L787.586 104.68L787.652 104.767Z" fill="#957978"/>
<path d="M800.186 102.253L800.605 102.827C800.649 102.893 800.7 102.958 800.744 103.031L800.318 102.457C800.282 102.391 800.23 102.319 800.186 102.253Z" fill="#B89695"/>
<path d="M800.318 102.457L800.744 103.031C800.761 103.066 800.781 103.1 800.803 103.132L800.377 102.558C800.36 102.523 800.341 102.489 800.318 102.457Z" fill="#BD9A99"/>
<path d="M792.251 110.761L792.67 111.327L792.56 111.189L792.141 110.615L792.251 110.761Z" fill="#957978"/>
<path d="M794.948 105.951C795.653 105.393 795.994 104.499 795.837 103.619C795.845 103.527 795.845 103.435 795.837 103.343V99.9356C795.844 99.4963 795.678 99.0714 795.374 98.7514C795.071 98.4406 794.663 98.2495 794.228 98.2138C794.074 98.1993 793.919 98.1993 793.765 98.2138C793.439 98.2339 793.119 98.3075 792.817 98.4317C792.345 98.6142 791.918 98.8969 791.568 99.26L787.946 102.893C787.404 103.349 787.258 104.117 787.594 104.738L787.66 104.825L792.45 100.037C792.601 99.8811 792.784 99.7575 792.986 99.6741C793.097 99.6319 793.213 99.6074 793.331 99.6014C793.412 99.5942 793.493 99.5942 793.574 99.6014C793.752 99.6288 793.916 99.716 794.037 99.8485C794.149 99.9879 794.202 100.165 794.184 100.342L794.125 103.677C794.125 103.677 794.125 103.844 794.125 103.975C794.176 104.298 794.06 104.625 793.816 104.847C793.574 105.094 793.252 105.249 792.905 105.283C792.609 105.31 792.317 105.199 792.115 104.982C791.913 104.766 791.825 104.468 791.877 104.179C791.92 103.859 792.07 103.562 792.303 103.336C792.535 103.095 792.865 102.972 793.199 103.002H793.552H793.633L793.677 101.476H793.39C792.588 101.456 791.82 101.798 791.304 102.406C790.771 102.926 790.419 103.6 790.297 104.331C790.18 105.012 790.362 105.709 790.797 106.249C791.278 106.804 792 107.096 792.736 107.034C793.584 106.956 794.371 106.57 794.948 105.951Z" fill="#D4F7FF"/>
<path d="M800.377 102.558C800.089 102.035 799.646 101.611 799.106 101.345C798.597 101.101 798.033 100.991 797.468 101.025H797.343L796.829 101.076L796.329 101.127L796.41 102.755L796.696 102.711H797.218H797.306C797.537 102.698 797.768 102.746 797.975 102.849C798.186 102.968 798.355 103.148 798.46 103.365C798.568 103.591 798.599 103.846 798.548 104.091C798.496 104.348 798.359 104.581 798.158 104.752L792.163 110.615L792.274 110.761C792.594 111.193 793.114 111.436 793.655 111.407C794.08 111.377 794.481 111.2 794.786 110.906L799.745 106.046C800.229 105.586 800.557 104.99 800.686 104.338C800.786 103.728 800.678 103.101 800.377 102.558Z" fill="#D4F7FF"/>
</g>
<path d="M751.565 179.78H751.625C753.199 179.217 754.491 178.062 755.225 176.56C755.815 175.372 756.156 174.075 756.225 172.75C756.304 171.611 756.227 170.468 755.995 169.35C755.787 168.271 755.452 167.22 754.995 166.22C754.506 165.193 753.887 164.231 753.155 163.36C752.326 162.336 751.307 161.48 750.155 160.84C749.374 160.403 748.511 160.13 747.621 160.037C746.73 159.945 745.83 160.034 744.975 160.3H744.915L741.145 161.57L741.055 164.18C740.606 165.277 740.356 166.445 740.315 167.63C740.273 168.762 740.377 169.895 740.625 171C740.736 171.49 740.873 171.974 741.035 172.45C741.232 173.015 741.465 173.566 741.735 174.1C742.244 175.129 742.89 176.085 743.655 176.94C744.379 177.751 745.226 178.443 746.165 178.99L747.845 180.99L751.565 179.78Z" fill="#056392"/>
<path d="M741.295 164L750.295 160.85C749.539 160.41 748.699 160.134 747.829 160.04C746.959 159.945 746.079 160.034 745.245 160.3H745.185L741.505 161.59L741.295 164Z" fill="#056392"/>
<path d="M751.685 179.677H751.745C753.279 179.143 754.578 177.94 755.375 176.317L746.375 179.443L747.885 181L751.685 179.677Z" fill="#52BEF4"/>
<path d="M740.295 168L753.295 163.52C752.468 162.494 751.449 161.638 750.295 161L740.985 164.18L741.075 164.45C740.611 165.579 740.347 166.78 740.295 168Z" fill="#0670A6"/>
<path d="M740.362 171.25L755.052 166.25C754.565 165.171 753.937 164.162 753.182 163.25L740.052 167.76C740.004 168.929 740.109 170.098 740.362 171.24V171.25Z" fill="#0784C3"/>
<path d="M742.084 174.11L756.014 169.24C755.807 168.161 755.471 167.11 755.014 166.11L741.014 171C741.122 171.49 741.255 171.974 741.414 172.45C741.606 173.015 741.83 173.57 742.084 174.11Z" fill="#1296D9"/>
<path d="M744.135 177L756.295 172.54C756.372 171.355 756.299 170.166 756.075 169L742.295 174.05C742.779 175.108 743.398 176.1 744.135 177Z" fill="#26A9EB"/>
<path d="M746.095 179.492L755.255 176.392C755.873 175.178 756.238 173.851 756.325 172.492L743.325 176.882C744.068 177.715 744.939 178.424 745.905 178.982L746.095 179.492Z" fill="#3BB4F1"/>
<path d="M748.023 180.765C752.273 179.315 754.24 173.809 752.417 168.467C750.594 163.125 745.672 159.97 741.422 161.42C737.173 162.87 735.206 168.376 737.028 173.718C738.851 179.06 743.774 182.215 748.023 180.765Z" fill="url(#paint20_linear_720_56927)"/>
<path d="M748.025 181C748.599 180.793 749.141 180.507 749.635 180.15C750.133 179.799 750.583 179.386 750.975 178.92C751.755 177.98 752.327 176.886 752.655 175.71C752.986 174.543 753.124 173.331 753.065 172.12C752.945 169.682 752.137 167.328 750.735 165.33C750.038 164.344 749.184 163.479 748.205 162.77C747.231 162.032 746.109 161.513 744.915 161.25C744.319 161.114 743.707 161.057 743.095 161.08C742.485 161.108 741.88 161.213 741.295 161.39C742.464 160.98 743.721 160.89 744.935 161.13C746.154 161.378 747.307 161.882 748.315 162.61C749.314 163.327 750.184 164.21 750.885 165.22C752.327 167.252 753.159 169.652 753.285 172.14C753.341 173.377 753.189 174.614 752.835 175.8C752.475 176.978 751.872 178.068 751.065 179C750.251 179.929 749.201 180.62 748.025 181Z" fill="#5AC3F8"/>
<path d="M751.645 168.73C750.829 166.373 749.212 164.377 747.075 163.09C746.289 162.569 745.399 162.225 744.466 162.082C743.534 161.939 742.582 161.999 741.675 162.26C740.802 162.582 740.012 163.093 739.36 163.757C738.708 164.421 738.211 165.221 737.905 166.1C737.097 168.437 737.109 170.979 737.939 173.308C738.77 175.637 740.37 177.613 742.475 178.91C743.261 179.432 744.152 179.776 745.085 179.918C746.017 180.059 746.97 179.995 747.875 179.73C748.747 179.411 749.537 178.904 750.189 178.243C750.841 177.582 751.338 176.786 751.645 175.91C752.516 173.596 752.516 171.044 751.645 168.73Z" fill="url(#paint21_linear_720_56927)"/>
<path d="M746.945 163.22C746.288 162.86 745.585 162.591 744.855 162.42C744.133 162.26 743.386 162.24 742.656 162.36C742.292 162.424 741.936 162.528 741.596 162.67C741.264 162.813 740.949 162.991 740.656 163.2C740.066 163.623 739.561 164.152 739.165 164.76C738.774 165.383 738.468 166.056 738.256 166.76C738.046 167.45 737.915 168.161 737.866 168.88C737.812 169.601 737.839 170.325 737.945 171.04C738.056 171.772 738.237 172.492 738.486 173.19C738.725 173.882 739.026 174.552 739.385 175.19C739.753 175.797 740.175 176.369 740.646 176.9C741.133 177.439 741.68 177.922 742.275 178.34C742.875 178.757 743.528 179.094 744.216 179.34C744.901 179.588 745.627 179.703 746.355 179.68C746.717 179.67 747.076 179.62 747.426 179.53C747.772 179.434 748.108 179.3 748.426 179.13C749.078 178.788 749.656 178.319 750.125 177.75C750.593 177.176 750.98 176.54 751.276 175.86C751.044 176.573 750.707 177.247 750.276 177.86C749.826 178.48 749.255 179.001 748.595 179.39C748.256 179.583 747.897 179.74 747.526 179.86C747.154 179.97 746.772 180.041 746.385 180.07C745.604 180.119 744.82 180.021 744.075 179.78C742.606 179.283 741.288 178.419 740.245 177.27C739.217 176.134 738.429 174.801 737.929 173.352C737.429 171.904 737.227 170.369 737.335 168.84C737.447 167.302 737.957 165.82 738.816 164.54C739.256 163.899 739.817 163.349 740.465 162.92C740.777 162.705 741.113 162.527 741.465 162.39C741.831 162.259 742.21 162.168 742.596 162.12C743.361 162.033 744.135 162.097 744.875 162.31C745.606 162.512 746.303 162.818 746.945 163.22Z" fill="#0670A6"/>
<path fill-rule="evenodd" clip-rule="evenodd" d="M744.565 165.53H745.885L746.165 165.9H746.285L746.455 165.99H746.505L746.595 166.04H746.655L746.755 166.12H746.805L746.855 166.17L746.955 166.27C746.986 166.315 747.02 166.359 747.055 166.4L747.175 166.56L747.295 166.76L750.055 171.68V171.82V171.9V172.04V172.62C750.011 172.844 749.911 173.053 749.764 173.228C749.617 173.403 749.429 173.538 749.215 173.62L748.655 173.82C748.869 173.739 749.058 173.604 749.205 173.429C749.352 173.254 749.452 173.044 749.495 172.82C749.505 172.764 749.505 172.706 749.495 172.65V172.23V172.1V172.01V171.94V171.88V171.79L746.635 166.67C746.598 166.6 746.554 166.533 746.505 166.47L746.395 166.3L746.275 166.16L746.185 166.06H746.125L746.035 165.97H745.985L745.885 165.9H745.835L745.715 165.83H745.665L745.495 165.74H745.385H745.295H745.195H744.195H743.995L744.565 165.53ZM746.505 172.42V171.61C746.524 171.535 746.524 171.455 746.505 171.38V171.25V171.19V171.09L746.445 170.95V170.85V170.8L746.355 170.64L746.265 170.48V170.43L746.205 170.35L746.135 170.25V170.2L746.025 170.08L745.935 169.98L745.875 169.93H745.815H745.745H745.675H745.595H745.455L745.315 169.88H745.145H744.975L744.745 169.82L741.835 168.82H741.635H740.985L740.425 169.02H740.525H740.695H741.115H741.305L744.095 169.79L744.325 169.86H744.495H744.665L744.805 169.91H744.945H745.025H745.095H745.155H745.205L745.265 169.97L745.355 170.07L745.465 170.2L745.535 170.3L745.605 170.39C745.602 170.407 745.602 170.423 745.605 170.44L745.695 170.6C745.738 170.667 745.775 170.737 745.805 170.81C745.82 170.844 745.837 170.878 745.855 170.91V171.24V171.35L745.915 171.53C745.896 171.605 745.896 171.685 745.915 171.76C745.94 171.8 745.94 171.8 745.934 171.797C745.928 171.795 745.915 171.79 745.915 171.82V172.57V172.78C745.852 173.08 745.721 173.361 745.532 173.602C745.395 173.776 745.231 173.926 745.046 174.046L744.715 174.17H744.825C744.902 174.133 744.975 174.092 745.046 174.046L745.275 173.96L745.395 173.91C745.672 173.78 745.914 173.586 746.102 173.345C746.29 173.103 746.418 172.82 746.475 172.52C746.487 172.487 746.497 172.454 746.505 172.42ZM740.616 170.79V171.16C740.618 171.188 740.624 171.215 740.635 171.24L743.466 176.24L742.905 176.46L740.055 171.46C740.05 171.434 740.05 171.406 740.055 171.38V170.99C740.036 170.894 740.036 170.796 740.055 170.7C740.073 170.631 740.096 170.564 740.125 170.5C740.183 170.36 740.29 170.247 740.426 170.18L740.985 169.98C740.848 170.044 740.741 170.159 740.685 170.3C740.656 170.364 740.633 170.431 740.616 170.5C740.596 170.596 740.596 170.694 740.616 170.79ZM743.705 172.7H743.925L744.105 172.73H744.585L744.015 172.94H743.455L743.295 172.89H743.085L742.975 172.8L742.875 172.71L742.785 172.59L742.735 172.5V172.43V171.87L742.795 171.58V171.49L741.545 171.11L742.105 170.9L743.365 171.28C743.365 171.286 743.371 171.287 743.378 171.287C743.394 171.289 743.415 171.292 743.365 171.37C743.295 171.48 743.295 171.66 743.295 171.66V172.12V172.21C743.322 172.238 743.339 172.272 743.345 172.31L743.405 172.4L743.495 172.51C743.524 172.548 743.557 172.582 743.595 172.61L743.705 172.7Z" fill="#0670A6"/>
<path d="M742.955 176.43L743.515 176.22H743.436L742.875 176.43H742.955Z" fill="#958778"/>
<path d="M743.705 165.74L744.265 165.53L744.465 165.47L743.905 165.68L743.705 165.74Z" fill="#B8A795"/>
<path d="M743.925 165.68L744.485 165.47H744.585L744.015 165.68H743.925Z" fill="#BDAC99"/>
<path d="M748.885 174.07L749.445 173.87H749.315L748.745 174.08L748.885 174.07Z" fill="#958778"/>
<path d="M745.555 170.81C745.41 170.466 745.175 170.169 744.873 169.948C744.572 169.728 744.217 169.594 743.845 169.56L743.615 169.5L740.835 168.75C740.476 168.642 740.089 168.678 739.755 168.85C739.44 169.036 739.194 169.321 739.055 169.66C739.002 169.769 738.958 169.883 738.925 170C738.875 170.268 738.875 170.542 738.925 170.81C738.964 171.236 739.101 171.646 739.325 172.01L741.445 175.75C741.566 176.017 741.775 176.233 742.039 176.361C742.302 176.489 742.601 176.52 742.885 176.45H742.965L740.125 171.5C740.027 171.346 739.966 171.171 739.945 170.99C739.935 170.89 739.935 170.79 739.945 170.69C739.963 170.621 739.986 170.554 740.015 170.49C740.074 170.354 740.181 170.243 740.315 170.18C740.385 170.15 740.46 170.135 740.535 170.135C740.611 170.135 740.686 170.15 740.755 170.18L743.465 170.98L743.715 171.05C743.847 171.07 743.972 171.121 744.08 171.199C744.188 171.278 744.276 171.381 744.335 171.5C744.483 171.75 744.537 172.044 744.485 172.33C744.463 172.451 744.414 172.565 744.341 172.664C744.268 172.762 744.173 172.843 744.064 172.899C743.954 172.955 743.834 172.985 743.711 172.987C743.588 172.989 743.466 172.963 743.355 172.91C743.09 172.812 742.868 172.624 742.725 172.38C742.655 172.26 742.613 172.126 742.601 171.988C742.589 171.85 742.607 171.71 742.655 171.58L742.715 171.28V171.2L741.465 170.81V171.06C741.372 171.374 741.35 171.705 741.402 172.029C741.454 172.353 741.578 172.661 741.765 172.93C742.067 173.483 742.541 173.922 743.115 174.18C743.377 174.3 743.662 174.363 743.95 174.363C744.239 174.363 744.523 174.3 744.785 174.18C745.065 174.052 745.309 173.859 745.499 173.617C745.688 173.375 745.817 173.092 745.875 172.79C746.008 172.113 745.894 171.411 745.555 170.81Z" fill="#DAD4FF"/>
<path d="M743.995 165.62C743.515 165.75 743.081 166.013 742.745 166.38C742.438 166.738 742.224 167.168 742.125 167.63V167.74L742.045 168.16L741.975 168.58L743.335 168.88V168.64L743.415 168.21V168.16C743.453 167.967 743.547 167.79 743.685 167.65C743.829 167.505 744.014 167.407 744.215 167.37C744.426 167.339 744.642 167.371 744.835 167.46C745.037 167.56 745.199 167.726 745.295 167.93L748.775 174.1H748.905C749.107 174.023 749.287 173.897 749.429 173.736C749.572 173.574 749.674 173.38 749.725 173.17C749.795 172.829 749.742 172.475 749.575 172.17L746.705 167.07C746.439 166.572 746.023 166.169 745.515 165.92C745.056 165.655 744.521 165.55 743.995 165.62Z" fill="#DAD4FF"/>
<g opacity="0.65">
<path d="M661.874 29.6556H661.84C660.978 29.3432 660.272 28.6985 659.876 27.8612C659.543 27.1942 659.349 26.4646 659.306 25.718C659.262 25.0804 659.305 24.4396 659.434 23.8139C659.499 23.4865 659.584 23.1635 659.689 22.847C659.782 22.5778 659.886 22.3186 659.999 22.0644C660.253 21.4902 660.584 20.9537 660.981 20.4694C661.441 19.909 662.002 19.4437 662.635 19.0987C663.497 18.6057 664.521 18.4974 665.464 18.7997H665.493L667.58 19.4925L667.629 20.9529C667.872 21.566 668.008 22.2168 668.032 22.8769C668.06 23.5113 668.004 24.1467 667.865 24.766C667.806 25.0411 667.73 25.3124 667.639 25.5784C667.532 25.8935 667.406 26.2015 667.261 26.5005C666.985 27.073 666.633 27.6046 666.215 28.0806C665.822 28.535 665.36 28.9221 664.845 29.227L663.927 30.3534L661.874 29.6556Z" fill="#056392"/>
<path d="M667.678 20.8184L662.66 19.0788C663.521 18.5858 664.545 18.4775 665.488 18.7798H665.518L667.58 19.4925L667.678 20.8184Z" fill="#056392"/>
<path d="M661.874 29.6556H661.84C660.978 29.3432 660.272 28.6985 659.876 27.8613L664.747 29.551L663.927 30.3834L661.874 29.6556Z" fill="#52BEF4"/>
<path d="M668.032 22.8869L661.005 20.4545C661.465 19.8941 662.027 19.4288 662.66 19.0838L667.674 20.8184L667.625 20.9679C667.867 21.581 668.003 22.2318 668.027 22.8919L668.032 22.8869Z" fill="#0670A6"/>
<path d="M667.865 24.776L660.008 22.0495C660.263 21.4753 660.593 20.9388 660.99 20.4545L668.017 22.8919C668.045 23.5263 667.989 24.1617 667.85 24.781L667.865 24.776Z" fill="#0784C3"/>
<path d="M667.241 26.5155L659.434 23.799C659.499 23.4716 659.584 23.1486 659.689 22.832C659.782 22.5629 659.885 22.3037 659.998 22.0495L667.855 24.776C667.796 25.0511 667.72 25.3224 667.629 25.5884C667.522 25.9035 667.396 26.2115 667.251 26.5105L667.241 26.5155Z" fill="#1296D9"/>
<path d="M666.215 28.0955L659.306 25.703C659.262 25.0654 659.305 24.4247 659.434 23.799L667.242 26.5105C666.965 27.083 666.613 27.6146 666.196 28.0906L666.215 28.0955Z" fill="#26A9EB"/>
<path d="M664.747 29.536L659.876 27.8463C659.543 27.1793 659.349 26.4497 659.306 25.7031L666.215 28.0956C665.822 28.55 665.36 28.9371 664.845 29.242L664.747 29.536Z" fill="#3BB4F1"/>
<ellipse cx="665.752" cy="24.9184" rx="5.73316" ry="4.50026" transform="rotate(-71.16 665.752 24.9184)" fill="url(#paint22_linear_720_56927)"/>
<path d="M663.941 30.3584C663.3 30.1451 662.729 29.7592 662.287 29.2419C661.857 28.722 661.538 28.118 661.349 27.4675C661.157 26.8114 661.074 26.1275 661.103 25.4438C661.133 24.765 661.257 24.0938 661.471 23.4501C661.69 22.8021 661.999 22.1894 662.39 21.6308C662.778 21.0717 663.256 20.583 663.804 20.1853C664.35 19.7832 664.975 19.5045 665.636 19.3679C666.291 19.2359 666.97 19.2859 667.6 19.5124C666.964 19.3079 666.286 19.2804 665.636 19.4327C664.99 19.5801 664.382 19.8655 663.853 20.27C663.322 20.6687 662.858 21.1517 662.478 21.7006C661.717 22.8081 661.278 24.1103 661.211 25.4588C661.18 26.1314 661.256 26.8048 661.437 27.4525C661.613 28.0922 661.917 28.6879 662.331 29.202C662.544 29.4599 662.788 29.6893 663.058 29.8849C663.331 30.0809 663.628 30.2401 663.941 30.3584Z" fill="#67C4FB"/>
<path d="M662.1 23.6544C662.525 22.3282 663.394 21.1946 664.555 20.4495C665.386 19.8186 666.47 19.6445 667.452 19.9845C668.435 20.3244 669.188 21.1344 669.466 22.1492C670.37 24.8535 669.361 27.8362 667.011 29.4064C666.179 30.0348 665.095 30.2067 664.113 29.866C663.132 29.5253 662.379 28.7158 662.1 27.7017C661.637 26.3936 661.637 24.9626 662.1 23.6544Z" fill="url(#paint23_linear_720_56927)"/>
<path d="M664.541 20.4495C664.892 20.2078 665.278 20.0213 665.685 19.8962C666.101 19.7751 666.536 19.7378 666.966 19.7866C667.183 19.8126 667.396 19.8661 667.6 19.9461C667.803 20.0238 667.998 20.1241 668.179 20.2451C668.544 20.4935 668.858 20.8118 669.103 21.1822C669.588 21.9259 669.876 22.7845 669.937 23.6744C670 24.554 669.886 25.4373 669.603 26.2712C669.326 27.1076 668.883 27.8777 668.302 28.5341C667.72 29.1964 666.979 29.6944 666.151 29.9796C665.735 30.1189 665.297 30.1748 664.86 30.1441C664.423 30.1168 663.998 29.9834 663.622 29.7553C663.252 29.5278 662.93 29.2279 662.675 28.8731C662.428 28.5201 662.235 28.1321 662.1 27.7217C662.265 28.116 662.483 28.4851 662.748 28.8183C663.012 29.1431 663.335 29.4123 663.701 29.6108C663.882 29.7089 664.073 29.7858 664.271 29.8401C664.468 29.8909 664.671 29.9193 664.875 29.9248C665.282 29.9379 665.689 29.8719 666.073 29.7304C666.457 29.5865 666.821 29.3939 667.158 29.1572C667.493 28.9161 667.799 28.6368 668.071 28.3248C668.343 28.018 668.583 27.684 668.788 27.3279C668.988 26.9643 669.152 26.5821 669.279 26.1865C669.413 25.7911 669.51 25.3839 669.569 24.9703C669.625 24.5559 669.64 24.1367 669.613 23.7192C669.586 23.3033 669.512 22.8918 669.392 22.4931C669.275 22.0967 669.11 21.7166 668.901 21.3616C668.68 21.0143 668.399 20.7104 668.071 20.4644C667.906 20.344 667.728 20.2421 667.541 20.1604C667.352 20.0798 667.154 20.0212 666.952 19.986C666.542 19.917 666.123 19.9306 665.719 20.0258C665.309 20.1096 664.912 20.2523 664.541 20.4495Z" fill="#0670A6"/>
<path d="M666.647 28.0756L666.313 27.941L666.269 27.9211L666.603 28.0557L666.647 28.0756Z" fill="#957978"/>
<path fill-rule="evenodd" clip-rule="evenodd" d="M663.2 25.7029C663.083 25.9175 663.056 26.171 663.126 26.4057C663.188 26.5939 663.328 26.7451 663.509 26.8194L663.176 26.6849C662.994 26.6116 662.853 26.46 662.793 26.2712C662.722 26.0364 662.749 25.7829 662.866 25.5684L664.398 22.5777C664.533 22.2935 664.744 22.0534 665.007 21.8849C665.237 21.7341 665.513 21.6755 665.783 21.7204C665.858 21.7297 665.93 21.7499 665.999 21.7802L666.333 21.9098C666.263 21.8833 666.191 21.8649 666.117 21.855C665.847 21.8101 665.571 21.8687 665.341 22.0195C665.077 22.1867 664.866 22.4271 664.732 22.7123L663.2 25.7029ZM665.066 26.1764C665.05 26.1274 665.037 26.0775 665.027 26.0269C664.953 25.6193 665.02 25.1982 665.218 24.8356C665.372 24.4282 665.72 24.129 666.141 24.0431H666.2L666.377 24.9902V25.1297C666.425 25.2734 666.411 25.4309 666.338 25.5634C666.269 25.7034 666.157 25.817 666.019 25.8873C665.913 25.9468 665.788 25.9559 665.675 25.9123L666.009 26.0468C666.119 26.0934 666.243 26.0934 666.353 26.0468C666.491 25.9747 666.603 25.8594 666.672 25.7179C666.745 25.5856 666.759 25.4279 666.711 25.2842C666.711 25.2444 666.7 25.2023 666.693 25.1742C666.689 25.1602 666.687 25.1497 666.687 25.1447L666.353 23.3403C666.355 23.3038 666.355 23.2672 666.353 23.2307C666.344 23.1405 666.312 23.0544 666.259 22.9815C666.216 22.9371 666.164 22.9016 666.107 22.8768L665.773 22.7422C665.83 22.7671 665.882 22.8026 665.925 22.8469C665.973 22.9045 666.009 22.9703 666.033 23.0413C666.036 23.0794 666.036 23.1177 666.033 23.1559L666.181 23.9584L665.925 23.8537L665.793 23.9036C665.374 23.9891 665.028 24.2863 664.875 24.6911C664.677 25.0537 664.609 25.4747 664.683 25.8824C664.693 25.9346 664.706 25.9862 664.722 26.0369C664.808 26.3174 665.011 26.5453 665.277 26.6599H665.321L665.479 26.7236C665.521 26.7504 665.565 26.7741 665.611 26.7945H665.655L665.479 26.7236C665.283 26.5978 665.136 26.4044 665.066 26.1764ZM667.369 23.6297L667.507 24.4372L667.173 24.3076L667.035 23.5001L667.222 23.4353L667.403 23.3755C667.562 23.3189 667.736 23.3189 667.895 23.3755L668.228 23.5051C668.069 23.4507 667.897 23.4507 667.737 23.5051L667.556 23.5699L667.369 23.6297ZM668.233 24.7908C668.226 24.8981 668.194 25.0022 668.14 25.0949L666.593 28.0556L666.259 27.921L667.806 24.9653C667.86 24.8726 667.892 24.7685 667.899 24.6612C667.902 24.5804 667.892 24.4996 667.87 24.422C667.869 24.4054 667.869 24.3887 667.87 24.3721C667.836 24.2948 667.777 24.2316 667.703 24.1927L668.037 24.3223C668.113 24.3583 668.173 24.4225 668.204 24.5017C668.205 24.5183 668.205 24.535 668.204 24.5516C668.227 24.6291 668.237 24.71 668.233 24.7908Z" fill="#0670A6"/>
<path d="M667.354 24.8906C667.354 24.8906 667.354 24.8407 667.354 24.766L667.08 22.9816C667.064 22.8868 667.041 22.7934 667.011 22.7024C666.958 22.5341 666.873 22.3781 666.76 22.2439C666.598 22.0445 666.369 21.9131 666.117 21.875C665.847 21.8301 665.571 21.8887 665.341 22.0395C665.077 22.2068 664.866 22.4472 664.732 22.7323L663.2 25.723C663.083 25.9375 663.056 26.191 663.127 26.4258C663.188 26.6139 663.328 26.7651 663.51 26.8395H663.578L665.425 23.2108C665.479 23.0966 665.562 22.9987 665.665 22.9267C665.756 22.8646 665.866 22.838 665.975 22.852C666.082 22.8586 666.183 22.9046 666.259 22.9816C666.309 23.0372 666.346 23.1037 666.367 23.176C666.37 23.2125 666.37 23.2491 666.367 23.2856L666.701 25.09C666.701 25.09 666.701 25.1697 666.726 25.2295C666.774 25.3732 666.76 25.5309 666.687 25.6632C666.618 25.8047 666.506 25.92 666.367 25.9921C666.249 26.0542 666.108 26.0542 665.989 25.9921C665.894 25.9376 665.822 25.8487 665.788 25.7429C665.785 25.7147 665.785 25.6863 665.788 25.6582C665.76 25.4872 665.789 25.3117 665.872 25.1597C665.941 25.008 666.078 24.8989 666.24 24.8657L666.441 24.7909L666.259 23.9784L666.132 24.0233C665.71 24.1092 665.362 24.4084 665.209 24.8158C665.011 25.1784 664.943 25.5995 665.017 26.0071C665.027 26.0577 665.04 26.1076 665.056 26.1566C665.135 26.4284 665.325 26.6531 665.577 26.7747C665.866 26.8961 666.193 26.8759 666.466 26.7198C666.78 26.5516 667.037 26.291 667.202 25.9722C667.401 25.6497 667.457 25.2567 667.354 24.8906Z" fill="#D4F7FF"/>
<path d="M667.433 27.637L668.592 25.4089C668.709 25.1878 668.782 24.9457 668.808 24.6962C668.828 24.4859 668.804 24.2738 668.739 24.0731C668.739 24.0731 668.739 24.0283 668.739 24.0083C668.664 23.8145 668.528 23.6515 668.351 23.5448C668.168 23.4537 667.956 23.4394 667.762 23.5049L667.58 23.5697L667.394 23.6295L667.531 24.437L667.625 24.3921L667.801 24.3273C667.878 24.2926 667.965 24.2926 668.042 24.3273C668.118 24.3633 668.178 24.4275 668.209 24.5068C668.21 24.5234 668.21 24.54 668.209 24.5566C668.232 24.6342 668.242 24.715 668.238 24.7959C668.231 24.9032 668.199 25.0072 668.145 25.0999L666.608 28.0606H666.652C666.978 28.1227 667.303 27.9465 667.433 27.637Z" fill="#D4F7FF"/>
</g>
<path opacity="0.667528" fill-rule="evenodd" clip-rule="evenodd" d="M363.949 85C346.187 85 332.994 71.3835 332.994 54.1669V54C332.994 36.9576 345.932 23 364.468 23C375.855 23 382.667 26.767 388.266 32.247L379.817 41.9223C375.161 37.727 370.417 35.1576 364.38 35.1576C354.206 35.1576 346.874 43.5481 346.874 53.8258V54C346.874 64.2777 354.037 72.8715 364.38 72.8715C371.28 72.8715 375.504 70.1351 380.248 65.8527L388.697 74.2796C382.492 80.8846 375.592 85 363.949 85ZM98.4214 44.8328V83.9693H111.644V24.0234H97.3323L81.4641 49.3765L65.5959 24.0234H51.2554V83.9693H64.2803V45.0941L81.0914 70.4399H81.4349L98.4214 44.8328ZM126.109 83.9693H149.651C168.655 83.9693 181.731 70.8682 181.731 54V53.8258C181.731 36.9576 168.655 24.0234 149.651 24.0234H126.109V83.9693ZM167.844 54C167.844 43.3812 160.535 35.9269 149.651 35.9269H139.418V72.1021H149.651C160.52 72.1021 167.844 64.8438 167.844 54.2032V54ZM193.55 24.0234V83.9693H239.51V72.24H206.743V59.6469H235.169V47.9176H206.743V35.76H239.079V24.0234H193.55ZM289.008 83.9693L275.471 63.3922L261.847 83.9693H246.754L267.797 53.4847L247.594 24.0234H263.119L275.793 43.4683L288.555 24.0234H303.648L283.489 53.3105L304.532 83.9693H289.008ZM312.558 70.2657V83.9693H326.533V70.2657H312.558ZM394.91 54.1669C394.91 71.2093 408.279 85 426.902 85C445.534 85 459.07 71.0424 459.063 54V53.8258C459.063 36.7907 445.687 23 427.071 23C408.454 23 394.91 36.9576 394.91 54V54.1669ZM445.175 54C445.175 43.7223 437.581 35.1285 426.902 35.1285C416.224 35.1285 408.798 43.5191 408.798 53.7968V53.971C408.798 64.2487 416.385 72.8424 427.071 72.8424C437.757 72.8424 445.183 64.4519 445.183 54.1742L445.175 54ZM518.033 44.8328V83.9693H531.255V24.0234H516.937L501.069 49.3765L485.2 24.0234H470.889V83.9693H483.914V45.0941L500.725 70.4399H501.069L518.033 44.8328Z" fill="url(#paint24_linear_720_56927)"/>
<path d="M139.975 103H151.375V79L162.055 95.32H162.295L173.035 78.88V103H184.615V61H172.315L162.295 77.26L152.275 61H139.975V103Z" fill="white"/>
<path d="M192.065 103H208.025C223.145 103 231.965 94 231.965 81.88V81.76C231.965 69.64 223.265 61 208.265 61H192.065V103ZM203.705 92.68V71.32H208.445C215.405 71.32 220.025 75.22 220.025 81.94V82.06C220.025 88.84 215.405 92.68 208.445 92.68H203.705Z" fill="white"/>
<path d="M237.944 103H272.024V93.1H249.464V86.44H269.624V77.26H249.464V70.9H271.724V61H237.944V103Z" fill="white"/>
<path d="M274.904 103H287.984L296.084 90.34L304.124 103H317.504L303.104 81.52L316.904 61H303.824L296.324 72.82L288.884 61H275.504L289.304 81.64L274.904 103Z" fill="white"/>
</g>
<defs>
<linearGradient id="paint0_linear_720_56927" x1="847.174" y1="214.381" x2="847.174" y2="2.04389" gradientUnits="userSpaceOnUse">
<stop stop-color="#113658"/>
<stop offset="1" stop-color="#136594"/>
</linearGradient>
<linearGradient id="paint1_linear_720_56927" x1="738.905" y1="15" x2="738.905" y2="69" gradientUnits="userSpaceOnUse">
<stop stop-color="#5945FF"/>
<stop offset="1" stop-color="#7834FF" stop-opacity="0.01"/>
</linearGradient>
<linearGradient id="paint2_linear_720_56927" x1="613.905" y1="0" x2="613.905" y2="54" gradientUnits="userSpaceOnUse">
<stop stop-color="#5945FF"/>
<stop offset="1" stop-color="#7834FF" stop-opacity="0.01"/>
</linearGradient>
<linearGradient id="paint3_linear_720_56927" x1="574.905" y1="113" x2="574.905" y2="167" gradientUnits="userSpaceOnUse">
<stop stop-color="#0784C3"/>
<stop offset="1" stop-color="#0784C3" stop-opacity="0.01"/>
</linearGradient>
<linearGradient id="paint4_linear_720_56927" x1="778.765" y1="78" x2="778.765" y2="129" gradientUnits="userSpaceOnUse">
<stop stop-color="#5945FF"/>
<stop offset="1" stop-color="#0784C3" stop-opacity="0.01"/>
</linearGradient>
<linearGradient id="paint5_linear_720_56927" x1="759.765" y1="142" x2="759.765" y2="193" gradientUnits="userSpaceOnUse">
<stop stop-color="#5945FF"/>
<stop offset="0.0001" stop-color="#0784C3"/>
<stop offset="1" stop-color="#0784C3" stop-opacity="0"/>
</linearGradient>
<linearGradient id="paint6_linear_720_56927" x1="697.295" y1="256" x2="697.295" y2="127" gradientUnits="userSpaceOnUse">
<stop stop-color="#077CC3"/>
<stop offset="1" stop-color="#D1CBFF" stop-opacity="0.01"/>
</linearGradient>
<linearGradient id="paint7_linear_720_56927" x1="748.602" y1="47.9963" x2="670.69" y2="48.0575" gradientUnits="userSpaceOnUse">
<stop stop-color="#4FB0E1"/>
<stop offset="0.55" stop-color="#2893CA"/>
<stop offset="0.83" stop-color="#3BADE7"/>
<stop offset="1" stop-color="#21A4E6"/>
</linearGradient>
<linearGradient id="paint8_linear_720_56927" x1="641.185" y1="118.705" x2="686.745" y2="118.705" gradientUnits="userSpaceOnUse">
<stop stop-color="#0973A8"/>
<stop offset="0.47" stop-color="#0784C3"/>
<stop offset="0.74" stop-color="#0784C3"/>
<stop offset="1" stop-color="#0784C3"/>
</linearGradient>
<linearGradient id="paint9_linear_720_56927" x1="652.295" y1="112.5" x2="748.295" y2="112.5" gradientUnits="userSpaceOnUse">
<stop stop-color="#5EB7E4"/>
<stop offset="0.63" stop-color="#5BB7E4"/>
<stop offset="1" stop-color="#4EB2E4"/>
</linearGradient>
<linearGradient id="paint10_linear_720_56927" x1="714.295" y1="53.0008" x2="748.295" y2="53.0008" gradientUnits="userSpaceOnUse">
<stop stop-color="#2D9BD2"/>
<stop offset="0.15" stop-color="#3AACE6"/>
<stop offset="0.72" stop-color="#2FADEC"/>
<stop offset="1" stop-color="#3AACE6"/>
</linearGradient>
<linearGradient id="paint11_linear_720_56927" x1="652.295" y1="112" x2="701.295" y2="112" gradientUnits="userSpaceOnUse">
<stop stop-color="#2D9BD2"/>
<stop offset="0.15" stop-color="#3AACE6"/>
<stop offset="0.72" stop-color="#2FADEC"/>
<stop offset="1" stop-color="#3AACE6"/>
</linearGradient>
<linearGradient id="paint12_linear_720_56927" x1="673.165" y1="114" x2="742.295" y2="114" gradientUnits="userSpaceOnUse">
<stop stop-color="#0784C3"/>
<stop offset="0.25" stop-color="#52B5E7"/>
<stop offset="0.64" stop-color="#36B0EE"/>
<stop offset="1" stop-color="#36B0ED"/>
</linearGradient>
<linearGradient id="paint13_linear_720_56927" x1="662.295" y1="113.5" x2="742.295" y2="113.5" gradientUnits="userSpaceOnUse">
<stop stop-color="#55AEDE"/>
<stop offset="0.3" stop-color="#56B6E7"/>
<stop offset="0.51" stop-color="#36ABE7"/>
<stop offset="0.71" stop-color="#37A5DD"/>
<stop offset="1" stop-color="#2EA9E7"/>
</linearGradient>
<linearGradient id="paint14_linear_720_56927" x1="764.534" y1="65.7143" x2="683.629" y2="53.5136" gradientUnits="userSpaceOnUse">
<stop stop-color="#0784C3"/>
<stop offset="1" stop-color="#49B5EC"/>
</linearGradient>
<linearGradient id="paint15_linear_720_56927" x1="700.645" y1="50.3659" x2="611.635" y2="50.3959" gradientUnits="userSpaceOnUse">
<stop stop-color="#4FB0E1"/>
<stop offset="0.55" stop-color="#2893CA"/>
<stop offset="0.83" stop-color="#3BADE7"/>
<stop offset="1" stop-color="#21A4E6"/>
</linearGradient>
<linearGradient id="paint16_linear_720_56927" x1="614.706" y1="204.76" x2="648.554" y2="191.848" gradientUnits="userSpaceOnUse">
<stop stop-color="#61C8FB"/>
<stop offset="1" stop-color="#1296D9"/>
</linearGradient>
<linearGradient id="paint17_linear_720_56927" x1="651.11" y1="160.717" x2="616.822" y2="154.638" gradientUnits="userSpaceOnUse">
<stop stop-color="#0784C3"/>
<stop offset="1" stop-color="#49B5EC"/>
</linearGradient>
<linearGradient id="paint18_linear_720_56927" x1="771.61" y1="110.426" x2="796.849" y2="127.873" gradientUnits="userSpaceOnUse">
<stop stop-color="#1296D9"/>
<stop offset="0.765625" stop-color="#61C8FB"/>
</linearGradient>
<linearGradient id="paint19_linear_720_56927" x1="813.202" y1="95.2198" x2="789.429" y2="89.5486" gradientUnits="userSpaceOnUse">
<stop stop-color="#49B5EC"/>
<stop offset="1" stop-color="#0784C3"/>
</linearGradient>
<linearGradient id="paint20_linear_720_56927" x1="735.486" y1="180.839" x2="754.223" y2="180.596" gradientUnits="userSpaceOnUse">
<stop stop-color="#61C8FB"/>
<stop offset="1" stop-color="#1296D9"/>
</linearGradient>
<linearGradient id="paint21_linear_720_56927" x1="757.343" y1="162.777" x2="741.348" y2="159.828" gradientUnits="userSpaceOnUse">
<stop stop-color="#0784C3"/>
<stop offset="1" stop-color="#49B5EC"/>
</linearGradient>
<linearGradient id="paint22_linear_720_56927" x1="660.98" y1="23.8608" x2="667.748" y2="32.6656" gradientUnits="userSpaceOnUse">
<stop stop-color="#61C8FB"/>
<stop offset="1" stop-color="#1296D9"/>
</linearGradient>
<linearGradient id="paint23_linear_720_56927" x1="672.5" y1="20.2519" x2="663.889" y2="18.7539" gradientUnits="userSpaceOnUse">
<stop stop-color="#0784C3"/>
<stop offset="1" stop-color="#49B5EC"/>
</linearGradient>
<linearGradient id="paint24_linear_720_56927" x1="529.982" y1="99.9622" x2="529.982" y2="23" gradientUnits="userSpaceOnUse">
<stop stop-color="#135681"/>
<stop offset="0.0001" stop-color="#124C73"/>
<stop offset="1" stop-color="#2F84B5"/>
</linearGradient>
<clipPath id="clip0_720_56927">
<rect x="0.255371" width="860" height="219" rx="40" fill="white"/>
</clipPath>
</defs>
</svg>
