<svg width="860" height="219" viewBox="0 0 860 219" fill="none" xmlns="http://www.w3.org/2000/svg">
<rect width="860" height="219" rx="40" fill="url(#paint0_linear_25_61874)"/>
<g clip-path="url(#clip0_25_61874)">
<rect opacity="0.04" x="736" y="15" width="5.22581" height="54" rx="2.6129" fill="url(#paint1_linear_25_61874)"/>
<rect opacity="0.0828359" x="611" width="5.22581" height="54" rx="2.6129" fill="url(#paint2_linear_25_61874)"/>
<rect opacity="0.14929" x="572" y="113" width="5.22581" height="54" rx="2.6129" fill="url(#paint3_linear_25_61874)"/>
<rect opacity="0.0828359" x="776" y="78" width="4.93548" height="51" rx="2.46774" fill="url(#paint4_linear_25_61874)"/>
<rect opacity="0.268966" x="757" y="142" width="4.93548" height="51" rx="2.46774" fill="url(#paint5_linear_25_61874)"/>
<path opacity="0.4" fill-rule="evenodd" clip-rule="evenodd" d="M696.999 256C640.975 256 588.298 249.326 548.673 237.208C529.384 231.317 514.229 224.434 503.637 216.775C492.596 208.795 487 200.289 487 191.5C487 182.711 492.596 174.208 503.637 166.225C514.229 158.566 529.382 151.691 548.673 145.792C588.298 133.674 640.975 127 696.999 127C753.022 127 805.699 133.674 845.324 145.792C864.613 151.683 879.768 158.566 890.361 166.225C901.401 174.208 907 182.711 907 191.5C907 200.289 901.401 208.795 890.361 216.775C879.768 224.434 864.616 231.309 845.324 237.208C805.699 249.326 753.025 256 696.999 256ZM696.999 127.803C581.649 127.803 487.804 156.378 487.804 191.5C487.804 226.622 581.649 255.197 696.999 255.197C812.348 255.197 906.196 226.622 906.196 191.5C906.196 156.378 812.351 127.803 696.999 127.803ZM561.152 234.052C597.635 244.992 645.744 250.997 696.818 250.997L698.638 251C740.954 250.882 781.042 246.677 814.571 238.846C830.711 235.069 844.768 230.572 856.351 225.472C868.114 220.29 877.051 214.606 882.913 208.577C888.441 202.891 891.159 196.958 890.993 190.942C890.551 174.979 869.902 160.062 832.85 148.948C796.367 138.008 748.256 132 697.185 132H695.365C653.049 132.118 612.958 136.323 579.431 144.154C563.289 147.931 549.232 152.428 537.651 157.528C525.889 162.71 516.952 168.394 511.087 174.423C505.559 180.109 502.841 186.042 503.007 192.058C503.449 208.021 524.098 222.938 561.152 234.052ZM695.368 132.797H697.169C802.876 132.797 889.299 158.772 890.197 190.969C890.358 196.757 887.706 202.495 882.345 208.021C870.853 219.841 846.723 230.508 814.397 238.062C780.938 245.88 740.9 250.075 698.643 250.195H696.834C591.127 250.195 504.701 224.214 503.811 192.026C503.651 186.237 506.304 180.5 511.666 174.974C523.155 163.154 547.288 152.486 579.624 144.933C613.084 137.106 653.11 132.917 695.368 132.797ZM696.639 246C650.505 246 606.961 240.61 573.642 230.754C539.31 220.598 519.917 206.875 519.032 192.113C518.696 186.54 521.022 181.034 525.947 175.748C531.153 170.156 539.189 164.879 549.819 160.057C560.293 155.311 573.055 151.117 587.748 147.584C618.278 140.251 654.922 136.248 693.724 136.011C741.2 135.72 786.165 141.132 820.358 151.244C854.691 161.402 874.084 175.123 874.969 189.887C875.301 195.461 872.976 200.967 868.054 206.252C862.848 211.842 854.812 217.122 844.182 221.943C833.721 226.687 820.946 230.883 806.252 234.414C775.72 241.747 739.078 245.755 700.274 245.989C699.064 245.995 697.838 246 696.639 246ZM697.361 136.809H693.729C654.984 137.046 618.406 141.04 587.947 148.36C558.533 155.43 536.716 165.34 526.523 176.29C521.757 181.411 519.504 186.71 519.818 192.054C520.252 199.29 525.316 206.306 534.873 212.906C544.17 219.326 557.286 225.067 573.854 229.967C607.098 239.801 650.566 245.181 696.621 245.181H700.255C738.998 244.944 775.575 240.947 806.035 233.627C835.449 226.56 857.266 216.647 867.458 205.7C872.225 200.579 874.478 195.277 874.164 189.936C873.732 182.696 868.665 175.681 859.111 169.083C849.812 162.663 836.698 156.923 820.13 152.02C786.889 142.186 743.407 136.809 697.361 136.809ZM586.152 226.727C616.29 235.322 655.277 240 696.462 240C698.273 240 700.096 239.987 701.913 239.973C737.19 239.619 770.374 235.893 797.873 229.198C811.127 225.973 822.592 222.156 831.959 217.857C841.468 213.486 848.599 208.71 853.162 203.664C857.489 198.869 859.426 193.885 858.922 188.845C857.593 175.564 839.455 163.288 807.849 154.276C776.378 145.292 735.263 140.596 692.079 141.027C656.801 141.371 623.62 145.103 596.129 151.803C582.873 155.028 571.41 158.845 562.043 163.147C552.531 167.518 545.403 172.291 540.84 177.339C536.513 182.131 534.576 187.118 535.077 192.155C536.409 205.437 554.547 217.716 586.152 226.727ZM550.301 210.756C541.377 204.869 536.521 198.576 535.872 192.076C535.392 187.27 537.262 182.491 541.43 177.886C550.33 168.024 569.813 159.031 596.311 152.581C623.76 145.902 656.871 142.171 692.087 141.827C735.201 141.398 776.225 146.091 807.627 155.044C822.871 159.383 835.005 164.498 843.693 170.236C852.615 176.124 857.47 182.417 858.122 188.917C858.602 193.723 856.732 198.502 852.561 203.12C843.661 212.979 824.173 221.961 797.683 228.414C770.24 235.096 737.12 238.814 701.904 239.166C658.803 239.6 617.769 234.904 586.367 225.949C571.12 221.61 558.986 216.498 550.301 210.756ZM696.299 234C660.048 234 625.634 229.978 598.682 222.548C569.81 214.59 552.933 203.635 551.153 191.713C550.479 187.154 552.031 182.635 555.791 178.265C563.629 169.142 580.495 161.141 604.55 155.123C629.023 149.009 658.727 145.522 690.454 145.054C729.328 144.479 766.584 148.528 795.316 156.452C824.188 164.411 841.065 175.363 842.845 187.287C843.524 191.846 841.97 196.37 838.224 200.727C830.385 209.85 813.519 217.851 789.465 223.87C764.994 229.983 735.289 233.471 703.56 233.939C701.136 233.984 698.711 234 696.299 234ZM697.704 145.798C695.293 145.798 692.876 145.816 690.454 145.851C658.786 146.319 629.147 149.793 604.735 155.897C581.177 161.787 564.01 169.916 556.4 178.781C552.813 182.957 551.32 187.266 551.961 191.588C552.829 197.418 557.472 203.035 565.761 208.287C573.836 213.404 584.985 217.944 598.905 221.78C625.787 229.191 660.129 233.211 696.305 233.211C698.716 233.211 701.133 233.193 703.555 233.157C735.22 232.69 764.862 229.215 789.274 223.112C812.829 217.221 829.999 209.093 837.609 200.227C841.196 196.051 842.689 191.742 842.045 187.418C841.177 181.591 836.535 175.974 828.245 170.719C820.173 165.604 809.021 161.064 795.101 157.228C768.224 149.809 733.872 145.798 697.704 145.798ZM611.068 219.238C634.71 225.586 664.45 229 695.646 229C698.645 229.002 701.654 228.97 704.672 228.906C732.716 228.316 758.822 225.044 780.171 219.441C801.166 213.93 815.718 206.673 822.25 198.458C825.415 194.475 826.585 190.356 825.728 186.212C823.515 175.503 807.963 165.755 781.931 158.765C756.028 151.806 722.777 148.373 688.328 149.094C660.287 149.684 634.186 152.959 612.829 158.562C591.831 164.073 577.282 171.328 570.75 179.542C567.587 183.525 566.415 187.647 567.271 191.791C569.484 202.5 585.04 212.249 611.068 219.238ZM581.17 206.528C573.552 201.861 569.129 196.846 568.058 191.627H568.053C567.247 187.728 568.366 183.831 571.376 180.044C577.708 172.081 592.5 164.727 613.03 159.339C634.317 153.753 660.359 150.489 688.341 149.899C722.729 149.178 755.889 152.602 781.731 159.541C794.275 162.912 804.401 166.913 811.829 171.472C819.451 176.142 823.871 181.154 824.942 186.373C825.75 190.273 824.631 194.17 821.621 197.956C815.289 205.919 800.497 213.273 779.967 218.661C758.68 224.25 732.636 227.514 704.656 228.101C670.278 228.823 637.129 225.39 611.269 218.46C598.724 215.091 588.599 211.087 581.17 206.528ZM695.507 224C669.222 224 644.047 221.229 623.659 216.037C600.39 210.105 586.103 201.696 583.447 192.355C582.399 188.665 583.196 184.983 585.817 181.4C591.094 174.206 603.396 167.801 621.388 162.877C639.682 157.872 662.265 154.861 686.695 154.155C716.826 153.29 746.179 156.063 769.337 161.966C792.606 167.895 806.893 176.304 809.549 185.645C810.6 189.335 809.816 193.018 807.182 196.601C801.902 203.794 789.599 210.196 771.611 215.121C753.314 220.125 730.733 223.137 706.304 223.842C702.692 223.949 699.093 224.002 695.507 224ZM584.209 192.136C589.558 210.958 644.322 224.823 706.275 223.043C730.642 222.343 753.159 219.337 771.391 214.351C788.96 209.541 801.44 203.072 806.537 196.128C809.003 192.766 809.747 189.319 808.781 185.878C803.432 167.056 748.671 153.188 686.716 154.97C662.359 155.67 639.84 158.676 621.607 163.673C604.041 168.483 591.559 174.949 586.461 181.894C583.995 185.247 583.241 188.694 584.209 192.136ZM636.295 212.802C653.376 216.858 673.987 219 695.381 219C699.538 219 703.728 218.92 707.92 218.761C749.841 217.129 783.646 207.5 792.03 194.804C794.129 191.62 794.553 188.357 793.29 185.104C790.201 177.133 777.208 170.066 756.709 165.198C736.309 160.355 710.87 158.24 685.082 159.244C643.16 160.879 609.353 170.508 600.972 183.203C598.87 186.385 598.446 189.648 599.712 192.904C602.814 200.877 615.799 207.936 636.295 212.802ZM707.893 217.961C654.882 220.026 606.689 208.654 600.459 192.612C599.292 189.611 599.69 186.592 601.642 183.637C605.543 177.731 615.722 172.161 630.306 167.956C645.465 163.584 664.418 160.839 685.114 160.042C738.122 157.977 786.316 169.349 792.548 185.391C793.712 188.391 793.314 191.41 791.365 194.366C787.464 200.269 777.283 205.839 762.698 210.046C747.54 214.415 728.59 217.164 707.893 217.961ZM695.774 214C679.136 214 662.991 212.435 649.209 209.436C631.415 205.563 619.661 199.735 616.115 193.029C614.584 190.13 614.63 187.201 616.251 184.323C622.268 173.658 649.46 165.242 683.916 163.384C705.462 162.225 727.08 163.709 744.791 167.564C762.588 171.438 774.339 177.266 777.885 183.974C779.416 186.871 779.37 189.8 777.749 192.677C771.732 203.345 744.542 211.758 710.087 213.616C705.307 213.871 700.514 214 695.774 214ZM616.827 192.648C623.962 206.148 665.78 215.197 710.044 212.811C744.235 210.969 771.165 202.717 777.053 192.28C778.53 189.657 778.573 186.992 777.179 184.35C770.041 170.85 728.226 161.801 683.962 164.19C649.768 166.031 622.84 174.281 616.955 184.718C615.473 187.341 615.43 190.009 616.827 192.648ZM661.264 205.015C671.618 206.988 683.295 208 695.215 208C700.549 208 705.901 207.796 711.219 207.395C724.576 206.374 736.475 204.135 745.633 200.927C754.66 197.763 760.443 193.868 762.317 189.667C763.505 187.04 763.141 184.402 761.246 181.827C757.261 176.404 746.781 171.845 731.738 168.982C716.761 166.132 699.015 165.288 681.772 166.61C668.417 167.633 656.519 169.869 647.361 173.077C638.334 176.236 632.572 180.133 630.682 184.329C629.497 186.956 629.858 189.594 631.753 192.17C635.738 197.592 646.218 202.154 661.264 205.015ZM711.165 206.578C675.75 209.289 640.424 202.607 632.395 191.686C630.69 189.366 630.356 187.005 631.405 184.671C635.133 176.372 655.397 169.44 681.834 167.416C717.248 164.704 752.575 171.386 760.604 182.307C762.309 184.627 762.643 186.989 761.594 189.323C757.869 197.622 737.604 204.553 711.165 206.578ZM695.341 203C674.383 203 654.951 199.02 647.832 192.652C645.39 190.464 644.502 188.065 645.266 185.72C646.266 182.653 650.016 179.747 656.115 177.317C662.28 174.86 670.577 173.003 680.099 171.95C706.886 168.983 736.076 173.199 745.168 181.347C747.61 183.536 748.498 185.932 747.734 188.28C746.731 191.347 742.981 194.252 736.885 196.68C730.72 199.14 722.41 200.997 712.901 202.05C707.07 202.688 701.207 203.005 695.341 203ZM697.753 171.79C691.883 171.782 686.017 172.096 680.182 172.73C661.374 174.812 647.966 180.002 646.028 185.953C645.357 188.009 646.143 190.06 648.365 192.055C657.31 200.068 686.218 204.194 712.805 201.251C731.615 199.169 745.021 193.979 746.962 188.028C747.632 185.972 746.844 183.921 744.621 181.926C737.641 175.677 718.477 171.79 697.753 171.79ZM663.909 193.348C670.522 196.984 682.669 198.999 695.32 198.999C701.796 199.023 708.261 198.464 714.637 197.33C726.055 195.22 733.276 191.446 733.952 187.241C734.205 185.598 733.586 183.125 729.091 180.654C719.059 175.137 696.302 173.349 678.36 176.669C666.943 178.782 659.724 182.553 659.048 186.758C658.795 188.401 659.414 190.874 663.909 193.348ZM678.5 177.465C684.852 176.334 691.291 175.777 697.742 175.801L697.729 175.804C710.223 175.804 722.195 177.784 728.695 181.363C731.925 183.138 733.465 185.126 733.147 187.111C732.536 190.907 725.385 194.519 714.484 196.534C696.698 199.825 674.18 198.077 664.289 192.636C661.056 190.861 659.517 188.873 659.837 186.888C660.448 183.092 667.597 179.48 678.5 177.465ZM695.5 195C690.18 195 684.883 194.467 680.462 193.343C674.54 191.844 671.193 189.595 671.007 187.012C670.904 185.512 671.855 183.282 676.958 181.226C685.815 177.638 701.775 176.937 712.535 179.657C718.457 181.154 721.805 183.405 721.993 185.989C722.094 187.488 721.146 189.718 716.039 191.774C710.835 193.889 703.136 195 695.5 195ZM697.479 178.794C689.957 178.794 682.382 179.886 677.255 181.967C673.619 183.44 671.68 185.211 671.799 186.956C671.945 189.105 675.242 191.202 680.658 192.568C691.281 195.256 707.021 194.566 715.743 191.034C719.382 189.561 721.318 187.789 721.201 186.045C721.053 183.895 717.742 181.799 712.342 180.432C707.972 179.327 702.736 178.794 697.479 178.794ZM696.5 191C687.81 191 681 188.804 681 186C681 183.196 687.81 181 696.5 181C705.19 181 712 183.196 712 186C712 188.804 705.193 191 696.5 191ZM696.5 181.763C687.722 181.763 681.824 183.954 681.824 186C681.824 188.046 687.722 190.237 696.5 190.237C705.278 190.237 711.176 188.046 711.176 186C711.176 183.954 705.281 181.763 696.5 181.763Z" fill="url(#paint6_linear_25_61874)"/>
<path d="M733.428 53.9939H733.753L734.946 53.9591H735.276C735.763 53.9417 736.253 53.9214 736.751 53.8954L737.059 53.878L738.337 53.8026L738.716 53.7766C739.232 53.7389 739.753 53.7012 740.283 53.6577L740.547 53.6346L741.94 53.5071L742.364 53.4636C742.915 53.4095 743.47 53.3506 744.03 53.2868L744.204 53.2665L745.767 53.0753L746.223 53.0173C746.81 52.942 747.399 52.8609 748 52.7768L735.268 45.7063C734.667 45.7932 734.077 45.8714 733.491 45.9497L733.035 46.0076L731.469 46.1989L731.298 46.2192C730.728 46.2829 730.181 46.3409 729.632 46.3959L729.208 46.4365C728.738 46.4829 728.273 46.5263 727.812 46.564L727.55 46.5872C727.02 46.6335 726.499 46.6712 725.981 46.7089L725.605 46.7321L724.326 46.8103L724.019 46.8277C723.52 46.8509 723.031 46.8741 722.544 46.8914H722.213C721.812 46.8914 721.413 46.9146 721.02 46.9233H720.696C720.228 46.9233 719.767 46.9233 719.311 46.9233H719.027C718.645 46.9233 718.266 46.9233 717.888 46.9233H717.563C717.122 46.9233 716.686 46.9059 716.259 46.8914H716.056L714.957 46.8422H714.638C714.225 46.819 713.815 46.7929 713.414 46.7639H713.306L712.212 46.6741L711.904 46.648L710.765 46.5321H710.777L709.666 46.3959L709.381 46.3583L708.416 46.2221L708.305 46.2047C707.955 46.1525 707.613 46.0946 707.274 46.0366L707.018 45.9931L706.163 45.8367L706.001 45.8048C705.676 45.741 705.36 45.6744 705.05 45.6077L704.825 45.5556C704.563 45.4976 704.307 45.4397 704.056 45.3788L703.871 45.3353C703.58 45.2658 703.296 45.1933 703.016 45.118C702.806 45.0629 702.604 45.005 702.399 44.947L702.023 44.8427C701.789 44.7761 701.558 44.7036 701.331 44.6341L701.071 44.5558C700.761 44.4573 700.456 44.3559 700.16 44.2661L699.975 44.1994C699.742 44.1183 699.511 44.0371 699.289 43.9531L698.981 43.8343L698.454 43.6285L698.127 43.4953C697.97 43.4286 697.811 43.3649 697.66 43.2982L697.329 43.1533C697.184 43.0896 697.045 43.0258 696.902 42.9592L696.578 42.8085L696.179 42.6143L695.777 42.4115L695.587 42.313L695 42L707.727 49.0445C707.918 49.1517 708.114 49.256 708.313 49.3603L708.504 49.4589L708.789 49.6067L708.906 49.6617L709.302 49.853L709.626 50.0065L710.053 50.1978L710.384 50.3456L710.851 50.5397L711.178 50.6759C711.349 50.7455 711.529 50.8121 711.705 50.8788C711.808 50.9193 711.907 50.9599 712.013 50.9976C712.235 51.0816 712.463 51.1628 712.693 51.2439L712.884 51.3105C713.169 51.412 713.485 51.5134 713.795 51.6003L714.057 51.6815C714.285 51.751 714.513 51.8206 714.746 51.8872L715.122 51.9944L715.74 52.1625L715.823 52.1857L716.595 52.3798L716.78 52.4233C717.03 52.4841 717.287 52.545 717.549 52.603L717.774 52.6522C718.087 52.7189 718.403 52.7855 718.725 52.8493L718.887 52.8811C719.172 52.9362 719.457 52.9884 719.741 53.0376L719.998 53.084L721.029 53.2521H721.14C721.459 53.3013 721.781 53.3448 722.105 53.3912L722.39 53.4288C722.754 53.4752 723.125 53.5216 723.501 53.5621C723.874 53.6056 724.252 53.6433 724.64 53.678L724.947 53.7041C725.309 53.736 725.671 53.7679 726.041 53.7939H726.149C726.551 53.8229 726.961 53.8461 727.374 53.8693L727.692 53.8867L728.792 53.933H728.994L730.298 53.9649H730.623C730.996 53.9649 731.375 53.9649 731.762 53.9649H732.047C732.5 54.0084 732.961 54.0026 733.428 53.9939Z" fill="url(#paint7_linear_25_61874)"/>
<path d="M676.442 172.477C652.175 158.053 651.738 141.139 651.713 140.237L651.838 65.9949L639.136 59L639 133.253C639.023 134.144 639.463 151.078 663.73 165.497C667.506 167.742 670.661 169.55 673.299 171.005L686 178C683.362 176.534 680.207 174.722 676.442 172.477Z" fill="url(#paint8_linear_25_61874)"/>
<path d="M700.097 42C700.497 42.8063 708.055 58.1281 748 52.5128L747.863 126.354C747.837 127.249 747.331 144.215 722.831 165.438C705.628 180.345 701.249 182.821 700.163 182.973C698.425 183.219 694.054 181.972 676.895 171.894C652.466 157.55 652.026 140.73 652 139.832L652.137 66.002C692.076 60.3725 699.697 42.9178 700.097 42Z" fill="url(#paint9_linear_25_61874)"/>
<path d="M748 53.3092V52.7694C731.956 54.3278 721.176 53.5349 714 52C720.907 53.7194 731.61 54.7675 748 53.3092Z" fill="url(#paint10_linear_25_61874)"/>
<path d="M678.468 171.785C654.141 157.512 653.702 140.781 653.677 139.885L653.813 66.4171C688.418 61.5587 698.657 47.7828 701 43.6868C700.575 43.1644 700.206 42.599 699.898 42C699.5 42.9131 691.911 60.2787 652.137 65.8653L652 139.333C652.023 140.212 652.464 156.969 676.792 171.231C689.368 178.626 695.042 181.226 697.857 182C694.621 180.768 688.936 177.927 678.468 171.785Z" fill="url(#paint11_linear_25_61874)"/>
<path d="M741.444 64.604V64.5271V63.9576L740.876 64.0317V63.9576V63.3881L740.308 63.4622V63.3881V62.8186C717.571 66.022 707.381 61.1102 703.081 57.4084C702.622 56.8808 702.228 56.2995 701.908 55.6772L701.806 55.8993C701.637 55.6484 701.485 55.3868 701.349 55.1162C701.332 55.1561 701.301 55.233 701.25 55.3383C701.081 55.0886 700.928 54.828 700.793 54.5581C700.776 54.598 700.745 54.6749 700.693 54.7802C700.524 54.5308 700.371 54.2702 700.236 54C699.901 54.7717 693.526 69.4162 660.114 74.126L660 136.081V136.651C660.014 137.22 660.244 145.982 670.094 155.521C670.281 155.709 670.46 155.894 670.662 156.091C674.044 159.423 677.837 162.309 681.948 164.679C696.058 172.99 699.831 174.141 701.335 173.981C701.546 174.006 701.76 174.006 701.971 173.981C702.879 173.853 706.544 171.777 720.932 159.271C741.441 141.486 741.864 127.248 741.886 126.494L742 64.5357L741.444 64.604Z" fill="url(#paint12_linear_25_61874)"/>
<path d="M702.082 54C702.413 54.6788 708.713 67.6112 742 62.8793L741.887 125.204C741.856 125.954 741.434 140.276 721.027 158.18C706.694 170.76 703.043 172.848 702.139 172.977C700.691 173.184 697.049 172.132 682.749 163.628C662.39 151.521 662.02 137.314 662 136.566L662.116 74.2449C695.389 69.5073 701.737 54.7734 702.082 54Z" fill="url(#paint13_linear_25_61874)"/>
<path d="M701.082 54C701.413 54.6788 707.713 67.6112 741 62.8793L740.887 125.204C740.856 125.954 740.434 140.276 720.027 158.18C705.694 170.76 702.043 172.848 701.139 172.977C699.691 173.184 696.049 172.132 681.749 163.628C661.39 151.521 661.02 137.314 661 136.566L661.116 74.2449C694.389 69.5073 700.737 54.7734 701.082 54Z" fill="url(#paint14_linear_25_61874)"/>
<path d="M701.161 171C700.158 170.895 696.532 169.715 683.528 162.13C665.048 151.354 664.057 139.263 664 137.746L664.108 78.5908C687.752 74.8293 697.82 66.1938 701.856 61C705.428 64.3965 712.966 68.7666 728.147 68.7666C731.774 68.7519 735.397 68.5346 739 68.1156L738.889 126.495C738.852 127.404 737.977 140.571 718.84 157.041C705.622 168.424 702.013 170.601 701.161 171Z" fill="url(#paint15_linear_25_61874)"/>
<path fill-rule="evenodd" clip-rule="evenodd" d="M697.682 163.375C694.825 161.918 691.176 159.883 686.811 157.326C672.66 149.036 670.411 140.43 670.057 137.99L670 137.588L670.1 82.7808L674.386 81.7403C685.091 79.1518 693.813 75.2436 700.339 70.1295L703.05 68L706.178 69.4538C712.161 72.2418 719.641 73.67 728.406 73.7042L734 73.727L733.903 126.179L733.834 126.607C733.383 129.458 730.74 139.811 715.729 152.785C710.858 156.995 706.813 160.362 703.704 162.791L700.879 165L697.682 163.375Z" stroke="url(#paint16_linear_25_61874)" stroke-width="2"/>
<path fill-rule="evenodd" clip-rule="evenodd" d="M729 98.8727L710.276 101.561L718.109 81.4182L718.187 81.2134L696.548 84.3202L683.382 123.406L696.383 121.539L690.828 153L728.822 99.123L729 98.8727ZM728.457 99.2283L691.254 151.967L696.684 121.209L683.744 123.067L696.717 84.5706L717.803 81.5434L709.97 101.686L709.892 101.894L728.457 99.2283Z" fill="white"/>
<path d="M696.875 136.991L696.492 136.78L700.115 116.303L700.498 116.517L696.875 136.991Z" fill="#848484"/>
<path d="M703.655 106.623L703.271 106.409L719.611 104.066L719.995 104.28L703.655 106.623Z" fill="#9A9A9A"/>
<path d="M711.606 86.214L703.654 106.623L719.994 104.28L696.875 136.991L700.498 116.517L688.383 118.252L698.571 88.0828L711.606 86.214Z" fill="white"/>
<path d="M688.383 118.252L688 118.041L698.187 87.8688L698.571 88.0828L688.383 118.252Z" fill="#878787"/>
<path d="M698.571 88.0828L698.187 87.8688L711.223 86L711.606 86.214L698.571 88.0828Z" fill="#9A9A9A"/>
<path d="M687.184 34L687.146 34.0887V34.1182L687.08 34.266L687.063 34.3044L686.957 34.5231C686.919 34.6029 686.873 34.6915 686.825 34.7891L686.799 34.8364C686.741 34.9427 686.681 35.058 686.612 35.1821L686.578 35.2442L686.348 35.6431L686.305 35.7111C686.216 35.8589 686.124 36.0066 686.017 36.1721L685.98 36.2283C685.871 36.3997 685.753 36.577 685.627 36.7662C685.521 36.9228 685.408 37.0853 685.288 37.2508L685.213 37.3572C685.093 37.5227 684.963 37.6941 684.831 37.8685L684.759 37.9631C684.63 38.1286 684.498 38.297 684.357 38.4714L684.297 38.5482C684.145 38.7344 683.984 38.9265 683.817 39.1215L683.708 39.2516C683.536 39.4466 683.361 39.6476 683.177 39.8426L683.125 39.8988C682.95 40.0909 682.766 40.2859 682.576 40.4898L682.453 40.6199C682.252 40.8297 682.042 41.0395 681.824 41.2553L681.692 41.3823C681.485 41.5833 681.272 41.7872 681.051 41.9911L680.965 42.0739C680.695 42.3251 680.411 42.5792 680.118 42.8334L679.968 42.9634C679.681 43.2117 679.394 43.4658 679.066 43.72L678.894 43.8618C678.574 44.1199 678.244 44.379 677.903 44.6391L677.759 44.7484C677.395 45.0233 677.021 45.2981 676.631 45.5759L676.585 45.6084C676.338 45.7857 676.082 45.9631 675.823 46.1374L675.536 46.3236L674.962 46.7048L674.631 46.9206L674.057 47.2811L673.712 47.4939C673.505 47.621 673.296 47.751 673.08 47.8781L672.764 48.0643C672.463 48.2446 672.155 48.4189 671.842 48.5962L671.785 48.6317C671.452 48.8179 671.107 49.0041 670.76 49.1932L670.432 49.3646L669.688 49.7547L669.283 49.9586L668.554 50.3369L668.137 50.5379C667.833 50.6856 667.52 50.8334 667.206 50.9782L666.902 51.1171C666.485 51.3141 666.059 51.5033 665.627 51.6845L665.339 51.8086C664.998 51.9564 664.65 52.1042 664.297 52.246L663.843 52.4293C663.524 52.5593 663.197 52.6864 662.869 52.8164L662.415 52.9908C661.996 53.1504 661.571 53.308 661.14 53.4636L660.965 53.5286C660.473 53.7059 659.973 53.8803 659.465 54.0517L659.015 54.2024C658.644 54.3266 658.271 54.4507 657.889 54.5718L657.349 54.7433L656.174 55.1008L655.7 55.2427C655.148 55.4043 654.588 55.5638 654.019 55.7215L653.749 55.7924C653.261 55.9254 652.77 56.0554 652.267 56.1825L651.693 56.3303C651.276 56.4337 650.854 56.5371 650.426 56.6258L649.812 56.7706C649.323 56.8868 648.827 56.9991 648.324 57.1075L647.922 57.1962C647.288 57.3321 646.642 57.4651 645.986 57.5951L645.469 57.6956C644.972 57.7902 644.472 57.8847 643.963 57.9911L643.277 58.1153L641.803 58.3665L641.149 58.4728C640.442 58.5871 639.726 58.6975 639 58.8038L651.839 66C652.565 65.8936 653.281 65.7843 653.988 65.672L654.643 65.5626C655.137 65.4828 655.631 65.3971 656.116 65.3114L656.803 65.1902C657.311 65.0986 657.811 65.0041 658.308 64.8947L658.825 64.7942C659.48 64.6642 660.125 64.5312 660.761 64.3953L661.16 64.3066C661.666 64.1963 662.164 64.085 662.654 63.9727L663.266 63.8279L664.535 63.5323L665.11 63.3875C665.615 63.2575 666.112 63.1255 666.6 62.9915L666.859 62.9235C667.433 62.7679 667.994 62.6083 668.542 62.4448L669.013 62.3059C669.41 62.1847 669.806 62.0665 670.194 61.9424C670.372 61.8892 670.55 61.833 670.728 61.7739C671.11 61.6528 671.489 61.5286 671.863 61.4045L672.308 61.2567C672.816 61.0824 673.319 60.908 673.81 60.7307L673.974 60.6716C674.407 60.515 674.835 60.3554 675.258 60.1928L675.709 60.0185L676.688 59.6343L677.139 59.4511C677.492 59.3062 677.837 59.1555 678.179 59.0137L678.466 58.8895C678.897 58.6925 679.321 58.5034 679.738 58.3221L680.046 58.1803L680.974 57.7429L681.152 57.6572L681.393 57.539L682.111 57.1843L682.519 56.9775L683.257 56.5903L683.59 56.416C683.938 56.2298 684.28 56.0406 684.613 55.8545L684.656 55.8279C684.975 55.6505 685.288 55.4703 685.595 55.29L685.908 55.1008L686.54 54.7196L686.885 54.5068L687.459 54.1404L687.787 53.9305L688.361 53.5464L688.634 53.3631C688.89 53.1888 689.143 53.0115 689.39 52.8371L689.438 52.8046C689.829 52.5268 690.202 52.249 690.567 51.9741C690.616 51.9387 690.665 51.9032 690.711 51.8648C691.056 51.6047 691.387 51.3447 691.705 51.0846L691.874 50.9487C692.187 50.6915 692.489 50.4403 692.779 50.1891L692.923 50.0621C693.21 49.8049 693.497 49.5508 693.784 49.2996L693.807 49.2819L693.87 49.2198C694.092 49.0159 694.304 48.812 694.511 48.6081L694.643 48.481C694.861 48.2682 695.071 48.0554 695.272 47.8456C695.315 47.8042 695.355 47.7599 695.396 47.7185C695.585 47.5205 695.769 47.3225 695.944 47.1274L695.993 47.0743C696.18 46.8703 696.355 46.6694 696.527 46.4832L696.585 46.4182L696.639 46.3532C696.803 46.1581 696.964 45.966 697.116 45.7798L697.176 45.7059C697.317 45.5316 697.449 45.3631 697.576 45.1976L697.65 45.1031C697.785 44.9257 697.912 44.7543 698.032 44.5888L698.107 44.4825C698.228 44.317 698.343 44.1515 698.449 43.9948C698.578 43.8086 698.693 43.6284 698.805 43.457L698.84 43.4038C698.943 43.2412 699.035 43.0876 699.127 42.9427L699.17 42.8718L699.4 42.4728L699.434 42.4108C699.503 42.2867 699.566 42.1714 699.621 42.065V42.0502L699.638 42.0177C699.687 41.9232 699.733 41.8315 699.77 41.7518C699.813 41.672 699.845 41.5981 699.876 41.5331L699.894 41.4976L699.963 41.3469C699.961 41.3381 699.961 41.3291 699.963 41.3203C699.977 41.2819 699.991 41.2494 700 41.2287L687.184 34Z" fill="url(#paint17_linear_25_61874)"/>
<circle cx="619.5" cy="101.5" r="3.5" fill="#0C3EBB"/>
<circle cx="798.5" cy="105.5" r="8.5" fill="#0E8EFF"/>
<circle cx="759" cy="88" r="5" fill="#0C3EBB"/>
<circle cx="599" cy="74" r="6" fill="#0E8EFF"/>
<path d="M600.884 163.536L600.781 163.604C597.998 165.497 596.443 168.676 596.073 172.598C595.832 175.776 596.187 178.971 597.121 182.022C597.923 184.753 599.032 187.387 600.429 189.875C601.15 191.16 601.949 192.411 602.834 193.712C603.581 194.777 604.363 195.783 605.171 196.747C606.997 198.933 609.059 200.917 611.322 202.664C613.792 204.612 616.584 206.127 619.577 207.144C623.743 208.479 627.669 208.293 630.65 206.298L630.762 206.222L639 200.627L635.444 195.555C635.423 192.723 634.968 189.911 634.095 187.212C633.239 184.511 632.087 181.909 630.659 179.453C630.032 178.371 629.344 177.289 628.606 176.224C627.735 174.988 626.8 173.798 625.805 172.657C623.939 170.492 621.832 168.538 619.525 166.833C617.427 165.265 615.113 163.999 612.653 163.072L609.097 158L600.884 163.536Z" fill="#003D97"/>
<mask id="mask0_25_61874" style="mask-type:luminance" maskUnits="userSpaceOnUse" x="596" y="158" width="43" height="50">
<path d="M600.884 163.536L600.781 163.604C597.998 165.497 596.443 168.676 596.073 172.598C595.832 175.776 596.187 178.971 597.121 182.022C597.923 184.753 599.032 187.387 600.429 189.875C601.15 191.16 601.949 192.411 602.834 193.712C603.581 194.777 604.363 195.783 605.171 196.747C606.997 198.933 609.059 200.917 611.322 202.664C613.792 204.612 616.584 206.127 619.577 207.144C623.743 208.479 627.669 208.293 630.65 206.298L630.762 206.222L639 200.627L635.444 195.555C635.423 192.723 634.968 189.911 634.095 187.212C633.239 184.511 632.087 181.909 630.659 179.453C630.032 178.371 629.344 177.289 628.606 176.224C627.735 174.988 626.8 173.798 625.805 172.657C623.939 170.492 621.832 168.538 619.525 166.833C617.427 165.265 615.113 163.999 612.653 163.072L609.097 158L600.884 163.536Z" fill="white"/>
</mask>
<g mask="url(#mask0_25_61874)">
<path d="M635.845 196.372L619.243 207.165C623.481 208.467 627.474 208.286 630.507 206.34L630.62 206.266L639 200.808L635.845 196.372Z" fill="#1D75E0"/>
<path d="M599.79 164.934L599.684 165.004C596.819 166.956 595.218 170.234 594.838 174.279L611.108 163.208L608.27 159.163L599.79 164.934Z" fill="#05398C"/>
<path d="M634.903 188.233L612.27 203.566C614.722 205.494 617.493 206.994 620.462 208L636.676 197.075L636.275 196.506C636.255 193.703 635.804 190.92 634.937 188.249C634.937 188.249 634.911 188.233 634.903 188.233Z" fill="#1572CD"/>
<path d="M630.113 179.512L604.519 198.116V198.6C606.352 201.005 608.038 202.59 610.308 204.512V205.015L634.485 189.135L634.108 187.476C633.25 184.504 631.816 182.795 630.383 180.093L630.113 179.512Z" fill="#0B64C5"/>
<path d="M625.035 173.116L600.649 190.581C601.341 191.881 602.108 193.147 602.958 194.464C603.675 195.542 604.426 196.56 605.201 197.535L629.703 179.993C629.101 178.898 628.441 177.803 627.732 176.726C626.896 175.475 625.999 174.271 625.043 173.116C625.043 173.116 625.043 173.116 625.035 173.116Z" fill="#0C59AE"/>
<path d="M618.938 168.481L597.162 183.043C597.941 185.656 599.018 188.177 600.374 190.558L625.054 174.039C623.241 171.967 621.196 170.097 618.955 168.465L618.938 168.481Z" fill="#104D97"/>
<path d="M611.672 162.651L596.072 173.796C595.834 177.096 596.185 180.413 597.107 183.581L619.243 167.785C617.173 166.157 614.889 164.842 612.461 163.88L611.672 162.651Z" fill="#084694"/>
</g>
<ellipse cx="623.956" cy="179" rx="15.3758" ry="25.8398" transform="rotate(-34.62 623.956 179)" fill="url(#paint18_linear_25_61874)"/>
<path d="M608.973 158C608.407 158.398 607.887 158.855 607.422 159.363C607.187 159.614 606.966 159.876 606.759 160.149C606.656 160.283 606.57 160.425 606.466 160.567C606.366 160.704 606.274 160.847 606.19 160.994C605.5 162.171 605.006 163.446 604.726 164.773C604.204 167.433 604.204 170.165 604.726 172.826C605.229 175.487 606.05 178.083 607.173 180.56C608.297 183.037 609.665 185.403 611.257 187.626C612.049 188.741 612.891 189.817 613.781 190.854C614.671 191.891 615.616 192.883 616.616 193.831C618.603 195.73 620.816 197.395 623.207 198.789C625.579 200.217 628.211 201.188 630.961 201.649C632.339 201.867 633.745 201.867 635.123 201.649C635.295 201.649 635.459 201.582 635.631 201.549C635.803 201.515 635.976 201.482 636.139 201.432C636.476 201.323 636.812 201.248 637.13 201.114C637.785 200.869 638.412 200.558 639 200.186C637.847 200.977 636.535 201.522 635.149 201.783C633.756 202.034 632.331 202.067 630.927 201.883C628.129 201.46 625.442 200.521 623.009 199.115C620.566 197.739 618.311 196.07 616.297 194.148C612.237 190.342 608.99 185.795 606.742 180.769C605.609 178.259 604.802 175.621 604.338 172.918C603.845 170.208 603.892 167.432 604.476 164.74C604.798 163.403 605.336 162.125 606.07 160.952C606.809 159.777 607.799 158.771 608.973 158V158Z" fill="#67C4FB"/>
<path d="M613.969 186.111C617.489 191.359 621.956 195.407 626.546 197.528C632.024 200.064 635.199 198.762 636.606 197.765C638.013 196.768 640.324 194.174 639.962 188.004C639.658 182.849 637.552 177.12 634.031 171.88C630.511 166.641 626.044 162.584 621.454 160.472C615.976 157.936 612.792 159.238 611.394 160.235C609.996 161.232 607.676 163.826 608.038 169.987C608.334 175.151 610.44 180.872 613.969 186.111Z" fill="url(#paint19_linear_25_61874)"/>
<path d="M626.83 197.363C627.206 197.497 627.582 197.647 627.958 197.772L628.535 197.955C628.727 198.014 628.919 198.072 629.112 198.114L629.697 198.264L630.282 198.38C630.474 198.422 630.674 198.455 630.867 198.48L631.46 198.547C633.022 198.731 634.604 198.48 636.031 197.822C637.401 197.102 638.471 195.921 639.048 194.488C639.649 193.07 639.976 191.551 640.01 190.012C640.031 186.865 639.464 183.741 638.338 180.801C637.234 177.847 635.757 175.046 633.942 172.466C632.161 169.852 630.048 167.479 627.657 165.405C625.303 163.311 622.576 161.674 619.618 160.579C618.16 160.048 616.614 159.799 615.063 159.846C613.517 159.893 612.037 160.484 610.884 161.513C609.76 162.609 608.962 163.994 608.578 165.514C608.527 165.706 608.486 165.897 608.435 166.089C608.385 166.281 608.352 166.481 608.318 166.672C608.285 166.864 608.243 167.064 608.218 167.264L608.151 167.856C608.151 168.056 608.135 168.256 608.101 168.456V169.056C608.101 169.456 608.101 169.89 608.101 170.257C607.92 168.648 607.982 167.021 608.285 165.43C608.593 163.795 609.361 162.28 610.5 161.063C611.097 160.459 611.807 159.978 612.589 159.646C613.369 159.317 614.195 159.109 615.038 159.029C616.709 158.917 618.386 159.13 619.977 159.654C623.101 160.707 625.99 162.355 628.485 164.505C633.479 168.78 637.279 174.27 639.516 180.443C640.615 183.509 641.112 186.758 640.979 190.012C640.907 191.681 640.51 193.32 639.809 194.838C639.436 195.597 638.949 196.294 638.363 196.905C637.775 197.518 637.071 198.009 636.291 198.347C634.748 198.976 633.059 199.156 631.418 198.864C629.822 198.595 628.276 198.089 626.83 197.363Z" fill="#0C59AE"/>
<path d="M627.015 171.086C626.599 170.496 625.931 170.101 625.182 170H624.98C624.649 169.995 624.326 170.094 624.063 170.282L623 171.214C623.259 171.02 623.585 170.919 623.917 170.932H624.118C624.441 170.974 624.752 171.073 625.035 171.222C625.4 171.424 625.713 171.699 625.952 172.026L633.937 182L635 181.068L627.015 171.086Z" fill="#0B64C5"/>
<path d="M625 172.065L622.757 171.208L622.828 170.479L622.887 169.758C622.946 169.092 623.176 168.472 623.539 168L622.783 168.926C622.418 169.4 622.188 170.023 622.13 170.693L622.065 171.413L622 172.142L624.237 173L625 172.065Z" fill="#0B64C5"/>
<path d="M626.924 184.03C626.721 184.005 626.519 183.969 626.32 183.921C624.771 183.524 623.414 182.633 622.48 181.398C620.942 179.464 621.058 178.615 621.271 177.059V176.815L624.827 177.715C624.871 177.715 625.129 177.782 625.351 177.85C625.941 177.915 626.471 178.223 626.8 178.69C627.176 179.142 627.388 179.697 627.404 180.271C627.424 180.714 627.247 181.144 626.916 181.457L627.947 180.549C628.278 180.233 628.456 179.8 628.436 179.355C628.42 178.78 628.208 178.225 627.831 177.774C627.503 177.305 626.973 176.998 626.382 176.933L625.849 176.79L618.978 175.108C618.835 175.068 618.69 175.04 618.542 175.024C618.245 174.978 617.941 174.998 617.653 175.083C617.418 175.144 617.203 175.263 617.031 175.428L616 176.336C616.177 176.177 616.39 176.059 616.622 175.991C616.912 175.916 617.214 175.896 617.511 175.932C617.659 175.952 617.804 175.983 617.947 176.025L621.004 176.79L620.222 177.48L620.16 178.001C619.938 179.557 619.822 180.406 621.36 182.331C622.301 183.564 623.659 184.454 625.209 184.854C625.405 184.9 625.604 184.934 625.804 184.955C626.884 185.117 627.985 184.839 628.836 184.19L628.969 184.072L630 183.156C629.957 183.199 629.909 183.239 629.858 183.273C629.032 183.897 627.971 184.17 626.924 184.03Z" fill="#0B64C5"/>
<path d="M624 191.999C623.109 191.852 622.31 191.335 621.78 190.562L614.349 180.093C613.615 179.129 613.154 177.965 613.019 176.735C612.884 175.661 613.132 174.573 613.714 173.682C613.869 173.434 614.051 173.205 614.256 173L613.281 173.97C613.076 174.176 612.891 174.405 612.731 174.652C612.149 175.543 611.901 176.631 612.036 177.705C612.168 178.936 612.629 180.101 613.366 181.063L620.806 191.532C621.33 192.313 622.131 192.835 623.026 192.977C623.751 193.079 624.482 192.832 625.017 192.304L626 191.334C625.461 191.862 624.727 192.106 624 191.999Z" fill="#0B64C5"/>
<path d="M625.087 173.476L624.627 173.333L618.119 171.28C617.769 171.17 617.408 171.092 617.043 171.049C616.385 170.954 615.715 170.997 615.074 171.174C614.126 171.423 613.3 172.017 612.748 172.845C612.152 173.726 611.899 174.804 612.037 175.866C612.175 177.084 612.648 178.237 613.399 179.19L621.009 189.553C621.552 190.318 622.37 190.83 623.282 190.975C624.027 191.082 624.778 190.84 625.33 190.318L625.53 190.122L616.184 177.52C615.889 177.142 615.695 176.691 615.62 176.213C615.554 175.788 615.64 175.352 615.863 174.987C616.059 174.646 616.366 174.387 616.731 174.258C617.012 174.168 617.309 174.147 617.599 174.196C617.743 174.212 617.885 174.242 618.024 174.284L624.732 176.062L625.252 176.213C625.828 176.282 626.346 176.607 626.667 177.102C627.034 177.579 627.241 178.165 627.257 178.773C627.282 179.298 627.059 179.804 626.658 180.133C626.321 180.387 625.899 180.493 625.486 180.426C625.378 180.413 625.271 180.392 625.165 180.364C624.576 180.167 624.063 179.784 623.699 179.27C623.305 178.773 623.161 178.115 623.308 177.493C623.308 177.395 623.308 176.862 623.378 176.657L620.297 175.858L620.237 176.4C620.028 178.044 619.916 178.942 621.417 180.986C622.329 182.291 623.653 183.233 625.165 183.652C625.36 183.703 625.557 183.741 625.755 183.768C626.808 183.937 627.88 183.639 628.706 182.95C629.602 182.128 630.076 180.926 629.99 179.697C629.916 178.3 629.425 176.96 628.584 175.858C627.817 174.576 626.538 173.705 625.087 173.476Z" fill="#D4F7FF"/>
<path d="M634.314 178.419L628.822 170.715C628.277 169.943 627.593 169.289 626.81 168.788C626.145 168.376 625.406 168.11 624.639 168.009H624.379C623.621 167.952 622.867 168.165 622.241 168.613C621.64 169.1 621.253 169.82 621.168 170.609L621.092 171.345L621 172.089L623.884 172.965V172.553L623.934 171.835C623.94 171.503 624.073 171.188 624.303 170.96C624.543 170.767 624.839 170.665 625.142 170.671H625.326C626.011 170.774 626.622 171.179 627.003 171.783L634.314 182L634.448 181.869C635.253 181.133 635.152 179.619 634.314 178.419Z" fill="#D4F7FF"/>
<path d="M809.524 99.0058L809.575 99.0566C810.876 100.51 811.317 102.522 810.993 104.782C810.993 104.782 810.993 104.832 810.993 104.861C810.68 106.708 810.025 108.481 809.061 110.092C808.219 111.545 807.216 112.899 806.071 114.132C805.476 114.771 804.837 115.396 804.153 115.999C803.58 116.5 802.993 116.973 802.398 117.416C801.044 118.415 799.586 119.268 798.048 119.959C796.365 120.741 794.558 121.232 792.707 121.412C790.15 121.6 787.939 120.947 786.521 119.377C786.508 119.355 786.49 119.335 786.469 119.319L782.568 114.96L785.316 112.548C785.725 110.927 786.384 109.379 787.27 107.956C788.143 106.528 789.17 105.198 790.334 103.99C790.848 103.459 791.392 102.936 791.965 102.428C792.636 101.84 793.337 101.287 794.066 100.771C795.44 99.7915 796.918 98.9632 798.474 98.301C799.891 97.6926 801.387 97.2866 802.919 97.095L805.66 94.683L809.524 99.0058Z" fill="#003D97"/>
<path d="M805.623 94.6611L809.576 99.0202C810.876 100.473 811.317 102.486 810.993 104.745L803.544 96.492L805.623 94.6611Z" fill="#05398C"/>
<path d="M784.963 112.824L792.67 121.404C790.114 121.593 787.902 120.939 786.484 119.37C786.471 119.347 786.454 119.328 786.433 119.312L782.531 114.953L784.963 112.824Z" fill="#1D75E0"/>
<path d="M787.219 107.949L798.041 119.973C796.357 120.755 794.551 121.247 792.7 121.426L785 112.846L785.309 112.577C785.718 110.956 786.377 109.408 787.263 107.986L787.219 107.949Z" fill="#1572CD"/>
<path d="M790.282 103.975L802.375 117.43C801.022 118.43 799.564 119.282 798.026 119.973L787.233 107.964C788.106 106.536 789.133 105.205 790.297 103.997L790.282 103.975Z" fill="#0B64C5"/>
<path d="M794.022 100.749L806.056 114.139C805.461 114.778 804.822 115.403 804.139 116.006C803.566 116.508 802.978 116.98 802.383 117.423L790.282 103.982C790.797 103.452 791.34 102.929 791.913 102.42C792.584 101.833 793.286 101.28 794.015 100.764L794.022 100.749Z" fill="#0C59AE"/>
<path d="M798.438 98.2792L809.061 110.092C808.22 111.545 807.217 112.899 806.071 114.132L794.037 100.742C795.411 99.7624 796.889 98.9341 798.445 98.272L798.438 98.2792Z" fill="#104D97"/>
<path d="M803.5 96.5283L810.986 104.861C810.673 106.708 810.018 108.481 809.054 110.092L798.43 98.2792C799.846 97.6708 801.343 97.2647 802.875 97.0732L803.5 96.5283Z" fill="#084694"/>
<ellipse cx="794.105" cy="104.843" rx="15.3821" ry="9.14159" transform="rotate(-41.63 794.105 104.843)" fill="url(#paint20_linear_25_61874)"/>
<path d="M805.674 94.7192C806.236 95.3203 806.659 96.034 806.916 96.8116C807.169 97.5935 807.296 98.41 807.291 99.2309C807.237 100.871 806.868 102.486 806.203 103.99C805.556 105.497 804.719 106.917 803.713 108.218C801.726 110.837 799.227 113.036 796.366 114.684C794.943 115.519 793.42 116.176 791.833 116.638C790.244 117.112 788.578 117.282 786.925 117.14C786.099 117.051 785.292 116.83 784.537 116.486C783.79 116.142 783.124 115.647 782.583 115.033C782.863 115.329 783.176 115.592 783.516 115.817C783.848 116.05 784.205 116.245 784.581 116.399C785.333 116.707 786.129 116.896 786.94 116.958C788.566 117.06 790.196 116.855 791.745 116.355C793.3 115.875 794.792 115.214 796.19 114.386C797.589 113.564 798.903 112.608 800.113 111.531C801.338 110.466 802.455 109.286 803.448 108.007C804.441 106.733 805.279 105.348 805.946 103.881C806.629 102.417 807.025 100.84 807.114 99.2309C807.148 98.4266 807.051 97.6221 806.828 96.8479C806.772 96.6558 806.705 96.4666 806.63 96.2813C806.554 96.0926 806.469 95.9082 806.372 95.7291C806.176 95.3691 805.942 95.0306 805.674 94.7192V94.7192Z" fill="#67C4FB"/>
<path d="M799.143 110.456C796.57 112.833 793.398 114.484 789.959 115.236C786.286 115.905 784.574 114.691 783.869 113.907C783.163 113.122 782.15 111.284 783.252 107.768C785.747 101.146 791.4 96.1797 798.342 94.5086C802.016 93.8402 803.735 95.0535 804.433 95.8381C805.131 96.6227 806.152 98.4536 805.057 101.977C803.885 105.274 801.843 108.201 799.143 110.456Z" fill="url(#paint21_linear_25_61874)"/>
<path d="M789.959 115.236C788.999 115.473 788.009 115.566 787.021 115.512C785.997 115.453 785.011 115.108 784.177 114.517C783.76 114.204 783.41 113.811 783.149 113.362C782.881 112.911 782.687 112.42 782.576 111.909C782.374 110.911 782.374 109.884 782.576 108.886C782.973 106.924 783.757 105.057 784.883 103.394C787.108 100.068 790.172 97.3741 793.772 95.5766C795.562 94.6783 797.51 94.1306 799.51 93.9637C800.538 93.8886 801.571 94.012 802.552 94.327C803.046 94.4945 803.51 94.7398 803.926 95.0535C804.348 95.3662 804.702 95.7589 804.969 96.2087C805.465 97.0954 805.694 98.1036 805.63 99.1147C805.574 100.094 805.366 101.06 805.013 101.977C805.065 101.737 805.123 101.505 805.167 101.251C805.212 100.996 805.263 100.778 805.285 100.524C805.351 100.043 805.376 99.5567 805.358 99.0712C805.345 98.1298 805.07 97.2101 804.565 96.4121C804.033 95.6643 803.253 95.1245 802.361 94.8864C801.454 94.6451 800.51 94.5737 799.576 94.6757C797.676 94.9007 795.834 95.4748 794.147 96.3685C792.44 97.2439 790.853 98.3302 789.423 99.6015C787.974 100.855 786.695 102.288 785.617 103.866C784.52 105.42 783.726 107.161 783.274 109.003C783.063 109.905 783.023 110.839 783.156 111.756C783.294 112.663 783.746 113.495 784.434 114.11C785.177 114.7 786.069 115.077 787.013 115.2C787.499 115.276 787.991 115.308 788.483 115.294C788.725 115.294 788.967 115.294 789.217 115.294L789.959 115.236Z" fill="#0C59AE"/>
<path d="M792.972 100.451L793.06 100.393L793.148 100.342H793.192L793.332 100.277C793.442 100.235 793.559 100.21 793.677 100.204C793.76 100.197 793.843 100.197 793.927 100.204C794.103 100.227 794.265 100.312 794.382 100.444L793.956 99.8703C793.835 99.7378 793.672 99.6506 793.493 99.6232C793.412 99.616 793.331 99.616 793.251 99.6232C793.132 99.6292 793.016 99.6537 792.905 99.6959L792.766 99.7613H792.722L792.648 99.8049L792.56 99.8703H792.523C792.497 99.8926 792.472 99.9169 792.45 99.9429L787.66 104.731L788.086 105.305L792.869 100.51L792.972 100.451Z" fill="#0B64C5"/>
<path d="M792.252 104.702C792.252 104.702 792.252 104.644 792.252 104.614C792.252 104.585 792.252 104.614 792.252 104.564C792.256 104.544 792.256 104.525 792.252 104.505V104.455C792.248 104.44 792.248 104.425 792.252 104.411C792.268 104.359 792.288 104.308 792.31 104.258L792.391 104.12C792.421 104.072 792.456 104.025 792.494 103.982L792.575 103.895L792.67 103.808L792.766 103.735L792.854 103.685H792.92H793.016H793.118H793.383H793.743H793.846L793.89 102.159L793.471 101.592L793.427 103.118H793.317H792.964H792.898H792.795H792.7H792.634L792.545 103.161L792.457 103.227L792.391 103.292L792.31 103.379L792.207 103.517C792.176 103.561 792.149 103.607 792.127 103.655L792.061 103.815C792.065 103.832 792.065 103.849 792.061 103.866C792.065 103.885 792.065 103.905 792.061 103.924C792.061 103.924 792.061 103.961 792.061 103.982C792.061 103.982 792.061 104.004 792.061 103.982C792.061 103.982 792.061 103.982 792.061 104.033C792.057 104.096 792.057 104.159 792.061 104.222C792.061 104.222 792.061 104.222 792.061 104.28C792.061 104.338 792.061 104.36 792.061 104.404V104.469C792.057 104.503 792.057 104.537 792.061 104.571V104.636C792.062 104.656 792.062 104.675 792.061 104.694L792.105 104.753L792.523 105.326C792.496 105.289 792.472 105.251 792.45 105.21V105.145C792.436 105.112 792.423 105.078 792.413 105.043V104.978C792.413 104.934 792.413 104.898 792.413 104.854C792.413 104.811 792.413 104.854 792.413 104.796C792.358 104.768 792.304 104.736 792.252 104.702Z" fill="#0B64C5"/>
<path d="M797.115 103.299L797.637 103.263H797.703C797.935 103.253 798.165 103.303 798.372 103.408C798.517 103.486 798.642 103.595 798.739 103.728L798.32 103.161C798.224 103.027 798.098 102.915 797.953 102.834C797.746 102.731 797.515 102.683 797.284 102.696H797.218H796.696L796.41 102.74L796.829 103.314L797.115 103.299Z" fill="#0B64C5"/>
<path d="M793.397 107.528H793.471L793.684 107.484H793.735L793.993 107.412H794.059L794.257 107.332H794.323L794.573 107.208H794.617L794.749 107.128L794.808 107.085L794.911 107.019L795.058 106.903L795.161 106.823L795.212 106.779L795.366 106.634L795.521 106.474L795.565 106.423L795.646 106.336L795.734 106.22L795.778 106.169C795.82 106.119 795.856 106.066 795.888 106.009C795.919 105.966 795.946 105.92 795.969 105.871L796.013 105.791V105.741C796.014 105.714 796.014 105.687 796.013 105.661C796.016 105.644 796.016 105.627 796.013 105.61V105.566V105.479C796.016 105.46 796.016 105.44 796.013 105.421V105.326V105.138V105.094C796.017 105.036 796.017 104.978 796.013 104.92C796.017 104.852 796.017 104.784 796.013 104.716V104.658C796.013 104.593 796.013 104.527 796.013 104.455C796.021 104.363 796.021 104.27 796.013 104.179V100.771C796.013 100.691 796.013 100.611 796.013 100.539C796.017 100.469 796.017 100.398 796.013 100.328C796 100.26 795.978 100.194 795.947 100.132C795.919 100.067 795.888 100.004 795.851 99.9429L795.785 99.8412L795.366 99.2745L795.433 99.3762C795.469 99.4345 795.501 99.4952 795.528 99.5579C795.528 99.6233 795.58 99.6887 795.594 99.754C795.617 99.8225 795.631 99.8931 795.638 99.9647C795.638 100.045 795.638 100.117 795.638 100.197V103.605C795.646 103.696 795.646 103.789 795.638 103.881C795.638 103.953 795.638 104.019 795.638 104.084V104.142C795.642 104.21 795.642 104.278 795.638 104.346C795.642 104.404 795.642 104.462 795.638 104.52V104.564V104.752C795.638 104.752 795.638 104.752 795.638 104.796V104.891C795.642 104.91 795.642 104.929 795.638 104.949V105.036C795.642 105.06 795.642 105.084 795.638 105.108C795.639 105.125 795.639 105.142 795.638 105.159L795.602 105.239V105.29L795.55 105.385V105.428L795.462 105.566C795.462 105.617 795.388 105.668 795.352 105.719L795.308 105.77L795.22 105.886L795.124 105.988L795.08 106.038L794.926 106.198L794.713 106.387C794.684 106.418 794.652 106.444 794.617 106.467L794.47 106.583C794.433 106.603 794.398 106.628 794.367 106.656L794.169 106.772L793.919 106.896H793.853L793.647 106.983H793.588L793.331 107.063H793.28L793.067 107.106H792.993C792.905 107.106 792.824 107.106 792.736 107.106C792 107.168 791.278 106.876 790.797 106.322L790.708 106.206L791.127 106.779L791.215 106.896C791.701 107.444 792.42 107.735 793.155 107.68L793.397 107.528Z" fill="#0B64C5"/>
<path d="M801.119 104.658C801.116 104.617 801.116 104.576 801.119 104.535V104.433C801.123 104.392 801.123 104.35 801.119 104.309V104.208C801.116 104.167 801.116 104.125 801.119 104.084C801.116 104.053 801.116 104.021 801.119 103.99C801.119 103.946 801.119 103.903 801.119 103.859V103.764C801.11 103.72 801.098 103.676 801.083 103.634V103.554L801.024 103.408V103.336L800.928 103.132L800.502 102.558C800.539 102.624 800.568 102.697 800.598 102.762C800.599 102.786 800.599 102.81 800.598 102.835C800.618 102.882 800.635 102.93 800.649 102.98C800.652 103.009 800.652 103.038 800.649 103.067C800.652 103.111 800.652 103.154 800.649 103.198V103.285C800.649 103.329 800.649 103.372 800.649 103.416C800.649 103.459 800.649 103.481 800.649 103.51V103.634V103.735C800.653 103.777 800.653 103.818 800.649 103.859V103.961C800.646 104.002 800.646 104.043 800.649 104.084C800.649 104.084 800.649 104.15 800.649 104.186V104.338L800.605 104.556V104.629L800.561 104.774V104.84C800.561 104.891 800.561 104.934 800.509 104.978C800.507 105.004 800.507 105.031 800.509 105.058L800.443 105.188L800.399 105.261L800.318 105.399C800.32 105.419 800.32 105.438 800.318 105.457L800.194 105.632L800.039 105.821C799.979 105.892 799.916 105.96 799.848 106.024L794.889 110.884L794.794 110.964L794.742 111.008L794.661 111.066H794.617H794.573L794.426 111.146H794.375L794.191 111.219L794.022 111.262H793.971C793.907 111.266 793.843 111.266 793.78 111.262C793.239 111.29 792.719 111.047 792.398 110.616L792.817 111.182C793.136 111.618 793.656 111.864 794.198 111.836H794.389H794.441H794.61L794.801 111.756H794.845L794.992 111.676H795.043L795.117 111.618L795.168 111.575H795.22L795.264 111.524L800.223 106.671C800.29 106.606 800.354 106.538 800.414 106.467L800.561 106.286C800.602 106.235 800.639 106.182 800.671 106.126L800.708 106.068L800.789 105.93L800.833 105.857C800.829 105.833 800.829 105.808 800.833 105.784C800.829 105.765 800.829 105.745 800.833 105.726C800.83 105.7 800.83 105.673 800.833 105.646L800.884 105.508C800.885 105.484 800.885 105.46 800.884 105.435C800.884 105.399 800.884 105.356 800.884 105.312V105.247C800.884 105.174 800.884 105.101 800.928 105.029C800.972 104.956 800.928 104.985 800.928 104.956C800.932 104.929 800.932 104.903 800.928 104.876C800.928 104.876 801.112 104.687 801.119 104.658Z" fill="#0B64C5"/>
<path d="M787.586 104.68L788.012 105.254L787.594 104.68" fill="#9A7D7C"/>
<path d="M787.652 104.767L788.078 105.341L788.012 105.254L787.586 104.68L787.652 104.767Z" fill="#957978"/>
<path d="M800.186 102.253L800.605 102.827C800.649 102.893 800.7 102.958 800.744 103.031L800.318 102.457C800.282 102.391 800.23 102.319 800.186 102.253Z" fill="#B89695"/>
<path d="M800.318 102.457L800.744 103.031C800.761 103.066 800.781 103.1 800.803 103.132L800.377 102.558C800.36 102.523 800.341 102.489 800.318 102.457Z" fill="#BD9A99"/>
<path d="M792.251 110.761L792.67 111.328L792.56 111.189L792.141 110.616L792.251 110.761Z" fill="#957978"/>
<path d="M794.948 105.951C795.653 105.393 795.994 104.499 795.837 103.619C795.845 103.527 795.845 103.435 795.837 103.343V99.9357C795.844 99.4964 795.678 99.0715 795.374 98.7515C795.071 98.4407 794.663 98.2496 794.228 98.2139C794.074 98.1994 793.919 98.1994 793.765 98.2139C793.439 98.2339 793.119 98.3076 792.817 98.4318C792.345 98.6142 791.918 98.8969 791.568 99.26L787.946 102.893C787.404 103.349 787.258 104.117 787.594 104.738L787.66 104.825L792.45 100.037C792.601 99.8812 792.784 99.7575 792.986 99.6742C793.097 99.632 793.213 99.6075 793.331 99.6015C793.412 99.5942 793.493 99.5942 793.574 99.6015C793.752 99.6288 793.916 99.7161 794.037 99.8485C794.149 99.9879 794.202 100.165 794.184 100.343L794.125 103.677C794.125 103.677 794.125 103.844 794.125 103.975C794.176 104.298 794.06 104.625 793.816 104.847C793.574 105.094 793.252 105.249 792.905 105.283C792.609 105.31 792.317 105.199 792.115 104.982C791.913 104.766 791.825 104.469 791.877 104.179C791.92 103.859 792.07 103.562 792.303 103.336C792.535 103.095 792.865 102.972 793.199 103.002H793.552H793.633L793.677 101.476H793.39C792.588 101.456 791.82 101.798 791.304 102.406C790.771 102.927 790.419 103.6 790.297 104.331C790.18 105.012 790.362 105.709 790.797 106.249C791.278 106.804 792 107.096 792.736 107.034C793.584 106.956 794.371 106.57 794.948 105.951Z" fill="#D4F7FF"/>
<path d="M800.377 102.558C800.089 102.035 799.646 101.611 799.106 101.345C798.597 101.101 798.033 100.991 797.468 101.025H797.343L796.829 101.076L796.329 101.127L796.41 102.755L796.696 102.711H797.218H797.306C797.537 102.698 797.768 102.746 797.975 102.849C798.186 102.968 798.355 103.148 798.46 103.365C798.568 103.591 798.599 103.846 798.548 104.091C798.496 104.349 798.359 104.581 798.158 104.753L792.163 110.616L792.274 110.761C792.594 111.193 793.114 111.436 793.655 111.407C794.08 111.377 794.481 111.2 794.786 110.906L799.745 106.046C800.229 105.586 800.557 104.99 800.686 104.338C800.786 103.728 800.678 103.101 800.377 102.558Z" fill="#D4F7FF"/>
<path d="M751.266 179.78H751.33C752.907 179.215 754.198 178.061 754.926 176.564C755.53 175.375 755.886 174.078 755.971 172.75C756.048 171.611 755.971 170.468 755.74 169.35C755.518 168.27 755.167 167.22 754.695 166.223C754.212 165.193 753.593 164.232 752.856 163.362C752.03 162.334 751.008 161.477 749.849 160.839C748.273 159.956 746.397 159.76 744.67 160.299H744.606L740.837 161.57L740.747 164.176C740.304 165.276 740.054 166.443 740.01 167.627C739.966 168.761 740.069 169.895 740.317 171.002C740.43 171.492 740.569 171.976 740.734 172.451C740.927 173.017 741.158 173.569 741.426 174.104C741.937 175.13 742.583 176.083 743.349 176.939C744.073 177.75 744.921 178.443 745.862 178.992L747.542 181L751.266 179.78Z" fill="#1572CD"/>
<path d="M741 164L750 160.85C748.463 159.955 746.634 159.757 744.95 160.303H744.888L741.213 161.591L741 164Z" fill="#05398C"/>
<path d="M750.925 179.829H750.99C752.58 179.325 753.882 178.296 754.617 176.962L745.617 179.636L747.13 180.962L750.925 179.829Z" fill="#1D75E0"/>
<path d="M740 168L753 163.518C752.16 162.489 751.131 161.634 749.968 161L740.659 164.184L740.75 164.451C740.303 165.58 740.051 166.778 740.006 167.993L740 168Z" fill="#084694"/>
<path d="M740.31 171L755 165.956C754.507 164.892 753.877 163.898 753.126 163L740.01 167.506C739.965 168.677 740.071 169.849 740.323 170.993L740.31 171Z" fill="#104D97"/>
<path d="M742.075 174L756 169.134C755.785 168.052 755.445 167 754.987 166L741 170.892C741.109 171.383 741.244 171.868 741.404 172.344C741.591 172.911 741.815 173.464 742.075 174Z" fill="#0C59AE"/>
<path d="M743.842 177L755.972 172.537C756.046 171.353 755.972 170.163 755.751 169L742 174.051C742.488 175.119 743.108 176.11 743.842 177Z" fill="#0B64C5"/>
<path d="M745.768 179L754.928 175.903C755.548 174.687 755.913 173.359 756 172L743 176.391C743.742 177.222 744.612 177.931 745.578 178.493L745.768 179Z" fill="#1572CD"/>
<ellipse cx="744.426" cy="171.087" rx="8.13174" ry="10.2182" transform="rotate(-18.84 744.426 171.087)" fill="url(#paint22_linear_25_61874)"/>
<path d="M747.728 181C748.303 180.793 748.846 180.508 749.343 180.154C749.841 179.8 750.291 179.384 750.682 178.917C751.46 177.977 752.03 176.886 752.356 175.713C752.689 174.544 752.828 173.33 752.768 172.117C752.649 169.682 751.843 167.33 750.444 165.33C749.744 164.344 748.887 163.478 747.908 162.766C746.933 162.031 745.811 161.513 744.618 161.247C744.023 161.112 743.412 161.056 742.803 161.081C742.191 161.106 741.585 161.209 741 161.388C742.17 160.98 743.428 160.892 744.644 161.132C745.861 161.378 747.011 161.881 748.017 162.606C749.016 163.329 749.886 164.213 750.592 165.221C751.307 166.23 751.875 167.335 752.279 168.502C752.69 169.676 752.928 170.902 752.987 172.143C753.047 173.377 752.895 174.613 752.537 175.796C752.178 176.974 751.577 178.065 750.773 179C749.957 179.927 748.905 180.618 747.728 181Z" fill="#67C4FB"/>
<path d="M751.347 168.729C750.553 166.395 748.939 164.4 746.782 163.086C744.31 161.637 742.334 161.951 741.375 162.264C740.416 162.578 738.649 163.518 737.612 166.095C735.929 170.869 737.804 176.133 742.177 178.911C744.649 180.36 746.625 180.053 747.584 179.733C748.542 179.413 750.31 178.479 751.347 175.908C752.218 173.588 752.218 171.049 751.347 168.729Z" fill="url(#paint23_linear_25_61874)"/>
<path d="M746.65 163.224C745.995 162.863 745.293 162.591 744.563 162.418C743.84 162.259 743.094 162.238 742.363 162.356C741.999 162.42 741.644 162.526 741.304 162.67C740.972 162.813 740.656 162.99 740.363 163.2C739.773 163.623 739.268 164.151 738.874 164.757C738.483 165.367 738.177 166.025 737.964 166.715C737.751 167.402 737.617 168.11 737.565 168.827C737.517 169.55 737.544 170.276 737.646 170.994C737.756 171.723 737.938 172.441 738.188 173.136C738.43 173.821 738.733 174.485 739.092 175.118C739.455 175.727 739.877 176.3 740.35 176.83C740.837 177.37 741.385 177.853 741.983 178.27C742.58 178.686 743.23 179.023 743.915 179.274C744.602 179.516 745.329 179.629 746.058 179.606C746.42 179.597 746.78 179.547 747.13 179.458C747.483 179.365 747.823 179.232 748.146 179.064C748.799 178.719 749.377 178.251 749.847 177.685C750.316 177.108 750.704 176.47 751 175.789C750.758 176.5 750.412 177.173 749.972 177.784C749.519 178.398 748.947 178.917 748.289 179.311C747.952 179.504 747.595 179.661 747.224 179.778C746.85 179.888 746.466 179.958 746.077 179.988C745.297 180.037 744.514 179.939 743.772 179.698C742.297 179.203 740.977 178.34 739.939 177.193C737.857 174.887 736.808 171.847 737.029 168.765C737.139 167.226 737.65 165.742 738.512 164.456C738.951 163.818 739.51 163.268 740.157 162.837C740.483 162.625 740.832 162.449 741.198 162.313C741.562 162.178 741.94 162.085 742.326 162.036C743.091 161.951 743.866 162.016 744.607 162.227C745.334 162.458 746.023 162.794 746.65 163.224Z" fill="#0C59AE"/>
<path d="M740.321 171.164V171.12C740.318 171.093 740.318 171.066 740.321 171.039C740.318 171.01 740.318 170.98 740.321 170.951C740.321 170.951 740.321 170.951 740.321 170.914V170.789C740.305 170.692 740.305 170.593 740.321 170.495C740.338 170.427 740.361 170.36 740.389 170.296C740.448 170.157 740.554 170.044 740.69 169.977L740.127 170.183C739.992 170.248 739.886 170.359 739.826 170.495C739.799 170.56 739.776 170.627 739.758 170.695C739.742 170.795 739.742 170.896 739.758 170.995V171.114C739.757 171.128 739.757 171.143 739.758 171.157V171.226C739.755 171.238 739.755 171.251 739.758 171.264C739.755 171.291 739.755 171.318 739.758 171.345V171.382C739.77 171.411 739.784 171.438 739.801 171.463L742.647 176.416L743.21 176.203L740.377 171.245C740.355 171.22 740.336 171.193 740.321 171.164Z" fill="#0B64C5"/>
<path d="M743.629 172.7H743.567H743.523H743.479H743.442H743.41L743.298 172.612C743.261 172.582 743.228 172.549 743.198 172.513L743.11 172.4L743.054 172.313C743.054 172.275 743.016 172.244 743.004 172.213C742.991 172.183 742.98 172.151 742.973 172.119V172.044C742.97 172.026 742.97 172.007 742.973 171.988C742.969 171.961 742.969 171.934 742.973 171.907C742.973 171.907 742.973 171.851 742.973 171.826C742.973 171.826 742.973 171.782 742.973 171.757V171.657C742.973 171.657 743.01 171.476 743.035 171.37C743.06 171.264 743.035 171.301 743.035 171.276L741.784 170.901L741.221 171.107L742.472 171.488V171.576L742.41 171.869V171.963C742.41 171.963 742.41 172.007 742.41 172.032C742.41 172.063 742.41 172.088 742.41 172.119C742.407 172.146 742.407 172.173 742.41 172.2C742.407 172.221 742.407 172.242 742.41 172.263V172.344C742.406 172.373 742.406 172.402 742.41 172.431L742.447 172.5L742.503 172.587C742.529 172.63 742.558 172.669 742.591 172.706L742.691 172.8L742.804 172.887H742.841H742.885H742.929H742.973L743.129 172.937H743.179H743.279H743.429H743.492H743.629H743.692L744.255 172.725H744.142H744.08H743.93H743.823H743.779C743.729 172.723 743.678 172.714 743.629 172.7Z" fill="#0B64C5"/>
<path d="M743.579 168.46L743.667 168.023C743.664 168.006 743.664 167.989 743.667 167.973C743.705 167.783 743.796 167.608 743.93 167.467C744.027 167.365 744.147 167.288 744.28 167.242L743.717 167.448C743.584 167.494 743.464 167.571 743.367 167.673C743.233 167.816 743.142 167.993 743.104 168.185C743.104 168.185 743.104 168.216 743.104 168.235L743.016 168.666V168.903L743.579 168.697V168.46Z" fill="#0B64C5"/>
<path d="M746.206 172.419C746.206 172.419 746.206 172.375 746.206 172.356C746.206 172.338 746.206 172.232 746.206 172.169V172.132C746.206 172.057 746.206 171.982 746.206 171.907C746.206 171.832 746.206 171.869 746.206 171.851V171.663C746.206 171.663 746.206 171.626 746.206 171.607C746.206 171.588 746.206 171.451 746.162 171.376C746.16 171.364 746.16 171.351 746.162 171.339L746.125 171.207V171.151L746.087 171.051L746.031 170.908L745.981 170.808V170.758L745.893 170.602L745.8 170.439L745.768 170.389L745.712 170.308L745.637 170.208L745.606 170.164C745.568 170.121 745.537 170.077 745.499 170.04L745.412 169.94H745.381L745.324 169.89H745.287L745.23 169.84H745.187H745.155L745.087 169.802H745.049C745.027 169.785 745.001 169.772 744.974 169.765C744.928 169.741 744.88 169.722 744.83 169.709H744.793L744.649 169.665L744.48 169.621H744.436L744.267 169.577L744.036 169.521L741.127 168.522L740.933 168.485H740.752H740.714H740.546H740.377H740.283L739.72 168.691H739.82L739.989 168.653H740.02H740.189H740.227H740.408C740.474 168.66 740.539 168.672 740.602 168.691L743.385 169.465L743.617 169.528L743.786 169.565H743.829L743.998 169.602L744.142 169.646H744.18L744.324 169.702H744.361L744.436 169.74H744.474C744.499 169.751 744.522 169.765 744.542 169.784L744.599 169.815H744.636L744.693 169.858H744.73L744.793 169.921H744.824L744.911 170.021L745.018 170.152L745.049 170.196L745.124 170.296L745.187 170.389C745.195 170.407 745.205 170.424 745.218 170.439L745.312 170.602C745.356 170.677 745.387 170.745 745.424 170.814C745.436 170.848 745.451 170.882 745.468 170.914L745.506 171.245L745.543 171.345L745.6 171.526C745.596 171.54 745.596 171.555 745.6 171.57C745.6 171.645 745.6 171.719 745.643 171.801C745.687 171.882 745.643 171.838 745.643 171.857V172.038C745.643 172.038 745.643 172.075 745.643 172.094C745.643 172.113 745.643 172.244 745.643 172.319V172.363C745.643 172.425 745.643 172.488 745.643 172.55C745.64 172.569 745.64 172.588 745.643 172.606L745.606 172.825C745.486 173.432 745.085 173.947 744.524 174.211L744.411 174.255L744.974 174.049L745.087 173.999C745.647 173.735 746.049 173.22 746.169 172.612C746.187 172.563 746.2 172.494 746.206 172.419Z" fill="#0B64C5"/>
<path d="M745.587 165.531H745.487H745.406H745.306H745.218H745.118H745.03H744.649H744.524H744.455H744.267L743.704 165.737L743.898 165.706H744.467H744.555H744.655H744.743H744.843H744.924L745.024 165.737L745.105 165.774L745.224 165.824L745.393 165.912L745.443 165.943L745.556 166.012L745.606 166.049L745.706 166.124L745.762 166.174L745.85 166.255L745.906 166.305L746 166.405L746.037 166.449C746.08 166.492 746.12 166.538 746.156 166.586L746.275 166.755C746.32 166.819 746.362 166.886 746.4 166.955L749.259 172.075L749.302 172.169V172.225L749.334 172.3C749.334 172.3 749.334 172.3 749.334 172.35C749.334 172.4 749.334 172.35 749.334 172.388L749.371 172.525C749.371 172.525 749.371 172.525 749.371 172.569C749.374 172.625 749.374 172.681 749.371 172.737V172.9C749.369 172.914 749.369 172.929 749.371 172.943C749.375 172.998 749.375 173.052 749.371 173.106C749.274 173.551 748.955 173.916 748.527 174.074L749.09 173.868C749.517 173.708 749.834 173.344 749.934 172.9C749.934 172.844 749.934 172.787 749.934 172.737C749.931 172.723 749.931 172.708 749.934 172.694V172.525V172.356C749.934 172.356 749.934 172.356 749.934 172.319L749.897 172.175V172.138C749.894 172.121 749.894 172.104 749.897 172.088L749.865 172.013C749.865 172.013 749.865 172.013 749.865 171.963V171.913C749.863 171.899 749.863 171.884 749.865 171.869L747.001 166.761C746.963 166.692 746.919 166.63 746.876 166.561L746.763 166.399C746.725 166.361 746.694 166.318 746.657 166.274L746.619 166.23L746.525 166.13L746.469 166.087L746.425 166.037L746.381 165.999L746.325 165.955L746.225 165.88L746.175 165.843L746.081 165.787L746.031 165.749L745.862 165.662H745.812H745.743L745.587 165.531Z" fill="#0B64C5"/>
<path d="M742.578 176.466L743.141 176.26L742.578 176.472" fill="#9A7D7C"/>
<path d="M742.66 176.434L743.223 176.222L743.141 176.26L742.578 176.466L742.66 176.434Z" fill="#957978"/>
<path d="M743.41 165.743L743.973 165.531L744.173 165.468L743.611 165.674L743.41 165.743Z" fill="#B89695"/>
<path d="M743.629 165.674L744.192 165.468H744.286L743.723 165.674H743.629Z" fill="#BD9A99"/>
<path d="M748.589 174.074L749.152 173.868L749.015 173.924L748.452 174.13L748.589 174.074Z" fill="#957978"/>
<path d="M745.262 170.808C744.964 170.111 744.309 169.632 743.554 169.559L743.323 169.496L740.539 168.747C740.181 168.639 739.795 168.675 739.464 168.847C739.144 169.03 738.897 169.316 738.763 169.659C738.709 169.768 738.663 169.88 738.625 169.996C738.578 170.264 738.578 170.539 738.625 170.808C738.668 171.232 738.805 171.642 739.026 172.007L741.152 175.754C741.4 176.303 742.005 176.597 742.591 176.453H742.672L739.826 171.501C739.733 171.344 739.673 171.17 739.651 170.989C739.636 170.89 739.636 170.788 739.651 170.689C739.669 170.621 739.692 170.554 739.72 170.489C739.78 170.353 739.886 170.242 740.02 170.177C740.16 170.117 740.318 170.117 740.458 170.177L743.173 170.976L743.417 171.051C743.686 171.09 743.92 171.258 744.042 171.501C744.187 171.752 744.24 172.046 744.192 172.331C744.151 172.578 743.995 172.791 743.772 172.905C743.549 173.019 743.285 173.022 743.06 172.912C742.795 172.813 742.573 172.622 742.435 172.375C742.287 172.135 742.259 171.84 742.36 171.576L742.422 171.282V171.195L741.171 170.814L741.127 171.058C740.942 171.695 741.052 172.383 741.428 172.931C741.729 173.484 742.204 173.922 742.779 174.18C743.312 174.417 743.921 174.417 744.455 174.18C745.016 173.916 745.417 173.401 745.537 172.794C745.685 172.12 745.587 171.416 745.262 170.808Z" fill="#D4F7FF"/>
<path d="M743.704 165.625C743.221 165.746 742.786 166.01 742.453 166.38C742.143 166.737 741.928 167.167 741.828 167.629V167.735L741.753 168.16L741.684 168.578L743.035 168.878V168.641L743.123 168.21C743.123 168.21 743.123 168.172 743.123 168.16C743.161 167.968 743.252 167.791 743.385 167.648C743.529 167.503 743.715 167.406 743.917 167.373C744.13 167.335 744.349 167.366 744.543 167.461C744.741 167.563 744.902 167.728 744.999 167.929L748.477 174.105L748.614 174.049C749.024 173.892 749.33 173.544 749.434 173.118C749.507 172.767 749.452 172.402 749.277 172.088L746.413 166.986C746.144 166.491 745.729 166.089 745.224 165.837C744.755 165.601 744.221 165.527 743.704 165.625Z" fill="#D4F7FF"/>
<g opacity="0.65">
<path d="M661.659 30.2856H661.624C660.737 29.9658 660.011 29.3058 659.603 28.4487C659.26 27.7659 659.061 27.0189 659.017 26.2546C658.972 25.6018 659.016 24.9459 659.149 24.3054C659.216 23.9702 659.303 23.6396 659.411 23.3155C659.507 23.0399 659.613 22.7746 659.729 22.5144C659.992 21.9265 660.332 21.3773 660.74 20.8815C661.213 20.3079 661.791 19.8315 662.442 19.4783C663.328 18.9736 664.381 18.8628 665.351 19.1722H665.381L667.528 19.8814L667.579 21.3765C667.828 22.0041 667.968 22.6704 667.993 23.3461C668.022 23.9956 667.964 24.6461 667.821 25.28C667.76 25.5617 667.682 25.8394 667.589 26.1117C667.479 26.4343 667.349 26.7495 667.2 27.0557C666.916 27.6418 666.554 28.1859 666.124 28.6732C665.72 29.1384 665.244 29.5347 664.715 29.8468L663.77 31L661.659 30.2856Z" fill="#003D97"/>
<path d="M668 21L663 19.4235C663.858 18.9767 664.879 18.8785 665.818 19.1524H665.847L667.902 19.7984L668 21Z" fill="#05398C"/>
<path d="M662.051 30.1344H662.016C661.131 29.7628 660.407 28.9959 660 28L665 30.0099L664.158 31L662.051 30.1344Z" fill="#1D75E0"/>
<path d="M668 22.9948L661 20.4398C661.458 19.8512 662.018 19.3624 662.648 19L667.643 20.822L667.594 20.9791C667.835 21.623 667.971 22.3067 667.995 23L668 22.9948Z" fill="#084694"/>
<path d="M667.841 24.9954L660 22.4747C660.254 21.9438 660.584 21.4477 660.98 21L667.993 23.2535C668.021 23.84 667.965 24.4275 667.826 25L667.841 24.9954Z" fill="#104D97"/>
<path d="M667.417 26L660 23.567C660.062 23.2737 660.143 22.9844 660.243 22.7009C660.331 22.4598 660.429 22.2277 660.536 22L668 24.442C667.944 24.6884 667.872 24.9314 667.785 25.1696C667.684 25.4519 667.564 25.7277 667.426 25.9955L667.417 26Z" fill="#0C59AE"/>
<path d="M665.968 28L659.017 25.7726C658.972 25.179 659.016 24.5825 659.145 24L667 26.5244C666.722 27.0573 666.368 27.5522 665.948 27.9954L665.968 28Z" fill="#0B64C5"/>
<path d="M664.512 30L659.577 28.2367C659.24 27.5406 659.043 26.7791 659 26L666 28.4967C665.602 28.971 665.133 29.375 664.612 29.6931L664.512 30Z" fill="#1572CD"/>
<ellipse cx="665.879" cy="24.9429" rx="5.75114" ry="4.51437" transform="rotate(-71.16 665.879 24.9429)" fill="url(#paint24_linear_25_61874)"/>
<path d="M664.062 30C663.372 29.7879 662.756 29.4042 662.28 28.8898C661.818 28.3728 661.474 27.7723 661.271 27.1254C661.064 26.4731 660.975 25.7931 661.006 25.1132C661.038 24.4382 661.172 23.7708 661.403 23.1307C661.638 22.4864 661.971 21.8771 662.391 21.3217C662.809 20.7658 663.324 20.2799 663.914 19.8844C664.502 19.4846 665.174 19.2075 665.885 19.0716C666.591 18.9404 667.322 18.9901 668 19.2154C667.315 19.012 666.585 18.9846 665.885 19.1361C665.19 19.2826 664.536 19.5665 663.967 19.9687C663.395 20.3651 662.895 20.8454 662.486 21.3911C661.667 22.4924 661.195 23.7872 661.123 25.1281C661.088 25.7969 661.171 26.4664 661.366 27.1105C661.555 27.7466 661.882 28.3389 662.328 28.8502C662.557 29.1065 662.82 29.3347 663.11 29.5292C663.404 29.7241 663.724 29.8823 664.062 30Z" fill="#67C4FB"/>
<path d="M662.346 23.7565C662.769 22.4594 663.633 21.3506 664.788 20.6218C665.615 20.0047 666.693 19.8345 667.67 20.167C668.647 20.4995 669.397 21.2918 669.674 22.2842C670.573 24.9293 669.569 27.8465 667.231 29.3823C666.403 29.9969 665.325 30.165 664.349 29.8318C663.372 29.4986 662.623 28.7068 662.346 27.715C661.885 26.4356 661.885 25.0359 662.346 23.7565Z" fill="url(#paint25_linear_25_61874)"/>
<path d="M664.486 20.6583C664.844 20.4255 665.237 20.2459 665.651 20.1256C666.075 20.0089 666.519 19.9731 666.957 20.02C667.178 20.045 667.395 20.0966 667.602 20.1736C667.809 20.2484 668.007 20.3449 668.192 20.4615C668.564 20.7006 668.884 21.0071 669.133 21.3637C669.627 22.0797 669.92 22.9063 669.983 23.7631C670.047 24.61 669.931 25.4605 669.643 26.2634C669.36 27.0686 668.909 27.81 668.317 28.4421C667.725 29.0797 666.97 29.5591 666.127 29.8338C665.703 29.9679 665.256 30.0217 664.811 29.9921C664.366 29.9658 663.934 29.8375 663.551 29.6178C663.173 29.3988 662.845 29.1101 662.585 28.7684C662.334 28.4285 662.137 28.055 662 27.6599C662.168 28.0395 662.39 28.3948 662.66 28.7156C662.929 29.0284 663.258 29.2876 663.631 29.4787C663.815 29.5731 664.009 29.6472 664.211 29.6994C664.412 29.7484 664.618 29.7757 664.826 29.781C665.242 29.7936 665.656 29.7301 666.047 29.5938C666.438 29.4553 666.809 29.2699 667.152 29.042C667.493 28.8098 667.805 28.5409 668.082 28.2405C668.359 27.9451 668.604 27.6236 668.813 27.2808C669.016 26.9306 669.183 26.5626 669.313 26.1818C669.449 25.8011 669.548 25.4091 669.608 25.0109C669.665 24.6119 669.681 24.2083 669.653 23.8063C669.625 23.4058 669.55 23.0097 669.428 22.6258C669.309 22.2442 669.141 21.8782 668.928 21.5365C668.702 21.202 668.416 20.9094 668.082 20.6726C667.914 20.5567 667.733 20.4586 667.542 20.3799C667.349 20.3023 667.148 20.2459 666.942 20.212C666.525 20.1456 666.098 20.1586 665.686 20.2503C665.268 20.331 664.864 20.4684 664.486 20.6583Z" fill="#0C59AE"/>
<path d="M667.038 28.655L666.97 28.385L666.961 28.345L667.029 28.615L667.038 28.655Z" fill="#957978"/>
<path d="M667.905 24.9342C667.959 24.8382 667.992 24.7305 667.999 24.6194C668.003 24.5356 667.993 24.4519 667.97 24.3716C667.97 24.3544 667.97 24.3372 667.97 24.32C667.938 24.2379 667.878 24.1714 667.8 24.1342L667.462 24C667.537 24.0403 667.597 24.1058 667.631 24.1858C667.631 24.203 667.631 24.2202 667.631 24.2374C667.654 24.3178 667.664 24.4015 667.661 24.4852C667.653 24.5963 667.621 24.704 667.567 24.8L666 27.8606L666.338 28L667.905 24.9342Z" fill="#0B64C5"/>
<path d="M667.395 24L667.28 23.2687L667.436 23.2145L667.588 23.1558C667.722 23.1066 667.866 23.1066 668 23.1558L667.72 23.0385C667.587 22.9872 667.442 22.9872 667.309 23.0385L667.156 23.0926L667 23.1513L667.115 23.8826L667.395 24Z" fill="#0B64C5"/>
<path d="M665.395 26.3899C665.38 26.3415 665.367 26.2922 665.358 26.2423C665.287 25.84 665.352 25.4243 665.541 25.0664C665.688 24.6642 666.023 24.3689 666.427 24.2841H666.483L666.653 25.2189C666.653 25.2189 666.653 25.2927 666.653 25.3567C666.698 25.4986 666.685 25.654 666.615 25.7847C666.549 25.923 666.441 26.0352 666.309 26.1046C666.208 26.1633 666.087 26.1723 665.979 26.1292L666.3 26.262C666.405 26.3079 666.524 26.3079 666.629 26.262C666.762 26.1908 666.869 26.0769 666.935 25.9373C667.006 25.8067 667.019 25.651 666.973 25.5092C666.973 25.4502 666.949 25.3862 666.949 25.3715L666.629 23.5904C666.632 23.5544 666.632 23.5182 666.629 23.4822C666.621 23.3932 666.59 23.3082 666.54 23.2362C666.498 23.1924 666.448 23.1574 666.394 23.1328L666.073 23C666.128 23.0245 666.177 23.0596 666.219 23.1033C666.265 23.1602 666.3 23.2252 666.323 23.2952C666.326 23.3329 666.326 23.3707 666.323 23.4084L666.464 24.2005L666.219 24.0972L666.092 24.1464C665.691 24.2309 665.358 24.5242 665.212 24.9237C665.022 25.2817 664.957 25.6973 665.028 26.0996C665.038 26.1512 665.05 26.2021 665.066 26.2522C665.148 26.529 665.342 26.754 665.598 26.8672H665.64L665.96 27H665.918C665.667 26.8856 665.476 26.663 665.395 26.3899Z" fill="#0B64C5"/>
<path d="M663.416 26.5955C663.338 26.366 663.368 26.1181 663.498 25.9083L665.211 22.9842C665.36 22.7054 665.596 22.4703 665.891 22.3068C666.148 22.1594 666.457 22.1021 666.759 22.146C666.841 22.1557 666.922 22.1737 667 22.1996L666.627 22.0729C666.55 22.0432 666.469 22.0235 666.385 22.0144C666.084 21.9705 665.775 22.0278 665.518 22.1752C665.224 22.34 664.989 22.5747 664.838 22.8527L663.125 25.7768C662.994 25.9865 662.965 26.2344 663.043 26.4639C663.111 26.6486 663.268 26.7968 663.471 26.8684L663.844 27C663.642 26.9273 663.485 26.7795 663.416 26.5955Z" fill="#0B64C5"/>
<path d="M666.953 25.0346C666.953 25.0346 666.953 24.9847 666.953 24.9098L666.699 23.1229C666.684 23.0279 666.663 22.9345 666.635 22.8433C666.586 22.6747 666.508 22.5186 666.403 22.3841C666.253 22.1845 666.04 22.0529 665.807 22.0148C665.557 21.9698 665.3 22.0285 665.088 22.1795C664.843 22.347 664.647 22.5877 664.524 22.8733L663.104 25.8682C662.995 26.083 662.971 26.3369 663.036 26.572C663.093 26.7604 663.223 26.9118 663.391 26.9862H663.454L665.165 23.3525C665.216 23.238 665.293 23.14 665.388 23.068C665.472 23.0057 665.574 22.9791 665.675 22.9931C665.774 22.9997 665.868 23.0458 665.939 23.1229C665.985 23.1786 666.019 23.2452 666.039 23.3175C666.041 23.3541 666.041 23.3908 666.039 23.4273L666.348 25.2342C666.348 25.2342 666.348 25.3141 666.371 25.374C666.416 25.5178 666.403 25.6758 666.335 25.8083C666.271 25.95 666.167 26.0654 666.039 26.1377C665.929 26.1999 665.798 26.1999 665.688 26.1377C665.6 26.0831 665.533 25.994 665.502 25.8881C665.499 25.8599 665.499 25.8315 665.502 25.8033C665.476 25.6321 665.503 25.4563 665.579 25.3041C665.644 25.1522 665.771 25.0429 665.921 25.0096L666.107 24.9348L665.939 24.1212L665.82 24.1661C665.43 24.2521 665.107 24.5517 664.965 24.9597C664.782 25.3228 664.719 25.7445 664.787 26.1527C664.797 26.2033 664.809 26.2533 664.824 26.3024C664.897 26.5745 665.073 26.7996 665.306 26.9214C665.574 27.043 665.878 27.0227 666.13 26.8665C666.421 26.698 666.659 26.437 666.812 26.1177C666.997 25.7948 667.048 25.4013 666.953 25.0346Z" fill="#D4F7FF"/>
<path d="M667.748 27.5269L668.798 25.1097C668.904 24.8698 668.97 24.6072 668.994 24.3364C669.012 24.1083 668.991 23.8781 668.932 23.6605C668.932 23.6605 668.932 23.6118 668.932 23.5902C668.863 23.3799 668.74 23.203 668.58 23.0873C668.413 22.9884 668.222 22.9729 668.046 23.044L667.881 23.1143L667.712 23.1792L667.837 24.0552L667.921 24.0066L668.081 23.9363C668.151 23.8985 668.23 23.8985 668.3 23.9363C668.369 23.9753 668.423 24.0449 668.451 24.1309C668.452 24.1489 668.452 24.167 668.451 24.185C668.472 24.2691 668.481 24.3569 668.478 24.4446C668.471 24.561 668.442 24.6739 668.393 24.7744L667 27.9866H667.04C667.335 28.0539 667.63 27.8628 667.748 27.5269Z" fill="#D4F7FF"/>
</g>
<path opacity="0.667528" fill-rule="evenodd" clip-rule="evenodd" d="M363.693 85C345.932 85 332.739 71.3835 332.739 54.1669V54C332.739 36.9576 345.676 23 364.212 23C375.6 23 382.412 26.767 388.011 32.247L379.561 41.9223C374.906 37.727 370.162 35.1576 364.125 35.1576C353.95 35.1576 346.619 43.5481 346.619 53.8258V54C346.619 64.2777 353.782 72.8715 364.125 72.8715C371.024 72.8715 375.249 70.1351 379.993 65.8527L388.442 74.2796C382.237 80.8846 375.337 85 363.693 85ZM98.166 44.8328V83.9693H111.388V24.0234H97.077L81.2088 49.3765L65.3406 24.0234H51V83.9693H64.0249V45.0941L80.836 70.4399H81.1795L98.166 44.8328ZM125.853 83.9693H149.396C168.4 83.9693 181.476 70.8682 181.476 54V53.8258C181.476 36.9576 168.4 24.0234 149.396 24.0234H125.853V83.9693ZM167.588 54C167.588 43.3812 160.279 35.9269 149.396 35.9269H139.163V72.1021H149.396C160.265 72.1021 167.588 64.8438 167.588 54.2032V54ZM193.295 24.0234V83.9693H239.255V72.24H206.488V59.6469H234.913V47.9176H206.488V35.76H238.824V24.0234H193.295ZM288.752 83.9693L275.216 63.3922L261.592 83.9693H246.498L267.541 53.4847L247.339 24.0234H262.863L275.537 43.4683L288.299 24.0234H303.393L283.234 53.3105L304.277 83.9693H288.752ZM312.303 70.2657V83.9693H326.278V70.2657H312.303ZM394.655 54.1669C394.655 71.2093 408.023 85 426.647 85C445.278 85 458.815 71.0424 458.807 54V53.8258C458.807 36.7907 445.432 23 426.815 23C408.199 23 394.655 36.9576 394.655 54V54.1669ZM444.92 54C444.92 43.7223 437.326 35.1285 426.647 35.1285C415.968 35.1285 408.542 43.5191 408.542 53.7968V53.971C408.542 64.2487 416.129 72.8424 426.815 72.8424C437.501 72.8424 444.927 64.4519 444.927 54.1742L444.92 54ZM517.778 44.8328V83.9693H531V24.0234H516.681L500.813 49.3765L484.945 24.0234H470.634V83.9693H483.659V45.0941L500.47 70.4399H500.813L517.778 44.8328Z" fill="url(#paint26_linear_25_61874)"/>
<path d="M139.72 103H151.12V79L161.8 95.32H162.04L172.78 78.88V103H184.36V61H172.06L162.04 77.26L152.02 61H139.72V103ZM191.81 103H207.77C222.89 103 231.71 94 231.71 81.88V81.76C231.71 69.64 223.01 61 208.01 61H191.81V103ZM203.45 92.68V71.32H208.19C215.15 71.32 219.77 75.22 219.77 81.94V82.06C219.77 88.84 215.15 92.68 208.19 92.68H203.45ZM237.689 103H271.769V93.1H249.209V86.44H269.369V77.26H249.209V70.9H271.469V61H237.689V103ZM274.648 103H287.728L295.828 90.34L303.868 103H317.248L302.848 81.52L316.648 61H303.568L296.068 72.82L288.628 61H275.248L289.048 81.64L274.648 103Z" fill="white"/>
<path d="M139.72 103H151.12V79L161.8 95.32H162.04L172.78 78.88V103H184.36V61H172.06L162.04 77.26L152.02 61H139.72V103Z" fill="white"/>
<path d="M191.81 103H207.77C222.89 103 231.71 94 231.71 81.88V81.76C231.71 69.64 223.01 61 208.01 61H191.81V103ZM203.45 92.68V71.32H208.19C215.15 71.32 219.77 75.22 219.77 81.94V82.06C219.77 88.84 215.15 92.68 208.19 92.68H203.45Z" fill="white"/>
<path d="M237.689 103H271.769V93.1H249.209V86.44H269.369V77.26H249.209V70.9H271.469V61H237.689V103Z" fill="white"/>
<path d="M274.648 103H287.728L295.828 90.34L303.868 103H317.248L302.848 81.52L316.648 61H303.568L296.068 72.82L288.628 61H275.248L289.048 81.64L274.648 103Z" fill="white"/>
</g>
<defs>
<linearGradient id="paint0_linear_25_61874" x1="846.918" y1="214.381" x2="846.918" y2="2.04389" gradientUnits="userSpaceOnUse">
<stop stop-color="#112458"/>
<stop offset="1" stop-color="#08276B"/>
</linearGradient>
<linearGradient id="paint1_linear_25_61874" x1="736" y1="15" x2="736" y2="68.9975" gradientUnits="userSpaceOnUse">
<stop stop-color="#45E5FF"/>
<stop offset="1" stop-color="#3490FF" stop-opacity="0.01"/>
</linearGradient>
<linearGradient id="paint2_linear_25_61874" x1="611" y1="0" x2="611" y2="53.9975" gradientUnits="userSpaceOnUse">
<stop stop-color="#45E5FF"/>
<stop offset="1" stop-color="#3490FF" stop-opacity="0.01"/>
</linearGradient>
<linearGradient id="paint3_linear_25_61874" x1="572" y1="113" x2="572" y2="166.998" gradientUnits="userSpaceOnUse">
<stop stop-color="#45E5FF"/>
<stop offset="1" stop-color="#3490FF" stop-opacity="0.01"/>
</linearGradient>
<linearGradient id="paint4_linear_25_61874" x1="776" y1="78" x2="776" y2="128.998" gradientUnits="userSpaceOnUse">
<stop stop-color="#45E5FF"/>
<stop offset="1" stop-color="#3490FF" stop-opacity="0.01"/>
</linearGradient>
<linearGradient id="paint5_linear_25_61874" x1="757" y1="142" x2="757" y2="192.998" gradientUnits="userSpaceOnUse">
<stop stop-color="#45E5FF"/>
<stop offset="1" stop-color="#3490FF" stop-opacity="0.01"/>
</linearGradient>
<linearGradient id="paint6_linear_25_61874" x1="907" y1="256" x2="907" y2="127" gradientUnits="userSpaceOnUse">
<stop stop-color="#2363E8"/>
<stop offset="0.01" stop-color="#1F6ABB"/>
<stop offset="1" stop-color="#45E5FF" stop-opacity="0.01"/>
</linearGradient>
<linearGradient id="paint7_linear_25_61874" x1="726.012" y1="53.3695" x2="773.443" y2="53.3695" gradientUnits="userSpaceOnUse">
<stop stop-color="#126DD9"/>
<stop offset="0.337346" stop-color="#187AD9"/>
<stop offset="0.655514" stop-color="#1574DD"/>
<stop offset="1" stop-color="#2CA1F9"/>
</linearGradient>
<linearGradient id="paint8_linear_25_61874" x1="640.438" y1="176.164" x2="686" y2="176.164" gradientUnits="userSpaceOnUse">
<stop stop-color="#114492"/>
<stop offset="0.472135" stop-color="#34A4F8"/>
<stop offset="0.738993" stop-color="#1C72DA"/>
<stop offset="1" stop-color="#236AC4"/>
</linearGradient>
<linearGradient id="paint9_linear_25_61874" x1="652" y1="182.999" x2="748" y2="182.999" gradientUnits="userSpaceOnUse">
<stop stop-color="#4AC4E8"/>
<stop offset="0.63" stop-color="#4197E6"/>
<stop offset="1" stop-color="#3C81E5"/>
</linearGradient>
<linearGradient id="paint10_linear_25_61874" x1="714.003" y1="54.001" x2="748.003" y2="54.001" gradientUnits="userSpaceOnUse">
<stop stop-color="#4AE2FA"/>
<stop offset="0.15" stop-color="#48D3F7"/>
<stop offset="0.72" stop-color="#3F9BEA"/>
<stop offset="1" stop-color="#3C85E5"/>
</linearGradient>
<linearGradient id="paint11_linear_25_61874" x1="652" y1="181.994" x2="701" y2="181.994" gradientUnits="userSpaceOnUse">
<stop stop-color="#4AE2FA"/>
<stop offset="0.15" stop-color="#48D3F7"/>
<stop offset="0.72" stop-color="#3F9BEA"/>
<stop offset="1" stop-color="#3C85E5"/>
</linearGradient>
<linearGradient id="paint12_linear_25_61874" x1="672.871" y1="164.61" x2="742" y2="164.61" gradientUnits="userSpaceOnUse">
<stop stop-color="#154E9C"/>
<stop offset="0.252493" stop-color="#1856A5"/>
<stop offset="0.64" stop-color="#235FC4"/>
<stop offset="1" stop-color="#236AC4"/>
</linearGradient>
<linearGradient id="paint13_linear_25_61874" x1="661.989" y1="173.002" x2="741.992" y2="173.002" gradientUnits="userSpaceOnUse">
<stop stop-color="#4B8AEF"/>
<stop offset="0.3" stop-color="#4A9EEE"/>
<stop offset="0.51" stop-color="#4AA8ED"/>
<stop offset="0.71" stop-color="#4A9EEC"/>
<stop offset="1" stop-color="#4A87E8"/>
</linearGradient>
<linearGradient id="paint14_linear_25_61874" x1="660.989" y1="173.002" x2="740.992" y2="173.002" gradientUnits="userSpaceOnUse">
<stop stop-color="#4BE6EF"/>
<stop offset="0.54255" stop-color="#4AD5EA"/>
<stop offset="1" stop-color="#4ACBE8"/>
</linearGradient>
<linearGradient id="paint15_linear_25_61874" x1="636.484" y1="123.125" x2="719.898" y2="171.526" gradientUnits="userSpaceOnUse">
<stop stop-color="#2A9EF7"/>
<stop offset="1" stop-color="#126DD9"/>
</linearGradient>
<linearGradient id="paint16_linear_25_61874" x1="669.714" y1="165.439" x2="734.28" y2="165.439" gradientUnits="userSpaceOnUse">
<stop stop-color="#4BD6EF"/>
<stop offset="0.51" stop-color="#4AB4ED"/>
<stop offset="0.68" stop-color="#40ABEC"/>
<stop offset="0.97" stop-color="#2694E8"/>
<stop offset="1" stop-color="#2392E8"/>
</linearGradient>
<linearGradient id="paint17_linear_25_61874" x1="700.023" y1="26.6426" x2="611.007" y2="26.6748" gradientUnits="userSpaceOnUse">
<stop stop-color="#084694"/>
<stop offset="0.550034" stop-color="#006FE3"/>
<stop offset="0.826283" stop-color="#32A0F5"/>
<stop offset="1" stop-color="#319CF3"/>
</linearGradient>
<linearGradient id="paint18_linear_25_61874" x1="601.47" y1="194.781" x2="636.651" y2="203.381" gradientUnits="userSpaceOnUse">
<stop stop-color="#4ABAFD"/>
<stop offset="1" stop-color="#116DDA"/>
</linearGradient>
<linearGradient id="paint19_linear_25_61874" x1="650.768" y1="160.714" x2="616.536" y2="154.657" gradientUnits="userSpaceOnUse">
<stop stop-color="#0A5ED0"/>
<stop offset="1" stop-color="#2CA2F9"/>
</linearGradient>
<linearGradient id="paint20_linear_25_61874" x1="778.437" y1="102.555" x2="782.931" y2="117.5" gradientUnits="userSpaceOnUse">
<stop stop-color="#116DDA"/>
<stop offset="1" stop-color="#4ABAFD"/>
</linearGradient>
<linearGradient id="paint21_linear_25_61874" x1="781.644" y1="115.239" x2="803.272" y2="114.585" gradientUnits="userSpaceOnUse">
<stop stop-color="#0A5ED0"/>
<stop offset="1" stop-color="#2CA2F9"/>
</linearGradient>
<linearGradient id="paint22_linear_25_61874" x1="736.297" y1="160.875" x2="736.297" y2="181.305" gradientUnits="userSpaceOnUse">
<stop stop-color="#4ABAFD"/>
<stop offset="1" stop-color="#116DDA"/>
</linearGradient>
<linearGradient id="paint23_linear_25_61874" x1="735.772" y1="166.773" x2="742.739" y2="180.74" gradientUnits="userSpaceOnUse">
<stop stop-color="#2CA2F9"/>
<stop offset="1" stop-color="#0A5ED0"/>
</linearGradient>
<linearGradient id="paint24_linear_25_61874" x1="671.626" y1="20.4255" x2="660.128" y2="20.4255" gradientUnits="userSpaceOnUse">
<stop stop-color="#4ABAFD"/>
<stop offset="1" stop-color="#116DDA"/>
</linearGradient>
<linearGradient id="paint25_linear_25_61874" x1="664.059" y1="19.2441" x2="660.093" y2="26.8435" gradientUnits="userSpaceOnUse">
<stop stop-color="#2CA2F9"/>
<stop offset="1" stop-color="#0A5ED0"/>
</linearGradient>
<linearGradient id="paint26_linear_25_61874" x1="529.727" y1="84.672" x2="529.727" y2="23" gradientUnits="userSpaceOnUse">
<stop stop-color="#082566"/>
<stop offset="1" stop-color="#0A3799"/>
</linearGradient>
<clipPath id="clip0_25_61874">
<rect width="860" height="219" fill="white"/>
</clipPath>
</defs>
</svg>
