<svg width="860" height="219" viewBox="0 0 860 219" fill="none" xmlns="http://www.w3.org/2000/svg">
<g clip-path="url(#clip0_137_46767)">
<rect width="860" height="219" rx="40" fill="url(#paint0_linear_137_46767)"/>
<path opacity="0.04" d="M738.66 15H738.65C737.209 15 736.04 16.1685 736.04 17.61V66.39C736.04 67.8315 737.209 69 738.65 69H738.66C740.101 69 741.27 67.8315 741.27 66.39V17.61C741.27 16.1685 740.101 15 738.66 15Z" fill="url(#paint1_linear_137_46767)"/>
<path opacity="0.08" d="M613.66 0H613.65C612.209 0 611.04 1.16854 611.04 2.61V51.39C611.04 52.8315 612.209 54 613.65 54H613.66C615.102 54 616.27 52.8315 616.27 51.39V2.61C616.27 1.16854 615.102 0 613.66 0Z" fill="url(#paint2_linear_137_46767)"/>
<path opacity="0.15" d="M574.66 113H574.65C573.209 113 572.04 114.169 572.04 115.61V164.39C572.04 165.831 573.209 167 574.65 167H574.66C576.102 167 577.27 165.831 577.27 164.39V115.61C577.27 114.169 576.102 113 574.66 113Z" fill="url(#paint3_linear_137_46767)"/>
<path opacity="0.08" d="M778.51 78C778.834 78 779.156 78.0639 779.455 78.188C779.755 78.3122 780.027 78.4941 780.257 78.7235C780.486 78.9528 780.668 79.2251 780.792 79.5248C780.916 79.8245 780.98 80.1457 780.98 80.47V126.53C780.98 126.854 780.916 127.176 780.792 127.475C780.668 127.775 780.486 128.047 780.257 128.277C780.027 128.506 779.755 128.688 779.455 128.812C779.156 128.936 778.834 129 778.51 129C778.185 129.001 777.864 128.938 777.563 128.815C777.263 128.691 776.99 128.509 776.761 128.28C776.531 128.05 776.349 127.777 776.225 127.477C776.102 127.177 776.039 126.855 776.04 126.53V80.47C776.039 80.1453 776.102 79.8235 776.225 79.5232C776.349 79.223 776.531 78.9501 776.761 78.7205C776.99 78.4909 777.263 78.309 777.563 78.1853C777.864 78.0617 778.185 77.9987 778.51 78Z" fill="url(#paint4_linear_137_46767)"/>
<path opacity="0.27" d="M759.51 142C760.165 142 760.793 142.26 761.257 142.723C761.72 143.187 761.98 143.815 761.98 144.47V190.53C761.98 191.185 761.72 191.813 761.257 192.277C760.793 192.74 760.165 193 759.51 193C759.185 193.001 758.864 192.938 758.563 192.815C758.263 192.691 757.99 192.509 757.761 192.28C757.531 192.05 757.349 191.777 757.225 191.477C757.102 191.177 757.039 190.855 757.04 190.53V144.47C757.039 144.145 757.102 143.824 757.225 143.523C757.349 143.223 757.531 142.95 757.761 142.721C757.99 142.491 758.263 142.309 758.563 142.185C758.864 142.062 759.185 141.999 759.51 142Z" fill="url(#paint5_linear_137_46767)"/>
<path opacity="0.4" fill-rule="evenodd" clip-rule="evenodd" d="M697.04 256C641.04 256 588.34 249.33 548.71 237.21C529.42 231.32 514.27 224.43 503.71 216.77C492.64 208.79 487.04 200.29 487.04 191.5C487.04 182.71 492.64 174.21 503.68 166.23C514.27 158.57 529.42 151.69 548.68 145.79C588.34 133.67 641.04 127 697.04 127C753.04 127 805.74 133.67 845.36 145.79C864.65 151.68 879.81 158.57 890.36 166.23C901.36 174.23 907 182.71 907 191.5C907 200.29 901.4 208.79 890.36 216.77C879.77 224.43 864.62 231.31 845.36 237.21C805.74 249.33 753.04 256 697.04 256ZM697.04 127.8C581.69 127.8 487.84 156.38 487.84 191.5C487.84 226.62 581.69 255.2 697.04 255.2C812.39 255.2 906.24 226.62 906.24 191.5C906.24 156.38 812.39 127.8 697.04 127.8ZM561.19 234.05C597.68 245 645.78 251 696.86 251H698.68C740.99 250.88 781.08 246.68 814.61 238.85C830.75 235.07 844.81 230.57 856.39 225.47C868.15 220.29 877.09 214.61 882.95 208.58C888.48 202.89 891.2 196.96 891.03 190.94C890.59 174.94 869.94 160.06 832.89 148.94C796.41 138 748.3 132 697.22 132H695.41C653.09 132.12 613 136.32 579.47 144.15C563.33 147.93 549.27 152.43 537.69 157.53C525.93 162.71 516.99 168.39 511.13 174.42C505.6 180.11 502.88 186 503.04 192.06C503.49 208 524.14 222.94 561.19 234.05ZM695.41 132.8H697.21C802.92 132.8 889.34 158.8 890.21 190.97C890.37 196.76 887.72 202.49 882.36 208.02C870.86 219.84 846.73 230.51 814.36 238.02C780.9 245.84 740.86 250.02 698.6 250.16H696.79C591.09 250.16 504.66 224.16 503.79 191.99C503.63 186.2 506.28 180.46 511.65 174.93C523.13 163.11 547.27 152.45 579.65 144.93C613.12 137.11 653.15 132.92 695.41 132.8ZM696.68 246C650.55 246 607 240.61 573.68 230.75C539.35 220.6 519.96 206.88 519.04 192.11C518.74 186.54 521.04 181 526.04 175.75C531.24 170.16 539.28 164.88 549.91 160.06C560.38 155.31 573.14 151.12 587.84 147.58C618.37 140.25 655.01 136.25 693.84 136.01C741.32 135.72 786.29 141.13 820.48 151.24C854.67 161.35 874.2 175.12 875.09 189.89C875.42 195.46 873.09 200.97 868.17 206.25C862.97 211.84 854.93 217.12 844.3 221.94C833.84 226.69 821.07 230.88 806.37 234.41C775.84 241.75 739.2 245.76 700.37 245.99L696.68 246ZM697.4 136.81H693.77C655.04 137.05 618.45 141 588.04 148.36C558.62 155.43 536.81 165.36 526.61 176.29C521.85 181.41 519.61 186.71 519.91 192.05C520.34 199.29 525.41 206.31 534.91 212.91C544.21 219.33 557.33 225.07 573.91 229.97C607.16 239.8 650.63 245.18 696.68 245.18H700.32C739.04 244.94 775.62 241 806.04 233.63C835.45 226.56 857.27 216.63 867.46 205.7C872.23 200.58 874.46 195.28 874.16 189.94C873.73 182.7 868.67 175.68 859.11 169.08C849.81 162.66 836.7 156.92 820.11 152.02C786.93 142.19 743.45 136.81 697.4 136.81ZM586.19 226.73C616.33 235.32 655.32 240 696.5 240C698.31 240 700.14 240 701.95 240C737.23 239.65 770.41 235.92 797.95 229.23C809.645 226.518 821.059 222.711 832.04 217.86C841.55 213.49 848.68 208.71 853.24 203.66C857.57 198.87 859.51 193.88 859 188.85C857.67 175.56 839.53 163.29 807.93 154.28C776.33 145.27 735.3 140.6 692.12 141C656.84 141.34 623.66 145.07 596.12 151.77C584.428 154.485 573.018 158.296 562.04 163.15C552.53 167.52 545.4 172.29 540.84 177.34C536.51 182.13 534.58 187.12 535.08 192.15C536.45 205.44 554.59 217.72 586.19 226.73ZM550.34 210.73C541.42 204.84 536.56 198.55 535.91 192.05C535.43 187.24 537.3 182.46 541.47 177.86C550.37 167.99 569.85 159 596.35 152.55C623.8 145.87 656.91 142.14 692.13 141.8C735.24 141.37 776.27 146.06 807.67 155.01C822.91 159.35 835.05 164.47 843.73 170.21C852.65 176.09 857.51 182.39 858.16 188.89C858.64 193.69 856.77 198.47 852.6 203.09C843.7 212.95 824.21 221.93 797.72 228.38C770.28 235.07 737.16 238.78 701.94 239.14C658.84 239.57 617.81 234.87 586.41 225.92C571.16 221.61 559.04 216.5 550.34 210.76V210.73ZM696.34 234C660.09 234 625.67 230 598.72 222.55C569.85 214.55 552.97 203.63 551.19 191.71C550.52 187.15 552.07 182.63 555.83 178.26C563.67 169.14 580.54 161.14 604.59 155.12C629.06 149.01 658.77 145.52 690.49 145.05C729.37 144.48 766.62 148.53 795.36 156.45C824.1 164.37 841.11 175.36 842.89 187.29C843.56 191.85 842.01 196.37 838.26 200.73C830.43 209.85 813.56 217.85 789.5 223.87C765.03 229.98 735.33 233.47 703.6 233.94C701.18 234 698.75 234 696.34 234ZM697.74 145.8C695.33 145.8 692.92 145.8 690.49 145.8C658.83 146.27 629.19 149.74 604.78 155.85C581.22 161.74 564.05 169.85 556.44 178.73C552.85 182.91 551.36 187.22 552 191.54C552.87 197.37 557.51 202.99 565.8 208.24C573.88 213.35 585.02 217.89 598.94 221.73C625.83 229.14 660.17 233.16 696.34 233.16C698.76 233.16 701.17 233.16 703.59 233.11C735.26 232.64 764.9 229.16 789.31 223.11C812.87 217.22 830.04 209.11 837.65 200.23C841.24 196.05 842.73 191.74 842.09 187.42C841.22 181.59 836.58 175.97 828.28 170.72C820.21 165.6 809.06 161.06 795.14 157.23C768.26 149.81 733.91 145.8 697.74 145.8ZM611.11 219.24C634.75 225.59 664.49 229 695.69 229C698.69 229 701.69 229 704.69 228.91C732.74 228.32 758.84 225.04 780.19 219.44C801.19 213.93 815.74 206.67 822.27 198.44C825.44 194.44 826.6 190.34 825.75 186.19C823.54 175.48 807.98 165.74 781.95 158.74C755.92 151.74 722.8 148.35 688.35 149.07C660.35 149.66 634.21 152.94 612.85 158.54C591.85 164.05 577.3 171.31 570.77 179.54C567.61 183.54 566.44 187.65 567.29 191.79C569.52 202.5 585.04 212.25 611.11 219.24ZM581.21 206.53C573.59 201.86 569.21 196.85 568.1 191.63C567.3 187.73 568.42 183.83 571.43 180.04C577.76 172.04 592.55 164.73 613.08 159.34C634.37 153.75 660.41 150.49 688.39 149.9C722.78 149.18 755.94 152.6 781.78 159.54C794.32 162.91 804.45 166.91 811.88 171.47C819.5 176.14 823.88 181.15 824.99 186.37C825.8 190.27 824.68 194.17 821.67 197.96C815.34 205.96 800.55 213.27 780.02 218.66C758.73 224.25 732.69 227.51 704.71 228.1C670.33 228.82 637.18 225.39 611.32 218.46C598.76 215.09 588.64 211.09 581.21 206.53ZM695.55 224C669.26 224 644.09 221.23 623.7 216C600.43 210.06 586.14 201.66 583.49 192.31C582.49 188.62 583.24 184.94 585.86 181.36C591.13 174.17 603.44 167.76 621.43 162.84C639.72 157.84 662.3 154.84 686.74 154.11C716.87 153.25 746.22 156.02 769.38 161.93C792.54 167.84 806.93 176.26 809.59 185.61C810.64 189.3 809.86 192.98 807.22 196.56C801.94 203.75 789.64 210.16 771.65 215.08C753.35 220.08 730.77 223.08 706.34 223.8C702.733 223.933 699.137 224 695.55 224ZM584.25 192.14C589.6 210.96 644.36 224.82 706.31 223.04C730.68 222.34 753.2 219.34 771.43 214.35C789 209.54 801.48 203.07 806.58 196.13C809.04 192.77 809.79 189.32 808.82 185.88C803.47 167.06 748.71 153.19 686.76 154.97C662.4 155.67 639.88 158.68 621.65 163.67C604.04 168.48 591.6 175 586.5 181.89C584.04 185.25 583.28 188.69 584.25 192.14ZM636.33 212.8C653.42 216.86 674.03 219 695.42 219C699.58 219 703.77 218.92 707.96 218.76C749.88 217.13 783.69 207.5 792.07 194.76C793.079 193.38 793.724 191.767 793.944 190.072C794.164 188.376 793.953 186.652 793.33 185.06C790.24 177.06 777.25 170.06 756.75 165.16C736.25 160.26 710.91 158.16 685.12 159.16C643.2 160.8 609.39 170.43 601.01 183.16C600.002 184.541 599.358 186.153 599.137 187.849C598.917 189.544 599.128 191.268 599.75 192.86C602.85 200.88 615.84 207.94 636.33 212.8ZM707.93 217.96C654.93 220.03 606.73 208.65 600.5 192.61C599.919 191.133 599.723 189.532 599.929 187.958C600.135 186.384 600.738 184.888 601.68 183.61C605.58 177.7 615.76 172.13 630.35 167.93C645.5 163.55 664.46 160.81 685.15 160.01C738.15 157.95 786.36 169.32 792.59 185.36C793.165 186.839 793.357 188.439 793.149 190.013C792.941 191.586 792.34 193.081 791.4 194.36C787.5 200.26 777.32 205.83 762.74 210.04C747.58 214.41 728.63 217.16 707.93 218V217.96ZM695.81 213.96C680.174 214.066 664.569 212.538 649.25 209.4C631.45 205.52 619.7 199.7 616.16 192.99C615.404 191.658 615.018 190.149 615.041 188.617C615.064 187.086 615.495 185.589 616.29 184.28C622.29 173.62 649.5 165.2 683.96 163.34C705.5 162.19 727.12 163.67 744.83 167.52C762.54 171.37 774.38 177.23 777.93 183.93C778.682 185.263 779.066 186.773 779.041 188.304C779.017 189.835 778.585 191.331 777.79 192.64C771.79 203.31 744.58 211.72 710.13 213.58C705.35 213.87 700.55 214 695.81 214V213.96ZM616.87 192.61C624 206.11 665.82 215.16 710.08 212.77C744.27 210.93 771.21 202.68 777.08 192.24C777.805 191.049 778.199 189.687 778.222 188.293C778.245 186.899 777.895 185.524 777.21 184.31C770.07 170.81 728.21 161.76 683.99 164.15C649.8 165.99 622.87 174.24 616.99 184.68C616.255 185.875 615.856 187.246 615.835 188.649C615.814 190.051 616.172 191.433 616.87 192.65V192.61ZM661.3 205C672.516 207.052 683.898 208.057 695.3 208C700.64 208 705.99 207.8 711.3 207.4C724.66 206.4 736.56 204.13 745.71 200.93C754.86 197.73 760.52 193.87 762.4 189.67C762.983 188.396 763.192 186.983 763.003 185.595C762.813 184.207 762.233 182.901 761.33 181.83C757.33 176.4 746.86 171.83 731.82 168.98C715.323 166.055 698.519 165.258 681.82 166.61C668.47 167.61 656.57 169.87 647.41 173.08C638.25 176.29 632.62 180.08 630.73 184.33C630.149 185.604 629.942 187.017 630.131 188.405C630.32 189.792 630.899 191.098 631.8 192.17C635.78 197.59 646.26 202.15 661.3 205ZM711.2 206.57C675.79 209.28 640.46 202.57 632.44 191.68C631.632 190.725 631.109 189.562 630.933 188.324C630.756 187.086 630.932 185.823 631.44 184.68C635.17 176.38 655.44 169.45 681.87 167.43C717.29 164.71 752.62 171.43 760.64 182.32C761.452 183.272 761.978 184.436 762.155 185.675C762.332 186.914 762.153 188.178 761.64 189.32C757.91 197.62 737.64 204.55 711.2 206.58V206.57ZM695.38 203C674.38 203 654.99 199 647.87 192.65C645.43 190.46 644.54 188.07 645.31 185.72C646.31 182.65 650.06 179.72 656.16 177.32C662.26 174.92 670.62 173 680.16 171.95C706.95 168.95 736.16 173.2 745.23 181.35C747.67 183.54 748.56 185.93 747.79 188.28C746.79 191.35 743.04 194.28 736.94 196.68C730.84 199.08 722.47 201 712.94 202.05C707.109 202.692 701.246 203.009 695.38 203ZM697.79 171.79C691.921 171.783 686.055 172.097 680.22 172.73C661.41 174.81 648.04 180 646.04 186C645.37 188.06 646.15 190.11 648.38 192.1C657.32 200.1 686.23 204.24 712.81 201.3C731.66 199.17 745.04 194 747.04 188C747.71 185.94 746.92 183.89 744.7 181.9C737.68 175.68 718.52 171.79 697.79 171.79ZM663.95 193.35C670.56 196.98 682.71 199 695.36 199C701.837 199.019 708.303 198.461 714.68 197.33C726.09 195.22 733.32 191.45 733.99 187.24C734.25 185.6 733.63 183.12 729.13 180.65C719.13 175.14 696.34 173.35 678.4 176.65C666.98 178.76 659.76 182.53 659.09 186.74C658.83 188.4 659.45 190.87 663.95 193.35ZM678.54 177.46C684.891 176.333 691.33 175.777 697.78 175.8C710.27 175.8 722.25 177.8 728.78 181.36C732.01 183.14 733.54 185.13 733.23 187.11C732.62 190.91 725.46 194.52 714.56 196.53C696.78 199.82 674.26 198.08 664.37 192.64C661.14 190.86 659.6 188.87 659.92 186.89C660.49 183.09 667.64 179.48 678.54 177.46ZM695.54 195C690.491 195.054 685.455 194.496 680.54 193.34C674.62 191.84 671.27 189.6 671.09 187.01C670.98 185.51 671.93 183.28 677.09 181.23C685.95 177.64 701.9 176.94 712.67 179.66C718.59 181.15 721.93 183.4 722.12 185.99C722.22 187.49 721.28 189.72 716.12 191.77C710.96 193.82 703.18 195 695.54 195ZM697.54 178.79C690.02 178.79 682.44 179.89 677.32 181.97C673.68 183.44 671.74 185.21 671.86 186.97C672.01 189.11 675.3 191.21 680.72 192.58C691.34 195.27 707.08 194.58 715.8 191.04C719.44 189.57 721.38 187.8 721.26 186.04C721.11 183.9 717.8 181.8 712.4 180.43C707.523 179.291 702.528 178.74 697.52 178.79H697.54ZM696.54 191C687.85 191 681.04 188.8 681.04 186C681.04 183.2 687.85 181 696.54 181C705.23 181 712.04 183.2 712.04 186C712.04 188.8 705.23 191 696.54 191ZM696.54 181.76C687.76 181.76 681.86 183.95 681.86 186C681.86 188.05 687.76 190.24 696.54 190.24C705.32 190.24 711.22 188.05 711.22 186C711.22 183.95 705.32 181.76 696.54 181.76Z" fill="url(#paint6_linear_137_46767)"/>
<path d="M733.47 54H733.79H734.99H735.32L736.79 53.94H737.1L738.38 53.86H738.76L740.32 53.74H740.59L741.98 53.62H742.4L744.07 53.45H744.24L745.81 53.26L746.26 53.2L748.04 52.96L735.31 45.89L733.53 46.13L733.04 46L731.47 46.19H731.3L729.63 46.37H729.21L727.81 46.49H727.55L725.98 46.61H725.6L724.33 46.69H724.02L722.54 46.75H722.21C721.81 46.75 721.41 46.75 721.02 46.75H717.56C717.12 46.75 716.69 46.75 716.26 46.75H716.06H714.96H714.64L713.41 46.67H713.31L712.21 46.58H711.9L710.76 46.46L709.65 46.33H709.36L708.36 46.19H708.24L707.24 46.03L707.04 46L706.18 45.85H706.02L705.07 45.66H704.84L704.08 45.48H703.89L703.04 45.26L702.44 45L702.06 44.89C701.83 44.83 701.6 44.75 701.37 44.68L701.11 44.61L700.2 44.32L700.04 44.2C699.8 44.12 699.57 44.04 699.35 43.95L699.04 43.83L698.51 43.63L698.19 43.5L697.72 43.3L697.39 43.15L696.94 43L696.62 42.85L696.22 42.65L695.82 42.45L695.63 42.35L695.04 42L707.77 49C707.96 49.11 708.15 49.22 708.35 49.32L708.54 49.42L708.83 49.57H708.95L709.34 49.76L709.67 49.92L710.09 50.11L710.42 50.26L710.89 50.45L711.22 50.59L711.75 50.79L712.05 50.91L712.73 51.15L712.92 51.22L713.83 51.51L714.1 51.59L714.79 51.8L715.16 51.9L715.78 52.07H715.86L716.64 52.26H716.82L717.59 52.44H717.81L718.81 52.64H718.97L719.82 52.8H720.08L721.08 52.97H721.19L722.19 53.11H722.48L723.59 53.24C723.96 53.24 724.34 53.32 724.73 53.36H725.04C725.4 53.36 725.76 53.43 726.13 53.45H726.24L727.46 53.53H727.78H728.88H729.08H730.39H732.14C732.572 53.7162 733.017 53.8733 733.47 54Z" fill="url(#paint7_linear_137_46767)"/>
<path d="M676.48 172.48C652.22 158.05 651.78 141.14 651.75 140.24L651.88 66L639.18 59L639.04 133.25C639.04 134.14 639.5 151.08 663.77 165.5C667.55 167.74 670.7 169.55 673.34 171.01L686.04 178.01C683.4 176.53 680.25 174.72 676.48 172.48Z" fill="url(#paint8_linear_137_46767)"/>
<path d="M700.14 42C700.54 42.81 708.14 58.13 748.04 52.51L747.9 126.35C747.9 127.25 747.37 144.21 722.9 165.44C705.7 180.35 701.32 182.82 700.23 182.97C698.5 183.22 694.12 181.97 676.97 171.89C652.51 157.55 652.04 140.73 652.04 139.83L652.18 66C692.12 60.37 699.74 42.92 700.14 42Z" fill="url(#paint9_linear_137_46767)"/>
<path d="M748.04 53.31V52.77C732.04 54.33 721.22 53.53 714.04 52C720.95 53.72 731.65 54.77 748.04 53.31Z" fill="url(#paint10_linear_137_46767)"/>
<path d="M678.51 171.79C654.18 157.51 653.74 140.79 653.72 139.88L653.85 66.42C688.46 61.56 698.7 47.78 701.04 43.69C700.616 43.166 700.248 42.5997 699.94 42C699.54 42.91 691.94 60.28 652.18 65.87L652.04 139.33C652.04 140.21 652.5 156.97 676.83 171.23C689.41 178.63 695.08 181.23 697.9 182C694.66 180.77 688.98 177.93 678.51 171.79Z" fill="url(#paint11_linear_137_46767)"/>
<path d="M741.48 64.6V64L740.92 64.07V63.43L740.35 63.5V62.86C717.61 66.06 707.42 61.15 703.12 57.45C702.663 56.922 702.27 56.3412 701.95 55.72L701.85 55.94C701.681 55.6893 701.528 55.4289 701.39 55.16L701.29 55.38C701.121 55.1294 700.968 54.8689 700.83 54.6C700.83 54.6 700.83 54.71 700.73 54.82C700.561 54.5715 700.41 54.3108 700.28 54.04C699.94 54.81 693.57 69.46 660.15 74.17L660.04 136.17V136.74C660.04 137.31 660.28 146.07 670.13 155.61L670.7 156.18C674.104 159.483 677.914 162.34 682.04 164.68C696.15 172.99 699.92 174.14 701.43 173.98C701.639 174.01 701.851 174.01 702.06 173.98C702.97 173.85 706.63 171.78 721.06 159.27C741.57 141.49 741.99 127.27 742.06 126.49L742.04 64.54L741.48 64.6Z" fill="url(#paint12_linear_137_46767)"/>
<path d="M702.12 54C702.45 54.68 708.75 67.61 742.04 62.88L741.93 125.2C741.93 125.95 741.47 140.28 721.07 158.2C706.73 170.78 703.07 172.87 702.18 173C700.73 173.2 697.09 172.15 682.79 163.65C662.43 151.52 662.04 137.31 662.04 136.57L662.16 74.24C695.43 69.51 701.78 54.77 702.12 54Z" fill="url(#paint13_linear_137_46767)"/>
<path d="M701.12 54C701.45 54.68 707.75 67.61 741.04 62.88L740.93 125.2C740.93 125.95 740.47 140.28 720.07 158.2C705.73 170.78 702.07 172.87 701.18 173C699.73 173.2 696.09 172.15 681.79 163.65C661.43 151.52 661.04 137.31 661.04 136.57L661.16 74.24C694.43 69.51 700.78 54.77 701.12 54Z" fill="#8F8FFF"/>
<path d="M701.2 171C700.2 170.9 696.57 169.71 683.57 162.13C665.09 151.35 664.1 139.26 664.04 137.75L664.15 78.59C687.79 74.83 697.86 66.19 701.9 61C705.47 64.4 713.01 68.77 728.19 68.77C731.816 68.7484 735.438 68.5314 739.04 68.12L738.93 126.5C738.93 127.4 738.02 140.57 718.93 157.04C705.66 168.42 702.04 170.6 701.2 171Z" fill="url(#paint14_linear_137_46767)"/>
<path fill-rule="evenodd" clip-rule="evenodd" d="M729.04 98.87L710.32 101.56L718.15 81.42L718.23 81.21L696.59 84.32L683.42 123.41L696.42 121.54L690.87 153L728.87 99.12L729.04 98.87ZM728.5 99.23L691.29 152L696.72 121.24L683.78 123.1L696.78 84.6L717.86 81.6L710.04 101.69L709.96 101.89L728.5 99.23Z" fill="white"/>
<path d="M696.92 137L696.53 136.79L700.16 116.31L700.54 116.53L696.92 137Z" fill="#848484"/>
<path d="M703.69 106.62L703.31 106.41L719.65 104.07L720.03 104.28L703.69 106.62Z" fill="#9A9A9A"/>
<path d="M711.65 86.21L703.65 106.62L720.04 104.28L696.92 137L700.54 116.53L688.42 118.26L698.61 88.09L711.65 86.21Z" fill="white"/>
<path d="M688.42 118.25L688.04 118L698.23 87.83L698.61 88.04L688.42 118.25Z" fill="#878787"/>
<path d="M698.61 88.08L698.23 87.87L711.23 86L711.62 86.21L698.61 88.08Z" fill="#9A9A9A"/>
<path d="M687.22 34V34.09L687.15 34.24L687.05 34.46L686.91 34.73V34.78L686.72 35.12V35.18L686.49 35.58V35.65C686.41 35.8 686.31 35.95 686.21 36.11V36.17L685.86 36.71L685.52 37.19L685.44 37.3L685.06 37.81L684.99 37.9L684.59 38.41L684.53 38.49L684.05 39.06L683.94 39.19C683.77 39.39 683.59 39.59 683.41 39.78L683.35 39.84L682.81 40.43L682.68 40.56L682.05 41.2L681.92 41.32L681.28 41.93L681.19 42.01C680.93 42.27 680.64 42.52 680.35 42.77L680.04 43C679.75 43.25 679.46 43.51 679.14 43.76L678.96 43.9L677.96 44.68L677.82 44.79L676.69 45.62L675.92 46.15L675.64 46.33L675.06 46.71L674.73 46.93L674.16 47.29L673.81 47.5L673.18 47.89L672.86 48.07L671.94 48.61H671.89L670.89 49.17L670.56 49.34L669.82 49.73L669.41 49.94L668.68 50.32L668.27 50.52L667.34 50.96L667.03 51.1L665.76 51.66L665.47 51.79L664.47 52.23L664.01 52.41L663.01 52.8L662.55 52.97L661.28 53.44L661.1 53.51C660.61 53.69 660.1 53.86 659.6 54.03L659.15 54.18L658.03 54.55L657.49 54.72L656.31 55.08L655.84 55.22L654.16 55.7L653.89 55.77C653.4 55.91 652.89 56.04 652.41 56.16L651.83 56.31L650.57 56.61L649.95 56.75L648.46 57.09L648.06 57.18L646.13 57.58L645.61 57.68C645.11 57.77 644.61 57.86 644.1 57.97L643.42 58.1L641.94 58.35L641.29 58.45C640.58 58.57 639.87 58.68 639.14 58.78L651.88 66L654.03 65.67L654.68 65.56L656.16 65.31L656.84 65.19C657.35 65.1 657.84 65 658.35 64.89L658.86 64.79L660.8 64.4L661.2 64.31L662.69 63.97L663.31 63.83L664.58 63.53L665.15 63.39L666.64 62.99L666.9 62.92C667.467 62.7733 668.027 62.6133 668.58 62.44L669.05 62.31C669.45 62.18 669.85 62.07 670.23 61.94L670.77 61.77L671.9 61.4L672.35 61.26L673.85 60.73L674.01 60.67C674.45 60.51 674.88 60.36 675.3 60.19L675.75 60.02L676.75 59.63L677.2 59.45L678.2 59.01L678.49 58.89L679.76 58.32L680.07 58.18L680.99 57.74L681.17 57.66L681.41 57.54L682.13 57.18L682.54 56.98L683.28 56.59L683.61 56.42L684.61 55.85L685.55 55.31L685.86 55.12L686.49 54.74L686.83 54.53L687.41 54.16L687.74 53.95L688.31 53.57L688.58 53.38L689.34 52.86H689.39C689.78 52.59 690.15 52.31 690.52 52.03L690.66 51.92C691.01 51.66 691.34 51.4 691.66 51.14L691.82 51.01L692.73 50.25L692.87 50.12L693.73 49.36L693.79 49.3L694.43 48.69L694.56 48.56C694.78 48.3533 694.99 48.1433 695.19 47.93C695.231 47.8842 695.274 47.8408 695.32 47.8L695.86 47.21L695.91 47.15L696.45 46.56L696.51 46.5V46.43L696.99 45.86L697.05 45.79L697.45 45.28L697.52 45.18C697.66 45.01 697.78 44.83 697.9 44.67L697.98 44.56C698.1 44.4 698.21 44.23 698.32 44.07C698.43 43.91 698.56 43.71 698.67 43.54V43.48L698.96 43.02V42.95L699.19 42.55V42.49C699.26 42.37 699.33 42.25 699.38 42.14L699.51 41.87L699.62 41.65L699.69 41.5V41.41L687.22 34Z" fill="url(#paint15_linear_137_46767)"/>
<path d="M619.54 105C621.473 105 623.04 103.433 623.04 101.5C623.04 99.567 621.473 98 619.54 98C617.607 98 616.04 99.567 616.04 101.5C616.04 103.433 617.607 105 619.54 105Z" fill="#570CBB"/>
<path d="M798.54 114C803.234 114 807.04 110.194 807.04 105.5C807.04 100.806 803.234 97 798.54 97C793.846 97 790.04 100.806 790.04 105.5C790.04 110.194 793.846 114 798.54 114Z" fill="#540EFF"/>
<path d="M759.04 93C761.801 93 764.04 90.7614 764.04 88C764.04 85.2386 761.801 83 759.04 83C756.279 83 754.04 85.2386 754.04 88C754.04 90.7614 756.279 93 759.04 93Z" fill="#570CBB"/>
<path d="M599.04 80C602.354 80 605.04 77.3137 605.04 74C605.04 70.6863 602.354 68 599.04 68C595.726 68 593.04 70.6863 593.04 74C593.04 77.3137 595.726 80 599.04 80Z" fill="#540EFF"/>
<path d="M600.92 163.54L600.82 163.6C598.04 165.5 596.48 168.68 596.11 172.6C595.872 175.778 596.228 178.972 597.16 182.02C597.962 184.757 599.073 187.394 600.47 189.88C601.19 191.16 601.99 192.41 602.87 193.71C603.62 194.78 604.4 195.78 605.21 196.71C607.041 198.896 609.103 200.878 611.36 202.62C613.836 204.576 616.63 206.092 619.62 207.1C623.78 208.44 627.71 208.25 630.69 206.26L630.8 206.18L639.04 200.59L635.48 195.51C635.46 192.678 635.009 189.866 634.14 187.17C633.279 184.466 632.126 181.864 630.7 179.41C630.07 178.33 629.38 177.25 628.7 176.18C627.826 174.945 626.888 173.757 625.89 172.62C624.022 170.447 621.916 168.491 619.61 166.79C617.509 165.219 615.196 163.953 612.74 163.03L609.14 158L600.92 163.54Z" fill="#370097"/>
<path d="M599.641 164.947L599.531 165.022C596.794 166.889 595.294 170.045 594.895 173.929C594.66 177.065 595.011 180.217 595.929 183.229C596.719 185.929 597.811 188.534 599.184 190.997C599.908 192.303 600.7 193.571 601.557 194.797C602.297 195.852 603.066 196.856 603.862 197.81C605.664 199.975 607.698 201.94 609.931 203.67C612.368 205.599 615.123 207.1 618.076 208.106C622.178 209.429 626.059 209.245 629 207.269L629.111 207.194L637.238 201.652L633.73 196.63C633.71 193.823 633.261 191.035 632.399 188.36C631.556 185.687 630.419 183.113 629.009 180.684C628.393 179.613 627.715 178.549 626.975 177.495C626.121 176.267 625.201 175.085 624.22 173.954C622.376 171.81 620.295 169.875 618.016 168.187C615.944 166.639 613.662 165.388 611.236 164.47L607.727 159.448L599.641 164.947Z" fill="#37058C"/>
<mask id="mask0_137_46767" style="mask-type:alpha" maskUnits="userSpaceOnUse" x="594" y="159" width="44" height="50">
<path d="M599.641 164.947L599.531 165.022C596.794 166.889 595.294 170.045 594.895 173.929C594.66 177.065 595.011 180.217 595.929 183.229C596.719 185.929 597.811 188.534 599.184 190.997C599.908 192.303 600.7 193.571 601.557 194.797C602.297 195.852 603.066 196.856 603.862 197.81C605.664 199.975 607.698 201.94 609.931 203.67C612.368 205.599 615.123 207.1 618.076 208.106C622.178 209.429 626.059 209.245 629 207.269L629.111 207.194L637.238 201.652L633.73 196.63C633.71 193.823 633.261 191.035 632.399 188.36C631.556 185.687 630.419 183.113 629.009 180.684C628.393 179.613 627.715 178.549 626.975 177.495C626.121 176.267 625.201 175.085 624.22 173.954C622.376 171.81 620.295 169.875 618.016 168.187C615.944 166.639 613.662 165.388 611.236 164.47L607.727 159.448L599.641 164.947Z" fill="#37058C"/>
</mask>
<g mask="url(#mask0_137_46767)">
<path d="M634.686 197.366L618.076 208.156C622.316 209.466 626.316 209.286 629.346 207.336L629.456 207.266L637.836 201.806L634.686 197.366Z" fill="#5F1DE0"/>
<path d="M599.83 164.93L599.72 165C596.86 167 595.26 170.23 594.88 174.28L611.15 163.21L608.31 159.16L599.83 164.93Z" fill="#37058C"/>
<path d="M633.736 189.226L611.106 204.566C613.568 206.493 616.336 207.99 619.296 208.996L635.516 198.066L635.106 197.506C635.091 194.7 634.642 191.914 633.776 189.246L633.736 189.226Z" fill="#4D15CD"/>
<path d="M628.946 180.506L603.356 199.116V199.596C605.045 201.789 606.988 203.773 609.146 205.506V206.006L633.326 190.126L632.946 188.476C632.086 185.476 630.656 183.786 629.216 181.086L628.946 180.506Z" fill="#470BC5"/>
<path d="M623.836 174.116L599.446 191.576C600.136 192.876 600.906 194.146 601.756 195.456C602.476 196.536 603.226 197.556 603.996 198.536L628.536 180.996C627.936 179.906 627.276 178.806 626.536 177.736C625.706 176.484 624.808 175.279 623.846 174.126L623.836 174.116Z" fill="#400CAE"/>
<path d="M617.776 169.476L595.996 183.996C596.779 186.616 597.855 189.139 599.206 191.516L623.886 174.996C622.068 172.918 620.025 171.046 617.796 169.416L617.776 169.476Z" fill="#3D1097"/>
<path d="M610.506 163.646L594.906 174.796C594.652 178.089 594.991 181.402 595.906 184.576L618.036 168.786C615.978 167.16 613.694 165.843 611.256 164.876L610.506 163.646Z" fill="#380894"/>
</g>
<path d="M638.676 200.259C645.666 195.434 644.76 182.001 636.652 170.257C628.544 158.513 616.305 152.904 609.315 157.73C602.324 162.556 603.23 175.988 611.338 187.733C619.446 199.477 631.685 205.085 638.676 200.259Z" fill="url(#paint16_linear_137_46767)"/>
<path d="M609.04 158C608.478 158.399 607.958 158.854 607.49 159.36C607.26 159.61 607.04 159.88 606.83 160.15C606.62 160.42 606.64 160.43 606.54 160.57C606.438 160.704 606.344 160.844 606.26 160.99C605.575 162.164 605.082 163.44 604.8 164.77C604.27 167.431 604.27 170.169 604.8 172.83C605.303 175.495 606.122 178.09 607.24 180.56C608.374 183.042 609.743 185.41 611.33 187.63C612.12 188.74 612.96 189.82 613.85 190.85C614.744 191.898 615.692 192.9 616.69 193.85C618.68 195.773 620.892 197.451 623.28 198.85C625.66 200.284 628.289 201.255 631.03 201.71C632.408 201.93 633.812 201.93 635.19 201.71C635.363 201.691 635.533 201.658 635.7 201.61C635.87 201.61 636.05 201.54 636.21 201.49C636.55 201.38 636.88 201.31 637.21 201.17C637.864 200.93 638.491 200.622 639.08 200.25C637.922 201.043 636.61 201.584 635.23 201.84C633.837 202.093 632.413 202.127 631.01 201.94C628.221 201.522 625.535 200.586 623.09 199.18C620.655 197.798 618.401 196.118 616.38 194.18C612.339 190.396 609.09 185.849 606.82 180.8C605.69 178.296 604.884 175.658 604.42 172.95C603.926 170.241 603.974 167.461 604.56 164.77C604.882 163.429 605.419 162.149 606.15 160.98C606.89 159.792 607.876 158.776 609.04 158Z" fill="#8A67FB"/>
<path d="M614.04 186.11C617.56 191.36 622.04 195.41 626.62 197.53C632.09 200.06 635.27 198.76 636.68 197.76C638.09 196.76 640.39 194.17 640.03 188C639.477 182.195 637.412 176.637 634.04 171.88C630.52 166.64 626.04 162.58 621.46 160.47C615.99 157.94 612.8 159.24 611.4 160.24C610 161.24 607.69 163.83 608.05 169.99C608.593 175.797 610.659 181.358 614.04 186.11Z" fill="url(#paint17_linear_137_46767)"/>
<path d="M626.87 197.36C627.25 197.5 627.62 197.65 628 197.77L628.58 197.96L629.15 198.11L629.74 198.26L630.32 198.38C630.515 198.424 630.712 198.457 630.91 198.48L631.5 198.55C633.061 198.731 634.643 198.478 636.07 197.82C637.431 197.098 638.493 195.919 639.07 194.49C639.686 193.074 640.025 191.553 640.07 190.01C640.087 186.863 639.521 183.74 638.4 180.8C636.131 174.882 632.468 169.599 627.72 165.4C625.375 163.312 622.662 161.677 619.72 160.58C618.26 160.049 616.713 159.801 615.16 159.85C613.615 159.893 612.134 160.481 610.98 161.51C609.859 162.606 609.063 163.99 608.68 165.51C608.68 165.71 608.59 165.9 608.53 166.09C608.47 166.28 608.45 166.48 608.42 166.67C608.39 166.86 608.34 167.06 608.32 167.26L608.25 167.86C608.253 168.061 608.237 168.262 608.2 168.46V170.26C608.018 168.65 608.082 167.021 608.39 165.43C608.692 163.792 609.46 162.275 610.6 161.06C611.199 160.46 611.909 159.981 612.69 159.65C613.437 159.318 614.229 159.099 615.04 159C616.711 158.89 618.388 159.1 619.98 159.62C623.103 160.677 625.993 162.327 628.49 164.48C633.468 168.753 637.257 174.241 639.49 180.41C640.62 183.477 641.146 186.733 641.04 190C640.968 191.671 640.571 193.312 639.87 194.83C639.498 195.589 639.009 196.284 638.42 196.89C637.834 197.507 637.13 198 636.35 198.34C634.809 198.972 633.119 199.149 631.48 198.85C629.876 198.593 628.321 198.09 626.87 197.36Z" fill="#400CAE"/>
<path d="M627.04 171.09C626.827 170.792 626.554 170.541 626.239 170.353C625.924 170.165 625.574 170.045 625.21 170H625.04C624.711 169.991 624.388 170.09 624.12 170.28L623.06 171.21C623.328 171.018 623.651 170.92 623.98 170.93H624.18C624.501 170.971 624.813 171.07 625.1 171.22C625.459 171.421 625.769 171.697 626.01 172.03L634.01 182.03L635.07 181.1L627.04 171.09Z" fill="#470BC5"/>
<path d="M625.04 172.07L622.8 171.21L622.87 170.48L622.93 169.76C622.978 169.124 623.203 168.514 623.58 168L622.82 168.93C622.443 169.444 622.218 170.054 622.17 170.69L622.11 171.41L622.04 172.14L624.28 173L625.04 172.07Z" fill="#470BC5"/>
<path d="M626.96 184C626.758 183.978 626.557 183.941 626.36 183.89C624.833 183.506 623.48 182.618 622.52 181.37C620.98 179.43 621.1 178.59 621.31 177.03V176.79L624.87 177.68C625.046 177.716 625.22 177.763 625.39 177.82C625.678 177.847 625.957 177.936 626.207 178.081C626.458 178.226 626.674 178.423 626.84 178.66C627.216 179.102 627.428 179.66 627.44 180.24C627.45 180.461 627.412 180.682 627.329 180.887C627.246 181.092 627.12 181.277 626.96 181.43L627.96 180.52C628.122 180.366 628.25 180.18 628.335 179.973C628.419 179.766 628.459 179.543 628.45 179.32C628.427 178.74 628.213 178.185 627.84 177.74C627.671 177.506 627.455 177.31 627.205 177.165C626.955 177.02 626.677 176.93 626.39 176.9L625.86 176.76L619.04 175.11C618.896 175.069 618.749 175.039 618.6 175.02C618.302 174.98 618 175 617.71 175.08C617.476 175.14 617.262 175.261 617.09 175.43L616.09 176.34C616.269 176.18 616.481 176.06 616.71 175.99C617.001 175.92 617.302 175.9 617.6 175.93C617.749 175.95 617.896 175.98 618.04 176.02L621.09 176.79L620.31 177.48L620.25 178C620.03 179.56 619.91 180.41 621.45 182.33C622.415 183.577 623.771 184.464 625.3 184.85C625.495 184.897 625.692 184.934 625.89 184.96C626.953 185.111 628.032 184.834 628.89 184.19L629.02 184.07L630.02 183.16L629.88 183.27C629.039 183.884 627.991 184.146 626.96 184Z" fill="#470BC5"/>
<path d="M624.04 192C623.592 191.923 623.164 191.755 622.782 191.508C622.401 191.26 622.073 190.938 621.82 190.56L614.39 180.09C613.647 179.117 613.187 177.958 613.06 176.74C612.92 175.67 613.164 174.586 613.75 173.68C613.908 173.434 614.092 173.206 614.3 173L613.3 174C612.82 174.486 612.458 175.077 612.243 175.725C612.028 176.374 611.966 177.063 612.06 177.74C612.185 178.958 612.645 180.118 613.39 181.09L620.83 191.56C621.079 191.94 621.404 192.263 621.784 192.511C622.165 192.759 622.592 192.925 623.04 193C623.403 193.048 623.773 193.012 624.12 192.894C624.466 192.776 624.781 192.58 625.04 192.32L626.04 191.32C625.783 191.582 625.468 191.779 625.121 191.897C624.773 192.015 624.403 192.051 624.04 192Z" fill="#470BC5"/>
<path d="M625.13 173.48L624.67 173.33L618.16 171.28C617.808 171.168 617.447 171.091 617.08 171.05C616.412 170.95 615.731 170.991 615.08 171.17C614.126 171.424 613.299 172.023 612.76 172.85C612.164 173.729 611.912 174.797 612.05 175.85C612.188 177.061 612.659 178.21 613.41 179.17L621.04 189.55C621.304 189.927 621.641 190.248 622.031 190.494C622.421 190.74 622.855 190.905 623.31 190.98C623.679 191.03 624.055 190.996 624.41 190.882C624.764 190.768 625.089 190.576 625.36 190.32L625.56 190.12L616.21 177.52C615.921 177.135 615.729 176.685 615.65 176.21C615.583 175.788 615.668 175.355 615.89 174.99C616.086 174.653 616.394 174.395 616.76 174.26C617.041 174.17 617.339 174.15 617.63 174.2C617.772 174.212 617.913 174.239 618.05 174.28L624.76 176.06L625.28 176.21C625.567 176.247 625.843 176.345 626.088 176.499C626.333 176.653 626.542 176.858 626.7 177.1C627.064 177.583 627.27 178.166 627.29 178.77C627.302 179.028 627.254 179.284 627.15 179.52C627.046 179.756 626.888 179.965 626.69 180.13C626.525 180.256 626.336 180.347 626.135 180.399C625.934 180.45 625.725 180.461 625.52 180.43L625.19 180.36C624.599 180.162 624.088 179.78 623.73 179.27C623.533 179.023 623.395 178.734 623.327 178.425C623.26 178.117 623.264 177.797 623.34 177.49C623.333 177.212 623.356 176.933 623.41 176.66L620.33 175.86L620.27 176.4C620.072 177.203 620.076 178.043 620.282 178.844C620.488 179.645 620.889 180.382 621.45 180.99C622.35 182.284 623.672 183.224 625.19 183.65L625.79 183.77C626.32 183.86 626.862 183.833 627.381 183.691C627.899 183.55 628.38 183.297 628.79 182.95C629.23 182.538 629.571 182.031 629.787 181.468C630.004 180.905 630.09 180.301 630.04 179.7C629.973 178.306 629.481 176.966 628.63 175.86C628.256 175.231 627.749 174.693 627.144 174.281C626.539 173.87 625.852 173.597 625.13 173.48Z" fill="#DAD4FF"/>
<path d="M634.35 178.42L628.86 170.71C628.324 169.946 627.645 169.294 626.86 168.79C626.201 168.378 625.461 168.112 624.69 168.01H624.43C623.668 167.951 622.91 168.163 622.29 168.61C621.685 169.111 621.301 169.829 621.22 170.61L621.14 171.35L621.05 172.09L623.93 172.96V172.55L623.98 171.84C623.985 171.51 624.118 171.195 624.35 170.96C624.587 170.768 624.885 170.665 625.19 170.67H625.38C625.722 170.724 626.048 170.852 626.336 171.043C626.624 171.235 626.868 171.486 627.05 171.78L634.35 182L634.49 181.87C635.29 181.13 635.19 179.62 634.35 178.42Z" fill="#DAD4FF"/>
<path d="M809.56 99H809.62C810.267 99.7878 810.729 100.71 810.973 101.7C811.217 102.69 811.237 103.722 811.03 104.72V104.8C810.717 106.648 810.063 108.422 809.1 110.03C808.254 111.472 807.247 112.814 806.1 114.03C805.495 114.688 804.854 115.312 804.18 115.9C803.61 116.4 803.02 116.9 802.43 117.32C801.074 118.319 799.616 119.171 798.08 119.86C796.394 120.64 794.589 121.13 792.74 121.31C791.624 121.476 790.485 121.381 789.411 121.034C788.337 120.687 787.358 120.097 786.55 119.31C786.554 119.29 786.554 119.27 786.55 119.25L782.65 114.89L785.4 112.48C785.806 110.858 786.464 109.309 787.35 107.89C788.221 106.449 789.247 105.108 790.41 103.89C790.93 103.36 791.47 102.89 792.04 102.33C792.61 101.77 793.42 101.19 794.15 100.67C795.522 99.689 796.998 98.8608 798.55 98.2C799.969 97.5924 801.467 97.1884 803 97L805.74 94.58L809.56 99Z" fill="#370097"/>
<path d="M805.66 94.66L809.66 99.02C810.307 99.8097 810.77 100.734 811.014 101.725C811.258 102.717 811.277 103.75 811.07 104.75L803.62 96.49L805.66 94.66Z" fill="#37058C"/>
<path d="M785.04 112.82L792.75 121.4C791.634 121.566 790.495 121.471 789.421 121.124C788.347 120.777 787.368 120.187 786.56 119.4L786.51 119.34L782.61 114.98L785.04 112.82Z" fill="#5F1DE0"/>
<path d="M787.26 108L798.04 120C796.355 120.784 794.55 121.278 792.7 121.46L785 112.88L785.31 112.61C785.721 110.989 786.379 109.441 787.26 108.02V108Z" fill="#4D15CD"/>
<path d="M790.32 104L802.42 117.46C801.054 118.459 799.585 119.31 798.04 120L787.24 108C788.117 106.56 789.146 105.219 790.31 104H790.32Z" fill="#470BC5"/>
<path d="M794.04 100.75L806.04 114.14C805.44 114.78 804.8 115.4 804.12 116.01C803.44 116.62 802.96 117.01 802.36 117.42L790.32 104C790.84 103.47 791.38 103 791.95 102.44C792.624 101.851 793.329 101.297 794.06 100.78L794.04 100.75Z" fill="#400CAE"/>
<path d="M798.48 98.28L809.1 110.09C808.254 111.532 807.247 112.874 806.1 114.09L794.1 100.7C795.475 99.7171 796.954 98.8888 798.51 98.23L798.48 98.28Z" fill="#3D1097"/>
<path d="M803.54 96.53L811.03 104.86C810.714 106.709 810.056 108.482 809.09 110.09L798.47 98.28C799.889 97.668 801.387 97.2606 802.92 97.07L803.54 96.53Z" fill="#380894"/>
<path d="M800.218 111.666C806.567 106.023 808.996 98.3899 805.642 94.6169C802.289 90.8439 794.424 92.3596 788.075 98.0024C781.726 103.645 779.297 111.278 782.651 115.051C786.004 118.824 793.869 117.309 800.218 111.666Z" fill="url(#paint18_linear_137_46767)"/>
<path d="M805.71 94.72C806.276 95.3161 806.702 96.0298 806.96 96.81C807.213 97.5915 807.338 98.4087 807.33 99.23C807.281 100.876 806.911 102.496 806.24 104C805.596 105.512 804.759 106.934 803.75 108.23C801.764 110.856 799.267 113.053 796.41 114.69C794.986 115.544 793.461 116.216 791.87 116.69C790.279 117.161 788.614 117.33 786.96 117.19C786.137 117.1 785.334 116.881 784.58 116.54C783.817 116.201 783.136 115.703 782.58 115.08C782.861 115.38 783.176 115.645 783.52 115.87C783.85 116.104 784.205 116.299 784.58 116.45C785.332 116.76 786.129 116.949 786.94 117.01C788.564 117.112 790.192 116.909 791.74 116.41C793.296 115.918 794.789 115.247 796.19 114.41C797.586 113.586 798.899 112.628 800.11 111.55C801.336 110.489 802.455 109.31 803.45 108.03C804.439 106.754 805.278 105.368 805.95 103.9C806.629 102.438 807.022 100.86 807.11 99.25C807.147 98.4467 807.053 97.6427 806.83 96.87C806.77 96.68 806.7 96.49 806.63 96.3C806.554 96.112 806.467 95.9284 806.37 95.75C806.176 95.3911 805.941 95.0556 805.67 94.75L805.71 94.72Z" fill="#8A67FB"/>
<path d="M799.18 110.46C796.596 112.837 793.429 114.486 790 115.24C786.33 115.9 784.61 114.69 783.91 113.91C783.21 113.13 782.19 111.28 783.29 107.77C784.534 104.497 786.56 101.578 789.19 99.2673C791.82 96.9562 794.975 95.323 798.38 94.51C802.06 93.84 803.77 95.05 804.47 95.84C805.17 96.63 806.19 98.45 805.1 101.98C803.918 105.284 801.874 108.212 799.18 110.46Z" fill="url(#paint19_linear_137_46767)"/>
<path d="M790.04 115.24C789.079 115.475 788.088 115.566 787.1 115.51C786.078 115.449 785.094 115.103 784.26 114.51C783.854 114.193 783.514 113.799 783.26 113.35C782.992 112.901 782.799 112.411 782.69 111.9C782.483 110.911 782.483 109.889 782.69 108.9C783.085 106.933 783.867 105.063 784.99 103.4C787.225 100.069 790.289 97.3777 793.88 95.59C795.653 94.7083 797.577 94.1688 799.55 94C800.564 93.9316 801.583 94.0572 802.55 94.37C803.046 94.533 803.512 94.7762 803.93 95.09C804.333 95.4106 804.672 95.8041 804.93 96.25C805.42 97.1347 805.649 98.1403 805.59 99.15C805.555 100.123 805.369 101.084 805.04 102C805.09 101.76 805.15 101.52 805.2 101.27C805.25 101.02 805.29 100.8 805.32 100.54C805.383 100.059 805.407 99.5744 805.39 99.09C805.376 98.1476 805.103 97.2273 804.6 96.43C804.064 95.6805 803.282 95.1426 802.39 94.91C801.485 94.6659 800.542 94.5947 799.61 94.7C797.71 94.9172 795.868 95.4905 794.18 96.39C790.766 98.1539 787.836 100.729 785.65 103.89C784.554 105.439 783.757 107.179 783.3 109.02C783.089 109.925 783.051 110.861 783.19 111.78C783.327 112.687 783.776 113.518 784.46 114.13C785.208 114.713 786.099 115.083 787.04 115.2C787.526 115.28 788.018 115.31 788.51 115.29H789.25L790.04 115.24Z" fill="#400CAE"/>
<path d="M793.04 100.45L793.13 100.39H793.22L793.36 100.33C793.472 100.286 793.59 100.262 793.71 100.26H793.96C794.133 100.278 794.294 100.36 794.41 100.49L793.99 99.92C793.863 99.7896 793.699 99.7022 793.52 99.67H793.28C793.16 99.6775 793.042 99.7045 792.93 99.75L792.8 99.81H792.73L792.64 99.88L792.57 99.95L787.78 104.74L788.21 105.32L792.99 100.52L793.04 100.45Z" fill="#470BC5"/>
<path d="M797.15 103.3H797.68H797.74C797.973 103.289 798.204 103.34 798.41 103.45C798.555 103.529 798.681 103.638 798.78 103.77L798.36 103.2C798.259 103.067 798.133 102.955 797.99 102.87C797.783 102.766 797.551 102.721 797.32 102.74H796.74H796.45L796.87 103.31L797.15 103.3Z" fill="#470BC5"/>
<path d="M793.44 107.53H793.51H793.72H793.78L794.03 107.46H794.1L794.3 107.38H794.36L794.61 107.26H794.66L794.79 107.18H794.85L794.95 107.12L795.1 107L795.2 106.92L795.36 106.77L795.51 106.61H795.56L795.64 106.53L795.72 106.41C795.762 106.361 795.799 106.307 795.83 106.25C795.862 106.207 795.889 106.16 795.91 106.11V106.03V105.9V105.77C795.915 105.761 795.918 105.751 795.918 105.74C795.918 105.729 795.915 105.719 795.91 105.71V105.38C795.92 105.324 795.92 105.266 795.91 105.21C795.92 105.144 795.92 105.076 795.91 105.01V104.75C795.92 104.657 795.92 104.563 795.91 104.47V100.83C795.92 100.76 795.92 100.69 795.91 100.62C795.901 100.551 795.88 100.483 795.85 100.42C795.821 100.355 795.787 100.291 795.75 100.23L795.69 100.13L795.27 99.56L795.33 99.67C795.369 99.7264 795.403 99.7867 795.43 99.85C795.43 99.91 795.48 99.98 795.49 100.04C795.516 100.107 795.533 100.178 795.54 100.25V103.9C795.55 103.99 795.55 104.08 795.54 104.17V105.45V105.53V105.58L795.49 105.68L795.4 105.82C795.4 105.87 795.33 105.92 795.29 105.97L795.2 106.09L795.1 106.19V106.24L794.95 106.4L794.73 106.59L794.64 106.67L794.49 106.78C794.452 106.801 794.419 106.828 794.39 106.86L794.19 106.97L793.94 107.1H793.87L793.67 107.18H793.61L793.35 107.26H793.3H793.09H792.76C792.397 107.291 792.032 107.236 791.695 107.099C791.358 106.961 791.058 106.746 790.82 106.47L790.73 106.36L791.15 106.93L791.24 107.05C791.48 107.32 791.779 107.531 792.113 107.666C792.448 107.802 792.81 107.858 793.17 107.83L793.44 107.53Z" fill="#470BC5"/>
<path d="M801.16 104.66V103.76C801.163 103.717 801.163 103.673 801.16 103.63V103.55L801.1 103.41V103.34L801.01 103.13L800.58 102.56C800.617 102.625 800.651 102.691 800.68 102.76V102.83C800.684 102.88 800.684 102.93 800.68 102.98V104.34V104.56V104.63L800.63 104.77V104.84C800.634 104.866 800.631 104.892 800.622 104.916C800.614 104.941 800.599 104.962 800.58 104.98V105.06L800.51 105.19V105.26L800.43 105.4V105.46L800.3 105.63L800.15 105.82C800.092 105.891 800.028 105.958 799.96 106.02L794.96 110.88L794.86 110.96L794.81 111.01L794.73 111.07H794.64L794.5 111.15H794.45L794.26 111.22H794.09H793.85C793.584 111.236 793.318 111.185 793.077 111.071C792.836 110.958 792.627 110.785 792.47 110.57L792.89 111.14C793.048 111.355 793.257 111.527 793.498 111.642C793.738 111.757 794.004 111.811 794.27 111.8H794.68L794.87 111.72H794.92L795.06 111.64H795.04L795.12 111.58L795.17 111.53H795.22L800.22 106.68C800.288 106.618 800.352 106.551 800.41 106.48L800.56 106.3L800.67 106.14V106.08L800.75 105.94V105.87V105.66L800.8 105.52C800.81 105.494 800.81 105.466 800.8 105.44V105.26C800.791 105.183 800.809 105.106 800.85 105.04C800.85 104.97 800.85 105.04 800.85 104.97V104.89C800.959 104.822 801.063 104.745 801.16 104.66Z" fill="#470BC5"/>
<path d="M787.69 104.77L788.12 105.34L788.05 105.25L787.63 104.68L787.69 104.77Z" fill="#958778"/>
<path d="M800.23 102.25L800.65 102.83L800.78 103.03L800.36 102.46L800.23 102.25Z" fill="#B8A795"/>
<path d="M800.36 102.46L800.78 103.03L800.84 103.13L800.42 102.56L800.36 102.46Z" fill="#BDAC99"/>
<path d="M792.29 110.76L792.71 111.33L792.6 111.19L792.18 110.62L792.29 110.76Z" fill="#958778"/>
<path d="M795.04 106C795.383 105.727 795.647 105.367 795.804 104.957C795.96 104.547 796.004 104.102 795.93 103.67C795.94 103.577 795.94 103.483 795.93 103.39V99.99C795.934 99.5473 795.766 99.1203 795.46 98.8C795.156 98.4906 794.752 98.2992 794.32 98.26H793.86C793.534 98.2821 793.213 98.3564 792.91 98.48C792.438 98.6633 792.012 98.9465 791.66 99.31L788.04 102.89C787.776 103.11 787.596 103.414 787.53 103.751C787.465 104.088 787.518 104.437 787.68 104.74L787.75 104.82L792.54 100.04C792.692 99.8803 792.876 99.7543 793.08 99.67C793.19 99.6313 793.304 99.6078 793.42 99.6H793.66C793.84 99.6295 794.005 99.7173 794.13 99.85C794.239 99.9885 794.29 100.165 794.27 100.34L794.21 103.68V104C794.235 104.16 794.221 104.324 794.169 104.477C794.116 104.63 794.028 104.769 793.91 104.88C793.662 105.125 793.337 105.276 792.99 105.31C792.844 105.321 792.698 105.299 792.562 105.248C792.425 105.196 792.302 105.115 792.2 105.01C792.102 104.904 792.03 104.776 791.991 104.637C791.951 104.498 791.944 104.352 791.97 104.21C792.01 103.89 792.158 103.594 792.39 103.37C792.506 103.251 792.646 103.158 792.802 103.099C792.958 103.041 793.124 103.017 793.29 103.03H793.72L793.77 101.51H793.48C793.084 101.5 792.692 101.578 792.33 101.739C791.968 101.9 791.647 102.139 791.39 102.44C790.861 102.957 790.511 103.63 790.39 104.36C790.33 104.697 790.344 105.043 790.43 105.375C790.517 105.706 790.673 106.015 790.89 106.28C791.128 106.555 791.428 106.769 791.766 106.904C792.103 107.04 792.468 107.093 792.83 107.06C793.672 106.991 794.459 106.613 795.04 106Z" fill="#DAD4FF"/>
<path d="M800.42 102.56C800.131 102.036 799.688 101.613 799.15 101.35C798.641 101.101 798.075 100.99 797.51 101.03H797.38H796.87H796.37L796.45 102.65H796.74H797.35C797.581 102.641 797.811 102.689 798.02 102.79C798.228 102.907 798.395 103.085 798.5 103.3C798.61 103.532 798.64 103.795 798.585 104.046C798.531 104.297 798.396 104.523 798.2 104.69L792.2 110.56L792.31 110.7C792.469 110.913 792.678 111.084 792.919 111.198C793.159 111.311 793.424 111.363 793.69 111.35C794.116 111.319 794.519 111.143 794.83 110.85L799.78 105.99C800.267 105.533 800.599 104.935 800.73 104.28C800.816 103.688 800.707 103.085 800.42 102.56Z" fill="#DAD4FF"/>
<path d="M751.31 179.78H751.37C752.944 179.217 754.236 178.062 754.97 176.56C755.56 175.372 755.9 174.075 755.97 172.75C756.049 171.611 755.971 170.468 755.74 169.35C755.532 168.271 755.196 167.22 754.74 166.22C754.25 165.193 753.632 164.231 752.9 163.36C752.07 162.336 751.052 161.48 749.9 160.84C749.118 160.403 748.256 160.13 747.365 160.037C746.475 159.945 745.575 160.034 744.72 160.3H744.66L740.89 161.57L740.8 164.18C740.351 165.277 740.1 166.445 740.06 167.63C740.018 168.762 740.122 169.895 740.37 171C740.481 171.49 740.618 171.974 740.78 172.45C740.976 173.015 741.21 173.566 741.48 174.1C741.988 175.129 742.634 176.085 743.4 176.94C744.124 177.751 744.971 178.443 745.91 178.99L747.59 180.99L751.31 179.78Z" fill="#5F1DE0"/>
<path d="M741.04 164L750.04 160.85C749.283 160.41 748.443 160.134 747.573 160.04C746.704 159.945 745.823 160.034 744.99 160.3H744.93L741.25 161.59L741.04 164Z" fill="#37058C"/>
<path d="M750.984 179.87H751.044C752.577 179.414 753.876 178.387 754.674 177L745.674 179.67L747.184 181L750.984 179.87Z" fill="#5F1DE0"/>
<path d="M740.04 168L753.04 163.52C752.212 162.494 751.193 161.638 750.04 161L740.73 164.18L740.82 164.45C740.356 165.579 740.092 166.78 740.04 168Z" fill="#380894"/>
<path d="M740.35 171L755.04 166C754.554 164.921 753.925 163.912 753.17 163L740.04 167.51C739.993 168.679 740.097 169.848 740.35 170.99V171Z" fill="#3D1097"/>
<path d="M742.11 174L756.04 169.13C755.833 168.051 755.497 167 755.04 166L741.04 170.89C741.147 171.38 741.281 171.864 741.44 172.34C741.632 172.905 741.856 173.46 742.11 174Z" fill="#400CAE"/>
<path d="M743.88 177L756.04 172.54C756.117 171.355 756.043 170.166 755.82 169L742.04 174.05C742.524 175.108 743.142 176.1 743.88 177Z" fill="#470BC5"/>
<path d="M745.81 179L754.97 175.9C755.589 174.686 755.953 173.359 756.04 172L743.04 176.39C743.783 177.223 744.654 177.932 745.62 178.49L745.81 179Z" fill="#4D15CD"/>
<path d="M747.768 180.765C752.017 179.315 753.985 173.809 752.162 168.467C750.339 163.125 745.417 159.97 741.167 161.42C736.918 162.87 734.95 168.376 736.773 173.718C738.596 179.06 743.518 182.215 747.768 180.765Z" fill="url(#paint20_linear_137_46767)"/>
<path d="M747.77 181C748.344 180.793 748.886 180.507 749.38 180.15C749.877 179.799 750.328 179.386 750.72 178.92C751.5 177.98 752.072 176.886 752.4 175.71C752.73 174.543 752.869 173.331 752.81 172.12C752.689 169.682 751.882 167.328 750.48 165.33C749.783 164.344 748.928 163.479 747.95 162.77C746.976 162.032 745.854 161.513 744.66 161.25C744.063 161.114 743.452 161.057 742.84 161.08C742.23 161.108 741.625 161.213 741.04 161.39C742.208 160.98 743.465 160.89 744.68 161.13C745.899 161.378 747.051 161.882 748.06 162.61C749.059 163.327 749.928 164.21 750.63 165.22C752.071 167.252 752.904 169.652 753.03 172.14C753.086 173.377 752.934 174.614 752.58 175.8C752.22 176.978 751.617 178.068 750.81 179C749.996 179.929 748.945 180.62 747.77 181Z" fill="#8A67FB"/>
<path d="M751.39 168.73C750.573 166.373 748.956 164.377 746.82 163.09C746.033 162.569 745.143 162.225 744.211 162.082C743.279 161.939 742.327 161.999 741.42 162.26C740.547 162.582 739.756 163.093 739.104 163.757C738.453 164.421 737.956 165.221 737.65 166.1C736.841 168.437 736.853 170.979 737.684 173.308C738.515 175.637 740.115 177.613 742.22 178.91C743.006 179.432 743.896 179.776 744.829 179.918C745.762 180.059 746.715 179.995 747.62 179.73C748.492 179.411 749.282 178.904 749.934 178.243C750.585 177.582 751.083 176.786 751.39 175.91C752.26 173.596 752.26 171.044 751.39 168.73Z" fill="url(#paint21_linear_137_46767)"/>
<path d="M746.69 163.22C746.033 162.86 745.33 162.591 744.6 162.42C743.877 162.26 743.131 162.24 742.4 162.36C742.036 162.424 741.681 162.528 741.34 162.67C741.009 162.813 740.694 162.991 740.4 163.2C739.811 163.623 739.305 164.152 738.91 164.76C738.519 165.383 738.213 166.056 738 166.76C737.79 167.45 737.66 168.161 737.61 168.88C737.557 169.601 737.583 170.325 737.69 171.04C737.8 171.772 737.981 172.492 738.23 173.19C738.469 173.882 738.77 174.552 739.13 175.19C739.498 175.797 739.919 176.369 740.39 176.9C740.878 177.439 741.425 177.922 742.02 178.34C742.62 178.757 743.272 179.094 743.96 179.34C744.645 179.588 745.372 179.703 746.1 179.68C746.461 179.67 746.82 179.62 747.17 179.53C747.517 179.434 747.852 179.3 748.17 179.13C748.823 178.788 749.401 178.319 749.87 177.75C750.338 177.176 750.725 176.54 751.02 175.86C750.788 176.573 750.451 177.247 750.02 177.86C749.571 178.48 748.999 179.001 748.34 179.39C748.001 179.583 747.642 179.74 747.27 179.86C746.899 179.97 746.517 180.041 746.13 180.07C745.349 180.119 744.565 180.021 743.82 179.78C742.351 179.283 741.032 178.419 739.99 177.27C738.961 176.134 738.173 174.801 737.673 173.352C737.173 171.904 736.971 170.369 737.08 168.84C737.191 167.302 737.702 165.82 738.56 164.54C739.001 163.899 739.561 163.349 740.21 162.92C740.522 162.705 740.857 162.527 741.21 162.39C741.576 162.259 741.955 162.168 742.34 162.12C743.105 162.033 743.88 162.097 744.62 162.31C745.35 162.512 746.048 162.818 746.69 163.22Z" fill="#400CAE"/>
<path d="M740.36 171.16V170.79C740.34 170.694 740.34 170.596 740.36 170.5C740.377 170.431 740.401 170.364 740.43 170.3C740.485 170.159 740.593 170.044 740.73 169.98L740.17 170.18C740.034 170.247 739.928 170.36 739.87 170.5C739.841 170.564 739.817 170.631 739.8 170.7C739.78 170.796 739.78 170.894 739.8 170.99V171.38C739.795 171.406 739.795 171.434 739.8 171.46L742.65 176.46L743.21 176.24L740.38 171.24C740.369 171.215 740.362 171.188 740.36 171.16Z" fill="#470BC5"/>
<path d="M743.67 172.7H743.45L743.34 172.61C743.302 172.582 743.268 172.548 743.24 172.51L743.15 172.4L743.09 172.31C743.084 172.272 743.066 172.238 743.04 172.21V172.12V171.66C743.04 171.66 743.04 171.48 743.11 171.37C743.18 171.26 743.11 171.3 743.11 171.28L741.85 170.9L741.29 171.11L742.54 171.49V171.58L742.48 171.87V172.43V172.5L742.53 172.59L742.62 172.71L742.72 172.8L742.83 172.89H743.04L743.2 172.94H743.76L744.33 172.73H743.85L743.67 172.7Z" fill="#470BC5"/>
<path d="M746.25 172.42V171.61C746.269 171.535 746.269 171.455 746.25 171.38V171.25V171.19V171.09L746.19 170.95V170.85V170.8L746.1 170.64L746.01 170.48V170.43L745.95 170.35L745.88 170.25V170.2L745.77 170.08L745.68 169.98L745.62 169.93H745.56H745.49H745.42H745.34H745.2L745.06 169.88H744.89H744.72L744.49 169.82L741.58 168.82H741.38H740.73L740.17 169.02H740.27H740.44H740.86H741.05L743.84 169.79L744.07 169.86H744.24H744.41L744.55 169.91H744.69H744.77H744.84H744.9H744.95L745.01 169.97L745.1 170.07L745.21 170.2L745.28 170.3L745.35 170.39C745.347 170.407 745.347 170.423 745.35 170.44L745.44 170.6C745.482 170.667 745.519 170.737 745.55 170.81C745.565 170.844 745.581 170.878 745.6 170.91V171.24V171.35L745.66 171.53C745.641 171.605 745.641 171.685 745.66 171.76C745.71 171.84 745.66 171.76 745.66 171.82V172.57V172.78C745.597 173.08 745.466 173.361 745.277 173.602C745.088 173.843 744.846 174.037 744.57 174.17H744.46L745.02 173.96L745.14 173.91C745.417 173.78 745.659 173.586 745.847 173.345C746.034 173.103 746.162 172.82 746.22 172.52C746.232 172.487 746.242 172.454 746.25 172.42Z" fill="#470BC5"/>
<path d="M745.63 165.53H744.31L743.74 165.74H743.94H744.94H745.04H745.13H745.24L745.41 165.83H745.46L745.58 165.9H745.63L745.73 165.97H745.78L745.87 166.06H745.93L746.02 166.16L746.14 166.3L746.25 166.47C746.299 166.533 746.343 166.6 746.38 166.67L749.24 171.79V171.88V171.94V172.01V172.1V172.23V172.65C749.25 172.706 749.25 172.764 749.24 172.82C749.197 173.045 749.097 173.254 748.95 173.429C748.803 173.604 748.614 173.739 748.4 173.82L748.96 173.62C749.173 173.538 749.362 173.403 749.509 173.228C749.656 173.053 749.756 172.844 749.8 172.62V172.04V171.9V171.82V171.68L747.04 166.76L746.92 166.56L746.8 166.4C746.764 166.359 746.731 166.315 746.7 166.27L746.6 166.17L746.55 166.12H746.5L746.4 166.04H746.34L746.25 165.99H746.2L746.03 165.9H745.91L745.63 165.53Z" fill="#470BC5"/>
<path d="M742.7 176.43L743.26 176.22H743.18L742.62 176.43H742.7Z" fill="#958778"/>
<path d="M743.45 165.74L744.01 165.53L744.21 165.47L743.65 165.68L743.45 165.74Z" fill="#B8A795"/>
<path d="M743.67 165.68L744.23 165.47H744.33L743.76 165.68H743.67Z" fill="#BDAC99"/>
<path d="M748.63 174.07L749.19 173.87H749.06L748.49 174.08L748.63 174.07Z" fill="#958778"/>
<path d="M745.3 170.81C745.155 170.466 744.919 170.169 744.618 169.948C744.317 169.728 743.961 169.594 743.59 169.56L743.36 169.5L740.58 168.75C740.221 168.642 739.834 168.678 739.5 168.85C739.185 169.036 738.939 169.321 738.8 169.66C738.746 169.769 738.703 169.883 738.67 170C738.62 170.268 738.62 170.542 738.67 170.81C738.709 171.236 738.846 171.646 739.07 172.01L741.19 175.75C741.31 176.017 741.52 176.233 741.783 176.361C742.046 176.489 742.346 176.52 742.63 176.45H742.71L739.87 171.5C739.772 171.346 739.71 171.171 739.69 170.99C739.68 170.89 739.68 170.79 739.69 170.69C739.707 170.621 739.731 170.554 739.76 170.49C739.819 170.354 739.926 170.243 740.06 170.18C740.13 170.15 740.204 170.135 740.28 170.135C740.356 170.135 740.43 170.15 740.5 170.18L743.21 170.98L743.46 171.05C743.592 171.07 743.717 171.121 743.825 171.199C743.933 171.278 744.02 171.381 744.08 171.5C744.228 171.75 744.281 172.044 744.23 172.33C744.208 172.451 744.159 172.565 744.085 172.664C744.012 172.762 743.917 172.843 743.808 172.899C743.699 172.955 743.578 172.985 743.455 172.987C743.333 172.989 743.211 172.963 743.1 172.91C742.835 172.812 742.612 172.624 742.47 172.38C742.4 172.26 742.357 172.126 742.345 171.988C742.333 171.85 742.352 171.71 742.4 171.58L742.46 171.28V171.2L741.21 170.81V171.06C741.116 171.374 741.094 171.705 741.146 172.029C741.198 172.353 741.323 172.661 741.51 172.93C741.811 173.483 742.285 173.922 742.86 174.18C743.122 174.3 743.407 174.363 743.695 174.363C743.983 174.363 744.268 174.3 744.53 174.18C744.809 174.052 745.054 173.859 745.243 173.617C745.433 173.375 745.562 173.092 745.62 172.79C745.752 172.113 745.639 171.411 745.3 170.81Z" fill="#DAD4FF"/>
<path d="M743.74 165.62C743.26 165.749 742.826 166.013 742.49 166.38C742.182 166.738 741.969 167.168 741.87 167.63V167.74L741.79 168.16L741.72 168.58L743.08 168.88V168.64L743.16 168.21V168.16C743.198 167.967 743.292 167.79 743.43 167.65C743.574 167.505 743.759 167.407 743.96 167.37C744.171 167.339 744.386 167.371 744.58 167.46C744.782 167.56 744.944 167.726 745.04 167.93L748.52 174.1H748.65C748.851 174.022 749.031 173.897 749.174 173.736C749.317 173.574 749.418 173.38 749.47 173.17C749.54 172.829 749.487 172.475 749.32 172.17L746.45 167.07C746.183 166.572 745.767 166.169 745.26 165.92C744.8 165.655 744.266 165.55 743.74 165.62Z" fill="#DAD4FF"/>
<g opacity="0.65">
<path d="M661.7 30.29C660.819 29.9606 660.102 29.3005 659.7 28.45C659.358 27.7644 659.16 27.0155 659.12 26.25C659.073 25.6005 659.117 24.9475 659.25 24.31C659.315 23.9714 659.402 23.6374 659.51 23.31C659.61 23.03 659.71 22.76 659.83 22.5C660.09 21.915 660.426 21.3669 660.83 20.87C661.301 20.298 661.878 19.8226 662.53 19.47C662.967 19.2186 663.451 19.0612 663.952 19.0079C664.454 18.9545 664.96 19.0063 665.44 19.16L667.59 19.87L667.64 21.37C667.895 22.0068 668.034 22.6842 668.05 23.37C668.079 24.018 668.022 24.667 667.88 25.3C667.819 25.5807 667.742 25.8578 667.65 26.13C667.539 26.4542 667.409 26.7714 667.26 27.08C666.977 27.6642 666.613 28.206 666.18 28.69C665.777 29.1569 665.301 29.5554 664.77 29.87L663.81 31L661.7 30.29Z" fill="#370097"/>
<path d="M668.04 21L663.04 19.42C663.912 18.9778 664.92 18.8814 665.86 19.15L667.91 19.8L668.04 21Z" fill="#37058C"/>
<path d="M662.09 30.13C661.624 29.929 661.203 29.6371 660.851 29.2713C660.499 28.9056 660.223 28.4734 660.04 28L665.04 30L664.2 31L662.09 30.13Z" fill="#5F1DE0"/>
<path d="M668.04 23L661.04 20.45C661.49 19.8636 662.051 19.3709 662.69 19L667.69 20.82V20.98C667.936 21.6192 668.071 22.2955 668.09 22.98L668.04 23Z" fill="#380894"/>
<path d="M667.88 25L660.04 22.47C660.301 21.9344 660.638 21.4392 661.04 21L668.04 23.25C668.067 23.8379 668.013 24.4268 667.88 25Z" fill="#3D1097"/>
<path d="M667.46 26L660.04 23.57C660.099 23.2746 660.179 22.9838 660.28 22.7C660.37 22.46 660.47 22.23 660.58 22L668.04 24.44C667.98 24.69 667.91 24.93 667.83 25.17C667.75 25.41 667.6 25.73 667.47 26H667.46Z" fill="#400CAE"/>
<path d="M666.04 28L659.04 25.77C658.993 25.1768 659.037 24.58 659.17 24L667.04 26.52C666.775 27.0562 666.439 27.554 666.04 28Z" fill="#470BC5"/>
<path d="M664.55 30L659.62 28.24C659.278 27.5398 659.081 26.778 659.04 26L666.04 28.5C665.645 28.9698 665.175 29.3718 664.65 29.69L664.55 30Z" fill="#4D15CD"/>
<path d="M670.188 26.3938C671.213 23.3883 670.133 20.2998 667.776 19.4955C665.419 18.6911 662.676 20.4755 661.651 23.481C660.625 26.4865 661.705 29.575 664.062 30.3794C666.42 31.1837 669.162 29.3993 670.188 26.3938Z" fill="url(#paint22_linear_137_46767)"/>
<path d="M664.1 30C663.42 29.7915 662.806 29.4088 662.32 28.89C661.867 28.3799 661.526 27.7802 661.32 27.13C661.117 26.4837 661.029 25.8068 661.06 25.13C661.088 24.4475 661.22 23.7731 661.45 23.13C661.695 22.4821 662.032 21.8725 662.45 21.32C662.876 20.7611 663.389 20.2749 663.97 19.88C664.575 19.4767 665.255 19.2011 665.97 19.07C666.678 18.9392 667.408 18.9908 668.09 19.22C667.403 19.0083 666.672 18.9807 665.97 19.14C665.274 19.2888 664.616 19.5818 664.04 20C663.476 20.3941 662.977 20.8731 662.56 21.42C661.751 22.5077 661.275 23.807 661.19 25.16C661.155 25.8362 661.24 26.5132 661.44 27.16C661.637 27.8084 661.979 28.4035 662.44 28.9C662.671 29.1577 662.933 29.3861 663.22 29.58C663.497 29.752 663.792 29.8928 664.1 30Z" fill="#8A67FB"/>
<path d="M662.39 23.76C662.81 22.4593 663.673 21.3477 664.83 20.62C665.237 20.3174 665.711 20.1181 666.212 20.0394C666.713 19.9607 667.226 20.0049 667.706 20.1682C668.186 20.3315 668.62 20.6091 668.969 20.9769C669.318 21.3448 669.572 21.792 669.71 22.28C670.15 23.5664 670.149 24.9625 669.707 26.2481C669.265 27.5337 668.408 28.6356 667.27 29.38C666.863 29.6827 666.389 29.882 665.888 29.9607C665.387 30.0394 664.874 29.9951 664.394 29.8318C663.914 29.6685 663.481 29.391 663.132 29.0231C662.783 28.6552 662.528 28.208 662.39 27.72C661.92 26.4418 661.92 25.0382 662.39 23.76Z" fill="url(#paint23_linear_137_46767)"/>
<path d="M664.53 20.66C664.889 20.4275 665.279 20.2489 665.69 20.13C666.127 19.9965 666.586 19.9523 667.04 20C667.258 20.0287 667.472 20.079 667.68 20.15C667.887 20.2243 668.085 20.3216 668.27 20.44C668.637 20.6788 668.956 20.9841 669.21 21.34C669.704 22.0489 669.998 22.8781 670.06 23.74C670.128 24.5881 670.012 25.4409 669.72 26.24C669.438 27.0514 668.988 27.7942 668.4 28.42C667.802 29.064 667.047 29.5428 666.21 29.81C665.784 29.9477 665.336 30.002 664.89 29.97C664.447 29.9487 664.015 29.8219 663.63 29.6C663.243 29.3872 662.903 29.098 662.63 28.75C662.376 28.4134 662.177 28.0388 662.04 27.64C662.212 28.0212 662.434 28.3777 662.7 28.7C662.981 29.0156 663.321 29.2737 663.7 29.46C663.886 29.5523 664.08 29.626 664.28 29.68C664.483 29.7318 664.691 29.7587 664.9 29.76C665.315 29.7719 665.728 29.7075 666.12 29.57C666.51 29.4376 666.88 29.2525 667.22 29.02C667.559 28.7892 667.871 28.5208 668.15 28.22C668.429 27.9145 668.674 27.5791 668.88 27.22C669.085 26.872 669.253 26.5033 669.38 26.12C669.52 25.7413 669.62 25.3493 669.68 24.95C669.72 24.551 669.72 24.149 669.68 23.75C669.652 23.3496 669.578 22.9536 669.46 22.57C669.341 22.1868 669.173 21.8205 668.96 21.48C668.732 21.1406 668.444 20.8457 668.11 20.61C667.939 20.4978 667.758 20.4007 667.57 20.32C667.376 20.2427 667.175 20.1857 666.97 20.15C666.557 20.075 666.133 20.075 665.72 20.15C665.301 20.2615 664.9 20.4333 664.53 20.66Z" fill="#400CAE"/>
<path d="M667.04 28.66L666.97 28.39V28.34L667.04 28.61V28.66Z" fill="#958778"/>
<path d="M667.94 24.93C667.998 24.8365 668.033 24.73 668.04 24.62C668.05 24.537 668.05 24.453 668.04 24.37V24.32C668.009 24.2375 667.949 24.1697 667.87 24.13L667.53 24C667.609 24.0397 667.669 24.1075 667.7 24.19C667.711 24.273 667.711 24.357 667.7 24.44C667.69 24.5481 667.66 24.6534 667.61 24.75L666.04 27.86L666.38 28L667.94 24.93Z" fill="#470BC5"/>
<path d="M667.44 24L667.32 23.27L667.48 23.21L667.63 23.16C667.762 23.1101 667.908 23.1101 668.04 23.16L667.76 23.04C667.628 22.9901 667.482 22.9901 667.35 23.04L667.2 23.09L667.04 23.15L667.16 23.88L667.44 24Z" fill="#470BC5"/>
<path d="M665.44 26.39C665.436 26.3401 665.436 26.2899 665.44 26.24C665.367 25.8409 665.431 25.4288 665.62 25.07C665.689 24.8733 665.807 24.6974 665.962 24.5592C666.118 24.4209 666.307 24.3248 666.51 24.28L666.68 25.22V25.36C666.735 25.4947 666.735 25.6453 666.68 25.78C666.615 25.918 666.506 26.0306 666.37 26.1C666.319 26.1248 666.262 26.1377 666.205 26.1377C666.148 26.1377 666.092 26.1248 666.04 26.1L666.36 26.23C666.412 26.2548 666.468 26.2677 666.525 26.2677C666.582 26.2677 666.639 26.2548 666.69 26.23C666.823 26.16 666.929 26.0473 666.99 25.91C667.022 25.8429 667.039 25.7694 667.039 25.695C667.039 25.6206 667.022 25.5472 666.99 25.48C666.993 25.4334 666.993 25.3867 666.99 25.34L666.67 23.56V23.45C666.662 23.3636 666.631 23.2809 666.58 23.21C666.539 23.1626 666.488 23.125 666.43 23.1L666.11 22.97C666.167 22.9915 666.218 23.0257 666.26 23.07C666.303 23.1313 666.337 23.1987 666.36 23.27C666.37 23.306 666.37 23.3441 666.36 23.38L666.5 24.17L666.26 24.07H666.13C665.93 24.1127 665.744 24.2058 665.59 24.3406C665.436 24.4754 665.319 24.6473 665.25 24.84C665.033 25.2218 664.958 25.6684 665.04 26.1C665.036 26.1499 665.036 26.2001 665.04 26.25C665.08 26.3848 665.148 26.5097 665.239 26.6165C665.33 26.7234 665.443 26.8097 665.57 26.87L666.04 27C665.901 26.9491 665.775 26.8679 665.672 26.7624C665.568 26.657 665.489 26.5298 665.44 26.39Z" fill="#470BC5"/>
<path d="M663.46 26.6C663.421 26.4864 663.407 26.3654 663.421 26.2459C663.435 26.1264 663.476 26.0116 663.54 25.91L665.25 23C665.41 22.718 665.646 22.486 665.93 22.33C666.193 22.1782 666.5 22.1217 666.8 22.17C666.882 22.1768 666.962 22.1936 667.04 22.22L666.67 22.09C666.59 22.0594 666.506 22.0392 666.42 22.03C666.122 21.9887 665.82 22.0485 665.56 22.2C665.272 22.3505 665.035 22.5838 664.88 22.87L663.16 25.8C663.096 25.8998 663.055 26.0129 663.041 26.1308C663.028 26.2486 663.041 26.3681 663.08 26.48C663.117 26.5757 663.175 26.6621 663.249 26.7329C663.324 26.8038 663.413 26.8574 663.51 26.89L663.88 27.02C663.783 26.9857 663.695 26.9302 663.623 26.8575C663.55 26.7849 663.494 26.6969 663.46 26.6Z" fill="#470BC5"/>
<path d="M667.04 25V24.88L666.79 23.09C666.772 22.9956 666.748 22.9021 666.72 22.81C666.679 22.6415 666.6 22.4844 666.49 22.35C666.348 22.1557 666.137 22.0233 665.9 21.98C665.647 21.9426 665.39 22.0034 665.18 22.15C664.931 22.3239 664.734 22.5625 664.61 22.84L663.19 25.84C663.08 26.0568 663.059 26.3077 663.13 26.54C663.154 26.6315 663.198 26.7167 663.258 26.7893C663.319 26.8619 663.394 26.9202 663.48 26.96H663.54L665.25 23.32C665.304 23.2101 665.383 23.1143 665.48 23.04C665.563 22.9776 665.667 22.949 665.77 22.96C665.869 22.9741 665.96 23.0197 666.03 23.09C666.077 23.149 666.111 23.2171 666.13 23.29V23.4L666.44 25.2C666.434 25.2465 666.434 25.2936 666.44 25.34C666.496 25.4814 666.496 25.6387 666.44 25.78C666.376 25.9183 666.272 26.0335 666.14 26.11C666.087 26.1398 666.026 26.1554 665.965 26.1554C665.904 26.1554 665.844 26.1398 665.79 26.11C665.7 26.0509 665.633 25.9627 665.6 25.86V25.8C665.577 25.6291 665.605 25.4551 665.68 25.3C665.708 25.2273 665.754 25.1627 665.813 25.112C665.873 25.0614 665.944 25.0264 666.02 25.01L666.21 24.93L666.04 24.12L665.92 24.17C665.713 24.2181 665.523 24.3202 665.368 24.466C665.213 24.6119 665.1 24.7961 665.04 25C664.859 25.3687 664.799 25.7854 664.87 26.19V26.34C664.905 26.4712 664.967 26.5939 665.051 26.7005C665.136 26.8071 665.241 26.8954 665.36 26.96C665.491 27.019 665.633 27.0453 665.776 27.0366C665.919 27.0279 666.058 26.9844 666.18 26.91C666.477 26.7344 666.714 26.4729 666.86 26.16C666.971 25.9904 667.044 25.7993 667.075 25.5994C667.106 25.3994 667.094 25.1951 667.04 25Z" fill="#DAD4FF"/>
<path d="M667.79 27.53L668.84 25.11C668.944 24.8651 669.008 24.6052 669.03 24.34C669.05 24.1116 669.03 23.8813 668.97 23.66V23.59C668.908 23.3909 668.786 23.2161 668.62 23.09C668.542 23.0407 668.453 23.0105 668.361 23.0018C668.269 22.9931 668.176 23.0062 668.09 23.04L667.92 23.11L667.75 23.18L667.88 24.06H667.96L668.12 23.99C668.153 23.9707 668.191 23.9605 668.23 23.9605C668.269 23.9605 668.307 23.9707 668.34 23.99C668.413 24.0312 668.467 24.0995 668.49 24.18V24.23C668.499 24.3164 668.499 24.4036 668.49 24.49C668.481 24.6047 668.451 24.7168 668.4 24.82L667.04 28C667.202 28.0334 667.37 28.0031 667.509 27.9155C667.649 27.828 667.75 27.6899 667.79 27.53Z" fill="#DAD4FF"/>
</g>
<path opacity="0.667528" fill-rule="evenodd" clip-rule="evenodd" d="M363.693 85C345.932 85 332.739 71.3835 332.739 54.1669V54C332.739 36.9576 345.676 23 364.212 23C375.6 23 382.412 26.767 388.011 32.247L379.561 41.9223C374.906 37.727 370.162 35.1576 364.125 35.1576C353.95 35.1576 346.619 43.5481 346.619 53.8258V54C346.619 64.2777 353.782 72.8715 364.125 72.8715C371.024 72.8715 375.249 70.1351 379.993 65.8527L388.442 74.2796C382.237 80.8846 375.337 85 363.693 85ZM98.166 44.8328V83.9693H111.388V24.0234H97.077L81.2088 49.3765L65.3406 24.0234H51V83.9693H64.0249V45.0941L80.836 70.4399H81.1795L98.166 44.8328ZM125.853 83.9693H149.396C168.4 83.9693 181.476 70.8682 181.476 54V53.8258C181.476 36.9576 168.4 24.0234 149.396 24.0234H125.853V83.9693ZM167.588 54C167.588 43.3812 160.279 35.9269 149.396 35.9269H139.163V72.1021H149.396C160.265 72.1021 167.588 64.8438 167.588 54.2032V54ZM193.295 24.0234V83.9693H239.255V72.24H206.488V59.6469H234.913V47.9176H206.488V35.76H238.824V24.0234H193.295ZM288.752 83.9693L275.216 63.3922L261.592 83.9693H246.498L267.541 53.4847L247.339 24.0234H262.863L275.537 43.4683L288.299 24.0234H303.393L283.234 53.3105L304.277 83.9693H288.752ZM312.303 70.2657V83.9693H326.278V70.2657H312.303ZM394.655 54.1669C394.655 71.2093 408.023 85 426.647 85C445.278 85 458.815 71.0424 458.807 54V53.8258C458.807 36.7907 445.432 23 426.815 23C408.199 23 394.655 36.9576 394.655 54V54.1669ZM444.92 54C444.92 43.7223 437.326 35.1285 426.647 35.1285C415.968 35.1285 408.542 43.5191 408.542 53.7968V53.971C408.542 64.2487 416.129 72.8424 426.815 72.8424C437.501 72.8424 444.927 64.4519 444.927 54.1742L444.92 54ZM517.778 44.8328V83.9693H531V24.0234H516.681L500.813 49.3765L484.945 24.0234H470.634V83.9693H483.659V45.0941L500.47 70.4399H500.813L517.778 44.8328Z" fill="url(#paint24_linear_137_46767)"/>
<path d="M139.72 103H151.12V79L161.8 95.32H162.04L172.78 78.88V103H184.36V61H172.06L162.04 77.26L152.02 61H139.72V103ZM191.81 103H207.77C222.89 103 231.71 94 231.71 81.88V81.76C231.71 69.64 223.01 61 208.01 61H191.81V103ZM203.45 92.68V71.32H208.19C215.15 71.32 219.77 75.22 219.77 81.94V82.06C219.77 88.84 215.15 92.68 208.19 92.68H203.45ZM237.689 103H271.769V93.1H249.209V86.44H269.369V77.26H249.209V70.9H271.469V61H237.689V103ZM274.648 103H287.728L295.828 90.34L303.868 103H317.248L302.848 81.52L316.648 61H303.568L296.068 72.82L288.628 61H275.248L289.048 81.64L274.648 103Z" fill="white"/>
<path d="M139.72 103H151.12V79L161.8 95.32H162.04L172.78 78.88V103H184.36V61H172.06L162.04 77.26L152.02 61H139.72V103Z" fill="white"/>
<path d="M191.81 103H207.77C222.89 103 231.71 94 231.71 81.88V81.76C231.71 69.64 223.01 61 208.01 61H191.81V103ZM203.45 92.68V71.32H208.19C215.15 71.32 219.77 75.22 219.77 81.94V82.06C219.77 88.84 215.15 92.68 208.19 92.68H203.45Z" fill="white"/>
<path d="M237.689 103H271.769V93.1H249.209V86.44H269.369V77.26H249.209V70.9H271.469V61H237.689V103Z" fill="white"/>
<path d="M274.648 103H287.728L295.828 90.34L303.868 103H317.248L302.848 81.52L316.648 61H303.568L296.068 72.82L288.628 61H275.248L289.048 81.64L274.648 103Z" fill="white"/>
</g>
<defs>
<linearGradient id="paint0_linear_137_46767" x1="846.918" y1="214.381" x2="846.918" y2="2.04389" gradientUnits="userSpaceOnUse">
<stop stop-color="#1D1254"/>
<stop offset="1" stop-color="#2F1499"/>
</linearGradient>
<linearGradient id="paint1_linear_137_46767" x1="738.65" y1="15" x2="738.65" y2="69" gradientUnits="userSpaceOnUse">
<stop stop-color="#5945FF"/>
<stop offset="1" stop-color="#7834FF" stop-opacity="0.01"/>
</linearGradient>
<linearGradient id="paint2_linear_137_46767" x1="613.65" y1="0" x2="613.65" y2="54" gradientUnits="userSpaceOnUse">
<stop stop-color="#5945FF"/>
<stop offset="1" stop-color="#7834FF" stop-opacity="0.01"/>
</linearGradient>
<linearGradient id="paint3_linear_137_46767" x1="574.65" y1="113" x2="574.65" y2="167" gradientUnits="userSpaceOnUse">
<stop stop-color="#5945FF"/>
<stop offset="1" stop-color="#7834FF" stop-opacity="0.01"/>
</linearGradient>
<linearGradient id="paint4_linear_137_46767" x1="778.51" y1="78" x2="778.51" y2="129" gradientUnits="userSpaceOnUse">
<stop stop-color="#5945FF"/>
<stop offset="1" stop-color="#7834FF" stop-opacity="0.01"/>
</linearGradient>
<linearGradient id="paint5_linear_137_46767" x1="759.51" y1="142" x2="759.51" y2="193" gradientUnits="userSpaceOnUse">
<stop stop-color="#5945FF"/>
<stop offset="1" stop-color="#7834FF" stop-opacity="0.01"/>
</linearGradient>
<linearGradient id="paint6_linear_137_46767" x1="697.04" y1="256" x2="697.04" y2="127" gradientUnits="userSpaceOnUse">
<stop stop-color="#9A55FF"/>
<stop offset="1" stop-color="#D1CBFF" stop-opacity="0.01"/>
</linearGradient>
<linearGradient id="paint7_linear_137_46767" x1="726.05" y1="48" x2="773.48" y2="48" gradientUnits="userSpaceOnUse">
<stop stop-color="#5412D9"/>
<stop offset="0.34" stop-color="#5318D9"/>
<stop offset="0.66" stop-color="#5615DD"/>
<stop offset="1" stop-color="#632CF9"/>
</linearGradient>
<linearGradient id="paint8_linear_137_46767" x1="640.48" y1="118.5" x2="686.04" y2="118.5" gradientUnits="userSpaceOnUse">
<stop stop-color="#401192"/>
<stop offset="0.47" stop-color="#6934F8"/>
<stop offset="0.74" stop-color="#5C1CDA"/>
<stop offset="1" stop-color="#5A23C4"/>
</linearGradient>
<linearGradient id="paint9_linear_137_46767" x1="652.04" y1="112.5" x2="748.04" y2="112.5" gradientUnits="userSpaceOnUse">
<stop stop-color="#634AE8"/>
<stop offset="0.63" stop-color="#7241E6"/>
<stop offset="1" stop-color="#793CE5"/>
</linearGradient>
<linearGradient id="paint10_linear_137_46767" x1="714.04" y1="53" x2="748.04" y2="53" gradientUnits="userSpaceOnUse">
<stop stop-color="#5D4AFA"/>
<stop offset="0.15" stop-color="#6248F7"/>
<stop offset="0.72" stop-color="#703FEA"/>
<stop offset="1" stop-color="#773CE5"/>
</linearGradient>
<linearGradient id="paint11_linear_137_46767" x1="652.04" y1="112" x2="701.04" y2="112" gradientUnits="userSpaceOnUse">
<stop stop-color="#5D4AFA"/>
<stop offset="0.15" stop-color="#6248F7"/>
<stop offset="0.72" stop-color="#703FEA"/>
<stop offset="1" stop-color="#773CE5"/>
</linearGradient>
<linearGradient id="paint12_linear_137_46767" x1="672.91" y1="114" x2="742.04" y2="114" gradientUnits="userSpaceOnUse">
<stop stop-color="#45159C"/>
<stop offset="0.25" stop-color="#4818A5"/>
<stop offset="0.64" stop-color="#6023C4"/>
<stop offset="1" stop-color="#5A23C4"/>
</linearGradient>
<linearGradient id="paint13_linear_137_46767" x1="662.04" y1="113.5" x2="742.04" y2="113.5" gradientUnits="userSpaceOnUse">
<stop stop-color="#884BEF"/>
<stop offset="0.3" stop-color="#7C4AEE"/>
<stop offset="0.51" stop-color="#764AED"/>
<stop offset="0.71" stop-color="#7A4AEC"/>
<stop offset="1" stop-color="#854AE8"/>
</linearGradient>
<linearGradient id="paint14_linear_137_46767" x1="658.83" y1="84.68" x2="742.25" y2="133.08" gradientUnits="userSpaceOnUse">
<stop stop-color="#622AF7"/>
<stop offset="1" stop-color="#5412D9"/>
</linearGradient>
<linearGradient id="paint15_linear_137_46767" x1="700.04" y1="49.99" x2="611.03" y2="50.02" gradientUnits="userSpaceOnUse">
<stop stop-color="#380894"/>
<stop offset="0.55" stop-color="#4800E3"/>
<stop offset="0.83" stop-color="#6732F5"/>
<stop offset="1" stop-color="#6731F3"/>
</linearGradient>
<linearGradient id="paint16_linear_137_46767" x1="607.085" y1="185.444" x2="640.922" y2="172.534" gradientUnits="userSpaceOnUse">
<stop stop-color="#754AFD"/>
<stop offset="1" stop-color="#5411DA"/>
</linearGradient>
<linearGradient id="paint17_linear_137_46767" x1="646.86" y1="183.04" x2="612.63" y2="176.98" gradientUnits="userSpaceOnUse">
<stop stop-color="#500AD0"/>
<stop offset="1" stop-color="#632CF9"/>
</linearGradient>
<linearGradient id="paint18_linear_137_46767" x1="788.432" y1="101.324" x2="801.727" y2="109.509" gradientUnits="userSpaceOnUse">
<stop stop-color="#5411DA"/>
<stop offset="1" stop-color="#754AFD"/>
</linearGradient>
<linearGradient id="paint19_linear_137_46767" x1="781.38" y1="105.26" x2="803.01" y2="104.6" gradientUnits="userSpaceOnUse">
<stop stop-color="#500AD0"/>
<stop offset="1" stop-color="#632CF9"/>
</linearGradient>
<linearGradient id="paint20_linear_137_46767" x1="741.158" y1="161.423" x2="747.758" y2="180.768" gradientUnits="userSpaceOnUse">
<stop stop-color="#754AFD"/>
<stop offset="1" stop-color="#5411DA"/>
</linearGradient>
<linearGradient id="paint21_linear_137_46767" x1="741.11" y1="164.13" x2="748.08" y2="178.09" gradientUnits="userSpaceOnUse">
<stop stop-color="#632CF9"/>
<stop offset="1" stop-color="#500AD0"/>
</linearGradient>
<linearGradient id="paint22_linear_137_46767" x1="667.776" y1="19.4955" x2="664.062" y2="30.3794" gradientUnits="userSpaceOnUse">
<stop stop-color="#754AFD"/>
<stop offset="1" stop-color="#5411DA"/>
</linearGradient>
<linearGradient id="paint23_linear_137_46767" x1="667.99" y1="21.27" x2="664.02" y2="28.87" gradientUnits="userSpaceOnUse">
<stop stop-color="#632CF9"/>
<stop offset="1" stop-color="#500AD0"/>
</linearGradient>
<linearGradient id="paint24_linear_137_46767" x1="529.727" y1="84.672" x2="529.727" y2="23" gradientUnits="userSpaceOnUse">
<stop stop-color="#2D1886"/>
<stop offset="1" stop-color="#4724AA"/>
</linearGradient>
<clipPath id="clip0_137_46767">
<rect width="860" height="219" rx="40" fill="white"/>
</clipPath>
</defs>
</svg>
