<svg width="860" height="219" viewBox="0 0 860 219" fill="none" xmlns="http://www.w3.org/2000/svg">
<g clip-path="url(#clip0_25_61873)">
<rect width="860" height="219" rx="40" fill="url(#paint0_linear_25_61873)"/>
<rect opacity="0.04" x="736" y="15" width="5.22581" height="54" rx="2.6129" fill="url(#paint1_linear_25_61873)"/>
<rect opacity="0.0828359" x="611" width="5.22581" height="54" rx="2.6129" fill="url(#paint2_linear_25_61873)"/>
<rect opacity="0.14929" x="572" y="113" width="5.22581" height="54" rx="2.6129" fill="url(#paint3_linear_25_61873)"/>
<rect opacity="0.0828359" x="776" y="78" width="4.93548" height="51" rx="2.46774" fill="url(#paint4_linear_25_61873)"/>
<rect opacity="0.268966" x="757" y="142" width="4.93548" height="51" rx="2.46774" fill="url(#paint5_linear_25_61873)"/>
<path opacity="0.4" fill-rule="evenodd" clip-rule="evenodd" d="M696.999 256C640.975 256 588.298 249.326 548.673 237.208C529.384 231.317 514.229 224.434 503.637 216.775C492.596 208.795 487 200.289 487 191.5C487 182.711 492.596 174.208 503.637 166.225C514.229 158.566 529.382 151.691 548.673 145.792C588.298 133.674 640.975 127 696.999 127C753.022 127 805.699 133.674 845.324 145.792C864.613 151.683 879.768 158.566 890.361 166.225C901.401 174.208 907 182.711 907 191.5C907 200.289 901.401 208.795 890.361 216.775C879.768 224.434 864.616 231.309 845.324 237.208C805.699 249.326 753.025 256 696.999 256ZM696.999 127.803C581.649 127.803 487.804 156.378 487.804 191.5C487.804 226.622 581.649 255.197 696.999 255.197C812.348 255.197 906.196 226.622 906.196 191.5C906.196 156.378 812.351 127.803 696.999 127.803ZM561.152 234.052C597.635 244.992 645.744 250.997 696.818 250.997L698.638 251C740.954 250.882 781.042 246.677 814.571 238.846C830.711 235.069 844.768 230.572 856.351 225.472C868.114 220.29 877.051 214.606 882.913 208.577C888.441 202.891 891.159 196.958 890.993 190.942C890.551 174.979 869.902 160.062 832.85 148.948C796.367 138.008 748.256 132 697.185 132H695.365C653.049 132.118 612.958 136.323 579.431 144.154C563.289 147.931 549.232 152.428 537.651 157.528C525.889 162.71 516.952 168.394 511.087 174.423C505.559 180.109 502.841 186.042 503.007 192.058C503.449 208.021 524.098 222.938 561.152 234.052ZM695.368 132.797H697.169C802.876 132.797 889.299 158.772 890.197 190.969C890.358 196.757 887.706 202.495 882.345 208.021C870.853 219.841 846.723 230.508 814.397 238.062C780.938 245.88 740.9 250.075 698.643 250.195H696.834C591.127 250.195 504.701 224.214 503.811 192.026C503.651 186.237 506.304 180.5 511.666 174.974C523.155 163.154 547.288 152.486 579.624 144.933C613.084 137.106 653.11 132.917 695.368 132.797ZM696.639 246C650.505 246 606.961 240.61 573.642 230.754C539.31 220.598 519.917 206.875 519.032 192.113C518.696 186.54 521.022 181.034 525.947 175.748C531.153 170.156 539.189 164.879 549.819 160.057C560.293 155.311 573.055 151.117 587.748 147.584C618.278 140.251 654.922 136.248 693.724 136.011C741.2 135.72 786.165 141.132 820.358 151.244C854.691 161.402 874.084 175.123 874.969 189.887C875.301 195.461 872.976 200.967 868.054 206.252C862.848 211.842 854.812 217.122 844.182 221.943C833.721 226.687 820.946 230.883 806.252 234.414C775.72 241.747 739.078 245.755 700.274 245.989C699.064 245.995 697.838 246 696.639 246ZM697.361 136.809H693.729C654.984 137.046 618.406 141.04 587.947 148.36C558.533 155.43 536.716 165.34 526.523 176.29C521.757 181.411 519.504 186.71 519.818 192.054C520.252 199.29 525.316 206.306 534.873 212.906C544.17 219.326 557.286 225.067 573.854 229.967C607.098 239.801 650.566 245.181 696.621 245.181H700.255C738.998 244.944 775.575 240.947 806.035 233.627C835.449 226.56 857.266 216.647 867.458 205.7C872.225 200.579 874.478 195.277 874.164 189.936C873.732 182.696 868.665 175.681 859.111 169.083C849.812 162.663 836.698 156.923 820.13 152.02C786.889 142.186 743.407 136.809 697.361 136.809ZM586.152 226.727C616.29 235.322 655.277 240 696.462 240C698.273 240 700.096 239.987 701.913 239.973C737.19 239.619 770.374 235.893 797.873 229.198C811.127 225.973 822.592 222.156 831.959 217.857C841.468 213.486 848.599 208.71 853.162 203.664C857.489 198.869 859.426 193.885 858.922 188.845C857.593 175.564 839.455 163.288 807.849 154.276C776.378 145.292 735.263 140.596 692.079 141.027C656.801 141.371 623.62 145.103 596.129 151.803C582.873 155.028 571.41 158.845 562.043 163.147C552.531 167.518 545.403 172.291 540.84 177.339C536.513 182.131 534.576 187.118 535.077 192.155C536.409 205.437 554.547 217.716 586.152 226.727ZM550.301 210.756C541.377 204.869 536.521 198.576 535.872 192.076C535.392 187.27 537.262 182.491 541.43 177.886C550.33 168.024 569.813 159.031 596.311 152.581C623.76 145.902 656.871 142.171 692.087 141.827C735.201 141.398 776.225 146.091 807.627 155.044C822.871 159.383 835.005 164.498 843.693 170.236C852.615 176.124 857.47 182.417 858.122 188.917C858.602 193.723 856.732 198.502 852.561 203.12C843.661 212.979 824.173 221.961 797.683 228.414C770.24 235.096 737.12 238.814 701.904 239.166C658.803 239.6 617.769 234.904 586.367 225.949C571.12 221.61 558.986 216.498 550.301 210.756ZM696.299 234C660.048 234 625.634 229.978 598.682 222.548C569.81 214.59 552.933 203.635 551.153 191.713C550.479 187.154 552.031 182.635 555.791 178.265C563.629 169.142 580.495 161.141 604.55 155.123C629.023 149.009 658.727 145.522 690.454 145.054C729.328 144.479 766.584 148.528 795.316 156.452C824.188 164.411 841.065 175.363 842.845 187.287C843.524 191.846 841.97 196.37 838.224 200.727C830.385 209.85 813.519 217.851 789.465 223.87C764.994 229.983 735.289 233.471 703.56 233.939C701.136 233.984 698.711 234 696.299 234ZM697.704 145.798C695.293 145.798 692.876 145.816 690.454 145.851C658.786 146.319 629.147 149.793 604.735 155.897C581.177 161.787 564.01 169.916 556.4 178.781C552.813 182.957 551.32 187.266 551.961 191.588C552.829 197.418 557.472 203.035 565.761 208.287C573.836 213.404 584.985 217.944 598.905 221.78C625.787 229.191 660.129 233.211 696.305 233.211C698.716 233.211 701.133 233.193 703.555 233.157C735.22 232.69 764.862 229.215 789.274 223.112C812.829 217.221 829.999 209.093 837.609 200.227C841.196 196.051 842.689 191.742 842.045 187.418C841.177 181.591 836.535 175.974 828.245 170.719C820.173 165.604 809.021 161.064 795.101 157.228C768.224 149.809 733.872 145.798 697.704 145.798ZM611.068 219.238C634.71 225.586 664.45 229 695.646 229C698.645 229.002 701.654 228.97 704.672 228.906C732.716 228.316 758.822 225.044 780.171 219.441C801.166 213.93 815.718 206.673 822.25 198.458C825.415 194.475 826.585 190.356 825.728 186.212C823.515 175.503 807.963 165.755 781.931 158.765C756.028 151.806 722.777 148.373 688.328 149.094C660.287 149.684 634.186 152.959 612.829 158.562C591.831 164.073 577.282 171.328 570.75 179.542C567.587 183.525 566.415 187.647 567.271 191.791C569.484 202.5 585.04 212.249 611.068 219.238ZM581.17 206.528C573.552 201.861 569.129 196.846 568.058 191.627H568.053C567.247 187.728 568.366 183.831 571.376 180.044C577.708 172.081 592.5 164.727 613.03 159.339C634.317 153.753 660.359 150.489 688.341 149.899C722.729 149.178 755.889 152.602 781.731 159.541C794.275 162.912 804.401 166.913 811.829 171.472C819.451 176.142 823.871 181.154 824.942 186.373C825.75 190.273 824.631 194.17 821.621 197.956C815.289 205.919 800.497 213.273 779.967 218.661C758.68 224.25 732.636 227.514 704.656 228.101C670.278 228.823 637.129 225.39 611.269 218.46C598.724 215.091 588.599 211.087 581.17 206.528ZM695.507 224C669.222 224 644.047 221.229 623.659 216.037C600.39 210.105 586.103 201.696 583.447 192.355C582.399 188.665 583.196 184.983 585.817 181.4C591.094 174.206 603.396 167.801 621.388 162.877C639.682 157.872 662.265 154.861 686.695 154.155C716.826 153.29 746.179 156.063 769.337 161.966C792.606 167.895 806.893 176.304 809.549 185.645C810.6 189.335 809.816 193.018 807.182 196.601C801.902 203.794 789.599 210.196 771.611 215.121C753.314 220.125 730.733 223.137 706.304 223.842C702.692 223.949 699.093 224.002 695.507 224ZM584.209 192.136C589.558 210.958 644.322 224.823 706.275 223.043C730.642 222.343 753.159 219.337 771.391 214.351C788.96 209.541 801.44 203.072 806.537 196.128C809.003 192.766 809.747 189.319 808.781 185.878C803.432 167.056 748.671 153.188 686.716 154.97C662.359 155.67 639.84 158.676 621.607 163.673C604.041 168.483 591.559 174.949 586.461 181.894C583.995 185.247 583.241 188.694 584.209 192.136ZM636.295 212.802C653.376 216.858 673.987 219 695.381 219C699.538 219 703.728 218.92 707.92 218.761C749.841 217.129 783.646 207.5 792.03 194.804C794.129 191.62 794.553 188.357 793.29 185.104C790.201 177.133 777.208 170.066 756.709 165.198C736.309 160.355 710.87 158.24 685.082 159.244C643.16 160.879 609.353 170.508 600.972 183.203C598.87 186.385 598.446 189.648 599.712 192.904C602.814 200.877 615.799 207.936 636.295 212.802ZM707.893 217.961C654.882 220.026 606.689 208.654 600.459 192.612C599.292 189.611 599.69 186.592 601.642 183.637C605.543 177.731 615.722 172.161 630.306 167.956C645.465 163.584 664.418 160.839 685.114 160.042C738.122 157.977 786.316 169.349 792.548 185.391C793.712 188.391 793.314 191.41 791.365 194.366C787.464 200.269 777.283 205.839 762.698 210.046C747.54 214.415 728.59 217.164 707.893 217.961ZM695.774 214C679.136 214 662.991 212.435 649.209 209.436C631.415 205.563 619.661 199.735 616.115 193.029C614.584 190.13 614.63 187.201 616.251 184.323C622.268 173.658 649.46 165.242 683.916 163.384C705.462 162.225 727.08 163.709 744.791 167.564C762.588 171.438 774.339 177.266 777.885 183.974C779.416 186.871 779.37 189.8 777.749 192.677C771.732 203.345 744.542 211.758 710.087 213.616C705.307 213.871 700.514 214 695.774 214ZM616.827 192.648C623.962 206.148 665.78 215.197 710.044 212.811C744.235 210.969 771.165 202.717 777.053 192.28C778.53 189.657 778.573 186.992 777.179 184.35C770.041 170.85 728.226 161.801 683.962 164.19C649.768 166.031 622.84 174.281 616.955 184.718C615.473 187.341 615.43 190.009 616.827 192.648ZM661.264 205.015C671.618 206.988 683.295 208 695.215 208C700.549 208 705.901 207.796 711.219 207.395C724.576 206.374 736.475 204.135 745.633 200.927C754.66 197.763 760.443 193.868 762.317 189.667C763.505 187.04 763.141 184.402 761.246 181.827C757.261 176.404 746.781 171.845 731.738 168.982C716.761 166.132 699.015 165.288 681.772 166.61C668.417 167.633 656.519 169.869 647.361 173.077C638.334 176.236 632.572 180.133 630.682 184.329C629.497 186.956 629.858 189.594 631.753 192.17C635.738 197.592 646.218 202.154 661.264 205.015ZM711.165 206.578C675.75 209.289 640.424 202.607 632.395 191.686C630.69 189.366 630.356 187.005 631.405 184.671C635.133 176.372 655.397 169.44 681.834 167.416C717.248 164.704 752.575 171.386 760.604 182.307C762.309 184.627 762.643 186.989 761.594 189.323C757.869 197.622 737.604 204.553 711.165 206.578ZM695.341 203C674.383 203 654.951 199.02 647.832 192.652C645.39 190.464 644.502 188.065 645.266 185.72C646.266 182.653 650.016 179.747 656.115 177.317C662.28 174.86 670.577 173.003 680.099 171.95C706.886 168.983 736.076 173.199 745.168 181.347C747.61 183.536 748.498 185.932 747.734 188.28C746.731 191.347 742.981 194.252 736.885 196.68C730.72 199.14 722.41 200.997 712.901 202.05C707.07 202.688 701.207 203.005 695.341 203ZM697.753 171.79C691.883 171.782 686.017 172.096 680.182 172.73C661.374 174.812 647.966 180.002 646.028 185.953C645.357 188.009 646.143 190.06 648.365 192.055C657.31 200.068 686.218 204.194 712.805 201.251C731.615 199.169 745.021 193.979 746.962 188.028C747.632 185.972 746.844 183.921 744.621 181.926C737.641 175.677 718.477 171.79 697.753 171.79ZM663.909 193.348C670.522 196.984 682.669 198.999 695.32 198.999C701.796 199.023 708.261 198.464 714.637 197.33C726.055 195.22 733.276 191.446 733.952 187.241C734.205 185.598 733.586 183.125 729.091 180.654C719.059 175.137 696.302 173.349 678.36 176.669C666.943 178.782 659.724 182.553 659.048 186.758C658.795 188.401 659.414 190.874 663.909 193.348ZM678.5 177.465C684.852 176.334 691.291 175.777 697.742 175.801L697.729 175.804C710.223 175.804 722.195 177.784 728.695 181.363C731.925 183.138 733.465 185.126 733.147 187.111C732.536 190.907 725.385 194.519 714.484 196.534C696.698 199.825 674.18 198.077 664.289 192.636C661.056 190.861 659.517 188.873 659.837 186.888C660.448 183.092 667.597 179.48 678.5 177.465ZM695.5 195C690.18 195 684.883 194.467 680.462 193.343C674.54 191.844 671.193 189.595 671.007 187.012C670.904 185.512 671.855 183.282 676.958 181.226C685.815 177.638 701.775 176.937 712.535 179.657C718.457 181.154 721.805 183.405 721.993 185.989C722.094 187.488 721.146 189.718 716.039 191.774C710.835 193.889 703.136 195 695.5 195ZM697.479 178.794C689.957 178.794 682.382 179.886 677.255 181.967C673.619 183.44 671.68 185.211 671.799 186.956C671.945 189.105 675.242 191.202 680.658 192.568C691.281 195.256 707.021 194.566 715.743 191.034C719.382 189.561 721.318 187.789 721.201 186.045C721.053 183.895 717.742 181.799 712.342 180.432C707.972 179.327 702.736 178.794 697.479 178.794ZM696.5 191C687.81 191 681 188.804 681 186C681 183.196 687.81 181 696.5 181C705.19 181 712 183.196 712 186C712 188.804 705.193 191 696.5 191ZM696.5 181.763C687.722 181.763 681.824 183.954 681.824 186C681.824 188.046 687.722 190.237 696.5 190.237C705.278 190.237 711.176 188.046 711.176 186C711.176 183.954 705.281 181.763 696.5 181.763Z" fill="url(#paint6_linear_25_61873)"/>
<path d="M733.428 53.9939H733.753L734.946 53.9591H735.276C735.763 53.9417 736.253 53.9214 736.751 53.8954L737.059 53.878L738.337 53.8026L738.716 53.7766C739.232 53.7389 739.753 53.7012 740.283 53.6577L740.547 53.6346L741.94 53.5071L742.364 53.4636C742.915 53.4095 743.47 53.3506 744.03 53.2868L744.204 53.2665L745.767 53.0753L746.223 53.0173C746.81 52.942 747.399 52.8609 748 52.7768L735.268 45.7063C734.667 45.7932 734.077 45.8714 733.491 45.9497L733.035 46.0076L731.469 46.1989L731.298 46.2192C730.728 46.2829 730.181 46.3409 729.632 46.3959L729.208 46.4365C728.738 46.4829 728.273 46.5263 727.812 46.564L727.55 46.5872C727.02 46.6335 726.499 46.6712 725.981 46.7089L725.605 46.7321L724.326 46.8103L724.019 46.8277C723.52 46.8509 723.031 46.8741 722.544 46.8914H722.213C721.812 46.8914 721.413 46.9146 721.02 46.9233H720.696C720.228 46.9233 719.767 46.9233 719.311 46.9233H719.027C718.645 46.9233 718.266 46.9233 717.888 46.9233H717.563C717.122 46.9233 716.686 46.9059 716.259 46.8914H716.056L714.957 46.8422H714.638C714.225 46.819 713.815 46.7929 713.414 46.7639H713.306L712.212 46.6741L711.904 46.648L710.765 46.5321H710.777L709.666 46.3959L709.381 46.3583L708.416 46.2221L708.305 46.2047C707.955 46.1525 707.613 46.0946 707.274 46.0366L707.018 45.9931L706.163 45.8367L706.001 45.8048C705.676 45.741 705.36 45.6744 705.05 45.6077L704.825 45.5556C704.563 45.4976 704.307 45.4397 704.056 45.3788L703.871 45.3353C703.58 45.2658 703.296 45.1933 703.016 45.118C702.806 45.0629 702.604 45.005 702.399 44.947L702.023 44.8427C701.789 44.7761 701.558 44.7036 701.331 44.6341L701.071 44.5558C700.761 44.4573 700.456 44.3559 700.16 44.2661L699.975 44.1994C699.742 44.1183 699.511 44.0371 699.289 43.9531L698.981 43.8343L698.454 43.6285L698.127 43.4953C697.97 43.4286 697.811 43.3649 697.66 43.2982L697.329 43.1533C697.184 43.0896 697.045 43.0258 696.902 42.9592L696.578 42.8085L696.179 42.6143L695.777 42.4115L695.587 42.313L695 42L707.727 49.0445C707.918 49.1517 708.114 49.256 708.313 49.3603L708.504 49.4589L708.789 49.6067L708.906 49.6617L709.302 49.853L709.626 50.0065L710.053 50.1978L710.384 50.3456L710.851 50.5397L711.178 50.6759C711.349 50.7455 711.529 50.8121 711.705 50.8788C711.808 50.9193 711.907 50.9599 712.013 50.9976C712.235 51.0816 712.463 51.1628 712.693 51.2439L712.884 51.3105C713.169 51.412 713.485 51.5134 713.795 51.6003L714.057 51.6815C714.285 51.751 714.513 51.8206 714.746 51.8872L715.122 51.9944L715.74 52.1625L715.823 52.1857L716.595 52.3798L716.78 52.4233C717.03 52.4841 717.287 52.545 717.549 52.603L717.774 52.6522C718.087 52.7189 718.403 52.7855 718.725 52.8493L718.887 52.8811C719.172 52.9362 719.457 52.9884 719.741 53.0376L719.998 53.084L721.029 53.2521H721.14C721.459 53.3013 721.781 53.3448 722.105 53.3912L722.39 53.4288C722.754 53.4752 723.125 53.5216 723.501 53.5621C723.874 53.6056 724.252 53.6433 724.64 53.678L724.947 53.7041C725.309 53.736 725.671 53.7679 726.041 53.7939H726.149C726.551 53.8229 726.961 53.8461 727.374 53.8693L727.692 53.8867L728.792 53.933H728.994L730.298 53.9649H730.623C730.996 53.9649 731.375 53.9649 731.762 53.9649H732.047C732.5 54.0084 732.961 54.0026 733.428 53.9939Z" fill="url(#paint7_linear_25_61873)"/>
<path d="M676.669 172.027C652.402 157.603 651.738 141.139 651.713 140.237L651.838 65.9949L639.136 59L639 133.253C639.023 134.144 639.689 150.628 663.956 165.046C667.733 167.292 670.887 169.1 673.525 170.555L686.227 177.55C683.589 176.084 680.434 174.272 676.669 172.027Z" fill="url(#paint8_linear_25_61873)"/>
<path d="M700.097 42C700.497 42.8063 708.055 58.1281 748 52.5128L747.863 126.354C747.837 127.249 747.331 144.215 722.831 165.438C705.628 180.345 701.249 182.821 700.163 182.973C698.425 183.219 694.054 181.972 676.895 171.894C652.466 157.55 652.026 140.73 652 139.832L652.137 66.002C692.076 60.3725 699.697 42.9178 700.097 42Z" fill="url(#paint9_linear_25_61873)"/>
<path d="M748 53.3092V52.7694C731.956 54.3278 721.176 53.5349 714 52C720.907 53.7194 731.61 54.7675 748 53.3092Z" fill="url(#paint10_linear_25_61873)"/>
<path d="M678.468 171.785C654.141 157.512 653.702 140.781 653.677 139.885L653.813 66.4171C688.418 61.5587 698.657 47.7828 701 43.6868C700.575 43.1644 700.206 42.599 699.898 42C699.5 42.9131 691.911 60.2787 652.137 65.8653L652 139.333C652.023 140.212 652.464 156.969 676.792 171.231C689.368 178.626 695.042 181.226 697.857 182C694.621 180.768 688.936 177.927 678.468 171.785Z" fill="url(#paint11_linear_25_61873)"/>
<path d="M741.444 64.604V64.5271V63.9576L740.876 64.0317V63.9576V63.3881L740.308 63.4622V63.3881V62.8186C717.571 66.022 707.381 61.1102 703.081 57.4084C702.622 56.8808 702.228 56.2995 701.908 55.6772L701.806 55.8993C701.637 55.6484 701.485 55.3868 701.349 55.1162C701.332 55.1561 701.301 55.233 701.25 55.3383C701.081 55.0886 700.928 54.828 700.793 54.5581C700.776 54.598 700.745 54.6749 700.693 54.7802C700.524 54.5308 700.371 54.2702 700.236 54C699.901 54.7717 693.526 69.4162 660.114 74.126L660 136.081V136.651C660.014 137.22 660.244 145.982 670.094 155.521C670.281 155.709 670.46 155.894 670.662 156.091C674.044 159.423 677.837 162.309 681.948 164.679C696.058 172.99 699.831 174.141 701.335 173.981C701.546 174.006 701.76 174.006 701.971 173.981C702.879 173.853 706.544 171.777 720.932 159.271C741.441 141.486 741.864 127.248 741.886 126.494L742 64.5357L741.444 64.604Z" fill="url(#paint12_linear_25_61873)"/>
<path d="M702.082 54C702.413 54.6788 708.713 67.6112 742 62.8793L741.887 125.204C741.856 125.954 741.434 140.276 721.027 158.18C706.694 170.76 703.043 172.848 702.139 172.977C700.691 173.184 697.049 172.132 682.749 163.628C662.39 151.521 662.02 137.314 662 136.566L662.116 74.2449C695.389 69.5073 701.737 54.7734 702.082 54Z" fill="url(#paint13_linear_25_61873)"/>
<path d="M701.082 54C701.413 54.6788 707.713 67.6112 741 62.8793L740.887 125.204C740.856 125.954 740.434 140.276 720.027 158.18C705.694 170.76 702.043 172.848 701.139 172.977C699.691 173.184 696.049 172.132 681.749 163.628C661.39 151.521 661.02 137.314 661 136.566L661.116 74.2449C694.389 69.5073 700.737 54.7734 701.082 54Z" fill="url(#paint14_linear_25_61873)"/>
<path d="M701.161 171C700.158 170.895 696.532 169.715 683.528 162.13C665.048 151.354 664.057 139.263 664 137.746L664.108 78.5908C687.752 74.8293 697.82 66.1938 701.856 61C705.428 64.3965 712.966 68.7666 728.147 68.7666C731.774 68.7519 735.397 68.5346 739 68.1156L738.889 126.495C738.852 127.404 737.977 140.571 718.84 157.041C705.622 168.424 702.013 170.601 701.161 171Z" fill="url(#paint15_linear_25_61873)"/>
<path fill-rule="evenodd" clip-rule="evenodd" d="M697.682 163.375C694.825 161.918 691.176 159.883 686.811 157.326C672.66 149.036 670.411 140.43 670.057 137.99L670 137.588L670.1 82.7808L674.386 81.7403C685.091 79.1518 693.813 75.2436 700.339 70.1295L703.05 68L706.178 69.4538C712.161 72.2418 719.641 73.67 728.406 73.7042L734 73.727L733.903 126.179L733.834 126.607C733.383 129.458 730.74 139.811 715.729 152.785C710.858 156.995 706.813 160.362 703.704 162.791L700.879 165L697.682 163.375Z" stroke="url(#paint16_linear_25_61873)" stroke-width="2"/>
<path fill-rule="evenodd" clip-rule="evenodd" d="M729 98.8727L710.276 101.561L718.109 81.4182L718.187 81.2134L696.548 84.3202L683.382 123.406L696.383 121.539L690.828 153L728.822 99.123L729 98.8727ZM728.457 99.2283L691.254 151.967L696.684 121.209L683.744 123.067L696.717 84.5706L717.803 81.5434L709.97 101.686L709.892 101.894L728.457 99.2283Z" fill="white"/>
<path d="M696.875 136.991L696.492 136.78L700.115 116.303L700.498 116.517L696.875 136.991Z" fill="#848484"/>
<path d="M703.655 106.623L703.271 106.409L719.611 104.066L719.995 104.28L703.655 106.623Z" fill="#9A9A9A"/>
<path d="M711.606 86.214L703.654 106.623L719.994 104.28L696.875 136.991L700.498 116.517L688.383 118.252L698.571 88.0828L711.606 86.214Z" fill="white"/>
<path d="M688.383 118.252L688 118.041L698.187 87.8688L698.571 88.0828L688.383 118.252Z" fill="#878787"/>
<path d="M698.571 88.0828L698.187 87.8688L711.223 86L711.606 86.214L698.571 88.0828Z" fill="#9A9A9A"/>
<path d="M687.184 34L687.146 34.0887V34.1182L687.08 34.266L687.063 34.3044L686.957 34.5231C686.919 34.6029 686.873 34.6915 686.825 34.7891L686.799 34.8364C686.741 34.9427 686.681 35.058 686.612 35.1821L686.578 35.2442L686.348 35.6431L686.305 35.7111C686.216 35.8589 686.124 36.0066 686.017 36.1721L685.98 36.2283C685.871 36.3997 685.753 36.577 685.627 36.7662C685.521 36.9228 685.408 37.0853 685.288 37.2508L685.213 37.3572C685.093 37.5227 684.963 37.6941 684.831 37.8685L684.759 37.9631C684.63 38.1286 684.498 38.297 684.357 38.4714L684.297 38.5482C684.145 38.7344 683.984 38.9265 683.817 39.1215L683.708 39.2516C683.536 39.4466 683.361 39.6476 683.177 39.8426L683.125 39.8988C682.95 40.0909 682.766 40.2859 682.576 40.4898L682.453 40.6199C682.252 40.8297 682.042 41.0395 681.824 41.2553L681.692 41.3823C681.485 41.5833 681.272 41.7872 681.051 41.9911L680.965 42.0739C680.695 42.3251 680.411 42.5792 680.118 42.8334L679.968 42.9634C679.681 43.2117 679.394 43.4658 679.066 43.72L678.894 43.8618C678.574 44.1199 678.244 44.379 677.903 44.6391L677.759 44.7484C677.395 45.0233 677.021 45.2981 676.631 45.5759L676.585 45.6084C676.338 45.7857 676.082 45.9631 675.823 46.1374L675.536 46.3236L674.962 46.7048L674.631 46.9206L674.057 47.2811L673.712 47.4939C673.505 47.621 673.296 47.751 673.08 47.8781L672.764 48.0643C672.463 48.2446 672.155 48.4189 671.842 48.5962L671.785 48.6317C671.452 48.8179 671.107 49.0041 670.76 49.1932L670.432 49.3646L669.688 49.7547L669.283 49.9586L668.554 50.3369L668.137 50.5379C667.833 50.6856 667.52 50.8334 667.206 50.9782L666.902 51.1171C666.485 51.3141 666.059 51.5033 665.627 51.6845L665.339 51.8086C664.998 51.9564 664.65 52.1042 664.297 52.246L663.843 52.4293C663.524 52.5593 663.197 52.6864 662.869 52.8164L662.415 52.9908C661.996 53.1504 661.571 53.308 661.14 53.4636L660.965 53.5286C660.473 53.7059 659.973 53.8803 659.465 54.0517L659.015 54.2024C658.644 54.3266 658.271 54.4507 657.889 54.5718L657.349 54.7433L656.174 55.1008L655.7 55.2427C655.148 55.4043 654.588 55.5638 654.019 55.7215L653.749 55.7924C653.261 55.9254 652.77 56.0554 652.267 56.1825L651.693 56.3303C651.276 56.4337 650.854 56.5371 650.426 56.6258L649.812 56.7706C649.323 56.8868 648.827 56.9991 648.324 57.1075L647.922 57.1962C647.288 57.3321 646.642 57.4651 645.986 57.5951L645.469 57.6956C644.972 57.7902 644.472 57.8847 643.963 57.9911L643.277 58.1153L641.803 58.3665L641.149 58.4728C640.442 58.5871 639.726 58.6975 639 58.8038L651.839 66C652.565 65.8936 653.281 65.7843 653.988 65.672L654.643 65.5626C655.137 65.4828 655.631 65.3971 656.116 65.3114L656.803 65.1902C657.311 65.0986 657.811 65.0041 658.308 64.8947L658.825 64.7942C659.48 64.6642 660.125 64.5312 660.761 64.3953L661.16 64.3066C661.666 64.1963 662.164 64.085 662.654 63.9727L663.266 63.8279L664.535 63.5323L665.11 63.3875C665.615 63.2575 666.112 63.1255 666.6 62.9915L666.859 62.9235C667.433 62.7679 667.994 62.6083 668.542 62.4448L669.013 62.3059C669.41 62.1847 669.806 62.0665 670.194 61.9424C670.372 61.8892 670.55 61.833 670.728 61.7739C671.11 61.6528 671.489 61.5286 671.863 61.4045L672.308 61.2567C672.816 61.0824 673.319 60.908 673.81 60.7307L673.974 60.6716C674.407 60.515 674.835 60.3554 675.258 60.1928L675.709 60.0185L676.688 59.6343L677.139 59.4511C677.492 59.3062 677.837 59.1555 678.179 59.0137L678.466 58.8895C678.897 58.6925 679.321 58.5034 679.738 58.3221L680.046 58.1803L680.974 57.7429L681.152 57.6572L681.393 57.539L682.111 57.1843L682.519 56.9775L683.257 56.5903L683.59 56.416C683.938 56.2298 684.28 56.0406 684.613 55.8545L684.656 55.8279C684.975 55.6505 685.288 55.4703 685.595 55.29L685.908 55.1008L686.54 54.7196L686.885 54.5068L687.459 54.1404L687.787 53.9305L688.361 53.5464L688.634 53.3631C688.89 53.1888 689.143 53.0115 689.39 52.8371L689.438 52.8046C689.829 52.5268 690.202 52.249 690.567 51.9741C690.616 51.9387 690.665 51.9032 690.711 51.8648C691.056 51.6047 691.387 51.3447 691.705 51.0846L691.874 50.9487C692.187 50.6915 692.489 50.4403 692.779 50.1891L692.923 50.0621C693.21 49.8049 693.497 49.5508 693.784 49.2996L693.807 49.2819L693.87 49.2198C694.092 49.0159 694.304 48.812 694.511 48.6081L694.643 48.481C694.861 48.2682 695.071 48.0554 695.272 47.8456C695.315 47.8042 695.355 47.7599 695.396 47.7185C695.585 47.5205 695.769 47.3225 695.944 47.1274L695.993 47.0743C696.18 46.8703 696.355 46.6694 696.527 46.4832L696.585 46.4182L696.639 46.3532C696.803 46.1581 696.964 45.966 697.116 45.7798L697.176 45.7059C697.317 45.5316 697.449 45.3631 697.576 45.1976L697.65 45.1031C697.785 44.9257 697.912 44.7543 698.032 44.5888L698.107 44.4825C698.228 44.317 698.343 44.1515 698.449 43.9948C698.578 43.8086 698.693 43.6284 698.805 43.457L698.84 43.4038C698.943 43.2412 699.035 43.0876 699.127 42.9427L699.17 42.8718L699.4 42.4728L699.434 42.4108C699.503 42.2867 699.566 42.1714 699.621 42.065V42.0502L699.638 42.0177C699.687 41.9232 699.733 41.8315 699.77 41.7518C699.813 41.672 699.845 41.5981 699.876 41.5331L699.894 41.4976L699.963 41.3469C699.961 41.3381 699.961 41.3291 699.963 41.3203C699.977 41.2819 699.991 41.2494 700 41.2287L687.184 34Z" fill="url(#paint17_linear_25_61873)"/>
<circle cx="619.5" cy="101.5" r="3.5" fill="#604B0C"/>
<circle cx="798.5" cy="105.5" r="8.5" fill="#0E8EFF"/>
<circle cx="759" cy="88" r="5" fill="#FFCA13"/>
<circle cx="599" cy="74" r="6" fill="#FFCA13"/>
<g opacity="0.65">
<path d="M661.857 29.2731H661.828C660.984 28.9718 660.293 28.3572 659.901 27.56C659.575 26.9227 659.385 26.2264 659.342 25.5138C659.307 24.9092 659.354 24.3026 659.482 23.7103C659.545 23.3991 659.629 23.0923 659.732 22.7919C659.82 22.5376 659.921 22.2882 660.036 22.0448C660.287 21.4958 660.611 20.9821 661 20.5173C661.449 19.9809 662.001 19.5364 662.623 19.2087C663.465 18.7344 664.47 18.6292 665.394 18.9184H665.428L667.447 19.5989L667.495 20.9884C667.729 21.5747 667.863 22.1955 667.89 22.8252C667.918 23.4293 667.863 24.0344 667.726 24.624C667.666 24.8845 667.592 25.1418 667.505 25.3949C667.401 25.6976 667.277 25.9932 667.134 26.28C666.864 26.8272 666.518 27.3348 666.107 27.7885C665.718 28.2186 665.265 28.5876 664.763 28.8829L663.862 29.9536L661.857 29.2731Z" fill="#977700"/>
<path d="M667.553 20.8553L662.633 19.1945C663.475 18.7202 664.48 18.615 665.404 18.9042H665.437L667.456 19.5847L667.553 20.8553Z" fill="#8C7005"/>
<path d="M661.857 29.2732H661.828C660.984 28.9718 660.293 28.3572 659.901 27.5601L664.681 29.1685L663.876 29.9632L661.857 29.2732Z" fill="#E0B41D"/>
<path d="M667.905 22.8158L661.009 20.4888C661.459 19.9524 662.011 19.5079 662.633 19.1802L667.558 20.8552L667.509 20.9932C667.744 21.5795 667.877 22.2003 667.905 22.83V22.8158Z" fill="#947508"/>
<path d="M667.741 24.6193L660.031 22.0163C660.282 21.4672 660.606 20.9536 660.995 20.4888L667.89 22.811C667.918 23.4151 667.863 24.0202 667.726 24.6097L667.741 24.6193Z" fill="#977910"/>
<path d="M667.148 26.2752L659.482 23.7103C659.545 23.3991 659.629 23.0923 659.732 22.7919C659.82 22.5376 659.921 22.2882 660.036 22.0448L667.745 24.643C667.685 24.9036 667.611 25.1609 667.524 25.4139C667.42 25.7166 667.296 26.0123 667.153 26.299L667.148 26.2752Z" fill="#AE890C"/>
<path d="M666.122 27.7885L659.342 25.5043C659.307 24.9028 659.354 24.2995 659.482 23.7103L667.163 26.3038C666.893 26.851 666.547 27.3586 666.136 27.8123L666.122 27.7885Z" fill="#C59A0B"/>
<path d="M664.681 29.159L659.901 27.5506C659.575 26.9133 659.385 26.217 659.342 25.5044L666.122 27.7885C665.732 28.2186 665.279 28.5877 664.777 28.883L664.681 29.159Z" fill="#CDA115"/>
<ellipse cx="665.677" cy="24.7571" rx="5.48915" ry="4.40328" transform="rotate(-71.16 665.677 24.7571)" fill="url(#paint18_linear_25_61873)"/>
<path d="M663.891 29.9442C663.263 29.7406 662.702 29.3741 662.267 28.883C661.837 28.386 661.517 27.8058 661.327 27.1795C661.139 26.5531 661.057 25.9002 661.086 25.2475C661.114 24.5991 661.235 23.9581 661.448 23.344C661.663 22.7283 661.965 22.1453 662.344 21.6119C662.725 21.0769 663.196 20.6101 663.736 20.2319C664.27 19.8398 664.883 19.5655 665.534 19.4277C666.178 19.3056 666.843 19.3548 667.461 19.5704C667.149 19.4701 666.825 19.414 666.497 19.4039C666.174 19.3923 665.85 19.4211 665.534 19.4895C664.912 19.6372 664.327 19.911 663.818 20.2937C663.294 20.6746 662.837 21.1376 662.464 21.6642C662.095 22.1912 661.802 22.7661 661.592 23.3726C661.379 23.9866 661.256 24.6275 661.226 25.276C661.195 25.9181 661.27 26.561 661.448 27.1795C661.621 27.7983 661.925 28.3739 662.339 28.8688C662.548 29.1163 662.788 29.3369 663.052 29.5255C663.312 29.7007 663.594 29.8415 663.891 29.9442Z" fill="#FBD367"/>
<path d="M662.084 23.5486C662.5 22.2807 663.352 21.1966 664.493 20.4841C665.309 19.8818 666.373 19.7163 667.337 20.0418C668.301 20.3674 669.04 21.1419 669.311 22.1115C669.766 23.3604 669.766 24.7267 669.311 25.9755C668.894 27.2417 668.042 28.324 666.902 29.0353C666.088 29.6401 665.023 29.8076 664.058 29.4828C663.094 29.1579 662.354 28.3829 662.084 27.4126C661.629 26.1638 661.629 24.7975 662.084 23.5486Z" fill="url(#paint19_linear_25_61873)"/>
<path d="M664.479 20.4841C664.824 20.2548 665.203 20.0784 665.601 19.9606C666.009 19.8434 666.437 19.8062 666.859 19.8512C667.071 19.8788 667.28 19.9299 667.481 20.0034C667.68 20.0791 667.871 20.1765 668.049 20.2937C668.407 20.529 668.715 20.8314 668.955 21.1836C669.431 21.8933 669.712 22.7133 669.769 23.5629C669.834 24.4024 669.724 25.246 669.446 26.0421C669.165 26.8355 668.726 27.5652 668.155 28.1883C667.583 28.8181 666.856 29.2917 666.045 29.5635C665.636 29.6965 665.206 29.7498 664.777 29.7205C664.563 29.706 664.352 29.6677 664.146 29.6063C663.94 29.5444 663.743 29.4581 663.558 29.3494C663.196 29.132 662.882 28.8456 662.633 28.5071C662.39 28.1729 662.199 27.8038 662.069 27.4126C662.234 27.7934 662.453 28.1491 662.72 28.469C662.977 28.7816 663.295 29.0405 663.655 29.2304C663.83 29.3225 664.016 29.3944 664.209 29.4445C664.403 29.494 664.601 29.5227 664.801 29.5302C665.203 29.5399 665.603 29.477 665.982 29.3446C666.36 29.2075 666.718 29.0219 667.047 28.7926C667.377 28.5623 667.678 28.2939 667.943 27.9932C668.206 27.7 668.439 27.3811 668.637 27.0414C668.833 26.693 668.995 26.3265 669.119 25.947C669.25 25.5694 669.345 25.1807 669.403 24.7858C669.458 24.3918 669.473 23.9932 669.446 23.5962C669.419 23.1988 669.344 22.806 669.225 22.4256C669.114 22.0459 668.952 21.6827 668.743 21.3454C668.528 21.0105 668.25 20.7197 667.924 20.4888C667.763 20.3719 667.588 20.2744 667.403 20.1985C667.22 20.1194 667.028 20.0634 666.83 20.032C666.428 19.9669 666.018 19.9782 665.621 20.0653C665.223 20.1552 664.839 20.296 664.479 20.4841Z" fill="#AE890C"/>
<path d="M666.546 27.7648L666.218 27.641L666.17 27.622L666.498 27.7457L666.546 27.7648Z" fill="#788E95"/>
<path d="M668.011 24.9238C668.063 24.835 668.094 24.7358 668.102 24.6335C668.103 24.5549 668.093 24.4765 668.073 24.4004V24.3575C668.041 24.2815 667.983 24.2192 667.909 24.1815L667.582 24.053C667.656 24.0873 667.715 24.1486 667.746 24.2243V24.2671C667.758 24.3443 667.758 24.4231 667.746 24.5003C667.74 24.6024 667.71 24.7018 667.659 24.7906L666.146 27.6172L666.478 27.7409L668.011 24.9238Z" fill="#C59A0B"/>
<path d="M667.389 24.2957L667.254 23.5248L667.437 23.4629L667.61 23.4058C667.776 23.3485 667.956 23.3485 668.121 23.4058L667.794 23.2774C667.628 23.22 667.448 23.22 667.283 23.2774L667.109 23.3392L666.926 23.3963L667.061 24.1672L667.389 24.2957Z" fill="#C59A0B"/>
<path d="M664.994 25.9564C664.978 25.908 664.966 25.8588 664.956 25.8089C664.883 25.4198 664.949 25.0178 665.144 24.6716C665.292 24.2841 665.633 23.9998 666.045 23.9197H666.107L666.281 24.8191C666.281 24.8191 666.281 24.8953 666.281 24.9524C666.331 25.0896 666.315 25.2423 666.237 25.3664C666.17 25.5002 666.062 25.6099 665.929 25.6804C665.821 25.7249 665.7 25.7249 665.592 25.6804L665.919 25.8042C666.026 25.8533 666.15 25.8533 666.257 25.8042C666.391 25.7357 666.5 25.6276 666.57 25.4949C666.641 25.3684 666.655 25.2181 666.608 25.0809C666.608 25.0237 666.584 24.9571 666.584 24.9476L666.257 23.225C666.251 23.188 666.243 23.1514 666.232 23.1155C666.208 23.0484 666.171 22.9869 666.122 22.9347C666.083 22.8881 666.034 22.852 665.977 22.83L665.645 22.7063C665.704 22.7236 665.756 22.7585 665.794 22.8062C665.844 22.8595 665.882 22.9228 665.905 22.9918C665.916 23.026 665.924 23.061 665.929 23.0965L666.073 23.8626L665.823 23.7675L665.693 23.8103C665.282 23.8928 664.943 24.1762 664.792 24.5622C664.598 24.9102 664.532 25.3135 664.604 25.7042C664.604 25.7518 664.604 25.7994 664.642 25.847C664.72 26.1064 664.906 26.321 665.153 26.4371H665.192L665.519 26.5655H665.481C665.238 26.44 665.061 26.2185 664.994 25.9564Z" fill="#C59A0B"/>
<path d="M663.091 26.1706C663.023 25.9464 663.049 25.7046 663.163 25.4996L664.662 22.6444C664.8 22.3807 665.008 22.1587 665.264 22.002C665.489 21.8581 665.761 21.8021 666.025 21.845C666.098 21.8545 666.169 21.8737 666.237 21.9021L665.91 21.7736C665.84 21.7496 665.77 21.7305 665.698 21.7165C665.432 21.675 665.161 21.7327 664.936 21.8783C664.676 22.0377 664.467 22.2671 664.334 22.5397L662.835 25.3949C662.721 25.5981 662.695 25.8386 662.763 26.0611C662.822 26.2429 662.96 26.3894 663.139 26.4608L663.467 26.5846C663.284 26.5106 663.145 26.3581 663.091 26.1706Z" fill="#C59A0B"/>
<path d="M667.235 24.7287C667.235 24.7287 667.235 24.6811 667.235 24.605L666.984 22.9062C666.97 22.814 666.947 22.7233 666.917 22.6349C666.864 22.4747 666.781 22.326 666.671 22.1971C666.509 22.0098 666.286 21.8851 666.04 21.845C665.775 21.8021 665.504 21.8581 665.278 22.002C665.02 22.164 664.812 22.3927 664.676 22.6635L663.177 25.5187C663.063 25.7236 663.037 25.9655 663.105 26.1896C663.165 26.3699 663.302 26.5147 663.481 26.5846L663.548 26.6131L665.36 23.1441C665.413 23.0375 665.493 22.9459 665.592 22.8776C665.681 22.8196 665.788 22.7928 665.895 22.8015C665.998 22.8101 666.093 22.8579 666.16 22.9347C666.209 22.9869 666.247 23.0485 666.271 23.1156C666.282 23.1514 666.29 23.188 666.295 23.225L666.623 24.9476C666.623 24.9476 666.623 25.0238 666.647 25.0809C666.694 25.2181 666.68 25.3684 666.608 25.4949C666.539 25.6276 666.429 25.7357 666.295 25.8042C666.179 25.8635 666.04 25.8635 665.924 25.8042C665.827 25.7559 665.755 25.6695 665.726 25.5663C665.724 25.5394 665.724 25.5123 665.726 25.4854C665.697 25.3222 665.726 25.1539 665.808 25.0095C665.877 24.8646 666.011 24.7605 666.17 24.7287L666.367 24.6574L666.208 23.8722L666.078 23.915C665.655 23.9835 665.299 24.2675 665.143 24.6621C664.949 25.0083 664.883 25.4103 664.955 25.7994C664.965 25.8493 664.978 25.8985 664.994 25.9469C665.064 26.2171 665.251 26.4432 665.505 26.5656C665.787 26.6867 666.111 26.6673 666.377 26.5132C666.683 26.349 666.932 26.0968 667.09 25.7899C667.295 25.4749 667.348 25.0861 667.235 24.7287Z" fill="#FFF1D4"/>
<path d="M667.317 27.3507L668.454 25.2236C668.568 25.0122 668.64 24.7812 668.666 24.5431C668.685 24.3424 668.662 24.1398 668.598 23.9483C668.596 23.9261 668.596 23.9038 668.598 23.8817C668.523 23.6975 668.387 23.5435 668.213 23.4439C668.034 23.3521 667.824 23.3383 667.635 23.4058L667.461 23.4629L667.278 23.5248L667.413 24.2957L667.504 24.2528L667.673 24.1862C667.749 24.1553 667.834 24.1553 667.909 24.1862C667.983 24.2239 668.041 24.2863 668.073 24.3623V24.4051C668.093 24.4812 668.103 24.5596 668.102 24.6383C668.094 24.7406 668.063 24.8398 668.01 24.9286L666.502 27.7504H666.546C666.866 27.8167 667.19 27.6491 667.317 27.3507Z" fill="#FFF1D4"/>
</g>
<path d="M601.602 162.947L601.491 163.023C598.754 164.889 597.254 168.045 596.855 171.929C596.62 175.065 596.971 178.218 597.889 181.229C598.679 183.929 599.771 186.535 601.144 188.997C601.869 190.303 602.661 191.571 603.517 192.797C604.257 193.852 605.026 194.856 605.822 195.81C607.624 197.975 609.659 199.94 611.891 201.67C614.328 203.599 617.083 205.1 620.036 206.106C624.138 207.429 628.02 207.245 630.961 205.269L631.071 205.194L639.199 199.653L635.69 194.63C635.67 191.823 635.221 189.035 634.359 186.36C633.516 183.687 632.38 181.113 630.969 178.684C630.353 177.613 629.675 176.55 628.935 175.495C628.081 174.267 627.161 173.085 626.18 171.954C624.336 169.81 622.255 167.875 619.976 166.187C617.904 164.639 615.622 163.388 613.196 162.47L609.687 157.448L601.602 162.947Z" fill="#977700"/>
<path d="M636.125 195.233L620.064 206.115C624.166 207.437 628.048 207.253 630.989 205.278L631.099 205.202L639.227 199.661L636.125 195.233Z" fill="#E0B41D"/>
<path d="M601.588 162.947L601.477 163.023C598.74 164.889 597.24 168.045 596.841 171.929L612.436 161.29L609.715 157.406L601.588 162.947Z" fill="#8C7005"/>
<path d="M634.404 186.352L611.902 201.695C614.339 203.624 617.094 205.125 620.047 206.131L636.133 195.233L635.744 194.672C635.723 191.865 635.275 189.077 634.413 186.402C634.413 186.402 634.404 186.36 634.404 186.352Z" fill="#CDA115"/>
<path d="M631.006 178.659L605.825 195.836C607.627 198 609.661 199.965 611.894 201.695L634.387 186.36C633.545 183.687 632.408 181.113 630.997 178.684L631.006 178.659Z" fill="#C59A0B"/>
<path d="M626.209 171.921L601.138 189.013C601.863 190.319 602.655 191.588 603.511 192.814C604.251 193.868 605.02 194.873 605.817 195.827L630.997 178.659C630.381 177.587 629.703 176.524 628.963 175.47C628.109 174.242 627.19 173.06 626.209 171.929V171.921Z" fill="#AE890C"/>
<path d="M619.996 166.145L597.875 181.212C598.665 183.912 599.757 186.518 601.13 188.98L626.2 171.887C624.356 169.743 622.275 167.808 619.996 166.12V166.145Z" fill="#977910"/>
<path d="M612.436 161.29L596.841 171.929C596.606 175.065 596.957 178.218 597.875 181.229L619.996 166.162C617.924 164.614 615.641 163.363 613.216 162.445L612.436 161.29Z" fill="#947508"/>
<ellipse cx="623.645" cy="179" rx="15.4711" ry="25.9354" transform="rotate(-34.804 623.645 179)" fill="url(#paint20_linear_25_61873)"/>
<path d="M608.844 157.512C608.01 158.124 607.273 158.855 606.657 159.683C606.555 159.818 606.461 159.97 606.368 160.114C606.269 160.252 606.178 160.396 606.095 160.545C605.414 161.731 604.925 163.017 604.649 164.355C604.134 167.042 604.134 169.802 604.649 172.49C605.142 175.18 605.953 177.803 607.065 180.305C608.172 182.809 609.523 185.2 611.098 187.443C611.881 188.57 612.712 189.659 613.591 190.713C614.442 191.76 615.412 192.757 616.39 193.72C618.353 195.637 620.534 197.318 622.891 198.73C625.238 200.163 627.835 201.143 630.548 201.619C631.909 201.835 633.296 201.835 634.658 201.619C634.827 201.598 634.995 201.564 635.16 201.518C635.329 201.487 635.497 201.448 635.662 201.399C636.661 201.126 637.613 200.704 638.486 200.149C637.347 200.945 636.051 201.492 634.683 201.754C633.308 202.01 631.901 202.047 630.514 201.864C627.753 201.431 625.1 200.482 622.695 199.068C620.282 197.674 618.053 195.989 616.059 194.05C612.044 190.184 608.845 185.563 606.648 180.457C605.528 177.921 604.73 175.256 604.275 172.524C603.788 169.789 603.834 166.987 604.411 164.27C604.726 162.919 605.257 161.627 605.985 160.443C606.718 159.276 607.693 158.277 608.844 157.512V157.512Z" fill="#FBD367"/>
<path d="M613.474 186.862C617.124 192.1 621.744 196.155 626.483 198.267C632.158 200.801 635.443 199.5 636.897 198.503C638.352 197.506 640.735 194.913 640.369 188.754C640.054 183.601 637.876 177.873 634.234 172.635C630.593 167.397 625.973 163.342 621.225 161.222C615.559 158.687 612.266 159.997 610.811 160.994C609.356 161.991 606.974 164.576 607.348 170.743C607.689 175.896 609.833 181.624 613.474 186.862Z" fill="url(#paint21_linear_25_61873)"/>
<path d="M626.484 198.267L627.641 198.689L628.228 198.867C628.42 198.934 628.616 198.991 628.815 199.035L629.402 199.188L630.006 199.306C630.202 199.306 630.397 199.382 630.602 199.399C630.806 199.416 631.001 199.458 631.206 199.475C632.794 199.66 634.402 199.402 635.851 198.731C637.247 198.001 638.338 196.804 638.931 195.352C639.536 193.899 639.856 192.345 639.876 190.773C639.902 187.597 639.325 184.444 638.174 181.48C637.053 178.487 635.551 175.648 633.707 173.032C631.894 170.386 629.743 167.984 627.309 165.885C624.914 163.756 622.138 162.094 619.124 160.985C617.637 160.446 616.06 160.194 614.478 160.242C612.904 160.29 611.398 160.888 610.224 161.932C609.075 163.039 608.262 164.444 607.876 165.987C607.825 166.181 607.782 166.375 607.731 166.57C607.68 166.764 607.646 166.958 607.612 167.161C607.578 167.364 607.536 167.558 607.51 167.761L607.442 168.361C607.442 168.563 607.399 168.758 607.391 168.96V169.569C607.391 169.974 607.391 170.413 607.391 170.794C607.207 169.163 607.27 167.514 607.578 165.902C607.891 164.245 608.669 162.711 609.824 161.475C610.433 160.861 611.159 160.372 611.96 160.039C612.754 159.705 613.594 159.494 614.453 159.414C616.151 159.298 617.856 159.51 619.473 160.039C622.641 161.095 625.574 162.75 628.109 164.914C633.198 169.241 637.068 174.807 639.34 181.066C640.485 184.201 641.005 187.526 640.871 190.858C640.806 192.547 640.404 194.207 639.688 195.741C639.308 196.509 638.811 197.216 638.216 197.836C637.618 198.46 636.901 198.96 636.106 199.306C634.535 199.939 632.816 200.121 631.146 199.83C629.522 199.542 627.951 199.015 626.484 198.267Z" fill="#AE890C"/>
<path d="M635.46 182.325L634.481 183.238L634.337 183.373L635.324 182.452L635.46 182.325Z" fill="#788E95"/>
<path d="M627.904 172.593C627.683 172.269 627.393 171.998 627.054 171.799C626.79 171.652 626.502 171.555 626.203 171.512H626.016C625.707 171.499 625.405 171.599 625.165 171.79L624.178 172.703C624.42 172.514 624.721 172.416 625.029 172.424H625.216C625.514 172.466 625.802 172.561 626.067 172.703C626.406 172.902 626.696 173.173 626.917 173.497L634.337 183.356L635.324 182.443L627.904 172.593Z" fill="#C59A0B"/>
<path d="M624.705 173.666L621.787 172.821L621.872 172.103L621.957 171.393C622.03 170.733 622.33 170.118 622.808 169.653L621.821 170.574C621.356 171.027 621.056 171.622 620.97 172.264L620.885 172.973L620.792 173.691L623.718 174.536L624.705 173.666Z" fill="#C59A0B"/>
<path d="M626.569 184.648C626.374 184.627 626.181 184.593 625.99 184.547C624.506 184.145 623.206 183.251 622.306 182.013C620.843 180.078 620.953 179.225 621.157 177.662V177.408L624.561 178.312L625.063 178.456C625.628 178.521 626.135 178.83 626.45 179.301C626.81 179.754 627.013 180.312 627.028 180.889C627.047 181.336 626.878 181.771 626.56 182.089L627.539 181.168C627.862 180.857 628.035 180.423 628.015 179.977C627.996 179.398 627.79 178.842 627.428 178.388C627.117 177.918 626.612 177.609 626.05 177.544C625.828 177.476 625.582 177.417 625.539 177.408L618.962 175.719C618.826 175.677 618.687 175.646 618.545 175.626C618.261 175.589 617.971 175.609 617.694 175.685C617.469 175.753 617.262 175.872 617.09 176.031L616.197 176.927C616.362 176.762 616.567 176.642 616.793 176.581C617.069 176.501 617.359 176.48 617.643 176.521C617.784 176.539 617.924 176.567 618.06 176.606L620.987 177.375L620.238 178.076L620.179 178.591C619.966 180.154 619.856 181.007 621.328 182.95C622.222 184.191 623.52 185.086 625.003 185.485C625.194 185.533 625.387 185.569 625.582 185.595C626.616 185.753 627.67 185.471 628.483 184.817L628.611 184.699L629.598 183.787L629.461 183.905C628.646 184.546 627.595 184.816 626.569 184.648Z" fill="#C59A0B"/>
<path d="M624.186 191.559C623.288 191.425 622.483 190.934 621.957 190.199L614.495 180.348C613.754 179.445 613.293 178.347 613.168 177.189C613.033 176.178 613.281 175.154 613.866 174.316C614.026 174.086 614.209 173.871 614.41 173.674L613.432 174.595C613.221 174.785 613.035 175.001 612.879 175.237C612.294 176.075 612.046 177.099 612.181 178.11C612.317 179.267 612.78 180.362 613.517 181.269L620.987 191.12C621.52 191.847 622.322 192.333 623.216 192.471C623.944 192.575 624.679 192.345 625.216 191.846L626.194 190.925C625.656 191.427 624.918 191.66 624.186 191.559Z" fill="#C59A0B"/>
<path d="M625.948 174.925L625.497 174.789L619.124 172.821C618.779 172.72 618.426 172.646 618.069 172.601C617.423 172.514 616.766 172.557 616.137 172.728C615.211 172.965 614.401 173.526 613.857 174.308C613.273 175.146 613.024 176.17 613.16 177.18C613.285 178.339 613.746 179.436 614.487 180.34L621.957 190.19C622.483 190.926 623.288 191.417 624.186 191.55C624.915 191.649 625.649 191.416 626.186 190.917L626.39 190.731L617.227 178.735C616.941 178.372 616.748 177.946 616.665 177.493C616.61 177.088 616.697 176.676 616.912 176.327C617.105 176.003 617.406 175.755 617.763 175.626C618.039 175.55 618.329 175.529 618.613 175.567C618.755 175.586 618.894 175.618 619.03 175.66L625.607 177.349C625.65 177.349 625.896 177.417 626.118 177.484C626.68 177.55 627.185 177.859 627.496 178.329C627.858 178.782 628.064 179.339 628.083 179.917C628.116 180.365 627.943 180.803 627.612 181.109C627.281 181.414 626.829 181.554 626.381 181.489C626.275 181.474 626.17 181.452 626.067 181.421C625.467 181.245 624.944 180.877 624.578 180.374C624.189 179.902 624.044 179.277 624.186 178.684C624.186 178.6 624.186 178.084 624.263 177.89L621.242 177.13L621.183 177.653C620.979 179.216 620.868 180.07 622.331 182.004C623.232 183.242 624.532 184.137 626.016 184.539C626.206 184.584 626.399 184.618 626.594 184.64C627.624 184.801 628.675 184.522 629.487 183.871C630.367 183.087 630.832 181.942 630.746 180.771C630.668 179.447 630.188 178.177 629.368 177.13C628.607 175.934 627.357 175.128 625.948 174.925Z" fill="#FFF1D4"/>
<path d="M635.272 178.997L629.691 171.554C629.139 170.816 628.448 170.19 627.657 169.712C626.983 169.313 626.233 169.057 625.454 168.96H625.19C624.421 168.905 623.656 169.111 623.02 169.543C622.407 170.01 622.014 170.707 621.931 171.469L621.846 172.179L621.761 172.897L624.68 173.742V173.345L624.739 172.644C624.74 172.323 624.875 172.016 625.113 171.799C625.354 171.607 625.656 171.508 625.964 171.52H626.152C626.451 171.563 626.739 171.66 627.002 171.807C627.342 172.006 627.632 172.278 627.853 172.601L635.272 182.46L635.409 182.334C636.225 181.616 636.123 180.146 635.272 178.997Z" fill="#FFF1D4"/>
<path d="M750.739 179.379H750.794C752.296 178.834 753.527 177.717 754.222 176.268C754.796 175.119 755.134 173.864 755.216 172.58C755.289 171.477 755.216 170.368 754.997 169.285C754.881 168.718 754.73 168.16 754.545 167.613C754.388 167.15 754.207 166.697 754.002 166.254C753.542 165.258 752.954 164.328 752.252 163.488C751.45 162.517 750.47 161.712 749.366 161.115C747.863 160.262 746.076 160.075 744.431 160.598H744.376L740.784 161.828L740.704 164.354C740.28 165.416 740.04 166.543 739.997 167.686C739.948 168.783 740.047 169.881 740.289 170.951C740.396 171.427 740.528 171.897 740.686 172.359C740.87 172.906 741.09 173.44 741.345 173.957C741.826 174.95 742.442 175.87 743.175 176.693C743.858 177.474 744.659 178.141 745.548 178.672L747.146 180.621L750.739 179.379Z" fill="#977700"/>
<path d="M740.607 164.072L749.36 161.059C747.857 160.207 746.07 160.02 744.425 160.543H744.37L740.777 161.773L740.607 164.072Z" fill="#8C7005"/>
<path d="M750.739 179.379H750.794C752.296 178.834 753.527 177.718 754.222 176.268L745.719 179.188L747.146 180.633L750.739 179.379Z" fill="#E0B41D"/>
<path d="M739.985 167.656L752.252 163.439C751.45 162.468 750.47 161.663 749.366 161.066L740.619 164.078L740.704 164.33C740.28 165.391 740.04 166.518 739.997 167.662L739.985 167.656Z" fill="#947508"/>
<path d="M740.277 170.926L754.002 166.205C753.542 165.209 752.954 164.279 752.252 163.439L739.991 167.656C739.942 168.752 740.041 169.85 740.283 170.92L740.277 170.926Z" fill="#977910"/>
<path d="M741.333 173.938L754.997 169.236C754.881 168.669 754.73 168.111 754.545 167.563C754.388 167.101 754.207 166.648 754.002 166.205L740.277 170.92C740.384 171.396 740.516 171.866 740.674 172.328C740.857 172.875 741.078 173.409 741.333 173.926V173.938Z" fill="#AE890C"/>
<path d="M743.156 176.68L755.216 172.525C755.289 171.421 755.216 170.313 754.997 169.229L741.333 173.926C741.814 174.919 742.43 175.839 743.163 176.662L743.156 176.68Z" fill="#C59A0B"/>
<path d="M745.718 179.17L754.222 176.25C754.796 175.1 755.134 173.846 755.216 172.561L743.156 176.705C743.846 177.483 744.653 178.147 745.548 178.672L745.718 179.17Z" fill="#CDA115"/>
<ellipse cx="743.936" cy="171.191" rx="7.85101" ry="9.93866" transform="rotate(-18.84 743.936 171.191)" fill="url(#paint22_linear_25_61873)"/>
<path d="M747.128 180.596C748.219 180.186 749.184 179.495 749.928 178.592C750.665 177.692 751.206 176.644 751.514 175.518C751.826 174.397 751.958 173.233 751.904 172.07C751.848 170.909 751.63 169.763 751.257 168.664C750.88 167.573 750.357 166.539 749.702 165.59C749.035 164.647 748.224 163.817 747.298 163.131C746.372 162.432 745.31 161.937 744.181 161.68C743.617 161.556 743.039 161.503 742.461 161.52C741.881 161.544 741.307 161.645 740.753 161.822C741.86 161.425 743.053 161.338 744.206 161.57C745.359 161.811 746.448 162.295 747.402 162.99C748.35 163.682 749.175 164.53 749.842 165.498C751.21 167.439 751.988 169.74 752.081 172.119C752.136 173.303 751.989 174.488 751.648 175.623C751.315 176.755 750.747 177.803 749.982 178.697C749.215 179.574 748.23 180.23 747.128 180.596Z" fill="#FBD367"/>
<path d="M750.336 168.984C749.593 166.696 748.084 164.74 746.066 163.451C743.754 162.031 741.906 162.332 741.003 162.646C740.1 162.959 738.453 163.875 737.49 166.395C735.916 171.077 737.67 176.239 741.76 178.967C744.065 180.387 745.92 180.08 746.817 179.772C747.713 179.465 749.366 178.543 750.33 176.016C751.149 173.745 751.151 171.256 750.336 168.984Z" fill="url(#paint23_linear_25_61873)"/>
<path d="M746.084 163.432C745.444 163.07 744.756 162.799 744.041 162.627C743.334 162.463 742.603 162.441 741.888 162.559C741.536 162.619 741.192 162.72 740.863 162.861C740.538 163.003 740.229 163.18 739.942 163.389C739.366 163.813 738.874 164.34 738.49 164.945C738.109 165.556 737.809 166.215 737.599 166.906C737.387 167.595 737.256 168.307 737.209 169.027C737.162 169.749 737.189 170.474 737.288 171.191C737.387 171.908 737.554 172.614 737.788 173.299C738.02 173.986 738.317 174.648 738.673 175.279C739.027 175.908 739.446 176.497 739.923 177.037C740.402 177.583 740.945 178.068 741.54 178.481C742.123 178.897 742.759 179.232 743.431 179.477C744.101 179.721 744.811 179.835 745.523 179.815C745.88 179.805 746.234 179.753 746.579 179.662C746.925 179.573 747.259 179.44 747.573 179.268C748.209 178.922 748.773 178.454 749.232 177.891C749.697 177.318 750.077 176.681 750.361 175.998C750.131 176.71 749.794 177.382 749.36 177.99C748.913 178.604 748.352 179.124 747.707 179.52C747.381 179.715 747.033 179.87 746.67 179.981C746.305 180.094 745.928 180.164 745.548 180.19C744.784 180.242 744.018 180.146 743.291 179.908C741.848 179.411 740.557 178.549 739.539 177.406C737.483 175.112 736.444 172.073 736.66 168.99C736.765 167.453 737.265 165.969 738.112 164.686C738.538 164.053 739.08 163.509 739.71 163.082C740.343 162.647 741.072 162.373 741.833 162.283C742.58 162.195 743.337 162.259 744.059 162.473C744.778 162.689 745.461 163.012 746.084 163.432Z" fill="#AE890C"/>
<path d="M740.058 171.4C740.06 171.387 740.06 171.375 740.058 171.363L740.021 171.277V171.197C740.018 171.183 740.018 171.168 740.021 171.154C740.018 171.115 740.018 171.076 740.021 171.037C740.006 170.939 740.006 170.84 740.021 170.742C740.021 170.68 740.058 170.613 740.082 170.545C740.145 170.41 740.25 170.3 740.381 170.232L739.832 170.441C739.7 170.506 739.596 170.617 739.539 170.754C739.511 170.818 739.489 170.883 739.472 170.951C739.457 171.046 739.457 171.144 739.472 171.24V171.363C739.472 171.363 739.472 171.363 739.472 171.4V171.473L739.509 171.559V171.596L739.545 171.67L742.327 176.545L742.876 176.342L740.094 171.467L740.058 171.4Z" fill="#C59A0B"/>
<path d="M743.297 172.918H743.236H743.193H743.151H743.114H743.083C743.047 172.918 743.01 172.863 742.974 172.826L742.882 172.734C742.85 172.697 742.822 172.658 742.797 172.617L742.742 172.531L742.693 172.432L742.656 172.346V172.266C742.659 172.246 742.659 172.225 742.656 172.205V171.91C742.656 171.91 742.656 171.854 742.656 171.824C742.654 171.801 742.654 171.779 742.656 171.756V171.664C742.656 171.664 742.687 171.486 742.711 171.375C742.713 171.346 742.713 171.318 742.711 171.289L741.491 170.914L740.942 171.123L742.162 171.492C742.162 171.492 742.162 171.547 742.162 171.584C742.162 171.621 742.114 171.836 742.107 171.867V171.965C742.105 171.988 742.105 172.01 742.107 172.033C742.104 172.059 742.104 172.086 742.107 172.113V172.217C742.111 172.238 742.111 172.258 742.107 172.279V172.359L742.144 172.445V172.475L742.181 172.543L742.229 172.623L742.315 172.734L742.406 172.832L742.516 172.918H742.553H742.595H742.638H742.681L742.827 172.961H742.876H742.98H743.126H743.187H743.236H743.297L743.84 172.758H743.73H743.675H743.529H743.425H743.376L743.297 172.918Z" fill="#C59A0B"/>
<path d="M743.242 168.738L743.327 168.313C743.327 168.313 743.327 168.277 743.327 168.264C743.369 168.076 743.46 167.902 743.59 167.76C743.684 167.66 743.802 167.584 743.931 167.539L743.382 167.748C743.253 167.793 743.135 167.869 743.041 167.969C742.911 168.109 742.821 168.281 742.778 168.467C742.778 168.467 742.778 168.504 742.778 168.516L742.693 168.947V169.18L743.242 168.971V168.738Z" fill="#C59A0B"/>
<path d="M745.81 172.635C745.813 172.615 745.813 172.594 745.81 172.574C745.813 172.514 745.813 172.455 745.81 172.395C745.81 172.395 745.81 172.365 745.81 172.352C745.81 172.34 745.81 172.205 745.81 172.131C745.81 172.057 745.81 172.094 745.81 172.076V171.897C745.81 171.897 745.81 171.861 745.81 171.836C745.81 171.811 745.78 171.688 745.761 171.615C745.743 171.541 745.761 171.615 745.761 171.572L745.725 171.449V171.393L745.688 171.295C745.671 171.246 745.651 171.199 745.627 171.154C745.617 171.119 745.602 171.086 745.584 171.055C745.587 171.037 745.587 171.018 745.584 171L745.505 170.846C745.476 170.791 745.444 170.737 745.407 170.686C745.4 170.669 745.389 170.652 745.377 170.637L745.328 170.557C745.309 170.522 745.287 170.489 745.261 170.459L745.231 170.416L745.127 170.287L745.035 170.188L744.98 170.139C744.98 170.139 744.98 170.139 744.95 170.109L744.889 170.066H744.852L744.785 170.022H744.743L744.669 169.986L744.523 169.93H744.492L744.352 169.887L744.187 169.85H744.145L743.974 169.813L743.754 169.752L740.826 168.836L740.637 168.799H740.607H740.43H740.399C740.343 168.793 740.285 168.793 740.229 168.799C740.171 168.808 740.114 168.821 740.058 168.836H739.966L739.417 169.045H739.509C739.564 169.027 739.622 169.015 739.68 169.008H739.85H739.881C739.94 169.005 739.999 169.005 740.058 169.008H740.088L740.277 169.045L742.992 169.813C743.067 169.825 743.141 169.846 743.211 169.875L743.382 169.912H743.425L743.59 169.955L743.73 169.998C743.781 170.011 743.83 170.029 743.876 170.053L743.956 170.09H743.992L744.059 170.127L744.108 170.164H744.151L744.206 170.213L744.273 170.268L744.364 170.367C744.401 170.404 744.431 170.447 744.468 170.49L744.499 170.539L744.566 170.631L744.633 170.729C744.641 170.747 744.651 170.764 744.663 170.779L744.755 170.938C744.793 171.006 744.828 171.076 744.858 171.147C744.875 171.177 744.889 171.208 744.901 171.24C744.924 171.288 744.944 171.337 744.962 171.387L744.999 171.486L745.054 171.664C745.054 171.664 745.054 171.664 745.054 171.701C745.075 171.775 745.091 171.851 745.102 171.928C745.102 171.928 745.102 171.965 745.102 171.984V172.168C745.102 172.168 745.102 172.205 745.102 172.223C745.102 172.242 745.102 172.371 745.102 172.445C745.105 172.457 745.105 172.469 745.102 172.481C745.102 172.543 745.102 172.604 745.102 172.666C745.105 172.686 745.105 172.707 745.102 172.727C745.102 172.795 745.102 172.869 745.072 172.936C744.955 173.534 744.564 174.041 744.017 174.301L743.907 174.35L744.456 174.141L744.566 174.098C745.113 173.84 745.503 173.332 745.615 172.734C745.683 172.706 745.748 172.673 745.81 172.635Z" fill="#C59A0B"/>
<path d="M745.2 165.854L745.103 165.824H745.023H744.926H744.84H744.737H744.657H744.096L743.913 165.854L743.364 166.063H743.547H743.614H743.736H743.98H744.084H744.163H744.267H744.352H744.45H744.529H744.627L744.706 166.094C744.746 166.11 744.785 166.129 744.822 166.15L744.987 166.229L745.035 166.266L745.145 166.334L745.2 166.377L745.298 166.451L745.353 166.494L745.438 166.58L745.487 166.623L745.584 166.721L745.621 166.764L745.731 166.9L745.847 167.066C745.889 167.133 745.932 167.195 745.969 167.262L748.763 172.291L748.805 172.383C748.805 172.383 748.805 172.383 748.805 172.432V172.506V172.555C748.805 172.555 748.805 172.555 748.805 172.592C748.818 172.639 748.828 172.686 748.836 172.734C748.836 172.734 748.836 172.734 748.836 172.77V172.936C748.839 172.983 748.839 173.031 748.836 173.078V173.139C748.839 173.192 748.839 173.246 748.836 173.299C748.736 173.735 748.427 174.093 748.012 174.252L748.561 174.043C749.01 173.929 749.367 173.586 749.501 173.139C749.504 173.086 749.504 173.033 749.501 172.979V172.936C749.504 172.889 749.504 172.842 749.501 172.795V172.629C749.501 172.629 749.501 172.629 749.501 172.586C749.493 172.54 749.483 172.495 749.47 172.451V172.402C749.47 172.402 749.47 172.352 749.47 172.328C749.468 172.309 749.468 172.291 749.47 172.272V172.229C749.468 172.213 749.468 172.197 749.47 172.18L746.676 167.158C746.639 167.09 746.599 167.024 746.554 166.961L746.445 166.807C746.415 166.764 746.383 166.723 746.347 166.684L746.31 166.641C746.281 166.606 746.248 166.573 746.213 166.543L746.164 166.494L746.121 166.451L746.072 166.414C746.058 166.396 746.041 166.38 746.024 166.365L745.926 166.291L745.877 166.254L745.786 166.199H745.737L745.572 166.113H745.517H745.456L745.2 165.854Z" fill="#C59A0B"/>
<path d="M742.26 176.625L742.809 176.416L742.26 176.625Z" fill="#7C939A"/>
<path d="M742.345 176.588L742.894 176.385L742.809 176.416L742.26 176.625L742.345 176.588Z" fill="#788E95"/>
<path d="M743.077 166.064L743.626 165.861L743.822 165.793L743.273 166.002L743.077 166.064Z" fill="#95B0B8"/>
<path d="M743.273 166.002L743.822 165.793H743.913L743.364 166.002H743.273Z" fill="#99B5BD"/>
<path d="M748.128 174.27L748.677 174.061L748.543 174.117L747.994 174.326L748.128 174.27Z" fill="#788E95"/>
<path d="M744.883 171.055C744.596 170.364 743.952 169.891 743.211 169.826C743.141 169.797 743.067 169.776 742.992 169.764L740.277 168.996C739.927 168.894 739.552 168.931 739.228 169.1C738.914 169.275 738.672 169.556 738.545 169.893C738.494 170.012 738.455 170.136 738.429 170.262C738.374 170.525 738.361 170.795 738.392 171.061C738.441 171.478 738.574 171.879 738.783 172.242L740.863 175.93C741.102 176.47 741.689 176.762 742.26 176.625L742.345 176.588L739.564 171.713C739.475 171.558 739.419 171.387 739.399 171.209C739.384 171.113 739.384 171.016 739.399 170.92C739.416 170.853 739.438 170.787 739.466 170.723C739.523 170.587 739.627 170.475 739.759 170.41C739.897 170.358 740.048 170.358 740.186 170.41L742.833 171.203C742.912 171.222 742.99 171.246 743.065 171.277C743.327 171.312 743.555 171.475 743.675 171.713C743.828 171.954 743.893 172.241 743.858 172.525C743.812 172.76 743.665 172.963 743.455 173.078C743.243 173.197 742.99 173.22 742.76 173.139C742.515 173.032 742.311 172.846 742.181 172.611C742.037 172.372 742.01 172.079 742.107 171.818C742.107 171.818 742.138 171.639 742.162 171.535C742.187 171.43 742.162 171.467 742.162 171.443L740.942 171.074L740.93 171.295C740.748 171.923 740.855 172.6 741.223 173.139C741.516 173.684 741.979 174.116 742.54 174.369C743.06 174.605 743.656 174.605 744.175 174.369C744.699 174.111 745.076 173.627 745.2 173.053C745.338 172.371 745.225 171.661 744.883 171.055Z" fill="#FFF1D4"/>
<path d="M743.37 165.977C742.888 166.092 742.452 166.351 742.12 166.721C741.815 167.071 741.605 167.495 741.51 167.951V168.049L741.436 168.473L741.369 168.879L742.687 169.18V168.947L742.772 168.516C742.772 168.516 742.772 168.516 742.772 168.467C742.815 168.281 742.905 168.109 743.035 167.969C743.174 167.824 743.356 167.727 743.553 167.693C743.761 167.661 743.974 167.693 744.163 167.785C744.347 167.883 744.496 168.035 744.59 168.221L747.982 174.301L748.116 174.246C748.531 174.087 748.84 173.729 748.939 173.293C749.009 172.947 748.955 172.588 748.787 172.279L745.993 167.25C745.73 166.764 745.326 166.371 744.834 166.125C744.376 165.915 743.861 165.863 743.37 165.977Z" fill="#FFF1D4"/>
<path d="M809.429 98.4115L809.48 98.4698C810.78 99.9281 811.221 101.948 810.898 104.208C810.898 104.208 810.898 104.259 810.898 104.289C810.58 106.143 809.926 107.924 808.966 109.546C808.122 111.004 807.116 112.363 805.968 113.6C805.364 114.259 804.724 114.885 804.051 115.474C803.478 115.984 802.89 116.471 802.287 116.932C800.936 117.936 799.477 118.789 797.938 119.477C796.255 120.262 794.448 120.756 792.597 120.935C790.033 121.125 787.821 120.476 786.411 118.894C786.39 118.878 786.372 118.858 786.359 118.835L782.458 114.46L785.198 112.04C785.613 110.412 786.272 108.856 787.153 107.424C788.023 105.991 789.048 104.656 790.209 103.443C790.723 102.903 791.267 102.378 791.84 101.875C792.511 101.283 793.212 100.725 793.941 100.205C795.312 99.2166 796.791 98.385 798.349 97.7261C799.754 97.119 801.238 96.7115 802.758 96.5156L805.505 94.0875L809.429 98.4115Z" fill="#977700"/>
<path d="M805.527 94.051L809.48 98.4698C810.78 99.9281 811.221 101.948 810.898 104.208L803.448 95.8885L805.527 94.051Z" fill="#8C7005"/>
<path d="M784.861 112.28L792.575 120.892C790.011 121.081 787.799 120.432 786.389 118.85C786.368 118.834 786.35 118.814 786.337 118.792L782.436 114.417L784.861 112.28Z" fill="#E0B41D"/>
<path d="M787.123 107.417L797.923 119.477C796.24 120.262 794.433 120.756 792.582 120.935L784.875 112.331L785.184 112.061C785.598 110.434 786.257 108.878 787.138 107.446L787.123 107.417Z" fill="#CDA115"/>
<path d="M790.187 103.406L802.273 116.896C800.921 117.9 799.463 118.753 797.923 119.441L787.116 107.417C787.987 105.984 789.011 104.649 790.172 103.435L790.187 103.406Z" fill="#C59A0B"/>
<path d="M793.927 100.169L805.954 113.607C805.349 114.266 804.709 114.892 804.036 115.481C803.463 115.992 802.875 116.478 802.273 116.94L790.18 103.414C790.694 102.874 791.238 102.349 791.811 101.846C792.482 101.254 793.183 100.696 793.912 100.176L793.927 100.169Z" fill="#AE890C"/>
<path d="M798.342 97.6896L808.958 109.546C808.114 111.004 807.109 112.363 805.961 113.6L793.919 100.169C795.29 99.1801 796.769 98.3485 798.327 97.6896L798.342 97.6896Z" fill="#977910"/>
<path d="M803.404 95.9323L810.891 104.289C810.573 106.143 809.918 107.924 808.958 109.546L798.335 97.6896C799.739 97.0826 801.223 96.6751 802.743 96.4792L803.404 95.9323Z" fill="#947508"/>
<ellipse cx="794.024" cy="104.295" rx="15.4067" ry="9.15989" transform="rotate(-41.63 794.024 104.295)" fill="url(#paint24_linear_25_61873)"/>
<path d="M805.579 94.1094C806.149 94.7123 806.585 95.4279 806.857 96.2094C807.111 96.9937 807.236 97.8137 807.225 98.6375C807.169 100.287 806.795 101.911 806.123 103.421C805.476 104.932 804.639 106.355 803.632 107.657C801.648 110.291 799.149 112.5 796.285 114.154C794.863 114.993 793.34 115.65 791.752 116.108C790.161 116.584 788.493 116.755 786.837 116.611C786.014 116.52 785.211 116.301 784.456 115.962C783.709 115.618 783.043 115.121 782.502 114.504C782.786 114.797 783.098 115.061 783.435 115.292C783.597 115.416 783.773 115.503 783.95 115.612C784.126 115.722 784.31 115.795 784.501 115.875C785.251 116.186 786.048 116.373 786.859 116.429C788.484 116.538 790.116 116.335 791.664 115.831C793.217 115.345 794.709 114.682 796.109 113.855C798.897 112.171 801.346 109.988 803.331 107.417C804.327 106.136 805.168 104.743 805.836 103.268C806.512 101.821 806.906 100.259 806.997 98.6667C807.037 97.8596 806.943 97.0515 806.718 96.275C806.663 96.0794 806.596 95.8871 806.519 95.699C806.444 95.512 806.358 95.3294 806.262 95.1521C806.073 94.7813 805.843 94.4318 805.579 94.1094Z" fill="#FBD367"/>
<path d="M799.048 109.91C796.461 112.295 793.281 113.951 789.834 114.708C786.161 115.379 784.449 114.161 783.744 113.374C783.039 112.586 782.025 110.742 783.119 107.213C785.623 100.569 791.275 95.5838 798.217 93.898C801.891 93.2271 803.603 94.4448 804.308 95.2323C805.013 96.0198 806.027 97.8646 804.925 101.394C803.768 104.703 801.738 107.644 799.048 109.91Z" fill="url(#paint25_linear_25_61873)"/>
<path d="M789.834 114.708C788.874 114.947 787.883 115.038 786.896 114.978C785.882 114.914 784.906 114.568 784.082 113.979C783.666 113.663 783.316 113.269 783.053 112.82C782.786 112.367 782.593 111.874 782.48 111.361C782.282 110.357 782.282 109.325 782.48 108.321C782.885 106.352 783.671 104.48 784.794 102.808C787.01 99.4957 790.056 96.8121 793.633 95.0209C795.436 94.1045 797.403 93.5495 799.422 93.3875C800.45 93.306 801.484 93.4274 802.464 93.7448C802.957 93.9149 803.421 94.1609 803.838 94.474C804.259 94.7851 804.614 95.1768 804.881 95.6261C805.372 96.5176 805.601 97.5282 805.542 98.5427C805.481 99.5261 805.27 100.495 804.918 101.416C804.976 101.182 805.035 100.942 805.079 100.686C805.123 100.431 805.175 100.205 805.197 99.9573C805.259 99.4738 805.283 98.9862 805.27 98.499C805.256 97.5554 804.979 96.6342 804.469 95.8375C803.939 95.0847 803.159 94.5404 802.265 94.299C801.359 94.0549 800.414 93.9856 799.481 94.0948C797.58 94.3206 795.739 94.8969 794.051 95.7938C790.642 97.5857 787.724 100.176 785.551 103.341C784.459 104.899 783.667 106.644 783.215 108.489C783.004 109.397 782.964 110.336 783.097 111.259C783.232 112.169 783.685 113.002 784.376 113.615C785.115 114.208 786.005 114.588 786.947 114.716C787.433 114.788 787.925 114.82 788.416 114.81C788.659 114.81 788.901 114.81 789.151 114.81L789.834 114.708Z" fill="#AE890C"/>
<path d="M792.898 99.8625H792.942L793.03 99.7969L793.118 99.7458H793.162L793.302 99.6875C793.409 99.6403 793.523 99.6131 793.64 99.6073C793.723 99.6 793.807 99.6 793.89 99.6073C794.069 99.6285 794.233 99.7141 794.353 99.8479L793.934 99.2719C793.815 99.1381 793.65 99.0525 793.471 99.0313C793.388 99.024 793.304 99.024 793.221 99.0313C793.102 99.037 792.985 99.0642 792.876 99.1115L792.744 99.1698H792.7L792.626 99.2136H792.589L792.509 99.2792H792.465L792.391 99.3521L787.601 104.165L788.02 104.733L792.81 99.9281L792.898 99.8625Z" fill="#C59A0B"/>
<path d="M792.163 104.135C792.16 104.106 792.16 104.077 792.163 104.048C792.163 104.048 792.163 104.048 792.163 103.997C792.166 103.978 792.166 103.958 792.163 103.939C792.166 103.922 792.166 103.904 792.163 103.888C792.166 103.873 792.166 103.858 792.163 103.844L792.229 103.683C792.252 103.635 792.279 103.588 792.31 103.545L792.413 103.414C792.436 103.379 792.463 103.347 792.494 103.319L792.589 103.231L792.678 103.166L792.898 103.042H792.964H793.06H793.162H793.427H793.78H793.89L793.934 101.51L793.515 100.934L793.471 102.466H793.361H793.008H792.744H792.641H792.545H792.479L792.391 102.517L792.303 102.582L792.237 102.641C792.206 102.669 792.179 102.701 792.156 102.735C792.115 102.778 792.078 102.825 792.046 102.874L791.965 103.013L791.899 103.166V103.209C791.899 103.209 791.899 103.209 791.899 103.26C791.899 103.311 791.899 103.26 791.899 103.319C791.899 103.377 791.899 103.319 791.899 103.37C791.895 103.389 791.895 103.409 791.899 103.428C791.895 103.491 791.895 103.555 791.899 103.618C791.899 103.618 791.899 103.618 791.899 103.676C791.895 103.715 791.895 103.754 791.899 103.793V103.858C791.899 103.858 791.899 103.931 791.899 103.968L791.935 104.033V104.092C791.949 104.11 791.962 104.13 791.972 104.15L792.398 104.726C792.37 104.687 792.345 104.646 792.325 104.602V104.536C792.308 104.504 792.296 104.47 792.288 104.434V104.369C792.284 104.328 792.284 104.286 792.288 104.245C792.288 104.245 792.288 104.245 792.288 104.186C792.246 104.171 792.204 104.154 792.163 104.135Z" fill="#C59A0B"/>
<path d="M797.02 102.728L797.541 102.684H797.607C797.839 102.671 798.069 102.719 798.276 102.823C798.42 102.906 798.545 103.018 798.643 103.151L798.224 102.575C798.125 102.44 797.997 102.328 797.85 102.247C797.644 102.142 797.413 102.094 797.181 102.108H797.122H796.593L796.314 102.152L796.733 102.721L797.02 102.728Z" fill="#C59A0B"/>
<path d="M793.302 106.972H793.376C793.448 106.964 793.519 106.95 793.589 106.928H793.633L793.89 106.848H793.949L794.154 106.768H794.22C794.301 106.724 794.389 106.687 794.47 106.636L794.61 106.556L794.669 106.512L794.771 106.44L794.918 106.33L795.014 106.243L795.073 106.199L795.227 106.053L795.381 105.893L795.425 105.842L795.506 105.754L795.594 105.645L795.638 105.586C795.675 105.535 795.719 105.484 795.749 105.433L795.837 105.295V105.251L795.881 105.178V105.127C795.877 105.1 795.877 105.073 795.881 105.047C795.881 105.047 795.881 105.047 795.881 104.989V104.945V104.85C795.884 104.833 795.884 104.816 795.881 104.799V104.697V104.515V104.281C795.885 104.221 795.885 104.16 795.881 104.099C795.884 104.031 795.884 103.963 795.881 103.895V103.844C795.881 103.778 795.881 103.705 795.881 103.632C795.889 103.54 795.889 103.447 795.881 103.355V99.9281C795.881 99.8479 795.881 99.7677 795.881 99.6875C795.873 99.6157 795.858 99.5449 795.837 99.476L795.771 99.2792C795.743 99.2162 795.711 99.1553 795.675 99.0969L795.609 99.0021L795.183 98.426L795.256 98.5281C795.256 98.5864 795.322 98.6521 795.352 98.7104L795.418 98.9C795.44 98.9689 795.454 99.0397 795.462 99.1114V99.1479C795.462 99.2208 795.462 99.301 795.462 99.3812V102.794C795.462 102.969 795.462 103.02 795.462 103.078C795.462 103.136 795.462 103.217 795.462 103.282V103.333C795.462 103.406 795.462 103.472 795.462 103.537C795.462 103.596 795.462 103.654 795.462 103.712V103.771V103.953C795.462 103.953 795.462 103.953 795.462 103.997V104.099C795.462 104.099 795.462 104.099 795.462 104.157C795.465 104.186 795.465 104.216 795.462 104.245V104.318V104.369C795.462 104.369 795.462 104.42 795.462 104.449C795.464 104.466 795.464 104.483 795.462 104.5L795.418 104.587V104.631L795.33 104.77L795.22 104.93L795.176 104.981L795.08 105.091C795.055 105.128 795.025 105.162 794.992 105.193L794.948 105.244L794.786 105.411L794.58 105.601L794.485 105.681L794.338 105.791L794.235 105.864L794.037 105.987L793.787 106.119H793.721L793.515 106.199H793.456L793.199 106.279H793.148L792.935 106.323H792.898H792.641C791.918 106.407 791.198 106.151 790.694 105.63L790.606 105.514L791.024 106.09L791.113 106.206C791.595 106.763 792.315 107.058 793.052 107.001L793.302 106.972Z" fill="#C59A0B"/>
<path d="M801.024 104.084V103.968C801.027 103.931 801.027 103.895 801.024 103.858C801.027 103.819 801.027 103.78 801.024 103.742C801.028 103.708 801.028 103.673 801.024 103.64C801.028 103.598 801.028 103.557 801.024 103.516C801.027 103.482 801.027 103.447 801.024 103.414V103.29V103.195C801.027 103.151 801.027 103.107 801.024 103.064C801.027 103.034 801.027 103.005 801.024 102.976C801.01 102.929 800.993 102.882 800.972 102.837C800.976 102.813 800.976 102.789 800.972 102.765C800.972 102.692 800.914 102.626 800.877 102.553L800.458 101.977C800.458 102.05 800.524 102.116 800.554 102.189C800.556 102.213 800.556 102.237 800.554 102.261L800.605 102.4C800.608 102.429 800.608 102.458 800.605 102.487C800.605 102.531 800.605 102.575 800.605 102.619V102.714V102.837C800.608 102.871 800.608 102.906 800.605 102.94C800.608 102.981 800.608 103.022 800.605 103.064C800.609 103.097 800.609 103.132 800.605 103.166C800.605 103.166 800.605 103.246 800.605 103.29C800.608 103.323 800.608 103.358 800.605 103.392V103.508C800.601 103.545 800.601 103.581 800.605 103.618V103.771L800.561 103.99V104.055L800.517 104.201C800.514 104.225 800.514 104.25 800.517 104.274C800.517 104.318 800.48 104.361 800.458 104.412C800.461 104.437 800.461 104.461 800.458 104.485C800.441 104.53 800.422 104.574 800.399 104.617L800.355 104.69L800.274 104.828C800.259 104.848 800.247 104.87 800.238 104.894L800.113 105.069L799.958 105.258L799.767 105.462L794.669 110.333L794.573 110.421H794.522L794.441 110.479C794.424 110.482 794.406 110.482 794.389 110.479H794.353C794.307 110.514 794.258 110.543 794.206 110.567H794.154L793.971 110.64L793.802 110.683H793.75H793.559C793.015 110.707 792.495 110.461 792.171 110.027L792.597 110.603C792.916 111.039 793.436 111.283 793.978 111.252C794.041 111.259 794.106 111.259 794.169 111.252H794.22L794.389 111.208L794.573 111.135H794.625L794.771 111.048L794.816 111.011L794.896 110.953L794.948 110.909L794.992 110.873L795.043 110.829L800.002 105.958L800.194 105.754L800.34 105.579L800.451 105.426C800.46 105.403 800.472 105.381 800.487 105.36C800.519 105.317 800.546 105.27 800.568 105.222L800.612 105.149C800.61 105.127 800.61 105.105 800.612 105.083C800.61 105.062 800.61 105.039 800.612 105.018C800.612 105.018 800.612 104.967 800.612 104.937C800.635 104.895 800.655 104.851 800.671 104.806C800.67 104.782 800.67 104.758 800.671 104.733V104.609V104.536L800.715 104.325C800.715 104.325 800.715 104.274 800.715 104.252C800.715 104.23 800.715 104.194 800.715 104.165C800.715 104.135 801.016 104.121 801.024 104.084Z" fill="#C59A0B"/>
<path d="M787.49 104.114L787.909 104.69L787.49 104.114Z" fill="#7C939A"/>
<path d="M787.557 104.201L787.976 104.777L787.909 104.69L787.491 104.114L787.557 104.201Z" fill="#788E95"/>
<path d="M800.091 101.678L800.509 102.254L800.642 102.458L800.223 101.882L800.091 101.678Z" fill="#95B0B8"/>
<path d="M800.245 101.882L800.664 102.458L800.722 102.553L800.304 101.977L800.245 101.882Z" fill="#99B5BD"/>
<path d="M792.149 110.209L792.575 110.785L792.465 110.647L792.046 110.071L792.149 110.209Z" fill="#788E95"/>
<path d="M794.845 105.39C795.546 104.827 795.884 103.93 795.726 103.049C795.726 102.991 795.726 102.94 795.726 102.765V99.3521C795.734 98.9091 795.568 98.4805 795.264 98.1562C794.956 97.8496 794.551 97.6588 794.117 97.6167C793.964 97.6021 793.809 97.6021 793.655 97.6167C793.329 97.6391 793.009 97.713 792.707 97.8354C792.234 98.0221 791.808 98.3082 791.458 98.674L787.836 102.276C787.293 102.737 787.146 103.51 787.483 104.135L787.549 104.223L792.34 99.4104C792.487 99.2542 792.668 99.1322 792.869 99.0531C792.978 99.0059 793.095 98.9787 793.214 98.9729C793.297 98.9657 793.381 98.9657 793.464 98.9729C793.642 98.9941 793.807 99.0797 793.926 99.2135C794.039 99.3535 794.091 99.5314 794.073 99.7094L794.022 103.042C794.022 103.042 794.022 103.209 794.022 103.341C794.075 103.667 793.956 103.997 793.706 104.216C793.47 104.468 793.148 104.624 792.802 104.653C792.509 104.681 792.219 104.574 792.016 104.361C791.819 104.14 791.73 103.844 791.774 103.552C791.816 103.228 791.966 102.928 792.2 102.699C792.432 102.458 792.762 102.335 793.096 102.364H793.449H793.559L793.603 100.832H793.309C792.509 100.817 791.744 101.163 791.23 101.773C790.693 102.292 790.34 102.97 790.224 103.705C790.105 104.386 790.287 105.084 790.723 105.623C791.205 106.179 791.926 106.474 792.663 106.418C793.491 106.345 794.265 105.98 794.845 105.39Z" fill="#FFF1D4"/>
<path d="M800.282 101.977C799.987 101.454 799.542 101.03 799.003 100.759C798.496 100.516 797.934 100.408 797.372 100.446H797.247L796.733 100.497L796.233 100.548L796.314 102.189L796.593 102.145H797.122H797.181C797.413 102.13 797.644 102.178 797.85 102.283C798.066 102.402 798.239 102.586 798.342 102.808C798.447 103.036 798.478 103.291 798.43 103.538C798.373 103.794 798.237 104.026 798.041 104.201L792.046 110.115L792.149 110.253C792.473 110.687 792.993 110.933 793.537 110.909C793.964 110.88 794.366 110.699 794.669 110.399L799.628 105.528C800.116 105.053 800.445 104.439 800.568 103.771C800.675 103.158 800.575 102.527 800.282 101.977Z" fill="#FFF1D4"/>
<g opacity="0.667528">
<path fill-rule="evenodd" clip-rule="evenodd" d="M363.693 85C345.932 85 332.739 71.3835 332.739 54.1669V54C332.739 36.9576 345.676 23 364.212 23C375.6 23 382.412 26.767 388.011 32.247L379.561 41.9223C374.906 37.727 370.162 35.1576 364.125 35.1576C353.95 35.1576 346.619 43.5481 346.619 53.8258V54C346.619 64.2777 353.782 72.8715 364.125 72.8715C371.024 72.8715 375.249 70.1351 379.993 65.8527L388.442 74.2796C382.237 80.8846 375.337 85 363.693 85ZM98.166 44.8328V83.9693H111.388V24.0234H97.077L81.2088 49.3765L65.3406 24.0234H51V83.9693H64.0249V45.0941L80.836 70.4399H81.1795L98.166 44.8328ZM125.853 83.9693H149.396C168.4 83.9693 181.476 70.8682 181.476 54V53.8258C181.476 36.9576 168.4 24.0234 149.396 24.0234H125.853V83.9693ZM167.588 54C167.588 43.3812 160.279 35.9269 149.396 35.9269H139.163V72.1021H149.396C160.265 72.1021 167.588 64.8438 167.588 54.2032V54ZM193.295 24.0234V83.9693H239.255V72.24H206.488V59.6469H234.913V47.9176H206.488V35.76H238.824V24.0234H193.295ZM288.752 83.9693L275.216 63.3922L261.592 83.9693H246.498L267.541 53.4847L247.339 24.0234H262.863L275.537 43.4683L288.299 24.0234H303.393L283.234 53.3105L304.277 83.9693H288.752ZM312.303 70.2657V83.9693H326.278V70.2657H312.303ZM394.655 54.1669C394.655 71.2093 408.023 85 426.647 85C445.278 85 458.815 71.0424 458.807 54V53.8258C458.807 36.7907 445.432 23 426.815 23C408.199 23 394.655 36.9576 394.655 54V54.1669ZM444.92 54C444.92 43.7223 437.326 35.1285 426.647 35.1285C415.968 35.1285 408.542 43.5191 408.542 53.7968V53.971C408.542 64.2487 416.129 72.8424 426.815 72.8424C437.501 72.8424 444.927 64.4519 444.927 54.1742L444.92 54ZM517.778 44.8328V83.9693H531V24.0234H516.681L500.813 49.3765L484.945 24.0234H470.634V83.9693H483.659V45.0941L500.47 70.4399H500.813L517.778 44.8328Z" fill="url(#paint26_linear_25_61873)"/>
<path fill-rule="evenodd" clip-rule="evenodd" d="M363.693 85C345.932 85 332.739 71.3835 332.739 54.1669V54C332.739 36.9576 345.676 23 364.212 23C375.6 23 382.412 26.767 388.011 32.247L379.561 41.9223C374.906 37.727 370.162 35.1576 364.125 35.1576C353.95 35.1576 346.619 43.5481 346.619 53.8258V54C346.619 64.2777 353.782 72.8715 364.125 72.8715C371.024 72.8715 375.249 70.1351 379.993 65.8527L388.442 74.2796C382.237 80.8846 375.337 85 363.693 85ZM98.166 44.8328V83.9693H111.388V24.0234H97.077L81.2088 49.3765L65.3406 24.0234H51V83.9693H64.0249V45.0941L80.836 70.4399H81.1795L98.166 44.8328ZM125.853 83.9693H149.396C168.4 83.9693 181.476 70.8682 181.476 54V53.8258C181.476 36.9576 168.4 24.0234 149.396 24.0234H125.853V83.9693ZM167.588 54C167.588 43.3812 160.279 35.9269 149.396 35.9269H139.163V72.1021H149.396C160.265 72.1021 167.588 64.8438 167.588 54.2032V54ZM193.295 24.0234V83.9693H239.255V72.24H206.488V59.6469H234.913V47.9176H206.488V35.76H238.824V24.0234H193.295ZM288.752 83.9693L275.216 63.3922L261.592 83.9693H246.498L267.541 53.4847L247.339 24.0234H262.863L275.537 43.4683L288.299 24.0234H303.393L283.234 53.3105L304.277 83.9693H288.752ZM312.303 70.2657V83.9693H326.278V70.2657H312.303ZM394.655 54.1669C394.655 71.2093 408.023 85 426.647 85C445.278 85 458.815 71.0424 458.807 54V53.8258C458.807 36.7907 445.432 23 426.815 23C408.199 23 394.655 36.9576 394.655 54V54.1669ZM444.92 54C444.92 43.7223 437.326 35.1285 426.647 35.1285C415.968 35.1285 408.542 43.5191 408.542 53.7968V53.971C408.542 64.2487 416.129 72.8424 426.815 72.8424C437.501 72.8424 444.927 64.4519 444.927 54.1742L444.92 54ZM517.778 44.8328V83.9693H531V24.0234H516.681L500.813 49.3765L484.945 24.0234H470.634V83.9693H483.659V45.0941L500.47 70.4399H500.813L517.778 44.8328Z" fill="url(#paint27_linear_25_61873)"/>
</g>
<path d="M139.72 103H151.12V79L161.8 95.32H162.04L172.78 78.88V103H184.36V61H172.06L162.04 77.26L152.02 61H139.72V103Z" fill="white"/>
<path d="M191.81 103H207.77C222.89 103 231.71 94 231.71 81.88V81.76C231.71 69.64 223.01 61 208.01 61H191.81V103ZM203.45 92.68V71.32H208.19C215.15 71.32 219.77 75.22 219.77 81.94V82.06C219.77 88.84 215.15 92.68 208.19 92.68H203.45Z" fill="white"/>
<path d="M237.689 103H271.769V93.1H249.209V86.44H269.369V77.26H249.209V70.9H271.469V61H237.689V103Z" fill="white"/>
<path d="M274.648 103H287.728L295.828 90.34L303.868 103H317.248L302.848 81.52L316.648 61H303.568L296.068 72.82L288.628 61H275.248L289.048 81.64L274.648 103Z" fill="white"/>
</g>
<defs>
<linearGradient id="paint0_linear_25_61873" x1="846.277" y1="214.055" x2="846.277" y2="2.04388" gradientUnits="userSpaceOnUse">
<stop stop-color="#111010"/>
<stop offset="1" stop-color="#2A2A2A"/>
</linearGradient>
<linearGradient id="paint1_linear_25_61873" x1="736" y1="15" x2="736" y2="68.9975" gradientUnits="userSpaceOnUse">
<stop stop-color="#FFCA13"/>
<stop offset="1" stop-color="#3490FF" stop-opacity="0.01"/>
</linearGradient>
<linearGradient id="paint2_linear_25_61873" x1="611" y1="0" x2="611" y2="53.9975" gradientUnits="userSpaceOnUse">
<stop stop-color="#FFCA13"/>
<stop offset="1" stop-color="#3490FF" stop-opacity="0.01"/>
</linearGradient>
<linearGradient id="paint3_linear_25_61873" x1="572" y1="113" x2="572" y2="166.998" gradientUnits="userSpaceOnUse">
<stop stop-color="#FFCA13"/>
<stop offset="1" stop-color="#3490FF" stop-opacity="0.01"/>
</linearGradient>
<linearGradient id="paint4_linear_25_61873" x1="776" y1="78" x2="776" y2="128.998" gradientUnits="userSpaceOnUse">
<stop stop-color="#FFCA13"/>
<stop offset="1" stop-color="#3490FF" stop-opacity="0.01"/>
</linearGradient>
<linearGradient id="paint5_linear_25_61873" x1="757" y1="142" x2="757" y2="192.998" gradientUnits="userSpaceOnUse">
<stop stop-color="#FFCA13"/>
<stop offset="1" stop-color="#3490FF" stop-opacity="0.01"/>
</linearGradient>
<linearGradient id="paint6_linear_25_61873" x1="907" y1="256" x2="907" y2="127" gradientUnits="userSpaceOnUse">
<stop stop-color="#FFCA13"/>
<stop offset="1" stop-color="#FFCA13" stop-opacity="0.01"/>
</linearGradient>
<linearGradient id="paint7_linear_25_61873" x1="712.13" y1="51.7714" x2="745.444" y2="51.7806" gradientUnits="userSpaceOnUse">
<stop stop-color="#A38102"/>
<stop offset="0.314921" stop-color="#A48109"/>
<stop offset="0.649887" stop-color="#C69B0C"/>
<stop offset="1" stop-color="#D3A710"/>
</linearGradient>
<linearGradient id="paint8_linear_25_61873" x1="639.003" y1="177.55" x2="686.23" y2="177.547" gradientUnits="userSpaceOnUse">
<stop stop-color="#8C7005"/>
<stop offset="0.263796" stop-color="#F3C236"/>
<stop offset="0.664762" stop-color="#977910"/>
<stop offset="1" stop-color="#947506"/>
</linearGradient>
<linearGradient id="paint9_linear_25_61873" x1="653.143" y1="182.16" x2="748" y2="182.16" gradientUnits="userSpaceOnUse">
<stop stop-color="#F9C42C"/>
<stop offset="0.63" stop-color="#C59A0B"/>
<stop offset="1" stop-color="#A58406"/>
</linearGradient>
<linearGradient id="paint10_linear_25_61873" x1="714.003" y1="54.001" x2="748.003" y2="54.001" gradientUnits="userSpaceOnUse">
<stop stop-color="#EBD386"/>
<stop offset="0.15" stop-color="#E3BE3E"/>
<stop offset="0.731368" stop-color="#F5D567"/>
<stop offset="1" stop-color="#FFDA58"/>
</linearGradient>
<linearGradient id="paint11_linear_25_61873" x1="652" y1="181.994" x2="701" y2="181.994" gradientUnits="userSpaceOnUse">
<stop stop-color="#FBE4A7"/>
<stop offset="0.15" stop-color="#FFE087"/>
<stop offset="0.72" stop-color="#FFEBB2"/>
<stop offset="1" stop-color="#FCCB48"/>
</linearGradient>
<linearGradient id="paint12_linear_25_61873" x1="672.871" y1="164.61" x2="742" y2="164.61" gradientUnits="userSpaceOnUse">
<stop stop-color="#C09805"/>
<stop offset="0.252493" stop-color="#7C6411"/>
<stop offset="0.64" stop-color="#D7AA1E"/>
<stop offset="1" stop-color="#DEB016"/>
</linearGradient>
<linearGradient id="paint13_linear_25_61873" x1="661.989" y1="173.002" x2="741.992" y2="173.002" gradientUnits="userSpaceOnUse">
<stop stop-color="#E6C140"/>
<stop offset="0.3" stop-color="#C6A42D"/>
<stop offset="0.51" stop-color="#AA8A1B"/>
<stop offset="0.71" stop-color="#F4C029"/>
<stop offset="1" stop-color="#F8EAC3"/>
</linearGradient>
<linearGradient id="paint14_linear_25_61873" x1="673.428" y1="163.751" x2="740.992" y2="163.751" gradientUnits="userSpaceOnUse">
<stop stop-color="#FCE6A7"/>
<stop offset="0.544866" stop-color="#FFE28F"/>
<stop offset="1" stop-color="#FFE69F"/>
</linearGradient>
<linearGradient id="paint15_linear_25_61873" x1="636.484" y1="123.125" x2="719.898" y2="171.526" gradientUnits="userSpaceOnUse">
<stop stop-color="#FFD74F"/>
<stop offset="1" stop-color="#BA9927"/>
</linearGradient>
<linearGradient id="paint16_linear_25_61873" x1="668.162" y1="109.554" x2="730.273" y2="119.328" gradientUnits="userSpaceOnUse">
<stop stop-color="#FFEFB5"/>
<stop offset="1" stop-color="#FFF8E0" stop-opacity="0.47"/>
</linearGradient>
<linearGradient id="paint17_linear_25_61873" x1="722.109" y1="28.2031" x2="639.008" y2="28.1709" gradientUnits="userSpaceOnUse">
<stop stop-color="#8D7002"/>
<stop offset="0.336282" stop-color="#947508"/>
<stop offset="0.632514" stop-color="#C59A0B"/>
<stop offset="1" stop-color="#DAAD12"/>
</linearGradient>
<linearGradient id="paint18_linear_25_61873" x1="671.161" y1="20.3606" x2="660.187" y2="20.3606" gradientUnits="userSpaceOnUse">
<stop stop-color="#FDCC4A"/>
<stop offset="1" stop-color="#DAAD11"/>
</linearGradient>
<linearGradient id="paint19_linear_25_61873" x1="663.765" y1="19.1499" x2="659.933" y2="26.6045" gradientUnits="userSpaceOnUse">
<stop stop-color="#F9C42C"/>
<stop offset="1" stop-color="#D0A50A"/>
</linearGradient>
<linearGradient id="paint20_linear_25_61873" x1="601.011" y1="194.855" x2="636.4" y2="203.528" gradientUnits="userSpaceOnUse">
<stop stop-color="#FDCC4A"/>
<stop offset="1" stop-color="#DAAD11"/>
</linearGradient>
<linearGradient id="paint21_linear_25_61873" x1="652.755" y1="155.599" x2="617.422" y2="149.13" gradientUnits="userSpaceOnUse">
<stop stop-color="#D0A50A"/>
<stop offset="1" stop-color="#F9C42C"/>
</linearGradient>
<linearGradient id="paint22_linear_25_61873" x1="736.087" y1="161.252" x2="736.087" y2="181.124" gradientUnits="userSpaceOnUse">
<stop stop-color="#FDCC4A"/>
<stop offset="1" stop-color="#DAAD11"/>
</linearGradient>
<linearGradient id="paint23_linear_25_61873" x1="735.761" y1="167.07" x2="742.793" y2="180.503" gradientUnits="userSpaceOnUse">
<stop stop-color="#F9C42C"/>
<stop offset="1" stop-color="#D0A50A"/>
</linearGradient>
<linearGradient id="paint24_linear_25_61873" x1="778.346" y1="102.002" x2="782.85" y2="116.976" gradientUnits="userSpaceOnUse">
<stop stop-color="#DAAD11"/>
<stop offset="1" stop-color="#FDCC4A"/>
</linearGradient>
<linearGradient id="paint25_linear_25_61873" x1="781.584" y1="114.724" x2="803.201" y2="114.072" gradientUnits="userSpaceOnUse">
<stop stop-color="#D0A50A"/>
<stop offset="1" stop-color="#F9C42C"/>
</linearGradient>
<linearGradient id="paint26_linear_25_61873" x1="529.727" y1="84.672" x2="529.727" y2="23" gradientUnits="userSpaceOnUse">
<stop stop-color="#082566"/>
<stop offset="1" stop-color="#0A3799"/>
</linearGradient>
<linearGradient id="paint27_linear_25_61873" x1="527.502" y1="84.672" x2="527.502" y2="23.5747" gradientUnits="userSpaceOnUse">
<stop offset="0.0105476" stop-color="#242323"/>
<stop offset="1" stop-color="#3D3D3D"/>
</linearGradient>
<clipPath id="clip0_25_61873">
<rect width="860" height="219" rx="40" fill="white"/>
</clipPath>
</defs>
</svg>
