<svg width="343" height="110" viewBox="0 0 343 110" fill="none" xmlns="http://www.w3.org/2000/svg">
<g clip-path="url(#clip0_25_61875)">
<rect width="343" height="110" rx="20" fill="url(#paint0_linear_25_61875)"/>
<g clip-path="url(#clip1_25_61875)">
<g clip-path="url(#clip2_25_61875)">
<rect opacity="0.04" x="288.386" y="7.08984" width="2.46359" height="25.5234" rx="1.2318" fill="url(#paint1_linear_25_61875)"/>
<rect opacity="0.0828359" x="229.457" width="2.46359" height="25.5234" rx="1.2318" fill="url(#paint2_linear_25_61875)"/>
<rect opacity="0.14929" x="211.072" y="53.4102" width="2.46359" height="25.5234" rx="1.2318" fill="url(#paint3_linear_25_61875)"/>
<rect opacity="0.0828359" x="307.243" y="36.8672" width="2.32673" height="24.1055" rx="1.16336" fill="url(#paint4_linear_25_61875)"/>
<rect opacity="0.268966" x="298.286" y="67.1172" width="2.32673" height="24.1055" rx="1.16336" fill="url(#paint5_linear_25_61875)"/>
<path opacity="0.4" fill-rule="evenodd" clip-rule="evenodd" d="M269.999 121C243.588 121 218.755 117.846 200.075 112.118C190.981 109.333 183.837 106.08 178.843 102.46C173.638 98.6881 171 94.668 171 90.5137C171 86.3594 173.638 82.3405 178.843 78.5672C183.837 74.9471 190.98 71.6978 200.075 68.9093C218.755 63.1817 243.588 60.0273 269.999 60.0273C296.41 60.0273 321.244 63.1817 339.924 68.9093C349.018 71.694 356.162 74.9471 361.156 78.5672C366.36 82.3405 369 86.3594 369 90.5137C369 94.668 366.36 98.6881 361.156 102.46C356.162 106.08 349.019 109.33 339.924 112.118C321.244 117.846 296.412 121 269.999 121ZM269.999 60.4071C215.62 60.4071 171.379 73.913 171.379 90.5137C171.379 107.114 215.62 120.62 269.999 120.62C324.378 120.62 368.621 107.114 368.621 90.5137C368.621 73.913 324.38 60.4071 269.999 60.4071ZM205.957 110.626C223.157 115.797 245.837 118.635 269.914 118.635L270.772 118.637C290.721 118.581 309.62 116.594 325.427 112.892C333.035 111.107 339.662 108.981 345.123 106.571C350.668 104.122 354.881 101.435 357.645 98.5854C360.251 95.8976 361.532 93.0934 361.454 90.2501C361.245 82.7049 351.511 75.6541 334.044 70.401C316.845 65.2302 294.163 62.3906 270.087 62.3906H269.229C249.28 62.4463 230.38 64.4337 214.575 68.1355C206.965 69.9206 200.338 72.0459 194.878 74.4568C189.333 76.9057 185.12 79.5923 182.355 82.4419C179.749 85.1298 178.468 87.9339 178.546 90.7773C178.755 98.3224 188.489 105.373 205.957 110.626ZM269.23 62.7674H270.08C319.913 62.7674 360.655 75.0447 361.078 90.2627C361.154 92.9986 359.904 95.7105 357.377 98.3224C351.959 103.909 340.584 108.951 325.344 112.521C309.571 116.217 290.696 118.199 270.775 118.256H269.922C220.088 118.256 179.345 105.976 178.925 90.7621C178.85 88.0262 180.101 85.3144 182.628 82.7024C188.044 77.1156 199.422 72.0737 214.666 68.5034C230.439 64.8041 249.309 62.8243 269.23 62.7674ZM269.83 116.273C248.081 116.273 227.553 113.726 211.846 109.067C195.66 104.267 186.518 97.7806 186.101 90.8035C185.943 88.1692 187.039 85.5666 189.361 83.0686C191.815 80.4253 195.603 77.931 200.614 75.6521C205.552 73.4088 211.569 71.4266 218.496 69.7566C232.888 66.2903 250.163 64.3986 268.456 64.2865C290.837 64.1489 312.035 66.7069 328.155 71.4865C344.34 76.2877 353.482 82.773 353.9 89.7513C354.056 92.3857 352.96 94.9882 350.64 97.4863C348.185 100.128 344.397 102.624 339.386 104.903C334.454 107.145 328.431 109.128 321.505 110.797C307.111 114.263 289.837 116.158 271.543 116.268C270.973 116.271 270.395 116.273 269.83 116.273ZM270.17 64.6636H268.458C250.193 64.7757 232.949 66.6636 218.589 70.1234C204.723 73.4648 194.437 78.1489 189.632 83.3246C187.385 85.745 186.323 88.2494 186.471 90.7755C186.676 94.1959 189.063 97.5118 193.569 100.632C197.951 103.666 204.135 106.379 211.946 108.695C227.618 113.344 248.11 115.886 269.821 115.886H271.535C289.799 115.774 307.043 113.885 321.402 110.425C335.269 107.085 345.554 102.4 350.359 97.2252C352.606 94.8048 353.668 92.2991 353.52 89.7743C353.317 86.3526 350.928 83.0367 346.424 79.9183C342.04 76.8839 335.858 74.1705 328.047 71.8534C312.376 67.205 291.878 64.6636 270.17 64.6636ZM217.743 107.164C231.951 111.227 250.33 113.438 269.746 113.438C270.6 113.438 271.459 113.431 272.316 113.425C288.947 113.257 304.591 111.496 317.555 108.332C323.803 106.807 329.208 105.003 333.624 102.971C338.106 100.905 341.468 98.6479 343.619 96.2631C345.659 93.9968 346.572 91.6411 346.335 89.2589C345.708 82.9815 337.158 77.179 322.258 72.9197C307.421 68.6731 288.038 66.4534 267.68 66.6574C251.049 66.82 235.407 68.5836 222.446 71.7507C216.197 73.275 210.793 75.079 206.377 77.1122C201.893 79.1782 198.533 81.4345 196.382 83.8205C194.342 86.0855 193.428 88.4425 193.665 90.8235C194.293 97.1009 202.843 102.905 217.743 107.164ZM200.842 99.6154C196.635 96.8326 194.346 93.8583 194.04 90.7857C193.813 88.5143 194.695 86.2556 196.66 84.0787C200.856 79.4176 210.04 75.1672 222.532 72.1185C235.472 68.9616 251.082 67.1979 267.684 67.0354C288.009 66.8326 307.349 69.051 322.153 73.2825C329.339 75.3334 335.06 77.7509 339.155 80.4632C343.361 83.246 345.65 86.2203 345.957 89.2929C346.184 91.5642 345.302 93.823 343.336 96.0062C339.14 100.666 329.953 104.911 317.465 107.961C304.527 111.12 288.914 112.877 272.312 113.043C251.993 113.249 232.648 111.029 217.845 106.796C210.656 104.745 204.936 102.329 200.842 99.6154ZM269.67 110.602C252.58 110.602 236.356 108.701 223.65 105.189C210.039 101.427 202.083 96.2495 201.244 90.6144C200.926 88.4597 201.658 86.3238 203.43 84.2582C207.125 79.9462 215.076 76.1644 226.416 73.3198C237.954 70.4301 251.957 68.7817 266.914 68.5605C285.24 68.2891 302.804 70.2027 316.349 73.948C329.96 77.7098 337.916 82.8862 338.755 88.5225C339.076 90.6773 338.343 92.8157 336.577 94.875C332.882 99.187 324.93 102.969 313.59 105.813C302.054 108.703 288.051 110.352 273.093 110.573C271.95 110.594 270.807 110.602 269.67 110.602ZM270.332 68.9123C269.195 68.9123 268.056 68.9207 266.914 68.9374C251.985 69.1586 238.012 70.8007 226.504 73.6855C215.398 76.4697 207.305 80.3118 203.717 84.502C202.026 86.4758 201.322 88.5125 201.625 90.5554C202.034 93.3107 204.222 95.9655 208.13 98.4482C211.937 100.867 217.193 103.013 223.755 104.826C236.428 108.329 252.618 110.228 269.672 110.228C270.809 110.228 271.948 110.22 273.09 110.203C288.018 109.982 301.992 108.34 313.501 105.455C324.605 102.671 332.699 98.8289 336.287 94.6388C337.978 92.6649 338.682 90.6283 338.378 88.5841C337.969 85.83 335.781 83.1752 331.873 80.6912C328.067 78.2739 322.81 76.1279 316.248 74.3149C303.577 70.8083 287.382 68.9123 270.332 68.9123ZM229.489 103.624C240.635 106.625 254.655 108.238 269.362 108.238C270.776 108.239 272.194 108.224 273.617 108.194C286.837 107.915 299.145 106.368 309.209 103.72C319.107 101.115 325.967 97.6852 329.046 93.8024C330.539 91.92 331.09 89.9729 330.686 88.0144C329.643 82.9528 322.311 78.3449 310.039 75.0415C297.828 71.752 282.152 70.1294 265.912 70.4704C252.692 70.7493 240.388 72.297 230.319 74.9451C220.42 77.5501 213.562 80.9791 210.482 84.8618C208.991 86.7442 208.439 88.6926 208.842 90.6511C209.886 95.7127 217.219 100.321 229.489 103.624ZM215.395 97.6167C211.803 95.411 209.718 93.0406 209.213 90.5738H209.211C208.831 88.7306 209.358 86.8888 210.777 85.0989C213.762 81.3353 220.736 77.8594 230.414 75.3127C240.449 72.6723 252.726 71.1296 265.918 70.8507C282.13 70.5097 297.762 72.1285 309.944 75.4078C315.858 77.0012 320.632 78.8925 324.134 81.0475C327.727 83.2545 329.811 85.6237 330.315 88.0905C330.696 89.9336 330.169 91.7755 328.75 93.5654C325.765 97.329 318.791 100.805 309.113 103.351C299.078 105.993 286.8 107.536 273.609 107.814C257.403 108.155 241.775 106.532 229.584 103.256C223.67 101.664 218.896 99.7717 215.395 97.6167ZM269.296 105.875C256.905 105.875 245.036 104.565 235.425 102.111C224.455 99.3076 217.72 95.333 216.468 90.9177C215.974 89.1736 216.349 87.4332 217.585 85.7396C220.073 82.3397 225.873 79.3124 234.354 76.9848C242.979 74.6193 253.625 73.1959 265.142 72.8625C279.346 72.4533 293.184 73.7642 304.102 76.5541C315.071 79.3566 321.807 83.3311 323.059 87.7464C323.554 89.4906 323.185 91.231 321.943 92.9246C319.454 96.3245 313.654 99.3505 305.174 101.678C296.548 104.044 285.903 105.467 274.386 105.8C272.683 105.851 270.987 105.876 269.296 105.875ZM216.827 90.8142C219.349 99.7105 245.166 106.264 274.372 105.423C285.86 105.092 296.475 103.671 305.07 101.314C313.353 99.0411 319.236 95.9835 321.639 92.701C322.801 91.1122 323.152 89.483 322.697 87.8563C320.175 78.96 294.359 72.4053 265.152 73.2477C253.669 73.5786 243.053 74.9994 234.458 77.3611C226.176 79.6345 220.292 82.6908 217.889 85.9733C216.726 87.5583 216.371 89.1875 216.827 90.8142ZM241.382 100.582C249.435 102.499 259.151 103.512 269.237 103.512C271.197 103.512 273.172 103.474 275.148 103.399C294.911 102.627 310.847 98.0762 314.8 92.0755C315.789 90.5706 315.989 89.028 315.394 87.4904C313.938 83.7231 307.812 80.383 298.149 78.0816C288.531 75.7929 276.539 74.793 264.382 75.2678C244.618 76.0403 228.681 80.5915 224.73 86.5922C223.739 88.0959 223.539 89.6385 224.135 91.1773C225.598 94.9458 231.72 98.2822 241.382 100.582ZM275.135 103.021C250.145 103.997 227.425 98.6214 224.488 91.0391C223.938 89.6209 224.125 88.1939 225.046 86.797C226.885 84.0058 231.683 81.3728 238.559 79.3855C245.705 77.3191 254.64 76.0215 264.397 75.6446C289.386 74.6686 312.106 80.0438 315.044 87.6261C315.593 89.0443 315.405 90.4713 314.486 91.8682C312.647 94.6582 307.848 97.2911 300.972 99.2797C293.826 101.345 284.892 102.644 275.135 103.021ZM269.422 101.148C261.579 101.148 253.967 100.409 247.47 98.9914C239.081 97.1605 233.54 94.4059 231.868 91.2363C231.147 89.866 231.168 88.4817 231.933 87.1215C234.769 82.0805 247.588 78.1027 263.832 77.2247C273.989 76.6765 284.181 77.3782 292.53 79.2002C300.92 81.0311 306.46 83.7858 308.132 86.9566C308.853 88.3256 308.832 89.7099 308.067 91.0701C305.231 96.1125 292.413 100.089 276.169 100.967C273.916 101.088 271.657 101.148 269.422 101.148ZM232.204 91.0562C235.568 97.4371 255.282 101.714 276.149 100.586C292.268 99.7159 304.964 95.8155 307.739 90.8823C308.436 89.6427 308.456 88.3827 307.798 87.1342C304.434 80.7533 284.721 76.476 263.853 77.6053C247.733 78.4757 235.039 82.3748 232.265 87.308C231.566 88.5477 231.545 89.8089 232.204 91.0562ZM253.153 96.9015C258.034 97.834 263.539 98.3125 269.158 98.3125C271.673 98.3125 274.196 98.2163 276.703 98.0264C283 97.5441 288.609 96.4858 292.927 94.9696C297.182 93.4739 299.909 91.6331 300.792 89.6474C301.352 88.4057 301.181 87.1589 300.287 85.9415C298.409 83.3786 293.468 81.2235 286.376 79.8702C279.316 78.5233 270.95 78.1244 262.821 78.7491C256.525 79.2327 250.916 80.2897 246.599 81.8059C242.343 83.299 239.627 85.1411 238.736 87.1242C238.177 88.3659 238.347 89.6128 239.241 90.8301C241.119 93.3931 246.06 95.5494 253.153 96.9015ZM276.678 97.6403C259.982 98.9218 243.328 95.7636 239.543 90.6018C238.74 89.505 238.582 88.389 239.077 87.2859C240.834 83.3632 250.387 80.087 262.85 79.13C279.546 77.8486 296.2 81.0067 299.985 86.1686C300.788 87.2653 300.946 88.3813 300.451 89.4845C298.695 93.4072 289.142 96.6834 276.678 97.6403ZM269.218 95.9492C259.338 95.9492 250.177 94.0681 246.821 91.0584C245.669 90.0238 245.251 88.8901 245.611 87.7816C246.083 86.3319 247.851 84.9587 250.726 83.81C253.632 82.6488 257.543 81.7709 262.032 81.2731C274.661 79.8711 288.421 81.8637 292.708 85.7149C293.859 86.7495 294.277 87.8819 293.917 88.9917C293.445 90.4414 291.677 91.8146 288.803 92.962C285.896 94.1245 281.979 95.0024 277.496 95.5002C274.747 95.8016 271.984 95.9515 269.218 95.9492ZM270.355 81.1978C267.588 81.1939 264.822 81.3421 262.071 81.6418C253.205 82.6262 246.884 85.0791 245.97 87.8919C245.654 88.8638 246.024 89.8332 247.072 90.7762C251.289 94.5634 264.917 96.5135 277.451 95.1227C286.319 94.1383 292.638 91.6854 293.553 88.8726C293.869 87.9007 293.498 86.9313 292.45 85.9883C289.159 83.035 280.125 81.1978 270.355 81.1978ZM254.4 91.3872C257.518 93.1058 263.244 94.0583 269.208 94.0583C272.261 94.0695 275.309 93.8054 278.315 93.269C283.697 92.272 287.102 90.4883 287.42 88.5006C287.539 87.7241 287.248 86.555 285.129 85.3871C280.399 82.7797 269.671 81.9344 261.213 83.5039C255.83 84.5023 252.427 86.2847 252.108 88.2724C251.989 89.0488 252.281 90.218 254.4 91.3872ZM261.279 83.8801C264.273 83.3455 267.309 83.0822 270.35 83.0934L270.344 83.0947C276.234 83.0947 281.878 84.0305 284.942 85.7224C286.465 86.5613 287.19 87.501 287.041 88.4394C286.753 90.2333 283.381 91.9405 278.242 92.8929C269.858 94.4484 259.242 93.6222 254.579 91.0506C253.055 90.2116 252.329 89.272 252.48 88.3336C252.768 86.5397 256.138 84.8325 261.279 83.8801ZM269.293 92.168C266.785 92.168 264.288 91.9162 262.204 91.3849C259.412 90.676 257.834 89.6134 257.746 88.3922C257.698 87.6834 258.146 86.6296 260.552 85.6576C264.727 83.9617 272.251 83.6306 277.324 84.916C280.116 85.6236 281.694 86.6875 281.782 87.9087C281.83 88.6175 281.383 89.6713 278.976 90.6433C276.522 91.643 272.893 92.168 269.293 92.168ZM270.226 84.5081C266.68 84.5081 263.109 85.0243 260.692 86.0076C258.977 86.7038 258.063 87.5411 258.12 88.3657C258.188 89.3818 259.743 90.3726 262.296 91.0185C267.304 92.2888 274.724 91.9627 278.836 90.2933C280.551 89.5971 281.464 88.7598 281.409 87.9352C281.339 86.9191 279.778 85.9283 277.233 85.2824C275.173 84.7599 272.704 84.5081 270.226 84.5081ZM269.764 90.2773C265.668 90.2773 262.457 89.2393 262.457 87.9141C262.457 86.5888 265.668 85.5508 269.764 85.5508C273.861 85.5508 277.071 86.5888 277.071 87.9141C277.071 89.2393 273.862 90.2773 269.764 90.2773ZM269.764 85.9112C265.626 85.9112 262.846 86.9469 262.846 87.9141C262.846 88.8812 265.626 89.9169 269.764 89.9169C273.902 89.9169 276.683 88.8812 276.683 87.9141C276.683 86.9469 273.904 85.9112 269.764 85.9112Z" fill="url(#paint6_linear_25_61875)"/>
<path d="M287.173 25.5205H287.326L287.889 25.5041H288.044C288.274 25.4959 288.505 25.4863 288.74 25.474L288.885 25.4658L289.488 25.4302L289.666 25.4178C289.909 25.4 290.155 25.3822 290.405 25.3617L290.529 25.3507L291.186 25.2904L291.386 25.2699C291.646 25.2443 291.907 25.2165 292.171 25.1864L292.253 25.1768L292.99 25.0864L293.205 25.059C293.482 25.0234 293.76 24.985 294.043 24.9453L288.04 21.6033C287.757 21.6444 287.479 21.6814 287.203 21.7184L286.988 21.7458L286.249 21.8362L286.169 21.8458C285.9 21.8759 285.643 21.9033 285.384 21.9293L285.184 21.9485C284.962 21.9704 284.743 21.991 284.526 22.0088L284.402 22.0197C284.152 22.0416 283.907 22.0594 283.662 22.0772L283.485 22.0882L282.882 22.1252L282.737 22.1334C282.503 22.1444 282.272 22.1553 282.042 22.1635H281.886C281.697 22.1635 281.509 22.1745 281.324 22.1786H281.171C280.951 22.1786 280.733 22.1786 280.518 22.1786H280.384C280.204 22.1786 280.026 22.1786 279.847 22.1786H279.694C279.486 22.1786 279.28 22.1704 279.079 22.1635H278.984L278.466 22.1402H278.315C278.121 22.1293 277.927 22.117 277.738 22.1033H277.687L277.171 22.0608L277.026 22.0485L276.489 21.9937H276.495L275.971 21.9293L275.837 21.9115L275.382 21.8471L275.329 21.8389C275.164 21.8143 275.003 21.7869 274.843 21.7595L274.723 21.7389L274.32 21.665L274.243 21.6499C274.09 21.6198 273.941 21.5883 273.795 21.5568L273.689 21.5321C273.565 21.5047 273.444 21.4773 273.326 21.4486L273.239 21.428C273.102 21.3952 272.968 21.3609 272.836 21.3253C272.737 21.2993 272.642 21.2719 272.545 21.2445L272.368 21.1952C272.258 21.1637 272.149 21.1294 272.042 21.0966L271.919 21.0596C271.773 21.013 271.629 20.9651 271.49 20.9226L271.403 20.8911C271.292 20.8528 271.184 20.8144 271.079 20.7747L270.934 20.7186L270.686 20.6213L270.531 20.5583C270.457 20.5268 270.382 20.4967 270.311 20.4652L270.155 20.3967C270.087 20.3666 270.021 20.3364 269.954 20.3049L269.801 20.2337L269.613 20.1419L269.424 20.0461L269.334 19.9995L269.057 19.8516L275.057 23.1812C275.147 23.2319 275.239 23.2812 275.333 23.3305L275.423 23.377L275.558 23.4469L275.613 23.4729L275.799 23.5633L275.952 23.6359L276.154 23.7263L276.309 23.7962L276.53 23.8879L276.684 23.9523C276.765 23.9852 276.849 24.0167 276.932 24.0482C276.981 24.0673 277.028 24.0865 277.077 24.1043C277.182 24.144 277.289 24.1824 277.398 24.2207L277.488 24.2523C277.622 24.3002 277.771 24.3481 277.918 24.3892L278.041 24.4276C278.149 24.4604 278.256 24.4933 278.366 24.5248L278.543 24.5755L278.835 24.6549L278.874 24.6659L279.237 24.7577L279.325 24.7782C279.443 24.807 279.564 24.8357 279.687 24.8631L279.793 24.8864C279.941 24.9179 280.09 24.9494 280.242 24.9795L280.318 24.9946C280.452 25.0206 280.587 25.0453 280.721 25.0686L280.842 25.0905L281.328 25.1699H281.38C281.531 25.1932 281.682 25.2137 281.835 25.2357L281.97 25.2535C282.141 25.2754 282.316 25.2973 282.493 25.3165C282.669 25.337 282.848 25.3548 283.03 25.3713L283.175 25.3836C283.346 25.3986 283.516 25.4137 283.691 25.426H283.742C283.931 25.4397 284.124 25.4507 284.319 25.4617L284.469 25.4699L284.988 25.4918H285.083L285.698 25.5069H285.851C286.027 25.5069 286.205 25.5069 286.388 25.5069H286.522C286.735 25.5274 286.953 25.5247 287.173 25.5205Z" fill="url(#paint7_linear_25_61875)"/>
<path d="M260.415 81.3096C248.975 74.492 248.662 66.7104 248.65 66.2837L248.709 31.1929L242.721 27.8867L242.657 62.9829C242.668 63.4042 242.982 71.1953 254.422 78.0102C256.203 79.0715 257.69 79.9262 258.933 80.6138L264.921 83.92C263.678 83.227 262.19 82.3709 260.415 81.3096Z" fill="url(#paint8_linear_25_61875)"/>
<path d="M271.46 19.8516C271.649 20.2326 275.212 27.4746 294.043 24.8205L293.978 59.7222C293.966 60.1452 293.728 68.1642 282.178 78.1953C274.068 85.2413 272.003 86.4116 271.491 86.4832C270.672 86.5995 268.611 86.0103 260.522 81.2467C249.006 74.4669 248.798 66.5168 248.786 66.0925L248.851 31.1963C267.679 28.5354 271.272 20.2854 271.46 19.8516Z" fill="url(#paint9_linear_25_61875)"/>
<path d="M294.043 25.1969V24.9418C286.48 25.6784 281.398 25.3036 278.014 24.5781C281.27 25.3908 286.316 25.8862 294.043 25.1969Z" fill="url(#paint10_linear_25_61875)"/>
<path d="M261.264 81.1955C249.795 74.4489 249.588 66.5408 249.576 66.1173L249.641 31.3924C265.954 29.0961 270.781 22.5849 271.886 20.6488C271.686 20.4019 271.511 20.1347 271.367 19.8516C271.179 20.2831 267.601 28.4911 248.85 31.1316L248.786 65.8565C248.797 66.2719 249.005 74.1921 260.473 80.9333C266.402 84.4289 269.077 85.6577 270.404 86.0234C268.878 85.4413 266.198 84.0982 261.264 81.1955Z" fill="url(#paint11_linear_25_61875)"/>
<path d="M290.952 30.5355V30.4991V30.23L290.684 30.265V30.23V29.9608L290.417 29.9958V29.9608V29.6916C279.698 31.2057 274.894 28.8841 272.867 27.1345C272.65 26.8851 272.465 26.6103 272.314 26.3162L272.266 26.4211C272.186 26.3025 272.114 26.1789 272.05 26.051C272.042 26.0699 272.028 26.1062 272.003 26.156C271.924 26.038 271.852 25.9148 271.788 25.7872C271.78 25.8061 271.765 25.8424 271.741 25.8922C271.661 25.7743 271.589 25.6511 271.526 25.5234C271.368 25.8882 268.362 32.81 252.611 35.0361L252.557 64.3197V64.5889C252.564 64.8581 252.672 68.9993 257.316 73.508C257.404 73.5968 257.488 73.6843 257.583 73.7772C259.178 75.3525 260.966 76.7165 262.904 77.8364C269.556 81.765 271.334 82.3087 272.044 82.2333C272.143 82.2451 272.244 82.2451 272.343 82.2333C272.772 82.1728 274.499 81.1916 281.282 75.2805C290.951 66.8742 291.15 60.1448 291.161 59.7881L291.214 30.5032L290.952 30.5355Z" fill="url(#paint12_linear_25_61875)"/>
<path d="M272.396 25.5234C272.552 25.8443 275.522 31.9568 291.214 29.7203L291.161 59.1783C291.146 59.533 290.948 66.3021 281.327 74.7649C274.57 80.7109 272.849 81.6979 272.422 81.7588C271.74 81.8563 270.023 81.3594 263.282 77.3399C253.684 71.6173 253.509 64.9023 253.5 64.5489L253.555 35.0923C269.241 32.8531 272.233 25.889 272.396 25.5234Z" fill="url(#paint13_linear_25_61875)"/>
<path d="M271.924 25.5234C272.08 25.8443 275.05 31.9568 290.743 29.7203L290.69 59.1783C290.675 59.533 290.476 66.3021 280.856 74.7649C274.099 80.7109 272.378 81.6979 271.951 81.7588C271.269 81.8563 269.552 81.3594 262.81 77.3399C253.213 71.6173 253.038 64.9023 253.029 64.5489L253.083 35.0923C268.769 32.8531 271.762 25.889 271.924 25.5234Z" fill="url(#paint14_linear_25_61875)"/>
<path d="M271.962 80.8242C271.489 80.7747 269.779 80.2169 263.649 76.6316C254.937 71.5386 254.47 65.8235 254.443 65.1064L254.494 37.1464C265.64 35.3685 270.386 31.2869 272.289 28.832C273.973 30.4374 277.527 32.5029 284.683 32.5029C286.393 32.496 288.102 32.3933 289.8 32.1953L289.748 59.7887C289.73 60.2181 289.318 66.4416 280.296 74.2262C274.065 79.6068 272.363 80.6356 271.962 80.8242Z" fill="url(#paint15_linear_25_61875)"/>
<path fill-rule="evenodd" clip-rule="evenodd" d="M270.321 77.2203C268.975 76.5318 267.255 75.5697 265.197 74.3611C258.525 70.4429 257.465 66.3751 257.298 65.2218L257.271 65.0318L257.319 39.1268L259.339 38.635C264.386 37.4116 268.498 35.5643 271.574 33.1471L272.852 32.1406L274.327 32.8278C277.147 34.1455 280.674 34.8206 284.806 34.8368L287.443 34.8475L287.397 59.6395L287.365 59.8416C287.152 61.189 285.906 66.0827 278.83 72.2147C276.533 74.2048 274.626 75.7961 273.161 76.9441L271.829 77.9883L270.321 77.2203Z" stroke="url(#paint16_linear_25_61875)" stroke-width="2"/>
<path fill-rule="evenodd" clip-rule="evenodd" d="M285.086 46.7328L276.259 48.0036L279.951 38.4828L279.988 38.386L269.787 39.8545L263.58 58.3285L269.709 57.4463L267.09 72.3164L285.002 46.8511L285.086 46.7328ZM284.83 46.9009L267.291 71.8283L269.851 57.2903L263.75 58.1684L269.867 39.9728L279.807 38.542L276.114 48.0627L276.077 48.1609L284.83 46.9009Z" fill="white"/>
<path d="M269.941 64.7499L269.76 64.6501L271.468 54.9715L271.649 55.0726L269.941 64.7499Z" fill="#848484"/>
<path d="M273.137 50.3958L272.956 50.2947L280.659 49.1875L280.84 49.2886L273.137 50.3958Z" fill="#9A9A9A"/>
<path d="M276.886 40.7496L273.137 50.3958L280.84 49.2886L269.941 64.7499L271.649 55.0726L265.938 55.8925L270.74 41.6329L276.886 40.7496Z" fill="white"/>
<path d="M265.938 55.8925L265.757 55.7927L270.56 41.5317L270.74 41.6329L265.938 55.8925Z" fill="#878787"/>
<path d="M270.74 41.6329L270.56 41.5317L276.705 40.6484L276.886 40.7496L270.74 41.6329Z" fill="#9A9A9A"/>
<path d="M265.372 16.0703L265.355 16.1122V16.1262L265.324 16.196L265.315 16.2142L265.265 16.3176C265.248 16.3553 265.226 16.3972 265.203 16.4433L265.191 16.4656C265.164 16.5159 265.135 16.5704 265.103 16.629L265.087 16.6584L264.978 16.847L264.958 16.8791C264.916 16.9489 264.873 17.0188 264.823 17.097L264.805 17.1235C264.754 17.2045 264.698 17.2884 264.638 17.3778C264.588 17.4518 264.536 17.5286 264.479 17.6068L264.443 17.6571C264.387 17.7353 264.326 17.8164 264.263 17.8988L264.229 17.9435C264.169 18.0217 264.106 18.1013 264.04 18.1837L264.011 18.2201C263.94 18.3081 263.864 18.3988 263.785 18.491L263.734 18.5525C263.653 18.6447 263.57 18.7397 263.483 18.8319L263.459 18.8584C263.376 18.9492 263.29 19.0414 263.2 19.1378L263.142 19.1992C263.047 19.2984 262.949 19.3976 262.846 19.4996L262.783 19.5596C262.686 19.6546 262.586 19.751 262.481 19.8474L262.441 19.8865C262.313 20.0052 262.179 20.1253 262.041 20.2455L261.971 20.3069C261.835 20.4243 261.7 20.5444 261.546 20.6645L261.464 20.7316C261.314 20.8536 261.158 20.976 260.997 21.0989L260.93 21.1506C260.758 21.2805 260.582 21.4104 260.397 21.5417L260.376 21.5571C260.259 21.6409 260.139 21.7247 260.017 21.8071L259.881 21.8951L259.611 22.0753L259.455 22.1773L259.184 22.3477L259.022 22.4483C258.924 22.5084 258.825 22.5698 258.724 22.6299L258.575 22.7179C258.433 22.8031 258.288 22.8855 258.14 22.9693L258.113 22.9861C257.956 23.0741 257.793 23.1621 257.63 23.2515L257.475 23.3325L257.124 23.5169L256.934 23.6133L256.59 23.7921L256.393 23.887C256.25 23.9569 256.102 24.0267 255.955 24.0952L255.811 24.1608C255.614 24.2539 255.414 24.3433 255.21 24.429L255.074 24.4877C254.913 24.5575 254.749 24.6274 254.583 24.6944L254.369 24.781C254.219 24.8425 254.064 24.9025 253.91 24.964L253.696 25.0464C253.498 25.1218 253.298 25.1963 253.095 25.2699L253.012 25.3006C252.78 25.3845 252.544 25.4669 252.305 25.5479L252.093 25.6191C251.918 25.6778 251.742 25.7365 251.562 25.7937L251.307 25.8747L250.753 26.0438L250.53 26.1108C250.27 26.1872 250.006 26.2626 249.738 26.3371L249.611 26.3706C249.38 26.4335 249.149 26.4949 248.912 26.555L248.641 26.6248C248.445 26.6737 248.246 26.7226 248.044 26.7645L247.754 26.833C247.524 26.8879 247.29 26.941 247.053 26.9922L246.863 27.0341C246.564 27.0984 246.26 27.1612 245.95 27.2227L245.707 27.2702C245.472 27.3149 245.237 27.3596 244.997 27.4099L244.673 27.4685L243.979 27.5873L243.67 27.6376C243.337 27.6916 242.999 27.7437 242.657 27.794L248.71 31.1953C249.052 31.145 249.39 31.0933 249.723 31.0403L250.032 30.9886C250.265 30.9509 250.497 30.9104 250.726 30.8698L251.05 30.8126C251.29 30.7693 251.525 30.7246 251.76 30.6729L252.003 30.6254C252.312 30.5639 252.616 30.5011 252.916 30.4368L253.104 30.3949C253.342 30.3428 253.577 30.2902 253.808 30.2371L254.097 30.1686L254.695 30.0289L254.966 29.9605C255.204 29.899 255.439 29.8367 255.669 29.7733L255.791 29.7412C256.062 29.6676 256.326 29.5922 256.584 29.5149L256.806 29.4493C256.993 29.392 257.18 29.3361 257.363 29.2774C257.447 29.2523 257.531 29.2258 257.615 29.1978C257.795 29.1406 257.974 29.0819 258.15 29.0232L258.359 28.9534C258.599 28.871 258.836 28.7886 259.068 28.7047L259.145 28.6768C259.349 28.6028 259.551 28.5273 259.75 28.4505L259.963 28.3681L260.424 28.1865L260.637 28.0999C260.804 28.0315 260.966 27.9602 261.127 27.8932L261.263 27.8345C261.466 27.7414 261.666 27.652 261.863 27.5663L262.007 27.4993L262.445 27.2925L262.529 27.252L262.642 27.1962L262.981 27.0285L263.173 26.9308L263.521 26.7478L263.678 26.6654C263.842 26.5774 264.003 26.488 264.16 26.4L264.181 26.3874C264.331 26.3036 264.479 26.2184 264.624 26.1332L264.771 26.0438L265.069 25.8636L265.232 25.763L265.502 25.5898L265.657 25.4906L265.928 25.309L266.056 25.2224C266.177 25.14 266.296 25.0562 266.412 24.9738L266.435 24.9584C266.619 24.8271 266.796 24.6958 266.967 24.5659C266.991 24.5491 267.014 24.5324 267.035 24.5142C267.198 24.3913 267.354 24.2684 267.504 24.1455L267.584 24.0812C267.731 23.9597 267.873 23.8409 268.01 23.7222L268.078 23.6621C268.213 23.5406 268.349 23.4205 268.484 23.3018L268.495 23.2934L268.525 23.264C268.629 23.1677 268.729 23.0713 268.827 22.9749L268.889 22.9148C268.992 22.8143 269.091 22.7137 269.186 22.6145C269.206 22.595 269.225 22.574 269.244 22.5545C269.333 22.4609 269.42 22.3673 269.502 22.2751L269.525 22.2499C269.613 22.1536 269.696 22.0586 269.777 21.9706L269.804 21.9398L269.83 21.9091C269.907 21.8169 269.983 21.7261 270.055 21.6381L270.083 21.6032C270.15 21.5208 270.212 21.4412 270.272 21.3629L270.307 21.3182C270.37 21.2344 270.43 21.1534 270.487 21.0752L270.522 21.0249C270.579 20.9467 270.633 20.8685 270.683 20.7944C270.744 20.7064 270.798 20.6212 270.851 20.5402L270.867 20.5151C270.916 20.4382 270.959 20.3656 271.003 20.2972L271.023 20.2636L271.131 20.0751L271.148 20.0457C271.18 19.9871 271.21 19.9326 271.236 19.8823V19.8753L271.244 19.8599C271.267 19.8152 271.288 19.7719 271.306 19.7342C271.326 19.6965 271.341 19.6616 271.356 19.6309L271.364 19.6141L271.397 19.5429C271.396 19.5387 271.396 19.5344 271.397 19.5303C271.404 19.5121 271.41 19.4968 271.414 19.487L265.372 16.0703Z" fill="url(#paint17_linear_25_61875)"/>
<ellipse cx="233.464" cy="47.9746" rx="1.65" ry="1.6543" fill="#604B0C"/>
<ellipse cx="317.85" cy="49.8652" rx="4.00714" ry="4.01758" fill="#0E8EFF"/>
<ellipse cx="299.228" cy="41.5938" rx="2.35714" ry="2.36328" fill="#FFCA13"/>
<ellipse cx="223.8" cy="34.9766" rx="2.82857" ry="2.83594" fill="#FFCA13"/>
<g opacity="0.65">
<path d="M253.433 13.8362H253.419C253.021 13.6937 252.695 13.4032 252.511 13.0265C252.357 12.7252 252.267 12.3961 252.247 12.0593C252.23 11.7735 252.253 11.4868 252.313 11.2069C252.343 11.0598 252.382 10.9148 252.431 10.7728C252.472 10.6526 252.52 10.5347 252.574 10.4196C252.693 10.1601 252.845 9.91736 253.029 9.69766C253.241 9.44414 253.501 9.23403 253.794 9.07913C254.191 8.85496 254.665 8.80522 255.1 8.94193H255.116L256.068 9.26356L256.091 9.92033C256.201 10.1974 256.264 10.4909 256.277 10.7885C256.29 11.0741 256.264 11.36 256.2 11.6387C256.171 11.7619 256.136 11.8835 256.095 12.0031C256.046 12.1462 255.988 12.2859 255.92 12.4214C255.793 12.6801 255.63 12.92 255.436 13.1344C255.253 13.3377 255.039 13.5122 254.803 13.6517L254.378 14.1578L253.433 13.8362Z" fill="#977700"/>
<path d="M256.118 9.85735L253.799 9.07239C254.196 8.84822 254.669 8.79848 255.105 8.93518H255.121L256.072 9.25682L256.118 9.85735Z" fill="#8C7005"/>
<path d="M253.433 13.8362H253.419C253.021 13.6937 252.695 13.4032 252.51 13.0265L254.764 13.7867L254.385 14.1623L253.433 13.8362Z" fill="#E0B41D"/>
<path d="M256.284 10.784L253.033 9.68414C253.245 9.43062 253.505 9.22052 253.798 9.06561L256.12 9.85733L256.097 9.92255C256.208 10.1997 256.271 10.4931 256.284 10.7907V10.784Z" fill="#947508"/>
<path d="M256.207 11.6364L252.572 10.4061C252.691 10.1466 252.843 9.90384 253.026 9.68414L256.277 10.7817C256.29 11.0673 256.264 11.3533 256.2 11.6319L256.207 11.6364Z" fill="#977910"/>
<path d="M255.927 12.4192L252.313 11.2069C252.343 11.0598 252.382 10.9148 252.431 10.7728C252.472 10.6526 252.52 10.5347 252.574 10.4196L256.209 11.6477C256.18 11.7709 256.145 11.8925 256.104 12.0121C256.055 12.1551 255.997 12.2949 255.929 12.4304L255.927 12.4192Z" fill="#AE890C"/>
<path d="M255.443 13.1344L252.247 12.0548C252.231 11.7705 252.253 11.4853 252.313 11.2068L255.934 12.4327C255.807 12.6913 255.644 12.9313 255.45 13.1457L255.443 13.1344Z" fill="#C59A0B"/>
<path d="M254.764 13.7822L252.511 13.022C252.357 12.7207 252.267 12.3916 252.247 12.0548L255.443 13.1344C255.26 13.3377 255.046 13.5122 254.809 13.6517L254.764 13.7822Z" fill="#CDA115"/>
<ellipse cx="255.233" cy="11.7016" rx="2.59377" ry="2.07638" transform="rotate(-71.16 255.233 11.7016)" fill="url(#paint18_linear_25_61875)"/>
<path d="M254.391 14.1533C254.095 14.0571 253.831 13.8838 253.626 13.6517C253.423 13.4168 253.272 13.1426 253.183 12.8465C253.094 12.5505 253.056 12.2419 253.069 11.9334C253.082 11.6269 253.14 11.3239 253.24 11.0337C253.341 10.7426 253.484 10.4671 253.662 10.215C253.842 9.96209 254.064 9.74149 254.319 9.5627C254.57 9.37738 254.859 9.24775 255.166 9.18259C255.47 9.12488 255.783 9.14817 256.075 9.25007C255.928 9.20265 255.775 9.17614 255.62 9.17134C255.468 9.16589 255.315 9.1795 255.166 9.21183C254.873 9.28161 254.597 9.41106 254.357 9.59194C254.11 9.77199 253.895 9.99079 253.719 10.2397C253.545 10.4888 253.407 10.7605 253.308 11.0472C253.207 11.3374 253.149 11.6403 253.135 11.9468C253.121 12.2504 253.156 12.5542 253.24 12.8465C253.321 13.139 253.465 13.4111 253.66 13.645C253.758 13.762 253.871 13.8663 253.996 13.9554C254.119 14.0382 254.251 14.1047 254.391 14.1533Z" fill="#FBD367"/>
<path d="M253.54 11.1304C253.736 10.5311 254.138 10.0187 254.675 9.68192C255.06 9.39725 255.562 9.31901 256.016 9.47288C256.471 9.62675 256.819 9.99286 256.947 10.4511C257.161 11.0414 257.161 11.6872 256.947 12.2775C256.75 12.8759 256.349 13.3875 255.811 13.7237C255.427 14.0095 254.925 14.0887 254.471 13.9352C254.016 13.7817 253.667 13.4153 253.54 12.9567C253.325 12.3665 253.325 11.7207 253.54 11.1304Z" fill="url(#paint19_linear_25_61875)"/>
<path d="M254.669 9.68189C254.831 9.57354 255.01 9.49013 255.198 9.43448C255.39 9.37906 255.592 9.36148 255.791 9.38274C255.891 9.39581 255.989 9.41995 256.084 9.45472C256.178 9.49049 256.268 9.5365 256.352 9.59192C256.52 9.70315 256.666 9.84604 256.779 10.0125C257.003 10.348 257.136 10.7356 257.163 11.1371C257.193 11.5339 257.141 11.9327 257.011 12.3089C256.878 12.6839 256.671 13.0288 256.402 13.3233C256.132 13.621 255.789 13.8449 255.407 13.9733C255.214 14.0362 255.011 14.0614 254.809 14.0476C254.708 14.0407 254.609 14.0226 254.512 13.9936C254.415 13.9643 254.322 13.9235 254.235 13.8721C254.064 13.7694 253.916 13.634 253.798 13.474C253.684 13.3161 253.594 13.1416 253.533 12.9567C253.611 13.1367 253.714 13.3048 253.839 13.456C253.961 13.6038 254.11 13.7261 254.28 13.8159C254.363 13.8595 254.451 13.8934 254.541 13.9171C254.633 13.9405 254.726 13.9541 254.821 13.9576C255.01 13.9622 255.199 13.9325 255.377 13.8699C255.555 13.8051 255.724 13.7174 255.879 13.609C256.035 13.5001 256.177 13.3733 256.302 13.2311C256.426 13.0925 256.536 12.9418 256.629 12.7813C256.722 12.6166 256.798 12.4433 256.856 12.264C256.918 12.0855 256.963 11.9018 256.99 11.7152C257.016 11.5289 257.023 11.3405 257.011 11.1529C256.997 10.965 256.962 10.7794 256.906 10.5996C256.854 10.4201 256.777 10.2484 256.679 10.089C256.578 9.93072 256.447 9.79326 256.293 9.68414C256.217 9.62886 256.134 9.58279 256.047 9.54694C255.961 9.50953 255.87 9.48308 255.777 9.46821C255.588 9.43745 255.394 9.4428 255.207 9.48396C255.019 9.52647 254.839 9.59301 254.669 9.68189Z" fill="#AE890C"/>
<path d="M255.643 13.1232L255.489 13.0647L255.466 13.0557L255.62 13.1142L255.643 13.1232Z" fill="#788E95"/>
<path d="M256.334 11.7804C256.358 11.7385 256.373 11.6916 256.377 11.6432C256.377 11.606 256.373 11.569 256.363 11.533V11.5128C256.348 11.4768 256.321 11.4473 256.286 11.4295L256.132 11.3688C256.167 11.385 256.194 11.414 256.209 11.4498V11.47C256.215 11.5065 256.215 11.5437 256.209 11.5802C256.206 11.6285 256.192 11.6755 256.168 11.7174L255.455 13.0534L255.611 13.1119L256.334 11.7804Z" fill="#C59A0B"/>
<path d="M256.041 11.4835L255.977 11.1191L256.063 11.0899L256.145 11.0629C256.223 11.0358 256.308 11.0358 256.386 11.0629L256.231 11.0022C256.153 10.9751 256.069 10.9751 255.991 11.0022L255.909 11.0314L255.823 11.0584L255.886 11.4228L256.041 11.4835Z" fill="#C59A0B"/>
<path d="M254.912 12.2685C254.904 12.2456 254.898 12.2223 254.894 12.1987C254.859 12.0148 254.891 11.8248 254.982 11.6612C255.052 11.478 255.213 11.3436 255.407 11.3058H255.436L255.518 11.7309C255.518 11.7309 255.518 11.7669 255.518 11.7939C255.542 11.8588 255.535 11.9309 255.498 11.9896C255.466 12.0528 255.415 12.1047 255.352 12.138C255.302 12.159 255.244 12.159 255.193 12.138L255.348 12.1965C255.398 12.2197 255.456 12.2197 255.507 12.1965C255.57 12.1641 255.622 12.113 255.655 12.0503C255.688 11.9905 255.695 11.9195 255.673 11.8546C255.673 11.8276 255.661 11.7961 255.661 11.7916L255.507 10.9774C255.504 10.9599 255.501 10.9426 255.496 10.9257C255.484 10.894 255.466 10.8649 255.443 10.8402C255.425 10.8182 255.402 10.8011 255.375 10.7907L255.218 10.7323C255.246 10.7405 255.271 10.7569 255.289 10.7795C255.312 10.8047 255.33 10.8346 255.341 10.8672C255.346 10.8834 255.35 10.8999 255.352 10.9167L255.421 11.2788L255.302 11.2338L255.241 11.2541C255.048 11.2931 254.887 11.427 254.816 11.6095C254.725 11.774 254.694 11.9646 254.728 12.1493C254.728 12.1718 254.728 12.1942 254.746 12.2167C254.782 12.3394 254.87 12.4408 254.987 12.4956H255.005L255.159 12.5564H255.141C255.027 12.497 254.943 12.3923 254.912 12.2685Z" fill="#C59A0B"/>
<path d="M254.014 12.3697C253.982 12.2637 253.995 12.1494 254.049 12.0526L254.755 10.703C254.82 10.5784 254.918 10.4735 255.039 10.3994C255.145 10.3314 255.273 10.3049 255.398 10.3252C255.432 10.3297 255.466 10.3387 255.498 10.3522L255.343 10.2914C255.311 10.2801 255.277 10.2711 255.243 10.2644C255.118 10.2448 254.99 10.2721 254.884 10.3409C254.762 10.4162 254.663 10.5247 254.6 10.6536L253.894 12.0031C253.84 12.0991 253.828 12.2128 253.86 12.318C253.888 12.4039 253.953 12.4731 254.037 12.5069L254.192 12.5654C254.105 12.5304 254.04 12.4583 254.014 12.3697Z" fill="#C59A0B"/>
<path d="M255.968 11.6882C255.968 11.6882 255.968 11.6657 255.968 11.6297L255.85 10.8267C255.843 10.7832 255.832 10.7403 255.818 10.6985C255.793 10.6228 255.754 10.5525 255.702 10.4916C255.626 10.4031 255.521 10.3441 255.405 10.3252C255.28 10.3049 255.152 10.3313 255.046 10.3994C254.924 10.4759 254.826 10.5841 254.762 10.712L254.055 12.0615C254.001 12.1584 253.989 12.2727 254.021 12.3787C254.049 12.4639 254.114 12.5323 254.198 12.5654L254.23 12.5789L255.084 10.9392C255.109 10.8888 255.147 10.8455 255.193 10.8132C255.236 10.7858 255.286 10.7731 255.336 10.7773C255.385 10.7813 255.43 10.8039 255.461 10.8402C255.485 10.8649 255.502 10.894 255.514 10.9257C255.519 10.9426 255.523 10.9599 255.525 10.9774L255.679 11.7916C255.679 11.7916 255.679 11.8276 255.691 11.8546C255.713 11.9195 255.706 11.9905 255.673 12.0503C255.64 12.113 255.588 12.1641 255.525 12.1965C255.47 12.2245 255.405 12.2245 255.35 12.1965C255.304 12.1737 255.271 12.1328 255.257 12.084C255.256 12.0713 255.256 12.0585 255.257 12.0458C255.243 11.9687 255.257 11.8891 255.296 11.8209C255.328 11.7524 255.391 11.7032 255.466 11.6882L255.559 11.6544L255.484 11.2833L255.423 11.3036C255.223 11.3359 255.056 11.4702 254.982 11.6567C254.891 11.8203 254.859 12.0103 254.894 12.1942C254.898 12.2178 254.904 12.2411 254.912 12.264C254.945 12.3917 255.033 12.4985 255.152 12.5564C255.286 12.6136 255.438 12.6044 255.564 12.5316C255.708 12.454 255.825 12.3348 255.9 12.1897C255.997 12.0409 256.022 11.8571 255.968 11.6882Z" fill="#FFF1D4"/>
<path d="M256.006 12.9275L256.543 11.9221C256.596 11.8222 256.63 11.713 256.643 11.6004C256.652 11.5056 256.641 11.4098 256.611 11.3193C256.61 11.3088 256.61 11.2983 256.611 11.2878C256.575 11.2008 256.511 11.128 256.429 11.0809C256.345 11.0375 256.246 11.031 256.156 11.0629L256.075 11.0899L255.988 11.1191L256.052 11.4835L256.095 11.4632L256.175 11.4318C256.21 11.4171 256.25 11.4171 256.286 11.4318C256.321 11.4496 256.348 11.4791 256.363 11.515V11.5352C256.373 11.5712 256.377 11.6083 256.377 11.6454C256.373 11.6938 256.358 11.7407 256.334 11.7826L255.623 13.1164H255.643C255.794 13.1477 255.947 13.0685 256.006 12.9275Z" fill="#FFF1D4"/>
</g>
<path d="M225.026 77.018L224.974 77.0536C223.684 77.9359 222.976 79.4275 222.789 81.2633C222.678 82.7457 222.843 84.2356 223.276 85.6589C223.648 86.9352 224.163 88.1667 224.81 89.3304C225.152 89.9478 225.525 90.5473 225.929 91.1267C226.278 91.6252 226.64 92.0999 227.016 92.551C227.865 93.5743 228.824 94.5029 229.877 95.3205C231.026 96.2324 232.325 96.9417 233.716 97.4174C235.65 98.0425 237.48 97.9555 238.867 97.0218L238.919 96.9862L242.75 94.367L241.096 91.9931C241.087 90.6663 240.875 89.3485 240.469 88.0842C240.072 86.8206 239.536 85.604 238.871 84.4561C238.58 83.9497 238.261 83.4472 237.912 82.9487C237.509 82.3685 237.076 81.8098 236.613 81.2751C235.744 80.2616 234.763 79.3473 233.688 78.5491C232.712 77.8178 231.636 77.2264 230.492 76.7925L228.838 74.4186L225.026 77.018Z" fill="#977700"/>
<path d="M241.301 92.278L233.73 97.4214C235.664 98.0465 237.494 97.9594 238.88 97.0257L238.932 96.9901L242.764 94.3709L241.301 92.278Z" fill="#E0B41D"/>
<path d="M225.019 77.018L224.968 77.0536C223.677 77.9359 222.97 79.4275 222.782 81.2633L230.134 76.2346L228.851 74.3988L225.019 77.018Z" fill="#8C7005"/>
<path d="M240.49 88.0802L229.882 95.3324C231.031 96.2443 232.33 96.9536 233.722 97.4293L241.305 92.278L241.122 92.0129C241.112 90.6861 240.901 89.3683 240.494 88.1039C240.494 88.1039 240.49 88.0842 240.49 88.0802Z" fill="#CDA115"/>
<path d="M238.888 84.4442L227.017 92.5629C227.867 93.5862 228.826 94.5148 229.878 95.3324L240.482 88.0842C240.085 86.8206 239.549 85.604 238.884 84.4561L238.888 84.4442Z" fill="#C59A0B"/>
<path d="M236.627 81.2593L224.808 89.3384C225.149 89.9557 225.523 90.5552 225.927 91.1346C226.276 91.6331 226.638 92.1079 227.013 92.5589L238.884 84.4442C238.594 83.9378 238.274 83.4354 237.925 82.9368C237.523 82.3566 237.089 81.7979 236.627 81.2633V81.2593Z" fill="#AE890C"/>
<path d="M233.698 78.5294L223.27 85.651C223.642 86.9273 224.157 88.1588 224.804 89.3225L236.623 81.2435C235.753 80.23 234.772 79.3156 233.698 78.5175V78.5294Z" fill="#977910"/>
<path d="M230.134 76.2346L222.782 81.2633C222.671 82.7457 222.836 84.2356 223.269 85.6589L233.698 78.5373C232.721 77.8059 231.645 77.2146 230.501 76.7806L230.134 76.2346Z" fill="#947508"/>
<ellipse cx="235.418" cy="84.6055" rx="7.29963" ry="12.2481" transform="rotate(-34.804 235.418 84.6055)" fill="url(#paint20_linear_25_61875)"/>
<path d="M228.44 74.4489C228.048 74.7381 227.7 75.084 227.41 75.4751C227.361 75.539 227.317 75.6109 227.273 75.6787C227.227 75.7442 227.184 75.8122 227.145 75.8824C226.823 76.443 226.593 77.0509 226.463 77.6832C226.22 78.9536 226.22 80.2582 226.463 81.5285C226.695 82.8001 227.078 84.0399 227.602 85.2221C228.124 86.4058 228.761 87.5359 229.503 88.5962C229.872 89.1286 230.264 89.6437 230.679 90.1415C231.08 90.6366 231.537 91.1078 231.998 91.563C232.923 92.4688 233.952 93.2636 235.063 93.9309C236.169 94.6081 237.394 95.0714 238.673 95.2965C239.314 95.3984 239.968 95.3984 240.61 95.2965C240.69 95.2863 240.769 95.2703 240.847 95.2486C240.926 95.2342 241.005 95.2156 241.083 95.1927C241.554 95.0632 242.003 94.864 242.415 94.6017C241.878 94.9777 241.267 95.2363 240.622 95.3604C239.974 95.4814 239.31 95.499 238.657 95.4123C237.355 95.2075 236.104 94.7591 234.97 94.0906C233.833 93.432 232.782 92.6353 231.842 91.7188C229.949 89.8916 228.441 87.7075 227.406 85.294C226.877 84.0954 226.501 82.8358 226.286 81.5445C226.057 80.252 226.079 78.9276 226.351 77.6433C226.499 77.0047 226.75 76.394 227.093 75.8345C227.439 75.283 227.898 74.8107 228.44 74.4489V74.4489Z" fill="#FBD367"/>
<path d="M230.623 88.3214C232.344 90.7971 234.522 92.7137 236.756 93.712C239.432 94.9099 240.98 94.295 241.666 93.8238C242.352 93.3526 243.475 92.1268 243.302 89.2158C243.154 86.7801 242.127 84.0728 240.41 81.5971C238.694 79.1214 236.516 77.2048 234.277 76.2025C231.606 75.0046 230.054 75.6235 229.368 76.0947C228.682 76.5659 227.559 77.7878 227.735 80.7027C227.896 83.1384 228.907 85.8457 230.623 88.3214Z" fill="url(#paint21_linear_25_61875)"/>
<path d="M236.756 93.712L237.302 93.9117L237.579 93.9955C237.669 94.0276 237.762 94.0543 237.855 94.0754L238.132 94.1472L238.417 94.2031C238.509 94.2031 238.602 94.2391 238.698 94.2471C238.794 94.2551 238.886 94.275 238.983 94.283C239.731 94.3704 240.489 94.2487 241.173 93.9316C241.831 93.5864 242.345 93.0207 242.625 92.3344C242.91 91.6477 243.061 90.9132 243.07 90.1702C243.082 88.6689 242.81 87.1787 242.268 85.7778C241.739 84.3632 241.031 83.0213 240.162 81.7848C239.307 80.5339 238.293 79.3985 237.145 78.4067C236.017 77.4005 234.708 76.6148 233.287 76.0907C232.586 75.836 231.843 75.7167 231.097 75.7394C230.355 75.7622 229.644 76.045 229.091 76.538C228.55 77.0613 228.166 77.7253 227.984 78.4546C227.96 78.5465 227.94 78.6383 227.916 78.7301C227.892 78.822 227.876 78.9138 227.86 79.0096C227.844 79.1055 227.824 79.1973 227.812 79.2932L227.78 79.5767C227.78 79.6725 227.76 79.7643 227.756 79.8602V80.1477C227.756 80.3393 227.756 80.547 227.756 80.7267C227.669 79.9559 227.698 79.1766 227.844 78.4147C227.991 77.6317 228.358 76.9062 228.903 76.3223C229.19 76.0318 229.532 75.801 229.91 75.6435C230.284 75.4855 230.68 75.3858 231.085 75.348C231.885 75.2933 232.689 75.3936 233.451 75.6435C234.945 76.1426 236.328 76.925 237.523 77.9475C239.922 79.993 241.746 82.6238 242.817 85.5822C243.357 87.0636 243.602 88.6355 243.539 90.2101C243.508 91.0086 243.319 91.793 242.982 92.5181C242.802 92.8813 242.568 93.2152 242.288 93.5084C242.006 93.8034 241.668 94.0396 241.293 94.2031C240.552 94.5025 239.742 94.5883 238.954 94.4507C238.189 94.3146 237.448 94.0656 236.756 93.712Z" fill="#AE890C"/>
<path d="M240.988 86.1771L240.527 86.6084L240.458 86.6723L240.924 86.237L240.988 86.1771Z" fill="#788E95"/>
<path d="M237.426 81.5772C237.322 81.4241 237.185 81.2959 237.025 81.2018C236.901 81.1323 236.765 81.0863 236.624 81.0661H236.536C236.391 81.0603 236.248 81.1071 236.135 81.1978L235.669 81.6291C235.784 81.5399 235.925 81.4933 236.071 81.4973H236.159C236.299 81.5173 236.435 81.562 236.56 81.6291C236.72 81.7232 236.857 81.8514 236.961 82.0044L240.459 86.6643L240.924 86.233L237.426 81.5772Z" fill="#C59A0B"/>
<path d="M235.918 82.0843L234.542 81.685L234.582 81.3456L234.623 81.0102C234.657 80.698 234.798 80.4074 235.024 80.1876L234.558 80.6228C234.339 80.8371 234.198 81.1182 234.157 81.4214L234.117 81.7569L234.073 82.0963L235.453 82.4956L235.918 82.0843Z" fill="#C59A0B"/>
<path d="M236.796 87.2752C236.705 87.2651 236.613 87.2491 236.524 87.2273C235.824 87.0373 235.211 86.6145 234.787 86.0294C234.097 85.115 234.149 84.7117 234.245 83.973V83.8532L235.85 84.2804L236.086 84.3483C236.353 84.3791 236.592 84.5252 236.74 84.7476C236.91 84.962 237.006 85.2253 237.013 85.4983C237.022 85.7097 236.942 85.9152 236.792 86.0653L237.254 85.6301C237.406 85.483 237.488 85.2781 237.478 85.0671C237.469 84.7937 237.372 84.5305 237.202 84.3164C237.055 84.0941 236.817 83.9479 236.552 83.9171C236.447 83.8851 236.331 83.8572 236.311 83.8532L233.211 83.0546C233.146 83.0347 233.081 83.02 233.014 83.0107C232.88 82.993 232.743 83.0025 232.613 83.0386C232.507 83.0708 232.409 83.1268 232.328 83.2023L231.907 83.6256C231.985 83.5475 232.081 83.491 232.188 83.4619C232.318 83.4241 232.455 83.4145 232.589 83.4339C232.655 83.4422 232.721 83.4556 232.785 83.4738L234.165 83.8372L233.812 84.1686L233.784 84.4122C233.684 85.1509 233.632 85.5542 234.326 86.4726C234.747 87.0589 235.359 87.4821 236.058 87.6705C236.148 87.6932 236.239 87.7106 236.331 87.7224C236.819 87.7975 237.315 87.6641 237.699 87.3551L237.759 87.2992L238.224 86.8679L238.16 86.9238C237.776 87.227 237.28 87.3546 236.796 87.2752Z" fill="#C59A0B"/>
<path d="M235.673 90.5415C235.25 90.4782 234.871 90.2461 234.623 89.8986L231.105 85.2428C230.756 84.8157 230.538 84.2969 230.479 83.7494C230.415 83.2718 230.533 82.7878 230.808 82.3917C230.884 82.2827 230.97 82.1811 231.065 82.0883L230.603 82.5235C230.504 82.6134 230.417 82.7154 230.343 82.827C230.067 83.223 229.95 83.7071 230.014 84.1846C230.078 84.7316 230.296 85.2494 230.644 85.678L234.165 90.3339C234.416 90.6775 234.794 90.9074 235.216 90.9728C235.559 91.0215 235.906 90.9129 236.159 90.6773L236.62 90.242C236.366 90.4792 236.018 90.5893 235.673 90.5415Z" fill="#C59A0B"/>
<path d="M236.504 82.6792L236.291 82.6154L233.287 81.685C233.124 81.637 232.958 81.6023 232.789 81.5812C232.485 81.5398 232.175 81.5602 231.879 81.6411C231.442 81.753 231.06 82.0181 230.804 82.3878C230.528 82.7838 230.411 83.2679 230.475 83.7454C230.534 84.293 230.751 84.8117 231.101 85.2388L234.622 89.8947C234.87 90.2422 235.25 90.4742 235.673 90.5375C236.017 90.5841 236.363 90.4741 236.616 90.2381L236.712 90.1502L232.392 84.4801C232.258 84.3087 232.167 84.1073 232.128 83.8931C232.102 83.7016 232.143 83.5071 232.244 83.3421C232.335 83.1888 232.477 83.0717 232.645 83.0107C232.775 82.9746 232.912 82.9651 233.046 82.9827C233.113 82.9921 233.178 83.0068 233.243 83.0266L236.343 83.8253C236.363 83.8253 236.48 83.8572 236.584 83.8891C236.849 83.92 237.087 84.0662 237.234 84.2884C237.404 84.5026 237.501 84.7658 237.51 85.0391C237.526 85.2506 237.444 85.4578 237.288 85.6022C237.132 85.7466 236.919 85.8127 236.708 85.7818C236.658 85.775 236.608 85.7643 236.56 85.7499C236.277 85.6667 236.03 85.4926 235.858 85.2548C235.674 85.0319 235.606 84.7364 235.673 84.4562C235.673 84.4162 235.673 84.1726 235.709 84.0808L234.285 83.7214L234.257 83.969C234.161 84.7077 234.109 85.111 234.799 86.0254C235.223 86.6105 235.836 87.0333 236.536 87.2233C236.626 87.2447 236.717 87.2608 236.808 87.2712C237.294 87.3473 237.79 87.2153 238.172 86.9079C238.587 86.5372 238.807 85.9961 238.766 85.4424C238.729 84.8165 238.503 84.2164 238.116 83.7214C237.757 83.1562 237.168 82.7754 236.504 82.6792Z" fill="#FFF1D4"/>
<path d="M240.9 84.6039L238.269 81.086C238.008 80.7371 237.683 80.4415 237.31 80.2155C236.992 80.0268 236.638 79.9058 236.271 79.8602H236.147C235.784 79.834 235.424 79.9312 235.124 80.1357C234.835 80.3565 234.649 80.6855 234.61 81.0461L234.57 81.3815L234.53 81.7209L235.906 82.1202V81.9325L235.934 81.6011C235.934 81.4493 235.998 81.3045 236.111 81.2018C236.224 81.1111 236.366 81.0643 236.512 81.07H236.6C236.741 81.0903 236.877 81.1363 237.001 81.2058C237.161 81.2998 237.298 81.428 237.402 81.5812L240.9 86.241L240.964 86.1811C241.349 85.8417 241.301 85.1469 240.9 84.6039Z" fill="#FFF1D4"/>
<path d="M295.334 84.7846H295.36C296.068 84.5271 296.648 83.9993 296.976 83.3143C297.247 82.771 297.406 82.178 297.445 81.5709C297.479 81.0494 297.444 80.5256 297.341 80.0135C297.287 79.7458 297.216 79.4818 297.128 79.2232C297.054 79.0047 296.969 78.7904 296.872 78.581C296.656 78.1103 296.378 77.6706 296.047 77.2735C295.669 76.8149 295.207 76.4341 294.687 76.1519C293.978 75.7488 293.136 75.6604 292.36 75.9078H292.335L290.641 76.4889L290.603 77.6832C290.403 78.1848 290.29 78.7176 290.27 79.258C290.247 79.7763 290.293 80.2952 290.408 80.8009C290.458 81.026 290.521 81.2481 290.595 81.4663C290.681 81.7249 290.785 81.9773 290.905 82.2218C291.132 82.691 291.423 83.1261 291.768 83.5148C292.09 83.884 292.468 84.1997 292.887 84.4504L293.64 85.3715L295.334 84.7846Z" fill="#977700"/>
<path d="M290.557 77.5495L294.684 76.1257C293.975 75.7227 293.133 75.6343 292.358 75.8817H292.332L290.638 76.4628L290.557 77.5495Z" fill="#8C7005"/>
<path d="M295.334 84.7846H295.36C296.068 84.5272 296.649 83.9993 296.976 83.3143L292.967 84.6945L293.64 85.3773L295.334 84.7846Z" fill="#E0B41D"/>
<path d="M290.264 79.2435L296.047 77.2502C295.669 76.7916 295.207 76.4108 294.687 76.1286L290.563 77.5524L290.603 77.6715C290.403 78.1731 290.29 78.7059 290.27 79.2464L290.264 79.2435Z" fill="#947508"/>
<path d="M290.402 80.7893L296.873 78.5578C296.656 78.087 296.378 77.6473 296.047 77.2502L290.267 79.2435C290.244 79.7617 290.291 80.2807 290.405 80.7864L290.402 80.7893Z" fill="#977910"/>
<path d="M290.9 82.2131L297.341 79.9903C297.287 79.7226 297.216 79.4586 297.128 79.1999C297.054 78.9815 296.969 78.7671 296.872 78.5578L290.402 80.7864C290.452 81.0115 290.515 81.2336 290.589 81.4518C290.676 81.7104 290.779 81.9628 290.9 82.2073V82.2131Z" fill="#AE890C"/>
<path d="M291.759 83.509L297.445 81.5448C297.479 81.0233 297.445 80.4995 297.341 79.9874L290.9 82.2073C291.127 82.6765 291.417 83.1116 291.762 83.5003L291.759 83.509Z" fill="#C59A0B"/>
<path d="M292.967 84.6858L296.976 83.3056C297.247 82.7623 297.406 82.1693 297.445 81.5622L291.76 83.5206C292.085 83.8884 292.465 84.2022 292.887 84.4504L292.967 84.6858Z" fill="#CDA115"/>
<ellipse cx="292.127" cy="80.9145" rx="3.70221" ry="4.69631" transform="rotate(-18.84 292.127 80.9145)" fill="url(#paint22_linear_25_61875)"/>
<path d="M293.632 85.3599C294.146 85.1662 294.601 84.8396 294.952 84.4127C295.299 83.987 295.554 83.4919 295.699 82.9598C295.846 82.4299 295.909 81.8796 295.883 81.3298C295.857 80.7814 295.754 80.2395 295.578 79.72C295.401 79.2043 295.154 78.7155 294.845 78.2672C294.531 77.8216 294.148 77.4293 293.712 77.1049C293.275 76.7744 292.775 76.5408 292.243 76.4192C291.976 76.3606 291.704 76.3352 291.432 76.3437C291.158 76.3547 290.887 76.4026 290.626 76.486C291.148 76.2986 291.711 76.2574 292.254 76.3669C292.798 76.481 293.311 76.7097 293.761 77.0381C294.208 77.3651 294.597 77.7659 294.911 78.2236C295.556 79.1411 295.923 80.2285 295.967 81.353C295.993 81.9128 295.923 82.473 295.762 83.0092C295.606 83.5443 295.338 84.0395 294.977 84.4621C294.616 84.8767 294.151 85.1866 293.632 85.3599Z" fill="#FBD367"/>
<path d="M295.144 79.8711C294.794 78.7898 294.082 77.8652 293.131 77.256C292.041 76.5848 291.17 76.7272 290.744 76.8754C290.319 77.0236 289.542 77.4565 289.088 78.6478C288.346 80.8606 289.173 83.3006 291.101 84.5899C292.188 85.2611 293.062 85.1158 293.485 84.9705C293.908 84.8253 294.687 84.3894 295.141 83.1952C295.527 82.1216 295.528 80.9454 295.144 79.8711Z" fill="url(#paint23_linear_25_61875)"/>
<path d="M293.14 77.2473C292.838 77.0759 292.513 76.9478 292.176 76.8667C291.843 76.7894 291.499 76.7785 291.161 76.8347C290.995 76.863 290.833 76.9108 290.678 76.9771C290.525 77.0443 290.379 77.1281 290.244 77.227C289.973 77.4271 289.741 77.6764 289.56 77.9621C289.38 78.2511 289.239 78.5627 289.14 78.889C289.04 79.2147 288.978 79.5512 288.956 79.8915C288.934 80.2328 288.946 80.5755 288.993 80.9142C289.04 81.2534 289.119 81.5871 289.229 81.9109C289.338 82.2354 289.478 82.5487 289.646 82.8465C289.813 83.1439 290.01 83.4225 290.235 83.6775C290.461 83.9355 290.717 84.1648 290.997 84.3603C291.272 84.5568 291.572 84.7152 291.889 84.8311C292.205 84.9461 292.539 85.0003 292.875 84.9909C293.043 84.9858 293.21 84.9615 293.373 84.9182C293.536 84.8761 293.693 84.8136 293.841 84.7323C294.142 84.5686 294.407 84.3476 294.624 84.0814C294.843 83.8106 295.022 83.5091 295.156 83.1865C295.048 83.523 294.889 83.8406 294.684 84.1279C294.474 84.4181 294.209 84.6639 293.905 84.8514C293.751 84.9433 293.587 85.0165 293.416 85.0693C293.244 85.1223 293.066 85.1555 292.887 85.1681C292.527 85.1923 292.166 85.1469 291.823 85.0345C291.143 84.7997 290.534 84.3925 290.054 83.8519C289.085 82.7677 288.595 81.3313 288.697 79.874C288.746 79.1475 288.982 78.4465 289.381 77.8401C289.582 77.5409 289.838 77.2834 290.135 77.0817C290.433 76.8761 290.777 76.7465 291.135 76.7039C291.488 76.6623 291.845 76.6929 292.185 76.794C292.524 76.896 292.846 77.0488 293.14 77.2473Z" fill="#AE890C"/>
<path d="M290.299 81.013C290.3 81.0073 290.3 81.0014 290.299 80.9956L290.281 80.9549V80.9172C290.28 80.9105 290.28 80.9035 290.281 80.8968C290.28 80.8784 290.28 80.86 290.281 80.8416C290.274 80.7954 290.274 80.7483 290.281 80.7021C290.281 80.6731 290.299 80.6411 290.31 80.6092C290.34 80.5454 290.389 80.4933 290.451 80.461L290.192 80.5598C290.13 80.5907 290.081 80.6434 290.054 80.7079C290.041 80.738 290.03 80.7691 290.023 80.8009C290.015 80.8462 290.015 80.8923 290.023 80.9375V80.9956C290.023 80.9956 290.023 80.9956 290.023 81.013V81.0479L290.04 81.0886V81.106L290.057 81.1409L291.368 83.4451L291.627 83.3492L290.316 81.045L290.299 81.013Z" fill="#C59A0B"/>
<path d="M291.826 81.7308H291.797H291.777H291.757H291.739H291.725C291.708 81.7308 291.69 81.7046 291.673 81.6872L291.63 81.6436C291.615 81.6264 291.602 81.6079 291.59 81.5884L291.564 81.5477L291.541 81.5012L291.524 81.4605V81.4228C291.525 81.4131 291.525 81.4033 291.524 81.3937V81.2542C291.524 81.2542 291.524 81.2281 291.524 81.2135C291.522 81.2029 291.522 81.1922 291.524 81.1816V81.138C291.524 81.138 291.538 81.0537 291.55 81.0014C291.55 80.9879 291.55 80.9743 291.55 80.9608L290.974 80.7835L290.716 80.8823L291.291 81.0566C291.291 81.0566 291.291 81.0828 291.291 81.1002C291.291 81.1177 291.268 81.2194 291.265 81.2339V81.2804C291.264 81.291 291.264 81.3017 291.265 81.3123C291.263 81.3249 291.263 81.3376 291.265 81.3501V81.3995C291.266 81.4091 291.266 81.4189 291.265 81.4286V81.4663L291.282 81.507V81.5215L291.299 81.5535L291.322 81.5913L291.363 81.6436L291.406 81.6901L291.458 81.7308H291.475H291.495H291.515H291.535L291.604 81.7511H291.627H291.676H291.745H291.774H291.797H291.826L292.082 81.6552H292.03H292.004H291.935H291.886H291.863L291.826 81.7308Z" fill="#C59A0B"/>
<path d="M291.8 79.7549L291.84 79.5544C291.84 79.5544 291.84 79.537 291.84 79.5312C291.86 79.4422 291.903 79.36 291.964 79.2929C292.008 79.2456 292.064 79.2098 292.125 79.1883L291.866 79.2871C291.805 79.3086 291.75 79.3444 291.705 79.3917C291.644 79.4577 291.601 79.5389 291.581 79.627C291.581 79.627 291.581 79.6445 291.581 79.6503L291.541 79.8537V79.9641L291.8 79.8653V79.7549Z" fill="#C59A0B"/>
<path d="M293.01 81.5971C293.012 81.5875 293.012 81.5777 293.01 81.568C293.012 81.54 293.012 81.5118 293.01 81.4838C293.01 81.4838 293.01 81.4692 293.01 81.4634C293.01 81.4576 293.01 81.3937 293.01 81.3588C293.01 81.324 293.01 81.3414 293.01 81.3327V81.2484C293.01 81.2484 293.01 81.231 293.01 81.2194C293.01 81.2077 292.996 81.1496 292.987 81.1148C292.979 81.0799 292.987 81.1148 292.987 81.0944L292.97 81.0363V81.0101L292.953 80.9637C292.945 80.9407 292.935 80.9183 292.924 80.8968C292.919 80.8806 292.912 80.865 292.904 80.8503C292.905 80.8417 292.905 80.8329 292.904 80.8242L292.867 80.7515C292.853 80.7253 292.838 80.7001 292.821 80.676C292.817 80.6676 292.812 80.6598 292.806 80.6528L292.783 80.615C292.774 80.5984 292.764 80.5828 292.752 80.5685L292.737 80.5481L292.688 80.4871L292.645 80.4406L292.619 80.4174C292.619 80.4174 292.619 80.4174 292.605 80.4029L292.576 80.3825H292.559L292.527 80.3622H292.507L292.473 80.3448L292.404 80.3186H292.389L292.323 80.2983L292.245 80.2808H292.225L292.145 80.2634L292.041 80.2343L290.661 79.8014L290.572 79.784H290.557H290.474H290.46C290.433 79.7811 290.406 79.7811 290.379 79.784C290.352 79.7884 290.325 79.7942 290.299 79.8014H290.255L289.997 79.9002H290.04C290.066 79.8916 290.093 79.8858 290.12 79.8828H290.201H290.215C290.243 79.8812 290.271 79.8812 290.299 79.8828H290.313L290.402 79.9002L291.682 80.2634C291.717 80.2689 291.752 80.2787 291.785 80.2925L291.866 80.3099H291.886L291.964 80.3302L292.03 80.3506C292.054 80.3567 292.077 80.3655 292.099 80.3767L292.136 80.3942H292.153L292.185 80.4116L292.208 80.429H292.228L292.254 80.4523L292.286 80.4784L292.329 80.5249C292.346 80.5423 292.36 80.5627 292.378 80.583L292.392 80.6063L292.424 80.6498L292.455 80.6963C292.459 80.7047 292.464 80.7125 292.47 80.7196L292.513 80.7951C292.531 80.8272 292.547 80.8601 292.562 80.8939C292.57 80.9079 292.576 80.9224 292.582 80.9375C292.593 80.9602 292.602 80.9835 292.611 81.0072L292.628 81.0537L292.654 81.138C292.654 81.138 292.654 81.138 292.654 81.1554C292.664 81.1907 292.672 81.2266 292.677 81.2629C292.677 81.2629 292.677 81.2804 292.677 81.2891V81.3763C292.677 81.3763 292.677 81.3937 292.677 81.4024C292.677 81.4111 292.677 81.4721 292.677 81.507C292.678 81.5127 292.678 81.5187 292.677 81.5244C292.677 81.5535 292.677 81.5826 292.677 81.6116C292.678 81.6213 292.678 81.631 292.677 81.6407C292.677 81.6726 292.677 81.7075 292.662 81.7395C292.607 82.0221 292.423 82.2616 292.165 82.3845L292.113 82.4078L292.372 82.309L292.424 82.2886C292.682 82.1665 292.866 81.9265 292.918 81.6436C292.95 81.6307 292.981 81.6152 293.01 81.5971Z" fill="#C59A0B"/>
<path d="M292.723 78.3922L292.677 78.3776H292.639H292.593H292.553H292.504H292.467H292.202L292.116 78.3922L291.857 78.4909H291.943H291.975H292.033H292.148H292.197H292.234H292.283H292.323H292.369H292.406H292.452L292.49 78.5055C292.509 78.513 292.527 78.5217 292.544 78.5316L292.622 78.5694L292.645 78.5868L292.697 78.6188L292.723 78.6391L292.769 78.674L292.795 78.6943L292.835 78.735L292.858 78.7554L292.904 78.8019L292.921 78.8222L292.973 78.8861L293.028 78.9646C293.048 78.9965 293.068 79.0256 293.085 79.0575L294.402 81.4344L294.422 81.478C294.422 81.478 294.422 81.478 294.422 81.5012V81.5361V81.5593C294.422 81.5593 294.422 81.5593 294.422 81.5767C294.428 81.5987 294.433 81.621 294.437 81.6436C294.437 81.6436 294.437 81.6436 294.437 81.661V81.7395C294.438 81.7617 294.438 81.784 294.437 81.8063V81.8354C294.438 81.8605 294.438 81.8857 294.437 81.9109C294.39 82.1171 294.244 82.2861 294.048 82.3613L294.307 82.2625C294.519 82.2086 294.687 82.0465 294.75 81.8354C294.752 81.8102 294.752 81.785 294.75 81.7598V81.7395C294.752 81.7172 294.752 81.6949 294.75 81.6726V81.5942C294.75 81.5942 294.75 81.5942 294.75 81.5738C294.747 81.5522 294.742 81.5309 294.736 81.5099V81.4867C294.736 81.4867 294.736 81.4634 294.736 81.4518C294.735 81.4431 294.735 81.4343 294.736 81.4257V81.4053C294.735 81.3976 294.735 81.3898 294.736 81.3821L293.419 79.0082C293.401 78.9761 293.382 78.9451 293.361 78.9152L293.309 78.8425C293.296 78.8219 293.28 78.8025 293.263 78.7844L293.246 78.7641C293.232 78.7472 293.217 78.7316 293.2 78.7176L293.177 78.6943L293.157 78.674L293.134 78.6566C293.127 78.6481 293.119 78.6403 293.111 78.6333L293.065 78.5985L293.042 78.581L292.999 78.5549H292.976L292.898 78.5142H292.872H292.844L292.723 78.3922Z" fill="#C59A0B"/>
<path d="M291.337 83.4829L291.595 83.3841L291.337 83.4829Z" fill="#7C939A"/>
<path d="M291.377 83.4654L291.636 83.3695L291.595 83.3841L291.337 83.4829L291.377 83.4654Z" fill="#788E95"/>
<path d="M291.833 78.803L292.283 78.638L292.443 78.583L291.993 78.753L291.833 78.803Z" fill="#95B0B8"/>
<path d="M291.992 78.753L292.442 78.583H292.517L292.067 78.753H291.992Z" fill="#99B5BD"/>
<path d="M294.103 82.37L294.362 82.2712L294.299 82.2973L294.04 82.3961L294.103 82.37Z" fill="#788E95"/>
<path d="M292.573 80.8503C292.438 80.5238 292.134 80.3 291.785 80.2692C291.752 80.2554 291.717 80.2457 291.682 80.2402L290.402 79.877C290.237 79.8287 290.06 79.8464 289.907 79.9263C289.76 80.0088 289.645 80.1416 289.585 80.3012C289.561 80.3572 289.543 80.4156 289.531 80.4755C289.505 80.5996 289.499 80.7272 289.514 80.8533C289.537 81.0499 289.599 81.2398 289.698 81.4111L290.678 83.1545C290.791 83.4098 291.068 83.5477 291.337 83.4829L291.377 83.4654L290.066 81.1613C290.024 81.088 289.998 81.0069 289.988 80.923C289.981 80.8778 289.981 80.8316 289.988 80.7864C289.996 80.7546 290.007 80.7235 290.02 80.6934C290.046 80.6288 290.095 80.5762 290.158 80.5453C290.223 80.5207 290.294 80.5207 290.359 80.5453L291.607 80.9201C291.644 80.929 291.681 80.9406 291.716 80.9549C291.84 80.9718 291.947 81.0489 292.004 81.1613C292.076 81.2751 292.106 81.4107 292.09 81.5448C292.069 81.6562 291.999 81.7521 291.9 81.8063C291.8 81.8627 291.681 81.8733 291.573 81.8354C291.457 81.7846 291.361 81.6968 291.299 81.5855C291.231 81.4725 291.219 81.3343 291.265 81.2106C291.265 81.2106 291.279 81.1264 291.291 81.077C291.302 81.0276 291.291 81.045 291.291 81.0334L290.716 80.8591L290.71 80.9637C290.624 81.2604 290.675 81.5805 290.848 81.8354C290.986 82.0927 291.204 82.2969 291.469 82.4165C291.714 82.5281 291.995 82.5281 292.24 82.4165C292.486 82.2948 292.664 82.0657 292.723 81.7947C292.788 81.472 292.735 81.1364 292.573 80.8503Z" fill="#FFF1D4"/>
<path d="M291.86 78.4503C291.633 78.5043 291.427 78.6269 291.27 78.8018C291.127 78.9673 291.028 79.1675 290.983 79.383V79.4295L290.948 79.63L290.917 79.8217L291.538 79.9641V79.8537L291.578 79.6503C291.578 79.6503 291.578 79.6503 291.578 79.6271C291.598 79.5389 291.641 79.4577 291.702 79.3917C291.768 79.3232 291.853 79.2774 291.946 79.2609C292.044 79.246 292.144 79.2612 292.234 79.3045C292.32 79.3508 292.391 79.4228 292.435 79.5108L294.034 82.3845L294.097 82.3584C294.293 82.2832 294.439 82.1142 294.486 81.908C294.518 81.7446 294.493 81.5749 294.414 81.4286L293.097 79.0517C292.973 78.8221 292.782 78.6365 292.55 78.52C292.334 78.4208 292.091 78.3963 291.86 78.4503Z" fill="#FFF1D4"/>
<path d="M323.002 46.5148L323.026 46.5424C323.639 47.2316 323.847 48.1863 323.695 49.2547C323.695 49.2547 323.695 49.2788 323.695 49.2926C323.545 50.169 323.236 51.011 322.784 51.7775C322.386 52.4666 321.912 53.1093 321.371 53.6937C321.086 54.0052 320.784 54.3009 320.467 54.5795C320.197 54.8207 319.92 55.0505 319.635 55.2688C318.998 55.7432 318.311 56.1466 317.585 56.4716C316.791 56.8428 315.94 57.0759 315.067 57.1609C313.858 57.2505 312.816 56.9437 312.151 56.1959C312.141 56.1884 312.133 56.179 312.127 56.1683L310.287 54.1004L311.579 52.9562C311.775 52.1871 312.085 51.4517 312.501 50.7746C312.911 50.0973 313.394 49.4664 313.941 48.8928C314.184 48.6378 314.44 48.3897 314.71 48.1518C315.027 47.8719 315.357 47.6085 315.701 47.3626C316.347 46.8953 317.044 46.5022 317.779 46.1908C318.441 45.9039 319.141 45.7113 319.857 45.6187L321.153 44.471L323.002 46.5148Z" fill="#977700"/>
<path d="M321.163 44.4538L323.026 46.5424C323.639 47.2317 323.847 48.1863 323.695 49.2547L320.183 45.3223L321.163 44.4538Z" fill="#8C7005"/>
<path d="M311.42 53.0699L315.057 57.1402C313.848 57.2298 312.805 56.9231 312.14 56.1752C312.13 56.1677 312.122 56.1583 312.116 56.1476L310.277 54.0798L311.42 53.0699Z" fill="#E0B41D"/>
<path d="M312.487 50.7712L317.578 56.4716C316.784 56.8428 315.933 57.076 315.06 57.1609L311.427 53.0941L311.572 52.9666C311.768 52.1975 312.078 51.462 312.494 50.785L312.487 50.7712Z" fill="#CDA115"/>
<path d="M313.931 48.8756L319.628 55.2515C318.991 55.726 318.304 56.1293 317.578 56.4544L312.483 50.7712C312.894 50.0939 313.377 49.4629 313.924 48.8894L313.931 48.8756Z" fill="#C59A0B"/>
<path d="M315.694 47.3454L321.364 53.6972C321.079 54.0087 320.777 54.3044 320.46 54.5829C320.19 54.8242 319.913 55.054 319.629 55.2722L313.927 48.8791C314.17 48.624 314.426 48.3759 314.696 48.1381C315.013 47.8582 315.343 47.5947 315.687 47.3488L315.694 47.3454Z" fill="#AE890C"/>
<path d="M317.775 46.1736L322.78 51.7775C322.382 52.4666 321.908 53.1093 321.367 53.6937L315.69 47.3454C316.337 46.8781 317.034 46.485 317.769 46.1736L317.775 46.1736Z" fill="#977910"/>
<path d="M320.162 45.343L323.691 49.2926C323.541 50.169 323.233 51.011 322.78 51.7775L317.772 46.1736C318.434 45.8867 319.134 45.6941 319.85 45.6015L320.162 45.343Z" fill="#947508"/>
<ellipse cx="315.74" cy="49.2957" rx="7.27145" ry="4.32445" transform="rotate(-41.63 315.74 49.2957)" fill="url(#paint24_linear_25_61875)"/>
<path d="M321.187 44.4814C321.456 44.7664 321.661 45.1046 321.79 45.474C321.91 45.8447 321.968 46.2323 321.963 46.6216C321.937 47.4014 321.76 48.1689 321.443 48.8825C321.139 49.5967 320.744 50.2696 320.269 50.8849C319.334 52.1297 318.156 53.1741 316.806 53.9557C316.135 54.3522 315.417 54.6625 314.669 54.8793C313.919 55.1044 313.132 55.1851 312.352 55.1171C311.964 55.0739 311.585 54.9704 311.229 54.8104C310.877 54.6474 310.563 54.4126 310.308 54.1211C310.442 54.2597 310.589 54.3844 310.748 54.4933C310.824 54.5519 310.907 54.5933 310.99 54.645C311.074 54.6967 311.16 54.7311 311.25 54.769C311.604 54.916 311.98 55.0045 312.362 55.031C313.128 55.0823 313.897 54.9863 314.627 54.7484C315.359 54.5184 316.063 54.205 316.723 53.8144C318.037 53.0183 319.191 51.9864 320.127 50.7712C320.597 50.1658 320.993 49.5076 321.308 48.8101C321.627 48.1261 321.813 47.3882 321.856 46.6354C321.875 46.254 321.83 45.872 321.724 45.505C321.698 45.4125 321.667 45.3216 321.63 45.2327C321.595 45.1443 321.555 45.058 321.509 44.9742C321.42 44.799 321.312 44.6338 321.187 44.4814Z" fill="#FBD367"/>
<path d="M318.108 51.9498C316.889 53.0768 315.389 53.8597 313.765 54.2176C312.033 54.5347 311.226 53.9591 310.893 53.5869C310.561 53.2147 310.083 52.3427 310.599 50.6747C311.779 47.5344 314.444 45.1783 317.717 44.3814C319.448 44.0644 320.255 44.6399 320.588 45.0121C320.92 45.3844 321.398 46.2563 320.879 47.9244C320.333 49.4885 319.376 50.8785 318.108 51.9498Z" fill="url(#paint25_linear_25_61875)"/>
<path d="M313.765 54.2176C313.312 54.3305 312.845 54.3735 312.379 54.3451C311.901 54.3149 311.442 54.1512 311.053 53.873C310.857 53.7236 310.692 53.5374 310.568 53.325C310.442 53.1107 310.351 52.8781 310.298 52.6357C310.204 52.1612 310.204 51.6731 310.298 51.1985C310.488 50.2679 310.859 49.383 311.389 48.593C312.433 47.0273 313.869 45.7588 315.555 44.9122C316.405 44.4791 317.333 44.2168 318.285 44.1402C318.769 44.1017 319.256 44.1591 319.719 44.3091C319.951 44.3894 320.17 44.5058 320.366 44.6537C320.565 44.8008 320.732 44.9859 320.858 45.1983C321.09 45.6197 321.198 46.0973 321.17 46.5768C321.141 47.0417 321.042 47.4995 320.875 47.9347C320.903 47.8245 320.931 47.7107 320.952 47.5901C320.972 47.4695 320.997 47.3626 321.007 47.2455C321.036 47.0169 321.048 46.7865 321.042 46.5562C321.035 46.1102 320.904 45.6747 320.664 45.2982C320.414 44.9424 320.046 44.6851 319.625 44.571C319.198 44.4556 318.752 44.4229 318.312 44.4745C317.416 44.5812 316.548 44.8536 315.753 45.2775C314.145 46.1245 312.77 47.3489 311.745 48.8446C311.231 49.5812 310.857 50.4061 310.644 51.2778C310.545 51.7072 310.526 52.1512 310.589 52.5875C310.652 53.0173 310.865 53.4113 311.191 53.7007C311.54 53.981 311.959 54.161 312.403 54.2211C312.633 54.2555 312.864 54.2705 313.096 54.2659C313.21 54.2659 313.325 54.2659 313.443 54.2659L313.765 54.2176Z" fill="#AE890C"/>
<path d="M315.209 47.2006H315.23L315.271 47.1696L315.313 47.1455H315.334L315.4 47.1179C315.45 47.0956 315.504 47.0827 315.559 47.08C315.598 47.0766 315.638 47.0766 315.677 47.08C315.761 47.09 315.839 47.1305 315.895 47.1937L315.697 46.9215C315.641 46.8582 315.564 46.8177 315.479 46.8077C315.44 46.8043 315.401 46.8043 315.362 46.8077C315.305 46.8104 315.25 46.8233 315.199 46.8456L315.136 46.8732H315.116L315.081 46.8939H315.064L315.026 46.9249H315.005L314.97 46.9594L312.712 49.234L312.909 49.5028L315.168 47.2316L315.209 47.2006Z" fill="#C59A0B"/>
<path d="M314.863 49.2202C314.861 49.2065 314.861 49.1926 314.863 49.1789C314.863 49.1789 314.863 49.1789 314.863 49.1548C314.864 49.1456 314.864 49.1363 314.863 49.1272C314.864 49.1192 314.864 49.1111 314.863 49.1031C314.864 49.0962 314.864 49.0892 314.863 49.0824L314.894 49.0066C314.904 48.9836 314.917 48.9617 314.932 48.9411L314.98 48.879C314.991 48.8626 315.004 48.8475 315.018 48.8342L315.063 48.7929L315.105 48.7619L315.209 48.7033H315.24H315.285H315.334H315.458H315.625H315.676L315.697 47.9795L315.5 47.7072L315.479 48.431H315.427H315.261H315.136H315.088H315.043H315.011L314.97 48.4551L314.928 48.4861L314.897 48.5137C314.883 48.527 314.87 48.5421 314.859 48.5585C314.84 48.5788 314.823 48.6007 314.807 48.624L314.769 48.6895L314.738 48.7619V48.7825C314.738 48.7825 314.738 48.7825 314.738 48.8067C314.738 48.8308 314.738 48.8067 314.738 48.8342C314.738 48.8618 314.738 48.8342 314.738 48.8584C314.736 48.8675 314.736 48.8768 314.738 48.8859C314.736 48.9158 314.736 48.9457 314.738 48.9755C314.738 48.9755 314.738 48.9755 314.738 49.0031C314.736 49.0215 314.736 49.0399 314.738 49.0583V49.0893C314.738 49.0893 314.738 49.1237 314.738 49.141L314.755 49.172V49.1996C314.762 49.2082 314.768 49.2175 314.773 49.2271L314.973 49.4994C314.96 49.4811 314.948 49.4614 314.939 49.4408V49.4098C314.931 49.3945 314.925 49.3783 314.921 49.3615V49.3305C314.92 49.311 314.92 49.2914 314.921 49.2719C314.921 49.2719 314.921 49.2719 314.921 49.2444C314.901 49.2372 314.882 49.2291 314.863 49.2202Z" fill="#C59A0B"/>
<path d="M317.152 48.5551L317.398 48.5344H317.429C317.538 48.5282 317.647 48.5508 317.744 48.5999C317.812 48.6391 317.871 48.6919 317.918 48.755L317.72 48.4827C317.673 48.4188 317.613 48.3658 317.543 48.3276C317.446 48.2779 317.337 48.2553 317.228 48.2621H317.201H316.951L316.82 48.2828L317.017 48.5516L317.152 48.5551Z" fill="#C59A0B"/>
<path d="M315.4 50.5609H315.434C315.468 50.5573 315.502 50.5504 315.535 50.5402H315.555L315.677 50.5023H315.704L315.801 50.4644H315.832C315.871 50.4437 315.912 50.4265 315.95 50.4024L316.016 50.3645L316.044 50.3438L316.092 50.3093L316.162 50.2576L316.207 50.2163L316.234 50.1956L316.307 50.1267L316.38 50.0508L316.401 50.0267L316.439 49.9854L316.48 49.9337L316.501 49.9061C316.518 49.882 316.539 49.8578 316.553 49.8337L316.594 49.7682V49.7475L316.615 49.7131V49.689C316.613 49.6764 316.613 49.6636 316.615 49.651C316.615 49.651 316.615 49.651 316.615 49.6235V49.6028V49.558C316.617 49.55 316.617 49.5418 316.615 49.5339V49.4856V49.3995V49.2892C316.617 49.2605 316.617 49.2317 316.615 49.203C316.617 49.1709 316.617 49.1387 316.615 49.1065V49.0824C316.615 49.0514 316.615 49.0169 316.615 48.9824C316.619 48.9389 316.619 48.895 316.615 48.8515V47.2316C316.615 47.1937 316.615 47.1558 316.615 47.1179C316.612 47.084 316.605 47.0505 316.594 47.018L316.563 46.9249C316.55 46.8952 316.535 46.8664 316.518 46.8387L316.487 46.7939L316.286 46.5217L316.321 46.5699C316.321 46.5975 316.352 46.6285 316.366 46.6561L316.397 46.7457C316.407 46.7782 316.414 46.8117 316.418 46.8456V46.8629C316.418 46.8973 316.418 46.9352 316.418 46.9732V48.5861C316.418 48.6688 316.418 48.6929 316.418 48.7205C316.418 48.7481 316.418 48.786 316.418 48.817V48.8411C316.418 48.8756 316.418 48.9066 316.418 48.9376C316.418 48.9652 316.418 48.9928 316.418 49.0203V49.0479V49.1341C316.418 49.1341 316.418 49.1341 316.418 49.1548V49.203C316.418 49.203 316.418 49.203 316.418 49.2306C316.419 49.2443 316.419 49.2582 316.418 49.2719V49.3064V49.3305C316.418 49.3305 316.418 49.3547 316.418 49.3684C316.419 49.3764 316.419 49.3846 316.418 49.3926L316.397 49.4339V49.4546L316.355 49.5201L316.304 49.5959L316.283 49.62L316.238 49.6717C316.226 49.6893 316.212 49.7055 316.196 49.72L316.175 49.7441L316.099 49.8234L316.002 49.913L315.957 49.9509L315.888 50.0026L315.839 50.037L315.746 50.0956L315.628 50.1577H315.597L315.5 50.1956H315.472L315.351 50.2335H315.327L315.226 50.2542H315.209H315.088C314.747 50.2942 314.407 50.173 314.17 49.9268L314.128 49.8716L314.326 50.1439L314.367 50.199C314.595 50.462 314.934 50.6015 315.282 50.5747L315.4 50.5609Z" fill="#C59A0B"/>
<path d="M319.04 49.1961V49.141C319.042 49.1238 319.042 49.1065 319.04 49.0893C319.042 49.0709 319.042 49.0525 319.04 49.0341C319.042 49.0181 319.042 49.0019 319.04 48.9859C319.042 48.9664 319.042 48.9468 319.04 48.9273C319.041 48.9113 319.041 48.8951 319.04 48.8791V48.8205V48.7757C319.041 48.755 319.041 48.7343 319.04 48.7136C319.041 48.6999 319.041 48.686 319.04 48.6723C319.033 48.6499 319.025 48.628 319.016 48.6068C319.017 48.5954 319.017 48.5837 319.016 48.5723C319.016 48.5379 318.988 48.5068 318.971 48.4724L318.773 48.2001C318.773 48.2346 318.804 48.2656 318.818 48.3001C318.82 48.3115 318.82 48.3231 318.818 48.3345L318.842 48.4C318.844 48.4137 318.844 48.4276 318.842 48.4414C318.842 48.462 318.842 48.4827 318.842 48.5034V48.5482V48.6068C318.844 48.6228 318.844 48.639 318.842 48.655C318.844 48.6745 318.844 48.6941 318.842 48.7136C318.844 48.7297 318.844 48.7458 318.842 48.7619C318.842 48.7619 318.842 48.7998 318.842 48.8205C318.844 48.8365 318.844 48.8527 318.842 48.8687V48.9239C318.841 48.941 318.841 48.9584 318.842 48.9756V49.0479L318.822 49.1513V49.1823L318.801 49.2513C318.799 49.2627 318.799 49.2743 318.801 49.2857C318.801 49.3064 318.783 49.3271 318.773 49.3512C318.774 49.3627 318.774 49.3742 318.773 49.3857C318.765 49.407 318.756 49.4277 318.745 49.4477L318.725 49.4822L318.687 49.5477C318.679 49.5572 318.674 49.5677 318.669 49.5787L318.61 49.6614L318.538 49.751L318.448 49.8475L316.044 52.1497L315.999 52.1911H315.975L315.936 52.2187C315.928 52.2202 315.92 52.2202 315.912 52.2187H315.895C315.873 52.2349 315.85 52.2488 315.826 52.26H315.801L315.715 52.2945L315.635 52.3152H315.611H315.521C315.264 52.3264 315.019 52.2102 314.866 52.005L315.067 52.2773C315.218 52.4831 315.463 52.5987 315.718 52.584C315.748 52.5874 315.778 52.5874 315.808 52.584H315.833L315.912 52.5633L315.999 52.5288H316.023L316.092 52.4875L316.113 52.4703L316.151 52.4427L316.175 52.422L316.196 52.4048L316.22 52.3841L318.558 50.0819L318.648 49.9854L318.718 49.9027L318.77 49.8303C318.774 49.8193 318.78 49.8088 318.787 49.7993C318.802 49.7787 318.814 49.7567 318.825 49.7338L318.846 49.6993C318.845 49.689 318.845 49.6786 318.846 49.6683C318.845 49.658 318.845 49.6476 318.846 49.6373C318.846 49.6373 318.846 49.6131 318.846 49.5994C318.857 49.5793 318.866 49.5586 318.874 49.5373C318.873 49.5258 318.873 49.5143 318.874 49.5029V49.4443V49.4098L318.894 49.3099C318.894 49.3099 318.894 49.2857 318.894 49.2754C318.894 49.2651 318.894 49.2478 318.894 49.234C318.894 49.2203 319.036 49.2134 319.04 49.1961Z" fill="#C59A0B"/>
<path d="M312.66 49.2099L312.857 49.4822L312.66 49.2099Z" fill="#7C939A"/>
<path d="M312.691 49.2513L312.889 49.5235L312.857 49.4822L312.66 49.2099L312.691 49.2513Z" fill="#788E95"/>
<path d="M318.721 48.079L319.006 48.474L319.096 48.614L318.811 48.219L318.721 48.079Z" fill="#95B0B8"/>
<path d="M318.826 48.219L319.111 48.614L319.151 48.679L318.866 48.284L318.826 48.219Z" fill="#99B5BD"/>
<path d="M314.856 52.0911L315.057 52.3634L315.005 52.2979L314.807 52.0257L314.856 52.0911Z" fill="#788E95"/>
<path d="M316.127 49.813C316.458 49.5471 316.617 49.1233 316.542 48.7067C316.542 48.6792 316.542 48.655 316.542 48.5723V46.9594C316.546 46.75 316.468 46.5474 316.324 46.3942C316.179 46.2492 315.988 46.159 315.784 46.1391C315.711 46.1323 315.638 46.1323 315.566 46.1391C315.412 46.1497 315.261 46.1846 315.119 46.2425C314.896 46.3307 314.695 46.466 314.53 46.6389L312.823 48.3414C312.567 48.5591 312.498 48.9248 312.656 49.2202L312.688 49.2616L314.946 46.9869C315.015 46.9131 315.101 46.8554 315.195 46.8181C315.247 46.7957 315.302 46.7829 315.358 46.7802C315.397 46.7767 315.437 46.7767 315.476 46.7802C315.56 46.7902 315.638 46.8307 315.694 46.8939C315.747 46.96 315.772 47.0441 315.763 47.1283L315.739 48.7033C315.739 48.7033 315.739 48.7825 315.739 48.8446C315.764 48.9987 315.708 49.1549 315.59 49.2582C315.479 49.3776 315.327 49.4514 315.164 49.4649C315.026 49.4784 314.889 49.4275 314.793 49.3271C314.7 49.2226 314.659 49.0826 314.679 48.9445C314.699 48.7915 314.77 48.6496 314.88 48.5413C314.989 48.4275 315.145 48.3693 315.303 48.3828H315.469H315.521L315.542 47.659H315.403C315.025 47.6519 314.665 47.8154 314.423 48.1036C314.17 48.3491 314.003 48.6695 313.948 49.0169C313.892 49.3387 313.978 49.6688 314.184 49.9233C314.411 50.1863 314.751 50.3258 315.098 50.299C315.488 50.2646 315.853 50.0922 316.127 49.813Z" fill="#FFF1D4"/>
<path d="M318.69 48.2001C318.551 47.9527 318.341 47.7523 318.087 47.6246C317.848 47.5096 317.583 47.4586 317.318 47.4764H317.259L317.017 47.5005L316.781 47.5246L316.819 48.3001L316.951 48.2794H317.2H317.228C317.337 48.2725 317.446 48.2952 317.543 48.3449C317.645 48.4007 317.727 48.4877 317.775 48.593C317.825 48.7008 317.839 48.8213 317.817 48.9376C317.79 49.0587 317.726 49.1684 317.633 49.2513L314.807 52.0463L314.856 52.1118C315.008 52.317 315.254 52.4333 315.51 52.422C315.711 52.4081 315.901 52.3224 316.044 52.1808L318.382 49.8785C318.612 49.6539 318.767 49.3637 318.825 49.0479C318.875 48.7582 318.828 48.46 318.69 48.2001Z" fill="#FFF1D4"/>
<g opacity="0.667528">
<path d="M17.736 36H23.056V24.8L28.04 32.416H28.152L33.164 24.744V36H38.568V16.4H32.828L28.152 23.988L23.476 16.4H17.736V36Z" fill="url(#paint26_linear_25_61875)"/>
<path d="M42.0446 36H49.4926C56.5486 36 60.6646 31.8 60.6646 26.144V26.088C60.6646 20.432 56.6046 16.4 49.6046 16.4H42.0446V36ZM47.4766 31.184V21.216H49.6886C52.9366 21.216 55.0926 23.036 55.0926 26.172V26.228C55.0926 29.392 52.9366 31.184 49.6886 31.184H47.4766Z" fill="url(#paint27_linear_25_61875)"/>
<path d="M63.4547 36H79.3587V31.38H68.8307V28.272H78.2387V23.988H68.8307V21.02H79.2187V16.4H63.4547V36Z" fill="url(#paint28_linear_25_61875)"/>
<path d="M80.7025 36H86.8065L90.5865 30.092L94.3385 36H100.582L93.8625 25.976L100.302 16.4H94.1985L90.6985 21.916L87.2265 16.4H80.9825L87.4225 26.032L80.7025 36Z" fill="url(#paint29_linear_25_61875)"/>
<path d="M102.106 36H107.65V30.54H102.106V36Z" fill="url(#paint30_linear_25_61875)"/>
<path d="M119.184 36.392C123.524 36.392 126.016 34.516 127.864 31.968L123.776 29.056C122.6 30.484 121.396 31.436 119.352 31.436C116.608 31.436 114.676 29.14 114.676 26.2V26.144C114.676 23.288 116.608 20.964 119.352 20.964C121.228 20.964 122.516 21.86 123.636 23.26L127.724 20.096C125.988 17.688 123.412 16.008 119.408 16.008C113.472 16.008 109.076 20.488 109.076 26.2V26.256C109.076 32.108 113.584 36.392 119.184 36.392Z" fill="url(#paint31_linear_25_61875)"/>
<path d="M139.51 36.392C145.558 36.392 150.094 31.828 150.094 26.2V26.144C150.094 20.516 145.614 16.008 139.566 16.008C133.518 16.008 128.982 20.572 128.982 26.2V26.256C128.982 31.884 133.462 36.392 139.51 36.392ZM139.566 31.492C136.598 31.492 134.554 29.028 134.554 26.2V26.144C134.554 23.316 136.542 20.908 139.51 20.908C142.506 20.908 144.55 23.372 144.55 26.2V26.256C144.55 29.084 142.562 31.492 139.566 31.492Z" fill="url(#paint32_linear_25_61875)"/>
<path d="M152.923 36H158.243V24.8L163.227 32.416H163.339L168.351 24.744V36H173.755V16.4H168.015L163.339 23.988L158.663 16.4H152.923V36Z" fill="url(#paint33_linear_25_61875)"/>
</g>
</g>
<path d="M64.488 49H69.048V39.4L73.32 45.928H73.416L77.712 39.352V49H82.344V32.2H77.424L73.416 38.704L69.408 32.2H64.488V49Z" fill="white"/>
<path d="M85.324 49H91.708C97.756 49 101.284 45.4 101.284 40.552V40.504C101.284 35.656 97.804 32.2 91.804 32.2H85.324V49ZM89.98 44.872V36.328H91.876C94.66 36.328 96.508 37.888 96.508 40.576V40.624C96.508 43.336 94.66 44.872 91.876 44.872H89.98Z" fill="white"/>
<path d="M103.676 49H117.308V45.04H108.284V42.376H116.348V38.704H108.284V36.16H117.188V32.2H103.676V49Z" fill="white"/>
<path d="M118.459 49H123.691L126.931 43.936L130.147 49H135.499L129.739 40.408L135.259 32.2H130.027L127.027 36.928L124.051 32.2H118.699L124.219 40.456L118.459 49Z" fill="white"/>
</g>
</g>
<defs>
<linearGradient id="paint0_linear_25_61875" x1="337.527" y1="107.516" x2="337.527" y2="1.02661" gradientUnits="userSpaceOnUse">
<stop stop-color="#111010"/>
<stop offset="1" stop-color="#2A2A2A"/>
</linearGradient>
<linearGradient id="paint1_linear_25_61875" x1="288.386" y1="7.08984" x2="288.386" y2="32.6121" gradientUnits="userSpaceOnUse">
<stop stop-color="#FFCA13"/>
<stop offset="1" stop-color="#3490FF" stop-opacity="0.01"/>
</linearGradient>
<linearGradient id="paint2_linear_25_61875" x1="229.457" y1="0" x2="229.457" y2="25.5223" gradientUnits="userSpaceOnUse">
<stop stop-color="#FFCA13"/>
<stop offset="1" stop-color="#3490FF" stop-opacity="0.01"/>
</linearGradient>
<linearGradient id="paint3_linear_25_61875" x1="211.072" y1="53.4102" x2="211.072" y2="78.9324" gradientUnits="userSpaceOnUse">
<stop stop-color="#FFCA13"/>
<stop offset="1" stop-color="#3490FF" stop-opacity="0.01"/>
</linearGradient>
<linearGradient id="paint4_linear_25_61875" x1="307.243" y1="36.8672" x2="307.243" y2="60.9716" gradientUnits="userSpaceOnUse">
<stop stop-color="#FFCA13"/>
<stop offset="1" stop-color="#3490FF" stop-opacity="0.01"/>
</linearGradient>
<linearGradient id="paint5_linear_25_61875" x1="298.286" y1="67.1172" x2="298.286" y2="91.2216" gradientUnits="userSpaceOnUse">
<stop stop-color="#FFCA13"/>
<stop offset="1" stop-color="#3490FF" stop-opacity="0.01"/>
</linearGradient>
<linearGradient id="paint6_linear_25_61875" x1="369" y1="121" x2="369" y2="60.0273" gradientUnits="userSpaceOnUse">
<stop stop-color="#FFCA13"/>
<stop offset="1" stop-color="#FFCA13" stop-opacity="0.01"/>
</linearGradient>
<linearGradient id="paint7_linear_25_61875" x1="277.133" y1="24.4701" x2="292.838" y2="24.4744" gradientUnits="userSpaceOnUse">
<stop stop-color="#A38102"/>
<stop offset="0.314921" stop-color="#A48109"/>
<stop offset="0.649887" stop-color="#C69B0C"/>
<stop offset="1" stop-color="#D3A710"/>
</linearGradient>
<linearGradient id="paint8_linear_25_61875" x1="242.659" y1="83.92" x2="264.923" y2="83.9188" gradientUnits="userSpaceOnUse">
<stop stop-color="#8C7005"/>
<stop offset="0.263796" stop-color="#F3C236"/>
<stop offset="0.664762" stop-color="#977910"/>
<stop offset="1" stop-color="#947506"/>
</linearGradient>
<linearGradient id="paint9_linear_25_61875" x1="249.325" y1="86.099" x2="294.043" y2="86.099" gradientUnits="userSpaceOnUse">
<stop stop-color="#F9C42C"/>
<stop offset="0.63" stop-color="#C59A0B"/>
<stop offset="1" stop-color="#A58406"/>
</linearGradient>
<linearGradient id="paint10_linear_25_61875" x1="278.016" y1="25.5239" x2="294.044" y2="25.5239" gradientUnits="userSpaceOnUse">
<stop stop-color="#EBD386"/>
<stop offset="0.15" stop-color="#E3BE3E"/>
<stop offset="0.731368" stop-color="#F5D567"/>
<stop offset="1" stop-color="#FFDA58"/>
</linearGradient>
<linearGradient id="paint11_linear_25_61875" x1="248.786" y1="86.0207" x2="271.886" y2="86.0207" gradientUnits="userSpaceOnUse">
<stop stop-color="#FBE4A7"/>
<stop offset="0.15" stop-color="#FFE087"/>
<stop offset="0.72" stop-color="#FFEBB2"/>
<stop offset="1" stop-color="#FCCB48"/>
</linearGradient>
<linearGradient id="paint12_linear_25_61875" x1="258.625" y1="77.8038" x2="291.214" y2="77.8038" gradientUnits="userSpaceOnUse">
<stop stop-color="#C09805"/>
<stop offset="0.252493" stop-color="#7C6411"/>
<stop offset="0.64" stop-color="#D7AA1E"/>
<stop offset="1" stop-color="#DEB016"/>
</linearGradient>
<linearGradient id="paint13_linear_25_61875" x1="253.495" y1="81.7706" x2="291.21" y2="81.7706" gradientUnits="userSpaceOnUse">
<stop stop-color="#E6C140"/>
<stop offset="0.3" stop-color="#C6A42D"/>
<stop offset="0.51" stop-color="#AA8A1B"/>
<stop offset="0.71" stop-color="#F4C029"/>
<stop offset="1" stop-color="#F8EAC3"/>
</linearGradient>
<linearGradient id="paint14_linear_25_61875" x1="258.887" y1="77.3978" x2="290.739" y2="77.3978" gradientUnits="userSpaceOnUse">
<stop stop-color="#FCE6A7"/>
<stop offset="0.544866" stop-color="#FFE28F"/>
<stop offset="1" stop-color="#FFE69F"/>
</linearGradient>
<linearGradient id="paint15_linear_25_61875" x1="241.471" y1="58.1959" x2="280.846" y2="80.9837" gradientUnits="userSpaceOnUse">
<stop stop-color="#FFD74F"/>
<stop offset="1" stop-color="#BA9927"/>
</linearGradient>
<linearGradient id="paint16_linear_25_61875" x1="256.405" y1="51.7816" x2="285.69" y2="56.3779" gradientUnits="userSpaceOnUse">
<stop stop-color="#FFEFB5"/>
<stop offset="1" stop-color="#FFF8E0" stop-opacity="0.47"/>
</linearGradient>
<linearGradient id="paint17_linear_25_61875" x1="281.837" y1="13.3304" x2="242.661" y2="13.3152" gradientUnits="userSpaceOnUse">
<stop stop-color="#8D7002"/>
<stop offset="0.336282" stop-color="#947508"/>
<stop offset="0.632514" stop-color="#C59A0B"/>
<stop offset="1" stop-color="#DAAD12"/>
</linearGradient>
<linearGradient id="paint18_linear_25_61875" x1="257.825" y1="9.62841" x2="252.64" y2="9.62841" gradientUnits="userSpaceOnUse">
<stop stop-color="#FDCC4A"/>
<stop offset="1" stop-color="#DAAD11"/>
</linearGradient>
<linearGradient id="paint19_linear_25_61875" x1="254.333" y1="9.05132" x2="252.518" y2="12.5709" gradientUnits="userSpaceOnUse">
<stop stop-color="#F9C42C"/>
<stop offset="1" stop-color="#D0A50A"/>
</linearGradient>
<linearGradient id="paint20_linear_25_61875" x1="224.739" y1="92.0932" x2="241.438" y2="96.1817" gradientUnits="userSpaceOnUse">
<stop stop-color="#FDCC4A"/>
<stop offset="1" stop-color="#DAAD11"/>
</linearGradient>
<linearGradient id="paint21_linear_25_61875" x1="249.141" y1="73.5448" x2="232.482" y2="70.5024" gradientUnits="userSpaceOnUse">
<stop stop-color="#D0A50A"/>
<stop offset="1" stop-color="#F9C42C"/>
</linearGradient>
<linearGradient id="paint22_linear_25_61875" x1="288.426" y1="76.2182" x2="288.426" y2="85.6079" gradientUnits="userSpaceOnUse">
<stop stop-color="#FDCC4A"/>
<stop offset="1" stop-color="#DAAD11"/>
</linearGradient>
<linearGradient id="paint23_linear_25_61875" x1="288.273" y1="78.9667" x2="291.602" y2="85.3085" gradientUnits="userSpaceOnUse">
<stop stop-color="#F9C42C"/>
<stop offset="1" stop-color="#D0A50A"/>
</linearGradient>
<linearGradient id="paint24_linear_25_61875" x1="308.34" y1="48.2131" x2="310.467" y2="55.2822" gradientUnits="userSpaceOnUse">
<stop stop-color="#DAAD11"/>
<stop offset="1" stop-color="#FDCC4A"/>
</linearGradient>
<linearGradient id="paint25_linear_25_61875" x1="309.875" y1="54.225" x2="320.066" y2="53.9185" gradientUnits="userSpaceOnUse">
<stop stop-color="#D0A50A"/>
<stop offset="1" stop-color="#F9C42C"/>
</linearGradient>
<linearGradient id="paint26_linear_25_61875" x1="174.834" y1="40.836" x2="174.834" y2="10.2873" gradientUnits="userSpaceOnUse">
<stop offset="0.0105476" stop-color="#242323"/>
<stop offset="1" stop-color="#3D3D3D"/>
</linearGradient>
<linearGradient id="paint27_linear_25_61875" x1="174.834" y1="40.836" x2="174.834" y2="10.2873" gradientUnits="userSpaceOnUse">
<stop offset="0.0105476" stop-color="#242323"/>
<stop offset="1" stop-color="#3D3D3D"/>
</linearGradient>
<linearGradient id="paint28_linear_25_61875" x1="174.834" y1="40.836" x2="174.834" y2="10.2873" gradientUnits="userSpaceOnUse">
<stop offset="0.0105476" stop-color="#242323"/>
<stop offset="1" stop-color="#3D3D3D"/>
</linearGradient>
<linearGradient id="paint29_linear_25_61875" x1="174.834" y1="40.836" x2="174.834" y2="10.2873" gradientUnits="userSpaceOnUse">
<stop offset="0.0105476" stop-color="#242323"/>
<stop offset="1" stop-color="#3D3D3D"/>
</linearGradient>
<linearGradient id="paint30_linear_25_61875" x1="174.834" y1="40.836" x2="174.834" y2="10.2873" gradientUnits="userSpaceOnUse">
<stop offset="0.0105476" stop-color="#242323"/>
<stop offset="1" stop-color="#3D3D3D"/>
</linearGradient>
<linearGradient id="paint31_linear_25_61875" x1="174.834" y1="40.836" x2="174.834" y2="10.2873" gradientUnits="userSpaceOnUse">
<stop offset="0.0105476" stop-color="#242323"/>
<stop offset="1" stop-color="#3D3D3D"/>
</linearGradient>
<linearGradient id="paint32_linear_25_61875" x1="174.834" y1="40.836" x2="174.834" y2="10.2873" gradientUnits="userSpaceOnUse">
<stop offset="0.0105476" stop-color="#242323"/>
<stop offset="1" stop-color="#3D3D3D"/>
</linearGradient>
<linearGradient id="paint33_linear_25_61875" x1="174.834" y1="40.836" x2="174.834" y2="10.2873" gradientUnits="userSpaceOnUse">
<stop offset="0.0105476" stop-color="#242323"/>
<stop offset="1" stop-color="#3D3D3D"/>
</linearGradient>
<clipPath id="clip0_25_61875">
<rect width="343" height="110" rx="20" fill="white"/>
</clipPath>
<clipPath id="clip1_25_61875">
<rect width="343" height="110" fill="white"/>
</clipPath>
<clipPath id="clip2_25_61875">
<rect width="343" height="110" fill="white"/>
</clipPath>
</defs>
</svg>
