<svg width="343" height="110" viewBox="0 0 343 110" fill="none" xmlns="http://www.w3.org/2000/svg">
<g clip-path="url(#clip0_137_47092)">
<rect width="343" height="110" rx="20" fill="url(#paint0_linear_137_47092)"/>
<g clip-path="url(#clip1_137_47092)">
<g clip-path="url(#clip2_137_47092)">
<path opacity="0.04" d="M289.433 7.58984H289.428C288.747 7.58984 288.195 8.14216 288.195 8.82348V31.8796C288.195 32.561 288.747 33.1133 289.428 33.1133H289.433C290.114 33.1133 290.667 32.561 290.667 31.8796V8.82348C290.667 8.14216 290.114 7.58984 289.433 7.58984Z" fill="url(#paint1_linear_137_47092)"/>
<path opacity="0.08" d="M230.351 0.5H230.346C229.665 0.5 229.113 1.05232 229.113 1.73363V24.7898C229.113 25.4711 229.665 26.0234 230.346 26.0234H230.351C231.032 26.0234 231.585 25.4711 231.585 24.7898V1.73363C231.585 1.05232 231.032 0.5 230.351 0.5Z" fill="url(#paint2_linear_137_47092)"/>
<path opacity="0.15" d="M211.918 53.9102H211.913C211.232 53.9102 210.679 54.4625 210.679 55.1438V78.2C210.679 78.8813 211.232 79.4336 211.913 79.4336H211.918C212.599 79.4336 213.151 78.8813 213.151 78.2V55.1438C213.151 54.4625 212.599 53.9102 211.918 53.9102Z" fill="url(#paint3_linear_137_47092)"/>
<path opacity="0.08" d="M308.269 37.3672C308.422 37.3672 308.574 37.3974 308.715 37.4561C308.857 37.5147 308.986 37.6007 309.094 37.7091C309.202 37.8175 309.288 37.9462 309.347 38.0879C309.406 38.2295 309.436 38.3813 309.436 38.5346V60.3052C309.436 60.4585 309.406 60.6103 309.347 60.752C309.288 60.8936 309.202 61.0223 309.094 61.1307C308.986 61.2391 308.857 61.3251 308.715 61.3838C308.574 61.4425 308.422 61.4727 308.269 61.4727C308.115 61.4733 307.963 61.4435 307.821 61.3851C307.679 61.3266 307.55 61.2406 307.442 61.1321C307.333 61.0236 307.247 60.8946 307.189 60.7527C307.13 60.6108 307.1 60.4587 307.101 60.3052V38.5346C307.1 38.3812 307.13 38.2291 307.189 38.0871C307.247 37.9452 307.333 37.8163 307.442 37.7077C307.55 37.5992 307.679 37.5132 307.821 37.4548C307.963 37.3963 308.115 37.3666 308.269 37.3672Z" fill="url(#paint4_linear_137_47092)"/>
<path opacity="0.27" d="M299.288 67.6172C299.598 67.6172 299.895 67.7402 300.114 67.9591C300.333 68.1781 300.456 68.475 300.456 68.7847V90.5552C300.456 90.8648 300.333 91.1618 300.114 91.3807C299.895 91.5997 299.598 91.7227 299.288 91.7227C299.135 91.7233 298.983 91.6935 298.841 91.6351C298.699 91.5766 298.57 91.4907 298.461 91.3821C298.353 91.2736 298.267 91.1446 298.208 91.0027C298.15 90.8608 298.12 90.7087 298.121 90.5552V68.7847C298.12 68.6312 298.15 68.4791 298.208 68.3372C298.267 68.1952 298.353 68.0663 298.461 67.9577C298.57 67.8492 298.699 67.7632 298.841 67.7048C298.983 67.6463 299.135 67.6166 299.288 67.6172Z" fill="url(#paint5_linear_137_47092)"/>
<path opacity="0.4" fill-rule="evenodd" clip-rule="evenodd" d="M269.761 121.5C243.292 121.5 218.383 118.347 199.652 112.619C190.535 109.835 183.374 106.578 178.383 102.958C173.15 99.1859 170.503 95.1683 170.503 91.0137C170.503 86.859 173.15 82.8414 178.368 79.0696C183.374 75.4491 190.535 72.1972 199.638 69.4086C218.383 63.68 243.292 60.5273 269.761 60.5273C296.23 60.5273 321.139 63.68 339.866 69.4086C348.983 72.1925 356.149 75.4491 361.135 79.0696C366.334 82.8509 369 86.859 369 91.0137C369 95.1683 366.353 99.1859 361.135 102.958C356.13 106.578 348.969 109.83 339.866 112.619C321.139 118.347 296.23 121.5 269.761 121.5ZM269.761 60.9055C215.24 60.9055 170.882 74.414 170.882 91.0137C170.882 107.613 215.24 121.122 269.761 121.122C324.282 121.122 368.641 107.613 368.641 91.0137C368.641 74.414 324.282 60.9055 269.761 60.9055ZM205.551 111.125C222.798 116.301 245.533 119.137 269.676 119.137H270.536C290.534 119.08 309.483 117.095 325.331 113.394C332.96 111.607 339.606 109.48 345.079 107.07C350.637 104.621 354.863 101.937 357.633 99.0866C360.247 96.3972 361.532 93.5944 361.452 90.749C361.244 83.1865 351.483 76.1534 333.972 70.8974C316.729 65.7266 293.99 62.8906 269.846 62.8906H268.991C248.988 62.9473 230.039 64.9325 214.191 68.6334C206.562 70.42 199.917 72.547 194.443 74.9575C188.885 77.4059 184.659 80.0906 181.89 82.9407C179.276 85.6301 177.99 88.4141 178.066 91.2784C178.279 98.8125 188.039 105.874 205.551 111.125ZM268.991 63.2688H269.842C319.806 63.2688 360.653 75.5578 361.064 90.7632C361.14 93.4998 359.887 96.2082 357.354 98.822C351.918 104.409 340.513 109.452 325.213 113.002C309.398 116.698 290.473 118.674 270.499 118.74H269.643C219.683 118.74 178.832 106.451 178.42 91.2453C178.345 88.5086 179.597 85.7955 182.135 83.1818C187.562 77.595 198.972 72.5564 214.276 69.0021C230.096 65.3059 249.016 63.3255 268.991 63.2688ZM269.591 116.773C247.787 116.773 227.203 114.226 211.454 109.565C195.228 104.768 186.063 98.2831 185.628 91.302C185.487 88.6693 186.574 86.0508 188.937 83.5693C191.395 80.9272 195.195 78.4316 200.219 76.1534C205.168 73.9082 211.199 71.9278 218.147 70.2546C232.577 66.79 249.895 64.8994 268.249 64.786C290.69 64.6489 311.946 67.206 328.106 71.9845C344.266 76.7631 353.497 83.2716 353.918 90.2527C354.074 92.8854 352.972 95.4897 350.647 97.9854C348.189 100.627 344.389 103.123 339.365 105.401C334.421 107.646 328.385 109.627 321.437 111.295C307.007 114.765 289.688 116.66 271.335 116.769L269.591 116.773ZM269.931 65.1641H268.216C249.91 65.2775 232.615 67.1445 218.242 70.6233C204.336 73.965 194.028 78.6584 189.206 83.8246C186.957 86.2446 185.898 88.7496 186.04 91.2736C186.243 94.6957 188.639 98.0137 193.129 101.133C197.525 104.168 203.726 106.881 211.563 109.197C227.279 113.843 247.825 116.386 269.591 116.386H271.312C289.613 116.272 306.903 114.41 321.281 110.927C335.182 107.585 345.495 102.892 350.311 97.7254C352.566 95.3054 353.62 92.8003 353.478 90.2763C353.275 86.8543 350.883 83.5363 346.365 80.4167C341.969 77.3823 335.772 74.6692 327.931 72.3532C312.248 67.707 291.697 65.1641 269.931 65.1641ZM217.367 107.665C231.613 111.725 250.042 113.938 269.506 113.938C270.362 113.938 271.226 113.938 272.082 113.938C288.757 113.772 304.44 112.009 317.457 108.847C322.985 107.565 328.379 105.766 333.57 103.473C338.065 101.407 341.435 99.1481 343.59 96.7612C345.637 94.4972 346.554 92.1386 346.313 89.7611C345.684 83.4795 337.11 77.68 322.174 73.4214C307.238 69.1628 287.845 66.9555 267.436 67.1445C250.76 67.3052 235.078 69.0682 222.061 72.235C216.534 73.5185 211.141 75.3194 205.953 77.6139C201.458 79.6794 198.088 81.9339 195.932 84.3209C193.886 86.5849 192.973 88.9434 193.21 91.3209C193.857 97.6025 202.431 103.407 217.367 107.665ZM200.423 100.103C196.206 97.3189 193.909 94.3459 193.602 91.2736C193.375 89.0002 194.259 86.7409 196.23 84.5666C200.437 79.9015 209.644 75.6523 222.169 72.6037C235.144 69.4464 250.794 67.6834 267.44 67.5227C287.817 67.3194 307.21 69.5362 322.051 73.7664C329.254 75.8178 334.993 78.2378 339.095 80.9508C343.311 83.73 345.608 86.7078 345.916 89.78C346.142 92.0488 345.259 94.3081 343.288 96.4918C339.081 101.152 329.869 105.397 317.348 108.445C304.379 111.607 288.724 113.361 272.077 113.531C251.706 113.734 232.313 111.513 217.471 107.282C210.263 105.245 204.535 102.83 200.423 100.117V100.103ZM269.43 111.102C252.297 111.102 236.028 109.211 223.29 105.69C209.644 101.908 201.666 96.747 200.824 91.1129C200.508 88.9576 201.24 86.8212 203.017 84.7557C206.723 80.4451 214.697 76.6638 226.064 73.8184C237.63 70.9305 251.673 69.2809 266.665 69.0588C285.042 68.7894 302.649 70.7036 316.233 74.4471C329.817 78.1905 337.857 83.385 338.698 89.0238C339.015 91.1791 338.282 93.3155 336.51 95.3763C332.809 99.6869 324.835 103.468 313.463 106.314C301.897 109.201 287.859 110.851 272.862 111.073C271.718 111.102 270.569 111.102 269.43 111.102ZM270.092 69.4133C268.953 69.4133 267.814 69.4133 266.665 69.4133C251.701 69.6354 237.691 71.2755 226.154 74.1635C215.018 76.9474 206.903 80.7807 203.306 84.9778C201.609 86.9536 200.905 88.9907 201.207 91.0326C201.618 93.7882 203.812 96.4445 207.73 98.9259C211.549 101.341 216.814 103.487 223.394 105.302C236.103 108.804 252.334 110.705 269.43 110.705C270.574 110.705 271.713 110.705 272.857 110.681C287.826 110.459 301.836 108.814 313.373 105.954C324.509 103.17 332.624 99.3371 336.221 95.14C337.918 93.1643 338.622 91.1271 338.32 89.0852C337.909 86.3296 335.716 83.6733 331.793 81.1919C327.978 78.7719 322.708 76.626 316.129 74.8157C303.424 71.3086 287.188 69.4133 270.092 69.4133ZM229.146 104.125C240.319 107.127 254.376 108.738 269.123 108.738C270.541 108.738 271.959 108.738 273.377 108.696C286.635 108.417 298.971 106.867 309.063 104.22C318.988 101.615 325.866 98.1839 328.952 94.2939C330.45 92.4033 330.999 90.4654 330.597 88.5039C329.552 83.4417 322.198 78.838 309.894 75.5295C297.591 72.2209 281.937 70.6186 265.654 70.9589C252.419 71.2377 240.064 72.788 229.968 75.4349C220.043 78.0393 213.165 81.4707 210.079 85.3607C208.585 87.2513 208.032 89.1939 208.434 91.1507C209.488 96.2129 216.824 100.821 229.146 104.125ZM215.013 98.1177C211.412 95.9104 209.342 93.5424 208.817 91.0751C208.439 89.2318 208.968 87.3884 210.391 85.597C213.383 81.8158 220.373 78.3607 230.077 75.813C240.14 73.1709 252.448 71.63 265.673 71.3512C281.927 71.0109 297.601 72.6273 309.814 75.9076C315.741 77.5004 320.529 79.3911 324.041 81.5464C327.643 83.7537 329.713 86.1217 330.238 88.5889C330.62 90.4323 330.091 92.2757 328.668 94.067C325.676 97.8483 318.686 101.303 308.982 103.851C298.919 106.493 286.611 108.034 273.386 108.313C257.137 108.653 241.468 107.032 229.245 103.756C223.309 102.164 218.525 100.273 215.013 98.1177ZM269.057 106.375C256.631 106.375 244.734 105.066 235.097 102.594C224.098 99.7862 217.344 95.8159 216.091 91.3965C215.618 89.6524 215.973 87.913 217.211 86.2209C219.702 82.8225 225.521 79.7928 234.024 77.4673C242.669 75.1041 253.341 73.6861 264.893 73.3411C279.134 72.9346 293.006 74.2438 303.953 77.0372C314.9 79.8306 321.701 83.8104 322.959 88.2297C323.455 89.9738 323.086 91.7132 321.838 93.4053C319.343 96.8037 313.529 99.8334 305.026 102.159C296.376 104.522 285.704 105.94 274.157 106.28C272.452 106.343 270.752 106.375 269.057 106.375ZM216.45 91.3162C218.979 100.212 244.862 106.763 274.143 105.921C285.661 105.59 296.306 104.172 304.922 101.814C313.227 99.5404 319.125 96.4823 321.536 93.2021C322.699 91.6139 323.053 89.9833 322.595 88.3573C320.066 79.462 294.183 72.9062 264.902 73.7475C253.388 74.0784 242.744 75.5011 234.128 77.8596C225.804 80.1331 219.924 83.2148 217.514 86.4714C216.351 88.0596 215.992 89.6855 216.45 91.3162ZM241.066 101.081C249.144 103 258.885 104.012 268.996 104.012C270.962 104.012 272.942 103.974 274.923 103.898C294.736 103.128 310.717 98.5762 314.678 92.5545C315.155 91.9022 315.459 91.14 315.564 90.3385C315.668 89.5371 315.568 88.7223 315.273 87.9698C313.813 84.1885 307.673 80.8799 297.984 78.5639C288.294 76.2479 276.317 75.2553 264.127 75.728C244.313 76.5031 228.333 81.0548 224.372 87.0717C223.895 87.7243 223.591 88.4864 223.487 89.2878C223.383 90.0892 223.482 90.9038 223.777 91.6565C225.242 95.4472 231.382 98.7841 241.066 101.081ZM274.908 103.52C249.858 104.499 227.076 99.1197 224.131 91.5383C223.856 90.84 223.763 90.0834 223.861 89.3394C223.959 88.5954 224.243 87.8883 224.689 87.2844C226.532 84.491 231.344 81.8583 238.24 79.8732C245.401 77.8029 254.362 76.5078 264.141 76.1297C289.192 75.1561 311.979 80.5302 314.924 88.1116C315.195 88.8107 315.286 89.5671 315.188 90.3107C315.09 91.0542 314.805 91.761 314.361 92.3655C312.518 95.1541 307.706 97.7868 300.815 99.7767C293.649 101.842 284.692 103.142 274.908 103.539V103.52ZM269.18 101.63C261.789 101.68 254.414 100.957 247.173 99.4742C238.76 97.6403 233.206 94.8895 231.533 91.7179C231.176 91.0884 230.993 90.3749 231.004 89.6512C231.015 88.9274 231.218 88.2197 231.594 87.6011C234.43 82.5626 247.291 78.5828 263.579 77.7037C273.76 77.1601 283.979 77.8596 292.349 79.6794C300.72 81.4991 306.316 84.2689 307.994 87.4357C308.35 88.0659 308.531 88.7795 308.52 89.5031C308.508 90.2266 308.304 90.934 307.928 91.5525C305.092 96.5957 292.231 100.571 275.948 101.45C273.689 101.587 271.42 101.648 269.18 101.648V101.63ZM231.868 91.5383C235.238 97.9192 255.005 102.197 275.925 101.067C292.085 100.197 304.818 96.298 307.593 91.3634C307.935 90.8006 308.121 90.1565 308.132 89.4977C308.143 88.8389 307.978 88.1891 307.654 87.6153C304.279 81.2344 284.494 76.9569 263.593 78.0865C247.433 78.9562 234.704 82.8556 231.925 87.7902C231.578 88.3549 231.389 89.0029 231.379 89.6659C231.369 90.3289 231.538 90.9822 231.868 91.5572V91.5383ZM252.868 97.3945C258.17 98.3647 263.55 98.8394 268.939 98.8125C271.463 98.8125 273.991 98.718 276.501 98.5289C282.816 98.0562 288.441 96.9833 292.765 95.4708C297.09 93.9583 299.765 92.1339 300.654 90.1487C300.93 89.5466 301.028 88.8786 300.939 88.2225C300.849 87.5664 300.575 86.9493 300.148 86.4431C298.258 83.8766 293.309 81.7165 286.2 80.3695C278.403 78.9869 270.46 78.6104 262.567 79.2493C256.257 79.7219 250.633 80.7901 246.303 82.3073C241.974 83.8246 239.313 85.6159 238.419 87.6247C238.145 88.2271 238.047 88.8948 238.136 89.5507C238.226 90.2065 238.499 90.8236 238.925 91.3304C240.806 93.8921 245.76 96.0475 252.868 97.3945ZM276.454 98.1366C259.717 99.4175 243.018 96.246 239.228 91.0987C238.846 90.6475 238.599 90.0977 238.515 89.5125C238.431 88.9272 238.515 88.3303 238.755 87.7902C240.518 83.8671 250.099 80.5916 262.591 79.6368C279.333 78.3512 296.031 81.5275 299.822 86.6747C300.206 87.1248 300.454 87.6748 300.538 88.2605C300.622 88.8462 300.537 89.4436 300.295 89.9833C298.532 93.9063 288.951 97.1818 276.454 98.1413V98.1366ZM268.977 96.4492C259.051 96.4492 249.886 94.5586 246.521 91.5572C245.367 90.5221 244.947 89.3925 245.311 88.2817C245.783 86.8307 247.556 85.4458 250.439 84.3114C253.322 83.177 257.274 82.2695 261.783 81.7732C274.445 80.3553 288.252 82.3641 292.539 86.2162C293.692 87.2513 294.112 88.381 293.749 89.4917C293.276 90.9428 291.503 92.3277 288.62 93.462C285.737 94.5964 281.781 95.5039 277.276 96.0002C274.52 96.3034 271.749 96.4533 268.977 96.4492ZM270.116 81.6976C267.341 81.6944 264.569 81.8427 261.811 82.1419C252.92 83.125 246.601 85.5781 245.656 88.4141C245.339 89.3877 245.708 90.3567 246.762 91.2973C250.987 95.0785 264.652 97.0353 277.215 95.6457C286.125 94.6389 292.449 92.1953 293.394 89.3594C293.711 88.3857 293.337 87.4168 292.288 86.4762C288.97 83.5362 279.914 81.6976 270.116 81.6976ZM254.121 91.8881C257.245 93.6038 262.988 94.5586 268.967 94.5586C272.028 94.5678 275.085 94.3036 278.099 93.7693C283.492 92.772 286.909 90.99 287.226 89.0002C287.349 88.225 287.056 87.0528 284.929 85.8853C280.202 83.281 269.43 82.435 260.951 83.9947C255.553 84.992 252.141 86.7739 251.824 88.7638C251.701 89.5484 251.994 90.7159 254.121 91.8881ZM261.017 84.3776C264.019 83.8448 267.062 83.5822 270.111 83.593C276.014 83.593 281.677 84.5383 284.763 86.2209C286.29 87.0623 287.013 88.0029 286.867 88.9387C286.578 90.7348 283.194 92.4411 278.042 93.3911C269.638 94.9462 258.994 94.1237 254.32 91.5525C252.793 90.7112 252.065 89.7706 252.216 88.8347C252.486 87.0386 255.865 85.3323 261.017 84.3776ZM269.052 92.668C266.666 92.6933 264.285 92.4298 261.962 91.8834C259.164 91.1744 257.581 90.1156 257.496 88.8914C257.444 88.1825 257.893 87.1284 260.332 86.1595C264.519 84.4627 272.058 84.1318 277.149 85.4174C279.947 86.1217 281.526 87.1852 281.615 88.4093C281.663 89.1183 281.218 90.1723 278.78 91.1413C276.341 92.1102 272.663 92.668 269.052 92.668ZM269.998 85.0062C266.443 85.0062 262.86 85.5261 260.44 86.5093C258.72 87.2041 257.803 88.0407 257.86 88.8725C257.931 89.884 259.486 90.8766 262.047 91.5241C267.067 92.7956 274.507 92.4694 278.628 90.7962C280.349 90.1014 281.266 89.2648 281.209 88.433C281.138 87.4215 279.574 86.4289 277.021 85.7814C274.716 85.243 272.355 84.9827 269.988 85.0062H269.998ZM269.525 90.7773C265.418 90.7773 262.199 89.7375 262.199 88.4141C262.199 87.0906 265.418 86.0508 269.525 86.0508C273.632 86.0508 276.851 87.0906 276.851 88.4141C276.851 89.7375 273.632 90.7773 269.525 90.7773ZM269.525 86.41C265.375 86.41 262.586 87.4451 262.586 88.4141C262.586 89.383 265.375 90.4181 269.525 90.4181C273.675 90.4181 276.463 89.383 276.463 88.4141C276.463 87.4451 273.675 86.41 269.525 86.41Z" fill="url(#paint6_linear_137_47092)"/>
<path d="M286.98 26.0234H287.131H287.699H287.855L288.549 25.9951H288.696L289.301 25.9573H289.48L290.218 25.9005H290.345L291.002 25.8438H291.201L291.99 25.7635H292.071L292.813 25.6737L293.025 25.6453L293.867 25.5319L287.85 22.1902L287.008 22.3036L286.777 22.2422L286.035 22.332H285.954L285.165 22.4171H284.967L284.305 22.4738H284.182L283.44 22.5305H283.26L282.66 22.5683H282.513L281.814 22.5967H281.658C281.469 22.5967 281.28 22.5967 281.096 22.5967H279.46C279.252 22.5967 279.049 22.5967 278.846 22.5967H278.751H278.231H278.08L277.499 22.5589H277.451L276.931 22.5163H276.785L276.246 22.4596L275.721 22.3982H275.584L275.112 22.332H275.055L274.582 22.2564L274.488 22.2422L274.081 22.1713H274.006L273.557 22.0815H273.448L273.089 21.9964H272.999L272.597 21.8924L272.314 21.7695L272.134 21.7175C272.025 21.6892 271.917 21.6514 271.808 21.6183L271.685 21.5852L271.255 21.4481L271.179 21.3914C271.066 21.3536 270.957 21.3158 270.853 21.2732L270.707 21.2165L270.456 21.122L270.305 21.0605L270.083 20.966L269.927 20.8951L269.714 20.8242L269.563 20.7533L269.374 20.6588L269.185 20.5643L269.095 20.517L268.816 20.3516L274.833 23.6602C274.923 23.7121 275.012 23.7641 275.107 23.8114L275.197 23.8587L275.334 23.9296H275.391L275.575 24.0194L275.731 24.095L275.929 24.1848L276.085 24.2557L276.308 24.3455L276.463 24.4117L276.714 24.5062L276.856 24.5629L277.177 24.6764L277.267 24.7095L277.697 24.8465L277.825 24.8843L278.151 24.9836L278.326 25.0309L278.619 25.1112H278.657L279.025 25.201H279.11L279.474 25.2861H279.578L280.051 25.3806H280.127L280.528 25.4562H280.651L281.124 25.5366H281.176L281.649 25.6028H281.786L282.31 25.6642C282.485 25.6642 282.665 25.702 282.849 25.7209H282.996C283.166 25.7209 283.336 25.754 283.511 25.7635H283.563L284.139 25.8013H284.291H284.811H284.905H285.524H286.351C286.556 25.8893 286.766 25.9635 286.98 26.0234Z" fill="url(#paint7_linear_137_47092)"/>
<path d="M260.043 82.0237C248.577 75.2033 248.369 67.2107 248.355 66.7853L248.416 31.6953L242.413 28.3867L242.347 63.4814C242.347 63.9021 242.565 71.9089 254.036 78.7246C255.823 79.7834 257.311 80.6389 258.559 81.3289L264.562 84.6375C263.314 83.938 261.825 83.0825 260.043 82.0237Z" fill="url(#paint8_linear_137_47092)"/>
<path d="M271.226 20.3516C271.416 20.7344 275.008 27.9755 293.867 25.3192L293.801 60.2201C293.801 60.6455 293.55 68.6618 281.984 78.6962C273.854 85.7436 271.784 86.911 271.269 86.9819C270.451 87.1001 268.381 86.5093 260.275 81.7449C248.714 74.967 248.492 67.0169 248.492 66.5915L248.558 31.6953C267.436 29.0343 271.037 20.7864 271.226 20.3516Z" fill="url(#paint9_linear_137_47092)"/>
<path d="M293.867 25.6973V25.4421C286.304 26.1794 281.19 25.8013 277.796 25.0781C281.062 25.8911 286.12 26.3874 293.867 25.6973Z" fill="url(#paint10_linear_137_47092)"/>
<path d="M261.003 81.6976C249.503 74.9481 249.295 67.0453 249.286 66.6152L249.347 31.8938C265.706 29.5967 270.546 23.0835 271.652 21.1504C271.452 20.9027 271.277 20.635 271.132 20.3516C270.943 20.7817 267.351 28.9917 248.558 31.6339L248.492 66.3552C248.492 66.7711 248.709 74.6928 260.209 81.4329C266.155 84.9306 268.835 86.1595 270.168 86.5234C268.636 85.9421 265.952 84.5997 261.003 81.6976Z" fill="url(#paint11_linear_137_47092)"/>
<path d="M290.766 31.0336V30.75L290.501 30.7831V30.4806L290.232 30.5137V30.2112C279.484 31.7237 274.667 29.4029 272.635 27.6541C272.419 27.4045 272.233 27.13 272.082 26.8364L272.035 26.9404C271.955 26.8219 271.882 26.6988 271.817 26.5717L271.77 26.6757C271.69 26.5572 271.618 26.4341 271.553 26.307C271.553 26.307 271.553 26.359 271.505 26.411C271.425 26.2936 271.354 26.1703 271.293 26.0423C271.132 26.4063 268.121 33.3307 252.325 35.5569L252.273 64.8616V65.131C252.273 65.4004 252.386 69.5409 257.042 74.05L257.311 74.3195C258.92 75.8808 260.721 77.2309 262.671 78.337C269.341 82.2648 271.122 82.8084 271.836 82.7327C271.935 82.7469 272.035 82.7469 272.134 82.7327C272.564 82.6713 274.294 81.6929 281.114 75.78C290.809 67.3761 291.007 60.655 291.04 60.2863L291.031 31.0052L290.766 31.0336Z" fill="url(#paint12_linear_137_47092)"/>
<path d="M272.162 26.0234C272.318 26.3448 275.296 32.4563 291.031 30.2206L290.979 59.6766C290.979 60.0311 290.761 66.8042 281.119 75.2742C274.341 81.2202 272.611 82.2081 272.191 82.2695C271.505 82.3641 269.785 81.8678 263.026 77.8502C253.403 72.1169 253.218 65.4004 253.218 65.0507L253.275 35.59C269 33.3543 272.002 26.3874 272.162 26.0234Z" fill="url(#paint13_linear_137_47092)"/>
<path d="M271.69 26.0234C271.846 26.3448 274.823 32.4563 290.558 30.2206L290.506 59.6766C290.506 60.0311 290.289 66.8042 280.646 75.2742C273.869 81.2202 272.139 82.2081 271.718 82.2695C271.033 82.3641 269.312 81.8678 262.553 77.8502C252.93 72.1169 252.746 65.4004 252.746 65.0507L252.802 35.59C268.528 33.3543 271.529 26.3874 271.69 26.0234Z" fill="#8F8FFF"/>
<path d="M271.727 81.3242C271.255 81.277 269.539 80.7145 263.395 77.1318C254.66 72.0365 254.192 66.3221 254.164 65.6084L254.216 37.6461C265.389 35.8689 270.149 31.7851 272.058 29.332C273.746 30.9391 277.31 33.0046 284.484 33.0046C286.198 32.9944 287.91 32.8918 289.613 32.6973L289.561 60.291C289.561 60.7164 289.131 66.9413 280.108 74.7259C273.836 80.1048 272.125 81.1352 271.727 81.3242Z" fill="url(#paint14_linear_137_47092)"/>
<path fill-rule="evenodd" clip-rule="evenodd" d="M284.886 47.2315L276.038 48.503L279.739 38.9837L279.777 38.8844L269.549 40.3544L263.324 58.8305L269.468 57.9466L266.845 72.8164L284.806 47.3497L284.886 47.2315ZM284.631 47.4017L267.044 72.3438L269.61 57.8048L263.494 58.684L269.638 40.4867L279.602 39.0688L275.906 48.5644L275.868 48.6589L284.631 47.4017Z" fill="white"/>
<path d="M269.705 65.2539L269.52 65.1546L271.236 55.4746L271.416 55.5786L269.705 65.2539Z" fill="#848484"/>
<path d="M272.904 50.8946L272.725 50.7953L280.448 49.6893L280.628 49.7886L272.904 50.8946Z" fill="#9A9A9A"/>
<path d="M276.667 41.2477L272.886 50.8946L280.632 49.7886L269.705 65.2539L271.416 55.5786L265.687 56.3963L270.503 42.1363L276.667 41.2477Z" fill="white"/>
<path d="M265.687 56.3916L265.507 56.2734L270.324 42.0134L270.503 42.1127L265.687 56.3916Z" fill="#878787"/>
<path d="M270.503 42.1316L270.324 42.0323L276.468 41.1484L276.653 41.2477L270.503 42.1316Z" fill="#9A9A9A"/>
<path d="M265.12 16.5703V16.6129L265.087 16.6838L265.039 16.7877L264.973 16.9154V16.939L264.884 17.0997V17.128L264.775 17.3171V17.3502C264.737 17.4211 264.69 17.492 264.642 17.5676V17.596L264.477 17.8512L264.316 18.0781L264.279 18.1301L264.099 18.3711L264.066 18.4137L263.877 18.6547L263.848 18.6925L263.622 18.962L263.57 19.0234C263.489 19.1179 263.404 19.2125 263.319 19.3023L263.291 19.3306L263.035 19.6095L262.974 19.6709L262.676 19.9734L262.615 20.0302L262.312 20.3185L262.27 20.3563C262.147 20.4792 262.01 20.5973 261.873 20.7155L261.726 20.8242C261.589 20.9424 261.452 21.0653 261.301 21.1834L261.216 21.2496L260.743 21.6183L260.677 21.6703L260.143 22.0626L259.779 22.3131L259.646 22.3982L259.372 22.5778L259.216 22.6818L258.947 22.8519L258.782 22.9512L258.484 23.1355L258.332 23.2206L257.898 23.4758H257.874L257.401 23.7405L257.245 23.8209L256.896 24.0052L256.702 24.1045L256.357 24.2841L256.163 24.3786L255.723 24.5866L255.577 24.6527L254.977 24.9174L254.84 24.9789L254.367 25.1868L254.149 25.2719L253.677 25.4562L253.459 25.5366L252.859 25.7587L252.774 25.7918C252.542 25.8769 252.301 25.9573 252.065 26.0376L251.852 26.1085L251.323 26.2834L251.068 26.3638L250.51 26.5339L250.288 26.6001L249.494 26.827L249.366 26.86C249.135 26.9262 248.894 26.9877 248.667 27.0444L248.393 27.1153L247.797 27.2571L247.504 27.3232L246.8 27.4839L246.611 27.5265L245.698 27.7155L245.453 27.7628C245.216 27.8054 244.98 27.8479 244.739 27.8999L244.417 27.9613L243.718 28.0795L243.411 28.1268C243.075 28.1835 242.74 28.2355 242.395 28.2827L248.416 31.6953L249.432 31.5393L249.74 31.4873L250.439 31.3692L250.761 31.3125C251.002 31.2699 251.233 31.2227 251.474 31.1707L251.715 31.1234L252.632 30.9391L252.821 30.8965L253.526 30.7358L253.819 30.6696L254.419 30.5279L254.688 30.4617L255.393 30.2726L255.515 30.2395C255.783 30.1702 256.048 30.0946 256.31 30.0127L256.532 29.9512C256.721 29.8898 256.91 29.8378 257.089 29.7763L257.345 29.696L257.879 29.5211L258.091 29.4549L258.8 29.2044L258.876 29.1761C259.084 29.1004 259.287 29.0295 259.486 28.9492L259.698 28.8688L260.171 28.6845L260.384 28.5994L260.856 28.3914L260.994 28.3347L261.594 28.0653L261.74 27.9991L262.175 27.7912L262.26 27.7534L262.374 27.6966L262.714 27.5265L262.908 27.432L263.258 27.2476L263.414 27.1673L263.886 26.8979L264.331 26.6426L264.477 26.5528L264.775 26.3732L264.936 26.2739L265.21 26.0991L265.366 25.9998L265.635 25.8202L265.763 25.7304L266.122 25.4846H266.146C266.33 25.357 266.505 25.2246 266.68 25.0923L266.746 25.0403C266.911 24.9174 267.067 24.7945 267.218 24.6716L267.294 24.6102L267.724 24.251L267.79 24.1895L268.197 23.8303L268.225 23.802L268.528 23.5136L268.589 23.4522C268.693 23.3545 268.792 23.2552 268.887 23.1544C268.906 23.1328 268.927 23.1122 268.948 23.093L269.204 22.8141L269.227 22.7857L269.482 22.5069L269.511 22.4785V22.4454L269.738 22.176L269.766 22.1429L269.955 21.9019L269.988 21.8546C270.054 21.7743 270.111 21.6892 270.168 21.6136L270.206 21.5616C270.262 21.4859 270.314 21.4056 270.366 21.33C270.418 21.2543 270.48 21.1598 270.532 21.0795V21.0511L270.669 20.8337V20.8006L270.778 20.6115V20.5832C270.811 20.5264 270.844 20.4697 270.867 20.4177L270.929 20.2901L270.981 20.1861L271.014 20.1152V20.0727L265.12 16.5703Z" fill="url(#paint15_linear_137_47092)"/>
<path d="M233.13 50.1289C234.044 50.1289 234.785 49.3883 234.785 48.4746C234.785 47.561 234.044 46.8203 233.13 46.8203C232.217 46.8203 231.476 47.561 231.476 48.4746C231.476 49.3883 232.217 50.1289 233.13 50.1289Z" fill="#570CBB"/>
<path d="M317.736 54.3828C319.955 54.3828 321.753 52.5841 321.753 50.3652C321.753 48.1464 319.955 46.3477 317.736 46.3477C315.517 46.3477 313.718 48.1464 313.718 50.3652C313.718 52.5841 315.517 54.3828 317.736 54.3828Z" fill="#540EFF"/>
<path d="M299.066 44.457C300.371 44.457 301.429 43.399 301.429 42.0938C301.429 40.7885 300.371 39.7305 299.066 39.7305C297.761 39.7305 296.703 40.7885 296.703 42.0938C296.703 43.399 297.761 44.457 299.066 44.457Z" fill="#570CBB"/>
<path d="M223.441 38.3125C225.007 38.3125 226.277 37.0428 226.277 35.4766C226.277 33.9103 225.007 32.6406 223.441 32.6406C221.875 32.6406 220.605 33.9103 220.605 35.4766C220.605 37.0428 221.875 38.3125 223.441 38.3125Z" fill="#540EFF"/>
<path d="M224.33 77.7982L224.282 77.8266C222.968 78.7246 222.231 80.2277 222.056 82.0805C221.944 83.5826 222.112 85.0924 222.552 86.5329C222.931 87.8265 223.456 89.0729 224.117 90.248C224.457 90.853 224.835 91.4438 225.251 92.0582C225.606 92.564 225.974 93.0366 226.357 93.4762C227.223 94.5095 228.197 95.446 229.264 96.2696C230.434 97.1944 231.755 97.9107 233.168 98.3871C235.134 99.0205 236.992 98.9307 238.401 97.9901L238.453 97.9523L242.347 95.3101L240.665 92.909C240.655 91.5705 240.442 90.2412 240.031 88.9671C239.624 87.6889 239.079 86.4591 238.405 85.2993C238.107 84.7888 237.781 84.2783 237.46 83.7726C237.047 83.189 236.603 82.6273 236.132 82.0899C235.249 81.0629 234.253 80.1385 233.164 79.3343C232.17 78.5917 231.077 77.9934 229.916 77.5571L228.215 75.1797L224.33 77.7982Z" fill="#370097"/>
<path d="M223.725 78.4633L223.673 78.4989C222.379 79.3812 221.67 80.8728 221.482 82.7086C221.371 84.191 221.536 85.6809 221.971 87.1042C222.344 88.3806 222.86 89.612 223.509 90.7758C223.851 91.3931 224.226 91.9926 224.63 92.572C224.98 93.0705 225.344 93.5453 225.72 93.9963C226.572 95.0196 227.533 95.9482 228.588 96.7658C229.74 97.6777 231.043 98.3871 232.438 98.8627C234.377 99.4879 236.212 99.4008 237.602 98.4671L237.654 98.4315L241.496 95.8123L239.837 93.4385C239.828 92.1116 239.616 90.7938 239.208 89.5295C238.81 88.266 238.273 87.0493 237.606 85.9014C237.315 85.395 236.994 84.8925 236.644 84.394C236.241 83.8138 235.806 83.2551 235.342 82.7205C234.471 81.7069 233.487 80.7926 232.41 79.9945C231.431 79.2631 230.352 78.6717 229.205 78.2378L227.547 75.8639L223.725 78.4633Z" fill="#37058C"/>
<mask id="mask0_137_47092" style="mask-type:alpha" maskUnits="userSpaceOnUse" x="221" y="75" width="21" height="25">
<path d="M223.725 78.4633L223.673 78.4989C222.379 79.3812 221.67 80.8728 221.482 82.7086C221.371 84.191 221.536 85.6809 221.971 87.1042C222.344 88.3806 222.86 89.612 223.509 90.7758C223.851 91.3931 224.226 91.9926 224.63 92.572C224.98 93.0705 225.344 93.5453 225.72 93.9963C226.572 95.0196 227.533 95.9482 228.588 96.7658C229.74 97.6777 231.043 98.3871 232.438 98.8627C234.377 99.4879 236.212 99.4008 237.602 98.4671L237.654 98.4315L241.496 95.8123L239.837 93.4385C239.828 92.1116 239.616 90.7938 239.208 89.5295C238.81 88.266 238.273 87.0493 237.606 85.9014C237.315 85.395 236.994 84.8925 236.644 84.394C236.241 83.8138 235.806 83.2551 235.342 82.7205C234.471 81.7069 233.487 80.7926 232.41 79.9945C231.431 79.2631 230.352 78.6717 229.205 78.2378L227.547 75.8639L223.725 78.4633Z" fill="#37058C"/>
</mask>
<g mask="url(#mask0_137_47092)">
<path d="M240.289 93.7862L232.438 98.8862C234.443 99.5053 236.333 99.4203 237.765 98.4986L237.817 98.4655L241.778 95.8848L240.289 93.7862Z" fill="#5F1DE0"/>
<path d="M223.814 78.4552L223.762 78.4883C222.41 79.4336 221.654 80.9603 221.475 82.8745L229.165 77.6422L227.822 75.728L223.814 78.4552Z" fill="#37058C"/>
<path d="M239.84 89.9388L229.144 97.1893C230.307 98.1001 231.616 98.808 233.015 99.2832L240.682 94.1171L240.488 93.8524C240.48 92.5264 240.268 91.2095 239.859 89.9482L239.84 89.9388Z" fill="#4D15CD"/>
<path d="M237.576 85.8172L225.481 94.6133V94.8402C226.279 95.8768 227.198 96.8145 228.218 97.6336V97.8699L239.646 90.3642L239.467 89.5843C239.06 88.1663 238.384 87.3675 237.704 86.0914L237.576 85.8172Z" fill="#470BC5"/>
<path d="M235.161 82.7969L223.633 91.0495C223.959 91.664 224.323 92.2642 224.725 92.8834C225.065 93.3939 225.419 93.876 225.783 94.3392L237.382 86.0488C237.099 85.5336 236.787 85.0137 236.437 84.5079C236.045 83.9164 235.62 83.3468 235.166 82.8017L235.161 82.7969Z" fill="#400CAE"/>
<path d="M232.297 80.6038L222.002 87.4668C222.372 88.7052 222.881 89.8976 223.519 91.0212L235.185 83.2129C234.325 82.2306 233.36 81.3461 232.306 80.5755L232.297 80.6038Z" fill="#3D1097"/>
<path d="M228.86 77.8482L221.487 83.1184C221.367 84.6751 221.527 86.2408 221.96 87.7409L232.42 80.2777C231.447 79.5093 230.367 78.8867 229.215 78.4296L228.86 77.8482Z" fill="#380894"/>
</g>
<path d="M242.175 95.1539C245.479 92.8729 245.051 86.5239 241.218 80.973C237.386 75.422 231.601 72.7711 228.297 75.0521C224.993 77.333 225.422 83.682 229.254 89.233C233.086 94.7839 238.871 97.4348 242.175 95.1539Z" fill="url(#paint16_linear_137_47092)"/>
<path d="M228.167 75.1797C227.902 75.3681 227.656 75.5836 227.435 75.8225C227.326 75.9407 227.222 76.0683 227.123 76.1959C227.024 76.3235 227.033 76.3282 226.986 76.3944C226.937 76.4576 226.893 76.5239 226.853 76.5929C226.529 77.1478 226.296 77.751 226.163 78.3796C225.913 79.6371 225.913 80.9317 226.163 82.1892C226.401 83.4486 226.788 84.6752 227.317 85.8428C227.852 87.0161 228.5 88.1351 229.25 89.1845C229.623 89.7091 230.02 90.2196 230.441 90.7064C230.864 91.202 231.312 91.6753 231.783 92.1244C232.724 93.0332 233.769 93.8266 234.898 94.4877C236.023 95.1656 237.266 95.6242 238.561 95.8395C239.212 95.9435 239.876 95.9435 240.527 95.8395C240.609 95.8306 240.69 95.8148 240.768 95.7922C240.849 95.7922 240.934 95.7591 241.009 95.7355C241.17 95.6835 241.326 95.6504 241.482 95.5843C241.791 95.471 242.088 95.3252 242.366 95.1494C241.818 95.5241 241.199 95.7801 240.546 95.9009C239.888 96.0206 239.215 96.0365 238.552 95.9482C237.233 95.7508 235.964 95.3084 234.808 94.6437C233.657 93.9902 232.592 93.1964 231.637 92.2804C229.727 90.4921 228.191 88.3425 227.118 85.9563C226.584 84.7726 226.203 83.5258 225.984 82.2459C225.75 80.9654 225.773 79.6513 226.05 78.3796C226.202 77.7458 226.456 77.1408 226.801 76.5882C227.151 76.0268 227.617 75.5466 228.167 75.1797Z" fill="#8A67FB"/>
<path d="M230.531 88.4661C232.195 90.9475 234.312 92.8618 236.477 93.8638C239.062 95.0596 240.565 94.4452 241.232 93.9725C241.898 93.4998 242.985 92.2757 242.815 89.3594C242.554 86.6158 241.578 83.9887 239.984 81.7402C238.32 79.2634 236.203 77.3445 234.038 76.3472C231.453 75.1513 229.945 75.7658 229.283 76.2384C228.621 76.7111 227.529 77.9353 227.7 80.8468C227.956 83.5916 228.933 86.2199 230.531 88.4661Z" fill="url(#paint17_linear_137_47092)"/>
<path d="M236.595 93.7834C236.775 93.8496 236.95 93.9205 237.129 93.9772L237.403 94.067L237.673 94.1379L237.952 94.2088L238.226 94.2655C238.318 94.2863 238.411 94.302 238.505 94.3128L238.783 94.3459C239.521 94.4314 240.269 94.312 240.943 94.0009C241.587 93.6596 242.089 93.1022 242.361 92.4269C242.652 91.7576 242.813 91.0389 242.834 90.3094C242.842 88.822 242.575 87.346 242.045 85.9562C240.973 83.159 239.241 80.6619 236.997 78.6773C235.888 77.6902 234.606 76.9177 233.216 76.3991C232.526 76.1482 231.794 76.0311 231.06 76.0541C230.33 76.0747 229.63 76.3525 229.085 76.8387C228.555 77.3566 228.179 78.0109 227.997 78.7293C227.997 78.8239 227.955 78.9137 227.927 79.0035C227.898 79.0933 227.889 79.1878 227.875 79.2776C227.86 79.3674 227.837 79.4619 227.827 79.5565L227.794 79.8401C227.796 79.9352 227.788 80.0302 227.771 80.1237V80.9744C227.685 80.2133 227.715 79.4436 227.86 78.6915C228.003 77.9171 228.366 77.2001 228.905 76.626C229.188 76.3424 229.524 76.1161 229.893 75.9596C230.246 75.8027 230.62 75.6992 231.004 75.6523C231.793 75.6002 232.586 75.6997 233.338 75.9454C234.815 76.4448 236.18 77.2248 237.361 78.2425C239.714 80.2624 241.505 82.856 242.56 85.7719C243.094 87.2215 243.343 88.7607 243.293 90.3047C243.259 91.0944 243.071 91.87 242.74 92.5876C242.564 92.9463 242.333 93.275 242.054 93.5613C241.777 93.8529 241.445 94.0859 241.076 94.2466C240.347 94.5452 239.549 94.6288 238.774 94.4877C238.016 94.366 237.281 94.1285 236.595 93.7834Z" fill="#400CAE"/>
<path d="M236.675 81.3668C236.575 81.2257 236.446 81.1071 236.297 81.0184C236.148 80.9298 235.982 80.8729 235.81 80.8516H235.73C235.575 80.8475 235.422 80.8939 235.295 80.9839L234.794 81.4235C234.921 81.3328 235.073 81.2863 235.229 81.2911H235.324C235.475 81.3108 235.623 81.3572 235.758 81.4282C235.928 81.5231 236.075 81.6537 236.189 81.8111L239.97 86.5376L240.471 86.0981L236.675 81.3668Z" fill="#470BC5"/>
<path d="M235.73 81.83L234.671 81.4235L234.704 81.0784L234.733 80.7381C234.755 80.4376 234.862 80.1494 235.04 79.9062L234.681 80.3458C234.503 80.5889 234.396 80.8771 234.373 81.1777L234.345 81.518L234.312 81.863L235.371 82.2695L235.73 81.83Z" fill="#470BC5"/>
<path d="M236.638 87.4688C236.542 87.4583 236.447 87.4409 236.354 87.4168C235.632 87.2352 234.993 86.8155 234.539 86.2257C233.811 85.3087 233.868 84.9117 233.967 84.1743V84.0609L235.65 84.4816C235.733 84.4985 235.815 84.5206 235.895 84.5477C236.032 84.5604 236.163 84.6025 236.282 84.671C236.4 84.7396 236.502 84.833 236.581 84.9448C236.758 85.1536 236.859 85.4174 236.864 85.6916C236.869 85.7961 236.851 85.9004 236.812 85.9974C236.773 86.0944 236.713 86.1819 236.638 86.254L237.11 85.8239C237.187 85.7513 237.247 85.6631 237.287 85.5653C237.327 85.4675 237.346 85.3623 237.342 85.2567C237.331 84.9827 237.23 84.7201 237.053 84.5099C236.974 84.3992 236.871 84.3066 236.753 84.2382C236.635 84.1698 236.504 84.1271 236.368 84.1129L236.118 84.0467L232.894 83.2668C232.826 83.2477 232.756 83.2335 232.686 83.2243C232.545 83.2053 232.402 83.215 232.265 83.2527C232.155 83.281 232.054 83.3381 231.972 83.4181L231.5 83.8482C231.584 83.7725 231.684 83.7161 231.793 83.6828C231.93 83.6497 232.073 83.6401 232.213 83.6544C232.284 83.664 232.353 83.6782 232.421 83.697L233.863 84.0609L233.494 84.387L233.466 84.6328C233.362 85.3702 233.305 85.7719 234.033 86.6794C234.489 87.2688 235.13 87.6882 235.853 87.8705C235.945 87.8928 236.038 87.9102 236.132 87.9225C236.634 87.9939 237.144 87.863 237.55 87.5586L237.611 87.5018L238.084 87.0717L238.018 87.1237C237.62 87.414 237.125 87.5378 236.638 87.4688Z" fill="#470BC5"/>
<path d="M235.257 91.25C235.045 91.2135 234.843 91.1343 234.663 91.0173C234.482 90.9003 234.328 90.7479 234.208 90.5694L230.696 85.6207C230.345 85.1607 230.128 84.6128 230.067 84.0373C230.001 83.5317 230.117 83.0191 230.394 82.5909C230.468 82.4746 230.555 82.3668 230.654 82.2695L230.181 82.7422C229.954 82.9721 229.783 83.2511 229.682 83.5577C229.58 83.8642 229.55 84.1901 229.595 84.5099C229.654 85.0857 229.872 85.6338 230.223 86.0933L233.74 91.042C233.858 91.2214 234.011 91.3745 234.191 91.4916C234.371 91.6087 234.573 91.6874 234.785 91.7227C234.956 91.7455 235.131 91.7283 235.295 91.6726C235.459 91.6168 235.608 91.524 235.73 91.4013L236.203 90.9286C236.081 91.0522 235.932 91.1457 235.768 91.2015C235.604 91.2573 235.429 91.2739 235.257 91.25Z" fill="#470BC5"/>
<path d="M235.773 82.4964L235.555 82.4255L232.478 81.4566C232.312 81.4036 232.141 81.3672 231.968 81.3479C231.652 81.3008 231.33 81.3201 231.022 81.4046C230.571 81.5248 230.181 81.8077 229.926 82.1986C229.644 82.6143 229.525 83.1188 229.59 83.6166C229.656 84.189 229.878 84.7321 230.233 85.1858L233.839 90.092C233.964 90.2704 234.123 90.4221 234.308 90.5382C234.492 90.6542 234.698 90.7323 234.912 90.7679C235.087 90.7914 235.265 90.7756 235.432 90.7216C235.6 90.6676 235.753 90.5769 235.881 90.4559L235.976 90.3614L231.557 84.4059C231.42 84.2238 231.329 84.0114 231.292 83.7868C231.26 83.5872 231.3 83.3828 231.405 83.2101C231.498 83.0509 231.643 82.9289 231.816 82.8651C231.949 82.8226 232.09 82.8129 232.228 82.8367C232.295 82.8424 232.362 82.8551 232.426 82.8745L235.598 83.7159L235.843 83.7868C235.979 83.8042 236.109 83.8508 236.225 83.9234C236.341 83.996 236.44 84.0929 236.515 84.2074C236.687 84.4356 236.784 84.7112 236.794 84.9968C236.799 85.1185 236.776 85.2399 236.727 85.3515C236.678 85.463 236.604 85.5616 236.51 85.6396C236.432 85.699 236.343 85.7422 236.248 85.7666C236.153 85.7909 236.054 85.7959 235.957 85.7814L235.801 85.7483C235.522 85.6546 235.28 85.474 235.111 85.2331C235.018 85.1164 234.953 84.9798 234.921 84.8339C234.889 84.688 234.891 84.5367 234.927 84.3918C234.923 84.2602 234.934 84.1286 234.96 83.9995L233.504 83.6213L233.475 83.8766C233.382 84.2561 233.384 84.653 233.481 85.0316C233.578 85.4102 233.768 85.7588 234.033 86.0461C234.459 86.6576 235.084 87.1021 235.801 87.3033L236.085 87.36C236.335 87.4025 236.591 87.3899 236.836 87.3229C237.081 87.256 237.309 87.1364 237.503 86.9725C237.71 86.7775 237.872 86.5381 237.974 86.2721C238.076 86.0061 238.117 85.7204 238.093 85.4363C238.062 84.7775 237.829 84.144 237.427 83.6213C237.25 83.3243 237.01 83.0696 236.725 82.8752C236.439 82.6808 236.114 82.5515 235.773 82.4964Z" fill="#DAD4FF"/>
<path d="M240.13 84.8313L237.535 81.1871C237.282 80.8263 236.961 80.518 236.59 80.2796C236.278 80.085 235.929 79.9593 235.564 79.911H235.442C235.081 79.8829 234.723 79.9834 234.43 80.1946C234.144 80.4313 233.963 80.7707 233.924 81.1399L233.887 81.4896L233.844 81.8394L235.205 82.2506V82.0568L235.229 81.7212C235.231 81.5652 235.294 81.4162 235.404 81.3053C235.516 81.2144 235.656 81.1659 235.801 81.1682H235.891C236.052 81.1939 236.206 81.254 236.342 81.3446C236.479 81.4351 236.594 81.5539 236.68 81.6929L240.13 86.5234L240.196 86.462C240.575 86.1122 240.527 85.3985 240.13 84.8313Z" fill="#DAD4FF"/>
<path d="M322.945 47.293H322.973C323.279 47.6653 323.497 48.1014 323.613 48.5692C323.728 49.037 323.737 49.5247 323.639 49.9966V50.0344C323.492 50.9079 323.182 51.7462 322.727 52.5064C322.327 53.1879 321.851 53.8221 321.309 54.397C321.023 54.7081 320.72 55.0031 320.402 55.2809C320.132 55.5172 319.853 55.7535 319.574 55.952C318.934 56.4242 318.245 56.8267 317.518 57.1526C316.722 57.5211 315.868 57.7527 314.994 57.8379C314.467 57.9162 313.928 57.8716 313.421 57.7076C312.913 57.5436 312.451 57.2647 312.069 56.8926C312.071 56.8833 312.071 56.8736 312.069 56.8643L310.225 54.8035L311.525 53.6644C311.717 52.8975 312.028 52.1654 312.447 51.4949C312.859 50.8138 313.344 50.1798 313.893 49.6043C314.139 49.3537 314.394 49.1316 314.664 48.8669C314.933 48.6022 315.316 48.3281 315.661 48.0823C316.31 47.6186 317.007 47.2272 317.741 46.9148C318.411 46.6277 319.12 46.4367 319.844 46.3477L321.139 45.2038L322.945 47.293Z" fill="#370097"/>
<path d="M321.101 45.2416L322.992 47.3024C323.298 47.6756 323.516 48.1125 323.632 48.5811C323.747 49.0497 323.756 49.5382 323.658 50.0107L320.137 46.1066L321.101 45.2416Z" fill="#37058C"/>
<path d="M311.355 53.8251L314.999 57.8805C314.472 57.9587 313.933 57.9141 313.426 57.7501C312.918 57.5862 312.456 57.3073 312.074 56.9352L312.05 56.9068L310.207 54.846L311.355 53.8251Z" fill="#5F1DE0"/>
<path d="M312.404 51.5469L317.5 57.2188C316.703 57.5893 315.85 57.8226 314.976 57.9088L311.336 53.8534L311.483 53.7258C311.677 52.9597 311.988 52.228 312.404 51.5563V51.5469Z" fill="#4D15CD"/>
<path d="M313.851 49.6562L319.57 56.0182C318.924 56.4903 318.23 56.8927 317.499 57.2188L312.395 51.5469C312.809 50.8663 313.296 50.2325 313.846 49.6562H313.851Z" fill="#470BC5"/>
<path d="M315.609 48.1201L321.281 54.449C320.997 54.7515 320.695 55.0445 320.373 55.3329C320.052 55.6212 319.825 55.8055 319.541 55.9993L313.851 49.6562C314.096 49.4057 314.352 49.1836 314.621 48.9189C314.94 48.6404 315.273 48.3786 315.618 48.1343L315.609 48.1201Z" fill="#400CAE"/>
<path d="M317.707 46.9526L322.727 52.5347C322.327 53.2162 321.851 53.8505 321.309 54.4253L315.637 48.0965C316.287 47.6319 316.986 47.2404 317.722 46.929L317.707 46.9526Z" fill="#3D1097"/>
<path d="M320.099 46.1255L323.639 50.0627C323.49 50.9365 323.179 51.7748 322.722 52.5347L317.703 46.9527C318.373 46.6634 319.081 46.4708 319.806 46.3807L320.099 46.1255Z" fill="#380894"/>
<path d="M318.529 53.2795C321.53 50.6124 322.678 47.0046 321.093 45.2213C319.508 43.4379 315.79 44.1543 312.789 46.8214C309.788 49.4886 308.641 53.0964 310.226 54.8797C311.811 56.6631 315.528 55.9466 318.529 53.2795Z" fill="url(#paint18_linear_137_47092)"/>
<path d="M321.125 45.27C321.392 45.5518 321.594 45.8891 321.715 46.2579C321.835 46.6273 321.894 47.0135 321.89 47.4017C321.867 48.1796 321.692 48.9455 321.375 49.6563C321.071 50.3708 320.675 51.0428 320.198 51.6556C319.259 52.8967 318.079 53.9352 316.729 54.709C316.056 55.1125 315.335 55.4301 314.583 55.6543C313.831 55.8767 313.044 55.9568 312.262 55.8906C311.874 55.848 311.494 55.7444 311.137 55.5834C310.777 55.4229 310.455 55.1877 310.192 54.8933C310.325 55.0352 310.474 55.1605 310.636 55.2667C310.792 55.3773 310.96 55.4693 311.137 55.5408C311.493 55.6876 311.869 55.7769 312.253 55.8055C313.02 55.8538 313.79 55.7576 314.522 55.5219C315.257 55.2893 315.963 54.9721 316.625 54.5766C317.285 54.187 317.905 53.7343 318.478 53.2248C319.057 52.7233 319.586 52.1661 320.056 51.5611C320.524 50.958 320.921 50.3029 321.238 49.609C321.559 48.9178 321.745 48.1719 321.786 47.4111C321.804 47.0315 321.759 46.6514 321.654 46.2862C321.626 46.1964 321.593 46.1066 321.56 46.0168C321.523 45.928 321.482 45.8412 321.437 45.7568C321.345 45.5872 321.234 45.4286 321.106 45.2842L321.125 45.27Z" fill="#8A67FB"/>
<path d="M318.038 52.7096C316.817 53.833 315.32 54.6125 313.699 54.9689C311.965 55.2809 311.152 54.7089 310.821 54.3403C310.49 53.9716 310.008 53.0972 310.528 51.4382C311.116 49.8913 312.073 48.5117 313.316 47.4193C314.559 46.327 316.051 45.555 317.66 45.1707C319.4 44.8541 320.208 45.426 320.539 45.7994C320.87 46.1728 321.352 47.033 320.837 48.7015C320.278 50.2631 319.312 51.6469 318.038 52.7096Z" fill="url(#paint19_linear_137_47092)"/>
<path d="M313.718 54.9689C313.264 55.08 312.796 55.123 312.329 55.0965C311.846 55.0679 311.381 54.9041 310.986 54.6239C310.794 54.4739 310.634 54.2876 310.514 54.0756C310.387 53.8634 310.296 53.6319 310.244 53.3902C310.146 52.9226 310.146 52.4399 310.244 51.9723C310.431 51.0423 310.801 50.1587 311.331 49.3727C312.388 47.7984 313.836 46.5262 315.533 45.6812C316.371 45.2644 317.281 45.0095 318.213 44.9297C318.693 44.8973 319.174 44.9567 319.631 45.1046C319.866 45.1816 320.086 45.2966 320.284 45.4449C320.474 45.5964 320.634 45.7824 320.756 45.9932C320.988 46.4113 321.096 46.8866 321.068 47.3639C321.051 47.8236 320.964 48.278 320.808 48.7109C320.832 48.5975 320.86 48.4841 320.884 48.3659C320.907 48.2477 320.926 48.1437 320.941 48.0209C320.971 47.7937 320.982 47.5645 320.974 47.3355C320.967 46.8901 320.838 46.4551 320.6 46.0782C320.347 45.724 319.977 45.4697 319.556 45.3598C319.128 45.2444 318.682 45.2108 318.242 45.2605C317.344 45.3632 316.473 45.6342 315.675 46.0593C314.061 46.8931 312.677 48.1103 311.643 49.6043C311.125 50.3363 310.749 51.1586 310.533 52.029C310.433 52.4566 310.415 52.8993 310.481 53.3335C310.545 53.7624 310.758 54.1552 311.081 54.4443C311.434 54.7199 311.856 54.8946 312.3 54.95C312.53 54.9877 312.763 55.0019 312.995 54.9925H313.345L313.718 54.9689Z" fill="#400CAE"/>
<path d="M315.136 47.9783L315.179 47.95H315.221L315.288 47.9216C315.34 47.9007 315.396 47.8895 315.453 47.8885H315.571C315.653 47.897 315.729 47.9358 315.784 47.9972L315.585 47.7278C315.525 47.6662 315.448 47.6249 315.363 47.6096H315.25C315.193 47.6132 315.137 47.626 315.084 47.6475L315.023 47.6758H314.99L314.947 47.7089L314.914 47.742L312.65 50.006L312.853 50.2802L315.113 48.0114L315.136 47.9783Z" fill="#470BC5"/>
<path d="M317.079 49.3254H317.329H317.358C317.468 49.32 317.577 49.3445 317.674 49.3963C317.743 49.4335 317.803 49.4851 317.849 49.5475L317.651 49.2781C317.603 49.2155 317.544 49.1625 317.476 49.1221C317.378 49.0729 317.268 49.0517 317.159 49.0607H316.885H316.748L316.947 49.3301L317.079 49.3254Z" fill="#470BC5"/>
<path d="M315.325 51.3247H315.358H315.458H315.486L315.604 51.2916H315.637L315.732 51.2538H315.76L315.878 51.1971H315.902L315.963 51.1593H315.992L316.039 51.1309L316.11 51.0742L316.157 51.0364L316.233 50.9655L316.304 50.8899H316.327L316.365 50.8521L316.403 50.7953C316.423 50.7721 316.44 50.7467 316.455 50.7197C316.47 50.6993 316.483 50.6771 316.493 50.6535V50.6157V50.5543V50.4928C316.495 50.4885 316.497 50.4836 316.497 50.4787C316.497 50.4737 316.495 50.4688 316.493 50.4645V50.3085C316.498 50.2819 316.498 50.2547 316.493 50.2282C316.498 50.1968 316.498 50.165 316.493 50.1336V50.0107C316.498 49.9667 316.498 49.9224 316.493 49.8784V48.1579C316.498 48.125 316.498 48.0916 316.493 48.0587C316.488 48.0259 316.479 47.9939 316.464 47.9641C316.451 47.9333 316.435 47.9033 316.417 47.8743L316.389 47.8271L316.19 47.5576L316.219 47.6096C316.237 47.6363 316.253 47.6648 316.266 47.6947C316.266 47.7231 316.29 47.7562 316.294 47.7845C316.307 47.8164 316.315 47.8498 316.318 47.8838V49.609C316.323 49.6514 316.323 49.6942 316.318 49.7366V50.3416V50.3794V50.403L316.294 50.4503L316.252 50.5165C316.252 50.5401 316.219 50.5637 316.2 50.5874L316.157 50.6441L316.11 50.6914V50.715L316.039 50.7906L315.935 50.8804L315.893 50.9182L315.822 50.9702C315.804 50.9801 315.788 50.9929 315.774 51.008L315.68 51.06L315.562 51.1215H315.529L315.434 51.1593H315.406L315.283 51.1971H315.259H315.16H315.004C314.832 51.2119 314.66 51.1858 314.5 51.1208C314.341 51.0559 314.199 50.9541 314.087 50.8237L314.044 50.7717L314.243 51.0411L314.285 51.0978C314.399 51.2255 314.54 51.3252 314.698 51.3892C314.857 51.4532 315.028 51.4796 315.198 51.4665L315.325 51.3247Z" fill="#470BC5"/>
<path d="M318.974 49.9682V49.5428C318.976 49.5223 318.976 49.5018 318.974 49.4814V49.4435L318.946 49.3774V49.3443L318.903 49.245L318.7 48.9756C318.718 49.0062 318.733 49.0377 318.747 49.0701V49.1032C318.749 49.1268 318.749 49.1505 318.747 49.1741V49.8169V49.9209V49.954L318.724 50.0202V50.0533C318.725 50.0654 318.724 50.0777 318.72 50.0893C318.716 50.1008 318.709 50.1112 318.7 50.1194V50.1573L318.667 50.2187V50.2518L318.629 50.318V50.3463L318.568 50.4267L318.497 50.5165C318.469 50.5502 318.439 50.5818 318.407 50.611L316.044 52.9081L315.996 52.9459L315.973 52.9696L315.935 52.9979H315.892L315.826 53.0357H315.803L315.713 53.0688H315.632H315.519C315.393 53.0764 315.268 53.0522 315.154 52.9985C315.04 52.9449 314.941 52.8634 314.867 52.7616L315.065 53.031C315.14 53.1324 315.239 53.2139 315.352 53.2683C315.466 53.3226 315.592 53.3483 315.717 53.343H315.911L316.001 53.3051H316.025L316.091 53.2673H316.081L316.119 53.239L316.143 53.2153H316.167L318.53 50.923C318.562 50.8938 318.592 50.8622 318.62 50.8284L318.69 50.7434L318.742 50.6677V50.6394L318.78 50.5732V50.5401V50.4409L318.804 50.3747C318.809 50.3625 318.809 50.349 318.804 50.3369V50.2518C318.8 50.2154 318.808 50.1788 318.828 50.1478C318.828 50.1147 318.828 50.1478 318.828 50.1147V50.0769C318.879 50.0448 318.928 50.0084 318.974 49.9682Z" fill="#470BC5"/>
<path d="M312.607 50.0202L312.811 50.2896L312.778 50.2471L312.579 49.9777L312.607 50.0202Z" fill="#958778"/>
<path d="M318.535 48.8291L318.733 49.1032L318.795 49.1978L318.596 48.9284L318.535 48.8291Z" fill="#B8A795"/>
<path d="M318.596 48.9284L318.795 49.1978L318.823 49.245L318.625 48.9756L318.596 48.9284Z" fill="#BDAC99"/>
<path d="M314.782 52.8514L314.98 53.1208L314.928 53.0546L314.73 52.7852L314.782 52.8514Z" fill="#958778"/>
<path d="M316.082 50.6016C316.244 50.4725 316.368 50.3022 316.442 50.1085C316.516 49.9147 316.537 49.7047 316.502 49.5003C316.507 49.4563 316.507 49.4119 316.502 49.3679V47.7609C316.504 47.5516 316.424 47.3498 316.28 47.1984C316.136 47.0522 315.945 46.9617 315.741 46.9432H315.524C315.37 46.9536 315.218 46.9888 315.075 47.0472C314.852 47.1338 314.65 47.2677 314.484 47.4395L312.773 49.1316C312.648 49.2354 312.563 49.3792 312.532 49.5385C312.501 49.6978 312.526 49.863 312.603 50.006L312.636 50.0438L314.9 47.7845C314.972 47.7091 315.059 47.6495 315.155 47.6097C315.207 47.5914 315.261 47.5802 315.316 47.5766H315.429C315.514 47.5905 315.592 47.632 315.651 47.6947C315.703 47.7602 315.727 47.8434 315.718 47.9263L315.689 49.505V49.6563C315.701 49.7319 315.694 49.8092 315.67 49.8817C315.645 49.9542 315.603 50.0195 315.547 50.0722C315.43 50.1878 315.277 50.2595 315.113 50.2754C315.044 50.2805 314.975 50.2704 314.91 50.2459C314.846 50.2214 314.787 50.1831 314.739 50.1336C314.693 50.0834 314.659 50.023 314.64 49.9574C314.621 49.8918 314.618 49.8227 314.63 49.7555C314.649 49.6044 314.719 49.4643 314.829 49.3585C314.884 49.302 314.95 49.2584 315.024 49.2306C315.097 49.2028 315.176 49.1916 315.254 49.1978H315.458L315.481 48.4793H315.344C315.157 48.4745 314.971 48.5115 314.801 48.5875C314.63 48.6636 314.478 48.7768 314.356 48.9189C314.106 49.1635 313.941 49.4814 313.884 49.8264C313.855 49.9858 313.862 50.1493 313.903 50.306C313.944 50.4626 314.018 50.6085 314.12 50.7339C314.233 50.8637 314.374 50.9649 314.534 51.029C314.693 51.0931 314.866 51.1183 315.037 51.1026C315.435 51.0699 315.807 50.8915 316.082 50.6016Z" fill="#DAD4FF"/>
<path d="M318.624 48.9756C318.488 48.7278 318.278 48.5281 318.024 48.4037C317.784 48.286 317.516 48.2338 317.249 48.2525H317.188H316.947H316.71L316.748 49.0182H316.885H317.173C317.283 49.0141 317.392 49.0368 317.49 49.0843C317.588 49.1399 317.667 49.2239 317.717 49.3254C317.769 49.4353 317.783 49.5591 317.757 49.6779C317.732 49.7966 317.668 49.9036 317.575 49.9824L314.739 52.7569L314.791 52.823C314.866 52.9239 314.965 53.0046 315.079 53.0582C315.193 53.1118 315.318 53.1366 315.444 53.1303C315.645 53.1157 315.835 53.0323 315.982 52.8939L318.322 50.5968C318.552 50.3807 318.709 50.0982 318.771 49.7886C318.812 49.5089 318.76 49.2236 318.624 48.9756Z" fill="#DAD4FF"/>
<path d="M295.412 85.4741H295.441C296.185 85.2081 296.795 84.662 297.142 83.9522C297.421 83.3905 297.582 82.7776 297.615 82.1514C297.652 81.6132 297.615 81.0726 297.506 80.5443C297.408 80.0342 297.249 79.5376 297.033 79.0649C296.802 78.5793 296.51 78.125 296.164 77.7131C295.772 77.229 295.29 76.8247 294.746 76.522C294.376 76.3156 293.969 76.1866 293.548 76.1427C293.127 76.0988 292.702 76.141 292.297 76.2668H292.269L290.487 76.8671L290.445 78.1007C290.232 78.6192 290.114 79.1714 290.095 79.7314C290.075 80.2664 290.124 80.8018 290.241 81.3242C290.294 81.5559 290.358 81.7847 290.435 82.0096C290.528 82.2766 290.638 82.5372 290.766 82.7894C291.006 83.2759 291.312 83.7275 291.674 84.1318C292.016 84.5151 292.416 84.8421 292.86 85.1007L293.654 86.0461L295.412 85.4741Z" fill="#5F1DE0"/>
<path d="M290.558 78.0156L294.812 76.5268C294.454 76.319 294.057 76.1886 293.646 76.1438C293.235 76.099 292.819 76.1409 292.425 76.2668H292.397L290.657 76.8765L290.558 78.0156Z" fill="#37058C"/>
<path d="M295.258 85.5167H295.286C296.011 85.3011 296.625 84.8155 297.002 84.1602L292.748 85.4221L293.462 86.0508L295.258 85.5167Z" fill="#5F1DE0"/>
<path d="M290.085 79.9062L296.23 77.7888C295.839 77.3038 295.357 76.8993 294.812 76.5977L290.412 78.1007L290.454 78.2283C290.235 78.762 290.11 79.3298 290.085 79.9062Z" fill="#380894"/>
<path d="M290.232 81.3242L297.175 78.9609C296.946 78.4508 296.648 77.9739 296.292 77.543L290.086 79.6746C290.063 80.227 290.112 80.7798 290.232 81.3195V81.3242Z" fill="#3D1097"/>
<path d="M291.064 82.7422L297.648 80.4404C297.55 79.9301 297.391 79.4335 297.175 78.9609L290.558 81.2722C290.609 81.5039 290.672 81.7327 290.747 81.9576C290.838 82.2248 290.944 82.4868 291.064 82.7422Z" fill="#400CAE"/>
<path d="M291.9 84.1602L297.648 82.0521C297.684 81.4922 297.649 80.93 297.544 80.3789L291.031 82.7658C291.26 83.266 291.552 83.7347 291.9 84.1602Z" fill="#470BC5"/>
<path d="M292.813 85.1055L297.142 83.6402C297.435 83.0666 297.607 82.4394 297.648 81.7969L291.503 83.8718C291.854 84.2656 292.266 84.6007 292.723 84.8644L292.813 85.1055Z" fill="#4D15CD"/>
<path d="M293.738 85.9398C295.747 85.2545 296.677 82.652 295.815 80.1271C294.953 77.6022 292.627 76.111 290.618 76.7963C288.61 77.4816 287.68 80.084 288.541 82.6089C289.403 85.1339 291.73 86.6251 293.738 85.9398Z" fill="url(#paint20_linear_137_47092)"/>
<path d="M293.739 86.0508C294.01 85.9531 294.266 85.8178 294.5 85.649C294.735 85.4831 294.948 85.2877 295.133 85.0677C295.502 84.6234 295.772 84.1064 295.927 83.5504C296.084 82.9991 296.149 82.426 296.121 81.8536C296.064 80.7014 295.682 79.5888 295.02 78.6443C294.691 78.178 294.286 77.7692 293.824 77.4343C293.364 77.0853 292.833 76.8402 292.269 76.7158C291.987 76.6516 291.698 76.6245 291.409 76.6355C291.12 76.6489 290.835 76.6981 290.558 76.782C291.11 76.5883 291.704 76.5459 292.279 76.6591C292.855 76.7762 293.399 77.0147 293.876 77.3586C294.348 77.6977 294.759 78.1149 295.091 78.5923C295.772 79.5526 296.166 80.6872 296.225 81.8631C296.252 82.4475 296.18 83.0323 296.013 83.593C295.842 84.1499 295.557 84.6651 295.176 85.1055C294.791 85.5445 294.295 85.8712 293.739 86.0508Z" fill="#8A67FB"/>
<path d="M295.45 80.2513C295.064 79.1374 294.3 78.194 293.29 77.5855C292.918 77.3394 292.498 77.1768 292.057 77.1091C291.616 77.0414 291.166 77.0701 290.738 77.1932C290.325 77.3454 289.951 77.5871 289.643 77.9009C289.335 78.2147 289.1 78.5929 288.956 79.0082C288.573 80.1126 288.579 81.3144 288.972 82.4151C289.365 83.5159 290.121 84.4499 291.116 85.0629C291.487 85.3097 291.908 85.4723 292.349 85.5392C292.79 85.6062 293.24 85.5759 293.668 85.4505C294.08 85.2999 294.454 85.0599 294.762 84.7477C295.07 84.4355 295.305 84.0589 295.45 83.645C295.861 82.5511 295.861 81.3451 295.45 80.2513Z" fill="url(#paint21_linear_137_47092)"/>
<path d="M293.229 77.6469C292.918 77.4768 292.586 77.3496 292.241 77.2688C291.899 77.1933 291.546 77.1837 291.201 77.2405C291.029 77.2707 290.861 77.3198 290.7 77.387C290.543 77.4547 290.394 77.5386 290.256 77.6375C289.977 77.8372 289.738 78.0873 289.551 78.3748C289.366 78.6694 289.222 78.9873 289.121 79.3201C289.022 79.6461 288.96 79.9823 288.937 80.3222C288.912 80.6628 288.924 81.0053 288.975 81.3431C289.027 81.6893 289.112 82.0296 289.23 82.3593C289.343 82.6866 289.485 83.003 289.655 83.3046C289.829 83.5914 290.028 83.862 290.251 84.1129C290.481 84.3679 290.74 84.5962 291.021 84.7935C291.305 84.9908 291.613 85.1497 291.938 85.2662C292.262 85.3833 292.605 85.4379 292.95 85.4269C293.12 85.4222 293.29 85.3984 293.455 85.356C293.619 85.3105 293.778 85.2471 293.928 85.1669C294.237 85.0052 294.51 84.7834 294.732 84.5146C294.953 84.2431 295.136 83.9426 295.275 83.6213C295.166 83.9582 295.006 84.2768 294.803 84.5666C294.59 84.8596 294.32 85.1058 294.008 85.2898C293.848 85.381 293.679 85.4555 293.503 85.5119C293.327 85.5641 293.147 85.5973 292.964 85.6112C292.595 85.6345 292.224 85.588 291.872 85.4741C291.177 85.2393 290.554 84.8309 290.062 84.2878C289.576 83.7507 289.203 83.1209 288.967 82.4361C288.73 81.7514 288.635 81.0259 288.686 80.3033C288.739 79.5765 288.98 78.876 289.386 78.2708C289.594 77.9679 289.859 77.708 290.166 77.5051C290.313 77.4035 290.472 77.3194 290.638 77.2546C290.811 77.1927 290.99 77.1499 291.173 77.127C291.534 77.0859 291.9 77.1164 292.25 77.2168C292.595 77.3123 292.925 77.4572 293.229 77.6469Z" fill="#400CAE"/>
<path d="M290.237 81.3998V81.225C290.227 81.1797 290.227 81.1331 290.237 81.0879C290.245 81.0554 290.256 81.0238 290.27 80.9934C290.296 80.9266 290.347 80.8724 290.411 80.8421L290.147 80.9366C290.083 80.9681 290.032 81.0219 290.005 81.0879C289.991 81.1183 289.98 81.15 289.972 81.1824C289.962 81.2276 289.962 81.2743 289.972 81.3195V81.5038C289.969 81.5163 289.969 81.5292 289.972 81.5416L291.319 83.9049L291.584 83.8009L290.246 81.4377C290.241 81.4257 290.238 81.4129 290.237 81.3998Z" fill="#470BC5"/>
<path d="M291.801 82.1277H291.697L291.645 82.0852C291.627 82.0719 291.611 82.056 291.598 82.0379L291.555 81.9859L291.527 81.9434C291.524 81.9256 291.516 81.9092 291.503 81.8961V81.8536V81.6362C291.503 81.6362 291.503 81.5511 291.537 81.4991C291.57 81.4471 291.537 81.466 291.537 81.4566L290.941 81.2769L290.676 81.3762L291.267 81.5558V81.5984L291.239 81.7354V82.0001V82.0332L291.262 82.0757L291.305 82.1325L291.352 82.175L291.404 82.2175H291.503L291.579 82.2412H291.844L292.113 82.1419H291.886L291.801 82.1277Z" fill="#470BC5"/>
<path d="M293.021 81.9954V81.6125C293.03 81.5769 293.03 81.5395 293.021 81.5038V81.4424V81.414V81.3667L292.992 81.3006V81.2533V81.2297L292.95 81.1541L292.907 81.0784V81.0548L292.879 81.017L292.846 80.9697V80.9461L292.794 80.8894L292.751 80.8421L292.723 80.8185H292.695H292.662H292.628H292.591H292.524L292.458 80.7948H292.378H292.298L292.189 80.7665L290.813 80.2938H290.719H290.412L290.147 80.3884H290.194H290.275H290.473H290.563L291.882 80.7523L291.99 80.7854H292.071H292.151L292.217 80.809H292.283H292.321H292.354H292.383H292.406L292.435 80.8374L292.477 80.8846L292.529 80.9461L292.562 80.9934L292.595 81.0359C292.594 81.0437 292.594 81.0517 292.595 81.0595L292.638 81.1352C292.658 81.1667 292.675 81.1999 292.69 81.2344C292.697 81.2506 292.705 81.2664 292.713 81.2817V81.4377V81.4896L292.742 81.5747C292.733 81.6104 292.733 81.6477 292.742 81.6834C292.765 81.7212 292.742 81.6834 292.742 81.7118V82.0663V82.1655C292.712 82.3072 292.65 82.4401 292.561 82.554C292.471 82.6679 292.357 82.7598 292.227 82.8225H292.175L292.439 82.7233L292.496 82.6996C292.627 82.6381 292.741 82.5466 292.83 82.4324C292.919 82.3182 292.979 82.1847 293.007 82.0426C293.012 82.0272 293.017 82.0114 293.021 81.9954Z" fill="#470BC5"/>
<path d="M292.728 78.7388H292.104L291.834 78.838H291.929H292.401H292.449H292.491H292.543L292.624 78.8806H292.647L292.704 78.9137H292.728L292.775 78.9468H292.798L292.841 78.9893H292.869L292.912 79.0366L292.969 79.1027L293.021 79.1831C293.044 79.2127 293.064 79.2444 293.082 79.2776L294.434 81.6976V81.7402V81.7685V81.8016V81.8441V81.9056V82.1041C294.439 82.1307 294.439 82.1579 294.434 82.1845C294.413 82.2906 294.366 82.3897 294.297 82.4724C294.227 82.5552 294.138 82.6187 294.037 82.6571L294.301 82.5626C294.402 82.5238 294.492 82.4601 294.561 82.3775C294.63 82.2948 294.678 82.1959 294.699 82.0899V81.8158V81.7496V81.7118V81.6456L293.394 79.3201L293.337 79.2256L293.281 79.15C293.264 79.1304 293.248 79.1099 293.233 79.0886L293.186 79.0413L293.162 79.0177H293.139L293.091 78.9798H293.063L293.021 78.9562H292.997L292.917 78.9137H292.86L292.728 78.7388Z" fill="#470BC5"/>
<path d="M291.343 83.8907L291.607 83.7915H291.57L291.305 83.8907H291.343Z" fill="#958778"/>
<path d="M291.697 78.8381L291.962 78.7388L292.056 78.7104L291.792 78.8097L291.697 78.8381Z" fill="#B8A795"/>
<path d="M291.801 78.8097L292.066 78.7104H292.113L291.844 78.8097H291.801Z" fill="#BDAC99"/>
<path d="M294.146 82.7753L294.41 82.6807H294.349L294.079 82.78L294.146 82.7753Z" fill="#958778"/>
<path d="M292.572 81.2344C292.503 81.072 292.392 80.9312 292.249 80.8272C292.107 80.7231 291.939 80.6597 291.763 80.6436L291.655 80.6152L290.341 80.2607C290.171 80.2099 289.988 80.2268 289.83 80.308C289.681 80.3961 289.565 80.5306 289.499 80.6909C289.474 80.7425 289.453 80.7962 289.438 80.8516C289.414 80.9781 289.414 81.1079 289.438 81.2344C289.456 81.4356 289.521 81.6297 289.627 81.8016L290.629 83.5693C290.686 83.6954 290.785 83.7976 290.909 83.858C291.034 83.9185 291.175 83.9334 291.31 83.9002H291.347L290.005 81.5606C289.959 81.4877 289.93 81.4053 289.92 81.3195C289.915 81.2724 289.915 81.2248 289.92 81.1777C289.928 81.1453 289.939 81.1136 289.953 81.0832C289.981 81.0187 290.031 80.9666 290.095 80.9366C290.128 80.9226 290.163 80.9154 290.199 80.9154C290.235 80.9154 290.27 80.9226 290.303 80.9366L291.584 81.3148L291.702 81.3479C291.764 81.3572 291.823 81.3813 291.874 81.4184C291.925 81.4554 291.967 81.5042 291.995 81.5606C292.065 81.6786 292.09 81.8178 292.066 81.9529C292.055 82.01 292.032 82.0639 291.998 82.1106C291.963 82.1572 291.918 82.1952 291.866 82.2218C291.815 82.2483 291.758 82.2625 291.7 82.2634C291.642 82.2643 291.584 82.2519 291.532 82.227C291.406 82.1805 291.301 82.092 291.234 81.9765C291.201 81.9198 291.181 81.8565 291.175 81.7911C291.169 81.7258 291.178 81.6599 291.201 81.5984L291.229 81.4566V81.4188L290.638 81.2344V81.3526C290.594 81.5011 290.584 81.6577 290.608 81.8107C290.633 81.9638 290.692 82.1093 290.78 82.2364C290.923 82.4979 291.147 82.7054 291.418 82.8273C291.542 82.8841 291.677 82.9136 291.813 82.9136C291.949 82.9136 292.084 82.8841 292.208 82.8273C292.34 82.7667 292.455 82.6754 292.545 82.5612C292.634 82.4469 292.695 82.3129 292.723 82.1703C292.785 81.8503 292.732 81.5185 292.572 81.2344Z" fill="#DAD4FF"/>
<path d="M291.834 78.7813C291.607 78.8425 291.402 78.9671 291.243 79.1406C291.098 79.3099 290.997 79.5131 290.95 79.7314V79.7834L290.912 79.9819L290.879 80.1804L291.522 80.3222V80.2088L291.56 80.0055V79.9819C291.578 79.8907 291.622 79.8069 291.688 79.7408C291.756 79.6721 291.843 79.6259 291.938 79.6085C292.038 79.594 292.14 79.6087 292.231 79.651C292.327 79.6984 292.403 79.7767 292.449 79.8732L294.093 82.7895H294.155C294.25 82.7528 294.335 82.6937 294.403 82.6172C294.47 82.5407 294.518 82.449 294.542 82.3499C294.575 82.1889 294.55 82.0214 294.472 81.8772L293.115 79.4667C292.989 79.2311 292.792 79.041 292.553 78.9231C292.335 78.7981 292.083 78.7482 291.834 78.7813Z" fill="#DAD4FF"/>
<g opacity="0.65">
<path d="M253.058 14.8167C252.641 14.6611 252.302 14.349 252.112 13.9471C251.95 13.623 251.857 13.269 251.838 12.9072C251.816 12.6002 251.837 12.2916 251.9 11.9903C251.93 11.8302 251.971 11.6723 252.023 11.5176C252.07 11.3853 252.117 11.2576 252.174 11.1348C252.297 10.8582 252.456 10.5992 252.647 10.3643C252.869 10.094 253.142 9.86925 253.45 9.70261C253.656 9.58379 253.885 9.50939 254.122 9.48416C254.359 9.45893 254.599 9.48343 254.825 9.55608L255.842 9.89167L255.865 10.6007C255.986 10.9016 256.052 11.2218 256.059 11.546C256.073 11.8523 256.046 12.159 255.979 12.4582C255.95 12.5909 255.913 12.7218 255.87 12.8505C255.818 13.0037 255.756 13.1536 255.686 13.2995C255.552 13.5756 255.38 13.8317 255.175 14.0605C254.985 14.2812 254.76 14.4695 254.509 14.6182L254.055 15.1523L253.058 14.8167Z" fill="#370097"/>
<path d="M256.054 10.4258L253.691 9.67897C254.103 9.46996 254.579 9.42438 255.024 9.55136L255.993 9.85858L256.054 10.4258Z" fill="#37058C"/>
<path d="M253.242 14.7411C253.022 14.6461 252.822 14.5081 252.656 14.3353C252.49 14.1624 252.359 13.9581 252.273 13.7344L254.636 14.6797L254.239 15.1523L253.242 14.7411Z" fill="#5F1DE0"/>
<path d="M256.054 11.3711L252.746 10.1658C252.958 9.88863 253.223 9.6558 253.525 9.48047L255.889 10.3407V10.4163C256.005 10.7185 256.069 11.0381 256.078 11.3616L256.054 11.3711Z" fill="#380894"/>
<path d="M255.979 12.3164L252.273 11.1206C252.396 10.8674 252.555 10.6334 252.746 10.4258L256.054 11.4893C256.067 11.7671 256.042 12.0455 255.979 12.3164Z" fill="#3D1097"/>
<path d="M255.78 12.7891L252.273 11.6405C252.301 11.5009 252.339 11.3634 252.386 11.2293C252.429 11.1159 252.476 11.0071 252.528 10.8984L256.054 12.0517C256.026 12.1699 255.993 12.2833 255.955 12.3968C255.917 12.5102 255.846 12.6614 255.785 12.7891H255.78Z" fill="#400CAE"/>
<path d="M255.109 13.7344L251.8 12.6804C251.778 12.4 251.799 12.1179 251.862 11.8438L255.582 13.0348C255.456 13.2883 255.297 13.5236 255.109 13.7344Z" fill="#470BC5"/>
<path d="M254.405 14.6797L252.074 13.8478C251.913 13.5168 251.82 13.1568 251.8 12.7891L255.109 13.9707C254.922 14.1928 254.7 14.3828 254.452 14.5332L254.405 14.6797Z" fill="#4D15CD"/>
<path d="M257.069 12.9752C257.554 11.5546 257.043 10.0948 255.929 9.71467C254.815 9.33449 253.519 10.1779 253.034 11.5985C252.549 13.019 253.06 14.4788 254.174 14.859C255.288 15.2392 256.584 14.3958 257.069 12.9752Z" fill="url(#paint22_linear_137_47092)"/>
<path d="M254.192 14.6797C253.871 14.5811 253.581 14.4002 253.351 14.155C253.137 13.9139 252.976 13.6305 252.878 13.3232C252.782 13.0177 252.74 12.6977 252.755 12.3778C252.768 12.0552 252.831 11.7365 252.939 11.4325C253.055 11.1263 253.214 10.8382 253.412 10.577C253.613 10.3129 253.856 10.083 254.13 9.8964C254.416 9.70578 254.738 9.5755 255.076 9.51354C255.41 9.45173 255.755 9.47612 256.078 9.58444C255.753 9.48437 255.407 9.47133 255.076 9.54663C254.747 9.61696 254.436 9.75543 254.164 9.95311C253.897 10.1394 253.661 10.3658 253.464 10.6243C253.082 11.1384 252.857 11.7525 252.817 12.392C252.8 12.7116 252.84 13.0316 252.935 13.3373C253.028 13.6438 253.189 13.9251 253.407 14.1598C253.517 14.2816 253.64 14.3895 253.776 14.4812C253.907 14.5624 254.046 14.629 254.192 14.6797Z" fill="#8A67FB"/>
<path d="M253.384 11.7303C253.582 11.1155 253.99 10.5901 254.537 10.2462C254.729 10.1031 254.954 10.0089 255.19 9.97172C255.427 9.93452 255.67 9.95542 255.896 10.0326C256.123 10.1098 256.328 10.241 256.493 10.4149C256.658 10.5887 256.778 10.8001 256.844 11.0308C257.051 11.6388 257.051 12.2987 256.842 12.9063C256.633 13.514 256.228 14.0348 255.69 14.3866C255.498 14.5297 255.274 14.6239 255.037 14.6611C254.8 14.6983 254.558 14.6774 254.331 14.6002C254.104 14.523 253.899 14.3918 253.734 14.2179C253.569 14.0441 253.449 13.8327 253.384 13.602C253.162 12.9979 253.162 12.3345 253.384 11.7303Z" fill="url(#paint23_linear_137_47092)"/>
<path d="M254.395 10.2651C254.565 10.1551 254.749 10.0707 254.943 10.0146C255.15 9.95144 255.367 9.93054 255.582 9.95312C255.684 9.96669 255.786 9.99044 255.884 10.024C255.982 10.0591 256.075 10.1051 256.163 10.1611C256.336 10.274 256.487 10.4182 256.607 10.5865C256.841 10.9215 256.98 11.3135 257.009 11.7209C257.041 12.1217 256.986 12.5248 256.848 12.9025C256.715 13.286 256.502 13.6371 256.224 13.9329C255.942 14.2373 255.585 14.4636 255.189 14.5899C254.988 14.655 254.776 14.6806 254.565 14.6655C254.356 14.6554 254.152 14.5955 253.97 14.4906C253.787 14.39 253.626 14.2533 253.497 14.0889C253.377 13.9298 253.283 13.7527 253.218 13.5642C253.299 13.7444 253.404 13.9129 253.53 14.0652C253.663 14.2144 253.824 14.3364 254.003 14.4244C254.091 14.4681 254.182 14.5029 254.277 14.5284C254.373 14.5529 254.471 14.5656 254.57 14.5662C254.766 14.5719 254.962 14.5414 255.147 14.4764C255.331 14.4138 255.506 14.3264 255.667 14.2165C255.827 14.1074 255.974 13.9805 256.106 13.8384C256.238 13.6939 256.354 13.5354 256.451 13.3657C256.548 13.2012 256.627 13.0269 256.688 12.8458C256.754 12.6668 256.801 12.4815 256.829 12.2928C256.848 12.1042 256.848 11.9142 256.829 11.7256C256.816 11.5363 256.781 11.3492 256.725 11.1678C256.669 10.9867 256.59 10.8136 256.489 10.6527C256.381 10.4922 256.245 10.3528 256.087 10.2414C256.006 10.1884 255.921 10.1425 255.832 10.1044C255.741 10.0678 255.646 10.0409 255.548 10.024C255.353 9.98857 255.153 9.98857 254.958 10.024C254.759 10.0767 254.57 10.1579 254.395 10.2651Z" fill="#400CAE"/>
<path d="M255.582 14.0463L255.549 13.9187V13.8951L255.582 14.0227V14.0463Z" fill="#958778"/>
<path d="M256.007 12.2833C256.034 12.2391 256.051 12.1888 256.054 12.1368C256.059 12.0975 256.059 12.0579 256.054 12.0186V11.995C256.04 11.956 256.011 11.924 255.974 11.9052L255.813 11.8438C255.85 11.8625 255.879 11.8946 255.893 11.9336C255.898 11.9728 255.898 12.0125 255.893 12.0517C255.889 12.1028 255.874 12.1526 255.851 12.1982L255.109 13.6682L255.27 13.7344L256.007 12.2833Z" fill="#470BC5"/>
<path d="M255.771 11.8437L255.714 11.4987L255.79 11.4703L255.86 11.4467C255.923 11.4231 255.992 11.4231 256.054 11.4467L255.922 11.39C255.859 11.3664 255.791 11.3664 255.728 11.39L255.657 11.4136L255.582 11.442L255.638 11.787L255.771 11.8437Z" fill="#470BC5"/>
<path d="M254.825 12.9734C254.823 12.9498 254.823 12.9261 254.825 12.9025C254.791 12.7138 254.821 12.5191 254.91 12.3495C254.943 12.2565 254.998 12.1734 255.072 12.108C255.146 12.0426 255.235 11.9972 255.331 11.9761L255.411 12.4204V12.4866C255.437 12.5502 255.437 12.6214 255.411 12.6851C255.381 12.7503 255.329 12.8035 255.265 12.8363C255.24 12.848 255.214 12.8541 255.187 12.8541C255.16 12.8541 255.133 12.848 255.109 12.8363L255.26 12.8978C255.284 12.9095 255.311 12.9156 255.338 12.9156C255.365 12.9156 255.392 12.9095 255.416 12.8978C255.479 12.8647 255.529 12.8114 255.558 12.7465C255.573 12.7148 255.581 12.6801 255.581 12.6449C255.581 12.6097 255.573 12.575 255.558 12.5433C255.559 12.5212 255.559 12.4991 255.558 12.4771L255.407 11.6358V11.5838C255.403 11.5429 255.388 11.5038 255.364 11.4703C255.345 11.4479 255.32 11.4302 255.293 11.4183L255.142 11.3569C255.169 11.3671 255.193 11.3832 255.213 11.4042C255.233 11.4331 255.249 11.465 255.26 11.4987C255.265 11.5157 255.265 11.5337 255.26 11.5507L255.326 11.9241L255.213 11.8768H255.151C255.057 11.897 254.969 11.941 254.896 12.0047C254.823 12.0684 254.768 12.1497 254.735 12.2408C254.633 12.4212 254.597 12.6323 254.636 12.8363C254.634 12.8599 254.634 12.8836 254.636 12.9072C254.655 12.9709 254.687 13.0299 254.73 13.0804C254.773 13.1309 254.827 13.1718 254.887 13.2003L255.109 13.2617C255.043 13.2376 254.984 13.1993 254.935 13.1494C254.886 13.0996 254.848 13.0394 254.825 12.9734Z" fill="#470BC5"/>
<path d="M253.89 13.0727C253.871 13.0189 253.865 12.9617 253.871 12.9053C253.878 12.8488 253.897 12.7945 253.927 12.7465L254.736 11.3711C254.811 11.2378 254.923 11.1281 255.057 11.0544C255.181 10.9827 255.327 10.9559 255.468 10.9788C255.507 10.982 255.545 10.9899 255.582 11.0024L255.407 10.941C255.369 10.9265 255.329 10.9169 255.289 10.9126C255.148 10.8931 255.005 10.9214 254.882 10.993C254.746 11.0641 254.634 11.1744 254.561 11.3096L253.748 12.6945C253.717 12.7417 253.698 12.7952 253.692 12.8509C253.685 12.9066 253.691 12.963 253.71 13.0159C253.728 13.0612 253.755 13.102 253.79 13.1355C253.825 13.169 253.867 13.1943 253.913 13.2097L254.088 13.2712C254.042 13.255 254.001 13.2287 253.966 13.1944C253.932 13.16 253.906 13.1184 253.89 13.0727Z" fill="#470BC5"/>
<path d="M255.581 12.3164V12.2597L255.463 11.4136C255.455 11.369 255.443 11.3248 255.43 11.2813C255.411 11.2016 255.373 11.1274 255.322 11.0639C255.254 10.972 255.155 10.9094 255.043 10.889C254.923 10.8713 254.801 10.9 254.702 10.9693C254.585 11.0515 254.491 11.1643 254.433 11.2955L253.762 12.7134C253.71 12.8159 253.7 12.9345 253.733 13.0443C253.745 13.0875 253.765 13.1278 253.794 13.1621C253.822 13.1964 253.858 13.224 253.899 13.2428H253.927L254.735 11.5223C254.761 11.4704 254.798 11.4251 254.844 11.39C254.883 11.3605 254.932 11.347 254.981 11.3522C255.028 11.3588 255.071 11.3804 255.104 11.4136C255.126 11.4415 255.142 11.4737 255.151 11.5081V11.5601L255.298 12.4109C255.295 12.4329 255.295 12.4551 255.298 12.4771C255.324 12.5439 255.324 12.6182 255.298 12.6851C255.268 12.7504 255.218 12.8049 255.156 12.841C255.131 12.8551 255.102 12.8625 255.073 12.8625C255.044 12.8625 255.016 12.8551 254.991 12.841C254.948 12.8131 254.916 12.7714 254.901 12.7229V12.6945C254.89 12.6137 254.903 12.5315 254.939 12.4582C254.952 12.4238 254.974 12.3933 255.002 12.3693C255.03 12.3454 255.063 12.3288 255.099 12.3211L255.189 12.2833L255.109 11.9005L255.052 11.9241C254.954 11.9468 254.864 11.9951 254.791 12.064C254.718 12.1329 254.665 12.22 254.636 12.3164C254.55 12.4906 254.522 12.6876 254.556 12.8789V12.9497C254.572 13.0118 254.602 13.0697 254.641 13.1201C254.681 13.1705 254.731 13.2122 254.787 13.2428C254.849 13.2707 254.917 13.2831 254.984 13.279C255.052 13.2749 255.117 13.2543 255.175 13.2192C255.315 13.1361 255.427 13.0126 255.496 12.8647C255.549 12.7845 255.583 12.6942 255.598 12.5997C255.612 12.5051 255.607 12.4086 255.581 12.3164Z" fill="#DAD4FF"/>
<path d="M255.936 13.5122L256.432 12.3684C256.482 12.2526 256.512 12.1298 256.522 12.0044C256.532 11.8965 256.522 11.7877 256.494 11.683V11.6499C256.465 11.5559 256.407 11.4732 256.328 11.4136C256.291 11.3903 256.249 11.3761 256.206 11.3719C256.162 11.3678 256.119 11.374 256.078 11.39L255.997 11.4231L255.917 11.4562L255.979 11.8721H256.016L256.092 11.839C256.108 11.8299 256.126 11.8251 256.144 11.8251C256.162 11.8251 256.18 11.8299 256.196 11.839C256.23 11.8585 256.256 11.8908 256.267 11.9288V11.9524C256.271 11.9933 256.271 12.0345 256.267 12.0753C256.263 12.1296 256.248 12.1825 256.224 12.2313L255.582 13.7344C255.658 13.7501 255.737 13.7358 255.803 13.6944C255.869 13.6531 255.917 13.5878 255.936 13.5122Z" fill="#DAD4FF"/>
</g>
<g opacity="0.667528">
<path d="M17.736 36H23.056V24.8L28.04 32.416H28.152L33.164 24.744V36H38.568V16.4H32.828L28.152 23.988L23.476 16.4H17.736V36Z" fill="url(#paint24_linear_137_47092)"/>
<path d="M42.0446 36H49.4926C56.5486 36 60.6646 31.8 60.6646 26.144V26.088C60.6646 20.432 56.6046 16.4 49.6046 16.4H42.0446V36ZM47.4766 31.184V21.216H49.6886C52.9366 21.216 55.0926 23.036 55.0926 26.172V26.228C55.0926 29.392 52.9366 31.184 49.6886 31.184H47.4766Z" fill="url(#paint25_linear_137_47092)"/>
<path d="M63.4547 36H79.3587V31.38H68.8307V28.272H78.2387V23.988H68.8307V21.02H79.2187V16.4H63.4547V36Z" fill="url(#paint26_linear_137_47092)"/>
<path d="M80.7025 36H86.8065L90.5865 30.092L94.3385 36H100.582L93.8625 25.976L100.302 16.4H94.1985L90.6985 21.916L87.2265 16.4H80.9825L87.4225 26.032L80.7025 36Z" fill="url(#paint27_linear_137_47092)"/>
<path d="M102.106 36H107.65V30.54H102.106V36Z" fill="url(#paint28_linear_137_47092)"/>
<path d="M119.184 36.392C123.524 36.392 126.016 34.516 127.864 31.968L123.776 29.056C122.6 30.484 121.396 31.436 119.352 31.436C116.608 31.436 114.676 29.14 114.676 26.2V26.144C114.676 23.288 116.608 20.964 119.352 20.964C121.228 20.964 122.516 21.86 123.636 23.26L127.724 20.096C125.988 17.688 123.412 16.008 119.408 16.008C113.472 16.008 109.076 20.488 109.076 26.2V26.256C109.076 32.108 113.584 36.392 119.184 36.392Z" fill="url(#paint29_linear_137_47092)"/>
<path d="M139.51 36.392C145.558 36.392 150.094 31.828 150.094 26.2V26.144C150.094 20.516 145.614 16.008 139.566 16.008C133.518 16.008 128.982 20.572 128.982 26.2V26.256C128.982 31.884 133.462 36.392 139.51 36.392ZM139.566 31.492C136.598 31.492 134.554 29.028 134.554 26.2V26.144C134.554 23.316 136.542 20.908 139.51 20.908C142.506 20.908 144.55 23.372 144.55 26.2V26.256C144.55 29.084 142.562 31.492 139.566 31.492Z" fill="url(#paint30_linear_137_47092)"/>
<path d="M152.923 36H158.243V24.8L163.227 32.416H163.339L168.351 24.744V36H173.755V16.4H168.015L163.339 23.988L158.663 16.4H152.923V36Z" fill="url(#paint31_linear_137_47092)"/>
</g>
</g>
<path d="M64.488 49H69.048V39.4L73.32 45.928H73.416L77.712 39.352V49H82.344V32.2H77.424L73.416 38.704L69.408 32.2H64.488V49Z" fill="white"/>
<path d="M85.324 49H91.708C97.756 49 101.284 45.4 101.284 40.552V40.504C101.284 35.656 97.804 32.2 91.804 32.2H85.324V49ZM89.98 44.872V36.328H91.876C94.66 36.328 96.508 37.888 96.508 40.576V40.624C96.508 43.336 94.66 44.872 91.876 44.872H89.98Z" fill="white"/>
<path d="M103.676 49H117.308V45.04H108.284V42.376H116.348V38.704H108.284V36.16H117.188V32.2H103.676V49Z" fill="white"/>
<path d="M118.459 49H123.691L126.931 43.936L130.147 49H135.499L129.739 40.408L135.259 32.2H130.027L127.027 36.928L124.051 32.2H118.699L124.219 40.456L118.459 49Z" fill="white"/>
</g>
</g>
<defs>
<linearGradient id="paint0_linear_137_47092" x1="337.783" y1="107.68" x2="337.783" y2="1.02661" gradientUnits="userSpaceOnUse">
<stop stop-color="#1D1254"/>
<stop offset="1" stop-color="#2F1499"/>
</linearGradient>
<linearGradient id="paint1_linear_137_47092" x1="289.428" y1="7.58984" x2="289.428" y2="33.1133" gradientUnits="userSpaceOnUse">
<stop stop-color="#5945FF"/>
<stop offset="1" stop-color="#7834FF" stop-opacity="0.01"/>
</linearGradient>
<linearGradient id="paint2_linear_137_47092" x1="230.346" y1="0.5" x2="230.346" y2="26.0234" gradientUnits="userSpaceOnUse">
<stop stop-color="#5945FF"/>
<stop offset="1" stop-color="#7834FF" stop-opacity="0.01"/>
</linearGradient>
<linearGradient id="paint3_linear_137_47092" x1="211.913" y1="53.9102" x2="211.913" y2="79.4336" gradientUnits="userSpaceOnUse">
<stop stop-color="#5945FF"/>
<stop offset="1" stop-color="#7834FF" stop-opacity="0.01"/>
</linearGradient>
<linearGradient id="paint4_linear_137_47092" x1="308.269" y1="37.3672" x2="308.269" y2="61.4726" gradientUnits="userSpaceOnUse">
<stop stop-color="#5945FF"/>
<stop offset="1" stop-color="#7834FF" stop-opacity="0.01"/>
</linearGradient>
<linearGradient id="paint5_linear_137_47092" x1="299.288" y1="67.6172" x2="299.288" y2="91.7227" gradientUnits="userSpaceOnUse">
<stop stop-color="#5945FF"/>
<stop offset="1" stop-color="#7834FF" stop-opacity="0.01"/>
</linearGradient>
<linearGradient id="paint6_linear_137_47092" x1="269.761" y1="121.5" x2="269.761" y2="60.5273" gradientUnits="userSpaceOnUse">
<stop stop-color="#9A55FF"/>
<stop offset="1" stop-color="#D1CBFF" stop-opacity="0.01"/>
</linearGradient>
<linearGradient id="paint7_linear_137_47092" x1="283.473" y1="23.1875" x2="305.891" y2="23.1875" gradientUnits="userSpaceOnUse">
<stop stop-color="#5412D9"/>
<stop offset="0.34" stop-color="#5318D9"/>
<stop offset="0.66" stop-color="#5615DD"/>
<stop offset="1" stop-color="#632CF9"/>
</linearGradient>
<linearGradient id="paint8_linear_137_47092" x1="243.028" y1="56.5098" x2="264.562" y2="56.5098" gradientUnits="userSpaceOnUse">
<stop stop-color="#401192"/>
<stop offset="0.47" stop-color="#6934F8"/>
<stop offset="0.74" stop-color="#5C1CDA"/>
<stop offset="1" stop-color="#5A23C4"/>
</linearGradient>
<linearGradient id="paint9_linear_137_47092" x1="248.492" y1="53.6738" x2="293.867" y2="53.6738" gradientUnits="userSpaceOnUse">
<stop stop-color="#634AE8"/>
<stop offset="0.63" stop-color="#7241E6"/>
<stop offset="1" stop-color="#793CE5"/>
</linearGradient>
<linearGradient id="paint10_linear_137_47092" x1="277.796" y1="25.5508" x2="293.867" y2="25.5508" gradientUnits="userSpaceOnUse">
<stop stop-color="#5D4AFA"/>
<stop offset="0.15" stop-color="#6248F7"/>
<stop offset="0.72" stop-color="#703FEA"/>
<stop offset="1" stop-color="#773CE5"/>
</linearGradient>
<linearGradient id="paint11_linear_137_47092" x1="248.492" y1="53.4375" x2="271.652" y2="53.4375" gradientUnits="userSpaceOnUse">
<stop stop-color="#5D4AFA"/>
<stop offset="0.15" stop-color="#6248F7"/>
<stop offset="0.72" stop-color="#703FEA"/>
<stop offset="1" stop-color="#773CE5"/>
</linearGradient>
<linearGradient id="paint12_linear_137_47092" x1="258.356" y1="54.3828" x2="291.031" y2="54.3828" gradientUnits="userSpaceOnUse">
<stop stop-color="#45159C"/>
<stop offset="0.25" stop-color="#4818A5"/>
<stop offset="0.64" stop-color="#6023C4"/>
<stop offset="1" stop-color="#5A23C4"/>
</linearGradient>
<linearGradient id="paint13_linear_137_47092" x1="253.218" y1="54.1465" x2="291.031" y2="54.1465" gradientUnits="userSpaceOnUse">
<stop stop-color="#884BEF"/>
<stop offset="0.3" stop-color="#7C4AEE"/>
<stop offset="0.51" stop-color="#764AED"/>
<stop offset="0.71" stop-color="#7A4AEC"/>
<stop offset="1" stop-color="#854AE8"/>
</linearGradient>
<linearGradient id="paint14_linear_137_47092" x1="251.701" y1="40.5245" x2="291.13" y2="63.4011" gradientUnits="userSpaceOnUse">
<stop stop-color="#622AF7"/>
<stop offset="1" stop-color="#5412D9"/>
</linearGradient>
<linearGradient id="paint15_linear_137_47092" x1="271.179" y1="24.1281" x2="229.108" y2="24.1423" gradientUnits="userSpaceOnUse">
<stop stop-color="#380894"/>
<stop offset="0.55" stop-color="#4800E3"/>
<stop offset="0.83" stop-color="#6732F5"/>
<stop offset="1" stop-color="#6731F3"/>
</linearGradient>
<linearGradient id="paint16_linear_137_47092" x1="227.243" y1="88.1512" x2="243.237" y2="82.0494" gradientUnits="userSpaceOnUse">
<stop stop-color="#754AFD"/>
<stop offset="1" stop-color="#5411DA"/>
</linearGradient>
<linearGradient id="paint17_linear_137_47092" x1="246.043" y1="87.015" x2="229.864" y2="84.1507" gradientUnits="userSpaceOnUse">
<stop stop-color="#500AD0"/>
<stop offset="1" stop-color="#632CF9"/>
</linearGradient>
<linearGradient id="paint18_linear_137_47092" x1="312.958" y1="48.3915" x2="319.242" y2="52.2602" gradientUnits="userSpaceOnUse">
<stop stop-color="#5411DA"/>
<stop offset="1" stop-color="#754AFD"/>
</linearGradient>
<linearGradient id="paint19_linear_137_47092" x1="309.625" y1="50.2518" x2="319.849" y2="49.9398" gradientUnits="userSpaceOnUse">
<stop stop-color="#500AD0"/>
<stop offset="1" stop-color="#632CF9"/>
</linearGradient>
<linearGradient id="paint20_linear_137_47092" x1="290.614" y1="76.7978" x2="293.734" y2="85.9413" gradientUnits="userSpaceOnUse">
<stop stop-color="#754AFD"/>
<stop offset="1" stop-color="#5411DA"/>
</linearGradient>
<linearGradient id="paint21_linear_137_47092" x1="290.591" y1="78.0771" x2="293.886" y2="84.6753" gradientUnits="userSpaceOnUse">
<stop stop-color="#632CF9"/>
<stop offset="1" stop-color="#500AD0"/>
</linearGradient>
<linearGradient id="paint22_linear_137_47092" x1="255.929" y1="9.71467" x2="254.174" y2="14.859" gradientUnits="userSpaceOnUse">
<stop stop-color="#754AFD"/>
<stop offset="1" stop-color="#5411DA"/>
</linearGradient>
<linearGradient id="paint23_linear_137_47092" x1="256.031" y1="10.5534" x2="254.154" y2="14.1456" gradientUnits="userSpaceOnUse">
<stop stop-color="#632CF9"/>
<stop offset="1" stop-color="#500AD0"/>
</linearGradient>
<linearGradient id="paint24_linear_137_47092" x1="173.342" y1="36.2841" x2="173.342" y2="16.008" gradientUnits="userSpaceOnUse">
<stop stop-color="#2D1886"/>
<stop offset="1" stop-color="#4724AA"/>
</linearGradient>
<linearGradient id="paint25_linear_137_47092" x1="173.342" y1="36.2841" x2="173.342" y2="16.008" gradientUnits="userSpaceOnUse">
<stop stop-color="#2D1886"/>
<stop offset="1" stop-color="#4724AA"/>
</linearGradient>
<linearGradient id="paint26_linear_137_47092" x1="173.342" y1="36.2841" x2="173.342" y2="16.008" gradientUnits="userSpaceOnUse">
<stop stop-color="#2D1886"/>
<stop offset="1" stop-color="#4724AA"/>
</linearGradient>
<linearGradient id="paint27_linear_137_47092" x1="173.342" y1="36.2841" x2="173.342" y2="16.008" gradientUnits="userSpaceOnUse">
<stop stop-color="#2D1886"/>
<stop offset="1" stop-color="#4724AA"/>
</linearGradient>
<linearGradient id="paint28_linear_137_47092" x1="173.342" y1="36.2841" x2="173.342" y2="16.008" gradientUnits="userSpaceOnUse">
<stop stop-color="#2D1886"/>
<stop offset="1" stop-color="#4724AA"/>
</linearGradient>
<linearGradient id="paint29_linear_137_47092" x1="173.342" y1="36.2841" x2="173.342" y2="16.008" gradientUnits="userSpaceOnUse">
<stop stop-color="#2D1886"/>
<stop offset="1" stop-color="#4724AA"/>
</linearGradient>
<linearGradient id="paint30_linear_137_47092" x1="173.342" y1="36.2841" x2="173.342" y2="16.008" gradientUnits="userSpaceOnUse">
<stop stop-color="#2D1886"/>
<stop offset="1" stop-color="#4724AA"/>
</linearGradient>
<linearGradient id="paint31_linear_137_47092" x1="173.342" y1="36.2841" x2="173.342" y2="16.008" gradientUnits="userSpaceOnUse">
<stop stop-color="#2D1886"/>
<stop offset="1" stop-color="#4724AA"/>
</linearGradient>
<clipPath id="clip0_137_47092">
<rect width="343" height="110" rx="20" fill="white"/>
</clipPath>
<clipPath id="clip1_137_47092">
<rect width="343" height="110" fill="white"/>
</clipPath>
<clipPath id="clip2_137_47092">
<rect width="343" height="110" fill="white"/>
</clipPath>
</defs>
</svg>
