<svg width="343" height="110" viewBox="0 0 343 110" fill="none" xmlns="http://www.w3.org/2000/svg">
<g clip-path="url(#clip0_25_61872)">
<rect width="343" height="110" rx="20" fill="url(#paint0_linear_25_61872)"/>
<g clip-path="url(#clip1_25_61872)">
<g opacity="0.667528">
<path d="M17.736 36H23.056V24.8L28.04 32.416H28.152L33.164 24.744V36H38.568V16.4H32.828L28.152 23.988L23.476 16.4H17.736V36Z" fill="url(#paint1_linear_25_61872)"/>
<path d="M42.0446 36H49.4926C56.5486 36 60.6646 31.8 60.6646 26.144V26.088C60.6646 20.432 56.6046 16.4 49.6046 16.4H42.0446V36ZM47.4766 31.184V21.216H49.6886C52.9366 21.216 55.0926 23.036 55.0926 26.172V26.228C55.0926 29.392 52.9366 31.184 49.6886 31.184H47.4766Z" fill="url(#paint2_linear_25_61872)"/>
<path d="M63.4547 36H79.3587V31.38H68.8307V28.272H78.2387V23.988H68.8307V21.02H79.2187V16.4H63.4547V36Z" fill="url(#paint3_linear_25_61872)"/>
<path d="M80.7025 36H86.8065L90.5865 30.092L94.3385 36H100.582L93.8625 25.976L100.302 16.4H94.1985L90.6985 21.916L87.2265 16.4H80.9825L87.4225 26.032L80.7025 36Z" fill="url(#paint4_linear_25_61872)"/>
<path d="M102.106 36H107.65V30.54H102.106V36Z" fill="url(#paint5_linear_25_61872)"/>
<path d="M119.184 36.392C123.524 36.392 126.016 34.516 127.864 31.968L123.776 29.056C122.6 30.484 121.396 31.436 119.352 31.436C116.608 31.436 114.676 29.14 114.676 26.2V26.144C114.676 23.288 116.608 20.964 119.352 20.964C121.228 20.964 122.516 21.86 123.636 23.26L127.724 20.096C125.988 17.688 123.412 16.008 119.408 16.008C113.472 16.008 109.076 20.488 109.076 26.2V26.256C109.076 32.108 113.584 36.392 119.184 36.392Z" fill="url(#paint6_linear_25_61872)"/>
<path d="M139.51 36.392C145.558 36.392 150.094 31.828 150.094 26.2V26.144C150.094 20.516 145.614 16.008 139.566 16.008C133.518 16.008 128.982 20.572 128.982 26.2V26.256C128.982 31.884 133.462 36.392 139.51 36.392ZM139.566 31.492C136.598 31.492 134.554 29.028 134.554 26.2V26.144C134.554 23.316 136.542 20.908 139.51 20.908C142.506 20.908 144.55 23.372 144.55 26.2V26.256C144.55 29.084 142.562 31.492 139.566 31.492Z" fill="url(#paint7_linear_25_61872)"/>
<path d="M152.923 36H158.243V24.8L163.227 32.416H163.339L168.351 24.744V36H173.755V16.4H168.015L163.339 23.988L158.663 16.4H152.923V36Z" fill="url(#paint8_linear_25_61872)"/>
</g>
<rect opacity="0.04" x="289.386" y="7.08984" width="2.46359" height="25.5234" rx="1.2318" fill="url(#paint9_linear_25_61872)"/>
<rect opacity="0.0828359" x="230.457" width="2.46359" height="25.5234" rx="1.2318" fill="url(#paint10_linear_25_61872)"/>
<rect opacity="0.14929" x="212.072" y="53.4102" width="2.46359" height="25.5234" rx="1.2318" fill="url(#paint11_linear_25_61872)"/>
<rect opacity="0.0828359" x="308.243" y="36.8672" width="2.32673" height="24.1055" rx="1.16336" fill="url(#paint12_linear_25_61872)"/>
<rect opacity="0.268966" x="299.286" y="67.1172" width="2.32673" height="24.1055" rx="1.16336" fill="url(#paint13_linear_25_61872)"/>
<path opacity="0.4" fill-rule="evenodd" clip-rule="evenodd" d="M270.999 121C244.588 121 219.755 117.846 201.075 112.118C191.981 109.333 184.837 106.08 179.843 102.46C174.638 98.6881 172 94.668 172 90.5137C172 86.3594 174.638 82.3405 179.843 78.5672C184.837 74.9471 191.98 71.6978 201.075 68.9093C219.755 63.1817 244.588 60.0273 270.999 60.0273C297.41 60.0273 322.244 63.1817 340.924 68.9093C350.018 71.694 357.162 74.9471 362.156 78.5672C367.36 82.3405 370 86.3594 370 90.5137C370 94.668 367.36 98.6881 362.156 102.46C357.162 106.08 350.019 109.33 340.924 112.118C322.244 117.846 297.412 121 270.999 121ZM270.999 60.4071C216.62 60.4071 172.379 73.913 172.379 90.5137C172.379 107.114 216.62 120.62 270.999 120.62C325.378 120.62 369.621 107.114 369.621 90.5137C369.621 73.913 325.38 60.4071 270.999 60.4071ZM206.957 110.626C224.157 115.797 246.837 118.635 270.914 118.635L271.772 118.637C291.721 118.581 310.62 116.594 326.427 112.892C334.035 111.107 340.662 108.981 346.123 106.571C351.668 104.122 355.881 101.435 358.645 98.5854C361.251 95.8976 362.532 93.0934 362.454 90.2501C362.245 82.7049 352.511 75.6541 335.044 70.401C317.845 65.2302 295.163 62.3906 271.087 62.3906H270.229C250.28 62.4463 231.38 64.4337 215.575 68.1355C207.965 69.9206 201.338 72.0459 195.878 74.4568C190.333 76.9057 186.12 79.5923 183.355 82.4419C180.749 85.1298 179.468 87.9339 179.546 90.7773C179.755 98.3224 189.489 105.373 206.957 110.626ZM270.23 62.7674H271.08C320.913 62.7674 361.655 75.0447 362.078 90.2627C362.154 92.9986 360.904 95.7105 358.377 98.3224C352.959 103.909 341.584 108.951 326.344 112.521C310.571 116.217 291.696 118.199 271.775 118.256H270.922C221.088 118.256 180.345 105.976 179.925 90.7621C179.85 88.0262 181.101 85.3144 183.628 82.7024C189.044 77.1156 200.422 72.0737 215.666 68.5034C231.439 64.8041 250.309 62.8243 270.23 62.7674ZM270.83 116.273C249.081 116.273 228.553 113.726 212.846 109.067C196.66 104.267 187.518 97.7806 187.101 90.8035C186.943 88.1692 188.039 85.5666 190.361 83.0686C192.815 80.4253 196.603 77.931 201.614 75.6521C206.552 73.4088 212.569 71.4266 219.496 69.7566C233.888 66.2903 251.163 64.3986 269.456 64.2865C291.837 64.1489 313.035 66.7069 329.155 71.4865C345.34 76.2877 354.482 82.773 354.9 89.7513C355.056 92.3857 353.96 94.9882 351.64 97.4863C349.185 100.128 345.397 102.624 340.386 104.903C335.454 107.145 329.431 109.128 322.505 110.797C308.111 114.263 290.837 116.158 272.543 116.268C271.973 116.271 271.395 116.273 270.83 116.273ZM271.17 64.6636H269.458C251.193 64.7757 233.949 66.6636 219.589 70.1234C205.723 73.4648 195.437 78.1489 190.632 83.3246C188.385 85.745 187.323 88.2494 187.471 90.7755C187.676 94.1959 190.063 97.5118 194.569 100.632C198.951 103.666 205.135 106.379 212.946 108.695C228.618 113.344 249.11 115.886 270.821 115.886H272.535C290.799 115.774 308.043 113.885 322.402 110.425C336.269 107.085 346.554 102.4 351.359 97.2252C353.606 94.8048 354.668 92.2991 354.52 89.7743C354.317 86.3526 351.928 83.0367 347.424 79.9183C343.04 76.8839 336.858 74.1705 329.047 71.8534C313.376 67.205 292.878 64.6636 271.17 64.6636ZM218.743 107.164C232.951 111.227 251.33 113.438 270.746 113.438C271.6 113.438 272.459 113.431 273.316 113.425C289.947 113.257 305.591 111.496 318.555 108.332C324.803 106.807 330.208 105.003 334.624 102.971C339.106 100.905 342.468 98.6479 344.619 96.2631C346.659 93.9968 347.572 91.6411 347.335 89.2589C346.708 82.9815 338.158 77.179 323.258 72.9197C308.421 68.6731 289.038 66.4534 268.68 66.6574C252.049 66.82 236.407 68.5836 223.446 71.7507C217.197 73.275 211.793 75.079 207.377 77.1122C202.893 79.1782 199.533 81.4345 197.382 83.8205C195.342 86.0855 194.428 88.4425 194.665 90.8235C195.293 97.1009 203.843 102.905 218.743 107.164ZM201.842 99.6154C197.635 96.8326 195.346 93.8583 195.04 90.7857C194.813 88.5143 195.695 86.2556 197.66 84.0787C201.856 79.4176 211.04 75.1672 223.532 72.1185C236.472 68.9616 252.082 67.1979 268.684 67.0354C289.009 66.8326 308.349 69.051 323.153 73.2825C330.339 75.3334 336.06 77.7509 340.155 80.4632C344.361 83.246 346.65 86.2203 346.957 89.2929C347.184 91.5642 346.302 93.823 344.336 96.0062C340.14 100.666 330.953 104.911 318.465 107.961C305.527 111.12 289.914 112.877 273.312 113.043C252.993 113.249 233.648 111.029 218.845 106.796C211.656 104.745 205.936 102.329 201.842 99.6154ZM270.67 110.602C253.58 110.602 237.356 108.701 224.65 105.189C211.039 101.427 203.083 96.2495 202.244 90.6144C201.926 88.4597 202.658 86.3238 204.43 84.2582C208.125 79.9462 216.076 76.1644 227.416 73.3198C238.954 70.4301 252.957 68.7817 267.914 68.5605C286.24 68.2891 303.804 70.2027 317.349 73.948C330.96 77.7098 338.916 82.8862 339.755 88.5225C340.076 90.6773 339.343 92.8157 337.577 94.875C333.882 99.187 325.93 102.969 314.59 105.813C303.054 108.703 289.051 110.352 274.093 110.573C272.95 110.594 271.807 110.602 270.67 110.602ZM271.332 68.9123C270.195 68.9123 269.056 68.9207 267.914 68.9374C252.985 69.1586 239.012 70.8007 227.504 73.6855C216.398 76.4697 208.305 80.3118 204.717 84.502C203.026 86.4758 202.322 88.5125 202.625 90.5554C203.034 93.3107 205.222 95.9655 209.13 98.4482C212.937 100.867 218.193 103.013 224.755 104.826C237.428 108.329 253.618 110.228 270.672 110.228C271.809 110.228 272.948 110.22 274.09 110.203C289.018 109.982 302.992 108.34 314.501 105.455C325.605 102.671 333.699 98.8289 337.287 94.6388C338.978 92.6649 339.682 90.6283 339.378 88.5841C338.969 85.83 336.781 83.1752 332.873 80.6912C329.067 78.2739 323.81 76.1279 317.248 74.3149C304.577 70.8083 288.382 68.9123 271.332 68.9123ZM230.489 103.624C241.635 106.625 255.655 108.238 270.362 108.238C271.776 108.239 273.194 108.224 274.617 108.194C287.837 107.915 300.145 106.368 310.209 103.72C320.107 101.115 326.967 97.6852 330.046 93.8024C331.539 91.92 332.09 89.9729 331.686 88.0144C330.643 82.9528 323.311 78.3449 311.039 75.0415C298.828 71.752 283.152 70.1294 266.912 70.4704C253.692 70.7493 241.388 72.297 231.319 74.9451C221.42 77.5501 214.562 80.9791 211.482 84.8618C209.991 86.7442 209.439 88.6926 209.842 90.6511C210.886 95.7127 218.219 100.321 230.489 103.624ZM216.395 97.6167C212.803 95.411 210.718 93.0406 210.213 90.5738H210.211C209.831 88.7306 210.358 86.8888 211.777 85.0989C214.762 81.3353 221.736 77.8594 231.414 75.3127C241.449 72.6723 253.726 71.1296 266.918 70.8507C283.13 70.5097 298.762 72.1285 310.944 75.4078C316.858 77.0012 321.632 78.8925 325.134 81.0475C328.727 83.2545 330.811 85.6237 331.315 88.0905C331.696 89.9336 331.169 91.7755 329.75 93.5654C326.765 97.329 319.791 100.805 310.113 103.351C300.078 105.993 287.8 107.536 274.609 107.814C258.403 108.155 242.775 106.532 230.584 103.256C224.67 101.664 219.896 99.7717 216.395 97.6167ZM270.296 105.875C257.905 105.875 246.036 104.565 236.425 102.111C225.455 99.3076 218.72 95.333 217.468 90.9177C216.974 89.1736 217.349 87.4332 218.585 85.7396C221.073 82.3397 226.873 79.3124 235.354 76.9848C243.979 74.6193 254.625 73.1959 266.142 72.8625C280.346 72.4533 294.184 73.7642 305.102 76.5541C316.071 79.3566 322.807 83.3311 324.059 87.7464C324.554 89.4906 324.185 91.231 322.943 92.9246C320.454 96.3245 314.654 99.3505 306.174 101.678C297.548 104.044 286.903 105.467 275.386 105.8C273.683 105.851 271.987 105.876 270.296 105.875ZM217.827 90.8142C220.349 99.7105 246.166 106.264 275.372 105.423C286.86 105.092 297.475 103.671 306.07 101.314C314.353 99.0411 320.236 95.9835 322.639 92.701C323.801 91.1122 324.152 89.483 323.697 87.8563C321.175 78.96 295.359 72.4053 266.152 73.2477C254.669 73.5786 244.053 74.9994 235.458 77.3611C227.176 79.6345 221.292 82.6908 218.889 85.9733C217.726 87.5583 217.371 89.1875 217.827 90.8142ZM242.382 100.582C250.435 102.499 260.151 103.512 270.237 103.512C272.197 103.512 274.172 103.474 276.148 103.399C295.911 102.627 311.847 98.0762 315.8 92.0755C316.789 90.5706 316.989 89.028 316.394 87.4904C314.938 83.7231 308.812 80.383 299.149 78.0816C289.531 75.7929 277.539 74.793 265.382 75.2678C245.618 76.0403 229.681 80.5915 225.73 86.5922C224.739 88.0959 224.539 89.6385 225.135 91.1773C226.598 94.9458 232.72 98.2822 242.382 100.582ZM276.135 103.021C251.145 103.997 228.425 98.6214 225.488 91.0391C224.938 89.6209 225.125 88.1939 226.046 86.797C227.885 84.0058 232.683 81.3728 239.559 79.3855C246.705 77.3191 255.64 76.0215 265.397 75.6446C290.386 74.6686 313.106 80.0438 316.044 87.6261C316.593 89.0443 316.405 90.4713 315.486 91.8682C313.647 94.6582 308.848 97.2911 301.972 99.2797C294.826 101.345 285.892 102.644 276.135 103.021ZM270.422 101.148C262.579 101.148 254.967 100.409 248.47 98.9914C240.081 97.1605 234.54 94.4059 232.868 91.2363C232.147 89.866 232.168 88.4817 232.933 87.1215C235.769 82.0805 248.588 78.1027 264.832 77.2247C274.989 76.6765 285.181 77.3782 293.53 79.2002C301.92 81.0311 307.46 83.7858 309.132 86.9566C309.853 88.3256 309.832 89.7099 309.067 91.0701C306.231 96.1125 293.413 100.089 277.169 100.967C274.916 101.088 272.657 101.148 270.422 101.148ZM233.204 91.0562C236.568 97.4371 256.282 101.714 277.149 100.586C293.268 99.7159 305.964 95.8155 308.739 90.8823C309.436 89.6427 309.456 88.3827 308.798 87.1342C305.434 80.7533 285.721 76.476 264.853 77.6053C248.733 78.4757 236.039 82.3748 233.265 87.308C232.566 88.5477 232.545 89.8089 233.204 91.0562ZM254.153 96.9015C259.034 97.834 264.539 98.3125 270.158 98.3125C272.673 98.3125 275.196 98.2163 277.703 98.0264C284 97.5441 289.609 96.4858 293.927 94.9696C298.182 93.4739 300.909 91.6331 301.792 89.6474C302.352 88.4057 302.181 87.1589 301.287 85.9415C299.409 83.3786 294.468 81.2235 287.376 79.8702C280.316 78.5233 271.95 78.1244 263.821 78.7491C257.525 79.2327 251.916 80.2897 247.599 81.8059C243.343 83.299 240.627 85.1411 239.736 87.1242C239.177 88.3659 239.347 89.6128 240.241 90.8301C242.119 93.3931 247.06 95.5494 254.153 96.9015ZM277.678 97.6403C260.982 98.9218 244.328 95.7636 240.543 90.6018C239.74 89.505 239.582 88.389 240.077 87.2859C241.834 83.3632 251.387 80.087 263.85 79.13C280.546 77.8486 297.2 81.0067 300.985 86.1686C301.788 87.2653 301.946 88.3813 301.451 89.4845C299.695 93.4072 290.142 96.6834 277.678 97.6403ZM270.218 95.9492C260.338 95.9492 251.177 94.0681 247.821 91.0584C246.669 90.0238 246.251 88.8901 246.611 87.7816C247.083 86.3319 248.851 84.9587 251.726 83.81C254.632 82.6488 258.543 81.7709 263.032 81.2731C275.661 79.8711 289.421 81.8637 293.708 85.7149C294.859 86.7495 295.277 87.8819 294.917 88.9917C294.445 90.4414 292.677 91.8146 289.803 92.962C286.896 94.1245 282.979 95.0024 278.496 95.5002C275.747 95.8016 272.984 95.9515 270.218 95.9492ZM271.355 81.1978C268.588 81.1939 265.822 81.3421 263.071 81.6418C254.205 82.6262 247.884 85.0791 246.97 87.8919C246.654 88.8638 247.024 89.8332 248.072 90.7762C252.289 94.5634 265.917 96.5135 278.451 95.1227C287.319 94.1383 293.638 91.6854 294.553 88.8726C294.869 87.9007 294.498 86.9313 293.45 85.9883C290.159 83.035 281.125 81.1978 271.355 81.1978ZM255.4 91.3872C258.518 93.1058 264.244 94.0583 270.208 94.0583C273.261 94.0695 276.309 93.8054 279.315 93.269C284.697 92.272 288.102 90.4883 288.42 88.5006C288.539 87.7241 288.248 86.555 286.129 85.3871C281.399 82.7797 270.671 81.9344 262.213 83.5039C256.83 84.5023 253.427 86.2847 253.108 88.2724C252.989 89.0488 253.281 90.218 255.4 91.3872ZM262.279 83.8801C265.273 83.3455 268.309 83.0822 271.35 83.0934L271.344 83.0947C277.234 83.0947 282.878 84.0305 285.942 85.7224C287.465 86.5613 288.19 87.501 288.041 88.4394C287.753 90.2333 284.381 91.9405 279.242 92.8929C270.858 94.4484 260.242 93.6222 255.579 91.0506C254.055 90.2116 253.329 89.272 253.48 88.3336C253.768 86.5397 257.138 84.8325 262.279 83.8801ZM270.293 92.168C267.785 92.168 265.288 91.9162 263.204 91.3849C260.412 90.676 258.834 89.6134 258.746 88.3922C258.698 87.6834 259.146 86.6296 261.552 85.6576C265.727 83.9617 273.251 83.6306 278.324 84.916C281.116 85.6236 282.694 86.6875 282.782 87.9087C282.83 88.6175 282.383 89.6713 279.976 90.6433C277.522 91.643 273.893 92.168 270.293 92.168ZM271.226 84.5081C267.68 84.5081 264.109 85.0243 261.692 86.0076C259.977 86.7038 259.063 87.5411 259.12 88.3657C259.188 89.3818 260.743 90.3726 263.296 91.0185C268.304 92.2888 275.724 91.9627 279.836 90.2933C281.551 89.5971 282.464 88.7598 282.409 87.9352C282.339 86.9191 280.778 85.9283 278.233 85.2824C276.173 84.7599 273.704 84.5081 271.226 84.5081ZM270.764 90.2773C266.668 90.2773 263.457 89.2393 263.457 87.9141C263.457 86.5888 266.668 85.5508 270.764 85.5508C274.861 85.5508 278.071 86.5888 278.071 87.9141C278.071 89.2393 274.862 90.2773 270.764 90.2773ZM270.764 85.9112C266.626 85.9112 263.846 86.9469 263.846 87.9141C263.846 88.8812 266.626 89.9169 270.764 89.9169C274.902 89.9169 277.683 88.8812 277.683 87.9141C277.683 86.9469 274.904 85.9112 270.764 85.9112Z" fill="url(#paint14_linear_25_61872)"/>
<path d="M288.173 25.5205H288.326L288.889 25.5041H289.044C289.274 25.4959 289.505 25.4863 289.74 25.474L289.885 25.4658L290.488 25.4302L290.666 25.4178C290.909 25.4 291.155 25.3822 291.405 25.3617L291.529 25.3507L292.186 25.2904L292.386 25.2699C292.646 25.2443 292.907 25.2165 293.171 25.1864L293.253 25.1768L293.99 25.0864L294.205 25.059C294.482 25.0234 294.76 24.985 295.043 24.9453L289.04 21.6033C288.757 21.6444 288.479 21.6814 288.203 21.7184L287.988 21.7458L287.249 21.8362L287.169 21.8458C286.9 21.8759 286.643 21.9033 286.384 21.9293L286.184 21.9485C285.962 21.9704 285.743 21.991 285.526 22.0088L285.402 22.0197C285.152 22.0416 284.907 22.0594 284.662 22.0772L284.485 22.0882L283.882 22.1252L283.737 22.1334C283.503 22.1444 283.272 22.1553 283.042 22.1635H282.886C282.697 22.1635 282.509 22.1745 282.324 22.1786H282.171C281.951 22.1786 281.733 22.1786 281.518 22.1786H281.384C281.204 22.1786 281.026 22.1786 280.847 22.1786H280.694C280.486 22.1786 280.28 22.1704 280.079 22.1635H279.984L279.466 22.1402H279.315C279.121 22.1293 278.927 22.117 278.738 22.1033H278.687L278.171 22.0608L278.026 22.0485L277.489 21.9937H277.495L276.971 21.9293L276.837 21.9115L276.382 21.8471L276.329 21.8389C276.164 21.8143 276.003 21.7869 275.843 21.7595L275.723 21.7389L275.32 21.665L275.243 21.6499C275.09 21.6198 274.941 21.5883 274.795 21.5568L274.689 21.5321C274.565 21.5047 274.444 21.4773 274.326 21.4486L274.239 21.428C274.102 21.3952 273.968 21.3609 273.836 21.3253C273.737 21.2993 273.642 21.2719 273.545 21.2445L273.368 21.1952C273.258 21.1637 273.149 21.1294 273.042 21.0966L272.919 21.0596C272.773 21.013 272.629 20.9651 272.49 20.9226L272.403 20.8911C272.292 20.8528 272.184 20.8144 272.079 20.7747L271.934 20.7186L271.686 20.6213L271.531 20.5583C271.457 20.5268 271.382 20.4967 271.311 20.4652L271.155 20.3967C271.087 20.3666 271.021 20.3364 270.954 20.3049L270.801 20.2337L270.613 20.1419L270.424 20.0461L270.334 19.9995L270.057 19.8516L276.057 23.1812C276.147 23.2319 276.239 23.2812 276.333 23.3305L276.423 23.377L276.558 23.4469L276.613 23.4729L276.799 23.5633L276.952 23.6359L277.154 23.7263L277.309 23.7962L277.53 23.8879L277.684 23.9523C277.765 23.9852 277.849 24.0167 277.932 24.0482C277.981 24.0673 278.028 24.0865 278.077 24.1043C278.182 24.144 278.289 24.1824 278.398 24.2207L278.488 24.2523C278.622 24.3002 278.771 24.3481 278.918 24.3892L279.041 24.4276C279.149 24.4604 279.256 24.4933 279.366 24.5248L279.543 24.5755L279.835 24.6549L279.874 24.6659L280.237 24.7577L280.325 24.7782C280.443 24.807 280.564 24.8357 280.687 24.8631L280.793 24.8864C280.941 24.9179 281.09 24.9494 281.242 24.9795L281.318 24.9946C281.452 25.0206 281.587 25.0453 281.721 25.0686L281.842 25.0905L282.328 25.1699H282.38C282.531 25.1932 282.682 25.2137 282.835 25.2357L282.97 25.2535C283.141 25.2754 283.316 25.2973 283.493 25.3165C283.669 25.337 283.848 25.3548 284.03 25.3713L284.175 25.3836C284.346 25.3986 284.516 25.4137 284.691 25.426H284.742C284.931 25.4397 285.124 25.4507 285.319 25.4617L285.469 25.4699L285.988 25.4918H286.083L286.698 25.5069H286.851C287.027 25.5069 287.205 25.5069 287.388 25.5069H287.522C287.735 25.5274 287.953 25.5247 288.173 25.5205Z" fill="url(#paint15_linear_25_61872)"/>
<path d="M261.309 81.5224C249.869 74.7048 249.662 66.7104 249.65 66.2837L249.709 31.1929L243.721 27.8867L243.657 62.9829C243.668 63.4042 243.875 71.4081 255.315 78.223C257.096 79.2843 258.583 80.139 259.827 80.8266L265.814 84.1328C264.571 83.4398 263.084 82.5837 261.309 81.5224Z" fill="url(#paint16_linear_25_61872)"/>
<path d="M272.46 19.8516C272.649 20.2326 276.212 27.4746 295.043 24.8205L294.978 59.7222C294.966 60.1452 294.728 68.1642 283.178 78.1953C275.068 85.2413 273.003 86.4116 272.491 86.4832C271.672 86.5995 269.611 86.0103 261.522 81.2467C250.006 74.4669 249.798 66.5168 249.786 66.0925L249.851 31.1963C268.679 28.5354 272.272 20.2854 272.46 19.8516Z" fill="url(#paint17_linear_25_61872)"/>
<path d="M295.043 25.1969V24.9418C287.48 25.6784 282.398 25.3036 279.014 24.5781C282.27 25.3908 287.316 25.8862 295.043 25.1969Z" fill="url(#paint18_linear_25_61872)"/>
<path d="M262.264 81.1955C250.795 74.4489 250.588 66.5408 250.576 66.1173L250.641 31.3924C266.954 29.0961 271.781 22.5849 272.886 20.6488C272.686 20.4019 272.511 20.1347 272.367 19.8516C272.179 20.2831 268.601 28.4911 249.85 31.1316L249.786 65.8565C249.797 66.2719 250.005 74.1921 261.473 80.9333C267.402 84.4289 270.077 85.6577 271.404 86.0234C269.878 85.4413 267.198 84.0982 262.264 81.1955Z" fill="url(#paint19_linear_25_61872)"/>
<path d="M291.952 30.5355V30.4991V30.23L291.684 30.265V30.23V29.9608L291.417 29.9958V29.9608V29.6916C280.698 31.2057 275.894 28.8841 273.867 27.1345C273.65 26.8851 273.465 26.6103 273.314 26.3162L273.266 26.4211C273.186 26.3025 273.114 26.1789 273.05 26.051C273.042 26.0699 273.028 26.1062 273.003 26.156C272.924 26.038 272.852 25.9148 272.788 25.7872C272.78 25.8061 272.765 25.8424 272.741 25.8922C272.661 25.7743 272.589 25.6511 272.526 25.5234C272.368 25.8882 269.362 32.81 253.611 35.0361L253.557 64.3197V64.5889C253.564 64.8581 253.672 68.9993 258.316 73.508C258.404 73.5968 258.488 73.6843 258.583 73.7772C260.178 75.3525 261.966 76.7165 263.904 77.8364C270.556 81.765 272.334 82.3087 273.044 82.2333C273.143 82.2451 273.244 82.2451 273.343 82.2333C273.772 82.1728 275.499 81.1916 282.282 75.2805C291.951 66.8742 292.15 60.1448 292.161 59.7881L292.214 30.5032L291.952 30.5355Z" fill="url(#paint20_linear_25_61872)"/>
<path d="M273.396 25.5234C273.552 25.8443 276.522 31.9568 292.214 29.7203L292.161 59.1783C292.146 59.533 291.948 66.3021 282.327 74.7649C275.57 80.7109 273.849 81.6979 273.422 81.7588C272.74 81.8563 271.023 81.3594 264.282 77.3399C254.684 71.6173 254.509 64.9023 254.5 64.5489L254.555 35.0923C270.241 32.8531 273.233 25.889 273.396 25.5234Z" fill="url(#paint21_linear_25_61872)"/>
<path d="M272.924 25.5234C273.08 25.8443 276.05 31.9568 291.743 29.7203L291.69 59.1783C291.675 59.533 291.476 66.3021 281.856 74.7649C275.099 80.7109 273.378 81.6979 272.951 81.7588C272.269 81.8563 270.552 81.3594 263.81 77.3399C254.213 71.6173 254.038 64.9023 254.029 64.5489L254.083 35.0923C269.769 32.8531 272.762 25.889 272.924 25.5234Z" fill="url(#paint22_linear_25_61872)"/>
<path d="M272.962 80.8242C272.489 80.7747 270.779 80.2169 264.649 76.6316C255.937 71.5386 255.47 65.8235 255.443 65.1064L255.494 37.1464C266.64 35.3685 271.386 31.2869 273.289 28.832C274.973 30.4374 278.527 32.5029 285.683 32.5029C287.393 32.496 289.102 32.3933 290.8 32.1953L290.748 59.7887C290.73 60.2181 290.318 66.4416 281.296 74.2262C275.065 79.6068 273.363 80.6356 272.962 80.8242Z" fill="url(#paint23_linear_25_61872)"/>
<path fill-rule="evenodd" clip-rule="evenodd" d="M271.321 77.2203C269.975 76.5318 268.255 75.5697 266.197 74.3611C259.525 70.4429 258.465 66.3751 258.298 65.2218L258.271 65.0318L258.319 39.1268L260.339 38.635C265.386 37.4116 269.498 35.5643 272.574 33.1471L273.852 32.1406L275.327 32.8278C278.147 34.1455 281.674 34.8206 285.806 34.8368L288.443 34.8475L288.397 59.6395L288.365 59.8416C288.152 61.189 286.906 66.0827 279.83 72.2147C277.533 74.2048 275.626 75.7961 274.161 76.9441L272.829 77.9883L271.321 77.2203Z" stroke="url(#paint24_linear_25_61872)" stroke-width="2"/>
<path fill-rule="evenodd" clip-rule="evenodd" d="M286.086 46.7328L277.259 48.0036L280.951 38.4828L280.988 38.386L270.787 39.8545L264.58 58.3285L270.709 57.4463L268.09 72.3164L286.002 46.8511L286.086 46.7328ZM285.83 46.9009L268.291 71.8283L270.851 57.2903L264.75 58.1684L270.867 39.9728L280.807 38.542L277.114 48.0627L277.077 48.1609L285.83 46.9009Z" fill="white"/>
<path d="M270.941 64.7499L270.76 64.6501L272.468 54.9715L272.649 55.0726L270.941 64.7499Z" fill="#848484"/>
<path d="M274.137 50.3958L273.956 50.2947L281.659 49.1875L281.84 49.2886L274.137 50.3958Z" fill="#9A9A9A"/>
<path d="M277.886 40.7496L274.137 50.3958L281.84 49.2886L270.941 64.7499L272.649 55.0726L266.938 55.8925L271.74 41.6329L277.886 40.7496Z" fill="white"/>
<path d="M266.938 55.8925L266.757 55.7927L271.56 41.5317L271.74 41.6329L266.938 55.8925Z" fill="#878787"/>
<path d="M271.74 41.6329L271.56 41.5317L277.705 40.6484L277.886 40.7496L271.74 41.6329Z" fill="#9A9A9A"/>
<path d="M266.372 16.0703L266.355 16.1122V16.1262L266.324 16.196L266.315 16.2142L266.265 16.3176C266.248 16.3553 266.226 16.3972 266.203 16.4433L266.191 16.4656C266.164 16.5159 266.135 16.5704 266.103 16.629L266.087 16.6584L265.978 16.847L265.958 16.8791C265.916 16.9489 265.873 17.0188 265.823 17.097L265.805 17.1235C265.754 17.2045 265.698 17.2884 265.638 17.3778C265.588 17.4518 265.536 17.5286 265.479 17.6068L265.443 17.6571C265.387 17.7353 265.326 17.8164 265.263 17.8988L265.229 17.9435C265.169 18.0217 265.106 18.1013 265.04 18.1837L265.011 18.2201C264.94 18.3081 264.864 18.3988 264.785 18.491L264.734 18.5525C264.653 18.6447 264.57 18.7397 264.483 18.8319L264.459 18.8584C264.376 18.9492 264.29 19.0414 264.2 19.1378L264.142 19.1992C264.047 19.2984 263.949 19.3976 263.846 19.4996L263.783 19.5596C263.686 19.6546 263.586 19.751 263.481 19.8474L263.441 19.8865C263.313 20.0052 263.179 20.1253 263.041 20.2455L262.971 20.3069C262.835 20.4243 262.7 20.5444 262.546 20.6645L262.464 20.7316C262.314 20.8536 262.158 20.976 261.997 21.0989L261.93 21.1506C261.758 21.2805 261.582 21.4104 261.397 21.5417L261.376 21.5571C261.259 21.6409 261.139 21.7247 261.017 21.8071L260.881 21.8951L260.611 22.0753L260.455 22.1773L260.184 22.3477L260.022 22.4483C259.924 22.5084 259.825 22.5698 259.724 22.6299L259.575 22.7179C259.433 22.8031 259.288 22.8855 259.14 22.9693L259.113 22.9861C258.956 23.0741 258.793 23.1621 258.63 23.2515L258.475 23.3325L258.124 23.5169L257.934 23.6133L257.59 23.7921L257.393 23.887C257.25 23.9569 257.102 24.0267 256.955 24.0952L256.811 24.1608C256.614 24.2539 256.414 24.3433 256.21 24.429L256.074 24.4877C255.913 24.5575 255.749 24.6274 255.583 24.6944L255.369 24.781C255.219 24.8425 255.064 24.9025 254.91 24.964L254.696 25.0464C254.498 25.1218 254.298 25.1963 254.095 25.2699L254.012 25.3006C253.78 25.3845 253.544 25.4669 253.305 25.5479L253.093 25.6191C252.918 25.6778 252.742 25.7365 252.562 25.7937L252.307 25.8747L251.753 26.0438L251.53 26.1108C251.27 26.1872 251.006 26.2626 250.738 26.3371L250.611 26.3706C250.38 26.4335 250.149 26.4949 249.912 26.555L249.641 26.6248C249.445 26.6737 249.246 26.7226 249.044 26.7645L248.754 26.833C248.524 26.8879 248.29 26.941 248.053 26.9922L247.863 27.0341C247.564 27.0984 247.26 27.1612 246.95 27.2227L246.707 27.2702C246.472 27.3149 246.237 27.3596 245.997 27.4099L245.673 27.4685L244.979 27.5873L244.67 27.6376C244.337 27.6916 243.999 27.7437 243.657 27.794L249.71 31.1953C250.052 31.145 250.39 31.0933 250.723 31.0403L251.032 30.9886C251.265 30.9509 251.497 30.9104 251.726 30.8698L252.05 30.8126C252.29 30.7693 252.525 30.7246 252.76 30.6729L253.003 30.6254C253.312 30.5639 253.616 30.5011 253.916 30.4368L254.104 30.3949C254.342 30.3428 254.577 30.2902 254.808 30.2371L255.097 30.1686L255.695 30.0289L255.966 29.9605C256.204 29.899 256.439 29.8367 256.669 29.7733L256.791 29.7412C257.062 29.6676 257.326 29.5922 257.584 29.5149L257.806 29.4493C257.993 29.392 258.18 29.3361 258.363 29.2774C258.447 29.2523 258.531 29.2258 258.615 29.1978C258.795 29.1406 258.974 29.0819 259.15 29.0232L259.359 28.9534C259.599 28.871 259.836 28.7886 260.068 28.7047L260.145 28.6768C260.349 28.6028 260.551 28.5273 260.75 28.4505L260.963 28.3681L261.424 28.1865L261.637 28.0999C261.804 28.0315 261.966 27.9602 262.127 27.8932L262.263 27.8345C262.466 27.7414 262.666 27.652 262.863 27.5663L263.007 27.4993L263.445 27.2925L263.529 27.252L263.642 27.1962L263.981 27.0285L264.173 26.9308L264.521 26.7478L264.678 26.6654C264.842 26.5774 265.003 26.488 265.16 26.4L265.181 26.3874C265.331 26.3036 265.479 26.2184 265.624 26.1332L265.771 26.0438L266.069 25.8636L266.232 25.763L266.502 25.5898L266.657 25.4906L266.928 25.309L267.056 25.2224C267.177 25.14 267.296 25.0562 267.412 24.9738L267.435 24.9584C267.619 24.8271 267.796 24.6958 267.967 24.5659C267.991 24.5491 268.014 24.5324 268.035 24.5142C268.198 24.3913 268.354 24.2684 268.504 24.1455L268.584 24.0812C268.731 23.9597 268.873 23.8409 269.01 23.7222L269.078 23.6621C269.213 23.5406 269.349 23.4205 269.484 23.3018L269.495 23.2934L269.525 23.264C269.629 23.1677 269.729 23.0713 269.827 22.9749L269.889 22.9148C269.992 22.8143 270.091 22.7137 270.186 22.6145C270.206 22.595 270.225 22.574 270.244 22.5545C270.333 22.4609 270.42 22.3673 270.502 22.2751L270.525 22.2499C270.613 22.1536 270.696 22.0586 270.777 21.9706L270.804 21.9398L270.83 21.9091C270.907 21.8169 270.983 21.7261 271.055 21.6381L271.083 21.6032C271.15 21.5208 271.212 21.4412 271.272 21.3629L271.307 21.3182C271.37 21.2344 271.43 21.1534 271.487 21.0752L271.522 21.0249C271.579 20.9467 271.633 20.8685 271.683 20.7944C271.744 20.7064 271.798 20.6212 271.851 20.5402L271.867 20.5151C271.916 20.4382 271.959 20.3656 272.003 20.2972L272.023 20.2636L272.131 20.0751L272.148 20.0457C272.18 19.9871 272.21 19.9326 272.236 19.8823V19.8753L272.244 19.8599C272.267 19.8152 272.288 19.7719 272.306 19.7342C272.326 19.6965 272.341 19.6616 272.356 19.6309L272.364 19.6141L272.397 19.5429C272.396 19.5387 272.396 19.5344 272.397 19.5303C272.404 19.5121 272.41 19.4968 272.414 19.487L266.372 16.0703Z" fill="url(#paint25_linear_25_61872)"/>
<ellipse cx="234.464" cy="47.9746" rx="1.65" ry="1.6543" fill="#0C3EBB"/>
<ellipse cx="318.85" cy="49.8652" rx="4.00714" ry="4.01758" fill="#0E8EFF"/>
<ellipse cx="300.228" cy="41.5938" rx="2.35714" ry="2.36328" fill="#0C3EBB"/>
<ellipse cx="224.8" cy="34.9766" rx="2.82857" ry="2.83594" fill="#0E8EFF"/>
<path d="M225.688 77.2965L225.64 77.3285C224.328 78.2234 223.594 79.7256 223.42 81.5794C223.307 83.0816 223.474 84.5916 223.914 86.034C224.292 87.3247 224.815 88.5696 225.474 89.7456C225.814 90.3528 226.19 90.9441 226.608 91.5594C226.96 92.0628 227.328 92.5382 227.709 92.9937C228.57 94.0268 229.542 94.9645 230.609 95.7903C231.773 96.7111 233.09 97.4274 234.501 97.9078C236.465 98.539 238.315 98.4511 239.721 97.5082L239.773 97.4723L243.657 94.8275L241.981 92.4303C241.971 91.0919 241.757 89.7625 241.345 88.4871C240.941 87.2102 240.398 85.9804 239.725 84.8195C239.429 84.3081 239.105 83.7967 238.757 83.2933C238.346 82.7094 237.906 82.1466 237.437 81.6074C236.557 80.5839 235.564 79.6607 234.476 78.8547C233.487 78.1135 232.396 77.5149 231.236 77.0768L229.56 74.6797L225.688 77.2965Z" fill="#003D97"/>
<mask id="mask0_25_61872" style="mask-type:luminance" maskUnits="userSpaceOnUse" x="223" y="74" width="21" height="25">
<path d="M225.688 77.2965L225.64 77.3285C224.328 78.2234 223.594 79.7256 223.42 81.5794C223.307 83.0816 223.474 84.5916 223.914 86.034C224.292 87.3247 224.815 88.5696 225.474 89.7456C225.814 90.3528 226.19 90.9441 226.608 91.5594C226.96 92.0628 227.328 92.5382 227.709 92.9937C228.57 94.0268 229.542 94.9645 230.609 95.7903C231.773 96.7111 233.09 97.4274 234.501 97.9078C236.465 98.539 238.315 98.4511 239.721 97.5082L239.773 97.4723L243.657 94.8275L241.981 92.4303C241.971 91.0919 241.757 89.7625 241.345 88.4871C240.941 87.2102 240.398 85.9804 239.725 84.8195C239.429 84.3081 239.105 83.7967 238.757 83.2933C238.346 82.7094 237.906 82.1466 237.437 81.6074C236.557 80.5839 235.564 79.6607 234.476 78.8547C233.487 78.1135 232.396 77.5149 231.236 77.0768L229.56 74.6797L225.688 77.2965Z" fill="white"/>
</mask>
<g mask="url(#mask0_25_61872)">
<path d="M242.17 92.8165L234.343 97.9177C236.341 98.5334 238.224 98.4477 239.653 97.528L239.707 97.4929L243.657 94.9131L242.17 92.8165Z" fill="#1D75E0"/>
<path d="M225.172 77.957L225.122 77.99C223.772 78.9129 223.017 80.4622 222.838 82.3741L230.508 77.1412L229.17 75.2293L225.172 77.957Z" fill="#05398C"/>
<path d="M241.725 88.9693L231.056 96.2169C232.211 97.1282 233.518 97.8371 234.918 98.3125L242.561 93.1486L242.372 92.8798C242.363 91.5551 242.15 90.2394 241.742 88.9772C241.742 88.9772 241.729 88.9693 241.725 88.9693Z" fill="#1572CD"/>
<path d="M239.468 84.8473L227.402 93.6409V93.8697C228.266 95.0063 229.061 95.7552 230.131 96.6637V96.9015L241.529 89.3956L241.351 88.6117C240.946 87.2069 240.27 86.3992 239.595 85.1221L239.468 84.8473Z" fill="#0B64C5"/>
<path d="M237.074 81.8245L225.577 90.0795C225.904 90.6939 226.265 91.2922 226.666 91.9148C227.004 92.4242 227.358 92.9052 227.723 93.3661L239.274 85.0747C238.99 84.5573 238.679 84.0398 238.345 83.5305C237.951 82.9396 237.528 82.3702 237.077 81.8245C237.077 81.8245 237.077 81.8245 237.074 81.8245Z" fill="#0C59AE"/>
<path d="M234.2 79.6337L223.934 86.5163C224.301 87.7516 224.809 88.943 225.448 90.0685L237.083 82.2606C236.228 81.2811 235.264 80.3975 234.207 79.6261L234.2 79.6337Z" fill="#104D97"/>
<path d="M230.774 76.8781L223.42 82.1459C223.308 83.7056 223.473 85.2734 223.908 86.7709L234.343 79.3046C233.367 78.5352 232.291 77.9137 231.146 77.4588L230.774 76.8781Z" fill="#084694"/>
</g>
<ellipse cx="236.565" cy="84.6055" rx="7.25469" ry="12.2031" transform="rotate(-34.62 236.565 84.6055)" fill="url(#paint26_linear_25_61872)"/>
<path d="M229.502 74.6797C229.235 74.8679 228.99 75.0839 228.771 75.3239C228.66 75.4424 228.555 75.5664 228.458 75.6954C228.409 75.7587 228.369 75.8259 228.32 75.893C228.273 75.9578 228.229 76.0251 228.19 76.0946C227.864 76.6509 227.631 77.2539 227.499 77.8811C227.254 79.1385 227.254 80.4297 227.499 81.6871C227.736 82.9453 228.124 84.1722 228.653 85.343C229.183 86.5137 229.828 87.6321 230.578 88.6827C230.952 89.2097 231.349 89.7182 231.768 90.2083C232.188 90.6984 232.633 91.1674 233.105 91.6153C234.042 92.5132 235.085 93.2999 236.212 93.959C237.33 94.6337 238.571 95.0926 239.868 95.3107C240.517 95.4135 241.18 95.4135 241.829 95.3107C241.911 95.3107 241.988 95.2791 242.069 95.2633C242.15 95.2475 242.232 95.2316 242.309 95.2079C242.467 95.1566 242.626 95.121 242.776 95.0577C243.085 94.9418 243.38 94.7948 243.657 94.619C243.114 94.9931 242.495 95.2505 241.842 95.3739C241.185 95.4924 240.513 95.5084 239.851 95.4214C238.533 95.2215 237.265 94.7774 236.119 94.1131C234.967 93.4625 233.904 92.6738 232.954 91.7655C231.04 89.9662 229.51 87.8173 228.45 85.4418C227.916 84.2551 227.535 83.0085 227.317 81.7306C227.084 80.4499 227.106 79.1378 227.382 77.8652C227.533 77.2336 227.787 76.6293 228.133 76.0748C228.481 75.5198 228.948 75.044 229.502 74.6797V74.6797Z" fill="#67C4FB"/>
<path d="M231.857 87.9667C233.516 90.4472 235.622 92.3605 237.786 93.3631C240.369 94.5614 241.866 93.9463 242.529 93.4749C243.192 93.0036 244.281 91.7773 244.111 88.8614C243.967 86.4249 242.975 83.7167 241.315 81.2402C239.655 78.7637 237.549 76.8464 235.386 75.8479C232.803 74.6496 231.302 75.2647 230.643 75.736C229.984 76.2074 228.89 77.4336 229.061 80.3455C229.2 82.786 230.193 85.4902 231.857 87.9667Z" fill="url(#paint27_linear_25_61872)"/>
<path d="M237.92 93.2851C238.097 93.3481 238.275 93.419 238.452 93.4781L238.724 93.5648C238.814 93.5924 238.905 93.62 238.996 93.6397L239.271 93.7106L239.547 93.7657C239.638 93.7854 239.732 93.8012 239.823 93.813L240.103 93.8445C240.839 93.9317 241.585 93.813 242.258 93.5018C242.904 93.1615 243.408 92.6031 243.68 91.9259C243.963 91.2556 244.117 90.5377 244.133 89.8102C244.143 88.3227 243.876 86.8463 243.345 85.4567C242.825 84.0606 242.128 82.7367 241.273 81.5169C240.433 80.2816 239.437 79.16 238.31 78.1799C237.2 77.1898 235.914 76.4161 234.52 75.8988C233.833 75.6477 233.104 75.53 232.373 75.5521C231.644 75.5746 230.946 75.8536 230.403 76.34C229.873 76.8581 229.496 77.5126 229.315 78.2311C229.292 78.3218 229.272 78.4124 229.248 78.503C229.225 78.5936 229.209 78.6882 229.193 78.7788C229.177 78.8694 229.158 78.9639 229.146 79.0585L229.114 79.3382C229.114 79.4328 229.106 79.5273 229.091 79.6219V79.9055C229.091 80.0947 229.091 80.2995 229.091 80.4729C229.005 79.7124 229.035 78.9435 229.177 78.1917C229.323 77.4185 229.685 76.7025 230.221 76.1273C230.503 75.842 230.838 75.6145 231.206 75.4575C231.574 75.3021 231.963 75.2038 232.361 75.166C233.149 75.1133 233.939 75.2136 234.689 75.4615C236.162 75.9594 237.524 76.738 238.7 77.7544C241.054 79.7747 242.846 82.3698 243.901 85.2873C244.419 86.7367 244.653 88.2723 244.59 89.8102C244.556 90.5992 244.369 91.374 244.039 92.0913C243.863 92.4501 243.633 92.7796 243.357 93.0684C243.08 93.3583 242.748 93.5901 242.38 93.75C241.653 94.0474 240.856 94.1321 240.083 93.9942C239.331 93.867 238.602 93.628 237.92 93.2851Z" fill="#0C59AE"/>
<path d="M238.007 80.8647C237.811 80.5861 237.496 80.3993 237.143 80.3517H237.048C236.892 80.3492 236.739 80.3962 236.616 80.485L236.114 80.9253C236.236 80.8335 236.39 80.7861 236.546 80.792H236.642C236.794 80.812 236.94 80.8586 237.074 80.9293C237.246 81.0248 237.393 81.1544 237.506 81.3091L241.27 86.0234L241.771 85.5831L238.007 80.8647Z" fill="#0B64C5"/>
<path d="M237.057 81.3277L235.999 80.9223L236.033 80.5778L236.061 80.2372C236.089 79.9223 236.197 79.6293 236.368 79.4062L236.012 79.844C235.84 80.0679 235.731 80.3626 235.704 80.6791L235.674 81.0196L235.643 81.3642L236.697 81.7695L237.057 81.3277Z" fill="#0B64C5"/>
<path d="M237.964 86.983C237.868 86.9711 237.773 86.9539 237.679 86.9313C236.949 86.7437 236.309 86.3225 235.869 85.739C235.144 84.8248 235.199 84.4234 235.299 83.6881V83.5729L236.975 83.9981C236.996 83.9981 237.118 84.0299 237.223 84.0617C237.501 84.0929 237.75 84.2382 237.906 84.4592C238.083 84.6726 238.183 84.9347 238.191 85.2064C238.2 85.4155 238.116 85.6188 237.96 85.7668L238.446 85.3375C238.603 85.1881 238.686 84.9835 238.677 84.7732C238.669 84.5015 238.569 84.2394 238.392 84.026C238.237 83.8045 237.987 83.6591 237.709 83.6285L237.457 83.5609L234.218 82.766C234.151 82.7471 234.082 82.7338 234.013 82.7263C233.873 82.7044 233.729 82.714 233.594 82.7541C233.482 82.7831 233.381 82.8393 233.3 82.9171L232.814 83.3463C232.897 83.2713 232.998 83.2155 233.108 83.1834C233.244 83.148 233.386 83.1385 233.527 83.1555C233.596 83.1648 233.665 83.1795 233.732 83.1993L235.173 83.5609L234.805 83.8868L234.775 84.1333C234.671 84.8685 234.616 85.27 235.341 86.1801C235.784 86.7625 236.425 87.1833 237.156 87.3725C237.248 87.3941 237.342 87.41 237.436 87.4202C237.945 87.4965 238.464 87.3651 238.865 87.0585L238.928 87.0028L239.414 86.5696C239.394 86.5902 239.371 86.6089 239.347 86.6253C238.958 86.9199 238.458 87.0493 237.964 86.983Z" fill="#0B64C5"/>
<path d="M236.586 90.7494C236.166 90.68 235.789 90.4356 235.539 90.0704L232.036 85.1221C231.69 84.6666 231.473 84.1163 231.409 83.535C231.345 83.0274 231.462 82.513 231.737 82.0921C231.81 81.9746 231.896 81.8663 231.992 81.7695L231.533 82.2279C231.436 82.3253 231.349 82.4335 231.273 82.5504C230.999 82.9713 230.882 83.4858 230.946 83.9933C231.008 84.5751 231.225 85.1258 231.573 85.5805L235.08 90.5287C235.327 90.898 235.705 91.1447 236.127 91.212C236.469 91.2602 236.813 91.1435 237.065 90.8937L237.529 90.4354C237.275 90.6848 236.929 90.8001 236.586 90.7494Z" fill="#0B64C5"/>
<path d="M237.098 81.9944L236.882 81.9272L233.814 80.9568C233.648 80.9044 233.478 80.8678 233.306 80.8476C232.996 80.8027 232.68 80.8227 232.378 80.9064C231.931 81.0241 231.541 81.3048 231.281 81.6961C231.001 82.1128 230.881 82.622 230.946 83.1244C231.011 83.6999 231.234 84.2446 231.588 84.6955L235.176 89.5936C235.432 89.9551 235.817 90.197 236.248 90.2657C236.598 90.3159 236.953 90.2018 237.213 89.9549L237.307 89.8625L232.901 83.9057C232.762 83.7271 232.67 83.5143 232.635 83.2882C232.604 83.0871 232.645 82.8811 232.75 82.7085C232.842 82.5474 232.987 82.4252 233.159 82.364C233.291 82.3216 233.431 82.3115 233.568 82.3346C233.636 82.3426 233.703 82.3566 233.769 82.3766L236.931 83.2168L237.176 83.2882C237.448 83.3206 237.692 83.4743 237.843 83.7083C238.016 83.9338 238.114 84.2109 238.121 84.498C238.133 84.7464 238.028 84.9856 237.839 85.1408C237.68 85.261 237.481 85.311 237.287 85.2794C237.236 85.2733 237.185 85.2634 237.135 85.25C236.857 85.1571 236.615 84.9762 236.444 84.7333C236.258 84.4981 236.19 84.1873 236.26 83.8931C236.26 83.8469 236.26 83.5949 236.293 83.4983L234.84 83.1202L234.812 83.3764C234.714 84.1536 234.66 84.5779 235.368 85.544C235.798 86.1608 236.422 86.606 237.135 86.8043C237.227 86.8282 237.32 86.8464 237.413 86.8589C237.909 86.9388 238.415 86.7983 238.804 86.4724C239.227 86.0838 239.45 85.516 239.41 84.9349C239.375 84.2746 239.144 83.6412 238.747 83.1202C238.385 82.5145 237.782 82.1029 237.098 81.9944Z" fill="#D4F7FF"/>
<path d="M241.448 84.3309L238.859 80.6893C238.602 80.3246 238.28 80.0154 237.91 79.7789C237.597 79.5838 237.248 79.4585 236.887 79.4106H236.764C236.407 79.3835 236.052 79.4842 235.756 79.6961C235.473 79.9262 235.29 80.2665 235.25 80.6396L235.215 80.9872L235.171 81.339L236.531 81.7528V81.5583L236.555 81.219C236.557 81.0622 236.62 80.913 236.729 80.8052C236.842 80.7142 236.981 80.6661 237.124 80.6686H237.211C237.534 80.7174 237.822 80.9087 238.001 81.1941L241.448 86.0234L241.511 85.9614C241.89 85.6138 241.843 84.8978 241.448 84.3309Z" fill="#D4F7FF"/>
<path d="M324.047 46.7957L324.071 46.8197C324.684 47.5065 324.892 48.4577 324.74 49.5257C324.74 49.5257 324.74 49.5497 324.74 49.5634C324.592 50.4361 324.283 51.2743 323.829 52.0359C323.432 52.7223 322.959 53.3626 322.419 53.9451C322.138 54.2473 321.837 54.5426 321.515 54.8277C321.245 55.0646 320.968 55.2878 320.687 55.4973C320.049 55.9698 319.362 56.3727 318.637 56.6992C317.843 57.0688 316.992 57.3011 316.119 57.3859C314.914 57.4752 313.871 57.1662 313.203 56.4244C313.196 56.4138 313.188 56.4044 313.178 56.397L311.339 54.3366L312.634 53.1965C312.827 52.4305 313.138 51.6985 313.556 51.0263C313.967 50.3513 314.452 49.7226 315 49.1514C315.243 48.9007 315.499 48.6534 315.769 48.4131C316.085 48.1353 316.416 47.8739 316.76 47.6301C317.407 47.1671 318.104 46.7756 318.838 46.4626C319.505 46.175 320.211 45.9831 320.933 45.8926L322.225 44.7525L324.047 46.7957Z" fill="#003D97"/>
<path d="M322.208 44.7422L324.071 46.8025C324.684 47.4893 324.892 48.4405 324.74 49.5085L321.228 45.6075L322.208 44.7422Z" fill="#05398C"/>
<path d="M312.468 53.327L316.101 57.3825C314.896 57.4718 313.854 57.1627 313.185 56.421C313.179 56.4103 313.171 56.401 313.161 56.3935L311.322 54.3332L312.468 53.327Z" fill="#1D75E0"/>
<path d="M313.532 51.0229L318.633 56.706C317.84 57.0757 316.988 57.308 316.115 57.3928L312.486 53.3373L312.631 53.2103C312.824 52.4443 313.135 51.7123 313.552 51.04L313.532 51.0229Z" fill="#1572CD"/>
<path d="M314.976 49.1445L320.677 55.5041C320.039 55.9766 319.352 56.3796 318.627 56.706L313.539 51.0297C313.95 50.3547 314.434 49.726 314.983 49.1548L314.976 49.1445Z" fill="#0B64C5"/>
<path d="M316.739 47.6198L322.412 53.9485C322.132 54.2507 321.83 54.5461 321.508 54.8311C321.238 55.068 320.961 55.2912 320.68 55.5007L314.976 49.1479C315.218 48.8972 315.475 48.65 315.745 48.4096C316.061 48.1318 316.392 47.8705 316.735 47.6267L316.739 47.6198Z" fill="#0C59AE"/>
<path d="M318.821 46.4523L323.829 52.0359C323.432 52.7222 322.959 53.3626 322.419 53.9451L316.746 47.6164C317.394 47.1533 318.09 46.7618 318.824 46.4489L318.821 46.4523Z" fill="#104D97"/>
<path d="M321.207 45.6247L324.736 49.5634C324.589 50.4361 324.28 51.2743 323.825 52.0358L318.817 46.4523C319.485 46.1647 320.19 45.9728 320.912 45.8822L321.207 45.6247Z" fill="#084694"/>
<ellipse cx="316.778" cy="49.5549" rx="7.25973" ry="4.31576" transform="rotate(-41.63 316.778 49.5549)" fill="url(#paint28_linear_25_61872)"/>
<path d="M322.232 44.7697C322.497 45.0537 322.696 45.3911 322.817 45.7586C322.937 46.1282 322.996 46.5141 322.994 46.9021C322.969 47.6773 322.795 48.4406 322.482 49.1514C322.176 49.8637 321.782 50.5351 321.307 51.1499C320.371 52.388 319.193 53.4272 317.844 54.2061C317.173 54.6009 316.455 54.9112 315.707 55.1298C314.958 55.3539 314.173 55.4343 313.393 55.3668C313.004 55.3247 312.623 55.2203 312.267 55.0577C311.915 54.8953 311.601 54.6614 311.346 54.3709C311.478 54.5109 311.626 54.6353 311.786 54.7418C311.942 54.852 312.111 54.9441 312.288 55.0165C312.642 55.1624 313.018 55.2517 313.4 55.2809C314.167 55.3291 314.935 55.2324 315.665 54.9959C316.398 54.7689 317.102 54.4565 317.761 54.0653C318.42 53.6768 319.04 53.2248 319.61 52.7158C320.188 52.2125 320.714 51.6548 321.183 51.0503C321.651 50.4479 322.046 49.7933 322.36 49.0998C322.682 48.4083 322.869 47.6626 322.911 46.9021C322.927 46.5219 322.881 46.1417 322.776 45.7758C322.749 45.685 322.718 45.5956 322.682 45.5079C322.647 45.4188 322.607 45.3316 322.561 45.247C322.469 45.0768 322.358 44.9168 322.232 44.7697V44.7697Z" fill="#67C4FB"/>
<path d="M319.153 52.2076C317.94 53.3313 316.445 54.1116 314.824 54.4671C313.092 54.783 312.285 54.2095 311.952 53.8387C311.62 53.4678 311.142 52.599 311.661 50.937C312.838 47.8075 315.503 45.4599 318.776 44.6701C320.507 44.3541 321.318 44.9276 321.647 45.2985C321.976 45.6693 322.457 46.5347 321.941 48.2002C321.388 49.7583 320.426 51.1418 319.153 52.2076Z" fill="url(#paint29_linear_25_61872)"/>
<path d="M314.824 54.4671C314.371 54.579 313.904 54.623 313.438 54.5976C312.955 54.5698 312.491 54.4066 312.098 54.1271C311.901 53.9791 311.736 53.7934 311.613 53.5811C311.486 53.3679 311.395 53.1361 311.343 52.8943C311.247 52.4229 311.247 51.9373 311.343 51.4658C311.53 50.5381 311.899 49.656 312.43 48.8698C313.48 47.298 314.924 46.0245 316.621 45.1749C317.465 44.7503 318.383 44.4914 319.326 44.4125C319.811 44.377 320.298 44.4354 320.76 44.5842C320.993 44.6634 321.212 44.7793 321.408 44.9276C321.607 45.0754 321.774 45.261 321.9 45.4736C322.133 45.8928 322.241 46.3693 322.211 46.8472C322.185 47.3103 322.087 47.7666 321.92 48.2002C321.945 48.0868 321.972 47.977 321.993 47.8568C322.014 47.7366 322.038 47.6336 322.049 47.5134C322.08 47.2858 322.091 47.0561 322.083 46.8266C322.077 46.3816 321.947 45.9469 321.709 45.5698C321.458 45.2163 321.091 44.9612 320.67 44.8486C320.243 44.7346 319.797 44.7008 319.357 44.7491C318.461 44.8554 317.593 45.1268 316.798 45.5492C315.993 45.9629 315.245 46.4764 314.571 47.0773C313.888 47.6697 313.285 48.3473 312.777 49.093C312.259 49.8272 311.885 50.6505 311.672 51.5208C311.572 51.9475 311.553 52.3887 311.616 52.8222C311.681 53.251 311.894 53.6442 312.219 53.9348C312.569 54.2138 312.989 54.392 313.435 54.4499C313.664 54.486 313.896 54.501 314.127 54.4946C314.242 54.4946 314.356 54.4946 314.474 54.4946L314.824 54.4671Z" fill="#0C59AE"/>
<path d="M316.244 47.479L316.285 47.4516L316.327 47.4275H316.348L316.413 47.3966C316.465 47.3767 316.52 47.3651 316.576 47.3623C316.615 47.359 316.655 47.359 316.694 47.3623C316.777 47.3731 316.853 47.4133 316.909 47.4756L316.708 47.2043C316.651 47.1417 316.574 47.1005 316.49 47.0876C316.452 47.0841 316.413 47.0841 316.375 47.0876C316.32 47.0904 316.265 47.102 316.212 47.1219L316.147 47.1528H316.126L316.091 47.1734L316.05 47.2043H316.032C316.02 47.2149 316.008 47.2264 315.998 47.2387L313.74 49.5016L313.94 49.7729L316.195 47.5065L316.244 47.479Z" fill="#0B64C5"/>
<path d="M315.904 49.4879C315.904 49.4879 315.904 49.4604 315.904 49.4467C315.904 49.4329 315.904 49.4467 315.904 49.4226C315.906 49.4136 315.906 49.4042 315.904 49.3952V49.3711C315.903 49.3643 315.903 49.3573 315.904 49.3505C315.912 49.3259 315.921 49.3019 315.932 49.2784L315.97 49.2132C315.984 49.19 316 49.1682 316.018 49.1479L316.056 49.1067L316.101 49.0655L316.146 49.0312L316.188 49.0071H316.219H316.264H316.313H316.437H316.607H316.656L316.676 48.286L316.479 48.0182L316.458 48.7393H316.406H316.24H316.209H316.16H316.115H316.084L316.043 48.7599L316.001 48.7908L315.97 48.8217L315.932 48.8629L315.883 48.9281C315.869 48.9487 315.856 48.9705 315.845 48.9934L315.814 49.0689C315.816 49.0768 315.816 49.0851 315.814 49.093C315.816 49.102 315.816 49.1114 315.814 49.1205C315.814 49.1205 315.814 49.1376 315.814 49.1479C315.814 49.1479 315.814 49.1582 315.814 49.1479C315.814 49.1479 315.814 49.1479 315.814 49.172C315.812 49.2017 315.812 49.2315 315.814 49.2612C315.814 49.2612 315.814 49.2612 315.814 49.2887C315.814 49.3162 315.814 49.3265 315.814 49.3471V49.378C315.813 49.394 315.813 49.4101 315.814 49.4261V49.457C315.815 49.4661 315.815 49.4753 315.814 49.4844L315.835 49.5119L316.032 49.7832C316.019 49.7657 316.008 49.7473 315.998 49.7283V49.6974C315.991 49.6817 315.985 49.6656 315.98 49.6493V49.6184C315.98 49.5978 315.98 49.5806 315.98 49.56C315.98 49.5394 315.98 49.56 315.98 49.5325C315.954 49.5191 315.929 49.5042 315.904 49.4879Z" fill="#0B64C5"/>
<path d="M318.197 48.8251L318.443 48.808H318.474C318.583 48.803 318.692 48.8267 318.789 48.8766C318.858 48.9134 318.917 48.9651 318.962 49.0277L318.765 48.7599C318.72 48.6962 318.66 48.6434 318.592 48.6054C318.494 48.5565 318.386 48.534 318.277 48.5401H318.245H318L317.865 48.5607L318.062 48.832L318.197 48.8251Z" fill="#0B64C5"/>
<path d="M316.444 50.8237H316.479L316.579 50.8031H316.604L316.725 50.7687H316.756L316.85 50.731H316.881L316.999 50.6726H317.019L317.082 50.6348L317.109 50.6142L317.158 50.5833L317.227 50.5284L317.276 50.4906L317.3 50.47L317.373 50.4013L317.445 50.3258L317.466 50.3017L317.504 50.2605L317.546 50.2056L317.567 50.1815C317.586 50.158 317.604 50.1327 317.619 50.106C317.633 50.0855 317.646 50.0636 317.657 50.0407L317.677 50.003V49.9789C317.678 49.9663 317.678 49.9537 317.677 49.9412C317.679 49.9332 317.679 49.9251 317.677 49.9171V49.8965V49.8553C317.679 49.8462 317.679 49.8369 317.677 49.8278V49.7832V49.6939V49.6733C317.679 49.6459 317.679 49.6183 317.677 49.5909C317.679 49.5589 317.679 49.5268 317.677 49.4947V49.4673C317.677 49.4364 317.677 49.4055 317.677 49.3711C317.681 49.3277 317.681 49.284 317.677 49.2406V47.6301C317.677 47.5923 317.677 47.5546 317.677 47.5202C317.679 47.4871 317.679 47.4538 317.677 47.4206C317.671 47.3885 317.661 47.3573 317.646 47.3279C317.633 47.2972 317.618 47.2673 317.601 47.2387L317.57 47.1906L317.373 46.9227L317.404 46.9708C317.421 46.9983 317.436 47.027 317.449 47.0567C317.449 47.0876 317.473 47.1185 317.48 47.1494C317.491 47.1817 317.498 47.2151 317.501 47.249C317.501 47.2867 317.501 47.3211 317.501 47.3588V48.9694C317.505 49.0128 317.505 49.0564 317.501 49.0998C317.501 49.1342 317.501 49.1651 317.501 49.196V49.2235C317.503 49.2555 317.503 49.2876 317.501 49.3196C317.503 49.3471 317.503 49.3746 317.501 49.402V49.4226V49.5119C317.501 49.5119 317.501 49.5119 317.501 49.5325V49.5772C317.503 49.5862 317.503 49.5956 317.501 49.6046V49.6458C317.503 49.6572 317.503 49.6688 317.501 49.6802C317.501 49.6882 317.501 49.6962 317.501 49.7042L317.483 49.742V49.766L317.459 49.8107V49.8313L317.418 49.8965C317.418 49.9206 317.383 49.9446 317.366 49.9686L317.345 49.9927L317.303 50.0476L317.258 50.0957L317.238 50.1197L317.165 50.1953L317.064 50.2845C317.051 50.2989 317.036 50.3116 317.019 50.3223L316.95 50.3773C316.933 50.3867 316.916 50.3983 316.902 50.4116L316.808 50.4665L316.69 50.5249H316.659L316.562 50.5661H316.534L316.413 50.6039H316.389L316.289 50.6245H316.254C316.212 50.6245 316.174 50.6245 316.133 50.6245C315.786 50.6538 315.445 50.5158 315.218 50.2536L315.177 50.1987L315.374 50.47L315.416 50.5249C315.645 50.7843 315.983 50.9217 316.33 50.8958L316.444 50.8237Z" fill="#0B64C5"/>
<path d="M320.085 49.4673C320.083 49.4479 320.083 49.4283 320.085 49.4089V49.3608C320.086 49.3414 320.086 49.3219 320.085 49.3025V49.2544C320.083 49.235 320.083 49.2154 320.085 49.196C320.083 49.1812 320.083 49.1662 320.085 49.1514C320.085 49.1308 320.085 49.1102 320.085 49.0896V49.0449C320.08 49.0239 320.075 49.0032 320.067 48.9831V48.9453L320.04 48.8767V48.8423L319.995 48.7462L319.794 48.4749C319.811 48.5058 319.825 48.5401 319.839 48.571C319.84 48.5825 319.84 48.5939 319.839 48.6054C319.848 48.6277 319.856 48.6507 319.863 48.6741C319.864 48.6877 319.864 48.7016 319.863 48.7153C319.865 48.7358 319.865 48.7565 319.863 48.7771V48.8183C319.863 48.8389 319.863 48.8595 319.863 48.8801C319.863 48.9007 319.863 48.911 319.863 48.9247V48.9831V49.0312C319.865 49.0506 319.865 49.0701 319.863 49.0896V49.1376C319.861 49.1571 319.861 49.1766 319.863 49.196C319.863 49.196 319.863 49.2269 319.863 49.2441V49.3162L319.842 49.4192V49.4536L319.821 49.5222V49.5531C319.821 49.5772 319.821 49.5978 319.797 49.6184C319.796 49.6309 319.796 49.6436 319.797 49.6562L319.766 49.718L319.745 49.7523L319.707 49.8176C319.708 49.8267 319.708 49.8359 319.707 49.845L319.648 49.9274L319.575 50.0167C319.547 50.0504 319.517 50.0825 319.485 50.1129L317.148 52.4102L317.103 52.4479L317.078 52.4685L317.04 52.496H317.019H316.999L316.929 52.5338H316.905L316.818 52.5681L316.739 52.5887H316.715C316.685 52.5904 316.655 52.5904 316.625 52.5887C316.369 52.6021 316.125 52.4872 315.973 52.2831L316.171 52.551C316.321 52.7568 316.566 52.8732 316.822 52.86H316.912H316.936H317.016L317.106 52.8222H317.127L317.196 52.7845H317.22L317.255 52.757L317.279 52.7364H317.303L317.324 52.7124L319.662 50.4185C319.694 50.3881 319.724 50.356 319.752 50.3223L319.821 50.2365C319.841 50.2127 319.858 50.1874 319.873 50.1609L319.891 50.1335L319.929 50.0682L319.95 50.0339C319.948 50.0225 319.948 50.0109 319.95 49.9995C319.948 49.9905 319.948 49.9811 319.95 49.9721C319.948 49.9595 319.948 49.9469 319.95 49.9343L319.974 49.8691C319.974 49.8576 319.974 49.8462 319.974 49.8347C319.974 49.8176 319.974 49.7969 319.974 49.7763V49.7454C319.974 49.7111 319.974 49.6768 319.995 49.6424C320.015 49.6081 319.995 49.6218 319.995 49.6081C319.996 49.5956 319.996 49.5828 319.995 49.5703C319.995 49.5703 320.081 49.481 320.085 49.4673Z" fill="#0B64C5"/>
<path d="M313.705 49.4776L313.906 49.7489L313.708 49.4776" fill="#9A7D7C"/>
<path d="M313.736 49.5188L313.937 49.7901L313.906 49.7489L313.705 49.4776L313.736 49.5188Z" fill="#957978"/>
<path d="M319.735 48.3571L320.24 48.9917C320.293 49.0639 320.355 49.1362 320.408 49.2166L319.895 48.582C319.85 48.5097 319.788 48.4294 319.735 48.3571Z" fill="#B89695"/>
<path d="M319.895 48.582L320.408 49.2165C320.428 49.2557 320.452 49.2933 320.479 49.329L319.965 48.6945C319.945 48.6553 319.921 48.6177 319.895 48.582Z" fill="#BD9A99"/>
<path d="M315.904 52.3518L316.102 52.6196L316.05 52.5544L315.852 52.2831L315.904 52.3518Z" fill="#957978"/>
<path d="M317.175 50.0785C317.508 49.8148 317.669 49.392 317.594 48.9762C317.598 48.9328 317.598 48.8892 317.594 48.8457V47.2352C317.598 47.0276 317.52 46.8267 317.376 46.6755C317.233 46.5286 317.041 46.4383 316.836 46.4214C316.763 46.4146 316.69 46.4146 316.618 46.4214C316.464 46.4309 316.313 46.4657 316.171 46.5244C315.948 46.6106 315.747 46.7443 315.582 46.9159L313.875 48.6328C313.619 48.8486 313.55 49.2117 313.708 49.5051L313.739 49.5463L315.998 47.2833C316.069 47.2095 316.155 47.151 316.251 47.1116C316.303 47.0917 316.358 47.0801 316.413 47.0773C316.451 47.0738 316.49 47.0738 316.528 47.0773C316.612 47.0902 316.689 47.1314 316.746 47.194C316.799 47.2599 316.824 47.3437 316.815 47.4275L316.787 49.0037C316.787 49.0037 316.787 49.0827 316.787 49.1445C316.811 49.2973 316.757 49.4519 316.642 49.5566C316.528 49.6735 316.376 49.7465 316.212 49.7626C316.073 49.7754 315.935 49.7229 315.84 49.6205C315.745 49.5182 315.703 49.3777 315.728 49.2406C315.748 49.0894 315.819 48.9493 315.928 48.8423C316.038 48.7285 316.193 48.6704 316.351 48.6843H316.517H316.555L316.576 47.9632H316.441C316.063 47.9537 315.701 48.1155 315.457 48.4028C315.206 48.6489 315.04 48.9674 314.983 49.3128C314.928 49.6344 315.013 49.9641 315.218 50.2193C315.445 50.4814 315.786 50.6194 316.133 50.5902C316.532 50.5534 316.904 50.3711 317.175 50.0785Z" fill="#D4F7FF"/>
<path d="M319.735 48.4749C319.599 48.2273 319.39 48.0271 319.136 47.9014C318.895 47.7862 318.63 47.7342 318.363 47.7503H318.304L318.062 47.7744L317.826 47.7984L317.864 48.5676L318 48.547H318.245H318.287C318.396 48.5408 318.505 48.5633 318.602 48.6122C318.702 48.6686 318.781 48.7537 318.831 48.856C318.882 48.963 318.896 49.0835 318.872 49.1994C318.848 49.321 318.783 49.4309 318.689 49.5119L315.863 52.2831L315.915 52.3518C316.066 52.5559 316.311 52.6707 316.566 52.6574C316.766 52.6432 316.955 52.5593 317.099 52.4205L319.437 50.1232C319.665 49.9058 319.82 49.624 319.88 49.3162C319.928 49.0275 319.877 48.7314 319.735 48.4749Z" fill="#D4F7FF"/>
<path d="M296.904 84.3936H296.933C297.631 84.1408 298.202 83.6236 298.525 82.9531C298.792 82.4209 298.949 81.8398 298.987 81.2449C299.021 80.7349 298.987 80.2226 298.885 79.7218C298.787 79.2382 298.631 78.768 298.422 78.3211C298.208 77.8601 297.934 77.4293 297.608 77.04C297.242 76.5796 296.79 76.1956 296.277 75.9098C295.579 75.5141 294.749 75.4264 293.984 75.6678H293.956L292.287 76.2372L292.248 77.4044C292.051 77.8971 291.941 78.4201 291.921 78.9503C291.902 79.458 291.948 79.9661 292.058 80.462C292.107 80.6816 292.169 80.8983 292.242 81.1111C292.327 81.3645 292.43 81.6118 292.548 81.8513C292.774 82.3109 293.061 82.738 293.4 83.1211C293.72 83.4845 294.095 83.7948 294.512 84.0406L295.256 84.9402L296.904 84.3936Z" fill="#1572CD"/>
<path d="M292.36 77.3256L296.344 75.9148C295.663 75.5138 294.854 75.425 294.108 75.6696H294.081L292.454 76.2466L292.36 77.3256Z" fill="#05398C"/>
<path d="M296.688 84.4495H296.716C297.42 84.2241 297.997 83.7631 298.322 83.1653L294.338 84.3632L295.008 84.957L296.688 84.4495Z" fill="#1D75E0"/>
<path d="M291.917 79.1173L297.672 77.1098C297.3 76.6488 296.844 76.2657 296.33 75.9818L292.209 77.4078L292.249 77.5276C292.051 78.0334 291.94 78.5701 291.92 79.1144L291.917 79.1173Z" fill="#084694"/>
<path d="M292.054 80.461L298.557 78.2016C298.339 77.7251 298.06 77.28 297.728 76.8777L291.921 78.8959C291.902 79.4205 291.948 79.9456 292.06 80.4581L292.054 80.461Z" fill="#104D97"/>
<path d="M292.836 81.8048L299 79.6251C298.905 79.1404 298.754 78.6692 298.551 78.2214L292.36 80.4125C292.408 80.6326 292.467 80.8497 292.538 81.063C292.621 81.3169 292.721 81.5648 292.836 81.8048Z" fill="#0C59AE"/>
<path d="M293.618 83.1486L298.988 81.1496C299.02 80.6191 298.987 80.0862 298.89 79.5652L292.802 81.8278C293.018 82.3058 293.293 82.7501 293.618 83.1486Z" fill="#0B64C5"/>
<path d="M294.471 84.0444L298.526 82.6574C298.8 82.1126 298.961 81.5178 299 80.909L293.245 82.8759C293.574 83.2479 293.959 83.5655 294.386 83.8171L294.471 84.0444Z" fill="#1572CD"/>
<ellipse cx="293.876" cy="80.5" rx="3.60424" ry="4.57136" transform="rotate(-18.84 293.876 80.5)" fill="url(#paint30_linear_25_61872)"/>
<path d="M295.338 84.9402C295.592 84.8475 295.833 84.72 296.053 84.5613C296.273 84.4026 296.472 84.2164 296.646 84.0072C296.99 83.5864 297.242 83.0974 297.387 82.5719C297.534 82.0486 297.596 81.5046 297.569 80.9614C297.516 79.8709 297.16 78.8174 296.54 77.9213C296.23 77.4797 295.851 77.0919 295.418 76.773C294.986 76.4438 294.489 76.2117 293.961 76.0926C293.698 76.0319 293.428 76.0068 293.158 76.018C292.887 76.0293 292.619 76.0756 292.36 76.1558C292.877 75.9731 293.434 75.9334 293.973 76.041C294.511 76.1514 295.021 76.3765 295.466 76.7012C295.908 77.0251 296.293 77.4209 296.606 77.8725C296.922 78.3246 297.174 78.8194 297.353 79.3423C297.534 79.8678 297.64 80.417 297.666 80.9729C297.693 81.5258 297.625 82.0792 297.467 82.6092C297.308 83.1369 297.042 83.6257 296.686 84.0446C296.325 84.4597 295.859 84.7691 295.338 84.9402Z" fill="#67C4FB"/>
<path d="M296.94 79.4438C296.589 78.3984 295.874 77.5047 294.919 76.9162C293.825 76.2674 292.95 76.4078 292.526 76.5482C292.101 76.6887 291.319 77.1099 290.86 78.2642C290.115 80.4022 290.945 82.7601 292.881 84.0048C293.975 84.6535 294.85 84.5159 295.274 84.3727C295.698 84.2294 296.481 83.811 296.94 82.6595C297.326 81.6204 297.326 80.4829 296.94 79.4438Z" fill="url(#paint31_linear_25_61872)"/>
<path d="M294.861 76.9782C294.571 76.8162 294.26 76.6946 293.937 76.617C293.617 76.5459 293.286 76.5365 292.963 76.5894C292.802 76.618 292.644 76.6652 292.494 76.73C292.347 76.7938 292.207 76.8734 292.078 76.9672C291.816 77.1569 291.593 77.3934 291.418 77.6648C291.245 77.9378 291.11 78.2327 291.016 78.5417C290.921 78.8493 290.862 79.1666 290.839 79.4875C290.818 79.8114 290.83 80.1367 290.875 80.4582C290.924 80.785 291.004 81.1064 291.115 81.4178C291.222 81.7248 291.356 82.0219 291.515 82.3057C291.676 82.5784 291.862 82.8351 292.072 83.0722C292.287 83.3143 292.53 83.5308 292.795 83.7175C293.059 83.9038 293.347 84.0549 293.65 84.167C293.954 84.2755 294.276 84.326 294.599 84.3159C294.759 84.3118 294.918 84.2896 295.073 84.2497C295.229 84.2077 295.38 84.1485 295.523 84.0732C295.812 83.9187 296.068 83.7089 296.276 83.4555C296.484 83.1967 296.655 82.911 296.786 82.6062C296.679 82.9248 296.526 83.2258 296.331 83.4997C296.131 83.7748 295.878 84.0073 295.586 84.1835C295.437 84.2701 295.279 84.3403 295.115 84.3931C294.949 84.4421 294.779 84.4735 294.607 84.4868C294.262 84.5088 293.915 84.4648 293.587 84.3572C292.934 84.1354 292.349 83.7488 291.89 83.2349C290.968 82.202 290.504 80.8405 290.602 79.4599C290.65 78.7707 290.877 78.1058 291.258 77.5297C291.453 77.2439 291.7 76.9978 291.987 76.8045C292.131 76.7095 292.285 76.6309 292.447 76.5701C292.608 76.5094 292.776 76.4678 292.947 76.446C293.285 76.4079 293.628 76.437 293.956 76.5315C294.278 76.6347 294.583 76.7853 294.861 76.9782Z" fill="#0C59AE"/>
<path d="M292.059 80.5344V80.5148C292.058 80.5027 292.058 80.4905 292.059 80.4784C292.058 80.4654 292.058 80.4523 292.059 80.4393C292.059 80.4393 292.059 80.4393 292.059 80.4225V80.3665C292.052 80.323 292.052 80.2786 292.059 80.2351C292.066 80.2044 292.077 80.1745 292.089 80.1456C292.115 80.0834 292.162 80.0327 292.222 80.0029L291.973 80.0952C291.914 80.1243 291.866 80.1739 291.84 80.2351C291.828 80.2642 291.818 80.2941 291.81 80.3246C291.803 80.3691 291.803 80.4144 291.81 80.4588V80.512C291.809 80.5185 291.809 80.5251 291.81 80.5316V80.5623C291.808 80.5679 291.808 80.5736 291.81 80.5791C291.809 80.5912 291.809 80.6034 291.81 80.6155V80.6323C291.815 80.645 291.822 80.6571 291.829 80.6686L293.089 82.8868L293.338 82.7917L292.084 80.5707C292.074 80.5596 292.066 80.5474 292.059 80.5344Z" fill="#0B64C5"/>
<path d="M293.524 81.2225H293.496H293.477H293.457H293.441H293.427L293.377 81.1833C293.361 81.1698 293.346 81.1549 293.333 81.1386L293.294 81.0882L293.269 81.0491C293.269 81.0323 293.252 81.0183 293.247 81.0043C293.241 80.9908 293.236 80.9767 293.233 80.9624V80.9288C293.232 80.9205 293.232 80.912 293.233 80.9036C293.232 80.8915 293.232 80.8793 293.233 80.8673C293.233 80.8673 293.233 80.8421 293.233 80.8309C293.233 80.8309 293.233 80.8113 293.233 80.8001V80.7554C293.233 80.7554 293.25 80.6742 293.261 80.6267C293.272 80.5791 293.261 80.5959 293.261 80.5847L292.707 80.4169L292.458 80.5092L293.012 80.6798V80.719L292.984 80.8505V80.8924C292.984 80.8924 292.984 80.912 292.984 80.9232C292.984 80.9372 292.984 80.9484 292.984 80.9624C292.983 80.9744 292.983 80.9866 292.984 80.9987C292.982 81.008 292.982 81.0174 292.984 81.0267V81.0631C292.982 81.0761 292.982 81.0892 292.984 81.1022L293 81.133L293.025 81.1721C293.037 81.191 293.05 81.2088 293.064 81.2253L293.108 81.2673L293.158 81.3064H293.175H293.194H293.214H293.233L293.302 81.3288H293.324H293.369H293.435H293.463H293.524H293.551L293.801 81.2337H293.751H293.723H293.657H293.61H293.59C293.568 81.2327 293.545 81.2289 293.524 81.2225Z" fill="#0B64C5"/>
<path d="M293.502 79.3232L293.54 79.1274C293.539 79.12 293.539 79.1124 293.54 79.105C293.557 79.02 293.598 78.9415 293.657 78.8784C293.7 78.8329 293.753 78.7984 293.812 78.7777L293.563 78.87C293.504 78.8907 293.451 78.9252 293.408 78.9707C293.348 79.0348 293.308 79.1143 293.291 79.2001C293.291 79.2001 293.291 79.2141 293.291 79.2225L293.252 79.4155V79.5218L293.502 79.4295V79.3232Z" fill="#0B64C5"/>
<path d="M294.665 81.0966C294.665 81.0966 294.665 81.077 294.665 81.0687C294.665 81.0603 294.665 81.0127 294.665 80.9847V80.968C294.665 80.9344 294.665 80.9008 294.665 80.8673C294.665 80.8337 294.665 80.8505 294.665 80.8421V80.7582C294.665 80.7582 294.665 80.7414 294.665 80.733C294.665 80.7246 294.665 80.6631 294.645 80.6295C294.644 80.624 294.644 80.6182 294.645 80.6127L294.629 80.554V80.5288L294.612 80.484L294.587 80.4197L294.565 80.3749V80.3526L294.526 80.2826L294.485 80.2099L294.471 80.1875L294.446 80.1512L294.413 80.1064L294.399 80.0868C294.382 80.0673 294.368 80.0477 294.352 80.0309L294.313 79.9861H294.299L294.274 79.9638H294.258L294.233 79.9414H294.213H294.199L294.169 79.9246H294.152C294.142 79.9168 294.131 79.9111 294.119 79.9078C294.099 79.897 294.078 79.8886 294.055 79.8826H294.039L293.975 79.8631L293.9 79.8435H293.881L293.806 79.8239L293.704 79.7987L292.416 79.3512L292.33 79.3344H292.25H292.233H292.159H292.084H292.042L291.793 79.4267H291.838L291.912 79.4099H291.926H292.001H292.017H292.098C292.127 79.4128 292.156 79.4184 292.184 79.4267L293.416 79.7735L293.518 79.8015L293.593 79.8183H293.612L293.687 79.8351L293.751 79.8547H293.767L293.831 79.8798H293.848L293.881 79.8966H293.898C293.909 79.9015 293.919 79.9081 293.928 79.9162L293.953 79.9302H293.97L293.994 79.9498H294.011L294.039 79.9777H294.053L294.091 80.0225L294.138 80.0812L294.152 80.1008L294.186 80.1456L294.213 80.1875C294.217 80.1956 294.221 80.2031 294.227 80.2099L294.269 80.2826C294.288 80.3162 294.302 80.347 294.318 80.3777C294.324 80.3932 294.33 80.4081 294.338 80.4225L294.354 80.5707L294.371 80.6155L294.396 80.6966C294.394 80.703 294.394 80.7098 294.396 80.7162C294.396 80.7498 294.396 80.7833 294.415 80.8197C294.435 80.8561 294.415 80.8365 294.415 80.8449V80.926C294.415 80.926 294.415 80.9428 294.415 80.9512C294.415 80.9596 294.415 81.0183 294.415 81.0519V81.0714C294.415 81.0994 294.415 81.1274 294.415 81.1554C294.414 81.1637 294.414 81.1722 294.415 81.1805L294.399 81.2784C294.346 81.5506 294.168 81.7811 293.92 81.8994L293.87 81.919L294.119 81.8267L294.169 81.8043C294.417 81.686 294.595 81.4555 294.648 81.1833C294.656 81.161 294.662 81.1302 294.665 81.0966Z" fill="#0B64C5"/>
<path d="M294.39 78.0113H294.346H294.31H294.266H294.227H294.183H294.144H293.975H293.92H293.889H293.806L293.557 78.1036L293.643 78.0896H293.895H293.933H293.978H294.017H294.061H294.097L294.141 78.1036L294.177 78.1204L294.23 78.1428L294.304 78.1819L294.327 78.1959L294.376 78.2267L294.399 78.2435L294.443 78.277L294.468 78.2994L294.507 78.3358L294.532 78.3581L294.573 78.4029L294.59 78.4225C294.609 78.4417 294.626 78.4622 294.642 78.484L294.695 78.5595C294.715 78.5883 294.733 78.6182 294.75 78.6491L296.016 80.9428L296.035 80.9847V81.0099L296.049 81.0435C296.049 81.0435 296.049 81.0435 296.049 81.0658C296.049 81.0882 296.049 81.0658 296.049 81.0826L296.066 81.1442C296.066 81.1442 296.066 81.1442 296.066 81.1637C296.067 81.1889 296.067 81.2141 296.066 81.2393V81.312C296.064 81.3185 296.064 81.3251 296.066 81.3316C296.067 81.3558 296.067 81.3801 296.066 81.4043C296.022 81.6038 295.881 81.7672 295.692 81.8379L295.941 81.7456C296.13 81.674 296.271 81.511 296.315 81.312C296.315 81.2868 296.315 81.2617 296.315 81.2393C296.313 81.2328 296.313 81.2261 296.315 81.2197V81.1442V81.0686C296.315 81.0686 296.315 81.0686 296.315 81.0519L296.298 80.9875V80.9707C296.297 80.9633 296.297 80.9558 296.298 80.9484L296.284 80.9148C296.284 80.9148 296.284 80.9148 296.284 80.8924V80.87C296.283 80.8635 296.283 80.857 296.284 80.8505L295.016 78.5623C294.999 78.5316 294.98 78.5036 294.961 78.4728L294.911 78.4001C294.894 78.3833 294.88 78.3637 294.864 78.3442L294.847 78.3246L294.806 78.2798L294.781 78.2602L294.761 78.2379L294.742 78.2211L294.717 78.2015L294.673 78.1679L294.651 78.1512L294.609 78.126L294.587 78.1092L294.512 78.07H294.49H294.46L294.39 78.0113Z" fill="#0B64C5"/>
<path d="M293.059 82.9092L293.308 82.8169L293.059 82.912" fill="#9A7D7C"/>
<path d="M293.095 82.8952L293.344 82.8001L293.308 82.8169L293.059 82.9092L293.095 82.8952Z" fill="#957978"/>
<path d="M293.427 78.6253L294.07 78.3025L294.298 78.2076L293.655 78.5209L293.427 78.6253Z" fill="#B89695"/>
<path d="M293.677 78.5209L294.32 78.2076H294.427L293.784 78.5209H293.677Z" fill="#BD9A99"/>
<path d="M295.719 81.8379L295.969 81.7456L295.908 81.7708L295.658 81.8631L295.719 81.8379Z" fill="#957978"/>
<path d="M294.246 80.3749C294.114 80.063 293.825 79.8485 293.49 79.8155L293.388 79.7875L292.156 79.4519C291.997 79.4034 291.827 79.4195 291.68 79.4966C291.538 79.5787 291.429 79.707 291.37 79.8603C291.346 79.9091 291.325 79.9595 291.309 80.0113C291.288 80.1316 291.288 80.2546 291.309 80.3749C291.327 80.565 291.388 80.7485 291.486 80.912L292.427 82.5903C292.537 82.8362 292.805 82.9679 293.064 82.9036H293.1L291.84 80.6854C291.799 80.6152 291.773 80.5371 291.763 80.4561C291.756 80.4116 291.756 80.3663 291.763 80.3218C291.771 80.2913 291.781 80.2614 291.793 80.2323C291.82 80.1711 291.867 80.1215 291.926 80.0924C291.988 80.0657 292.058 80.0657 292.12 80.0924L293.322 80.4505L293.43 80.484C293.549 80.5013 293.652 80.5765 293.706 80.6854C293.771 80.7979 293.794 80.9294 293.773 81.0575C293.754 81.168 293.686 81.2632 293.587 81.3144C293.488 81.3656 293.371 81.3668 293.272 81.3176C293.154 81.273 293.056 81.1877 292.995 81.077C292.93 80.9693 292.917 80.8371 292.962 80.719L292.989 80.5875V80.5484L292.436 80.3777L292.416 80.4868C292.334 80.7726 292.383 81.0804 292.549 81.326C292.683 81.5735 292.893 81.77 293.147 81.8854C293.383 81.9915 293.653 81.9915 293.889 81.8854C294.137 81.7671 294.315 81.5366 294.368 81.2645C294.434 80.9627 294.39 80.6474 294.246 80.3749Z" fill="#D4F7FF"/>
<path d="M293.557 78.0532C293.343 78.1078 293.15 78.2257 293.003 78.3917C292.866 78.5517 292.771 78.7441 292.726 78.9511V78.9987L292.693 79.1889L292.663 79.3763L293.261 79.5106V79.4043L293.299 79.2113C293.299 79.2113 293.299 79.1945 293.299 79.1889C293.316 79.103 293.357 79.0236 293.416 78.9595C293.479 78.8945 293.562 78.8514 293.651 78.8365C293.745 78.8196 293.842 78.8333 293.928 78.8756C294.016 78.9217 294.087 78.9953 294.13 79.0854L295.67 81.8519L295.731 81.8267C295.912 81.7562 296.047 81.6005 296.093 81.4099C296.126 81.2526 296.101 81.0888 296.024 80.9484L294.756 78.663C294.637 78.4411 294.453 78.2615 294.23 78.1483C294.022 78.0428 293.785 78.0093 293.557 78.0532Z" fill="#D4F7FF"/>
<g opacity="0.65">
<path d="M255.212 13.3648H255.196C254.792 13.2232 254.461 12.9311 254.275 12.5517C254.119 12.2495 254.028 11.9189 254.008 11.5806C253.987 11.2917 254.007 11.0013 254.068 10.7178C254.098 10.5695 254.138 10.4231 254.187 10.2797C254.231 10.1577 254.28 10.0403 254.332 9.92509C254.452 9.66491 254.607 9.42179 254.793 9.20237C255.009 8.94846 255.272 8.7376 255.569 8.58129C255.973 8.3579 256.453 8.30883 256.895 8.44578H256.909L257.887 8.75971L257.91 9.42145C258.024 9.69924 258.087 9.99415 258.099 10.2932C258.112 10.5807 258.086 10.8686 258.021 11.1492C257.993 11.2739 257.957 11.3968 257.915 11.5173C257.865 11.6601 257.805 11.7997 257.737 11.9352C257.608 12.1946 257.443 12.4354 257.247 12.6511C257.063 12.857 256.846 13.0324 256.605 13.1706L256.174 13.681L255.212 13.3648Z" fill="#003D97"/>
<path d="M258.102 9.2548L255.823 8.557C256.214 8.35924 256.679 8.3158 257.108 8.43704H257.121L258.058 8.72295L258.102 9.2548Z" fill="#05398C"/>
<path d="M255.391 13.2979H255.375C254.972 13.1334 254.641 12.7939 254.456 12.3531L256.735 13.2428L256.351 13.681L255.391 13.2979Z" fill="#1D75E0"/>
<path d="M258.102 10.1377L254.912 9.00684C255.12 8.74631 255.376 8.52995 255.663 8.36957L257.939 9.17601L257.917 9.24553C258.027 9.53057 258.089 9.83317 258.1 10.14L258.102 10.1377Z" fill="#084694"/>
<path d="M258.03 11.0233L254.456 9.90753C254.572 9.67255 254.722 9.45298 254.903 9.25482L258.099 10.2522C258.112 10.5119 258.086 10.7719 258.023 11.0253L258.03 11.0233Z" fill="#104D97"/>
<path d="M257.836 11.4679L254.456 10.391C254.484 10.2612 254.521 10.1332 254.566 10.0077C254.607 9.90097 254.651 9.79822 254.7 9.69745L258.102 10.7783C258.076 10.8874 258.044 10.9949 258.004 11.1004C257.958 11.2253 257.903 11.3474 257.841 11.4659L257.836 11.4679Z" fill="#0C59AE"/>
<path d="M257.176 12.3531L254.008 11.3672C253.987 11.1045 254.007 10.8405 254.066 10.5826L257.646 11.7C257.52 11.9359 257.358 12.1549 257.167 12.3511L257.176 12.3531Z" fill="#0B64C5"/>
<path d="M256.513 13.2384L254.263 12.4579C254.109 12.1498 254.02 11.8128 254 11.4679L257.191 12.573C257.009 12.7829 256.795 12.9617 256.558 13.1025L256.513 13.2384Z" fill="#1572CD"/>
<ellipse cx="257.136" cy="11" rx="2.55335" ry="2.05132" transform="rotate(-71.16 257.136 11)" fill="url(#paint32_linear_25_61872)"/>
<path d="M256.307 13.2384C255.993 13.1445 255.712 12.9747 255.495 12.747C255.285 12.5182 255.128 12.2523 255.035 11.966C254.941 11.6773 254.9 11.3763 254.914 11.0754C254.929 10.7766 254.99 10.4812 255.095 10.1979C255.202 9.91271 255.354 9.64304 255.546 9.39721C255.736 9.15113 255.971 8.93606 256.24 8.76104C256.508 8.58407 256.814 8.46139 257.138 8.40127C257.46 8.3432 257.793 8.36518 258.102 8.46489C257.79 8.37488 257.457 8.36276 257.138 8.42979C256.821 8.49467 256.523 8.62031 256.264 8.79833C256.003 8.97378 255.775 9.18637 255.589 9.42792C255.216 9.91537 255 10.4885 254.967 11.082C254.952 11.378 254.989 11.6743 255.078 11.9594C255.164 12.241 255.314 12.5031 255.517 12.7294C255.621 12.8429 255.741 12.9439 255.873 13.03C256.007 13.1162 256.153 13.1863 256.307 13.2384Z" fill="#67C4FB"/>
<path d="M255.525 10.4749C255.718 9.90075 256.112 9.40998 256.638 9.08742C257.015 8.81429 257.507 8.73895 257.952 8.88611C258.397 9.03327 258.739 9.38395 258.865 9.82323C259.275 10.994 258.817 12.2852 257.752 12.965C257.374 13.237 256.883 13.3114 256.438 13.1639C255.993 13.0165 255.651 12.666 255.525 12.227C255.315 11.6607 255.315 11.0412 255.525 10.4749Z" fill="url(#paint33_linear_25_61872)"/>
<path d="M256.501 9.10355C256.664 9.00054 256.843 8.92105 257.032 8.86777C257.225 8.81615 257.427 8.80027 257.627 8.82104C257.727 8.83211 257.826 8.85495 257.921 8.88902C258.015 8.92212 258.106 8.96486 258.19 9.01646C258.359 9.1223 258.505 9.25795 258.618 9.41579C258.844 9.73271 258.977 10.0986 259.006 10.4778C259.035 10.8527 258.982 11.2291 258.851 11.5845C258.722 11.9409 258.517 12.2691 258.247 12.5488C257.977 12.831 257.633 13.0432 257.248 13.1648C257.055 13.2242 256.852 13.248 256.649 13.2349C256.446 13.2232 256.249 13.1664 256.074 13.0692C255.902 12.9723 255.753 12.8445 255.634 12.6933C255.52 12.5428 255.43 12.3775 255.367 12.2026C255.444 12.3706 255.545 12.5279 255.668 12.6699C255.791 12.8083 255.941 12.923 256.111 13.0076C256.195 13.0494 256.283 13.0822 256.375 13.1053C256.467 13.127 256.561 13.1391 256.656 13.1414C256.845 13.147 257.034 13.1189 257.212 13.0586C257.39 12.9973 257.559 12.9152 257.716 12.8143C257.871 12.7116 258.013 12.5925 258.14 12.4596C258.266 12.3289 258.377 12.1865 258.473 12.0348C258.565 11.8798 258.641 11.7169 258.701 11.5484C258.762 11.3799 258.808 11.2064 258.835 11.0301C258.861 10.8535 258.868 10.6749 258.856 10.4969C258.843 10.3197 258.809 10.1443 258.753 9.97442C258.699 9.80551 258.622 9.64354 258.525 9.49226C258.422 9.34424 258.292 9.21471 258.14 9.10992C258.063 9.0586 257.98 9.01516 257.893 8.98035C257.806 8.94598 257.714 8.92104 257.62 8.90601C257.43 8.87663 257.235 8.88241 257.048 8.923C256.857 8.95872 256.673 9.01951 256.501 9.10355Z" fill="#0C59AE"/>
<path d="M257.712 12.6431L257.644 12.5236L257.635 12.5059L257.703 12.6254L257.712 12.6431Z" fill="#957978"/>
<path d="M258.059 10.9961C258.083 10.9536 258.098 10.906 258.102 10.8568C258.103 10.8197 258.099 10.7827 258.088 10.7471C258.089 10.7395 258.089 10.7319 258.088 10.7243C258.074 10.688 258.046 10.6585 258.011 10.642L257.857 10.5826C257.891 10.6005 257.918 10.6295 257.934 10.6649C257.934 10.6725 257.934 10.6801 257.934 10.6877C257.944 10.7233 257.949 10.7603 257.948 10.7974C257.944 10.8466 257.929 10.8943 257.905 10.9367L257.19 12.2914L257.345 12.3531L258.059 10.9961Z" fill="#0B64C5"/>
<path d="M257.826 10.5826L257.774 10.2589L257.845 10.235L257.914 10.209C257.975 10.1872 258.041 10.1872 258.102 10.209L257.974 10.157C257.914 10.1343 257.848 10.1343 257.787 10.157L257.718 10.181L257.646 10.207L257.699 10.5307L257.826 10.5826Z" fill="#0B64C5"/>
<path d="M256.915 11.6405C256.908 11.619 256.902 11.5972 256.898 11.5751C256.866 11.397 256.895 11.2131 256.982 11.0546C257.049 10.8766 257.201 10.7459 257.385 10.7084H257.411L257.488 11.1222C257.488 11.1222 257.488 11.1548 257.488 11.1831C257.509 11.2459 257.503 11.3147 257.471 11.3726C257.441 11.4338 257.392 11.4834 257.331 11.5141C257.285 11.5401 257.23 11.5441 257.181 11.525L257.327 11.5838C257.375 11.6042 257.429 11.6042 257.477 11.5838C257.538 11.5523 257.587 11.5019 257.617 11.4401C257.649 11.3823 257.655 11.3134 257.634 11.2506C257.634 11.2245 257.623 11.1962 257.623 11.1897L257.477 10.4013C257.479 10.3854 257.479 10.3694 257.477 10.3534C257.474 10.3141 257.46 10.2764 257.437 10.2445C257.418 10.2252 257.395 10.2097 257.37 10.1988L257.224 10.14C257.249 10.1509 257.272 10.1664 257.291 10.1857C257.311 10.2109 257.327 10.2397 257.338 10.2707C257.339 10.2873 257.339 10.3041 257.338 10.3208L257.402 10.6714L257.291 10.6256L257.233 10.6474C257.05 10.6848 256.898 10.8146 256.831 10.9915C256.745 11.1499 256.715 11.3339 256.748 11.512C256.752 11.5348 256.758 11.5573 256.765 11.5795C256.802 11.702 256.891 11.8016 257.007 11.8517H257.027L257.173 11.9105H257.153C257.039 11.8599 256.952 11.7613 256.915 11.6405Z" fill="#0B64C5"/>
<path d="M256.013 11.7315C255.977 11.6299 255.991 11.5202 256.05 11.4273L256.831 10.1331C256.899 10.0097 257.007 9.90563 257.141 9.83326C257.258 9.768 257.399 9.74262 257.536 9.76207C257.574 9.76636 257.611 9.77432 257.646 9.7858L257.476 9.72971C257.441 9.71657 257.404 9.70785 257.366 9.70383C257.229 9.68438 257.088 9.70976 256.971 9.77501C256.837 9.84793 256.73 9.95182 256.661 10.0748L255.88 11.3691C255.821 11.4619 255.807 11.5717 255.843 11.6733C255.874 11.755 255.945 11.8206 256.038 11.8523L256.208 11.9105C256.116 11.8783 256.044 11.8129 256.013 11.7315Z" fill="#0B64C5"/>
<path d="M257.625 11.0406C257.625 11.0406 257.625 11.0185 257.625 10.9854L257.509 10.1944C257.503 10.1524 257.493 10.1111 257.48 10.0707C257.458 9.9961 257.422 9.92698 257.374 9.86747C257.306 9.7791 257.209 9.72086 257.103 9.70398C256.989 9.68406 256.872 9.71005 256.775 9.77689C256.663 9.85102 256.574 9.95757 256.518 10.084L255.871 11.4096C255.821 11.5047 255.81 11.617 255.839 11.7211C255.866 11.8045 255.925 11.8715 256.001 11.9044H256.03L256.81 10.2961C256.833 10.2454 256.868 10.202 256.912 10.1701C256.95 10.1426 256.997 10.1308 257.042 10.137C257.088 10.1399 257.13 10.1604 257.163 10.1944C257.184 10.2191 257.199 10.2486 257.208 10.2806C257.209 10.2968 257.209 10.313 257.208 10.3292L257.349 11.129C257.349 11.129 257.349 11.1643 257.36 11.1908C257.38 11.2545 257.374 11.3244 257.343 11.3831C257.314 11.4458 257.267 11.4969 257.208 11.5289C257.158 11.5564 257.099 11.5564 257.049 11.5289C257.008 11.5047 256.978 11.4653 256.964 11.4184C256.962 11.4059 256.962 11.3933 256.964 11.3808C256.952 11.3051 256.964 11.2273 256.999 11.1599C257.028 11.0927 257.086 11.0443 257.154 11.0296L257.239 10.9964L257.163 10.6363L257.109 10.6562C256.931 10.6943 256.784 10.8269 256.719 11.0075C256.635 11.1682 256.607 11.3548 256.638 11.5355C256.642 11.5579 256.648 11.58 256.655 11.6018C256.688 11.7222 256.768 11.8218 256.874 11.8757C256.996 11.9295 257.135 11.9206 257.25 11.8514C257.382 11.7769 257.491 11.6614 257.561 11.52C257.645 11.3771 257.668 11.2029 257.625 11.0406Z" fill="#D4F7FF"/>
<path d="M257.987 12.1437L258.466 11.0738C258.514 10.9676 258.544 10.8514 258.555 10.7315C258.563 10.6306 258.553 10.5287 258.527 10.4323C258.527 10.4323 258.527 10.4108 258.527 10.4012C258.496 10.3082 258.439 10.2299 258.366 10.1786C258.29 10.1349 258.203 10.128 258.123 10.1595L258.048 10.1906L257.971 10.2193L258.028 10.6071L258.066 10.5855L258.139 10.5544C258.171 10.5377 258.207 10.5377 258.239 10.5544C258.27 10.5717 258.295 10.6025 258.308 10.6406C258.308 10.6486 258.308 10.6565 258.308 10.6645C258.317 10.7018 258.321 10.7406 258.32 10.7794C258.317 10.8309 258.303 10.8809 258.281 10.9254L257.646 12.3472H257.664C257.799 12.377 257.933 12.2924 257.987 12.1437Z" fill="#D4F7FF"/>
</g>
<path d="M64.488 49H69.048V39.4L73.32 45.928H73.416L77.712 39.352V49H82.344V32.2H77.424L73.416 38.704L69.408 32.2H64.488V49Z" fill="white"/>
<path d="M85.324 49H91.708C97.756 49 101.284 45.4 101.284 40.552V40.504C101.284 35.656 97.804 32.2 91.804 32.2H85.324V49ZM89.98 44.872V36.328H91.876C94.66 36.328 96.508 37.888 96.508 40.576V40.624C96.508 43.336 94.66 44.872 91.876 44.872H89.98Z" fill="white"/>
<path d="M103.676 49H117.308V45.04H108.284V42.376H116.348V38.704H108.284V36.16H117.188V32.2H103.676V49Z" fill="white"/>
<path d="M118.459 49H123.691L126.931 43.936L130.147 49H135.499L129.739 40.408L135.259 32.2H130.027L127.027 36.928L124.051 32.2H118.699L124.219 40.456L118.459 49Z" fill="white"/>
</g>
</g>
<defs>
<linearGradient id="paint0_linear_25_61872" x1="337.783" y1="107.68" x2="337.783" y2="1.02661" gradientUnits="userSpaceOnUse">
<stop stop-color="#112458"/>
<stop offset="1" stop-color="#08276B"/>
</linearGradient>
<linearGradient id="paint1_linear_25_61872" x1="175.575" y1="40.836" x2="175.575" y2="10" gradientUnits="userSpaceOnUse">
<stop stop-color="#082566"/>
<stop offset="1" stop-color="#0A3799"/>
</linearGradient>
<linearGradient id="paint2_linear_25_61872" x1="175.575" y1="40.836" x2="175.575" y2="10" gradientUnits="userSpaceOnUse">
<stop stop-color="#082566"/>
<stop offset="1" stop-color="#0A3799"/>
</linearGradient>
<linearGradient id="paint3_linear_25_61872" x1="175.575" y1="40.836" x2="175.575" y2="10" gradientUnits="userSpaceOnUse">
<stop stop-color="#082566"/>
<stop offset="1" stop-color="#0A3799"/>
</linearGradient>
<linearGradient id="paint4_linear_25_61872" x1="175.575" y1="40.836" x2="175.575" y2="10" gradientUnits="userSpaceOnUse">
<stop stop-color="#082566"/>
<stop offset="1" stop-color="#0A3799"/>
</linearGradient>
<linearGradient id="paint5_linear_25_61872" x1="175.575" y1="40.836" x2="175.575" y2="10" gradientUnits="userSpaceOnUse">
<stop stop-color="#082566"/>
<stop offset="1" stop-color="#0A3799"/>
</linearGradient>
<linearGradient id="paint6_linear_25_61872" x1="175.575" y1="40.836" x2="175.575" y2="10" gradientUnits="userSpaceOnUse">
<stop stop-color="#082566"/>
<stop offset="1" stop-color="#0A3799"/>
</linearGradient>
<linearGradient id="paint7_linear_25_61872" x1="175.575" y1="40.836" x2="175.575" y2="10" gradientUnits="userSpaceOnUse">
<stop stop-color="#082566"/>
<stop offset="1" stop-color="#0A3799"/>
</linearGradient>
<linearGradient id="paint8_linear_25_61872" x1="175.575" y1="40.836" x2="175.575" y2="10" gradientUnits="userSpaceOnUse">
<stop stop-color="#082566"/>
<stop offset="1" stop-color="#0A3799"/>
</linearGradient>
<linearGradient id="paint9_linear_25_61872" x1="289.386" y1="7.08984" x2="289.386" y2="32.6121" gradientUnits="userSpaceOnUse">
<stop stop-color="#45E5FF"/>
<stop offset="1" stop-color="#3490FF" stop-opacity="0.01"/>
</linearGradient>
<linearGradient id="paint10_linear_25_61872" x1="230.457" y1="0" x2="230.457" y2="25.5223" gradientUnits="userSpaceOnUse">
<stop stop-color="#45E5FF"/>
<stop offset="1" stop-color="#3490FF" stop-opacity="0.01"/>
</linearGradient>
<linearGradient id="paint11_linear_25_61872" x1="212.072" y1="53.4102" x2="212.072" y2="78.9324" gradientUnits="userSpaceOnUse">
<stop stop-color="#45E5FF"/>
<stop offset="1" stop-color="#3490FF" stop-opacity="0.01"/>
</linearGradient>
<linearGradient id="paint12_linear_25_61872" x1="308.243" y1="36.8672" x2="308.243" y2="60.9716" gradientUnits="userSpaceOnUse">
<stop stop-color="#45E5FF"/>
<stop offset="1" stop-color="#3490FF" stop-opacity="0.01"/>
</linearGradient>
<linearGradient id="paint13_linear_25_61872" x1="299.286" y1="67.1172" x2="299.286" y2="91.2216" gradientUnits="userSpaceOnUse">
<stop stop-color="#45E5FF"/>
<stop offset="1" stop-color="#3490FF" stop-opacity="0.01"/>
</linearGradient>
<linearGradient id="paint14_linear_25_61872" x1="370" y1="121" x2="370" y2="60.0273" gradientUnits="userSpaceOnUse">
<stop stop-color="#2363E8"/>
<stop offset="0.01" stop-color="#1F6ABB"/>
<stop offset="1" stop-color="#45E5FF" stop-opacity="0.01"/>
</linearGradient>
<linearGradient id="paint15_linear_25_61872" x1="284.677" y1="25.2254" x2="307.037" y2="25.2254" gradientUnits="userSpaceOnUse">
<stop stop-color="#126DD9"/>
<stop offset="0.337346" stop-color="#187AD9"/>
<stop offset="0.655514" stop-color="#1574DD"/>
<stop offset="1" stop-color="#2CA1F9"/>
</linearGradient>
<linearGradient id="paint16_linear_25_61872" x1="244.335" y1="83.2648" x2="265.814" y2="83.2648" gradientUnits="userSpaceOnUse">
<stop stop-color="#114492"/>
<stop offset="0.472135" stop-color="#34A4F8"/>
<stop offset="0.738993" stop-color="#1C72DA"/>
<stop offset="1" stop-color="#236AC4"/>
</linearGradient>
<linearGradient id="paint17_linear_25_61872" x1="249.786" y1="86.4958" x2="295.043" y2="86.4958" gradientUnits="userSpaceOnUse">
<stop stop-color="#4AC4E8"/>
<stop offset="0.63" stop-color="#4197E6"/>
<stop offset="1" stop-color="#3C81E5"/>
</linearGradient>
<linearGradient id="paint18_linear_25_61872" x1="279.016" y1="25.5239" x2="295.044" y2="25.5239" gradientUnits="userSpaceOnUse">
<stop stop-color="#4AE2FA"/>
<stop offset="0.15" stop-color="#48D3F7"/>
<stop offset="0.72" stop-color="#3F9BEA"/>
<stop offset="1" stop-color="#3C85E5"/>
</linearGradient>
<linearGradient id="paint19_linear_25_61872" x1="249.786" y1="86.0207" x2="272.886" y2="86.0207" gradientUnits="userSpaceOnUse">
<stop stop-color="#4AE2FA"/>
<stop offset="0.15" stop-color="#48D3F7"/>
<stop offset="0.72" stop-color="#3F9BEA"/>
<stop offset="1" stop-color="#3C85E5"/>
</linearGradient>
<linearGradient id="paint20_linear_25_61872" x1="259.625" y1="77.8038" x2="292.214" y2="77.8038" gradientUnits="userSpaceOnUse">
<stop stop-color="#154E9C"/>
<stop offset="0.252493" stop-color="#1856A5"/>
<stop offset="0.64" stop-color="#235FC4"/>
<stop offset="1" stop-color="#236AC4"/>
</linearGradient>
<linearGradient id="paint21_linear_25_61872" x1="254.495" y1="81.7706" x2="292.21" y2="81.7706" gradientUnits="userSpaceOnUse">
<stop stop-color="#4B8AEF"/>
<stop offset="0.3" stop-color="#4A9EEE"/>
<stop offset="0.51" stop-color="#4AA8ED"/>
<stop offset="0.71" stop-color="#4A9EEC"/>
<stop offset="1" stop-color="#4A87E8"/>
</linearGradient>
<linearGradient id="paint22_linear_25_61872" x1="254.023" y1="81.7706" x2="291.739" y2="81.7706" gradientUnits="userSpaceOnUse">
<stop stop-color="#4BE6EF"/>
<stop offset="0.54255" stop-color="#4AD5EA"/>
<stop offset="1" stop-color="#4ACBE8"/>
</linearGradient>
<linearGradient id="paint23_linear_25_61872" x1="242.471" y1="58.1959" x2="281.846" y2="80.9837" gradientUnits="userSpaceOnUse">
<stop stop-color="#2A9EF7"/>
<stop offset="1" stop-color="#126DD9"/>
</linearGradient>
<linearGradient id="paint24_linear_25_61872" x1="258.137" y1="78.1956" x2="288.575" y2="78.1956" gradientUnits="userSpaceOnUse">
<stop stop-color="#4BD6EF"/>
<stop offset="0.51" stop-color="#4AB4ED"/>
<stop offset="0.68" stop-color="#40ABEC"/>
<stop offset="0.97" stop-color="#2694E8"/>
<stop offset="1" stop-color="#2392E8"/>
</linearGradient>
<linearGradient id="paint25_linear_25_61872" x1="272.425" y1="12.5928" x2="230.461" y2="12.608" gradientUnits="userSpaceOnUse">
<stop stop-color="#084694"/>
<stop offset="0.550034" stop-color="#006FE3"/>
<stop offset="0.826283" stop-color="#32A0F5"/>
<stop offset="1" stop-color="#319CF3"/>
</linearGradient>
<linearGradient id="paint26_linear_25_61872" x1="225.955" y1="92.0582" x2="242.557" y2="96.1125" gradientUnits="userSpaceOnUse">
<stop stop-color="#4ABAFD"/>
<stop offset="1" stop-color="#116DDA"/>
</linearGradient>
<linearGradient id="paint27_linear_25_61872" x1="249.205" y1="75.9626" x2="233.064" y2="73.114" gradientUnits="userSpaceOnUse">
<stop stop-color="#0A5ED0"/>
<stop offset="1" stop-color="#2CA2F9"/>
</linearGradient>
<linearGradient id="paint28_linear_25_61872" x1="309.383" y1="48.4744" x2="311.506" y2="55.5298" gradientUnits="userSpaceOnUse">
<stop stop-color="#116DDA"/>
<stop offset="1" stop-color="#4ABAFD"/>
</linearGradient>
<linearGradient id="paint29_linear_25_61872" x1="310.904" y1="54.4685" x2="321.1" y2="54.161" gradientUnits="userSpaceOnUse">
<stop stop-color="#0A5ED0"/>
<stop offset="1" stop-color="#2CA2F9"/>
</linearGradient>
<linearGradient id="paint30_linear_25_61872" x1="290.273" y1="75.9315" x2="290.273" y2="85.0714" gradientUnits="userSpaceOnUse">
<stop stop-color="#4ABAFD"/>
<stop offset="1" stop-color="#116DDA"/>
</linearGradient>
<linearGradient id="paint31_linear_25_61872" x1="290.045" y1="78.5676" x2="293.188" y2="84.7942" gradientUnits="userSpaceOnUse">
<stop stop-color="#2CA2F9"/>
<stop offset="1" stop-color="#0A5ED0"/>
</linearGradient>
<linearGradient id="paint32_linear_25_61872" x1="259.687" y1="8.94735" x2="254.582" y2="8.94735" gradientUnits="userSpaceOnUse">
<stop stop-color="#4ABAFD"/>
<stop offset="1" stop-color="#116DDA"/>
</linearGradient>
<linearGradient id="paint33_linear_25_61872" x1="256.306" y1="8.47762" x2="254.58" y2="11.8828" gradientUnits="userSpaceOnUse">
<stop stop-color="#2CA2F9"/>
<stop offset="1" stop-color="#0A5ED0"/>
</linearGradient>
<clipPath id="clip0_25_61872">
<rect width="343" height="110" rx="20" fill="white"/>
</clipPath>
<clipPath id="clip1_25_61872">
<rect width="343" height="110" fill="white"/>
</clipPath>
</defs>
</svg>
