<svg width="344" height="110" viewBox="0 0 344 110" fill="none" xmlns="http://www.w3.org/2000/svg">
<g clip-path="url(#clip0_720_56655)">
<rect x="0.255371" width="343" height="110" rx="20" fill="url(#paint0_linear_720_56655)"/>
<g clip-path="url(#clip1_720_56655)">
<g opacity="0.667528">
<path d="M17.9913 36H23.3113V24.8L28.2953 32.416H28.4073L33.4193 24.744V36H38.8233V16.4H33.0833L28.4073 23.988L23.7313 16.4H17.9913V36Z" fill="url(#paint1_linear_720_56655)"/>
<path d="M42.2999 36H49.7479C56.8039 36 60.9199 31.8 60.9199 26.144V26.088C60.9199 20.432 56.8599 16.4 49.8599 16.4H42.2999V36ZM47.7319 31.184V21.216H49.9439C53.1919 21.216 55.3479 23.036 55.3479 26.172V26.228C55.3479 29.392 53.1919 31.184 49.9439 31.184H47.7319Z" fill="url(#paint2_linear_720_56655)"/>
<path d="M63.7101 36H79.6141V31.38H69.0861V28.272H78.4941V23.988H69.0861V21.02H79.4741V16.4H63.7101V36Z" fill="url(#paint3_linear_720_56655)"/>
<path d="M80.9579 36H87.0619L90.8419 30.092L94.5939 36H100.838L94.1179 25.976L100.558 16.4H94.4539L90.9539 21.916L87.4819 16.4H81.2379L87.6779 26.032L80.9579 36Z" fill="url(#paint4_linear_720_56655)"/>
<path d="M102.362 36H107.906V30.54H102.362V36Z" fill="url(#paint5_linear_720_56655)"/>
<path d="M119.439 36.392C123.779 36.392 126.271 34.516 128.119 31.968L124.031 29.056C122.855 30.484 121.651 31.436 119.607 31.436C116.863 31.436 114.931 29.14 114.931 26.2V26.144C114.931 23.288 116.863 20.964 119.607 20.964C121.483 20.964 122.771 21.86 123.891 23.26L127.979 20.096C126.243 17.688 123.667 16.008 119.663 16.008C113.727 16.008 109.331 20.488 109.331 26.2V26.256C109.331 32.108 113.839 36.392 119.439 36.392Z" fill="url(#paint6_linear_720_56655)"/>
<path d="M139.765 36.392C145.813 36.392 150.349 31.828 150.349 26.2V26.144C150.349 20.516 145.869 16.008 139.821 16.008C133.773 16.008 129.237 20.572 129.237 26.2V26.256C129.237 31.884 133.717 36.392 139.765 36.392ZM139.821 31.492C136.853 31.492 134.809 29.028 134.809 26.2V26.144C134.809 23.316 136.797 20.908 139.765 20.908C142.761 20.908 144.805 23.372 144.805 26.2V26.256C144.805 29.084 142.817 31.492 139.821 31.492Z" fill="url(#paint7_linear_720_56655)"/>
<path d="M153.179 36H158.499V24.8L163.483 32.416H163.595L168.607 24.744V36H174.011V16.4H168.271L163.595 23.988L158.919 16.4H153.179V36Z" fill="url(#paint8_linear_720_56655)"/>
</g>
<path d="M64.7434 49H69.3034V39.4L73.5754 45.928H73.6714L77.9674 39.352V49H82.5994V32.2H77.6794L73.6714 38.704L69.6634 32.2H64.7434V49Z" fill="white"/>
<path d="M85.5793 49H91.9633C98.0113 49 101.539 45.4 101.539 40.552V40.504C101.539 35.656 98.0593 32.2 92.0593 32.2H85.5793V49ZM90.2353 44.872V36.328H92.1313C94.9153 36.328 96.7633 37.888 96.7633 40.576V40.624C96.7633 43.336 94.9153 44.872 92.1313 44.872H90.2353Z" fill="white"/>
<path d="M103.931 49H117.563V45.04H108.539V42.376H116.603V38.704H108.539V36.16H117.443V32.2H103.931V49Z" fill="white"/>
<path d="M118.715 49H123.947L127.187 43.936L130.403 49H135.755L129.995 40.408L135.515 32.2H130.283L127.283 36.928L124.307 32.2H118.955L124.475 40.456L118.715 49Z" fill="white"/>
</g>
<path opacity="0.04" d="M289.687 7.58997H289.682C289.001 7.58997 288.449 8.14229 288.449 8.82362V31.8802C288.449 32.5615 289.001 33.1138 289.682 33.1138H289.687C290.368 33.1138 290.921 32.5615 290.921 31.8802V8.82362C290.921 8.14229 290.368 7.58997 289.687 7.58997Z" fill="url(#paint9_linear_720_56655)"/>
<path opacity="0.08" d="M230.604 0.5H230.599C229.918 0.5 229.366 1.05233 229.366 1.73365V24.7902C229.366 25.4715 229.918 26.0239 230.599 26.0239H230.604C231.285 26.0239 231.838 25.4715 231.838 24.7902V1.73365C231.838 1.05233 231.285 0.5 230.604 0.5Z" fill="url(#paint10_linear_720_56655)"/>
<path opacity="0.15" d="M212.17 53.911H212.166C211.484 53.911 210.932 54.4634 210.932 55.1447V78.2012C210.932 78.8826 211.484 79.4349 212.166 79.4349H212.17C212.852 79.4349 213.404 78.8826 213.404 78.2012V55.1447C213.404 54.4634 212.852 53.911 212.17 53.911Z" fill="url(#paint11_linear_720_56655)"/>
<path opacity="0.08" d="M308.523 37.3678C308.676 37.3678 308.828 37.398 308.969 37.4567C309.111 37.5153 309.24 37.6013 309.348 37.7098C309.457 37.8182 309.543 37.9469 309.601 38.0885C309.66 38.2302 309.69 38.382 309.69 38.5353V60.3062C309.69 60.4595 309.66 60.6113 309.601 60.753C309.543 60.8946 309.457 61.0233 309.348 61.1317C309.24 61.2401 309.111 61.3261 308.969 61.3848C308.828 61.4435 308.676 61.4737 308.523 61.4737C308.369 61.4743 308.217 61.4445 308.075 61.3861C307.933 61.3276 307.804 61.2417 307.696 61.1331C307.587 61.0246 307.501 60.8956 307.443 60.7537C307.384 60.6118 307.355 60.4597 307.355 60.3062V38.5353C307.355 38.3818 307.384 38.2297 307.443 38.0878C307.501 37.9458 307.587 37.8169 307.696 37.7084C307.804 37.5998 307.933 37.5139 308.075 37.4554C308.217 37.397 308.369 37.3672 308.523 37.3678Z" fill="url(#paint12_linear_720_56655)"/>
<path opacity="0.27" d="M299.542 67.6183C299.852 67.6183 300.149 67.7413 300.368 67.9602C300.587 68.1792 300.71 68.4761 300.71 68.7858V90.5567C300.71 90.8663 300.587 91.1633 300.368 91.3822C300.149 91.6012 299.852 91.7242 299.542 91.7242C299.389 91.7248 299.237 91.695 299.095 91.6366C298.953 91.5781 298.824 91.4921 298.715 91.3836C298.607 91.2751 298.521 91.1461 298.462 91.0042C298.404 90.8623 298.374 90.7102 298.375 90.5567V68.7858C298.374 68.6323 298.404 68.4802 298.462 68.3383C298.521 68.1963 298.607 68.0674 298.715 67.9588C298.824 67.8503 298.953 67.7643 299.095 67.7059C299.237 67.6474 299.389 67.6177 299.542 67.6183Z" fill="url(#paint13_linear_720_56655)"/>
<path opacity="0.4" fill-rule="evenodd" clip-rule="evenodd" d="M270.015 121.502C243.546 121.502 218.636 118.349 199.905 112.621C190.787 109.837 183.626 106.58 178.635 102.959C173.402 99.1875 170.755 95.1699 170.755 91.0152C170.755 86.8605 173.402 82.8428 178.621 79.071C183.626 75.4504 190.787 72.1984 199.89 69.4097C218.636 63.681 243.546 60.5284 270.015 60.5284C296.484 60.5284 321.393 63.681 340.12 69.4097C349.238 72.1937 356.404 75.4504 361.39 79.071C366.59 82.8523 369.255 86.8605 369.255 91.0152C369.255 95.1699 366.608 99.1875 361.39 102.959C356.385 106.58 349.224 109.832 340.12 112.621C321.393 118.349 296.484 121.502 270.015 121.502ZM270.015 60.9065C215.493 60.9065 171.134 74.4152 171.134 91.0152C171.134 107.615 215.493 121.124 270.015 121.124C324.537 121.124 368.896 107.615 368.896 91.0152C368.896 74.4152 324.537 60.9065 270.015 60.9065ZM205.803 111.127C223.051 116.303 245.786 119.139 269.93 119.139H270.79C290.788 119.082 309.738 117.097 325.586 113.396C333.215 111.609 339.86 109.482 345.334 107.072C350.892 104.623 355.118 101.938 357.888 99.0883C360.502 96.3988 361.787 93.5959 361.707 90.7505C361.499 83.1879 351.738 76.1546 334.226 70.8986C316.983 65.7277 294.244 62.8917 270.1 62.8917H269.244C249.241 62.9484 230.292 64.9336 214.444 68.6345C206.815 70.4212 200.169 72.5482 194.696 74.9588C189.137 77.4072 184.912 80.0919 182.142 82.9421C179.528 85.6315 178.242 88.4155 178.318 91.2799C178.531 98.8141 188.291 105.876 205.803 111.127ZM269.244 63.2698H270.095C320.06 63.2698 360.908 75.5591 361.319 90.7647C361.395 93.5014 360.142 96.2098 357.609 98.8236C352.173 104.41 340.768 109.454 325.468 113.004C309.652 116.7 290.727 118.675 270.752 118.742H269.897C219.936 118.742 179.084 106.452 178.672 91.2468C178.597 88.5101 179.849 85.797 182.388 83.1831C187.814 77.5962 199.224 72.5576 214.529 69.0032C230.349 65.307 249.27 63.3265 269.244 63.2698ZM269.845 116.775C248.041 116.775 227.456 114.228 211.707 109.567C195.48 104.77 186.315 98.2848 185.881 91.3035C185.739 88.6708 186.826 86.0522 189.189 83.5707C191.647 80.9285 195.447 78.4329 200.472 76.1546C205.421 73.9095 211.452 71.929 218.4 70.2558C232.83 66.7912 250.149 64.9005 268.502 64.7871C290.944 64.65 312.2 67.2071 328.36 71.9857C344.521 76.7644 353.752 83.2729 354.173 90.2542C354.329 92.8869 353.227 95.4913 350.902 97.987C348.444 100.629 344.644 103.125 339.619 105.403C334.675 107.648 328.639 109.629 321.691 111.297C307.261 114.767 289.942 116.662 271.589 116.771L269.845 116.775ZM270.185 65.1652H268.469C250.163 65.2786 232.868 67.1456 218.494 70.6245C204.589 73.9662 194.28 78.6597 189.459 83.826C187.209 86.246 186.15 88.7511 186.292 91.2752C186.495 94.6972 188.891 98.0153 193.382 101.135C197.778 104.169 203.979 106.883 211.816 109.199C227.532 113.845 248.078 116.388 269.845 116.388H271.565C289.867 116.274 307.157 114.412 321.535 110.929C335.436 107.587 345.75 102.893 350.566 97.727C352.821 95.307 353.875 92.8019 353.733 90.2778C353.53 86.8557 351.138 83.5376 346.619 80.4181C342.224 77.3836 336.027 74.6705 328.186 72.3544C312.503 67.7081 291.951 65.1652 270.185 65.1652ZM217.62 107.667C231.866 111.727 250.295 113.939 269.76 113.939C270.615 113.939 271.48 113.939 272.336 113.939C289.011 113.774 304.694 112.011 317.711 108.849C323.239 107.567 328.634 105.768 333.824 103.475C338.32 101.409 341.69 99.1497 343.845 96.7628C345.892 94.4987 346.809 92.1401 346.567 89.7626C345.939 83.4809 337.365 77.6813 322.429 73.4226C307.492 69.1639 288.099 66.9566 267.689 67.1456C251.014 67.3064 235.331 69.0694 222.314 72.2362C216.787 73.5197 211.394 75.3207 206.205 77.6152C201.71 79.6807 198.34 81.9353 196.185 84.3223C194.138 86.5863 193.226 88.9449 193.462 91.3224C194.11 97.6041 202.684 103.408 217.62 107.667ZM200.675 100.105C196.459 97.3205 194.162 94.3475 193.854 91.2752C193.628 89.0016 194.511 86.7423 196.482 84.568C200.689 79.9029 209.897 75.6536 222.422 72.6049C235.397 69.4475 251.047 67.6845 267.694 67.5238C288.071 67.3205 307.464 69.5373 322.306 73.7677C329.509 75.819 335.247 78.2391 339.35 80.9522C343.566 83.7314 345.863 86.7092 346.17 89.7815C346.397 92.0503 345.513 94.3097 343.542 96.4934C339.336 101.154 330.124 105.398 317.603 108.447C304.633 111.609 288.978 113.363 272.331 113.533C251.959 113.736 232.566 111.515 217.724 107.284C210.516 105.247 204.787 102.832 200.675 100.119V100.105ZM269.684 111.103C252.55 111.103 236.281 109.213 223.542 105.691C209.897 101.91 201.918 96.7486 201.077 91.1144C200.76 88.9591 201.493 86.8227 203.27 84.7571C206.976 80.4464 214.949 76.6651 226.317 73.8197C237.883 70.9317 251.926 69.2821 266.919 69.0599C285.296 68.7905 302.903 70.7048 316.487 74.4483C330.072 78.1918 338.112 83.3864 338.953 89.0253C339.27 91.1806 338.537 93.3171 336.764 95.3779C333.063 99.6886 325.09 103.47 313.717 106.315C302.151 109.203 288.113 110.853 273.116 111.075C271.972 111.103 270.823 111.103 269.684 111.103ZM270.346 69.4144C269.207 69.4144 268.067 69.4144 266.919 69.4144C251.954 69.6366 237.945 71.2767 226.407 74.1647C215.271 76.9487 207.155 80.782 203.558 84.9793C201.861 86.955 201.157 88.9922 201.46 91.0341C201.871 93.7897 204.064 96.4461 207.982 98.9276C211.802 101.343 217.067 103.489 223.646 105.304C236.356 108.806 252.588 110.706 269.684 110.706C270.828 110.706 271.967 110.706 273.111 110.683C288.08 110.461 302.09 108.816 313.628 105.956C324.763 103.172 332.879 99.3388 336.476 95.1415C338.173 93.1658 338.877 91.1286 338.575 89.0867C338.164 86.3311 335.97 83.6747 332.047 81.1932C328.233 78.7732 322.963 76.6273 316.383 74.817C303.678 71.3098 287.442 69.4144 270.346 69.4144ZM229.399 104.127C240.573 107.128 254.63 108.74 269.377 108.74C270.795 108.74 272.213 108.74 273.631 108.698C286.889 108.419 299.225 106.868 309.317 104.221C319.243 101.617 326.12 98.1855 329.207 94.2955C330.705 92.4048 331.253 90.4669 330.851 88.5053C329.807 83.4431 322.452 78.8394 310.149 75.5307C297.845 72.2221 282.191 70.6197 265.907 70.9601C252.673 71.2389 240.317 72.7893 230.221 75.4362C220.295 78.0406 213.418 81.4721 210.332 85.3621C208.838 87.2528 208.285 89.1954 208.687 91.1523C209.741 96.2145 217.076 100.823 229.399 104.127ZM215.266 98.1193C211.664 95.912 209.594 93.5439 209.07 91.0766C208.691 89.2332 209.221 87.3898 210.643 85.5985C213.635 81.8171 220.626 78.362 230.33 75.8143C240.393 73.1721 252.701 71.6312 265.926 71.3524C282.181 71.012 297.855 72.6285 310.068 75.9088C315.996 77.5017 320.784 79.3924 324.296 81.5477C327.897 83.7551 329.968 86.1231 330.492 88.5904C330.875 90.4338 330.346 92.2772 328.923 94.0686C325.931 97.8499 318.94 101.305 309.236 103.853C299.173 106.495 286.865 108.036 273.64 108.315C257.39 108.655 241.721 107.034 229.498 103.758C223.561 102.165 218.778 100.275 215.266 98.1193ZM269.311 106.377C256.884 106.377 244.987 105.067 235.35 102.595C224.351 99.7878 217.596 95.8175 216.344 91.398C215.871 89.6539 216.226 87.9145 217.464 86.2224C219.955 82.8239 225.773 79.7941 234.277 77.4686C242.922 75.1053 253.594 73.6873 265.146 73.3423C279.388 72.9358 293.26 74.2451 304.207 77.0385C315.154 79.8319 321.956 83.8118 323.213 88.2312C323.709 89.9753 323.341 91.7147 322.093 93.4069C319.597 96.8053 313.784 99.8351 305.28 102.161C296.631 104.524 285.958 105.942 274.411 106.282C272.706 106.345 271.006 106.377 269.311 106.377ZM216.703 91.3177C219.232 100.213 245.115 106.764 274.396 105.923C285.915 105.592 296.56 104.174 305.176 101.816C313.481 99.542 319.38 96.4839 321.79 93.2036C322.953 91.6155 323.308 89.9848 322.849 88.3588C320.32 79.4633 294.437 72.9074 265.156 73.7488C253.642 74.0796 242.997 75.5023 234.381 77.8609C226.057 80.1345 220.177 83.2162 217.767 86.4729C216.604 88.061 216.245 89.687 216.703 91.3177ZM241.319 101.083C249.397 103.002 259.139 104.013 269.249 104.013C271.215 104.013 273.196 103.976 275.176 103.9C294.99 103.13 310.971 98.5778 314.932 92.5561C315.409 91.9037 315.714 91.1415 315.818 90.34C315.922 89.5386 315.822 88.7238 315.528 87.9712C314.067 84.1899 307.927 80.8813 298.238 78.5652C288.548 76.2492 276.571 75.2566 264.381 75.7292C244.567 76.5044 228.586 81.0562 224.625 87.0732C224.148 87.7257 223.844 88.4879 223.74 89.2893C223.636 90.0907 223.735 90.9053 224.029 91.658C225.495 95.4488 231.634 98.7858 241.319 101.083ZM275.162 103.522C250.111 104.5 227.329 99.1214 224.384 91.5398C224.109 90.8415 224.016 90.0849 224.114 89.3409C224.211 88.5969 224.496 87.8898 224.942 87.2859C226.785 84.4924 231.597 81.8597 238.493 79.8745C245.654 77.8042 254.615 76.5091 264.395 76.131C289.446 75.1573 312.233 80.5315 315.178 88.113C315.45 88.8122 315.541 89.5685 315.442 90.3122C315.344 91.0558 315.06 91.7625 314.615 92.367C312.772 95.1557 307.96 97.7885 301.069 99.7784C293.903 101.844 284.946 103.144 275.162 103.541V103.522ZM269.433 101.631C262.043 101.681 254.667 100.959 247.426 99.4759C239.013 97.6419 233.459 94.891 231.786 91.7195C231.429 91.0899 231.246 90.3764 231.257 89.6526C231.267 88.9289 231.471 88.2212 231.847 87.6026C234.683 82.564 247.544 78.5841 263.832 77.705C274.014 77.1614 284.233 77.8609 292.603 79.6807C300.974 81.5005 306.571 84.2703 308.249 87.4371C308.604 88.0674 308.785 88.781 308.774 89.5045C308.762 90.2281 308.558 90.9355 308.182 91.554C305.346 96.5974 292.485 100.572 276.202 101.452C273.943 101.589 271.674 101.65 269.433 101.65V101.631ZM232.121 91.5398C235.491 97.9208 255.258 102.198 276.178 101.069C292.339 100.199 305.072 96.2996 307.847 91.365C308.189 90.8021 308.376 90.158 308.386 89.4992C308.397 88.8403 308.232 88.1905 307.908 87.6167C304.533 81.2358 284.748 76.9582 263.847 78.0878C247.686 78.9575 234.957 82.857 232.178 87.7916C231.831 88.3564 231.642 89.0044 231.632 89.6674C231.622 90.3304 231.791 90.9838 232.121 91.5587V91.5398ZM253.122 97.3962C258.423 98.3663 263.803 98.841 269.192 98.8141C271.716 98.8141 274.245 98.7196 276.755 98.5305C283.07 98.0579 288.695 96.9849 293.019 95.4724C297.344 93.9599 300.02 92.1354 300.908 90.1502C301.184 89.5481 301.283 88.8801 301.193 88.224C301.103 87.5679 300.829 86.9507 300.402 86.4445C298.512 83.878 293.563 81.7179 286.454 80.3708C278.657 78.9882 270.714 78.6117 262.821 79.2506C256.511 79.7232 250.886 80.7915 246.557 82.3087C242.227 83.826 239.566 85.6174 238.672 87.6262C238.398 88.2285 238.3 88.8963 238.389 89.5522C238.479 90.208 238.752 90.8251 239.178 91.3319C241.059 93.8937 246.013 96.0491 253.122 97.3962ZM276.708 98.1382C259.971 99.4192 243.271 96.2476 239.481 91.1003C239.099 90.649 238.852 90.0992 238.768 89.514C238.685 88.9287 238.768 88.3317 239.008 87.7916C240.771 83.8685 250.352 80.5929 262.845 79.6382C279.586 78.3525 296.285 81.5288 300.076 86.6761C300.46 87.1263 300.709 87.6762 300.792 88.2619C300.876 88.8477 300.792 89.4451 300.549 89.9848C298.786 93.9079 289.205 97.1835 276.708 98.143V98.1382ZM269.23 96.4508C259.304 96.4508 250.139 94.5602 246.774 91.5587C245.621 90.5236 245.2 89.3939 245.564 88.2832C246.037 86.8321 247.809 85.4472 250.692 84.3128C253.576 83.1784 257.527 82.2709 262.036 81.7746C274.699 80.3566 288.505 82.3654 292.793 86.2176C293.946 87.2528 294.366 88.3824 294.003 89.4932C293.53 90.9443 291.757 92.3292 288.874 93.4636C285.991 94.598 282.035 95.5055 277.53 96.0018C274.774 96.305 272.003 96.4549 269.23 96.4508ZM270.369 81.699C267.595 81.6958 264.823 81.8441 262.065 82.1433C253.174 83.1264 246.854 85.5795 245.909 88.4155C245.592 89.3892 245.961 90.3582 247.015 91.2988C251.241 95.0801 264.905 97.0369 277.469 95.6473C286.378 94.6405 292.703 92.1968 293.648 89.3609C293.965 88.3872 293.591 87.4182 292.542 86.4776C289.224 83.5376 280.168 81.699 270.369 81.699ZM254.374 91.8896C257.499 93.6054 263.242 94.5602 269.221 94.5602C272.282 94.5694 275.338 94.3052 278.353 93.7708C283.746 92.7735 287.163 90.9916 287.48 89.0016C287.603 88.2265 287.31 87.0543 285.183 85.8868C280.456 83.2824 269.684 82.4363 261.204 83.9961C255.807 84.9934 252.394 86.7754 252.077 88.7653C251.954 89.5499 252.247 90.7174 254.374 91.8896ZM261.271 84.379C264.272 83.8462 267.316 83.5836 270.365 83.5944C276.268 83.5944 281.931 84.5397 285.017 86.2224C286.544 87.0637 287.267 88.0043 287.121 88.9402C286.832 90.7363 283.448 92.4426 278.296 93.3927C269.892 94.9478 259.248 94.1253 254.573 91.554C253.046 90.7127 252.318 89.7721 252.47 88.8362C252.739 87.0401 256.118 85.3338 261.271 84.379ZM269.306 92.6695C266.92 92.6948 264.539 92.4314 262.216 91.8849C259.418 91.1759 257.834 90.1171 257.749 88.8929C257.697 88.1839 258.146 87.1299 260.585 86.1609C264.773 84.4641 272.312 84.1332 277.403 85.4188C280.201 86.1231 281.779 87.1866 281.869 88.4108C281.917 89.1198 281.472 90.1738 279.033 91.1428C276.594 92.1118 272.917 92.6695 269.306 92.6695ZM270.251 85.0076C266.697 85.0076 263.114 85.5276 260.694 86.5107C258.973 87.2055 258.056 88.0421 258.113 88.874C258.184 89.8855 259.739 90.8781 262.301 91.5257C267.321 92.7971 274.76 92.471 278.882 90.7978C280.602 90.1029 281.519 89.2663 281.463 88.4344C281.392 87.4229 279.827 86.4303 277.275 85.7828C274.97 85.2444 272.609 84.9842 270.242 85.0076H270.251ZM269.778 90.7789C265.671 90.7789 262.452 89.739 262.452 88.4155C262.452 87.0921 265.671 86.0522 269.778 86.0522C273.886 86.0522 277.105 87.0921 277.105 88.4155C277.105 89.739 273.886 90.7789 269.778 90.7789ZM269.778 86.4114C265.629 86.4114 262.84 87.4466 262.84 88.4155C262.84 89.3845 265.629 90.4196 269.778 90.4196C273.928 90.4196 276.717 89.3845 276.717 88.4155C276.717 87.4466 273.928 86.4114 269.778 86.4114Z" fill="url(#paint14_linear_720_56655)"/>
<path d="M287.234 26.0239H287.385H287.953H288.108L288.803 25.9955H288.95L289.555 25.9577H289.734L290.472 25.901H290.599L291.256 25.8443H291.455L292.244 25.7639H292.325L293.067 25.6741L293.279 25.6457L294.121 25.5323L288.104 22.1906L287.262 22.304L287.031 22.2426L286.289 22.3324H286.208L285.419 22.4174H285.221L284.559 22.4742H284.436L283.694 22.5309H283.514L282.914 22.5687H282.767L282.068 22.5971H281.912C281.723 22.5971 281.534 22.5971 281.349 22.5971H279.714C279.506 22.5971 279.303 22.5971 279.1 22.5971H279.005H278.485H278.334L277.752 22.5592H277.705L277.185 22.5167H277.039L276.5 22.46L275.975 22.3985H275.838L275.365 22.3324H275.309L274.836 22.2567L274.742 22.2426L274.335 22.1717H274.259L273.81 22.0818H273.702L273.342 21.9968H273.253L272.851 21.8928L272.567 21.7699L272.388 21.7179C272.279 21.6895 272.17 21.6517 272.062 21.6186L271.939 21.5856L271.509 21.4485L271.433 21.3918C271.319 21.3539 271.211 21.3161 271.107 21.2736L270.96 21.2169L270.71 21.1223L270.558 21.0609L270.336 20.9664L270.18 20.8955L269.968 20.8246L269.816 20.7537L269.627 20.6591L269.438 20.5646L269.348 20.5173L269.07 20.3519L275.087 23.6605C275.176 23.7125 275.266 23.7645 275.361 23.8118L275.451 23.8591L275.588 23.93H275.644L275.829 24.0198L275.985 24.0954L276.183 24.1852L276.339 24.2561L276.561 24.3459L276.717 24.4121L276.968 24.5066L277.11 24.5633L277.431 24.6768L277.521 24.7099L277.951 24.8469L278.079 24.8847L278.405 24.984L278.58 25.0313L278.873 25.1116H278.91L279.279 25.2014H279.364L279.714 25.3291H279.818L280.291 25.4236H280.366L280.768 25.4992H280.891L281.364 25.5796H281.416L281.888 25.6457H282.025L282.55 25.7072C282.725 25.7072 282.904 25.745 283.089 25.7639H283.235C283.405 25.7639 283.576 25.797 283.751 25.8064H283.803L284.379 25.8443H284.53H285.05H285.145H285.764H286.591C286.796 25.9323 287.02 25.964 287.234 26.0239Z" fill="url(#paint15_linear_720_56655)"/>
<path d="M260.835 81.893C249.368 75.0724 248.835 67.3086 248.821 66.8832L248.882 31.7926L242.879 28.484L242.813 63.5793C242.813 64 243.03 72.0069 254.502 78.8227C256.289 79.8815 257.778 80.737 259.025 81.4271L265.591 84.4538C264.343 83.7543 262.616 82.9517 260.835 81.893Z" fill="url(#paint16_linear_720_56655)"/>
<path d="M271.48 20.3519C271.669 20.7348 275.261 27.976 294.121 25.3196L294.054 60.2211C294.054 60.6465 293.804 68.6629 282.238 78.6976C274.108 85.745 272.038 86.9125 271.523 86.9834C270.705 87.1015 268.635 86.5107 260.528 81.7462C248.967 74.9682 248.745 67.018 248.745 66.5926L248.811 31.6958C267.689 29.0347 271.291 20.7867 271.48 20.3519Z" fill="url(#paint17_linear_720_56655)"/>
<path d="M294.121 25.6977V25.4425C286.558 26.1798 281.444 25.8017 278.05 25.0785C281.316 25.8915 286.374 26.3878 294.121 25.6977Z" fill="url(#paint18_linear_720_56655)"/>
<path d="M261.256 81.699C249.756 74.9493 249.548 67.0464 249.539 66.6163L249.6 31.8944C265.959 29.5972 270.799 23.0839 271.905 21.1507C271.705 20.903 271.531 20.6354 271.385 20.3519C271.196 20.782 267.604 28.9922 248.811 31.6344L248.745 66.3563C248.745 66.7722 248.962 74.6941 260.462 81.4343C266.408 84.932 269.088 86.1609 270.421 86.5249C268.89 85.9435 266.205 84.6011 261.256 81.699Z" fill="url(#paint19_linear_720_56655)"/>
<path d="M291.02 31.0341V30.7505L290.755 30.7836V30.4811L290.486 30.5142V30.2117C279.738 31.7242 274.921 29.4034 272.889 27.6546C272.672 27.405 272.487 27.1305 272.336 26.8368L272.288 26.9408C272.209 26.8224 272.136 26.6993 272.071 26.5722L272.024 26.6761C271.944 26.5577 271.871 26.4346 271.806 26.3075C271.806 26.3075 271.806 26.3595 271.759 26.4114C271.679 26.294 271.608 26.1708 271.546 26.0428C271.386 26.4067 268.375 33.3312 252.578 35.5575L252.526 64.8627V65.1321C252.526 65.4015 252.64 69.542 257.296 74.0513L257.565 74.3207C259.174 75.8821 260.975 77.2321 262.925 78.3383C269.594 82.2662 271.376 82.8097 272.09 82.7341C272.189 82.7483 272.289 82.7483 272.388 82.7341C272.818 82.6727 274.548 81.6942 281.368 75.7812C291.063 67.3772 291.261 60.656 291.294 60.2873L291.285 31.0057L291.02 31.0341Z" fill="url(#paint20_linear_720_56655)"/>
<path d="M272.416 26.0239C272.572 26.3453 275.55 32.4568 291.285 30.2211L291.233 59.6775C291.233 60.032 291.015 66.8053 281.373 75.2755C274.595 81.2216 272.865 82.2094 272.444 82.2709C271.759 82.3654 270.039 81.8691 263.279 77.8515C253.656 72.1181 253.472 65.4015 253.472 65.0517L253.528 35.5906C269.254 33.3549 272.255 26.3878 272.416 26.0239Z" fill="url(#paint21_linear_720_56655)"/>
<path d="M271.943 26.0239C272.099 26.3453 275.077 32.4568 290.812 30.2211L290.76 59.6775C290.76 60.032 290.543 66.8053 280.9 75.2755C274.122 81.2216 272.392 82.2094 271.972 82.2709C271.286 82.3654 269.566 81.8691 262.807 77.8515C253.183 72.1181 252.999 65.4015 252.999 65.0517L253.056 35.5906C268.781 33.3549 271.783 26.3878 271.943 26.0239Z" fill="#6CC5F2"/>
<path d="M271.981 81.3256C271.509 81.2783 269.793 80.7158 263.648 77.133C254.913 72.0377 254.445 66.3232 254.417 65.6095L254.469 37.6467C265.643 35.8695 270.402 31.7856 272.312 29.3325C273.999 30.9396 277.563 33.0051 284.738 33.0051C286.452 32.9949 288.164 32.8923 289.867 32.6979L289.815 60.292C289.815 60.7174 289.385 66.9424 280.362 74.7272C274.089 80.1061 272.378 81.1365 271.981 81.3256Z" fill="url(#paint22_linear_720_56655)"/>
<path fill-rule="evenodd" clip-rule="evenodd" d="M285.14 47.2323L276.292 48.5038L279.993 38.9843L280.031 38.8851L269.802 40.355L263.577 58.8315L269.722 57.9476L267.098 72.8176L285.06 47.3505L285.14 47.2323ZM284.885 47.4025L267.297 72.3449L269.864 57.8058L263.747 58.685L269.892 40.4874L279.856 39.0694L276.159 48.5652L276.122 48.6597L284.885 47.4025Z" fill="white"/>
<path d="M269.958 65.255L269.774 65.1557L271.489 55.4756L271.669 55.5795L269.958 65.255Z" fill="#848484"/>
<path d="M273.158 50.8954L272.979 50.7962L280.702 49.6902L280.881 49.7894L273.158 50.8954Z" fill="#9A9A9A"/>
<path d="M276.92 41.2484L273.139 50.8955L280.886 49.7894L269.958 65.255L271.669 55.5796L265.94 56.3973L270.757 42.137L276.92 41.2484Z" fill="white"/>
<path d="M265.94 56.3925L265.761 56.2744L270.577 42.0141L270.757 42.1134L265.94 56.3925Z" fill="#878787"/>
<path d="M270.757 42.1323L270.577 42.033L276.722 41.1491L276.906 41.2484L270.757 42.1323Z" fill="#9A9A9A"/>
<path d="M265.539 16.7483V16.7908L265.506 16.8617L265.458 16.9657L265.392 17.0933V17.1169L265.302 17.2777V17.306L265.194 17.4951V17.5282C265.156 17.5991 265.109 17.67 265.061 17.7456V17.7739L264.896 18.0292L264.735 18.2561L264.697 18.3081L264.518 18.5491L264.485 18.5917L264.296 18.8327L264.267 18.8705L264.04 19.1399L263.988 19.2014C263.908 19.2959 263.823 19.3905 263.738 19.4803L263.709 19.5086L263.454 19.7875L263.393 19.8489L263.095 20.1515L263.034 20.2082L262.731 20.4965L262.689 20.5343C262.566 20.6572 262.429 20.7754 262.291 20.8935L262.145 21.0022C262.008 21.1204 261.871 21.2433 261.72 21.3615L261.634 21.4276L261.162 21.7963L261.096 21.8483L260.562 22.2406L260.198 22.4911L260.065 22.5762L259.791 22.7558L259.635 22.8598L259.366 23.03L259.2 23.1292L258.902 23.3136L258.751 23.3987L258.316 23.6539H258.293L257.82 23.9186L257.664 23.9989L257.314 24.1833L257.121 24.2825L256.775 24.4621L256.582 24.5567L256.142 24.7647L255.996 24.8308L255.395 25.0955L255.258 25.157L254.786 25.3649L254.568 25.45L254.095 25.6344L253.878 25.7147L253.278 25.9369L253.193 25.9699C252.961 26.055 252.72 26.1354 252.484 26.2157L252.271 26.2866L251.742 26.4615L251.486 26.5419L250.929 26.712L250.706 26.7782L249.912 27.0051L249.785 27.0382C249.553 27.1043 249.312 27.1658 249.085 27.2225L248.811 27.2934L248.216 27.4352L247.922 27.5014L247.218 27.6621L247.029 27.7046L246.117 27.8937L245.871 27.941C245.635 27.9835 245.398 28.026 245.157 28.078L244.836 28.1395L244.136 28.2576L243.829 28.3049C243.494 28.3616 243.158 28.4136 242.813 28.4609L248.835 31.8735L249.851 31.7175L250.158 31.6655L250.858 31.5474L251.179 31.4907C251.42 31.4481 251.652 31.4009 251.893 31.3489L252.134 31.3016L253.051 31.1173L253.24 31.0747L253.944 30.914L254.237 30.8478L254.838 30.706L255.107 30.6399L255.811 30.4508L255.934 30.4177C256.202 30.3484 256.467 30.2728 256.728 30.1908L256.95 30.1294C257.139 30.0679 257.329 30.0159 257.508 29.9545L257.763 29.8742L258.297 29.6993L258.51 29.6331L259.219 29.3826L259.295 29.3542C259.503 29.2786 259.706 29.2077 259.905 29.1273L260.117 29.047L260.59 28.8626L260.803 28.7776L261.275 28.5696L261.412 28.5129L262.013 28.2435L262.159 28.1773L262.594 27.9693L262.679 27.9315L262.792 27.8748L263.133 27.7046L263.327 27.6101L263.676 27.4258L263.832 27.3454L264.305 27.076L264.749 26.8207L264.896 26.7309L265.194 26.5513L265.354 26.4521L265.628 26.2772L265.784 26.1779L266.054 25.9983L266.181 25.9085L266.541 25.6627H266.564C266.749 25.5351 266.924 25.4027 267.098 25.2704L267.165 25.2184C267.33 25.0955 267.486 24.9726 267.637 24.8497L267.713 24.7883L268.143 24.4291L268.209 24.3676L268.616 24.0084L268.644 23.98L268.947 23.6917L269.008 23.6303C269.112 23.5326 269.211 23.4333 269.306 23.3325C269.325 23.3108 269.346 23.2903 269.367 23.271L269.622 22.9922L269.646 22.9638L269.901 22.6849L269.93 22.6566V22.6235L270.157 22.3541L270.185 22.321L270.374 22.0799L270.407 22.0327C270.473 21.9523 270.53 21.8672 270.587 21.7916L270.625 21.7396C270.681 21.664 270.733 21.5836 270.785 21.508C270.837 21.4324 270.899 21.3378 270.951 21.2575V21.2291L271.088 21.0117V20.9786L271.196 20.7895V20.7612C271.23 20.7045 271.263 20.6477 271.286 20.5958L271.348 20.4681L271.4 20.3641L271.433 20.2932V20.2507L265.539 16.7483Z" fill="url(#paint23_linear_720_56655)"/>
<path d="M233.383 50.1297C234.297 50.1297 235.038 49.3891 235.038 48.4754C235.038 47.5617 234.297 46.8211 233.383 46.8211C232.47 46.8211 231.729 47.5617 231.729 48.4754C231.729 49.3891 232.47 50.1297 233.383 50.1297Z" fill="#0C81BB"/>
<path d="M299.32 44.4578C300.625 44.4578 301.683 43.3997 301.683 42.0944C301.683 40.7892 300.625 39.7311 299.32 39.7311C298.015 39.7311 296.957 40.7892 296.957 42.0944C296.957 43.3997 298.015 44.4578 299.32 44.4578Z" fill="#0C81BB"/>
<path d="M223.694 38.3131C225.26 38.3131 226.53 37.0434 226.53 35.4771C226.53 33.9109 225.26 32.6412 223.694 32.6412C222.127 32.6412 220.858 33.9109 220.858 35.4771C220.858 37.0434 222.127 38.3131 223.694 38.3131Z" fill="#0EAFFF"/>
<path d="M224.583 77.7995L224.535 77.8278C223.221 78.7259 222.484 80.229 222.309 82.0818C222.197 83.5839 222.365 85.0938 222.805 86.5343C223.184 87.828 223.709 89.0743 224.37 90.2495C224.71 90.8545 225.088 91.4453 225.504 92.0598C225.859 92.5655 226.227 93.0382 226.61 93.4778C227.476 94.511 228.45 95.4476 229.517 96.2712C230.687 97.196 232.008 97.9123 233.421 98.3887C235.388 99.0221 237.245 98.9323 238.654 97.9917L238.706 97.9539L242.6 95.3117L240.918 92.9106C240.909 91.572 240.695 90.2426 240.284 88.9685C239.878 87.6904 239.332 86.4605 238.658 85.3007C238.361 84.7902 238.035 84.2797 237.713 83.774C237.3 83.1903 236.857 82.6287 236.385 82.0913C235.502 81.0642 234.506 80.1399 233.417 79.3356C232.424 78.593 231.33 77.9946 230.169 77.5584L228.468 75.1809L224.583 77.7995Z" fill="#056392"/>
<path d="M223.978 78.4646L223.926 78.5002C222.632 79.3825 221.923 80.8741 221.735 82.7099C221.624 84.1924 221.789 85.6824 222.223 87.1056C222.597 88.382 223.113 89.6135 223.762 90.7773C224.104 91.3946 224.479 91.9941 224.883 92.5735C225.233 93.072 225.597 93.5468 225.973 93.9979C226.825 95.0212 227.786 95.9498 228.841 96.7674C229.993 97.6793 231.296 98.3887 232.691 98.8644C234.63 99.4895 236.465 99.4025 237.855 98.4687L237.907 98.4331L241.749 95.8139L240.09 93.44C240.081 92.1132 239.869 90.7953 239.461 89.531C239.063 88.2674 238.526 87.0508 237.859 85.9028C237.568 85.3964 237.247 84.8939 236.898 84.3954C236.494 83.8152 236.059 83.2565 235.596 82.7218C234.724 81.7083 233.74 80.7939 232.663 79.9958C231.684 79.2644 230.605 78.673 229.458 78.2391L227.8 75.8652L223.978 78.4646Z" fill="#0670A6"/>
<mask id="mask0_720_56655" style="mask-type:alpha" maskUnits="userSpaceOnUse" x="221" y="75" width="22" height="25">
<path d="M223.978 78.4646L223.926 78.5002C222.632 79.3825 221.923 80.8741 221.735 82.7099C221.624 84.1924 221.789 85.6824 222.223 87.1056C222.597 88.382 223.113 89.6135 223.762 90.7773C224.104 91.3946 224.479 91.9941 224.883 92.5735C225.233 93.072 225.597 93.5468 225.973 93.9979C226.825 95.0212 227.786 95.9498 228.841 96.7674C229.993 97.6793 231.296 98.3887 232.691 98.8644C234.63 99.4895 236.465 99.4025 237.855 98.4687L237.907 98.4331L242.683 95.0386L240.09 93.44C240.081 92.1132 239.869 90.7953 239.461 89.531C239.063 88.2674 238.526 87.0508 237.859 85.9028C237.568 85.3964 237.247 84.8939 236.898 84.3954C236.494 83.8152 236.059 83.2565 235.596 82.7218C234.724 81.7083 233.74 80.7939 232.663 79.9958C231.684 79.2644 230.605 78.673 229.458 78.2391L227.8 75.8652L223.978 78.4646Z" fill="#0670A6"/>
</mask>
<g mask="url(#mask0_720_56655)">
<path d="M240.543 93.7877L232.692 98.8878C234.696 99.507 236.586 99.4219 238.019 98.5002L238.071 98.4671L242.711 95.1244L240.543 93.7877Z" fill="#52BEF4"/>
<path d="M224.067 78.4565L224.015 78.4896C222.663 79.4349 221.907 80.9616 221.728 82.8759L229.418 77.6435L228.075 75.7292L224.067 78.4565Z" fill="#056392"/>
<path d="M240.093 89.9403L229.397 97.1909C230.56 98.1017 231.869 98.8096 233.268 99.2848L240.935 94.1186L240.741 93.8539C240.734 92.5279 240.522 91.211 240.112 89.9497L240.093 89.9403Z" fill="#3BB4F1"/>
<path d="M237.829 85.8186L225.734 94.6149V94.8418C226.532 95.8783 227.451 96.8161 228.471 97.6352V97.8716L239.9 90.3657L239.72 89.5858C239.314 88.1678 238.638 87.369 237.957 86.0928L237.829 85.8186Z" fill="#26A9EB"/>
<path d="M235.414 82.7983L223.886 91.051C224.212 91.6655 224.576 92.2658 224.978 92.885C225.318 93.3954 225.672 93.8775 226.036 94.3408L237.636 86.0502C237.352 85.535 237.04 85.0151 236.69 84.5093C236.298 83.9178 235.873 83.3482 235.419 82.803L235.414 82.7983Z" fill="#1296D9"/>
<path d="M232.55 80.6052L222.255 87.4682C222.625 88.7066 223.134 89.8991 223.772 91.0227L235.438 83.2143C234.578 82.2319 233.613 81.3474 232.559 80.5768L232.55 80.6052Z" fill="#0784C3"/>
<path d="M229.113 77.8495L221.74 83.1197C221.62 84.6765 221.78 86.2422 222.213 87.7424L232.673 80.279C231.7 79.5106 230.62 78.888 229.468 78.4309L229.113 77.8495Z" fill="#0670A6"/>
</g>
<path d="M242.428 95.1554C245.732 92.8745 245.304 86.5253 241.472 80.9743C237.639 75.4232 231.854 72.7723 228.55 75.0533C225.246 77.3343 225.675 83.6834 229.507 89.2344C233.339 94.7855 239.124 97.4364 242.428 95.1554Z" fill="url(#paint24_linear_720_56655)"/>
<path d="M228.539 75.0622C228.274 75.2507 228.028 75.4661 227.807 75.705C227.698 75.8232 227.594 75.9508 227.495 76.0784C227.395 76.2061 227.405 76.2108 227.358 76.277C227.309 76.3402 227.265 76.4065 227.225 76.4755C226.901 77.0303 226.668 77.6335 226.535 78.2621C226.285 79.5197 226.285 80.8143 226.535 82.0718C226.773 83.3313 227.16 84.5579 227.688 85.7255C228.224 86.8988 228.872 88.0178 229.622 89.0673C229.995 89.5919 230.392 90.1024 230.813 90.5892C231.235 91.0848 231.683 91.5581 232.155 92.0072C233.096 92.9161 234.141 93.7094 235.27 94.3705C236.395 95.0484 237.638 95.5071 238.933 95.7224C239.584 95.8264 240.248 95.8264 240.899 95.7224C240.981 95.7135 241.062 95.6977 241.14 95.6751C241.221 95.6751 241.306 95.642 241.382 95.6184C241.542 95.5664 241.698 95.5333 241.854 95.4671C242.163 95.3539 242.46 95.2081 242.738 95.0323C242.191 95.407 241.571 95.663 240.918 95.7838C240.26 95.9034 239.587 95.9194 238.924 95.8311C237.605 95.6337 236.336 95.1912 235.18 94.5265C234.029 93.8731 232.964 93.0792 232.009 92.1632C230.099 90.3749 228.563 88.2253 227.49 85.839C226.956 84.6553 226.575 83.4084 226.356 82.1285C226.122 80.848 226.145 79.5339 226.422 78.2621C226.574 77.6284 226.828 77.0234 227.173 76.4707C227.523 75.9093 227.989 75.4291 228.539 75.0622Z" fill="#5AC3F8"/>
<path d="M230.784 88.4675C232.448 90.949 234.565 92.8633 236.73 93.8653C239.315 95.0612 240.818 94.4467 241.485 93.9741C242.151 93.5014 243.239 92.2772 243.068 89.3609C242.807 86.6172 241.831 83.9901 240.237 81.7415C238.573 79.2648 236.456 77.3457 234.291 76.3484C231.706 75.1526 230.198 75.767 229.536 76.2397C228.874 76.7124 227.782 77.9366 227.953 80.8482C228.209 83.5929 229.186 86.2213 230.784 88.4675Z" fill="url(#paint25_linear_720_56655)"/>
<path d="M236.848 93.785C237.028 93.8512 237.203 93.9221 237.382 93.9788L237.656 94.0686L237.926 94.1395L238.205 94.2104L238.479 94.2671C238.571 94.2878 238.664 94.3036 238.758 94.3144L239.037 94.3475C239.775 94.433 240.522 94.3136 241.197 94.0024C241.84 93.6612 242.342 93.1037 242.615 92.4284C242.906 91.7591 243.066 91.0404 243.087 90.3109C243.096 88.8235 242.828 87.3475 242.298 85.9577C241.226 83.1604 239.494 80.6633 237.25 78.6786C236.141 77.6915 234.859 76.919 233.469 76.4004C232.779 76.1494 232.047 76.0323 231.313 76.0554C230.583 76.0759 229.883 76.3538 229.337 76.84C228.808 77.3579 228.431 78.0122 228.25 78.7306C228.25 78.8252 228.208 78.915 228.179 79.0048C228.151 79.0946 228.142 79.1891 228.127 79.2789C228.113 79.3687 228.09 79.4633 228.08 79.5578L228.047 79.8414C228.049 79.9365 228.041 80.0315 228.023 80.125V80.9758C227.938 80.2146 227.968 79.4449 228.113 78.6928C228.256 77.9184 228.619 77.2014 229.158 76.6273C229.441 76.3436 229.777 76.1173 230.146 75.9608C230.499 75.804 230.873 75.7004 231.257 75.6536C232.046 75.6015 232.839 75.7009 233.591 75.9466C235.068 76.4461 236.434 77.2261 237.614 78.2438C239.967 80.2637 241.758 82.8574 242.813 85.7733C243.347 87.223 243.596 88.7621 243.546 90.3062C243.512 91.0959 243.324 91.8715 242.993 92.5891C242.817 92.9479 242.586 93.2765 242.307 93.5628C242.03 93.8544 241.698 94.0875 241.329 94.2482C240.6 94.5468 239.802 94.6304 239.027 94.4893C238.269 94.3676 237.534 94.13 236.848 93.785Z" fill="#0670A6"/>
<path fill-rule="evenodd" clip-rule="evenodd" d="M234.529 81.1975L235.588 81.604L235.229 82.0436L234.17 81.6371L234.203 81.292L234.232 80.9517C234.254 80.6511 234.361 80.3629 234.539 80.1198L234.898 79.6802C234.72 79.9234 234.614 80.2116 234.591 80.5121L234.563 80.8524L234.529 81.1975ZM236.155 80.7924C236.304 80.8811 236.433 80.9997 236.534 81.1408L240.329 85.8721L239.828 86.3117L236.047 81.5851C235.933 81.4277 235.786 81.2971 235.617 81.2022C235.481 81.1312 235.334 81.0847 235.182 81.0651H235.087C234.932 81.0603 234.779 81.1068 234.652 81.1975L235.153 80.7579C235.28 80.6679 235.433 80.6214 235.588 80.6256H235.669C235.841 80.6469 236.006 80.7037 236.155 80.7924ZM236.496 87.2429C236.4 87.2324 236.305 87.215 236.212 87.1909C235.49 87.0093 234.851 86.5896 234.397 85.9998C233.672 85.0863 233.726 84.6888 233.824 83.9568L233.825 83.9484V83.835L235.508 84.2556C235.591 84.2725 235.673 84.2947 235.754 84.3218C235.89 84.3345 236.022 84.3765 236.14 84.4451C236.258 84.5136 236.36 84.607 236.439 84.7188C236.617 84.9277 236.717 85.1915 236.723 85.4656C236.727 85.5702 236.709 85.6744 236.67 85.7715C236.631 85.8685 236.572 85.956 236.496 86.0281L236.968 85.598C237.045 85.5254 237.106 85.4372 237.145 85.3394C237.185 85.2416 237.204 85.1364 237.2 85.0308C237.189 84.7568 237.088 84.4941 236.912 84.284C236.832 84.1733 236.73 84.0807 236.611 84.0122C236.493 83.9438 236.362 83.9011 236.226 83.8869L235.976 83.8208L232.752 83.0409C232.684 83.0217 232.615 83.0075 232.544 82.9983C232.404 82.9794 232.261 82.989 232.124 83.0267C232.013 83.0551 231.912 83.1121 231.831 83.1921L231.358 83.6223C231.442 83.5466 231.542 83.4901 231.651 83.4568C231.789 83.4238 231.931 83.4142 232.072 83.4285C232.142 83.4381 232.211 83.4523 232.28 83.471L233.721 83.835L233.353 84.1611L233.324 84.4069L233.324 84.407C233.22 85.1443 233.164 85.5461 233.891 86.4535C234.348 87.0429 234.988 87.4623 235.711 87.6446C235.803 87.6669 235.896 87.6843 235.99 87.6966C236.492 87.768 237.002 87.6371 237.408 87.3327L237.469 87.276L237.942 86.8458L237.876 86.8978C237.478 87.1881 236.983 87.3119 236.496 87.2429ZM234.521 90.7915C234.701 90.9085 234.904 90.9877 235.116 91.0242C235.287 91.0481 235.462 91.0315 235.626 90.9757C235.785 90.9219 235.928 90.8331 236.047 90.7161L235.588 91.1754C235.466 91.2982 235.317 91.391 235.153 91.4468C234.989 91.5025 234.815 91.5196 234.643 91.4968C234.431 91.4616 234.229 91.3829 234.049 91.2658C233.87 91.1487 233.716 90.9956 233.598 90.8162L230.082 85.8674C229.73 85.4079 229.512 84.8598 229.453 84.284C229.408 83.9641 229.438 83.6383 229.54 83.3317C229.641 83.0251 229.812 82.7461 230.039 82.5162L230.5 82.0549C230.407 82.1492 230.324 82.2531 230.252 82.365C229.975 82.7932 229.859 83.3058 229.926 83.8113C229.986 84.3869 230.203 84.9347 230.554 85.3947L234.066 90.3435C234.186 90.5221 234.341 90.6745 234.521 90.7915ZM230.512 82.0436L230.5 82.0549C230.504 82.0511 230.508 82.0473 230.512 82.0436ZM236.061 90.7028C236.056 90.7073 236.052 90.7117 236.047 90.7161L236.061 90.7028Z" fill="#0670A6"/>
<path d="M236.026 82.4978L235.808 82.4269L232.731 81.4579C232.565 81.405 232.394 81.3686 232.221 81.3492C231.905 81.3021 231.583 81.3214 231.275 81.4059C230.824 81.5262 230.434 81.809 230.179 82.2C229.897 82.6157 229.778 83.1202 229.843 83.618C229.908 84.1904 230.131 84.7335 230.486 85.1872L234.092 90.0935C234.217 90.2719 234.376 90.4236 234.561 90.5397C234.745 90.6557 234.951 90.7338 235.165 90.7694C235.34 90.7929 235.518 90.7771 235.685 90.7231C235.853 90.6691 236.006 90.5784 236.134 90.4574L236.229 90.3629L231.809 84.4073C231.673 84.2252 231.582 84.0128 231.545 83.7881C231.513 83.5886 231.553 83.3841 231.658 83.2115C231.751 83.0522 231.896 82.9302 232.069 82.8664C232.202 82.824 232.343 82.8143 232.481 82.8381C232.548 82.8438 232.614 82.8565 232.679 82.8759L235.851 83.7172L236.097 83.7881C236.232 83.8055 236.362 83.8522 236.478 83.9248C236.594 83.9974 236.693 84.0943 236.768 84.2088C236.94 84.437 237.037 84.7126 237.047 84.9982C237.052 85.1199 237.029 85.2413 236.98 85.3529C236.931 85.4644 236.857 85.563 236.763 85.641C236.685 85.7004 236.596 85.7436 236.501 85.768C236.406 85.7923 236.307 85.7974 236.21 85.7828L236.054 85.7497C235.775 85.656 235.533 85.4754 235.364 85.2345C235.271 85.1178 235.206 84.9812 235.174 84.8353C235.142 84.6894 235.144 84.5381 235.18 84.3932C235.176 84.2616 235.187 84.13 235.213 84.0008L233.757 83.6227L233.728 83.8779C233.635 84.2575 233.637 84.6544 233.734 85.033C233.831 85.4116 234.021 85.7602 234.286 86.0475C234.712 86.6591 235.337 87.1036 236.054 87.3048L236.338 87.3615C236.588 87.404 236.844 87.3913 237.089 87.3244C237.334 87.2574 237.562 87.1378 237.756 86.9739C237.963 86.7789 238.125 86.5395 238.227 86.2735C238.329 86.0075 238.37 85.7218 238.346 85.4377C238.315 84.7789 238.082 84.1454 237.68 83.6227C237.503 83.3256 237.264 83.0709 236.978 82.8766C236.692 82.6822 236.367 82.5529 236.026 82.4978Z" fill="#DAD4FF"/>
<path d="M240.384 84.8327L237.789 81.1885C237.535 80.8276 237.214 80.5194 236.843 80.281C236.532 80.0863 236.182 79.9606 235.818 79.9123H235.695C235.335 79.8842 234.976 79.9847 234.683 80.1959C234.397 80.4327 234.216 80.7721 234.178 81.1412L234.14 81.491L234.097 81.8408L235.458 82.252V82.0582L235.482 81.7226C235.485 81.5666 235.547 81.4176 235.657 81.3066C235.769 81.2157 235.91 81.1672 236.054 81.1696H236.144C236.305 81.1952 236.459 81.2554 236.596 81.3459C236.732 81.4364 236.847 81.5552 236.933 81.6942L240.384 86.5249L240.45 86.4634C240.828 86.1136 240.781 85.3999 240.384 84.8327Z" fill="#DAD4FF"/>
<g opacity="0.85">
<path d="M323.061 47.2964L323.085 47.3205C323.7 48.0073 323.908 48.9585 323.756 50.0265C323.756 50.0265 323.756 50.0505 323.756 50.0642C323.608 50.9369 323.298 51.7751 322.842 52.5367C322.444 53.2231 321.97 53.8635 321.429 54.446C321.148 54.7482 320.846 55.0435 320.523 55.3285C320.252 55.5655 319.974 55.7887 319.693 55.9982C319.053 56.4707 318.364 56.8736 317.637 57.2001C316.841 57.5697 315.987 57.802 315.112 57.8869C313.904 57.9762 312.859 57.6671 312.188 56.9254C312.182 56.9147 312.174 56.9054 312.164 56.8979L310.32 54.8375L311.619 53.6974C311.812 52.9314 312.124 52.1994 312.543 51.5271C312.955 50.8521 313.441 50.2234 313.991 49.6522C314.234 49.4015 314.491 49.1542 314.762 48.9139C315.079 48.636 315.41 48.3747 315.755 48.1309C316.404 47.6678 317.103 47.2763 317.838 46.9633C318.508 46.6758 319.215 46.4838 319.939 46.3933L321.235 45.2532L323.061 47.2964Z" fill="#056392"/>
<path d="M321.217 45.2429L323.085 47.3033C323.7 47.9901 323.908 48.9413 323.756 50.0093L320.234 46.1083L321.217 45.2429Z" fill="#056392"/>
<path d="M311.452 53.8279L315.095 57.8834C313.886 57.9727 312.841 57.6637 312.171 56.9219C312.165 56.9113 312.157 56.9019 312.147 56.8944L310.303 54.8341L311.452 53.8279Z" fill="#52BEF4"/>
<path d="M312.518 51.5237L317.633 57.2069C316.838 57.5766 315.984 57.8089 315.109 57.8937L311.469 53.8382L311.615 53.7111C311.809 52.9451 312.12 52.2131 312.539 51.5409L312.518 51.5237Z" fill="#3BB4F1"/>
<path d="M313.966 49.6453L319.682 56.005C319.043 56.4775 318.353 56.8805 317.626 57.2069L312.525 51.5306C312.938 50.8555 313.423 50.2268 313.973 49.6556L313.966 49.6453Z" fill="#26A9EB"/>
<path d="M315.734 48.1206L321.422 54.4494C321.141 54.7516 320.839 55.047 320.516 55.332C320.245 55.5689 319.967 55.7921 319.686 56.0016L313.966 49.6487C314.209 49.398 314.466 49.1508 314.737 48.9104C315.054 48.6326 315.386 48.3713 315.73 48.1275L315.734 48.1206Z" fill="#1296D9"/>
<path d="M317.821 47.4268L322.843 52.6574C322.445 53.3004 321.971 53.9003 321.429 54.446L315.741 48.5173C316.39 48.0835 317.089 47.7168 317.825 47.4236L317.821 47.4268Z" fill="#0784C3"/>
<path d="M320.214 46.1255L323.752 50.0642C323.604 50.937 323.295 51.7751 322.839 52.5367L317.818 46.953C318.487 46.6655 319.194 46.4735 319.919 46.383L320.214 46.1255Z" fill="#0670A6"/>
<ellipse cx="315.773" cy="50.0557" rx="7.27058" ry="4.3209" transform="rotate(-41.63 315.773 50.0557)" fill="url(#paint26_linear_720_56655)"/>
<path d="M321.242 45.2704C321.507 45.5545 321.707 45.8918 321.829 46.2594C321.948 46.6289 322.008 47.0149 322.006 47.4029C321.98 48.1781 321.806 48.9414 321.492 49.6522C321.185 50.3645 320.79 51.0359 320.314 51.6507C319.375 52.8888 318.194 53.9281 316.842 54.707C316.169 55.1018 315.449 55.4121 314.699 55.6307C313.948 55.8548 313.161 55.9352 312.379 55.8677C311.989 55.8256 311.608 55.7212 311.251 55.5586C310.898 55.3962 310.583 55.1623 310.327 54.8718C310.459 55.0118 310.607 55.1362 310.768 55.2427C310.925 55.3529 311.094 55.445 311.272 55.5174C311.627 55.6633 312.003 55.7526 312.386 55.7818C313.155 55.83 313.926 55.7333 314.658 55.4968C315.393 55.2698 316.098 54.9574 316.758 54.5662C317.42 54.1777 318.041 53.7257 318.613 53.2166C319.192 52.7134 319.72 52.1556 320.189 51.5512C320.659 50.9487 321.055 50.2941 321.37 49.6006C321.693 48.9091 321.88 48.1634 321.922 47.4029C321.938 47.0227 321.892 46.6425 321.787 46.2765C321.76 46.1857 321.729 46.0963 321.693 46.0087C321.658 45.9195 321.617 45.8324 321.572 45.7477C321.479 45.5776 321.368 45.4176 321.242 45.2704V45.2704Z" fill="#67C4FB"/>
<path d="M318.154 52.7084C316.938 53.8322 315.439 54.6125 313.813 54.968C312.077 55.2839 311.268 54.7104 310.935 54.3396C310.601 53.9687 310.122 53.0999 310.643 51.4378C311.822 48.3083 314.494 45.9607 317.776 45.1708C319.512 44.8549 320.325 45.4284 320.655 45.7992C320.984 46.1701 321.467 47.0355 320.95 48.7009C320.396 50.2592 319.43 51.6427 318.154 52.7084Z" fill="url(#paint27_linear_720_56655)"/>
<path d="M313.814 54.968C313.36 55.0799 312.892 55.1239 312.425 55.0985C311.941 55.0707 311.474 54.9075 311.081 54.628C310.883 54.4799 310.718 54.2943 310.594 54.082C310.468 53.8688 310.376 53.6369 310.324 53.3952C310.228 52.9237 310.228 52.4382 310.324 51.9667C310.511 51.0389 310.882 50.1568 311.414 49.3706C312.466 47.7987 313.914 46.5252 315.616 45.6756C316.462 45.251 317.383 44.9921 318.328 44.9132C318.814 44.8778 319.302 44.9361 319.766 45.0849C319.999 45.1641 320.219 45.2801 320.415 45.4283C320.614 45.5761 320.782 45.7618 320.908 45.9743C321.142 46.3935 321.251 46.87 321.221 47.3479C321.194 47.811 321.096 48.2673 320.929 48.7009C320.953 48.5876 320.981 48.4777 321.002 48.3575C321.023 48.2373 321.047 48.1343 321.057 48.0141C321.089 47.7866 321.1 47.5568 321.092 47.3273C321.086 46.8824 320.956 46.4477 320.717 46.0705C320.466 45.7171 320.097 45.4619 319.675 45.3494C319.247 45.2353 318.8 45.2015 318.359 45.2498C317.461 45.3561 316.591 45.6275 315.793 46.0499C314.986 46.4636 314.236 46.9771 313.56 47.578C312.875 48.1705 312.271 48.848 311.761 49.5938C311.243 50.328 310.867 51.1513 310.653 52.0216C310.554 52.4483 310.535 52.8896 310.598 53.3231C310.663 53.7519 310.877 54.1451 311.202 54.4357C311.553 54.7147 311.975 54.8929 312.421 54.9508C312.651 54.9869 312.883 55.0019 313.116 54.9954C313.23 54.9954 313.345 54.9954 313.463 54.9954L313.814 54.968Z" fill="#0670A6"/>
<path fill-rule="evenodd" clip-rule="evenodd" d="M315.439 51.3246H315.473L315.574 51.304H315.598L315.72 51.2697H315.751L315.845 51.2319H315.876L315.994 51.1735H316.015L316.078 51.1357L316.105 51.1151L316.154 51.0842L316.223 51.0293L316.272 50.9915L316.296 50.9709L316.369 50.9022L316.442 50.8267L316.463 50.8026L316.501 50.7614L316.543 50.7065L316.564 50.6825C316.584 50.6589 316.601 50.6336 316.616 50.6069C316.631 50.5864 316.643 50.5645 316.654 50.5417L316.675 50.5039V50.4798C316.676 50.4673 316.676 50.4547 316.675 50.4421C316.676 50.4341 316.676 50.426 316.675 50.418V50.3974V50.3562C316.676 50.3471 316.676 50.3378 316.675 50.3288V50.2841V50.1948V50.1742C316.677 50.1468 316.677 50.1193 316.675 50.0918C316.677 50.0598 316.677 50.0277 316.675 49.9957V49.9682V49.872C316.679 49.8286 316.679 49.785 316.675 49.7415V48.131V48.0211C316.677 47.9879 316.677 47.9547 316.675 47.9215C316.669 47.8894 316.658 47.8582 316.644 47.8288C316.631 47.7981 316.616 47.7682 316.599 47.7395L316.567 47.6915L316.369 47.4236L316.401 47.4717C316.418 47.4992 316.433 47.5279 316.446 47.5575C316.446 47.5756 316.454 47.5936 316.462 47.6116C316.468 47.6245 316.474 47.6374 316.477 47.6502C316.488 47.6826 316.495 47.716 316.498 47.7498V47.8597V49.4703C316.502 49.5137 316.502 49.5573 316.498 49.6007V49.6969V49.7244C316.5 49.7564 316.5 49.7885 316.498 49.8205C316.5 49.848 316.5 49.8755 316.498 49.9029V49.9235V50.0128V50.0334V50.0781C316.5 50.0871 316.5 50.0965 316.498 50.1055V50.1468C316.5 50.1581 316.5 50.1697 316.498 50.1811C316.498 50.1891 316.498 50.1971 316.498 50.2051L316.48 50.2429V50.2669L316.456 50.3116V50.3322L316.414 50.3974C316.414 50.4135 316.399 50.4295 316.384 50.4455C316.376 50.4535 316.368 50.4615 316.362 50.4695L316.342 50.4936L316.3 50.5485L316.255 50.5966L316.234 50.6206L316.161 50.6962L316.06 50.7855C316.047 50.7999 316.032 50.8125 316.015 50.8232L315.946 50.8782C315.928 50.8876 315.912 50.8992 315.897 50.9125L315.803 50.9675L315.685 51.0259H315.654L315.557 51.0671H315.529L315.407 51.1048H315.383L315.282 51.1254H315.248H315.126C314.778 51.1547 314.437 51.0167 314.209 50.7546L314.168 50.6996L314.366 50.9709L314.407 51.0259C314.637 51.2852 314.977 51.4226 315.324 51.3967L315.439 51.3246ZM315.237 47.9799L315.279 47.9524L315.321 47.9284H315.341L315.407 47.8975C315.46 47.8775 315.515 47.866 315.571 47.8631C315.61 47.8598 315.649 47.8598 315.689 47.8631C315.772 47.8739 315.848 47.9142 315.904 47.9765L315.703 47.7052C315.645 47.6426 315.568 47.6013 315.484 47.5884C315.446 47.585 315.407 47.585 315.369 47.5884C315.313 47.5912 315.258 47.6028 315.206 47.6228L315.14 47.6537H315.119L315.084 47.6743L315.043 47.7052H315.025C315.013 47.7157 315.001 47.7272 314.991 47.7395L312.727 50.0025L312.928 50.2738L315.189 48.0074L315.237 47.9799ZM317.196 49.3259L317.442 49.3087H317.474C317.583 49.3038 317.692 49.3274 317.79 49.3774C317.856 49.4129 317.914 49.4624 317.959 49.5224L317.765 49.2606C317.72 49.1969 317.661 49.1441 317.592 49.1061C317.494 49.0572 317.385 49.0347 317.276 49.0408H317.244H316.998L316.862 49.0614L317.06 49.3327L317.196 49.3259ZM314.897 49.9475V49.9887C314.922 50.005 314.947 50.0199 314.973 50.0333V50.0608V50.1192V50.1501C314.978 50.1665 314.984 50.1825 314.991 50.1982V50.2291C315.001 50.2479 315.012 50.2659 315.025 50.2832L314.828 50.0127L314.807 49.9853C314.807 49.9761 314.807 49.9669 314.807 49.9578V49.9269C314.805 49.9109 314.805 49.8948 314.807 49.8788V49.8479V49.7895V49.762C314.805 49.7323 314.805 49.7025 314.807 49.6728V49.6487V49.6213C314.809 49.6122 314.809 49.6028 314.807 49.5938C314.809 49.5859 314.809 49.5776 314.807 49.5697L314.838 49.4942C314.849 49.4713 314.861 49.4495 314.876 49.429L314.925 49.3637L314.963 49.3225L314.994 49.2916L315.036 49.2607L315.078 49.2401H315.109H315.154H315.203H315.234H315.401H315.453L315.473 48.5189L315.671 48.7868L315.651 49.5079H315.602H315.432H315.307H315.258H315.213H315.182L315.14 49.532L315.095 49.5663L315.05 49.6075L315.012 49.6487C314.993 49.669 314.977 49.6908 314.963 49.714L314.925 49.7792C314.914 49.8027 314.905 49.8267 314.897 49.8513C314.895 49.8581 314.895 49.8651 314.897 49.8719V49.896C314.899 49.905 314.899 49.9144 314.897 49.9234V49.9475ZM319.088 49.9097C319.087 49.9292 319.087 49.9487 319.088 49.9681C319.085 49.9818 318.998 50.0711 318.998 50.0711C319 50.0836 319 50.0964 318.998 50.1089C318.998 50.1138 319.001 50.1152 319.003 50.1165C319.008 50.1189 319.012 50.1211 318.998 50.1432C318.977 50.1776 318.977 50.2119 318.977 50.2463V50.2772V50.3355C318.978 50.347 318.978 50.3584 318.977 50.3699L318.953 50.4351C318.952 50.4477 318.952 50.4603 318.953 50.4729C318.951 50.482 318.951 50.4913 318.953 50.5004C318.951 50.5117 318.951 50.5233 318.953 50.5347L318.932 50.5691L318.894 50.6343L318.877 50.6618C318.861 50.6883 318.844 50.7135 318.825 50.7373L318.755 50.8232C318.727 50.8568 318.697 50.8889 318.665 50.9193L316.321 53.2132L316.3 53.2373H316.276L316.251 53.2579L316.217 53.2853H316.192L316.123 53.3231H316.102L316.012 53.3609H315.932H315.907H315.817C315.561 53.3741 315.315 53.2577 315.164 53.0518L314.966 52.784C315.118 52.9881 315.363 53.1029 315.619 53.0896C315.649 53.0913 315.679 53.0913 315.71 53.0896H315.734L315.814 53.069L315.901 53.0347H315.925L315.994 52.9969H316.015H316.036L316.074 52.9694L316.098 52.9488L316.144 52.911L318.488 50.6137C318.52 50.5833 318.55 50.5512 318.578 50.5175L318.651 50.4283L318.71 50.3458C318.711 50.3367 318.711 50.3275 318.71 50.3184L318.748 50.2531L318.769 50.2188L318.8 50.157C318.799 50.1444 318.799 50.1318 318.8 50.1192C318.825 50.0986 318.825 50.078 318.825 50.054V50.023L318.845 49.9544V49.92L318.866 49.817V49.7449V49.6968C318.865 49.6774 318.865 49.6579 318.866 49.6384V49.5904C318.868 49.5709 318.868 49.5514 318.866 49.532V49.4839V49.4255V49.3809V49.3191V49.2779C318.868 49.2573 318.868 49.2366 318.866 49.2161C318.868 49.2024 318.868 49.1886 318.866 49.1749C318.86 49.1515 318.852 49.1285 318.842 49.1062C318.843 49.0947 318.843 49.0833 318.842 49.0718C318.839 49.0647 318.835 49.0573 318.832 49.0498C318.821 49.0252 318.81 48.9994 318.797 48.9757L318.998 49.247L319.043 49.3431V49.3775L319.071 49.4461V49.4839C319.078 49.504 319.084 49.5247 319.088 49.5457V49.5904V49.6522C319.087 49.667 319.087 49.682 319.088 49.6968C319.087 49.7162 319.087 49.7358 319.088 49.7552V49.8033C319.09 49.8227 319.09 49.8422 319.088 49.8617V49.9097Z" fill="#0670A6"/>
<path d="M312.692 49.9784L312.893 50.2497L312.695 49.9784" fill="#9A7D7C"/>
<path d="M312.723 50.0196L312.924 50.2909L312.893 50.2497L312.692 49.9784L312.723 50.0196Z" fill="#957978"/>
<path d="M318.647 48.8314L318.845 49.1027C318.866 49.1336 318.89 49.1645 318.911 49.1989L318.71 48.9276C318.693 48.8967 318.668 48.8623 318.647 48.8314Z" fill="#B89695"/>
<path d="M318.71 48.9276L318.911 49.1989C318.919 49.2156 318.929 49.2317 318.939 49.247L318.738 48.9757C318.73 48.9589 318.72 48.9429 318.71 48.9276Z" fill="#BD9A99"/>
<path d="M314.897 52.8526L315.095 53.1205L315.043 53.0552L314.845 52.784L314.897 52.8526Z" fill="#957978"/>
<path d="M316.171 50.5793C316.505 50.3156 316.666 49.8928 316.592 49.477C316.595 49.4336 316.595 49.3899 316.592 49.3465V47.736C316.595 47.5283 316.517 47.3275 316.373 47.1763C316.229 47.0293 316.037 46.939 315.831 46.9221C315.758 46.9153 315.685 46.9153 315.612 46.9221C315.458 46.9316 315.307 46.9664 315.164 47.0252C314.941 47.1114 314.739 47.245 314.574 47.4166L312.862 49.1336C312.606 49.3494 312.537 49.7125 312.695 50.0059L312.727 50.0471L314.991 47.7841C315.062 47.7102 315.149 47.6518 315.244 47.6124C315.296 47.5924 315.352 47.5808 315.407 47.578C315.446 47.5746 315.484 47.5746 315.522 47.578C315.606 47.591 315.684 47.6322 315.741 47.6948C315.794 47.7607 315.819 47.8445 315.81 47.9283L315.782 49.5045C315.782 49.5045 315.782 49.5835 315.782 49.6453C315.806 49.7981 315.752 49.9527 315.637 50.0574C315.522 50.1743 315.37 50.2473 315.206 50.2634C315.066 50.2762 314.928 50.2237 314.832 50.1213C314.737 50.019 314.695 49.8785 314.72 49.7414C314.74 49.5902 314.811 49.4501 314.921 49.3431C315.031 49.2293 315.187 49.1712 315.345 49.1851H315.512H315.55L315.571 48.464H315.435C315.056 48.4545 314.693 48.6163 314.449 48.9035C314.197 49.1496 314.031 49.4682 313.973 49.8136C313.918 50.1352 314.004 50.4649 314.209 50.7201C314.437 50.9823 314.778 51.1203 315.126 51.091C315.527 51.0542 315.899 50.8719 316.171 50.5793Z" fill="#D4F7FF"/>
<path d="M318.738 48.9757C318.602 48.7281 318.392 48.5279 318.137 48.4022C317.896 48.287 317.629 48.2349 317.362 48.2511H317.303L317.06 48.2751L316.824 48.2992L316.862 49.0684L316.998 49.0478H317.244H317.286C317.395 49.0416 317.504 49.0641 317.602 49.113C317.702 49.1694 317.782 49.2545 317.831 49.3568C317.882 49.4638 317.897 49.5843 317.873 49.7002C317.848 49.8218 317.784 49.9317 317.689 50.0127L314.855 52.784L314.907 52.8526C315.059 53.0567 315.304 53.1716 315.56 53.1583C315.761 53.1441 315.951 53.0602 316.095 52.9213L318.439 50.624C318.668 50.4066 318.823 50.1248 318.883 49.817C318.931 49.5283 318.88 49.2322 318.738 48.9757Z" fill="#D4F7FF"/>
</g>
<path d="M295.666 85.4756H295.694C296.438 85.2095 297.049 84.6634 297.396 83.9536C297.675 83.3919 297.836 82.779 297.869 82.1527C297.906 81.6146 297.869 81.0739 297.76 80.5457C297.662 80.0355 297.503 79.5389 297.287 79.0662C297.056 78.5806 296.764 78.1263 296.418 77.7144C296.025 77.2303 295.544 76.826 295 76.5233C294.63 76.3169 294.223 76.1878 293.802 76.144C293.381 76.1001 292.955 76.1423 292.551 76.2681H292.523L290.741 76.8683L290.698 78.102C290.486 78.6205 290.368 79.1727 290.349 79.7327C290.329 80.2677 290.378 80.8031 290.495 81.3256C290.547 81.5573 290.612 81.7861 290.689 82.0109C290.782 82.278 290.892 82.5385 291.02 82.7908C291.26 83.2773 291.565 83.7289 291.927 84.1332C292.269 84.5165 292.67 84.8435 293.114 85.1022L293.908 86.0475L295.666 85.4756Z" fill="#056392"/>
<path d="M290.812 78.0169L295.066 76.528C294.708 76.3203 294.311 76.1898 293.9 76.145C293.489 76.1003 293.073 76.1422 292.679 76.2681H292.651L290.911 76.8778L290.812 78.0169Z" fill="#056392"/>
<path d="M295.723 85.4269H295.751C296.476 85.1745 297.09 84.606 297.467 83.8388L293.213 85.3162L293.927 86.0522L295.723 85.4269Z" fill="#52BEF4"/>
<path d="M290.339 79.9076L296.484 77.79C296.093 77.3051 295.611 76.9006 295.066 76.5989L290.665 78.102L290.708 78.2296C290.489 78.7633 290.364 79.3311 290.339 79.9076Z" fill="#0670A6"/>
<path d="M290.371 81.4437L297.314 79.0804C297.084 78.5703 296.787 78.0933 296.43 77.6624L290.224 79.7941C290.202 80.3464 290.251 80.8993 290.371 81.439V81.4437Z" fill="#0784C3"/>
<path d="M291.185 82.7955L297.769 80.4937C297.671 79.9835 297.512 79.4868 297.296 79.0142L290.679 81.3256C290.73 81.5572 290.793 81.786 290.868 82.0109C290.959 82.2782 291.065 82.5401 291.185 82.7955Z" fill="#1296D9"/>
<path d="M292.154 84.1615L297.902 82.0535C297.938 81.4936 297.903 80.9313 297.798 80.3802L291.285 82.7672C291.513 83.2674 291.806 83.7361 292.154 84.1615Z" fill="#26A9EB"/>
<path d="M293.081 85.3393L297.41 83.874C297.702 83.3004 297.875 82.6731 297.916 82.0306L291.771 84.1056C292.122 84.4994 292.534 84.8345 292.991 85.0982L293.081 85.3393Z" fill="#3BB4F1"/>
<path d="M293.992 85.9412C296 85.2559 296.93 82.6534 296.069 80.1285C295.207 77.6035 292.881 76.1122 290.872 76.7976C288.863 77.4829 287.934 80.0854 288.795 82.6103C289.657 85.1353 291.983 86.6266 293.992 85.9412Z" fill="url(#paint28_linear_720_56655)"/>
<path d="M293.993 86.0522C294.264 85.9545 294.52 85.8192 294.754 85.6504C294.989 85.4845 295.202 85.2891 295.387 85.0691C295.756 84.6248 296.026 84.1078 296.181 83.5518C296.338 83.0004 296.403 82.4273 296.375 81.8549C296.318 80.7027 295.936 79.5901 295.274 78.6456C294.944 78.1793 294.54 77.7705 294.078 77.4355C293.618 77.0865 293.087 76.8414 292.523 76.7171C292.241 76.6528 291.952 76.6258 291.663 76.6367C291.374 76.6502 291.088 76.6994 290.812 76.7833C291.364 76.5896 291.958 76.5471 292.533 76.6604C293.109 76.7775 293.653 77.016 294.13 77.3599C294.602 77.699 295.013 78.1162 295.345 78.5936C296.026 79.5539 296.42 80.6885 296.479 81.8644C296.506 82.4489 296.434 83.0337 296.267 83.5944C296.096 84.1513 295.811 84.6665 295.43 85.1069C295.045 85.546 294.549 85.8726 293.993 86.0522Z" fill="#5AC3F8"/>
<path d="M295.704 80.2526C295.318 79.1387 294.554 78.1953 293.544 77.5868C293.172 77.3407 292.752 77.1781 292.311 77.1104C291.87 77.0427 291.42 77.0713 290.992 77.1945C290.579 77.3466 290.205 77.5883 289.897 77.9022C289.589 78.216 289.354 78.5942 289.21 79.0095C288.827 80.1139 288.833 81.3157 289.226 82.4165C289.618 83.5173 290.375 84.4513 291.37 85.0643C291.741 85.3111 292.162 85.4737 292.603 85.5407C293.044 85.6076 293.494 85.5773 293.922 85.4519C294.334 85.3013 294.708 85.0613 295.016 84.7491C295.324 84.4369 295.559 84.0603 295.704 83.6463C296.115 82.5525 296.115 81.3465 295.704 80.2526Z" fill="url(#paint29_linear_720_56655)"/>
<path d="M293.483 77.6482C293.172 77.4781 292.84 77.3509 292.495 77.2701C292.153 77.1946 291.8 77.185 291.455 77.2417C291.283 77.2719 291.115 77.3211 290.954 77.3883C290.797 77.456 290.648 77.5399 290.51 77.6388C290.231 77.8385 289.992 78.0886 289.805 78.3761C289.62 78.6707 289.476 78.9886 289.375 79.3215C289.276 79.6474 289.214 79.9836 289.191 80.3235C289.166 80.6642 289.178 81.0066 289.229 81.3445C289.281 81.6907 289.366 82.031 289.484 82.3607C289.597 82.688 289.739 83.0044 289.909 83.306C290.083 83.5928 290.282 83.8633 290.505 84.1143C290.735 84.3693 290.994 84.5976 291.275 84.7949C291.559 84.9922 291.867 85.1511 292.192 85.2676C292.516 85.3848 292.859 85.4393 293.204 85.4283C293.374 85.4236 293.544 85.3998 293.709 85.3574C293.873 85.3119 294.032 85.2485 294.182 85.1683C294.491 85.0066 294.764 84.7849 294.986 84.516C295.207 84.2445 295.39 83.9439 295.529 83.6227C295.42 83.9596 295.26 84.2782 295.057 84.568C294.844 84.861 294.574 85.1072 294.262 85.2912C294.102 85.3824 293.932 85.4569 293.757 85.5134C293.581 85.5655 293.401 85.5988 293.218 85.6126C292.849 85.636 292.478 85.5894 292.126 85.4756C291.431 85.2407 290.808 84.8323 290.316 84.2892C289.83 83.7521 289.457 83.1223 289.221 82.4375C288.984 81.7527 288.889 81.0272 288.94 80.3046C288.993 79.5778 289.234 78.8773 289.64 78.2722C289.848 77.9692 290.113 77.7093 290.42 77.5064C290.567 77.4048 290.726 77.3207 290.892 77.2559C291.065 77.194 291.244 77.1512 291.426 77.1283C291.788 77.0871 292.154 77.1177 292.504 77.2181C292.849 77.3136 293.179 77.4585 293.483 77.6482Z" fill="#0670A6"/>
<path fill-rule="evenodd" clip-rule="evenodd" d="M292.357 78.7401H292.981L293.114 78.915H293.17L293.251 78.9575H293.274L293.317 78.9812H293.345L293.393 79.019H293.416L293.44 79.0426L293.487 79.0899C293.502 79.1112 293.518 79.1317 293.534 79.1513L293.591 79.2269L293.648 79.3215L294.952 81.647V81.7132V81.751V81.8171V82.0913C294.932 82.1972 294.884 82.2962 294.815 82.3788C294.745 82.4615 294.656 82.5252 294.555 82.5639L294.291 82.6585C294.392 82.6201 294.481 82.5565 294.551 82.4738C294.62 82.3911 294.667 82.2919 294.688 82.1858C294.692 82.1592 294.692 82.132 294.688 82.1055V81.9069V81.8455V81.803V81.7699V81.7415V81.699L293.336 79.2789C293.318 79.2457 293.298 79.2141 293.274 79.1844L293.222 79.104L293.166 79.0379L293.123 78.9906H293.095L293.052 78.9481H293.029L292.981 78.915H292.958L292.901 78.8819H292.877L292.797 78.8394H292.745H292.703H292.655H292.183H292.088L292.357 78.7401ZM293.274 81.9968V81.6139C293.283 81.5782 293.283 81.5409 293.274 81.5052V81.4437V81.4154V81.3681L293.246 81.3019V81.2547V81.231L293.204 81.1554L293.161 81.0798V81.0561L293.133 81.0183L293.1 80.9711V80.9474L293.048 80.8907L293.005 80.8435L292.977 80.8198H292.948H292.915H292.882H292.844H292.778L292.712 80.7962H292.632H292.551L292.443 80.7678L291.067 80.2952H290.973H290.665L290.401 80.3897H290.448H290.528H290.727H290.817L292.135 80.7536L292.244 80.7867H292.324H292.405L292.471 80.8104H292.537H292.575H292.608H292.636H292.66L292.688 80.8387L292.731 80.886L292.783 80.9474L292.816 80.9947L292.849 81.0372C292.847 81.045 292.847 81.0531 292.849 81.0609L292.892 81.1365C292.912 81.1681 292.929 81.2013 292.944 81.2358C292.95 81.252 292.958 81.2678 292.967 81.283V81.439V81.491L292.996 81.5761C292.987 81.6118 292.987 81.6491 292.996 81.6848C293.007 81.7037 293.007 81.7037 293.004 81.7025C293.001 81.7013 292.996 81.699 292.996 81.7132V82.0677V82.1669C292.966 82.3086 292.904 82.4415 292.814 82.5554C292.75 82.6378 292.672 82.7086 292.585 82.7653L292.428 82.8239H292.48C292.516 82.8065 292.551 82.7869 292.585 82.7653L292.693 82.7247L292.75 82.701C292.881 82.6395 292.995 82.5479 293.084 82.4338C293.173 82.3196 293.233 82.186 293.26 82.044C293.266 82.0286 293.271 82.0128 293.274 81.9968ZM290.491 81.2263V81.4012C290.491 81.4142 290.495 81.427 290.5 81.439L291.838 83.8023L291.573 83.9063L290.226 81.543C290.223 81.5305 290.223 81.5177 290.226 81.5052V81.3208C290.216 81.2756 290.216 81.229 290.226 81.1838C290.234 81.1513 290.245 81.1197 290.259 81.0892C290.286 81.0232 290.337 80.9694 290.401 80.938L290.665 80.8434C290.6 80.8738 290.55 80.9279 290.524 80.9947C290.51 81.0252 290.499 81.0568 290.491 81.0892C290.481 81.1344 290.481 81.1811 290.491 81.2263ZM291.951 82.1291H292.055L292.14 82.1433H292.367L292.098 82.2425H291.833L291.757 82.2189H291.658L291.606 82.1764L291.559 82.1338L291.516 82.0771L291.493 82.0346V82.0015V81.7368L291.521 81.5997V81.5572L290.93 81.3776L291.195 81.2783L291.79 81.4579C291.79 81.4607 291.793 81.461 291.796 81.4614C291.804 81.4624 291.814 81.4636 291.79 81.5005C291.757 81.5524 291.757 81.6375 291.757 81.6375V81.855V81.8975C291.77 81.9105 291.778 81.927 291.781 81.9448L291.809 81.9873L291.852 82.0393C291.865 82.0573 291.881 82.0733 291.899 82.0866L291.951 82.1291Z" fill="#0670A6"/>
<path d="M291.597 83.8921L291.861 83.7929H291.824L291.559 83.8921H291.597Z" fill="#958778"/>
<path d="M291.951 78.8394L292.216 78.7401L292.31 78.7117L292.045 78.811L291.951 78.8394Z" fill="#B8A795"/>
<path d="M292.055 78.811L292.32 78.7117H292.367L292.097 78.811H292.055Z" fill="#BDAC99"/>
<path d="M294.399 82.7767L294.664 82.6821H294.603L294.333 82.7814L294.399 82.7767Z" fill="#958778"/>
<path d="M292.826 81.2357C292.757 81.0733 292.646 80.9325 292.503 80.8285C292.361 80.7244 292.193 80.661 292.017 80.6449L291.909 80.6166L290.595 80.2621C290.425 80.2112 290.242 80.2281 290.084 80.3093C289.935 80.3975 289.819 80.5319 289.753 80.6922C289.728 80.7438 289.707 80.7976 289.692 80.8529C289.668 80.9794 289.668 81.1092 289.692 81.2357C289.71 81.4369 289.775 81.6311 289.881 81.8029L290.883 83.5707C290.94 83.6968 291.039 83.799 291.163 83.8594C291.288 83.9199 291.429 83.9348 291.564 83.9016H291.601L290.259 81.5619C290.213 81.4891 290.184 81.4066 290.174 81.3208C290.169 81.2737 290.169 81.2262 290.174 81.179C290.182 81.1466 290.193 81.115 290.207 81.0845C290.235 81.02 290.285 80.9679 290.349 80.938C290.382 80.9239 290.417 80.9167 290.453 80.9167C290.488 80.9167 290.524 80.9239 290.557 80.938L291.838 81.3161L291.956 81.3492C292.018 81.3585 292.077 81.3827 292.128 81.4197C292.179 81.4567 292.221 81.5055 292.249 81.5619C292.319 81.6799 292.344 81.8192 292.32 81.9542C292.309 82.0113 292.286 82.0653 292.251 82.1119C292.217 82.1585 292.172 82.1966 292.12 82.2231C292.069 82.2496 292.012 82.2639 291.954 82.2648C291.896 82.2657 291.838 82.2532 291.786 82.2283C291.66 82.1819 291.555 82.0933 291.488 81.9778C291.455 81.9212 291.435 81.8579 291.429 81.7925C291.423 81.7271 291.432 81.6613 291.455 81.5997L291.483 81.4579V81.4201L290.892 81.2357V81.3539C290.848 81.5024 290.838 81.659 290.862 81.8121C290.887 81.9651 290.946 82.1106 291.034 82.2378C291.177 82.4992 291.401 82.7067 291.672 82.8286C291.796 82.8855 291.931 82.915 292.067 82.915C292.203 82.915 292.338 82.8855 292.462 82.8286C292.594 82.768 292.709 82.6768 292.799 82.5625C292.888 82.4483 292.949 82.3142 292.977 82.1716C293.039 81.8516 292.986 81.5198 292.826 81.2357Z" fill="#DAD4FF"/>
<path d="M292.088 78.7826C291.861 78.8438 291.656 78.9684 291.497 79.1419C291.352 79.3113 291.251 79.5144 291.204 79.7327V79.7847L291.166 79.9832L291.133 80.1817L291.776 80.3235V80.2101L291.814 80.0068V79.9832C291.832 79.8921 291.876 79.8082 291.942 79.7421C292.01 79.6734 292.097 79.6273 292.192 79.6098C292.292 79.5953 292.394 79.61 292.485 79.6523C292.581 79.6998 292.657 79.778 292.703 79.8745L294.347 82.7908H294.409C294.504 82.7542 294.589 82.6951 294.657 82.6186C294.724 82.542 294.772 82.4503 294.796 82.3512C294.829 82.1903 294.804 82.0228 294.726 81.8786L293.369 79.468C293.243 79.2324 293.046 79.0423 292.807 78.9244C292.589 78.7994 292.337 78.7495 292.088 78.7826Z" fill="#DAD4FF"/>
<g opacity="0.65">
<path d="M253.273 14.5171H253.256C252.849 14.3695 252.515 14.0647 252.328 13.669C252.17 13.3537 252.079 13.0089 252.059 12.656C252.038 12.3546 252.058 12.0517 252.119 11.756C252.15 11.6012 252.19 11.4486 252.24 11.2989C252.284 11.1717 252.333 11.0492 252.386 10.9291C252.507 10.6576 252.663 10.404 252.85 10.1752C253.068 9.91029 253.333 9.69033 253.632 9.52728C254.04 9.29426 254.524 9.24307 254.969 9.38592H254.983L255.97 9.7134L255.993 10.4037C256.107 10.6935 256.172 11.0011 256.183 11.3131C256.197 11.613 256.17 11.9133 256.104 12.206C256.076 12.336 256.041 12.4643 255.998 12.59C255.947 12.7389 255.887 12.8845 255.819 13.0258C255.688 13.2964 255.522 13.5477 255.324 13.7727C255.139 13.9875 254.92 14.1704 254.677 14.3145L254.243 14.847L253.273 14.5171Z" fill="#056392"/>
<path d="M256.016 10.3401L253.644 9.51787C254.051 9.28484 254.535 9.23366 254.981 9.37651H254.995L255.97 9.71341L256.016 10.3401Z" fill="#056392"/>
<path d="M253.273 14.5172H253.256C252.849 14.3695 252.515 14.0647 252.328 13.669L254.63 14.4677L254.243 14.8611L253.273 14.5172Z" fill="#52BEF4"/>
<path d="M256.183 11.3178L252.862 10.1681C253.079 9.90323 253.345 9.68328 253.644 9.52023L256.014 10.3401L255.991 10.4108C256.105 10.7005 256.169 11.0082 256.181 11.3202L256.183 11.3178Z" fill="#0670A6"/>
<path d="M256.104 12.2107L252.391 10.922C252.511 10.6506 252.667 10.397 252.855 10.1681L256.176 11.3202C256.19 11.62 256.163 11.9204 256.097 12.2131L256.104 12.2107Z" fill="#0784C3"/>
<path d="M255.81 13.0329L252.119 11.7489C252.15 11.5942 252.19 11.4415 252.24 11.2919C252.284 11.1647 252.333 11.0422 252.386 10.922L256.1 12.2107C256.072 12.3407 256.036 12.469 255.993 12.5947C255.942 12.7436 255.883 12.8892 255.814 13.0306L255.81 13.0329Z" fill="#1296D9"/>
<path d="M255.324 13.7798L252.059 12.6489C252.038 12.3475 252.058 12.0447 252.119 11.7489L255.81 13.0306C255.679 13.3012 255.513 13.5524 255.315 13.7774L255.324 13.7798Z" fill="#26A9EB"/>
<path d="M254.631 14.4606L252.328 13.662C252.171 13.3467 252.079 13.0018 252.059 12.6489L255.325 13.7798C255.139 13.9945 254.92 14.1775 254.677 14.3216L254.631 14.4606Z" fill="#3BB4F1"/>
<ellipse cx="255.105" cy="12.278" rx="2.70986" ry="2.12711" transform="rotate(-71.16 255.105 12.278)" fill="url(#paint30_linear_720_56655)"/>
<path d="M254.25 14.8493C253.947 14.7485 253.676 14.5661 253.468 14.3216C253.265 14.0759 253.114 13.7904 253.024 13.4829C252.934 13.1728 252.894 12.8496 252.908 12.5264C252.922 12.2055 252.981 11.8883 253.082 11.584C253.186 11.2777 253.332 10.9881 253.516 10.7241C253.7 10.4598 253.926 10.2289 254.185 10.0409C254.443 9.85082 254.738 9.71908 255.051 9.65451C255.36 9.59215 255.681 9.61575 255.979 9.72283C255.678 9.62616 255.358 9.61314 255.051 9.68514C254.745 9.75481 254.458 9.88974 254.208 10.0809C253.957 10.2694 253.738 10.4977 253.558 10.7571C253.199 11.2806 252.991 11.8961 252.959 12.5335C252.944 12.8514 252.98 13.1697 253.066 13.4758C253.149 13.7782 253.293 14.0597 253.489 14.3028C253.589 14.4246 253.705 14.5331 253.832 14.6255C253.961 14.7182 254.102 14.7934 254.25 14.8493Z" fill="#67C4FB"/>
<path d="M253.379 11.6806C253.58 11.0538 253.991 10.5179 254.54 10.1657C254.933 9.86752 255.445 9.78527 255.909 9.94594C256.373 10.1066 256.73 10.4895 256.861 10.9691C257.288 12.2474 256.811 13.6572 255.7 14.3994C255.307 14.6964 254.795 14.7776 254.331 14.6166C253.867 14.4556 253.511 14.0729 253.379 13.5936C253.16 12.9753 253.16 12.2989 253.379 11.6806Z" fill="url(#paint31_linear_720_56655)"/>
<path d="M254.533 10.1657C254.699 10.0515 254.882 9.96332 255.074 9.90423C255.27 9.84697 255.476 9.82936 255.68 9.8524C255.782 9.86468 255.883 9.89001 255.979 9.92779C256.075 9.96451 256.167 10.0119 256.253 10.0691C256.425 10.1865 256.574 10.337 256.689 10.5121C256.919 10.8636 257.055 11.2694 257.084 11.69C257.113 12.1058 257.06 12.5233 256.926 12.9175C256.795 13.3128 256.586 13.6768 256.311 13.9871C256.036 14.3001 255.686 14.5355 255.294 14.6703C255.098 14.7361 254.89 14.7625 254.684 14.748C254.477 14.7351 254.277 14.6721 254.099 14.5643C253.924 14.4567 253.772 14.315 253.651 14.1473C253.535 13.9804 253.443 13.797 253.379 13.603C253.457 13.7894 253.56 13.9639 253.686 14.1214C253.81 14.2749 253.963 14.4021 254.136 14.4959C254.221 14.5423 254.312 14.5787 254.405 14.6043C254.499 14.6283 254.594 14.6418 254.691 14.6444C254.884 14.6505 255.076 14.6194 255.257 14.5525C255.439 14.4845 255.611 14.3935 255.77 14.2816C255.928 14.1676 256.073 14.0356 256.202 13.8881C256.33 13.7431 256.444 13.5852 256.541 13.4169C256.635 13.245 256.713 13.0644 256.773 12.8774C256.836 12.6905 256.882 12.4981 256.91 12.3026C256.936 12.1067 256.943 11.9086 256.931 11.7112C256.918 11.5146 256.883 11.3201 256.826 11.1317C256.771 10.9443 256.693 10.7647 256.594 10.5969C256.489 10.4327 256.357 10.289 256.202 10.1728C256.124 10.1159 256.04 10.0677 255.951 10.0291C255.862 9.99097 255.768 9.96331 255.673 9.94664C255.479 9.91405 255.281 9.92046 255.09 9.96548C254.896 10.0051 254.708 10.0725 254.533 10.1657Z" fill="#0670A6"/>
<path d="M255.529 13.7703L255.371 13.7067L255.35 13.6973L255.508 13.7609L255.529 13.7703Z" fill="#957978"/>
<path fill-rule="evenodd" clip-rule="evenodd" d="M253.899 12.6489C253.844 12.7503 253.831 12.8701 253.864 12.9811C253.894 13.07 253.96 13.1414 254.045 13.1766L253.888 13.113C253.802 13.0784 253.735 13.0067 253.707 12.9174C253.674 12.8065 253.686 12.6867 253.741 12.5853L254.466 11.1717C254.529 11.0373 254.629 10.9239 254.753 10.8442C254.862 10.7729 254.993 10.7452 255.12 10.7665C255.155 10.7709 255.19 10.7804 255.222 10.7947L255.38 10.856C255.347 10.8435 255.313 10.8348 255.278 10.8301C255.15 10.8088 255.02 10.8366 254.911 10.9078C254.786 10.9869 254.687 11.1005 254.623 11.2353L253.899 12.6489ZM254.781 12.8727C254.774 12.8495 254.767 12.8259 254.763 12.802C254.728 12.6093 254.76 12.4103 254.853 12.2389C254.926 12.0463 255.09 11.9049 255.29 11.8643H255.317L255.401 12.312V12.3779C255.423 12.4458 255.417 12.5203 255.382 12.5829C255.35 12.6491 255.297 12.7028 255.232 12.736C255.182 12.7641 255.122 12.7685 255.069 12.7478L255.227 12.8114C255.279 12.8334 255.337 12.8334 255.389 12.8114C255.455 12.7773 255.508 12.7228 255.54 12.6559C255.575 12.5934 255.582 12.5188 255.559 12.451C255.559 12.4321 255.554 12.4122 255.55 12.3989L255.55 12.3989C255.548 12.3923 255.547 12.3873 255.547 12.385L255.389 11.5321C255.391 11.5149 255.391 11.4976 255.389 11.4803C255.385 11.4377 255.37 11.397 255.345 11.3625C255.325 11.3416 255.3 11.3248 255.273 11.313L255.115 11.2494C255.142 11.2612 255.167 11.278 255.187 11.2989C255.21 11.3261 255.227 11.3573 255.238 11.3908C255.24 11.4088 255.24 11.4269 255.238 11.445L255.308 11.8243L255.187 11.7748L255.125 11.7984C254.927 11.8388 254.763 11.9793 254.691 12.1706C254.597 12.342 254.565 12.541 254.6 12.7337C254.605 12.7583 254.611 12.7827 254.619 12.8067C254.659 12.9393 254.755 13.047 254.881 13.1012H254.902L254.977 13.1313C254.996 13.144 255.017 13.1552 255.039 13.1648H255.06L254.977 13.1313C254.884 13.0718 254.814 12.9804 254.781 12.8727ZM255.87 11.6689L255.935 12.0506L255.777 11.9893L255.712 11.6077L255.8 11.577L255.886 11.5488C255.961 11.522 256.043 11.522 256.118 11.5488L256.276 11.61C256.201 11.5843 256.119 11.5843 256.044 11.61L255.958 11.6406L255.87 11.6689ZM256.278 12.2177C256.275 12.2684 256.26 12.3176 256.234 12.3614L255.503 13.7609L255.345 13.6973L256.076 12.3002C256.102 12.2564 256.117 12.2072 256.12 12.1565C256.122 12.1183 256.117 12.0801 256.107 12.0434C256.106 12.0355 256.106 12.0277 256.107 12.0198C256.09 11.9833 256.063 11.9534 256.028 11.935L256.185 11.9963C256.221 12.0133 256.25 12.0436 256.264 12.0811C256.265 12.0889 256.265 12.0968 256.264 12.1046C256.275 12.1413 256.28 12.1795 256.278 12.2177Z" fill="#0670A6"/>
<path d="M255.863 12.2649C255.863 12.2649 255.863 12.2413 255.863 12.206L255.733 11.3626C255.726 11.3178 255.715 11.2736 255.7 11.2306C255.676 11.1511 255.635 11.0773 255.582 11.0139C255.505 10.9197 255.397 10.8576 255.278 10.8395C255.15 10.8183 255.02 10.846 254.911 10.9173C254.786 10.9963 254.686 11.11 254.623 11.2448L253.899 12.6583C253.844 12.7597 253.831 12.8796 253.864 12.9905C253.894 13.0794 253.96 13.1509 254.045 13.1861H254.078L254.951 11.4709C254.976 11.4169 255.016 11.3707 255.064 11.3367C255.107 11.3073 255.159 11.2947 255.211 11.3013C255.261 11.3044 255.309 11.3262 255.345 11.3626C255.369 11.3889 255.386 11.4203 255.396 11.4544C255.398 11.4717 255.398 11.489 255.396 11.5063L255.554 12.3591C255.554 12.3591 255.554 12.3968 255.566 12.4251C255.588 12.493 255.582 12.5675 255.547 12.6301C255.514 12.6969 255.462 12.7514 255.396 12.7856C255.34 12.8149 255.274 12.8149 255.217 12.7856C255.172 12.7598 255.138 12.7177 255.122 12.6678C255.121 12.6544 255.121 12.641 255.122 12.6277C255.109 12.5469 255.123 12.4639 255.162 12.3921C255.195 12.3204 255.259 12.2688 255.336 12.2531L255.431 12.2178L255.345 11.8338L255.285 11.855C255.086 11.8955 254.921 12.037 254.848 12.2296C254.755 12.4009 254.723 12.6 254.758 12.7926C254.763 12.8165 254.769 12.8401 254.777 12.8633C254.814 12.9917 254.903 13.098 255.023 13.1554C255.159 13.2128 255.314 13.2033 255.443 13.1295C255.591 13.05 255.712 12.9268 255.791 12.7761C255.885 12.6237 255.911 12.438 255.863 12.2649Z" fill="#D4F7FF"/>
<path d="M255.9 13.563L256.448 12.5099C256.503 12.4054 256.538 12.291 256.55 12.173C256.559 12.0736 256.548 11.9733 256.517 11.8785C256.517 11.8785 256.517 11.8573 256.517 11.8479C256.482 11.7563 256.417 11.6792 256.334 11.6288C256.247 11.5857 256.147 11.579 256.055 11.6099L255.97 11.6406L255.881 11.6688L255.946 12.0505L255.99 12.0293L256.074 11.9987C256.11 11.9822 256.152 11.9822 256.188 11.9987C256.224 12.0157 256.252 12.046 256.267 12.0835C256.267 12.0913 256.267 12.0992 256.267 12.107C256.277 12.1437 256.282 12.1819 256.281 12.2201C256.277 12.2708 256.262 12.32 256.236 12.3638L255.51 13.7633H255.531C255.685 13.7926 255.838 13.7093 255.9 13.563Z" fill="#D4F7FF"/>
</g>
</g>
<defs>
<linearGradient id="paint0_linear_720_56655" x1="338.038" y1="107.68" x2="338.038" y2="1.02661" gradientUnits="userSpaceOnUse">
<stop stop-color="#113658"/>
<stop offset="1" stop-color="#136594"/>
</linearGradient>
<linearGradient id="paint1_linear_720_56655" x1="173.597" y1="41.3112" x2="173.597" y2="16.008" gradientUnits="userSpaceOnUse">
<stop stop-color="#135681"/>
<stop offset="0.0001" stop-color="#124C73"/>
<stop offset="1" stop-color="#2F84B5"/>
</linearGradient>
<linearGradient id="paint2_linear_720_56655" x1="173.597" y1="41.3112" x2="173.597" y2="16.008" gradientUnits="userSpaceOnUse">
<stop stop-color="#135681"/>
<stop offset="0.0001" stop-color="#124C73"/>
<stop offset="1" stop-color="#2F84B5"/>
</linearGradient>
<linearGradient id="paint3_linear_720_56655" x1="173.597" y1="41.3112" x2="173.597" y2="16.008" gradientUnits="userSpaceOnUse">
<stop stop-color="#135681"/>
<stop offset="0.0001" stop-color="#124C73"/>
<stop offset="1" stop-color="#2F84B5"/>
</linearGradient>
<linearGradient id="paint4_linear_720_56655" x1="173.597" y1="41.3112" x2="173.597" y2="16.008" gradientUnits="userSpaceOnUse">
<stop stop-color="#135681"/>
<stop offset="0.0001" stop-color="#124C73"/>
<stop offset="1" stop-color="#2F84B5"/>
</linearGradient>
<linearGradient id="paint5_linear_720_56655" x1="173.597" y1="41.3112" x2="173.597" y2="16.008" gradientUnits="userSpaceOnUse">
<stop stop-color="#135681"/>
<stop offset="0.0001" stop-color="#124C73"/>
<stop offset="1" stop-color="#2F84B5"/>
</linearGradient>
<linearGradient id="paint6_linear_720_56655" x1="173.597" y1="41.3112" x2="173.597" y2="16.008" gradientUnits="userSpaceOnUse">
<stop stop-color="#135681"/>
<stop offset="0.0001" stop-color="#124C73"/>
<stop offset="1" stop-color="#2F84B5"/>
</linearGradient>
<linearGradient id="paint7_linear_720_56655" x1="173.597" y1="41.3112" x2="173.597" y2="16.008" gradientUnits="userSpaceOnUse">
<stop stop-color="#135681"/>
<stop offset="0.0001" stop-color="#124C73"/>
<stop offset="1" stop-color="#2F84B5"/>
</linearGradient>
<linearGradient id="paint8_linear_720_56655" x1="173.597" y1="41.3112" x2="173.597" y2="16.008" gradientUnits="userSpaceOnUse">
<stop stop-color="#135681"/>
<stop offset="0.0001" stop-color="#124C73"/>
<stop offset="1" stop-color="#2F84B5"/>
</linearGradient>
<linearGradient id="paint9_linear_720_56655" x1="289.682" y1="7.58997" x2="289.682" y2="33.1138" gradientUnits="userSpaceOnUse">
<stop stop-color="#5945FF"/>
<stop offset="1" stop-color="#7834FF" stop-opacity="0.01"/>
</linearGradient>
<linearGradient id="paint10_linear_720_56655" x1="230.599" y1="0.5" x2="230.599" y2="26.0239" gradientUnits="userSpaceOnUse">
<stop stop-color="#5945FF"/>
<stop offset="1" stop-color="#7834FF" stop-opacity="0.01"/>
</linearGradient>
<linearGradient id="paint11_linear_720_56655" x1="212.166" y1="53.911" x2="212.166" y2="79.4349" gradientUnits="userSpaceOnUse">
<stop stop-color="#0784C3"/>
<stop offset="1" stop-color="#0784C3" stop-opacity="0.01"/>
</linearGradient>
<linearGradient id="paint12_linear_720_56655" x1="308.523" y1="37.3678" x2="308.523" y2="61.4737" gradientUnits="userSpaceOnUse">
<stop stop-color="#5945FF"/>
<stop offset="1" stop-color="#0784C3" stop-opacity="0.01"/>
</linearGradient>
<linearGradient id="paint13_linear_720_56655" x1="299.542" y1="67.6183" x2="299.542" y2="91.7242" gradientUnits="userSpaceOnUse">
<stop stop-color="#5945FF"/>
<stop offset="0.0001" stop-color="#0784C3"/>
<stop offset="1" stop-color="#0784C3" stop-opacity="0"/>
</linearGradient>
<linearGradient id="paint14_linear_720_56655" x1="270.015" y1="121.502" x2="270.015" y2="60.5284" gradientUnits="userSpaceOnUse">
<stop stop-color="#077CC3"/>
<stop offset="1" stop-color="#D1CBFF" stop-opacity="0.01"/>
</linearGradient>
<linearGradient id="paint15_linear_720_56655" x1="294.266" y1="23.1861" x2="257.44" y2="23.2151" gradientUnits="userSpaceOnUse">
<stop stop-color="#4FB0E1"/>
<stop offset="0.55" stop-color="#2893CA"/>
<stop offset="0.83" stop-color="#3BADE7"/>
<stop offset="1" stop-color="#21A4E6"/>
</linearGradient>
<linearGradient id="paint16_linear_720_56655" x1="243.494" y1="56.6075" x2="265.028" y2="56.6075" gradientUnits="userSpaceOnUse">
<stop stop-color="#0973A8"/>
<stop offset="0.47" stop-color="#0784C3"/>
<stop offset="0.74" stop-color="#0784C3"/>
<stop offset="1" stop-color="#0784C3"/>
</linearGradient>
<linearGradient id="paint17_linear_720_56655" x1="248.745" y1="53.6747" x2="294.121" y2="53.6747" gradientUnits="userSpaceOnUse">
<stop stop-color="#5EB7E4"/>
<stop offset="0.63" stop-color="#5BB7E4"/>
<stop offset="1" stop-color="#4EB2E4"/>
</linearGradient>
<linearGradient id="paint18_linear_720_56655" x1="278.05" y1="25.5516" x2="294.121" y2="25.5516" gradientUnits="userSpaceOnUse">
<stop stop-color="#2D9BD2"/>
<stop offset="0.15" stop-color="#3AACE6"/>
<stop offset="0.72" stop-color="#2FADEC"/>
<stop offset="1" stop-color="#3AACE6"/>
</linearGradient>
<linearGradient id="paint19_linear_720_56655" x1="248.745" y1="53.4384" x2="271.905" y2="53.4384" gradientUnits="userSpaceOnUse">
<stop stop-color="#2D9BD2"/>
<stop offset="0.15" stop-color="#3AACE6"/>
<stop offset="0.72" stop-color="#2FADEC"/>
<stop offset="1" stop-color="#3AACE6"/>
</linearGradient>
<linearGradient id="paint20_linear_720_56655" x1="258.61" y1="54.3837" x2="291.285" y2="54.3837" gradientUnits="userSpaceOnUse">
<stop stop-color="#0784C3"/>
<stop offset="0.25" stop-color="#52B5E7"/>
<stop offset="0.64" stop-color="#36B0EE"/>
<stop offset="1" stop-color="#36B0ED"/>
</linearGradient>
<linearGradient id="paint21_linear_720_56655" x1="253.472" y1="54.1474" x2="291.285" y2="54.1474" gradientUnits="userSpaceOnUse">
<stop stop-color="#55AEDE"/>
<stop offset="0.3" stop-color="#56B6E7"/>
<stop offset="0.51" stop-color="#36ABE7"/>
<stop offset="0.71" stop-color="#37A5DD"/>
<stop offset="1" stop-color="#2EA9E7"/>
</linearGradient>
<linearGradient id="paint22_linear_720_56655" x1="301.796" y1="31.5608" x2="263.555" y2="25.794" gradientUnits="userSpaceOnUse">
<stop stop-color="#0784C3"/>
<stop offset="1" stop-color="#49B5EC"/>
</linearGradient>
<linearGradient id="paint23_linear_720_56655" x1="271.598" y1="24.3062" x2="229.526" y2="24.3203" gradientUnits="userSpaceOnUse">
<stop stop-color="#4FB0E1"/>
<stop offset="0.55" stop-color="#2893CA"/>
<stop offset="0.83" stop-color="#3BADE7"/>
<stop offset="1" stop-color="#21A4E6"/>
</linearGradient>
<linearGradient id="paint24_linear_720_56655" x1="230.978" y1="97.2828" x2="246.977" y2="91.1799" gradientUnits="userSpaceOnUse">
<stop stop-color="#61C8FB"/>
<stop offset="1" stop-color="#1296D9"/>
</linearGradient>
<linearGradient id="paint25_linear_720_56655" x1="248.185" y1="76.4649" x2="231.978" y2="73.592" gradientUnits="userSpaceOnUse">
<stop stop-color="#0784C3"/>
<stop offset="1" stop-color="#49B5EC"/>
</linearGradient>
<linearGradient id="paint26_linear_720_56655" x1="305.14" y1="52.6946" x2="317.07" y2="60.9408" gradientUnits="userSpaceOnUse">
<stop stop-color="#1296D9"/>
<stop offset="0.765625" stop-color="#61C8FB"/>
</linearGradient>
<linearGradient id="paint27_linear_720_56655" x1="324.799" y1="45.507" x2="313.563" y2="42.8264" gradientUnits="userSpaceOnUse">
<stop stop-color="#49B5EC"/>
<stop offset="1" stop-color="#0784C3"/>
</linearGradient>
<linearGradient id="paint28_linear_720_56655" x1="288.066" y1="85.9763" x2="296.922" y2="85.8614" gradientUnits="userSpaceOnUse">
<stop stop-color="#61C8FB"/>
<stop offset="1" stop-color="#1296D9"/>
</linearGradient>
<linearGradient id="paint29_linear_720_56655" x1="298.397" y1="77.4389" x2="290.837" y2="76.0451" gradientUnits="userSpaceOnUse">
<stop stop-color="#0784C3"/>
<stop offset="1" stop-color="#49B5EC"/>
</linearGradient>
<linearGradient id="paint30_linear_720_56655" x1="252.85" y1="11.7782" x2="256.049" y2="15.9399" gradientUnits="userSpaceOnUse">
<stop stop-color="#61C8FB"/>
<stop offset="1" stop-color="#1296D9"/>
</linearGradient>
<linearGradient id="paint31_linear_720_56655" x1="258.295" y1="10.0723" x2="254.225" y2="9.36429" gradientUnits="userSpaceOnUse">
<stop stop-color="#0784C3"/>
<stop offset="1" stop-color="#49B5EC"/>
</linearGradient>
<clipPath id="clip0_720_56655">
<rect x="0.255371" width="343" height="110" rx="20" fill="white"/>
</clipPath>
<clipPath id="clip1_720_56655">
<rect width="343" height="110" fill="white" transform="translate(0.255371)"/>
</clipPath>
</defs>
</svg>
