<svg width="36" height="36" viewBox="0 0 36 36" fill="none" xmlns="http://www.w3.org/2000/svg">
<g clip-path="url(#clip0_78_48512)">
<path fill-rule="evenodd" clip-rule="evenodd" d="M31.684 19.9503C29.4883 21.9878 26.5476 23.2337 23.3159 23.2337C16.5201 23.2337 11.011 17.7246 11.011 10.9288C11.011 8.62112 11.6463 6.46181 12.7515 4.61621C9.2211 5.31446 6.11243 7.18563 3.84844 9.80676L9.35343 14.9102C10.002 15.5114 10.315 16.3921 10.1913 17.2678L9.88336 19.4479C9.84332 19.7314 9.89795 20.0201 10.0388 20.2693L10.9903 21.9532C11.5234 22.8966 11.4408 24.0674 10.7806 24.9266L9.60731 26.4536C8.88712 27.3909 7.64101 27.7507 6.53202 27.3417L6.2688 27.2446C5.80468 27.0734 5.28363 27.1805 4.92461 27.5208L2.96106 29.382C5.16364 32.4523 8.43672 34.7028 12.2343 35.5874L12.8454 32.9599C13.0188 32.2142 13.5006 31.5772 14.171 31.2074L15.6784 30.3759C15.9856 30.2064 16.2113 29.9198 16.3041 29.5814L16.8019 27.7662C17.0141 26.9925 17.5593 26.3533 18.2898 26.0217L19.9654 25.2611C21.4445 24.5896 23.1737 25.3987 23.606 26.9646C23.7357 27.4343 24.1278 27.7849 24.609 27.8616L29.2505 28.6005C30.7928 26.1563 31.6853 23.2611 31.6853 20.1575C31.6853 20.0883 31.6849 20.0192 31.684 19.9503ZM15.8427 36.0001C20.9297 36.0001 25.4568 33.6025 28.3555 29.8756L24.3889 29.2441C23.3658 29.0813 22.5322 28.3358 22.2565 27.3371C22.0531 26.6006 21.2398 26.22 20.5441 26.5359L18.8684 27.2965C18.5167 27.4561 18.2542 27.7639 18.1521 28.1364L17.6543 29.9516C17.4615 30.6545 16.9928 31.2496 16.3546 31.6017L14.8473 32.4333C14.5245 32.6113 14.2925 32.918 14.209 33.2771L13.612 35.8443C14.3408 35.947 15.0855 36.0001 15.8427 36.0001ZM2.1841 28.1895L3.96149 26.5047C4.70715 25.7979 5.78933 25.5756 6.75327 25.9311L7.01649 26.0282C7.55044 26.2251 8.15043 26.0519 8.49718 25.6006L9.67048 24.0736C9.98837 23.6599 10.0281 23.0962 9.77146 22.642L8.81991 20.958C8.52744 20.4404 8.41397 19.8408 8.49712 19.2521L8.80505 17.072C8.86461 16.6504 8.71391 16.2263 8.40164 15.9369L2.9782 10.909C1.10401 13.5114 0 16.7055 0 20.1575C0 23.0889 0.796184 25.8344 2.1841 28.1895Z" fill="#D0D0D0"/>
<path fill-rule="evenodd" clip-rule="evenodd" d="M33.9658 10.4727C33.9658 16.2567 29.2769 20.9456 23.4929 20.9456C17.7089 20.9456 13.02 16.2567 13.02 10.4727C13.02 4.68863 17.7089 -0.000244141 23.4929 -0.000244141C29.2769 -0.000244141 33.9658 4.68863 33.9658 10.4727ZM23.49 5.16366C22.7133 5.16366 22.0837 5.79326 22.0837 6.56991C22.0837 7.34657 22.7133 7.97616 23.49 7.97616C24.2666 7.97616 24.8962 7.34657 24.8962 6.56991C24.8962 5.79326 24.2666 5.16366 23.49 5.16366ZM20.3962 6.56991C20.3962 4.86128 21.7814 3.47616 23.49 3.47616C25.1986 3.47616 26.5837 4.86128 26.5837 6.56991C26.5837 8.27855 25.1986 9.66366 23.49 9.66366C21.7814 9.66366 20.3962 8.27855 20.3962 6.56991ZM19.2947 15.9002C19.6553 13.9082 21.3999 12.3974 23.4956 12.3974C25.5913 12.3974 27.3358 13.9082 27.6965 15.9002C27.7795 16.3588 28.2185 16.6632 28.677 16.5802C29.1356 16.4972 29.44 16.0581 29.357 15.5996C28.8535 12.8189 26.4217 10.7099 23.4956 10.7099C20.5694 10.7099 18.1376 12.8189 17.6342 15.5996C17.5512 16.0581 17.8556 16.4972 18.3141 16.5802C18.7727 16.6632 19.2117 16.3588 19.2947 15.9002Z" fill="#F0B400"/>
</g>
<defs>
<clipPath id="clip0_78_48512">
<rect width="36" height="36" fill="white"/>
</clipPath>
</defs>
</svg>
