<?xml version="1.0" encoding="UTF-8"?>
<svg width="30px" height="30px" viewBox="0 0 30 30" version="1.1" xmlns="http://www.w3.org/2000/svg" xmlns:xlink="http://www.w3.org/1999/xlink">
    <title>BSC</title>
    <g id="BSC" stroke="none" stroke-width="1" fill="none" fill-rule="evenodd">
        <g id="BSC首页-Light" transform="translate(-1495.000000, -23.000000)">
            <g id="编组-10" transform="translate(50.000000, 19.000000)">
                <g id="编组-5" transform="translate(1442.000000, 1.000000)">
                    <g id="heco" transform="translate(3.000000, 3.000000)">
                        <circle id="椭圆形" fill="#FFFFFF" cx="15" cy="15" r="15"></circle>
                        <g id="bsc1" transform="translate(6.007906, 5.000000)" fill="#F0B90B" fill-rule="nonzero">
                            <polygon id="路径" points="8.6507929 2.25396825 5.30157068 4.19047619 3.3174437 3.06349206 8.63490402 0 13.9523643 3.06349206 11.9999834 4.19047619"></polygon>
                            <polygon id="路径" points="12.0158723 5.80952381 13.9682532 6.93650794 13.9682532 9.19047619 10.619031 11.1269841 10.619031 15 8.66665005 16.1269841 6.71425322 15 6.71425322 11.1269841 3.36507862 9.19047619 3.36507862 6.93650794 5.31745957 5.80952381 8.66665005 7.74603175"></polygon>
                            <polygon id="路径" points="13.9682532 10.8095238 13.9682532 13.0634921 12.0158723 14.1904762 12.0158723 11.9365079"></polygon>
                            <polygon id="路径" points="12.0158723 15.8095238 15.3650469 13.8730159 15.3809358 13.8730159 15.3809358 10 17.3333643 8.87301587 17.3333643 15 12.0158723 18.0634921"></polygon>
                            <polygon id="路径" points="15.3650469 6.12698413 13.4126977 5 15.3650469 3.87301587 17.3174913 5 17.3174913 7.25396825 15.3650469 8.38095238"></polygon>
                            <polygon id="路径" points="6.69841195 18.8730159 6.69841195 16.6190476 8.6507929 17.7460317 10.6031421 16.6190476 10.6031421 18.8730159 8.6507929 20"></polygon>
                            <polygon id="路径" points="5.30157068 14.1904762 3.34918973 13.0634921 3.34918973 10.8095238 5.30157068 11.9365079"></polygon>
                            <polygon id="路径" points="8.6507929 6.12698413 6.69841195 5 8.6507929 3.87301587 10.6031421 5"></polygon>
                            <polygon id="路径" points="3.90474529 5 1.95234846 6.12698413 1.95234846 8.38095238 0 7.25396825 0 5 1.95234846 3.87301587"></polygon>
                            <polygon id="路径" points="0 8.87301587 1.95234846 10 1.96823735 10 1.96823735 13.8730159 5.31745957 15.8095238 5.31745957 18.0634921 0 15"></polygon>
                        </g>
                    </g>
                </g>
            </g>
        </g>
    </g>
</svg>