<?xml version="1.0" encoding="UTF-8"?>
<svg width="20px" height="20px" viewBox="0 0 20 20" version="1.1" xmlns="http://www.w3.org/2000/svg" xmlns:xlink="http://www.w3.org/1999/xlink">
    <title>跳转</title>
    <g id="BSC" stroke="none" stroke-width="1" fill="none" fill-rule="evenodd">
        <g id="BSC董事会-列表-Light" transform="translate(-1492.000000, -927.000000)" fill="#F7C325" fill-rule="nonzero">
            <g id="编组-26" transform="translate(360.000000, 400.000000)">
                <g id="编组-42备份" transform="translate(0.000000, 470.000000)">
                    <g id="跳转" transform="translate(1132.000000, 57.000000)">
                        <path d="M10,0 C15.5226667,0 20,4.47733334 20,10 C20,15.5226667 15.5226667,20 10,20 C4.47733334,20 0,15.5226667 0,10 C0,4.47733334 4.47733334,0 10,0 Z M11.4189952,6.20319827 C11.0264775,5.89237282 10.4546321,5.91827494 10.0920024,6.28090464 L10.0920024,6.28090464 L10.0142961,6.36812545 C9.7034706,6.76064311 9.72937272,7.3324885 10.0920024,7.6951182 L10.0920024,7.6951182 L11.3927461,8.99586183 L5.3331094,8.99050354 L5.20766338,8.99816264 C4.71452162,9.0593491 4.33259288,9.47964713 4.33205512,9.98944815 C4.33147255,10.5417326 4.77871529,10.9899199 5.33099973,10.9905024 L5.33099973,10.9905024 L11.3962816,10.9962669 L10.0919702,12.3016552 L10.0142638,12.388876 C9.70343834,12.7813937 9.72934046,13.3532391 10.0919702,13.7158688 C10.4824945,14.1063931 11.1156594,14.1063931 11.5061837,13.7158688 L11.5061837,13.7158688 L14.5165751,10.7054774 L14.5942815,10.6182565 C14.905107,10.2257389 14.8792048,9.65389349 14.5165751,9.29126379 L14.5165751,9.29126379 L11.506216,6.28090464 Z" id="形状结合"></path>
                    </g>
                </g>
            </g>
        </g>
    </g>
</svg>