<?xml version="1.0" encoding="UTF-8"?>
<svg width="408px" height="408px" viewBox="0 0 408 408" version="1.1" xmlns="http://www.w3.org/2000/svg" xmlns:xlink="http://www.w3.org/1999/xlink">
    <title>BSC旋风-Dark</title>
    <defs>
        <linearGradient x1="50%" y1="0.26376464%" x2="50%" y2="107.287733%" id="linearGradient-1">
            <stop stop-color="#FFB41A" offset="0%"></stop>
            <stop stop-color="#1A1E23" stop-opacity="0" offset="100%"></stop>
        </linearGradient>
        <linearGradient x1="50%" y1="1.60978152%" x2="50%" y2="107.147058%" id="linearGradient-2">
            <stop stop-color="#FEC826" offset="0.0519012238%"></stop>
            <stop stop-color="#1A1E23" stop-opacity="0" offset="100%"></stop>
        </linearGradient>
        <linearGradient x1="29.8461375%" y1="19.5007896%" x2="97.4699803%" y2="76.1154684%" id="linearGradient-3">
            <stop stop-color="#00C6A4" offset="0%"></stop>
            <stop stop-color="#2C80F4" offset="100%"></stop>
        </linearGradient>
        <linearGradient x1="2.25466942%" y1="70.4588977%" x2="102.07264%" y2="37.3137376%" id="linearGradient-4">
            <stop stop-color="#E5AF16" offset="0%"></stop>
            <stop stop-color="#B47B19" offset="100%"></stop>
        </linearGradient>
    </defs>
    <g id="BSC" stroke="none" stroke-width="1" fill="none" fill-rule="evenodd">
        <g id="BSC首页-Dark" transform="translate(-751.000000, -1782.000000)">
            <g id="编组-21" transform="translate(-1.000000, 673.000000)">
                <g id="编组-39" transform="translate(361.000000, 100.000000)">
                    <g id="编组-38" transform="translate(0.000000, 1013.000000)">
                        <g id="编组-79" transform="translate(395.000000, -0.000000)">
                            <g id="编组-78">
                                <g id="编组-76" transform="translate(0.000000, 39.069767)">
                                    <circle id="椭圆形" fill="#FFBA1A" opacity="0.2" cx="58.6046512" cy="18.6046512" r="18.6046512"></circle>
                                    <path d="M59.2880108,18.8030278 C22.6784906,55.0502768 0,105.341832 0,160.930233 C0,271.387183 89.54305,360.930233 200,360.930233" id="路径" stroke="url(#linearGradient-1)" stroke-width="8"></path>
                                    <circle id="椭圆形" fill="#FFBA1A" cx="58.6046512" cy="18.6046512" r="10.1921132"></circle>
                                </g>
                                <g id="编组-76备份" transform="translate(300.000000, 180.465116) scale(-1, -1) translate(-300.000000, -180.465116) translate(200.000000, 0.000000)">
                                    <circle id="椭圆形" fill="#F7C325" opacity="0.2" cx="58.6046512" cy="18.6046512" r="18.6046512"></circle>
                                    <path d="M59.2880108,18.8030278 C22.6784906,55.0502768 0,105.341832 0,160.930233 C0,271.387183 89.54305,360.930233 200,360.930233" id="路径" stroke="url(#linearGradient-2)" stroke-width="8"></path>
                                    <circle id="椭圆形" fill="#F7C325" cx="58.6046512" cy="18.6046512" r="10.1921132"></circle>
                                </g>
                                <circle id="椭圆形" fill-opacity="0.0955528846" fill="#9F9B92" cx="200" cy="200" r="120.930233"></circle>
                                <circle id="椭圆形" fill-opacity="0.1" fill="#9E9A8E" cx="200" cy="200" r="93.0232558"></circle>
                                <circle id="椭圆形" fill="#1F1E1B" cx="200" cy="200" r="65.1162791"></circle>
                            </g>
                            <path d="M173.336288,171.768796 C176.691551,170.305718 180.166644,169.968084 183.521907,170.418262 C186.877169,170.86844 190.112601,172.331519 192.748879,174.582409 L192.748879,174.582409 L209.884685,189.550828 C210.7235,190.226095 210.963162,190.451184 211.202823,190.676273 C215.396902,193.940063 217.793518,195.965864 217.793518,202.831079 C217.793518,207.557948 215.756394,211.947183 212.401132,215.098429 C209.045869,218.249675 204.492298,220.162932 199.339573,220.162932 C194.30668,220.162932 189.633278,218.249675 186.278015,215.098429 C182.922753,211.947183 180.885629,207.670492 180.885629,202.831079 C180.885629,195.85332 183.162414,193.940063 187.476323,190.338639 L187.476323,190.338639 L188.914293,189.10065 L196.942957,195.85332 C196.343803,196.303498 194.905834,197.541487 194.666172,197.766576 C192.748879,199.342199 191.670402,200.242555 191.670402,202.718534 C191.670402,204.744335 192.509217,206.545047 193.947187,207.895581 C195.385157,209.246115 197.30245,210.033927 199.459404,210.033927 C201.616359,210.033927 203.533652,209.246115 204.971621,207.895581 C206.409591,206.545047 207.248407,204.744335 207.248407,202.718534 C207.248407,200.3551 206.28976,199.567288 204.492298,198.10421 C203.893144,197.541487 203.174159,196.978765 203.054329,196.86622 L203.054329,196.86622 L185.559031,182.12289 C184.480553,181.10999 183.162414,180.547267 181.844275,180.322178 C180.526137,180.097089 179.088167,180.322178 177.650197,180.884901 C176.212228,181.560168 175.13375,182.347979 174.414765,183.473424 C173.695781,184.59887 173.336288,185.836859 173.336288,187.299938 L173.336288,187.299938 L173.57595,229.279037 L172.617303,229.279037 C167.224917,229.279037 162.791177,225.227435 162.791177,220.162932 L162.791177,220.162932 L162.791177,187.299938 C162.671346,183.923602 163.749823,180.772356 165.547286,178.071288 C167.344748,175.37022 169.981025,173.11933 173.336288,171.768796 Z M215.677695,170.401423 C219.16258,169.951116 222.771924,170.401423 226.256809,171.752344 C229.617233,173.215841 232.479816,175.354798 234.346719,178.056639 C236.213621,180.645903 237.209302,183.910627 237.209302,187.287928 L237.209302,187.287928 L236.960382,220.160324 C236.835922,225.226275 232.355356,229.279037 226.754649,229.279037 L226.754649,229.279037 L225.758968,229.279037 L226.007888,187.287928 C226.132348,185.824431 225.634508,184.586087 224.887747,183.46032 C224.016526,182.334553 222.896384,181.43394 221.527323,180.871056 C220.033801,180.308173 218.540279,180.083019 217.171217,180.308173 C215.802155,180.533326 214.433094,181.09621 213.312952,182.1094 L213.312952,182.1094 L211.07267,184.023204 L209.952528,185.148971 L201.613698,178.394369 L203.85398,176.480565 L206.094263,174.566761 C208.832387,172.315227 212.192811,170.85173 215.677695,170.401423 Z" id="形状结合" fill="url(#linearGradient-3)"></path>
                            <g id="编组-60" transform="translate(105.000000, 96.000000)">
                                <g id="编组-36" transform="translate(0.000000, 10.307052)">
                                    <path d="M11.1963708,116.315231 L7.99572584,122.396456 C7.99572584,122.396456 7.99572584,143.240657 38.0017722,170.126074 C38.0017722,170.126074 60.3262706,191.650411 103.254921,179.207904 C143.262983,167.605566 181.990787,128.157617 181.831249,76.5472176 C181.859329,66.6159689 179.323695,56.8455125 174.469271,48.1815018 C167.132797,35.4733071 156.73552,24.8009699 144.223176,17.1352459 L11.1963708,116.315231 Z" id="路径" fill="url(#bsc_dark_statistical_main-4)" fill-rule="nonzero"></path>
                                    <path d="M167.787925,85.0689348 C162.709177,105.396866 151.857432,123.821211 136.541628,138.119625 C130.907436,143.527749 124.741597,148.353188 118.13792,152.522527 C114.817251,154.602946 111.376557,156.523333 107.975872,158.24368 C76.8095921,173.686792 42.6827154,171.766405 22.5586603,150.762172 C6.55543562,134.238843 3.11474231,109.633885 10.5562418,85.0689348 C16.2183034,66.8936318 26.4863292,50.4923556 40.3622478,37.4593413 C44.0015991,33.9872263 47.8495306,30.740534 51.8845696,27.7373822 C54.085013,26.1370598 56.3654725,24.5767454 58.6459321,23.1764632 L58.6459321,23.1764632 C92.292712,1.77215016 131.980709,1.4120776 154.345216,24.8167937 C168.828134,40.2999136 172.988973,62.3443557 167.787925,85.0689348 Z" id="路径" fill="#FCDC59" fill-rule="nonzero"></path>
                                    <path d="M167.787925,85.0689348 C162.709177,105.396866 151.857432,123.821211 136.541628,138.119625 C130.907436,143.527749 124.741597,148.353188 118.13792,152.522527 C114.817251,154.602946 111.376557,156.523333 107.975872,158.24368 C76.8095921,173.686792 42.6827154,171.766405 22.5586603,150.762172 C6.55543562,134.238843 3.11474231,109.633885 10.5562418,85.0689348 L167.787925,85.0689348 Z" id="路径" fill="#FFCC01"></path>
                                    <ellipse id="椭圆形" fill="#F0AA00" fill-rule="nonzero" transform="translate(88.297736, 87.792362) rotate(-43.730000) translate(-88.297736, -87.792362) " cx="88.2977358" cy="87.7923616" rx="70.3341726" ry="54.2109237"></ellipse>
                                    <path d="M50.8843681,52.3023322 C78.8900113,25.4569227 118.457984,21.2560762 139.18216,42.8604296 C146.515023,50.8514698 150.769005,61.1886454 151.184579,72.0263066 C151.573414,59.859035 147.178342,48.023938 138.942112,39.0596637 C118.217936,17.4153023 78.689971,21.6561569 50.6443197,48.5015663 C32.7607161,65.5850087 23.8789264,87.7094668 25.1191763,107.153385 C26.0190195,86.157924 35.2999163,66.3999901 50.8843681,52.3023322 L50.8843681,52.3023322 Z" id="路径" fill="#DA8100" fill-rule="nonzero"></path>
                                    <path d="M63.4468995,58.9036624 C65.4944202,56.4410349 68.081868,54.4833363 71.0084231,53.1825095 C73.9814356,51.7357374 77.2667024,51.0484431 80.5703499,51.1821064 C83.7224512,51.1552899 86.8122733,52.0599675 89.4521396,53.7826305 C91.9366369,55.418075 93.7092705,57.9340711 94.4131393,60.8240493 L99.2941228,82.2283624 L99.7342115,83.9887171 C102.245927,89.2092546 101.025074,95.4600218 96.7336069,99.3518128 C92.9711956,103.708726 87.6637627,106.434164 81.930624,106.953345 C76.6304255,107.538269 71.3160544,105.982843 67.1676492,102.632474 C63.5324522,99.6778417 61.3339484,95.3099534 61.1264319,90.6300554 C60.9697268,86.0302544 62.5884833,81.5464422 65.6473429,78.107532 C68.8273186,73.9164748 73.7501638,71.4108351 79.0100355,71.3061615 L81.0104386,70.946089 L82.8508094,80.5080157 L79.5701484,80.9481044 C77.326943,80.8418403 75.1590516,81.7709366 73.6889633,83.4686123 C72.3450834,84.9811578 71.6672643,86.9713503 71.8085844,88.9897248 C71.9800057,90.9914616 73.0176604,92.8183184 74.6491568,93.9907325 C76.446373,95.2705442 78.665039,95.8144752 80.8504063,95.5110389 C83.1446259,95.2182598 85.2515885,94.0935973 86.7715995,92.350402 C88.2178645,90.8143447 88.6111266,88.5648852 87.771801,86.6292492 C87.771801,85.7890799 87.4117285,84.9089025 87.3717204,84.7088622 L83.1308659,63.864662 C82.987905,62.6821568 82.3840516,61.6038471 81.4505273,60.8640574 C80.3894995,60.1283946 79.1400216,59.711902 77.8498017,59.6638155 C76.4773566,59.5727538 75.1035438,59.8200401 73.8489955,60.3839607 C72.5771837,60.9440116 71.4537826,61.7934125 70.5683345,62.8644605 L43.5628928,94.8709099 L43.0027799,94.3908132 C39.8986622,91.1307531 39.8986622,86.0085272 43.0027799,82.7484672 L63.4468995,58.9036624 Z M104.735219,77.9074917 L108.736025,77.3873869 C110.604518,77.1085535 112.512761,77.2870222 114.297146,77.9074917 C116.016647,78.5156556 117.53805,79.5806376 118.698033,80.9881125 C119.760667,82.2825483 120.390363,83.8777791 120.498396,85.5490315 C120.47645,87.2300071 119.802217,88.8366909 118.618017,90.0299344 L83.25089,130.958182 L84.2110835,131.838359 C86.670827,134.367311 90.0355924,135.81384 93.5631846,135.858873 C97.0907767,135.903906 100.491372,134.543743 103.014873,132.078407 L132.660846,97.9515307 C135.543139,94.7858123 137.091164,90.6290763 136.981717,86.3491927 C136.66485,82.0733788 134.868208,78.0415433 131.900693,74.9468951 C128.75101,71.6711617 124.830941,69.2365928 120.498396,67.8654682 C116.179957,66.5109461 111.607666,66.1687088 107.135703,66.8652667 L103.494969,67.4653876 L99.9342518,68.0655085 L102.934856,78.3075723 L104.735219,77.9074917 Z" id="形状" fill="#DA8000"></path>
                                    <path d="M99.7742196,85.0689348 C99.8137667,84.8305152 99.8137667,84.5872092 99.7742196,84.3487897 C99.5317021,82.687048 99.1297674,81.0525136 98.5739777,79.4678061 C98.4798589,78.8691144 98.3325803,78.28 98.133889,77.7074514 L93.2529055,56.3831545 C92.5760439,53.502433 90.8131486,50.9942487 88.3319139,49.3817437 C85.6928046,47.6897862 82.6250292,46.7874993 79.4901322,46.7812197 C76.1831167,46.6599792 72.8976788,47.3610559 69.9282055,48.8216308 C67.0016504,50.1224576 64.4142026,52.0801562 62.3666818,54.5427836 L42.0825945,78.3075723 C40.6306421,80.0004271 39.7734095,82.122429 39.6421027,84.3487897 C39.6222483,84.5884275 39.6222483,84.8292969 39.6421027,85.0689348 C39.7188614,86.9071735 40.5080432,88.6433734 41.8425461,89.9099102 L42.442667,90.390007 L46.92357,85.0689348 L47.5636989,84.3487897 L69.4081007,58.5435898 C70.2871239,57.4826271 71.3950664,56.6345723 72.6487537,56.06309 C73.9033019,55.4991695 75.2771148,55.2518831 76.6495598,55.3429449 C77.9320313,55.3651489 79.1760634,55.7844855 80.2102773,56.5431867 C81.1506738,57.2479717 81.7701252,58.2995985 81.930624,59.4637752 L86.2114866,80.3079754 C86.2114866,80.3079754 86.4115269,81.348185 86.5715592,82.1883543 C86.7421892,82.8975664 86.8493007,83.6205691 86.8916237,84.3487897 C86.9319135,84.5871475 86.9319135,84.830577 86.8916237,85.0689348 C86.8041312,86.1511738 86.3196571,87.1628697 85.5313496,87.9095072 C84.0464756,89.6478451 81.96061,90.7622117 79.6901725,91.030136 C77.5072778,91.4170664 75.2616871,90.8810221 73.488923,89.5498377 C71.9793316,88.5044914 70.9664894,86.8839439 70.6883586,85.0689348 C70.6883586,85.0689348 70.6883586,84.7488703 70.6883586,84.588838 L70.6883586,84.3087816 C70.5620324,82.3647154 71.2421941,80.454474 72.5687375,79.0277174 C74.0351897,77.3250722 76.2056263,76.3948851 78.4499226,76.5072096 C78.8099952,76.5072096 80.8504063,76.147137 81.6905756,76.0671209 L79.8502048,66.5452022 L77.8898098,66.9052747 C72.6139949,66.9834261 67.6749525,69.5120975 64.5271171,73.7466533 C61.9051145,76.670281 60.3411764,80.3899176 60.0862223,84.3087816 C60.0480807,84.5473149 60.0480807,84.7903934 60.0862223,85.0289267 C60.0460586,85.4146286 60.0460586,85.8034587 60.0862223,86.1891605 C60.3188007,90.8715073 62.5294555,95.2346418 66.1674477,98.191579 C70.3056654,101.531623 75.6035165,103.086427 80.8904144,102.51245 C86.6284038,101.940744 91.9344695,99.2090496 95.7334053,94.8709099 C98.3663372,92.2951596 99.8270392,88.7518725 99.7742196,85.0689348 L99.7742196,85.0689348 Z M130.540419,70.3859761 C127.363359,67.1336478 123.433202,64.71509 119.098113,63.3445572 C114.772916,62.0228739 110.20515,61.6946512 105.735421,62.3843637 L102.054679,62.9844847 L98.5339696,63.5846056 L101.574582,73.7866614 L103.574985,73.3865807 L107.335743,72.8664759 C109.191482,72.6064786 111.082318,72.7846009 112.856856,73.3865807 C114.582634,73.984343 116.116303,75.0344228 117.297751,76.4271934 C118.404331,77.7110493 119.039477,79.3341997 119.098113,81.0281205 C119.079729,82.1953909 118.762953,83.33854 118.177928,84.3487897 C117.992133,84.6003596 117.791749,84.8408205 117.577807,85.0689348 L117.257743,85.4690154 L81.8906159,126.357255 L82.8508094,127.237432 C85.3051616,129.776199 88.6718121,131.22959 92.202697,131.274665 C95.733582,131.31974 99.1362372,129.952765 101.654598,127.47748 L131.260564,93.3906116 C133.315784,91.0253532 134.697577,88.1512249 135.26137,85.0689348 L135.26137,84.3487897 C135.339787,83.4837218 135.339787,82.6133335 135.26137,81.7482656 C134.978016,77.5302083 133.287461,73.529229 130.460403,70.3859761 L130.540419,70.3859761 Z" id="形状" fill="#FCDC59"></path>
                                    <path d="M39.7621269,85.0689348 L47.0435941,85.0689348 L42.5626912,90.390007 L41.9625703,89.9099102 C40.6280674,88.6433734 39.8388856,86.9071735 39.7621269,85.0689348 Z" id="路径" fill="#FFCC01"></path>
                                    <path d="M95.533365,94.7908938 C91.7344292,99.1290335 86.4283635,101.860728 80.6903741,102.432434 C75.4034762,103.006411 70.1056251,101.451607 65.9674074,98.1115629 C62.3294152,95.1546257 60.1187604,90.7914912 59.886182,86.1091444 C59.8460183,85.7234425 59.8460183,85.3346124 59.886182,84.9489106 L70.6483506,84.9489106 C70.9264813,86.7639197 71.9393235,88.3844673 73.4489149,89.4298135 C75.221679,90.7609979 77.4672697,91.2970422 79.6501645,90.9101118 C81.9206019,90.6421875 84.0064675,89.5278209 85.4913415,87.789483 C86.2796491,87.0428455 86.7641232,86.0311496 86.8516156,84.9489106 L99.7742863,84.9489106 C99.7859501,88.6755867 98.2501073,92.2399011 95.533365,94.7908938 L95.533365,94.7908938 Z" id="路径" fill="#FFCC01"></path>
                                    <path d="M135.26137,85.0689348 C134.697577,88.1512249 133.315784,91.0253532 131.260564,93.3906116 L101.654598,127.47748 C99.1362372,129.952765 95.733582,131.31974 92.202697,131.274665 C88.6718121,131.22959 85.3051616,129.776199 82.8508094,127.237432 L81.8906159,126.357255 L117.257743,85.4690154 L117.577807,85.0689348 L135.26137,85.0689348 Z" id="路径" fill="#FFCC01"></path>
                                </g>
                                <path d="M144.609986,1.41920404 L145.354094,8.35116116 C146.417582,18.8440294 154.495629,27.2613547 164.935894,28.7553965 L171.828687,29.7736501 L164.89673,30.5177585 C154.41631,31.6081348 146.012891,39.6728372 144.492495,50.0995583 L143.474241,57.0315154 L142.612642,49.9037403 C141.535673,39.4171078 133.464322,31.0067598 123.030842,29.4995049 L116.138049,28.4812513 L123.070006,27.7763065 C133.544236,26.6725949 141.940776,18.6144948 143.474241,8.19450676 L144.609986,1.41920404 Z" id="Fill-1-2" fill="#FFFFFF" transform="translate(143.983368, 29.225360) rotate(3.000000) translate(-143.983368, -29.225360) "></path>
                            </g>
                        </g>
                    </g>
                </g>
            </g>
        </g>
    </g>
</svg>