<svg width="50" height="50" viewBox="0 0 50 50" fill="none" xmlns="http://www.w3.org/2000/svg">
<path d="M24.4087 5.59349L16.0972 10.3992L11.1733 7.60242L24.3692 0L37.5651 7.60242L32.7201 10.3992L24.4087 5.59349Z" fill="#F0B90B"/>
<path d="M32.7604 14.417L37.6055 17.2137V22.8072L29.294 27.6129V37.2242L24.449 40.021L19.6039 37.2242V27.6129L11.2925 22.8072V17.2137L16.1375 14.417L24.449 19.2227L32.7604 14.417Z" fill="#F0B90B"/>
<path d="M37.6048 26.8252V32.4187L32.7598 35.2154V29.6219L37.6048 26.8252Z" fill="#F0B90B"/>
<path d="M32.7598 39.2333L41.0711 34.4276H41.1106V24.8163L45.9557 22.0195V37.2244L32.7598 44.8268V39.2333Z" fill="#F0B90B"/>
<path d="M41.0715 15.2048L36.2266 12.4081L41.0715 9.61133L45.9168 12.4081V18.0016L41.0715 20.7983V15.2048Z" fill="#F0B90B"/>
<path d="M19.5645 46.8357V41.2422L24.4095 44.0389L29.2545 41.2422V46.8357L24.4095 49.6324L19.5645 46.8357Z" fill="#F0B90B"/>
<path d="M16.0975 35.2154L11.2524 32.4187V26.8252L16.0975 29.6219V35.2154Z" fill="#F0B90B"/>
<path d="M24.4095 15.2048L19.5645 12.4081L24.4095 9.61133L29.2545 12.4081L24.4095 15.2048Z" fill="#F0B90B"/>
<path d="M12.6315 12.4081L7.78639 15.2048V20.7983L2.94141 18.0016V12.4081L7.78639 9.61133L12.6315 12.4081Z" fill="#F0B90B"/>
<path d="M2.94141 22.0195L7.78639 24.8163H7.82582V34.4276L16.1373 39.2333V44.8268L2.94141 37.2244V22.0195Z" fill="#F0B90B"/>
</svg>
