<?xml version="1.0" encoding="UTF-8"?>
<svg width="90px" height="90px" viewBox="0 0 90 90" version="1.1" xmlns="http://www.w3.org/2000/svg" xmlns:xlink="http://www.w3.org/1999/xlink">
    <title>记录@1x</title>
    <g id="H5" stroke="none" stroke-width="1" fill="none" fill-rule="evenodd">
        <g id="组件" transform="translate(-133.000000, -544.000000)">
            <g id="记录" transform="translate(133.000000, 544.000000)">
                <rect id="矩形" fill-rule="nonzero" x="0" y="0" width="90" height="90"></rect>
                <g id="编组-17" transform="translate(10.000000, 0.000000)">
                    <path d="M42.642,-6.39488462e-14 L42.6424843,17.6095766 C42.6424843,21.6124057 45.8826483,24.8573398 49.8795931,24.8573398 L49.8795931,24.8573398 L67.484,24.857 L67.4845555,77.866855 C67.4845555,80.7338313 65.1604121,83.0579747 62.2934358,83.0579747 L5.19111966,83.0579747 C2.32414344,83.0579747 -2.7000624e-13,80.7338313 -2.7000624e-13,77.866855 L-2.7000624e-13,5.19117989 C-2.7000624e-13,2.32420367 2.32414344,6.02317047e-05 5.19111966,6.02317047e-05 L42.642,-6.39488462e-14 Z M36.0377447,62.7839754 L12.2816686,62.7839754 C11.1102295,62.7839754 10.1605904,63.7336145 10.1605904,64.9050536 C10.1605904,66.0764928 11.1102295,67.0261318 12.2816686,67.0261318 L12.2816686,67.0261318 L36.0377447,67.0261318 C37.2091838,67.0261318 38.1588229,66.0764928 38.1588229,64.9050536 C38.1588229,63.7336145 37.2091838,62.7839754 36.0377447,62.7839754 L36.0377447,62.7839754 Z M41.9767637,51.7543687 L12.2816686,51.7543687 C11.1102295,51.7543687 10.1605904,52.7040077 10.1605904,53.8754469 C10.1605904,55.046886 11.1102295,55.9965251 12.2816686,55.9965251 L12.2816686,55.9965251 L41.9767637,55.9965251 C43.1482028,55.9965251 44.0978419,55.046886 44.0978419,53.8754469 C44.0978419,52.7040077 43.1482028,51.7543687 41.9767637,51.7543687 L41.9767637,51.7543687 Z M46.7200769,6.02317047e-05 L67.4845555,20.7645389 L67.484,20.852 L46.631,-6.39488462e-14 L46.7200769,6.02317047e-05 Z" id="形状结合" fill-opacity="0.5" fill="#939498" fill-rule="nonzero"></path>
                    <path d="M67.4115554,20.7645389 L51.9111965,20.7645389 C49.0442203,20.7645389 46.7200769,18.4403954 46.7200769,15.5734192 L46.7200769,0.103477039 L67.4115554,20.7645389 Z" id="路径" fill-opacity="0.5" fill="#939498" fill-rule="nonzero"></path>
                    <g id="编组-16" transform="translate(46.622551, 55.148094)">
                        <circle id="椭圆形" fill="#FFC116" cx="16.1201944" cy="16.1201944" r="16.1201944"></circle>
                        <rect id="矩形" fill="#FFFFFF" x="14.4233319" y="6.78745029" width="3.39372514" height="13.5749006" rx="1.69686257"></rect>
                        <circle id="椭圆形" fill="#FFFFFF" cx="16.1201944" cy="24.6045073" r="1.69686257"></circle>
                    </g>
                    <g id="编组-15" transform="translate(10.140005, 18.665549)" fill="#FFFFFF">
                        <path d="M0.00320960333,17.9360787 C0.00320960333,19.7553584 1.57596836,21.2107821 3.48878306,21.2107821 L3.82883901,21.2107821 L3.74382502,6.13097471 C3.74382502,5.60540502 3.871346,5.1606922 4.12638796,4.75640782 C4.38142992,4.35212344 4.76399286,4.06912437 5.27407679,3.82655374 C5.78416071,3.62441155 6.29424463,3.54355467 6.76182155,3.62441155 C7.22939848,3.70526843 7.69697541,3.90741062 8.07953835,4.27126656 L14.2855594,9.56739196 C14.3280664,9.6078204 14.5831083,9.80996259 14.7956433,10.0121048 C15.4332482,10.5376745 15.7733042,10.8206735 15.7733042,11.6696707 C15.7733042,12.3973826 15.4757552,13.0442376 14.9656713,13.5293789 C14.4555874,14.0145202 13.7754755,14.2975192 13.0103496,14.2975192 C12.2452237,14.2975192 11.5651118,14.0145202 11.0550279,13.5293789 C10.544944,13.0442376 10.247395,12.3973826 10.247395,11.6696707 C10.247395,10.7802451 10.629958,10.4568176 11.3100698,9.89081946 C11.3950838,9.80996259 11.9051678,9.36524977 12.1177027,9.20353601 L9.26973417,6.77782973 L8.75965024,7.22254255 C7.22939848,8.51625257 6.42176561,9.20353601 6.42176561,11.7100992 C6.42176561,13.448522 7.1443845,14.9848027 8.33458031,16.1167989 C9.52477613,17.2487952 11.1825489,17.9360787 12.9678426,17.9360787 C14.7956433,17.9360787 16.4109091,17.2487952 17.6011049,16.1167989 C18.7913007,14.9848027 19.5139196,13.4080936 19.5139196,11.7100992 C19.5139196,9.24396445 18.6637797,8.51625257 17.1760349,7.34382786 C17.091021,7.26297098 17.006007,7.18211411 16.708458,6.93954348 L10.629958,1.5625612 C9.6948041,0.75399244 8.54711528,0.228422744 7.35691946,0.0667089914 C6.16672365,-0.0950047613 4.93402084,0.0262805532 3.74382502,0.551850249 C2.55362921,1.03699151 1.61847535,1.84556027 0.980870452,2.81584279 C0.343265551,3.7861253 -0.0392973901,4.91812157 0.00320960333,6.13097471 L0.00320960333,17.9360787 L0.00320960333,17.9360787 Z" id="路径"></path>
                        <path d="M17.1822168,4.9539005 L18.0365812,4.26642043 C18.4637634,3.9024604 18.9858749,3.70026037 19.5079865,3.61938037 C20.0300981,3.53850036 20.5996743,3.61938037 21.1692505,3.82158039 C21.6913621,4.02378041 22.1185443,4.34730044 22.4507971,4.75170048 C22.7355852,5.15610052 22.925444,5.60094057 22.8779793,6.12666062 L22.7830499,21.2107821 L23.1627674,21.2107821 C25.2986783,21.2107821 27.0074071,19.754942 27.0548718,17.9351418 L27.1498011,6.12666062 C27.1498011,4.9134605 26.7700837,3.74070038 26.0581133,2.81058028 C25.346143,1.84002019 24.2544552,1.07166011 22.9729087,0.545940055 C21.6438974,0.0606600061 20.2674215,-0.10110001 18.9384102,0.0606600061 C17.609399,0.222420023 16.3278524,0.748140076 15.2836293,1.55694016 L14.4292649,2.24442023 L13.5749006,2.9319003 L16.7550346,5.35830054 L17.1822168,4.9539005 Z" id="路径"></path>
                    </g>
                </g>
            </g>
        </g>
    </g>
</svg>