<svg width="408" height="408" viewBox="0 0 408 408" fill="none" xmlns="http://www.w3.org/2000/svg">
<circle opacity="0.2" cx="62.6047" cy="61.6733" r="18.6047" fill="#FFBA1A"/>
<path d="M63.288 61.8713C26.6785 98.1186 4 148.41 4 203.999C4 314.455 93.5431 403.999 204 403.999" stroke="url(#paint0_linear_64_41146)" stroke-width="8"/>
<circle cx="62.6042" cy="61.6728" r="10.1921" fill="#FFBA1A"/>
<circle opacity="0.2" cx="345.395" cy="346.325" r="18.6047" transform="rotate(180 345.395 346.325)" fill="#F7C325"/>
<path d="M344.712 346.127C381.322 309.88 404 259.588 404 204C404 93.5431 314.457 4 204 4" stroke="url(#paint1_linear_64_41146)" stroke-width="8"/>
<circle cx="345.396" cy="346.326" r="10.1921" transform="rotate(180 345.396 346.326)" fill="#F7C325"/>
<circle cx="204" cy="203.999" r="120.93" fill="#E9E8E4"/>
<circle cx="204" cy="203.999" r="93.0233" fill="#F3F2EE"/>
<circle cx="204" cy="203.999" r="65.1163" fill="white"/>
<path fill-rule="evenodd" clip-rule="evenodd" d="M217.314 186.109L215.073 188.022L213.953 189.148L205.614 182.394L207.855 180.48L210.095 178.566C212.833 176.314 216.193 174.851 219.678 174.401C223.163 173.95 226.772 174.401 230.257 175.751C233.618 177.215 236.48 179.354 238.347 182.056C240.214 184.645 241.21 187.91 241.21 191.287L240.961 224.159C240.836 229.225 236.356 233.278 230.755 233.278H229.76L230.008 191.287C230.133 189.824 229.635 188.585 228.888 187.459C228.017 186.334 226.897 185.433 225.528 184.87C224.034 184.307 222.541 184.082 221.172 184.307C219.803 184.532 218.434 185.095 217.314 186.109ZM176.617 233.278C171.225 233.278 166.791 229.227 166.791 224.162V191.299C166.671 187.923 167.75 184.771 169.547 182.07C171.345 179.369 173.981 177.118 177.336 175.768C180.692 174.305 184.167 173.967 187.522 174.417C190.877 174.868 194.113 176.331 196.749 178.582L213.885 193.55C214.724 194.225 214.963 194.45 215.203 194.675C219.397 197.939 221.794 199.965 221.794 206.83C221.794 211.557 219.756 215.946 216.401 219.098C213.046 222.249 208.492 224.162 203.34 224.162C198.307 224.162 193.633 222.249 190.278 219.098C186.923 215.946 184.886 211.67 184.886 206.83C184.886 199.852 187.163 197.939 191.476 194.338L192.914 193.1L200.943 199.852C200.344 200.303 198.906 201.541 198.666 201.766C196.749 203.341 195.67 204.242 195.67 206.718C195.67 208.743 196.509 210.544 197.947 211.895C199.385 213.245 201.303 214.033 203.46 214.033C205.616 214.033 207.534 213.245 208.972 211.895C210.41 210.544 211.249 208.743 211.249 206.718C211.249 204.354 210.29 203.566 208.492 202.103C208.078 201.715 207.607 201.326 207.316 201.085C207.186 200.978 207.091 200.9 207.054 200.865L189.559 186.122C188.481 185.109 187.163 184.546 185.844 184.321C184.526 184.096 183.088 184.321 181.65 184.884C180.212 185.559 179.134 186.347 178.415 187.473C177.696 188.598 177.336 189.836 177.336 191.299L177.576 233.278H176.617Z" fill="url(#paint2_linear_64_41146)"/>
<path d="M120.197 226.621L116.996 232.702C116.996 232.702 116.996 253.546 147.002 280.432C147.002 280.432 169.327 301.956 212.255 289.513C252.263 277.911 290.991 238.463 290.831 186.853C290.86 176.921 288.324 167.151 283.47 158.487C276.133 145.779 265.736 135.106 253.224 127.441L120.197 226.621Z" fill="url(#paint3_linear_64_41146)"/>
<path d="M276.788 195.374C271.709 215.702 260.858 234.127 245.542 248.425C239.908 253.833 233.742 258.659 227.138 262.828C223.818 264.908 220.377 266.829 216.976 268.549C185.81 283.992 151.683 282.072 131.559 261.068C115.556 244.544 112.115 219.939 119.557 195.374C125.219 177.199 135.487 160.798 149.363 147.765C153.002 144.293 156.85 141.046 160.885 138.043C163.085 136.443 165.366 134.882 167.646 133.482C201.293 112.078 240.981 111.718 263.346 135.122C277.828 150.605 281.989 172.65 276.788 195.374Z" fill="#FCDC59"/>
<path fill-rule="evenodd" clip-rule="evenodd" d="M276.788 195.375C271.709 215.703 260.858 234.128 245.542 248.426C239.908 253.834 233.742 258.659 227.138 262.829C223.818 264.909 220.377 266.83 216.976 268.55C185.81 283.993 151.683 282.073 131.559 261.068C115.556 244.545 112.115 219.94 119.557 195.375H276.788Z" fill="url(#paint4_linear_64_41146)"/>
<ellipse cx="197.298" cy="198.098" rx="70.3342" ry="54.2109" transform="rotate(-43.73 197.298 198.098)" fill="#F0AA00"/>
<path d="M159.884 162.608C187.89 135.763 227.458 131.562 248.182 153.166C255.515 161.157 259.769 171.495 260.185 182.332C260.573 170.165 256.178 158.33 247.942 149.366C227.218 127.721 187.69 131.962 159.644 158.807C141.761 175.891 132.879 198.015 134.119 217.459C135.019 196.464 144.3 176.706 159.884 162.608Z" fill="#DA8100"/>
<path fill-rule="evenodd" clip-rule="evenodd" d="M172.447 169.21C174.495 166.747 177.082 164.79 180.009 163.489C182.982 162.042 186.267 161.355 189.57 161.488C192.723 161.461 195.812 162.366 198.452 164.089C200.937 165.724 202.709 168.24 203.413 171.13L208.294 192.535L208.734 194.295C211.246 199.515 210.025 205.766 205.734 209.658C201.971 214.015 196.664 216.74 190.931 217.26C185.631 217.844 180.316 216.289 176.168 212.939C172.533 209.984 170.334 205.616 170.127 200.936C169.97 196.336 171.589 191.853 174.647 188.414C177.827 184.223 182.75 181.717 188.01 181.612L190.011 181.252L191.851 190.814L188.57 191.254C186.327 191.148 184.159 192.077 182.689 193.775C181.345 195.287 180.667 197.278 180.809 199.296C180.98 201.298 182.018 203.124 183.649 204.297C185.446 205.577 187.665 206.121 189.851 205.817C192.145 205.524 194.252 204.4 195.772 202.657C197.218 201.121 197.611 198.871 196.772 196.935C196.772 196.095 196.412 195.215 196.372 195.015L192.131 174.171C191.988 172.988 191.384 171.91 190.451 171.17C189.39 170.435 188.14 170.018 186.85 169.97C185.477 169.879 184.104 170.126 182.849 170.69C181.577 171.25 180.454 172.1 179.568 173.171L152.563 205.177L152.003 204.697C148.899 201.437 148.899 196.315 152.003 193.055L172.447 169.21ZM213.735 188.214L217.736 187.694C219.605 187.415 221.513 187.594 223.297 188.214C225.017 188.822 226.538 189.887 227.698 191.295C228.761 192.589 229.39 194.184 229.498 195.856C229.477 197.537 228.802 199.143 227.618 200.337L192.251 241.265L193.211 242.145C195.671 244.674 199.036 246.12 202.563 246.165C206.091 246.211 209.491 244.85 212.015 242.385L241.661 208.258C244.543 205.092 246.091 200.936 245.982 196.656C245.665 192.38 243.868 188.348 240.901 185.253C237.751 181.978 233.831 179.543 229.498 178.172C225.18 176.818 220.608 176.475 216.136 177.172L212.495 177.772L208.934 178.372L211.935 188.614L213.735 188.214Z" fill="#DA8000"/>
<path fill-rule="evenodd" clip-rule="evenodd" d="M208.774 195.375C208.814 195.136 208.814 194.893 208.774 194.654C208.531 192.993 208.13 191.358 207.574 189.774C207.48 189.175 207.332 188.586 207.134 188.013L202.253 166.689C201.576 163.808 199.813 161.3 197.332 159.687C194.693 157.995 191.625 157.093 188.49 157.087C185.183 156.966 181.897 157.667 178.928 159.127C176.001 160.428 173.414 162.386 171.366 164.848L151.082 188.613C149.63 190.306 148.773 192.428 148.642 194.654C148.622 194.894 148.622 195.135 148.642 195.375C148.719 197.213 149.508 198.949 150.842 200.216L151.442 200.696L155.923 195.375L156.563 194.654L178.408 168.849C179.287 167.788 180.395 166.94 181.648 166.369C182.903 165.805 184.277 165.558 185.649 165.649C186.932 165.671 188.176 166.09 189.21 166.849C190.15 167.554 190.77 168.605 190.93 169.769L195.211 190.614C195.211 190.614 195.411 191.654 195.571 192.494C195.742 193.203 195.849 193.926 195.891 194.654C195.932 194.893 195.932 195.136 195.891 195.375C195.804 196.457 195.319 197.469 194.531 198.215C193.046 199.954 190.96 201.068 188.69 201.336C186.507 201.723 184.261 201.187 182.489 199.856C180.979 198.81 179.966 197.19 179.688 195.375C179.688 195.375 179.688 195.055 179.688 194.895V194.614C179.562 192.67 180.242 190.76 181.568 189.333C183.035 187.631 185.205 186.701 187.45 186.813C187.81 186.813 189.85 186.453 190.69 186.373L188.85 176.851L186.89 177.211C181.614 177.289 176.675 179.818 173.527 184.052C170.905 186.976 169.341 190.696 169.086 194.614C169.048 194.853 169.048 195.096 169.086 195.335C169.046 195.72 169.046 196.109 169.086 196.495C169.319 201.177 171.529 205.54 175.167 208.497C179.305 211.837 184.603 213.392 189.89 212.818C195.628 212.246 200.934 209.515 204.733 205.177C207.366 202.601 208.827 199.058 208.774 195.375ZM239.54 180.691C236.363 177.439 232.433 175.02 228.098 173.65C223.773 172.328 219.205 172 214.735 172.69L211.055 173.29L207.534 173.89L210.575 184.092L212.575 183.692L216.336 183.172C218.191 182.912 220.082 183.09 221.857 183.692C223.583 184.29 225.116 185.34 226.298 186.732C227.404 188.016 228.039 189.639 228.098 191.333C228.08 192.501 227.763 193.644 227.178 194.654C226.992 194.906 226.792 195.146 226.578 195.374L226.258 195.774L190.891 236.662L191.851 237.543C194.305 240.081 197.672 241.535 201.203 241.58C204.734 241.625 208.136 240.258 210.655 237.783L240.261 203.696C242.316 201.331 243.698 198.456 244.261 195.374V194.654C244.34 193.789 244.34 192.919 244.261 192.053C243.978 187.835 242.287 183.834 239.46 180.691H239.54Z" fill="#FCDC59"/>
<path fill-rule="evenodd" clip-rule="evenodd" d="M148.762 195.375H156.043L151.562 200.696L150.962 200.216C149.628 198.95 148.838 197.213 148.762 195.375Z" fill="url(#paint5_linear_64_41146)"/>
<path fill-rule="evenodd" clip-rule="evenodd" d="M204.534 205.097C200.735 209.435 195.429 212.167 189.691 212.739C184.404 213.313 179.106 211.758 174.968 208.418C171.33 205.461 169.119 201.098 168.887 196.415C168.846 196.03 168.846 195.641 168.887 195.255H179.649C179.927 197.07 180.94 198.691 182.449 199.736C184.222 201.067 186.468 201.603 188.651 201.216C190.921 200.948 193.007 199.834 194.492 198.096C195.28 197.349 195.765 196.337 195.852 195.255H208.775C208.786 198.982 207.25 202.546 204.534 205.097Z" fill="url(#paint6_linear_64_41146)"/>
<path fill-rule="evenodd" clip-rule="evenodd" d="M244.261 195.375C243.698 198.458 242.316 201.332 240.261 203.697L210.655 237.784C208.136 240.259 204.734 241.626 201.203 241.581C197.672 241.536 194.305 240.083 191.851 237.544L190.891 236.664L226.258 195.775L226.578 195.375L244.261 195.375Z" fill="url(#paint7_linear_64_41146)"/>
<path fill-rule="evenodd" clip-rule="evenodd" d="M255.065 101.489L255.445 108.451C255.958 118.985 263.584 127.813 273.932 129.852L280.762 131.229L273.801 131.61C263.278 132.15 254.464 139.764 252.4 150.097L251.02 156.966L250.533 149.803C250.006 139.274 242.386 130.453 232.046 128.402L225.216 127.024L232.175 126.683C242.693 126.129 251.499 118.521 253.576 108.196L255.065 101.489Z" fill="white"/>
<defs>
<linearGradient id="paint0_linear_64_41146" x1="-2.59169" y1="63.7126" x2="-2.59169" y2="428.392" gradientUnits="userSpaceOnUse">
<stop stop-color="#FFB41A"/>
<stop offset="1" stop-color="#FAFAFA" stop-opacity="0.01"/>
</linearGradient>
<linearGradient id="paint1_linear_64_41146" x1="411.288" y1="346.127" x2="411.288" y2="-20.9333" gradientUnits="userSpaceOnUse">
<stop stop-color="#FAC525"/>
<stop offset="1" stop-color="#FAFAFA" stop-opacity="0.01"/>
</linearGradient>
<linearGradient id="paint2_linear_64_41146" x1="155.53" y1="195.114" x2="192.103" y2="256.421" gradientUnits="userSpaceOnUse">
<stop stop-color="#00C6A4"/>
<stop offset="1" stop-color="#2C80F4"/>
</linearGradient>
<linearGradient id="paint3_linear_64_41146" x1="152.529" y1="330.49" x2="324.091" y2="265.003" gradientUnits="userSpaceOnUse">
<stop stop-color="#FCEC53"/>
<stop offset="1" stop-color="#B47B19"/>
</linearGradient>
<linearGradient id="paint4_linear_64_41146" x1="196.296" y1="171.5" x2="196.296" y2="278.705" gradientUnits="userSpaceOnUse">
<stop stop-color="#FFCC01" stop-opacity="0"/>
<stop offset="1" stop-color="#FAFF01"/>
</linearGradient>
<linearGradient id="paint5_linear_64_41146" x1="152.402" y1="195.375" x2="152.402" y2="200.696" gradientUnits="userSpaceOnUse">
<stop stop-color="#FFCC01" stop-opacity="0"/>
<stop offset="1" stop-color="#FFCC01"/>
</linearGradient>
<linearGradient id="paint6_linear_64_41146" x1="188.816" y1="195.255" x2="188.816" y2="212.856" gradientUnits="userSpaceOnUse">
<stop stop-color="#FFCC01" stop-opacity="0"/>
<stop offset="1" stop-color="#FFCC01"/>
</linearGradient>
<linearGradient id="paint7_linear_64_41146" x1="217.576" y1="195.375" x2="217.576" y2="241.582" gradientUnits="userSpaceOnUse">
<stop stop-color="#FFCC01" stop-opacity="0"/>
<stop offset="1" stop-color="#FFCC01"/>
</linearGradient>
</defs>
</svg>
