<?xml version="1.0" encoding="UTF-8"?>
<svg width="30px" height="30px" viewBox="0 0 30 30" version="1.1" xmlns="http://www.w3.org/2000/svg" xmlns:xlink="http://www.w3.org/1999/xlink">
    <title>24h手续费</title>
    <g id="BSC" stroke="none" stroke-width="1" fill="none" fill-rule="evenodd">
        <g id="BSC首页-Light" transform="translate(-360.000000, -2089.000000)">
            <g id="编组-21" transform="translate(-1.000000, 673.000000)">
                <g id="编组-35" transform="translate(361.000000, 100.000000)">
                    <g id="编组-19" transform="translate(0.000000, 1023.000000)">
                        <g id="编组-65" transform="translate(0.000000, 47.000000)">
                            <g id="编组-77备份-2" transform="translate(0.000000, 244.000000)">
                                <g id="24h手续费" transform="translate(0.000000, 2.000000)">
                                    <rect id="矩形" x="0" y="0" width="30" height="30"></rect>
                                    <circle id="椭圆形" fill="#F7C325" opacity="0.3" cx="15" cy="15" r="15"></circle>
                                    <rect id="矩形" fill="#FFFFFF" x="9" y="23" width="12" height="3"></rect>
                                    <g id="编组-18" transform="translate(11.132702, 5.136076)" stroke="#F7C325" stroke-width="3">
                                        <path d="M7.98458403,4.0027478 C5.10692679,2.34067458 2.86936658,2.11012402 1.27190341,3.31109612 C0.325527988,4.14073508 -0.541276046,6.08666058 2.29318077,7.36866527 C2.97689119,7.65340697 4.03911367,7.89958592 5.47984819,8.10720213 C7.00164707,8.22924336 7.83655901,8.84132365 7.98458403,9.943443 C8.20662157,11.596622 6.05361986,13.9578435 0,11.5765148" id="路径-3" stroke-linejoin="round"></path>
                                        <line x1="4" y1="0" x2="4" y2="2.55543187" id="直线-2"></line>
                                        <line x1="4" y1="12.6249936" x2="4" y2="15.1693102" id="直线-2备份"></line>
                                    </g>
                                </g>
                            </g>
                        </g>
                    </g>
                </g>
            </g>
        </g>
    </g>
</svg>