<svg width="36" height="36" viewBox="0 0 36 36" fill="none" xmlns="http://www.w3.org/2000/svg">
<g clip-path="url(#clip0_78_48517)">
<path d="M25.0254 1.56591C24.1036 1.80706 23.2479 2.25257 22.5217 2.8694C23.909 3.17567 25.1822 3.8661 26.1957 4.86176C27.2092 5.85743 27.9222 7.11816 28.253 8.49986L26.5886 8.93328L32.7651 13.5444L35.908 6.50639L33.5781 7.11312C32.531 3.09197 28.7021 0.608424 25.0254 1.56591Z" fill="#D1D2E1"/>
<path d="M11.9435 35.5571C12.8718 35.2166 13.7115 34.6715 14.4005 33.9623C12.937 33.7836 11.5533 33.1966 10.4076 32.2686C9.26195 31.3407 8.40047 30.109 7.92167 28.7146L9.59796 28.1018L2.76041 23.9511L0.21191 31.533L2.55842 30.6752C4.03895 34.7251 8.24041 36.9109 11.9435 35.5571Z" fill="#D1D2E1"/>
<path fill-rule="evenodd" clip-rule="evenodd" d="M11.8567 23.5058C18.2903 23.5058 23.5058 18.2903 23.5058 11.8567C23.5058 5.42302 18.2903 0.20752 11.8567 0.20752C5.42302 0.20752 0.20752 5.42302 0.20752 11.8567C0.20752 18.2903 5.42302 23.5058 11.8567 23.5058ZM13.0888 16.9971C13.7685 16.8113 14.3511 16.444 14.7987 15.8994C16.0357 14.3963 15.5629 12.1882 13.8234 11.2171C13.3208 10.9409 12.7939 10.724 12.2647 10.5061C12.2115 10.4842 12.1583 10.4623 12.105 10.4403C11.7715 10.3009 11.4464 10.1405 11.1635 9.91251C10.602 9.46497 10.7075 8.73878 11.3662 8.45168C11.5519 8.37147 11.7461 8.34613 11.9446 8.33347C12.029 8.32925 12.1177 8.32502 12.2021 8.32502C12.8692 8.32502 13.5067 8.46857 14.1147 8.76412C14.2329 8.82323 14.3258 8.85278 14.4018 8.85278C14.5369 8.85278 14.6087 8.74723 14.6847 8.51924C14.7716 8.24293 14.8517 7.96206 14.9316 7.68166C14.9604 7.58073 14.9892 7.47986 15.0182 7.37929C15.0942 7.12174 15.0013 6.95286 14.7607 6.84731C14.3216 6.6531 13.8698 6.51377 13.3927 6.43777C12.7721 6.34067 12.7721 6.34067 12.7679 5.71581L12.7679 5.71527C12.7637 4.86716 12.7635 4.8334 11.9784 4.8334H11.8813H11.6406H11.497C11.0833 4.84607 11.0157 4.91784 11.0031 5.3316C10.9967 5.47416 10.9975 5.61435 10.9983 5.75394C10.9986 5.80038 10.9988 5.84676 10.9988 5.89313C10.9988 6.43632 10.9947 6.4378 10.4831 6.62193L10.4669 6.62777C9.18759 7.09219 8.39807 7.96193 8.31363 9.3552C8.23764 10.588 8.87938 11.4198 9.89267 12.0277C10.3233 12.2867 10.7839 12.4714 11.2457 12.6566C11.454 12.7402 11.6625 12.8238 11.8686 12.9144C12.1261 13.0284 12.3752 13.1593 12.5906 13.3366C13.2281 13.8601 13.1099 14.7341 12.3541 15.0634C12.0544 15.1943 11.7461 15.2534 11.4295 15.2534C11.3155 15.2534 11.2015 15.2449 11.0875 15.2323C10.4078 15.1478 9.76179 14.9705 9.15382 14.6539C9.02293 14.5863 8.92583 14.5483 8.84983 14.5483C8.71895 14.5483 8.64717 14.6581 8.57118 14.903C8.46563 15.2365 8.37274 15.5743 8.27986 15.912C8.15742 16.368 8.20386 16.4736 8.63451 16.6847C9.18337 16.9506 9.77446 17.0857 10.374 17.1829C10.8426 17.2589 10.8595 17.2757 10.8637 17.7655V17.7656C10.8637 17.9851 10.8637 18.2089 10.868 18.4284C10.868 18.707 11.0031 18.8717 11.2902 18.8759C11.4422 18.8801 11.5942 18.8801 11.7461 18.8801C11.9192 18.8801 12.0924 18.8759 12.2655 18.8717C12.5314 18.8632 12.6708 18.7197 12.6708 18.4495C12.6718 18.3731 12.6734 18.2969 12.675 18.2209C12.6798 17.9945 12.6845 17.7693 12.675 17.5417C12.6581 17.2335 12.7932 17.0773 13.0888 16.9971Z" fill="#616CFF"/>
<path fill-rule="evenodd" clip-rule="evenodd" d="M14.6338 25.7457C14.8611 31.4474 19.5553 35.9999 25.3127 35.9999C31.2152 35.9999 36.0002 31.215 36.0002 25.3124C36.0002 19.555 31.4476 14.8609 25.746 14.6335C24.6338 20.227 20.2272 24.6336 14.6338 25.7457Z" fill="#D1D2E1"/>
</g>
<defs>
<clipPath id="clip0_78_48517">
<rect width="36" height="36" fill="white"/>
</clipPath>
</defs>
</svg>
