<?xml version="1.0" encoding="UTF-8"?>
<svg width="408px" height="408px" viewBox="0 0 408 408" version="1.1" xmlns="http://www.w3.org/2000/svg" xmlns:xlink="http://www.w3.org/1999/xlink">
    <title>ETH旋风-Dark</title>
    <defs>
        <linearGradient x1="50%" y1="0.26376464%" x2="50%" y2="107.287733%" id="linearGradient-1">
            <stop stop-color="#616CFF" offset="0%"></stop>
            <stop stop-color="#1A1E23" stop-opacity="0" offset="100%"></stop>
        </linearGradient>
        <linearGradient x1="50%" y1="0%" x2="50%" y2="107.147058%" id="linearGradient-2">
            <stop stop-color="#9D79FF" offset="0%"></stop>
            <stop stop-color="#1A1E23" stop-opacity="0" offset="100%"></stop>
        </linearGradient>
        <linearGradient x1="29.8461375%" y1="19.5007896%" x2="97.4699803%" y2="76.1154684%" id="linearGradient-3">
            <stop stop-color="#00C6A4" offset="0%"></stop>
            <stop stop-color="#2C80F4" offset="100%"></stop>
        </linearGradient>
        <linearGradient x1="5.06795272%" y1="69.5247299%" x2="102.07264%" y2="37.3137376%" id="linearGradient-4">
            <stop stop-color="#B79DFF" offset="0%"></stop>
            <stop stop-color="#5660ED" offset="100%"></stop>
        </linearGradient>
        <linearGradient x1="25.4683475%" y1="30.2591521%" x2="22.574953%" y2="96.3766933%" id="linearGradient-5">
            <stop stop-color="#878DFF" offset="0%"></stop>
            <stop stop-color="#C1B0FF" offset="99.9371722%"></stop>
        </linearGradient>
        <linearGradient x1="50%" y1="4.36948982%" x2="50%" y2="98.2377248%" id="linearGradient-6">
            <stop stop-color="#C1B0FF" stop-opacity="0" offset="0%"></stop>
            <stop stop-color="#C1B0FF" offset="99.9125874%"></stop>
        </linearGradient>
        <linearGradient x1="50%" y1="4.36948982%" x2="50%" y2="98.2377248%" id="linearGradient-7">
            <stop stop-color="#C1B0FF" stop-opacity="0" offset="0%"></stop>
            <stop stop-color="#C1B0FF" offset="100%"></stop>
        </linearGradient>
        <linearGradient x1="50%" y1="4.36948982%" x2="50%" y2="98.2377248%" id="linearGradient-8">
            <stop stop-color="#C1B0FF" stop-opacity="0" offset="0%"></stop>
            <stop stop-color="#C1B0FF" offset="100%"></stop>
        </linearGradient>
        <linearGradient x1="50%" y1="4.36948982%" x2="50%" y2="98.2377248%" id="linearGradient-9">
            <stop stop-color="#C1B0FF" stop-opacity="0" offset="0%"></stop>
            <stop stop-color="#C1B0FF" offset="100%"></stop>
        </linearGradient>
    </defs>
    <g id="ETH" stroke="none" stroke-width="1" fill="none" fill-rule="evenodd">
        <g id="ETH首页-Dark" transform="translate(-751.000000, -1792.000000)">
            <g id="编组-21" transform="translate(-1.000000, 673.000000)">
                <g id="编组-37" transform="translate(361.000000, 100.000000)">
                    <g id="编组-19" transform="translate(0.000000, 1023.000000)">
                        <g id="ETH旋风-Dark" transform="translate(395.000000, 0.000000)">
                            <g id="编组-78">
                                <g id="编组-76" transform="translate(0.000000, 39.069767)">
                                    <circle id="椭圆形" fill="#616CFF" opacity="0.2" cx="58.6046512" cy="18.6046512" r="18.6046512"></circle>
                                    <path d="M59.2880108,18.8030278 C22.6784906,55.0502768 0,105.341832 0,160.930233 C0,271.387183 89.54305,360.930233 200,360.930233" id="路径" stroke="url(#linearGradient-1)" stroke-width="8"></path>
                                    <circle id="椭圆形" fill="#616CFF" cx="58.6046512" cy="18.6046512" r="10.1921132"></circle>
                                </g>
                                <g id="编组-76备份" transform="translate(300.000000, 180.465116) scale(-1, -1) translate(-300.000000, -180.465116) translate(200.000000, 0.000000)">
                                    <circle id="椭圆形" fill="#9D79FF" opacity="0.2" cx="58.6046512" cy="18.6046512" r="18.6046512"></circle>
                                    <path d="M59.2880108,18.8030278 C22.6784906,55.0502768 0,105.341832 0,160.930233 C0,271.387183 89.54305,360.930233 200,360.930233" id="路径" stroke="url(#linearGradient-2)" stroke-width="8"></path>
                                    <circle id="椭圆形" fill="#9D79FF" cx="58.6046512" cy="18.6046512" r="10.1921132"></circle>
                                </g>
                                <circle id="椭圆形" fill-opacity="0.0955528846" fill="#92939F" cx="200" cy="200" r="120.930233"></circle>
                                <circle id="椭圆形" fill-opacity="0.1" fill="#8E8F9E" cx="200" cy="200" r="93.0232558"></circle>
                                <circle id="椭圆形" fill="#1B1B1F" cx="200" cy="200" r="65.1162791"></circle>
                            </g>
                            <path d="M173.336288,171.768796 C176.691551,170.305718 180.166644,169.968084 183.521907,170.418262 C186.877169,170.86844 190.112601,172.331519 192.748879,174.582409 L192.748879,174.582409 L209.884685,189.550828 C210.7235,190.226095 210.963162,190.451184 211.202823,190.676273 C215.396902,193.940063 217.793518,195.965864 217.793518,202.831079 C217.793518,207.557948 215.756394,211.947183 212.401132,215.098429 C209.045869,218.249675 204.492298,220.162932 199.339573,220.162932 C194.30668,220.162932 189.633278,218.249675 186.278015,215.098429 C182.922753,211.947183 180.885629,207.670492 180.885629,202.831079 C180.885629,195.85332 183.162414,193.940063 187.476323,190.338639 L187.476323,190.338639 L188.914293,189.10065 L196.942957,195.85332 C196.343803,196.303498 194.905834,197.541487 194.666172,197.766576 C192.748879,199.342199 191.670402,200.242555 191.670402,202.718534 C191.670402,204.744335 192.509217,206.545047 193.947187,207.895581 C195.385157,209.246115 197.30245,210.033927 199.459404,210.033927 C201.616359,210.033927 203.533652,209.246115 204.971621,207.895581 C206.409591,206.545047 207.248407,204.744335 207.248407,202.718534 C207.248407,200.3551 206.28976,199.567288 204.492298,198.10421 C203.893144,197.541487 203.174159,196.978765 203.054329,196.86622 L203.054329,196.86622 L185.559031,182.12289 C184.480553,181.10999 183.162414,180.547267 181.844275,180.322178 C180.526137,180.097089 179.088167,180.322178 177.650197,180.884901 C176.212228,181.560168 175.13375,182.347979 174.414765,183.473424 C173.695781,184.59887 173.336288,185.836859 173.336288,187.299938 L173.336288,187.299938 L173.57595,229.279037 L172.617303,229.279037 C167.224917,229.279037 162.791177,225.227435 162.791177,220.162932 L162.791177,220.162932 L162.791177,187.299938 C162.671346,183.923602 163.749823,180.772356 165.547286,178.071288 C167.344748,175.37022 169.981025,173.11933 173.336288,171.768796 Z M215.677695,170.401423 C219.16258,169.951116 222.771924,170.401423 226.256809,171.752344 C229.617233,173.215841 232.479816,175.354798 234.346719,178.056639 C236.213621,180.645903 237.209302,183.910627 237.209302,187.287928 L237.209302,187.287928 L236.960382,220.160324 C236.835922,225.226275 232.355356,229.279037 226.754649,229.279037 L226.754649,229.279037 L225.758968,229.279037 L226.007888,187.287928 C226.132348,185.824431 225.634508,184.586087 224.887747,183.46032 C224.016526,182.334553 222.896384,181.43394 221.527323,180.871056 C220.033801,180.308173 218.540279,180.083019 217.171217,180.308173 C215.802155,180.533326 214.433094,181.09621 213.312952,182.1094 L213.312952,182.1094 L211.07267,184.023204 L209.952528,185.148971 L201.613698,178.394369 L203.85398,176.480565 L206.094263,174.566761 C208.832387,172.315227 212.192811,170.85173 215.677695,170.401423 Z" id="形状结合" fill="url(#linearGradient-3)"></path>
                            <g id="编组-32" transform="translate(109.000000, 92.000000)">
                                <path d="M10.6857278,126.388426 L7.55263979,132.341293 C7.55263979,132.341293 7.55263979,152.745528 36.9253394,179.063467 C36.9253394,179.063467 58.778628,200.133484 100.80117,187.953604 C139.96477,176.59616 177.875134,137.980851 177.718964,87.4598078 C177.746451,77.7381809 175.264338,68.1739524 170.512377,59.6928157 C163.330756,47.2528567 153.152938,36.8057837 140.904696,29.3018625 L10.6857278,126.388426 Z" id="路径" fill="url(#linearGradient-4)" fill-rule="nonzero" transform="translate(92.635802, 110.522916) rotate(3.000000) translate(-92.635802, -110.522916) "></path>
                                <path d="M164.611669,95.482923 C159.64012,115.381786 149.017427,133.417243 134.024898,147.413856 C128.509628,152.707829 122.473934,157.431416 116.009642,161.512752 C112.759064,163.549259 109.390994,165.429112 106.062088,167.113146 C75.5536442,182.230296 42.1470938,180.350443 22.4478032,159.789553 C6.7823634,143.614987 3.41429384,119.529373 10.6987234,95.482923 C16.2412741,77.6912516 26.2925696,61.6361621 39.875605,48.8782395 C43.4381394,45.4794115 47.2048515,42.3012482 51.1547217,39.3614848 C53.3087196,37.7949409 55.5410448,36.2675605 57.77337,34.8968345 L57.77337,34.8968345 C90.7099572,13.9443087 129.560248,13.5918363 151.4527,36.5025421 C165.629923,51.6588551 169.702937,73.2379984 164.611669,95.482923 Z" id="路径" fill="url(#linearGradient-5)" fill-rule="nonzero" transform="translate(86.869676, 98.150630) rotate(3.000000) translate(-86.869676, -98.150630) "></path>
                                <path d="M162.618186,95.3756885 C157.646637,115.274552 147.023943,133.310009 132.031415,147.306621 C126.516144,152.600595 120.48045,157.324182 114.016159,161.405517 C110.76558,163.442024 107.39751,165.321877 104.068605,167.005912 C73.5601605,182.123061 40.1536101,180.243209 20.4543195,159.682319 C4.78887973,143.507752 1.42081017,119.422139 8.70523968,95.3756885 L162.618186,95.3756885 Z" id="路径" fill="url(#linearGradient-6)" transform="translate(83.825375, 136.161047) rotate(3.000000) translate(-83.825375, -136.161047) "></path>
                                <ellipse id="椭圆形" fill="#757CFF" fill-rule="nonzero" transform="translate(86.799493, 98.145185) rotate(-40.730000) translate(-86.799493, -98.145185) " cx="86.7994929" cy="98.145185" rx="68.849608" ry="53.0666774"></ellipse>
                                <path d="M51.2825499,63.4234385 C78.6970695,37.1446632 117.429869,33.0324853 137.716614,54.180829 C144.8947,62.0031999 149.058892,72.1221857 149.465694,82.7310931 C149.846322,70.8206398 145.544017,59.2353497 137.481632,50.4602871 C117.194888,29.2727797 78.5012515,33.4241213 51.0475683,59.7028966 C33.5414393,76.4257536 24.8471202,98.0832241 26.0611918,117.116733 C26.9420418,96.5644301 36.0270438,77.2235329 51.2825499,63.4234385 L51.2825499,63.4234385 Z" id="路径" fill="#4E55EE" fill-rule="nonzero" transform="translate(87.719164, 77.022631) rotate(3.000000) translate(-87.719164, -77.022631) "></path>
                                <path d="M62.1794072,69.8858898 C64.1837103,67.4752418 66.7165441,65.5588649 69.5813275,64.285495 C72.4915877,62.8692604 75.7075114,62.196473 78.9414278,62.3273151 C82.0269967,62.3010645 85.0516011,63.1866469 87.6357469,64.872949 C90.0678031,66.4738738 91.8030212,68.936764 92.4920333,71.7657426 L97.2699924,92.7182683 L97.700792,94.4414667 C100.159492,99.5518127 98.9644075,105.670643 94.763522,109.480289 C91.0805251,113.745239 85.8851178,116.413151 80.2729902,116.921373 C75.0846646,117.493951 69.8824655,115.971356 65.821622,112.691704 C62.2631542,109.799436 60.1110549,105.523742 59.9079185,100.942624 C59.754521,96.4399127 61.3391099,92.0507416 64.3334052,88.6844176 C67.4462603,84.5818223 72.2651975,82.1290698 77.4140474,82.0266056 L79.3722274,81.6741332 L81.173753,91.0342335 L77.9623378,91.4650331 C75.7664805,91.361012 73.6443474,92.2704976 72.2052887,93.9323399 C70.8897746,95.4129597 70.2262623,97.3611446 70.3645995,99.3369166 C70.5324026,101.296402 71.5481552,103.084699 73.1452151,104.232367 C74.9044969,105.485165 77.0763329,106.017615 79.215573,105.720583 C81.4613678,105.433984 83.5238582,104.33306 85.0117858,102.626659 C86.427524,101.123024 86.8124854,98.9210443 85.9908757,97.0262643 C85.9908757,96.2038287 85.6384033,95.3422295 85.5992397,95.1464115 L81.4478982,74.7421761 C81.3079549,73.5846303 80.7168472,72.5290809 79.803027,71.8049062 C78.7643947,71.0847712 77.5412899,70.6770696 76.2783031,70.6299982 C74.9348266,70.5408585 73.5900112,70.7829253 72.3619431,71.334943 C71.1169758,71.8831728 70.0172867,72.7146451 69.1505279,73.7630861 L42.7150983,105.093966 L42.1668079,104.624003 C39.1282098,101.432754 39.1282098,96.4186441 42.1668079,93.2273951 L62.1794072,69.8858898 Z M102.596242,88.4885996 L106.512602,87.9794728 C108.341656,87.7065247 110.209621,87.8812265 111.956342,88.4885996 C113.639549,89.0839268 115.128839,90.1264299 116.264338,91.5041967 C117.304543,92.7713105 117.920948,94.3328703 118.0267,95.9688471 C118.005218,97.6143418 117.345216,99.1871128 116.186011,100.35517 L81.565389,140.419533 L82.5053154,141.281132 C84.9131403,143.756704 88.2068846,145.172701 91.6600188,145.216783 C95.113153,145.260866 98.4419711,143.929412 100.912207,141.516113 L129.932434,108.109563 C132.753889,105.010664 134.26924,100.941666 134.162103,96.7521191 C133.851925,92.566556 132.093204,88.6198217 129.188326,85.5904932 C126.105124,82.3839017 122.267797,80.0007199 118.0267,78.6585361 C113.799412,77.3326043 109.32363,76.9975906 104.946058,77.6794461 L101.38217,78.2669001 L97.89661,78.8543541 L100.83388,88.8802356 L102.596242,88.4885996 Z" id="形状" fill="#4E55EE" transform="translate(87.027640, 103.764575) rotate(3.000000) translate(-87.027640, -103.764575) "></path>
                                <path d="M97.9718605,95.4353766 C98.010573,95.2019894 98.010573,94.9638189 97.9718605,94.7304318 C97.734462,93.103765 97.3410111,91.5037312 96.7969526,89.9524726 C96.7048203,89.3664177 96.5606504,88.7897379 96.366153,88.2292742 L91.5881938,67.3550757 C90.9256189,64.5351584 89.1999336,62.0799152 86.7710711,60.5014458 C84.1876662,58.8452009 81.1846433,57.9619589 78.1159156,57.9558118 C74.8787022,57.8371304 71.662611,58.5234093 68.7558153,59.9531554 C65.8910319,61.2265252 63.3581981,63.1429021 61.353895,65.5535501 L41.49795,88.8167282 C40.0766444,90.4738514 39.2375057,92.5510636 39.1089705,94.7304318 C39.0895351,94.9650115 39.0895351,95.2007968 39.1089705,95.4353766 C39.184109,97.234815 39.9566333,98.9343684 41.2629684,100.174172 L41.8504224,100.644135 L46.2367456,95.4353766 L46.8633632,94.7304318 L68.2466885,69.4699101 C69.1071579,68.4313414 70.1917148,67.6011868 71.4189401,67.0417669 C72.6470082,66.4897492 73.9918236,66.2476825 75.3353,66.3368221 C76.5907019,66.3585574 77.8084759,66.769043 78.8208604,67.5117301 C79.7414076,68.201639 80.347784,69.2310688 80.5048952,70.3706729 L84.6954003,90.7749082 C84.6954003,90.7749082 84.8912183,91.7931618 85.0478727,92.6155974 C85.2149012,93.30984 85.3197519,94.017582 85.3611815,94.7304318 C85.4006209,94.9637585 85.4006209,95.2020498 85.3611815,95.4353766 C85.2755358,96.4947725 84.8012876,97.4851142 84.0296191,98.2159921 C82.5760868,99.9176385 80.5342482,101.008484 78.3117336,101.270753 C76.1749138,101.649516 73.9767215,101.124786 72.2413757,99.8216997 C70.7636477,98.7984179 69.7721838,97.2120758 69.4999237,95.4353766 C69.4999237,95.4353766 69.4999237,95.1220678 69.4999237,94.9654134 L69.4999237,94.6912682 C69.3762638,92.788236 70.0420692,90.9183146 71.3406129,89.521673 C72.7761122,87.854966 74.9007367,86.9444126 77.097662,87.0543663 C77.4501344,87.0543663 79.447478,86.7018939 80.2699136,86.6235667 L78.468388,77.30263 L76.5493716,77.6551024 C71.3849149,77.7316042 66.5501224,80.2069021 63.4687294,84.3520779 C60.9020701,87.2139957 59.3711425,90.8551208 59.1215698,94.6912682 C59.0842333,94.9247667 59.0842333,95.1627145 59.1215698,95.396213 C59.0822539,95.7737737 59.0822539,96.1543966 59.1215698,96.5319573 C59.3492392,101.115472 61.513233,105.386513 65.0744369,108.281037 C69.125308,111.550582 74.3113358,113.072568 79.4866416,112.510706 C85.1035175,111.951067 90.2975864,109.277032 94.016337,105.030458 C96.5936948,102.509075 98.0235653,99.0405774 97.9718605,95.4353766 L97.9718605,95.4353766 Z M128.088669,81.0623355 C124.978667,77.8786551 121.131466,75.5111465 116.887879,74.169542 C112.653975,72.8757559 108.182622,72.554461 103.807237,73.2296156 L100.204186,73.8170696 L96.757789,74.4045236 L99.7342225,84.3912415 L101.692402,83.9996055 L105.373781,83.4904787 C107.19035,83.2359693 109.041276,83.4103319 110.778358,83.9996055 C112.467709,84.5847507 113.969006,85.6126661 115.125517,86.9760391 C116.208741,88.2327962 116.83048,89.8216862 116.887879,91.479853 C116.869883,92.6224855 116.559793,93.7415058 115.987116,94.7304318 C115.805243,94.9766917 115.609088,95.2120771 115.399662,95.4353766 L115.086354,95.8270126 L80.4657316,135.852211 L81.4056579,136.71381 C83.8082053,139.198991 87.1037949,140.621705 90.5601524,140.665829 C94.0165099,140.709952 97.3473442,139.371831 99.8125497,136.948792 L128.793613,103.581405 C130.805453,101.266071 132.15808,98.4526079 132.709973,95.4353766 L132.709973,94.7304318 C132.786735,93.8836231 132.786735,93.0316064 132.709973,92.1847978 C132.4326,88.0557723 130.777728,84.1392429 128.010341,81.0623355 L128.088669,81.0623355 Z" id="形状" fill="#A6ABFF" transform="translate(85.930969, 99.304775) rotate(3.000000) translate(-85.930969, -99.304775) "></path>
                                <path d="M39.3517899,93.1793046 L46.4795651,93.1793046 L42.0932419,98.3880633 L41.5057879,97.9181001 C40.1994528,96.6782965 39.4269285,94.9787431 39.3517899,93.1793046 Z" id="路径" fill="url(#linearGradient-7)" transform="translate(42.915678, 95.783684) rotate(3.000000) translate(-42.915678, -95.783684) "></path>
                                <path d="M93.588604,104.553433 C89.8698535,108.800007 84.6757845,111.474042 79.0589086,112.033681 C73.8836029,112.595543 68.6975751,111.073557 64.646704,107.804012 C61.0855001,104.909488 58.9215062,100.638447 58.6938369,96.0549321 C58.6545209,95.6773714 58.6545209,95.2967485 58.6938369,94.9191878 L69.2288451,94.9191878 C69.5011053,96.695887 70.4925691,98.2822291 71.9702971,99.3055109 C73.705643,100.608598 75.9038353,101.133327 78.040655,100.754564 C80.2631697,100.492295 82.3050082,99.4014497 83.7585406,97.6998033 C84.5302091,96.9689254 85.0044572,95.9785837 85.0901029,94.9191878 L97.7400109,94.9191878 C97.7514285,98.5672038 96.2480032,102.056285 93.588604,104.553433 L93.588604,104.553433 Z" id="路径" fill="url(#linearGradient-8)" transform="translate(78.202180, 103.533663) rotate(3.000000) translate(-78.202180, -103.533663) "></path>
                                <path d="M131.700555,96.4907831 C131.148662,99.5080144 129.796035,102.321478 127.784195,104.636812 L98.8031317,138.004199 C96.3379262,140.427237 93.0070919,141.765359 89.5507344,141.721235 C86.0943769,141.677111 82.7987873,140.254397 80.3962399,137.769217 L79.4563135,136.907618 L114.076935,96.8824191 L114.390244,96.4907831 L131.700555,96.4907831 Z" id="路径" fill="url(#linearGradient-9)" transform="translate(105.578434, 119.106538) rotate(3.000000) translate(-105.578434, -119.106538) "></path>
                                <path d="M141.609986,1.41920404 L142.354094,8.35116116 C143.417582,18.8440294 151.495629,27.2613547 161.935894,28.7553965 L168.828687,29.7736501 L161.89673,30.5177585 C151.41631,31.6081348 143.012891,39.6728372 141.492495,50.0995583 L140.474241,57.0315154 L139.612642,49.9037403 C138.535673,39.4171078 130.464322,31.0067598 120.030842,29.4995049 L113.138049,28.4812513 L120.070006,27.7763065 C130.544236,26.6725949 138.940776,18.6144948 140.474241,8.19450676 L141.609986,1.41920404 Z" id="Fill-1-2" fill="#FFFFFF" transform="translate(140.983368, 29.225360) rotate(3.000000) translate(-140.983368, -29.225360) "></path>
                            </g>
                        </g>
                    </g>
                </g>
            </g>
        </g>
    </g>
</svg>