<svg width="450" height="341" viewBox="0 0 450 341" fill="none" xmlns="http://www.w3.org/2000/svg">
<circle cx="225.218" cy="169.611" r="161.984" fill="#8A61FF" fill-opacity="0.04"/>
<circle cx="225.218" cy="169.611" r="127.335" fill="#8A61FF" fill-opacity="0.08"/>
<circle cx="225.385" cy="169.551" r="94.5228" fill="url(#paint0_linear_78_49017)"/>
<circle cx="223.907" cy="167.488" r="71.0802" fill="url(#paint1_linear_78_49017)"/>
<path fill-rule="evenodd" clip-rule="evenodd" d="M285.055 131.226C272.063 114.293 251.62 103.376 228.628 103.376C189.372 103.376 157.548 135.2 157.548 174.457C157.548 187.703 161.171 200.102 167.481 210.719C158.29 198.741 152.827 183.752 152.827 167.488C152.827 128.231 184.651 96.4075 223.907 96.4075C249.918 96.4075 272.665 110.378 285.055 131.226Z" fill="#4E55EE"/>
<path fill-rule="evenodd" clip-rule="evenodd" d="M244.531 154.71L241.826 157.021L240.473 158.38L230.404 150.224L233.109 147.913L235.814 145.602C239.121 142.884 243.178 141.117 247.386 140.573C251.594 140.029 255.952 140.573 260.16 142.204C264.218 143.971 267.674 146.554 269.929 149.816C272.183 152.943 273.385 156.885 273.385 160.963L273.085 200.656C272.934 206.773 267.524 211.666 260.761 211.666H259.559L259.86 160.963C260.01 159.196 259.409 157.7 258.507 156.341C257.455 154.982 256.103 153.894 254.45 153.215C252.646 152.535 250.843 152.263 249.19 152.535C247.536 152.807 245.883 153.487 244.531 154.71ZM195.393 211.666C188.882 211.666 183.528 206.774 183.528 200.659V160.977C183.383 156.901 184.686 153.095 186.856 149.834C189.026 146.573 192.21 143.855 196.261 142.224C200.312 140.457 204.509 140.05 208.56 140.593C212.611 141.137 216.518 142.903 219.701 145.621L240.392 163.695C241.405 164.511 241.695 164.782 241.984 165.054L241.984 165.054C247.048 168.995 249.942 171.441 249.942 179.731C249.942 185.439 247.482 190.738 243.431 194.544C239.38 198.349 233.881 200.659 227.659 200.659C221.582 200.659 215.939 198.349 211.888 194.544C207.836 190.738 205.377 185.574 205.377 179.731C205.377 171.305 208.126 168.995 213.335 164.647L215.071 163.152L224.766 171.305C224.042 171.849 222.306 173.344 222.016 173.616C219.701 175.518 218.399 176.605 218.399 179.595C218.399 182.041 219.412 184.215 221.148 185.846C222.885 187.477 225.2 188.428 227.804 188.428C230.409 188.428 232.724 187.477 234.46 185.846C236.196 184.215 237.209 182.041 237.209 179.595C237.209 176.741 236.052 175.79 233.881 174.023C233.381 173.554 232.812 173.084 232.461 172.794C232.303 172.664 232.19 172.57 232.145 172.528L211.02 154.726C209.717 153.503 208.126 152.824 206.534 152.552C204.943 152.28 203.206 152.552 201.47 153.231C199.734 154.047 198.431 154.998 197.563 156.357C196.695 157.716 196.261 159.211 196.261 160.977L196.55 211.666H195.393Z" fill="#4652FF"/>
<path fill-rule="evenodd" clip-rule="evenodd" d="M178.985 194.192C178.985 200.308 184.338 205.2 190.849 205.2H192.007L191.718 154.511C191.718 152.744 192.152 151.25 193.02 149.891C193.888 148.532 195.19 147.58 196.927 146.765C198.663 146.086 200.399 145.814 201.991 146.086C203.582 146.357 205.174 147.037 206.476 148.26L227.601 166.062C227.746 166.198 228.614 166.878 229.338 167.557C231.508 169.324 232.666 170.275 232.666 173.129C232.666 175.575 231.653 177.749 229.917 179.38C228.18 181.011 225.865 181.962 223.261 181.962C220.656 181.962 218.341 181.011 216.605 179.38C214.868 177.749 213.856 175.575 213.856 173.129C213.856 170.139 215.158 169.052 217.473 167.149C217.762 166.878 219.499 165.383 220.222 164.839L210.528 156.685L208.791 158.18C203.582 162.529 200.833 164.839 200.833 173.265C200.833 179.108 203.293 184.272 207.344 188.077C211.396 191.882 217.039 194.192 223.116 194.192C229.338 194.192 234.836 191.882 238.888 188.077C242.939 184.272 245.399 178.972 245.399 173.265C245.399 164.975 242.505 162.529 237.441 158.588C237.151 158.316 236.862 158.044 235.849 157.229L215.158 139.155C211.975 136.437 208.068 134.67 204.016 134.127C199.965 133.583 195.769 133.991 191.718 135.758C187.666 137.388 184.483 140.106 182.313 143.368C180.142 146.629 178.84 150.434 178.985 154.511V194.192Z" fill="white"/>
<path fill-rule="evenodd" clip-rule="evenodd" d="M237.282 150.554L239.987 148.243C241.34 147.02 242.993 146.34 244.646 146.068C246.299 145.797 248.102 146.068 249.906 146.748C251.559 147.428 252.911 148.515 253.963 149.875C254.865 151.234 255.466 152.729 255.316 154.496L255.015 205.2H256.218C262.98 205.2 268.39 200.306 268.541 194.189L268.841 154.496C268.841 150.418 267.639 146.476 265.385 143.35C263.131 140.087 259.674 137.505 255.616 135.737C251.408 134.106 247.05 133.563 242.842 134.106C238.634 134.65 234.577 136.417 231.271 139.136L228.565 141.447L225.86 143.758L235.929 151.914L237.282 150.554Z" fill="#BBADFF"/>
<path d="M281.817 295.673C303.05 283.254 315.365 264.812 309.323 254.481C308.164 252.499 306.478 250.877 304.453 249.795L244.305 217.67C237.585 214.08 229.479 219.025 229.595 226.643L230.603 292.911C230.638 295.212 231.267 297.466 232.429 299.453C238.472 309.784 260.583 308.092 281.817 295.673Z" fill="url(#paint2_linear_78_49017)"/>
<mask id="mask0_78_49017" style="mask-type:alpha" maskUnits="userSpaceOnUse" x="229" y="216" width="82" height="91">
<path d="M281.817 295.673C303.05 283.254 315.365 264.812 309.323 254.481C308.164 252.499 306.478 250.877 304.453 249.795L244.305 217.67C237.585 214.08 229.479 219.025 229.595 226.643L230.603 292.911C230.638 295.212 231.267 297.466 232.429 299.453C238.472 309.784 260.583 308.092 281.817 295.673Z" fill="#D9D9D9"/>
</mask>
<g mask="url(#mask0_78_49017)">
<g filter="url(#filter0_f_78_49017)">
<ellipse cx="235.204" cy="219.04" rx="22.0176" ry="14.8282" fill="#DED2FF" fill-opacity="0.8"/>
</g>
<g filter="url(#filter1_f_78_49017)">
<ellipse cx="258.57" cy="219.04" rx="16.6256" ry="14.8282" fill="#D3C4FF" fill-opacity="0.6"/>
</g>
<g filter="url(#filter2_f_78_49017)">
<ellipse cx="223.522" cy="245.101" rx="16.6256" ry="14.8282" fill="#C1C5FF" fill-opacity="0.6"/>
</g>
</g>
<ellipse cx="270.877" cy="276.967" rx="44.5397" ry="21.6703" transform="rotate(-30.3216 270.877 276.967)" fill="url(#paint3_linear_78_49017)"/>
<mask id="mask1_78_49017" style="mask-type:alpha" maskUnits="userSpaceOnUse" x="230" y="247" width="81" height="60">
<ellipse cx="270.877" cy="276.967" rx="44.5397" ry="21.6703" transform="rotate(-30.3216 270.877 276.967)" fill="url(#paint4_linear_78_49017)"/>
</mask>
<g mask="url(#mask1_78_49017)">
<g filter="url(#filter3_f_78_49017)">
<ellipse cx="273.847" cy="256.784" rx="22.0176" ry="14.8282" fill="#D8C6FF" fill-opacity="0.8"/>
</g>
</g>
<path fill-rule="evenodd" clip-rule="evenodd" d="M297.653 283.845C308.602 273.35 313.634 261.852 309.324 254.481C303.282 244.15 281.17 245.843 259.937 258.262C238.703 270.68 226.388 289.122 232.43 299.453C236.564 306.522 248.221 307.962 261.973 304.188C248.749 307.788 237.62 306.452 233.698 299.747C227.902 289.836 240.048 271.95 260.827 259.798C281.606 247.645 303.149 245.827 308.946 255.738C313.04 262.738 308.182 273.718 297.653 283.845Z" fill="url(#paint5_linear_78_49017)"/>
<path fill-rule="evenodd" clip-rule="evenodd" d="M282.967 274.444C282.929 274.374 282.887 274.306 282.843 274.239C281.176 271.771 275.657 272.584 270.515 276.055C265.373 279.526 262.555 284.341 264.221 286.809L264.212 286.815L286.838 320.334L305.46 307.764L282.967 274.444Z" fill="url(#paint6_linear_78_49017)"/>
<ellipse cx="296.158" cy="314.043" rx="11.2335" ry="5.39208" transform="rotate(-34.021 296.158 314.043)" fill="url(#paint7_linear_78_49017)"/>
<circle opacity="0.2" cx="86.1619" cy="23.6249" r="17.354" transform="rotate(-175.736 86.1619 23.6249)" fill="#616CFF"/>
<path d="M91.0272 25.3918C92.7278 23.9816 92.9632 21.4599 91.553 19.7594C90.1428 18.0589 87.6212 17.8235 85.9206 19.2337L91.0272 25.3918ZM27.8824 155.303C31.9419 100.852 56.4262 54.0846 91.0272 25.3918L85.9206 19.2337C49.5061 49.4303 24.1116 98.279 19.9046 154.708L27.8824 155.303ZM132.172 332.107C67.4184 314.256 21.5219 240.618 27.8824 155.303L19.9046 154.708C13.339 242.772 60.6694 320.693 130.046 339.82L132.172 332.107Z" fill="url(#paint8_linear_78_49017)"/>
<circle cx="86.1617" cy="23.6249" r="10.1731" transform="rotate(-175.736 86.1617 23.6249)" fill="#616CFF"/>
<circle opacity="0.2" cx="363.838" cy="316.642" r="17.354" transform="rotate(4.26374 363.838 316.642)" fill="#9D79FF"/>
<path d="M361.526 317.954C397.034 288.51 421.973 240.701 426.107 185.261C432.57 98.5718 385.956 22.7927 318.891 4.30371" stroke="url(#paint9_linear_78_49017)" stroke-width="8"/>
<circle cx="363.838" cy="316.642" r="10.1731" transform="rotate(4.26374 363.838 316.642)" fill="#9D79FF"/>
<defs>
<filter id="filter0_f_78_49017" x="203.187" y="194.212" width="64.0352" height="49.6565" filterUnits="userSpaceOnUse" color-interpolation-filters="sRGB">
<feFlood flood-opacity="0" result="BackgroundImageFix"/>
<feBlend mode="normal" in="SourceGraphic" in2="BackgroundImageFix" result="shape"/>
<feGaussianBlur stdDeviation="5" result="effect1_foregroundBlur_78_49017"/>
</filter>
<filter id="filter1_f_78_49017" x="231.944" y="194.212" width="53.251" height="49.6565" filterUnits="userSpaceOnUse" color-interpolation-filters="sRGB">
<feFlood flood-opacity="0" result="BackgroundImageFix"/>
<feBlend mode="normal" in="SourceGraphic" in2="BackgroundImageFix" result="shape"/>
<feGaussianBlur stdDeviation="5" result="effect1_foregroundBlur_78_49017"/>
</filter>
<filter id="filter2_f_78_49017" x="196.896" y="220.273" width="53.251" height="49.6565" filterUnits="userSpaceOnUse" color-interpolation-filters="sRGB">
<feFlood flood-opacity="0" result="BackgroundImageFix"/>
<feBlend mode="normal" in="SourceGraphic" in2="BackgroundImageFix" result="shape"/>
<feGaussianBlur stdDeviation="5" result="effect1_foregroundBlur_78_49017"/>
</filter>
<filter id="filter3_f_78_49017" x="231.83" y="221.956" width="84.0352" height="69.6565" filterUnits="userSpaceOnUse" color-interpolation-filters="sRGB">
<feFlood flood-opacity="0" result="BackgroundImageFix"/>
<feBlend mode="normal" in="SourceGraphic" in2="BackgroundImageFix" result="shape"/>
<feGaussianBlur stdDeviation="10" result="effect1_foregroundBlur_78_49017"/>
</filter>
<linearGradient id="paint0_linear_78_49017" x1="235.5" y1="256.5" x2="165" y2="75" gradientUnits="userSpaceOnUse">
<stop stop-color="#878DFF"/>
<stop offset="0.999372" stop-color="#C1B0FF"/>
</linearGradient>
<linearGradient id="paint1_linear_78_49017" x1="170.508" y1="122.596" x2="272.508" y2="219.653" gradientUnits="userSpaceOnUse">
<stop stop-color="#9C8CFF"/>
<stop offset="1" stop-color="#4C55FD"/>
</linearGradient>
<linearGradient id="paint2_linear_78_49017" x1="303.504" y1="222.634" x2="228.913" y2="265.322" gradientUnits="userSpaceOnUse">
<stop stop-color="#ACB2FF"/>
<stop offset="0.383115" stop-color="#DACDFF"/>
<stop offset="0.65933" stop-color="#F1ECFF"/>
<stop offset="1" stop-color="#DEE0FF"/>
</linearGradient>
<linearGradient id="paint3_linear_78_49017" x1="306.171" y1="264.337" x2="239.803" y2="290.59" gradientUnits="userSpaceOnUse">
<stop stop-color="#EDE7FF"/>
<stop offset="1" stop-color="#DBDDFF"/>
</linearGradient>
<linearGradient id="paint4_linear_78_49017" x1="306.171" y1="264.337" x2="239.803" y2="290.59" gradientUnits="userSpaceOnUse">
<stop stop-color="#D9EDFF"/>
<stop offset="1" stop-color="#B1E6F8"/>
</linearGradient>
<linearGradient id="paint5_linear_78_49017" x1="312.485" y1="244.194" x2="222.619" y2="301.262" gradientUnits="userSpaceOnUse">
<stop stop-color="white" stop-opacity="0"/>
<stop offset="0.489583" stop-color="#F1ECFF"/>
<stop offset="0.994792" stop-color="white" stop-opacity="0"/>
</linearGradient>
<linearGradient id="paint6_linear_78_49017" x1="263.063" y1="285.093" x2="294.517" y2="277.903" gradientUnits="userSpaceOnUse">
<stop stop-color="#C9CCFF"/>
<stop offset="0.262596" stop-color="#F2EFFC"/>
<stop offset="0.337274" stop-color="#F2EFFC"/>
<stop offset="0.671875" stop-color="#E3D9FF"/>
<stop offset="1" stop-color="#C9CCFF"/>
</linearGradient>
<linearGradient id="paint7_linear_78_49017" x1="305.753" y1="312.156" x2="289.021" y2="317.667" gradientUnits="userSpaceOnUse">
<stop stop-color="#E3E5FF"/>
<stop offset="1" stop-color="#DED2FF"/>
</linearGradient>
<linearGradient id="paint8_linear_78_49017" x1="135.291" y1="335.456" x2="159.891" y2="5.50089" gradientUnits="userSpaceOnUse">
<stop stop-color="#FAFAFA" stop-opacity="0.01"/>
<stop offset="1" stop-color="#616CFF"/>
</linearGradient>
<linearGradient id="paint9_linear_78_49017" x1="314.646" y1="5.07001" x2="290.029" y2="335.25" gradientUnits="userSpaceOnUse">
<stop stop-color="#FAFAFA" stop-opacity="0.01"/>
<stop offset="1" stop-color="#9D79FF"/>
</linearGradient>
</defs>
</svg>
