<svg width="50" height="50" viewBox="0 0 50 50" fill="none" xmlns="http://www.w3.org/2000/svg">
<rect width="50" height="50" rx="25" fill="white"/>
<path d="M33.2833 23.982V23.8591C34.3734 23.549 35.3278 22.8819 35.9935 21.9646C36.6591 21.0473 36.9975 19.9331 36.9542 18.8005C36.99 17.857 36.8055 16.9182 36.4152 16.0584C36.025 15.1986 35.4398 14.4416 34.706 13.8474C32.9343 12.5837 30.7837 11.964 28.6112 12.091H16V37.9105H28.8571C31.1597 38.0341 33.4367 37.3782 35.3208 36.0487C36.2022 35.3793 36.9064 34.5043 37.3718 33.5C37.8372 32.4958 38.0496 31.3929 37.9905 30.2876C38.0183 28.8629 37.5706 27.4696 36.7181 26.3277C35.8657 25.1858 34.6571 24.3604 33.2833 23.982ZM22.3934 17.1495H27.6627C29.5421 17.1495 30.754 18.098 30.754 19.7139C30.754 21.3298 29.5245 22.2958 27.6451 22.2958H22.3758L22.3934 17.1495ZM28.1896 32.7642H22.3934V26.6167H28.1018C28.5412 26.5591 28.9878 26.5961 29.4117 26.7252C29.8356 26.8543 30.227 27.0726 30.5596 27.3653C30.8923 27.658 31.1585 28.0185 31.3405 28.4226C31.5224 28.8266 31.6159 29.2649 31.6147 29.708C31.6237 30.1441 31.5382 30.5769 31.364 30.9768C31.1898 31.3767 30.9311 31.7341 30.6056 32.0245C30.2802 32.3149 29.8957 32.5313 29.4787 32.659C29.0616 32.7867 28.6219 32.8226 28.1896 32.7642Z" fill="#312630"/>
</svg>
