<svg width="408" height="408" viewBox="0 0 408 408" fill="none" xmlns="http://www.w3.org/2000/svg">
<circle opacity="0.2" cx="62.6047" cy="61.6733" r="18.6047" fill="#616CFF"/>
<path d="M63.288 61.8713C26.6785 98.1186 4 148.41 4 203.999C4 314.455 93.5431 403.999 204 403.999" stroke="url(#paint0_linear_64_41147)" stroke-width="8"/>
<circle cx="62.6042" cy="61.6728" r="10.1921" fill="#616CFF"/>
<circle opacity="0.2" cx="345.395" cy="346.325" r="18.6047" transform="rotate(180 345.395 346.325)" fill="#9D79FF"/>
<path d="M344.712 346.127C381.322 309.88 404 259.588 404 204C404 93.5431 314.457 4 204 4" stroke="url(#paint1_linear_64_41147)" stroke-width="8"/>
<circle cx="345.396" cy="346.326" r="10.1921" transform="rotate(180 345.396 346.326)" fill="#9D79FF"/>
<circle cx="204" cy="203.999" r="120.93" fill="#E4E5E9"/>
<circle cx="204" cy="203.999" r="93.0233" fill="#EEEEF3"/>
<circle cx="204" cy="203.999" r="65.1163" fill="white"/>
<path fill-rule="evenodd" clip-rule="evenodd" d="M217.314 186.109L215.073 188.022L213.953 189.148L205.614 182.394L207.855 180.48L210.095 178.566C212.833 176.314 216.193 174.851 219.678 174.401C223.163 173.95 226.772 174.401 230.257 175.751C233.618 177.215 236.48 179.354 238.347 182.056C240.214 184.645 241.21 187.91 241.21 191.287L240.961 224.159C240.836 229.225 236.356 233.278 230.755 233.278H229.76L230.008 191.287C230.133 189.824 229.635 188.585 228.888 187.459C228.017 186.334 226.897 185.433 225.528 184.87C224.034 184.307 222.541 184.082 221.172 184.307C219.803 184.532 218.434 185.095 217.314 186.109ZM176.617 233.278C171.225 233.278 166.791 229.227 166.791 224.162V191.299C166.671 187.923 167.75 184.771 169.547 182.07C171.345 179.369 173.981 177.118 177.336 175.768C180.692 174.305 184.167 173.967 187.522 174.417C190.877 174.868 194.113 176.331 196.749 178.582L213.885 193.55C214.724 194.225 214.963 194.45 215.203 194.675C219.397 197.939 221.794 199.965 221.794 206.83C221.794 211.557 219.756 215.946 216.401 219.098C213.046 222.249 208.492 224.162 203.34 224.162C198.307 224.162 193.633 222.249 190.278 219.098C186.923 215.946 184.886 211.67 184.886 206.83C184.886 199.852 187.163 197.939 191.476 194.338L192.914 193.1L200.943 199.852C200.344 200.303 198.906 201.541 198.666 201.766C196.749 203.341 195.67 204.242 195.67 206.718C195.67 208.743 196.509 210.544 197.947 211.895C199.385 213.245 201.303 214.033 203.46 214.033C205.616 214.033 207.534 213.245 208.972 211.895C210.41 210.544 211.249 208.743 211.249 206.718C211.249 204.354 210.29 203.566 208.492 202.103C208.078 201.715 207.607 201.326 207.316 201.085C207.186 200.978 207.091 200.9 207.054 200.865L189.559 186.122C188.481 185.109 187.163 184.546 185.844 184.321C184.526 184.096 183.088 184.321 181.65 184.884C180.212 185.559 179.134 186.347 178.415 187.473C177.696 188.598 177.336 189.836 177.336 191.299L177.576 233.278H176.617Z" fill="url(#paint2_linear_64_41147)"/>
<path d="M122.968 218.077L119.527 223.857C119.527 223.857 118.459 244.234 146.414 272.053C146.414 272.053 167.135 294.238 209.737 284.274C249.442 274.982 289.321 238.403 291.809 187.943C292.346 178.236 290.367 168.555 286.066 159.837C279.545 147.038 269.928 136.073 258.089 127.938L122.968 218.077Z" fill="url(#paint3_linear_64_41147)"/>
<path d="M277.644 195.554C271.638 215.166 260.086 232.62 244.382 245.813C238.597 250.811 232.322 255.213 225.653 258.95C222.301 260.814 218.839 262.515 215.426 264.022C184.168 277.522 150.906 273.896 132.31 252.332C117.512 235.36 115.41 211.131 123.942 187.499C130.409 170.022 141.286 154.515 155.518 142.485C159.254 139.278 163.182 136.301 167.28 133.572C169.513 132.12 171.822 130.712 174.123 129.46C208.111 110.26 246.927 111.941 267.59 135.966C280.955 151.844 283.893 173.606 277.644 195.554Z" fill="url(#paint4_linear_64_41147)"/>
<path fill-rule="evenodd" clip-rule="evenodd" d="M277.645 195.554C271.639 215.166 260.087 232.62 244.382 245.813C238.598 250.811 232.323 255.213 225.654 258.95C222.301 260.814 218.839 262.515 215.427 264.022C184.169 277.522 150.907 273.896 132.31 252.332C117.513 235.36 115.41 211.131 123.943 187.499L277.645 195.554Z" fill="url(#paint5_linear_64_41147)"/>
<ellipse cx="199.799" cy="194.144" rx="68.8496" ry="53.0667" transform="rotate(-40.73 199.799 194.144)" fill="#757CFF"/>
<path d="M165.045 157.535C193.797 132.727 232.692 130.647 251.844 152.828C258.603 161.016 262.232 171.339 262.083 181.954C263.086 170.08 259.396 158.286 251.804 149.101C232.654 126.88 193.796 129.001 165.005 153.807C146.647 169.591 136.831 190.763 137.048 209.834C139.003 189.356 149.088 170.517 165.045 157.535Z" fill="#4E55EE"/>
<path fill-rule="evenodd" clip-rule="evenodd" d="M176.987 164.631C179.114 162.329 181.744 160.548 184.672 159.426C187.652 158.164 190.899 157.661 194.121 157.961C197.204 158.096 200.178 159.138 202.67 160.958C205.015 162.684 206.619 165.234 207.159 168.095L210.834 189.269L211.174 191.012C213.362 196.244 211.848 202.292 207.454 205.877C203.553 209.943 198.225 212.336 192.594 212.549C187.383 212.85 182.267 211.057 178.384 207.569C174.981 204.495 173.056 200.112 173.093 195.527C173.175 191.022 174.987 186.722 178.154 183.517C181.477 179.583 186.418 177.386 191.565 177.553L193.539 177.303L194.848 186.745L191.619 187.007C189.431 186.788 187.264 187.585 185.74 189.17C184.349 190.579 183.585 192.49 183.619 194.471C183.684 196.436 184.605 198.275 186.14 199.505C187.831 200.848 189.972 201.493 192.124 201.309C194.382 201.14 196.499 200.149 198.074 198.522C199.567 197.095 200.066 194.916 199.345 192.981C199.388 192.16 199.081 191.281 199.052 191.083L195.975 170.49C195.895 169.326 195.36 168.241 194.486 167.47C193.486 166.697 192.286 166.226 191.027 166.112C189.69 165.953 188.335 166.124 187.079 166.611C185.807 167.094 184.666 167.867 183.745 168.868L155.706 198.773L155.183 198.275C152.316 194.929 152.578 189.921 155.78 186.894L176.987 164.631ZM216.374 185.324L220.312 185.02C222.153 184.843 224.009 185.116 225.722 185.814C227.371 186.496 228.804 187.615 229.866 189.05C230.838 190.37 231.372 191.962 231.392 193.601C231.285 195.243 230.543 196.779 229.324 197.885L192.654 236.083L193.548 236.992C195.823 239.591 199.038 241.177 202.484 241.402C205.93 241.626 209.324 240.471 211.917 238.19L242.646 206.348C245.626 203.401 247.352 199.417 247.465 195.228C247.374 191.032 245.824 186.998 243.082 183.821C240.171 180.458 236.463 177.877 232.298 176.315C228.146 174.769 223.694 174.2 219.287 174.652L215.697 175.052L212.185 175.457L214.594 185.623L216.374 185.324Z" fill="#4E55EE"/>
<path fill-rule="evenodd" clip-rule="evenodd" d="M211.158 192.07C211.209 191.839 211.221 191.601 211.195 191.366C211.043 189.729 210.734 188.111 210.271 186.533C210.21 185.943 210.096 185.359 209.931 184.79L206.252 163.694C205.738 160.843 204.144 158.301 201.801 156.598C199.307 154.808 196.355 153.769 193.291 153.602C190.064 153.315 186.816 153.832 183.839 155.107C180.911 156.229 178.282 158.01 176.154 160.313L155.108 182.505C153.602 184.085 152.655 186.116 152.412 188.285C152.381 188.518 152.368 188.754 152.376 188.989C152.356 190.79 153.039 192.528 154.279 193.834L154.841 194.334L159.494 189.362L160.156 188.691L182.832 164.584C183.746 163.592 184.872 162.82 186.127 162.325C187.383 161.838 188.738 161.667 190.075 161.826C191.328 161.914 192.522 162.388 193.494 163.182C194.378 163.919 194.929 164.979 195.027 166.125L198.143 186.721C198.143 186.721 198.286 187.748 198.399 188.578C198.53 189.28 198.597 189.992 198.601 190.706C198.628 190.941 198.616 191.179 198.564 191.41C198.423 192.463 197.898 193.427 197.089 194.117C195.549 195.74 193.452 196.723 191.219 196.868C189.066 197.135 186.898 196.496 185.233 195.104C183.811 194.004 182.904 192.368 182.725 190.58C182.725 190.58 182.741 190.267 182.749 190.11L182.764 189.837C182.74 187.93 183.503 186.097 184.873 184.77C186.393 183.181 188.563 182.383 190.751 182.608C191.103 182.626 193.116 182.379 193.941 182.344L192.63 172.941L190.695 173.193C185.534 172.999 180.576 175.218 177.282 179.196C174.569 181.92 172.85 185.476 172.4 189.294C172.35 189.525 172.338 189.762 172.363 189.997C172.304 190.372 172.284 190.753 172.303 191.132C172.291 195.721 174.228 200.099 177.633 203.176C181.507 206.653 186.607 208.445 191.804 208.154C197.443 207.889 202.77 205.491 206.706 201.445C209.411 199.062 211.021 195.673 211.158 192.07ZM241.985 179.293C239.046 175.951 235.328 173.385 231.161 171.823C227 170.31 222.552 169.755 218.147 170.2L214.518 170.598L211.046 171.005L213.495 181.133L215.471 180.845L219.174 180.529C221.002 180.37 222.841 180.641 224.545 181.32C226.201 181.993 227.647 183.098 228.73 184.52C229.746 185.832 230.284 187.451 230.255 189.11C230.177 190.25 229.809 191.351 229.185 192.309C228.99 192.545 228.782 192.77 228.561 192.982L228.228 193.357L191.56 231.515L192.454 232.425C194.723 235.032 197.939 236.626 201.389 236.851C204.838 237.076 208.234 235.914 210.823 233.623L241.511 201.818C243.641 199.611 245.139 196.872 245.848 193.888L245.885 193.184C246.006 192.343 246.05 191.492 246.018 190.642C245.957 186.504 244.51 182.506 241.907 179.289L241.985 179.293Z" fill="#A6ABFF"/>
<path fill-rule="evenodd" clip-rule="evenodd" d="M152.493 188.995L159.611 189.368L154.958 194.34L154.396 193.84C153.157 192.534 152.474 190.796 152.493 188.995Z" fill="url(#paint6_linear_64_41147)"/>
<path fill-rule="evenodd" clip-rule="evenodd" d="M206.514 201.356C202.578 205.402 197.251 207.801 191.613 208.066C186.415 208.356 181.316 206.565 177.441 203.088C174.037 200.011 172.099 195.632 172.112 191.043C172.092 190.664 172.112 190.284 172.171 189.909L182.692 190.46C182.871 192.249 183.778 193.885 185.2 194.984C186.865 196.376 189.032 197.015 191.186 196.749C193.419 196.603 195.515 195.621 197.056 193.998C197.865 193.308 198.39 192.344 198.531 191.29L211.164 191.953C210.984 195.596 209.3 199.002 206.514 201.356Z" fill="url(#paint7_linear_64_41147)"/>
<path fill-rule="evenodd" clip-rule="evenodd" d="M245.848 193.888C245.139 196.872 243.641 199.611 241.511 201.818L210.823 233.623C208.235 235.913 204.838 237.075 201.389 236.85C197.94 236.625 194.723 235.032 192.454 232.425L191.561 231.515L228.228 193.357L228.562 192.982L245.848 193.888Z" fill="url(#paint8_linear_64_41147)"/>
<path fill-rule="evenodd" clip-rule="evenodd" d="M256.065 97.4894L256.445 104.451C256.958 114.985 264.584 123.813 274.932 125.852L281.762 127.229L274.801 127.61C264.278 128.15 255.464 135.764 253.4 146.097L252.02 152.966L251.533 145.803C251.006 135.274 243.386 126.453 233.046 124.402L226.216 123.024L233.175 122.683C243.693 122.129 252.499 114.521 254.576 104.196L256.065 97.4894Z" fill="white"/>
<defs>
<linearGradient id="paint0_linear_64_41147" x1="-2.86609" y1="62.7737" x2="-2.86609" y2="428.392" gradientUnits="userSpaceOnUse">
<stop stop-color="#616CFF"/>
<stop offset="1" stop-color="#FAFAFA" stop-opacity="0.01"/>
</linearGradient>
<linearGradient id="paint1_linear_64_41147" x1="410.939" y1="344.934" x2="410.939" y2="-20.9333" gradientUnits="userSpaceOnUse">
<stop stop-color="#9D79FF"/>
<stop offset="1" stop-color="#FAFAFA" stop-opacity="0.01"/>
</linearGradient>
<linearGradient id="paint2_linear_64_41147" x1="155.53" y1="195.114" x2="192.103" y2="256.421" gradientUnits="userSpaceOnUse">
<stop stop-color="#00C6A4"/>
<stop offset="1" stop-color="#2C80F4"/>
</linearGradient>
<linearGradient id="paint3_linear_64_41147" x1="153.37" y1="317.531" x2="319.613" y2="263.86" gradientUnits="userSpaceOnUse">
<stop stop-color="#B79DFF"/>
<stop offset="1" stop-color="#5660ED"/>
</linearGradient>
<linearGradient id="paint4_linear_64_41147" x1="108.555" y1="155.135" x2="98.4574" y2="261.597" gradientUnits="userSpaceOnUse">
<stop stop-color="#878DFF"/>
<stop offset="0.999372" stop-color="#C1B0FF"/>
</linearGradient>
<linearGradient id="paint5_linear_64_41147" x1="124.914" y1="191.119" x2="120.906" y2="267.583" gradientUnits="userSpaceOnUse">
<stop stop-color="#C1B0FF" stop-opacity="0.01"/>
<stop offset="0.999126" stop-color="#C1B0FF"/>
</linearGradient>
<linearGradient id="paint6_linear_64_41147" x1="152.699" y1="189.234" x2="152.444" y2="194.117" gradientUnits="userSpaceOnUse">
<stop stop-color="#C1B0FF" stop-opacity="0.01"/>
<stop offset="1" stop-color="#C1B0FF"/>
</linearGradient>
<linearGradient id="paint7_linear_64_41147" x1="173.299" y1="190.722" x2="172.452" y2="206.872" gradientUnits="userSpaceOnUse">
<stop stop-color="#C1B0FF" stop-opacity="0.01"/>
<stop offset="1" stop-color="#C1B0FF"/>
</linearGradient>
<linearGradient id="paint8_linear_64_41147" x1="195.172" y1="193.211" x2="192.95" y2="235.611" gradientUnits="userSpaceOnUse">
<stop stop-color="#C1B0FF" stop-opacity="0.01"/>
<stop offset="1" stop-color="#C1B0FF"/>
</linearGradient>
</defs>
</svg>
