<svg width="50" height="50" viewBox="0 0 50 50" fill="none" xmlns="http://www.w3.org/2000/svg">
<rect width="50" height="50" rx="25" fill="black"/>
<path d="M25.1151 5.84033C14.6969 5.84033 6.25098 14.2856 6.25098 24.7039C6.25098 35.1221 14.6969 43.5687 25.1151 43.5687C35.5334 43.5687 43.9787 35.1221 43.9787 24.7039C43.9787 14.2856 35.5334 5.84033 25.1151 5.84033ZM25.166 41.1314C16.2526 41.1314 9.02663 33.9054 9.02663 24.9914C9.02663 16.0773 16.2526 8.85132 25.166 8.85132C34.0794 8.85132 41.3061 16.0773 41.3061 24.9914C41.3061 33.9054 34.0801 41.1314 25.166 41.1314Z" fill="white"/>
<path d="M31.0524 25.017L33.1952 23.4434C33.1952 23.4434 30.7147 19.8721 26.0112 19.8721C21.9215 19.8721 18.7012 22.4009 18.3565 26.5886C17.9399 31.6444 22.7121 35.4524 27.2858 36.2735C28.846 36.5477 30.4437 36.5285 31.9969 36.2169C32.7569 36.0657 33.5019 35.8471 34.223 35.5637C34.5505 35.4436 34.868 35.2979 35.1726 35.128C35.324 35.039 35.9104 34.4462 36.03 34.4519C32.0236 34.2439 27.4677 34.2821 23.9784 32.0044C22.2668 30.8869 21.2231 29.1595 21.1799 27.0981C21.0603 21.1734 28.7417 21.6752 31.0524 25.017Z" fill="white"/>
<path d="M29.4422 19.6622L30.4929 17.0545C30.5323 16.9553 27.3388 16.4121 27.1493 16.3968C24.8036 16.206 22.4083 16.6392 20.3437 17.8216C15.3705 20.6678 14.3249 25.5468 15.4806 30.2879C16.2298 33.365 18.44 35.6859 21.168 37.1787C24.7552 39.1408 28.6001 38.9596 32.3438 37.5565C27.4285 37.5145 20.0047 36.0777 18.1538 30.2217C16.8512 26.1046 18.3535 22.4315 21.0026 20.7378C22.877 19.5414 25.1871 18.4334 29.4422 19.6622Z" fill="white"/>
<path d="M25.9132 15.6991V13.3458C25.9132 13.2822 23.5834 13.6002 23.4543 13.6244C21.5971 13.9786 19.7805 14.623 18.1618 15.6075C13.3858 18.5117 11.0669 24.5623 12.1882 29.9711C12.4608 31.3029 12.951 32.5806 13.639 33.753C15.7067 37.2563 19.3633 39.2019 23.3328 39.7025C24.8026 39.8776 26.2862 39.9057 27.7615 39.7864C24.4847 39.0868 16.8382 38.078 14.5956 29.9279C14.0912 27.7151 13.9793 21.9526 18.1809 18.6192C22.3826 15.2857 25.9132 15.6991 25.9132 15.6991Z" fill="white"/>
</svg>
