<svg width="50" height="50" viewBox="0 0 50 50" fill="none" xmlns="http://www.w3.org/2000/svg">
<g clip-path="url(#clip0_576_48301)">
<path d="M25.0004 0C11.1932 0 0 11.1932 0 25.0004C0 38.8076 11.1932 50 25.0004 50C38.8076 50 50 38.8076 50 25.0004C50 11.1932 38.8076 0 25.0004 0ZM25.0679 46.7707C13.2551 46.7707 3.67854 37.1942 3.67854 25.3806C3.67854 13.5669 13.2551 3.99127 25.0679 3.99127C36.8807 3.99127 46.458 13.5712 46.458 25.3806C46.458 37.19 36.8815 46.7707 25.0679 46.7707Z" fill="black"/>
<path d="M32.8692 25.4151L35.709 23.3297C35.709 23.3297 32.4216 18.5967 26.1881 18.5967C20.7681 18.5967 16.5004 21.9482 16.0435 27.498C15.4914 34.1993 21.8159 39.2451 27.8782 40.3333C29.9459 40.6975 32.0634 40.6721 34.1218 40.2583C35.1291 40.0587 36.1164 39.7692 37.072 39.3934C37.5043 39.2337 37.9234 39.0403 38.3255 38.8152C38.5252 38.6972 39.3024 37.9115 39.4609 37.92C34.1555 37.6443 28.1176 37.6958 23.4908 34.6755C21.2224 33.1954 19.8392 30.906 19.7819 28.174C19.6268 20.3213 29.8068 20.9889 32.8692 25.4151Z" fill="black"/>
<path d="M30.7347 18.3187L32.1272 14.8669C32.1795 14.7345 27.9471 14.0147 27.6959 13.9944C24.5872 13.7415 21.4127 14.3156 18.6766 15.8834C12.0857 19.6547 10.7 26.1208 12.2316 32.4048C13.2245 36.4838 16.1537 39.5588 19.769 41.5371C24.5231 44.1376 29.6186 43.8973 34.5801 42.0378C28.066 41.9822 18.2273 40.078 15.7744 32.3172C14.0481 26.8609 16.0391 21.9938 19.5499 19.7491C22.034 18.1585 25.0972 16.6901 30.7347 18.3187Z" fill="black"/>
<path d="M26.0585 13.0655V9.94667C26.0585 9.86238 22.9709 10.2838 22.8006 10.3159C20.3384 10.7845 17.931 11.6393 15.7858 12.9433C9.45705 16.7946 6.38457 24.8126 7.86897 31.9808C8.23024 33.7458 8.87985 35.4391 9.79169 36.9929C12.5321 41.6366 17.378 44.2151 22.6388 44.8776C24.5866 45.1102 26.5528 45.1475 28.5081 44.9889C24.1653 44.0617 14.0316 42.7248 11.0595 31.9235C10.391 28.9918 10.2427 21.354 15.811 16.9371C21.3794 12.5201 26.0585 13.0655 26.0585 13.0655Z" fill="black"/>
</g>
<defs>
<clipPath id="clip0_576_48301">
<rect width="50" height="50" fill="white"/>
</clipPath>
</defs>
</svg>
