<?xml version="1.0" encoding="UTF-8"?>
<svg width="343px" height="36px" viewBox="0 0 343 36" version="1.1" xmlns="http://www.w3.org/2000/svg" xmlns:xlink="http://www.w3.org/1999/xlink">
    <title>异形</title>
    <g id="H5-HECO" stroke="none" stroke-width="1" fill="none" fill-rule="evenodd">
        <g id="H5流动性挖矿-卡片-Light" transform="translate(-16.000000, -895.000000)" fill="#FFFFFF">
            <g id="编组-52" transform="translate(16.000000, 505.000000)">
                <g id="异形" transform="translate(0.000000, 390.000000)">
                    <path d="M343,0 L343,11.3142857 C343,24.9478293 331.964424,36 318.351351,36 L210.091069,36 C203.348018,36.0000041 197.250337,31.991392 194.576863,25.8009734 C194.576863,25.8009734 194.576863,25.8009734 194.576863,25.8009734 C190.634698,16.6729028 181.562133,10.2857143 171,10.2857143 C160.472952,10.2857143 151.425593,16.6305396 147.462591,25.7101 C147.462591,25.7101 147.462591,25.7101 147.462591,25.7101 C144.734665,31.9600026 138.563225,36.0000133 131.743924,36 L24.6486486,36 L24.6486486,36 C11.0355759,36 0,24.9478293 0,11.3142857 L0,0 L343,0 Z" id="路径"></path>
                    <path d="M189.420454,31.5124199 C189.420454,31.5124199 189.420454,31.5124199 189.420454,31.5124199 C187.371207,23.7425781 180.124876,18 171.500026,18 C162.876853,18 155.631633,23.7403466 153.580756,31.5078907 C153.580756,31.5078907 153.580756,31.5078907 153.580756,31.5078907 C153.076215,33.4188036 154.216304,35.3769162 156.127217,35.8814577 C156.425354,35.9601754 156.732416,36.0000294 157.04077,36 L185.962974,36 C187.937785,36.0000189 189.538685,34.3991188 189.538685,32.4243085 C189.538685,32.116524 189.498946,31.8100275 189.420454,31.5124199 Z" id="半圆"></path>
                </g>
            </g>
        </g>
    </g>
</svg>