<?xml version="1.0" encoding="UTF-8"?>
<svg width="380px" height="36px" viewBox="0 0 380 36" version="1.1" xmlns="http://www.w3.org/2000/svg" xmlns:xlink="http://www.w3.org/1999/xlink">
    <title>异形</title>
    <g id="HECO" stroke="none" stroke-width="1" fill="none" fill-rule="evenodd">
        <g id="HECO流动性挖矿-卡片-Dark" transform="translate(-770.000000, -1133.000000)" fill="#252A33">
            <g id="编组-35备份" transform="translate(770.000000, 580.000000)">
                <g id="异形" transform="translate(0.000000, 553.000000)">
                    <path d="M380,0 L380,11.3142857 C380,24.9478293 368.964424,36 355.351351,36 L229.091076,36 C222.348021,36.0000086 216.250338,31.9913947 213.576863,25.8009734 C213.576863,25.8009734 213.576863,25.8009734 213.576863,25.8009734 C209.634698,16.6729028 200.562133,10.2857143 190,10.2857143 C179.472952,10.2857143 170.425593,16.6305396 166.462591,25.7101 C166.462591,25.7101 166.462591,25.7101 166.462591,25.7101 C163.734667,31.9599975 157.563232,36.0000048 150.743937,36 L24.6486486,36 L24.6486486,36 C11.0355759,36 0,24.9478293 0,11.3142857 L0,0 L380,0 Z" id="路径"></path>
                    <path d="M208.420454,31.5124199 C208.420454,31.5124199 208.420454,31.5124199 208.420454,31.5124199 C206.371207,23.7425781 199.124876,18 190.500026,18 C181.876853,18 174.631633,23.7403466 172.580756,31.5078907 C172.580756,31.5078907 172.580756,31.5078907 172.580756,31.5078907 C172.076215,33.4188036 173.216304,35.3769162 175.127217,35.8814577 C175.425354,35.9601754 175.732416,36.0000294 176.04077,36 L204.962974,36 C206.937785,36.0000189 208.538685,34.3991188 208.538685,32.4243085 C208.538685,32.116524 208.498946,31.8100275 208.420454,31.5124199 Z" id="半圆"></path>
                </g>
            </g>
        </g>
    </g>
</svg>