<?xml version="1.0" encoding="UTF-8"?>
<svg width="172px" height="43px" viewBox="0 0 172 43" version="1.1" xmlns="http://www.w3.org/2000/svg" xmlns:xlink="http://www.w3.org/1999/xlink">
    <title>CERTIK(横)</title>
    <g id="HECO" stroke="none" stroke-width="1" fill="none" fill-rule="evenodd">
        <g id="合作伙伴" transform="translate(-2792.000000, -1147.000000)">
            <g id="编组-2备份-4" transform="translate(1920.000000, 903.000000)">
                <g id="编组-8" transform="translate(360.000000, 100.000000)">
                    <g id="编组-29" transform="translate(255.000000, 144.000000)">
                        <g id="CERTIK(横)" transform="translate(257.000000, 0.000000)">
                            <rect id="矩形" x="0" y="0" width="172" height="43"></rect>
                            <g id="编组" transform="translate(0.000000, 3.000000)" fill="#6B73CA">
                                <path d="M31.786041,5.64233486 L31.9799516,6.81517896 L31.9799516,6.81543596 C31.9915168,6.8839279 32.192495,8.1336166 32.192238,10.109988 C32.192495,11.989854 32.0105352,14.5273967 31.3173917,17.3364656 C30.6585584,20.0070086 29.4582147,23.1887353 27.2860052,26.3139208 C25.1126391,29.4394919 21.9710052,32.5135333 17.3916832,34.9833551 L16.8317969,35.285465 L16.2717822,34.9833551 C11.6925887,32.5135333 8.5509548,29.4394919 6.37746023,26.3139208 C4.20537918,23.1887353 3.00503551,20.0070086 2.34607369,17.3364656 C1.65305866,14.5276537 1.47122735,11.990111 1.47135585,10.1103736 C1.47109885,8.13374511 1.67220556,6.88367089 1.6836423,6.81569297 L1.6836423,6.81505045 L1.87755287,5.64233486 C1.94386026,5.24153496 1.67246257,4.86283752 1.27166267,4.79653013 C0.870862761,4.73035124 0.492293823,5.00162043 0.425986433,5.40242033 L0.232075866,6.57526443 L0.232204369,6.57462191 C0.209973403,6.70916423 0,8.03364151 0,10.1103736 C0,12.0844319 0.18979848,14.7380126 0.917637742,17.68882 C1.61090978,20.4977604 2.87473378,23.8515522 5.1694064,27.1535574 C7.46292249,30.4554342 10.7904998,33.7008982 15.5734986,36.2784053 L16.4826551,36.7687716 C16.7012382,36.8866085 16.9623557,36.8866085 17.1810673,36.7686431 L18.0900953,36.2784053 C22.8729656,33.7008982 26.2006714,30.4554342 28.4941875,27.1535574 C30.7888601,23.8515522 32.0526841,20.4977604 32.7458276,17.68882 C33.4736669,14.7377556 33.6635939,12.0841749 33.6635939,10.109988 C33.6635939,8.03364151 33.4536205,6.70890723 33.431518,6.57487892 L33.431518,6.57526443 L33.237736,5.40242033 C33.1714286,5.00162043 32.7927311,4.73022274 32.3919312,4.79653013 C31.9911313,4.86283752 31.7198621,5.24153496 31.7861695,5.64233486 L31.786041,5.64233486 Z" id="Fill-1"></path>
                                <path d="M5.89575503,4.84333081 L16.8318483,1.50495931 L28.0111973,4.91760537 C28.3997894,5.03621335 28.8108695,4.81737327 28.9294775,4.42878112 C29.048214,4.04018897 28.8293739,3.62910885 28.4406533,3.51037236 L17.0465763,0.032189925 C16.9059944,-0.010729975 16.7575738,-0.010729975 16.6171203,0.032189925 L5.46617052,3.4362263 C5.07757837,3.55483429 4.85873828,3.96591441 4.97747477,4.35450656 C5.09595426,4.74309871 5.50716288,4.9619388 5.89575503,4.84333081" id="Fill-3"></path>
                                <path d="M0.497009872,5.85779533 L16.1770372,36.4566 C16.3023273,36.7010121 16.5508515,36.8544443 16.8253333,36.8567869 C17.0999435,36.8591989 17.3510378,36.7101358 17.4805685,36.4680367 L27.0407835,18.5865012 L27.0549188,18.5586162 L33.1747311,5.84134699 C33.3509083,5.47524281 33.1969621,5.03576359 32.8308579,4.8594579 C32.4647537,4.6832807 32.0252745,4.83735543 31.8489688,5.20333111 L25.7360956,17.9063365 L16.8456367,34.5349707 L1.80632383,5.18688276 C1.62115144,4.82527618 1.17781715,4.68250969 0.816210565,4.86768207 C0.454732485,5.05298296 0.311837489,5.49631725 0.497009872,5.85779533" id="Fill-5"></path>
                                <path d="M8.00111748,19.4862386 L25.4358491,19.4862386 C25.8420461,19.4862386 26.1713985,19.1568862 26.1713985,18.7504321 C26.1713985,18.3442351 25.8420461,18.0148827 25.4358491,18.0148827 L8.00111748,18.0148827 C7.59479196,18.0148827 7.26543955,18.3442351 7.26543955,18.7504321 C7.26543955,19.1568862 7.59479196,19.4862386 8.00111748,19.4862386" id="Fill-7"></path>
                                <path d="M56.6287216,13.1372802 L45.2875878,13.1372802 C45.0850676,13.1372802 44.9113319,13.2101413 44.7659954,13.3552208 C44.6205303,13.5006858 44.5479263,13.674807 44.5479263,13.8769417 L44.5479263,22.9802011 C44.5479263,23.1823359 44.6205303,23.3563285 44.7659954,23.5014081 C44.9113319,23.6468731 45.0850676,23.7198626 45.2875878,23.7198626 L56.6287216,23.7198626 L56.6287216,25.2558553 L45.2875878,25.2558553 C44.6552261,25.2558553 44.1182133,25.0347022 43.6755215,24.5922674 C43.2327012,24.1495756 43.0119336,23.6125629 43.0119336,22.9802011 L43.0119336,13.8769417 C43.0119336,13.244837 43.2327012,12.7074387 43.6755215,12.2648754 C44.1182133,11.8224407 44.6552261,11.6012875 45.2875878,11.6012875 L56.6287216,11.6012875 L56.6287216,13.1372802 Z" id="Fill-9"></path>
                                <polygon id="Fill-11" points="77.9261671 11.6012618 77.9261671 13.1372545 67.0021531 13.1372545 67.0021531 17.6510402 75.7828707 17.6510402 75.7828707 19.2060513 67.0021531 19.2060513 67.0021531 23.7198369 77.9261671 23.7198369 77.9261671 25.2558296 65.4661604 25.2558296 65.4661604 11.6012618"></polygon>
                                <path d="M89.0392601,18.6179716 L98.1421339,18.6179716 C98.3443972,18.6179716 98.5151773,18.5488371 98.6544742,18.4096687 C98.7933856,18.2703718 98.8629056,18.0998487 98.8629056,17.8973284 L98.8629056,13.8957545 C98.8629056,13.6936198 98.7933856,13.5200127 98.6544742,13.3741621 C98.5151773,13.228954 98.3443972,13.156093 98.1421339,13.156093 L89.0392601,13.156093 C88.8367398,13.156093 88.6626187,13.228954 88.5175391,13.3741621 C88.3722026,13.5200127 88.2995986,13.6936198 88.2995986,13.8957545 L88.2995986,17.8973284 C88.2995986,18.0998487 88.3722026,18.2703718 88.5175391,18.4096687 C88.6626187,18.5488371 88.8367398,18.6179716 89.0392601,18.6179716 M100.418174,13.8957545 L100.418174,17.8973284 C100.418174,18.5299472 100.196635,19.0670885 99.7542002,19.5095232 C99.3115085,19.952215 98.7744957,20.1733682 98.1421339,20.1733682 L96.0562782,20.1733682 L100.3421,25.2557782 L98.3130425,25.2557782 L94.0458535,20.1733682 L89.0392601,20.1733682 C88.9254067,20.1733682 88.67881,20.1481816 88.2995986,20.0972946 L88.2995986,25.2557782 L86.7632203,25.2557782 L86.7632203,11.6201003 L98.1421339,11.6201003 C98.7744957,11.6201003 99.3115085,11.8412534 99.7542002,12.2838167 C100.196635,12.726637 100.418174,13.2637783 100.418174,13.8957545" id="Fill-13"></path>
                                <polygon id="Fill-15" points="108.57343 11.6012618 122.228383 11.6012618 122.228383 13.1372545 116.17822 13.1372545 116.17822 25.2558296 114.641841 25.2558296 114.641841 13.1372545 108.57343 13.1372545"></polygon>
                                <polygon id="Fill-17" points="130.496671 25.2558553 132.033049 25.2558553 132.033049 11.6012875 130.496671 11.6012875"></polygon>
                                <polygon id="Fill-19" points="152.533135 11.6012618 154.505523 11.6012618 148.797434 18.4284815 154.52467 25.2558296 152.533135 25.2558296 147.450854 19.2060513 143.050922 19.2060513 143.050922 25.2558296 141.49591 25.2558296 141.49591 11.6012618 143.050922 11.6012618 143.050922 17.6510402 147.450854 17.6510402"></polygon>
                            </g>
                        </g>
                    </g>
                </g>
            </g>
        </g>
    </g>
</svg>