<svg width="180" height="44" viewBox="0 0 180 44" fill="none" xmlns="http://www.w3.org/2000/svg">
<path fill-rule="evenodd" clip-rule="evenodd" d="M16.832 5.50496L5.89589 8.84333C5.5073 8.96194 5.09609 8.7431 4.97761 8.35451C4.85888 7.96591 5.07772 7.55483 5.46631 7.43623L16.6173 4.03219C16.7577 3.98927 16.9061 3.98927 17.0467 4.03219L28.4408 7.51037C28.8295 7.62911 29.0484 8.04019 28.9296 8.42878C28.811 8.81737 28.3999 9.03621 28.0113 8.91761L16.832 5.50496ZM27.055 22.5587L32.1154 12.0429C32.1572 12.5823 32.1923 13.2824 32.1922 14.1101C32.1925 15.9899 32.0105 18.5275 31.3174 21.3365C30.6586 24.0071 29.4582 27.1888 27.286 30.314C25.3193 33.1423 22.5598 35.9284 18.6597 38.2628L27.0408 22.5866L27.055 22.5587ZM17.2004 40.7583C17.1408 40.7927 17.0764 40.8188 17.0088 40.8355C16.8855 40.8662 16.7564 40.8643 16.6339 40.83C16.5748 40.8135 16.5183 40.7899 16.4656 40.7596L15.5735 40.2785C10.7905 37.701 7.46292 34.4555 5.16941 31.1536C2.87473 27.8516 1.61091 24.4978 0.917638 21.6889C0.189798 18.7381 0.000257005 16.0845 0 14.1104C0.000257005 12.0337 0.209973 10.7092 0.232204 10.5747L0.232076 10.5753L0.425427 9.40587L0.427 9.39651C0.447163 9.28045 0.493556 9.17541 0.55907 9.08649C0.717953 8.87084 0.989291 8.74997 1.27166 8.79659C1.38712 8.81569 1.49184 8.86072 1.58084 8.92473C1.65743 8.97961 1.72439 9.04995 1.77652 9.13408C1.78948 9.15491 1.80142 9.1764 1.81227 9.19847L8.38 22.0149H25.436C25.514 22.0149 25.5891 22.027 25.6596 22.0495L25.7361 21.9064L31.847 9.20766C31.8502 9.20083 31.8536 9.19405 31.857 9.18733C31.9058 9.09203 31.9726 9.01172 32.0514 8.94862C32.1467 8.87192 32.2626 8.81799 32.3919 8.79659C32.4546 8.78623 32.5166 8.78412 32.5771 8.78945C32.6836 8.79885 32.7849 8.83137 32.8751 8.88267C33.0547 8.98481 33.19 9.1614 33.2333 9.37814C33.2354 9.38837 33.2372 9.39866 33.2388 9.40898L33.4315 10.5753V10.5749C33.4536 10.709 33.6635 12.0337 33.6636 14.1101C33.6635 16.0842 33.4737 18.7378 32.7458 21.6889C32.0527 24.4978 30.7889 27.8516 28.4942 31.1536C26.2007 34.4555 22.873 37.701 18.0901 40.2785L17.2004 40.7583ZM24.8915 23.4862H9.13399L16.8457 38.535L24.8915 23.4862ZM1.55751 11.9273L15.0745 38.3049C11.137 35.962 8.35609 33.1593 6.37746 30.314C4.20538 27.1888 3.00504 24.0071 2.34607 21.3365C1.65306 18.5277 1.47123 15.9902 1.47136 14.1104C1.47124 13.2222 1.51178 12.4807 1.55751 11.9273ZM56.6285 17.1373H45.2874C45.0849 17.1373 44.9111 17.2102 44.7658 17.3553C44.6203 17.5007 44.5477 17.6748 44.5477 17.877V26.9802C44.5477 27.1824 44.6203 27.3564 44.7658 27.5014C44.9111 27.6469 45.0849 27.7199 45.2874 27.7199H56.6285V29.2559H45.2874C44.655 29.2559 44.118 29.0347 43.6753 28.5923C43.2325 28.1496 43.0117 27.6126 43.0117 26.9802V17.877C43.0117 17.2449 43.2325 16.7075 43.6753 16.2649C44.118 15.8225 44.655 15.6013 45.2874 15.6013H56.6285V17.1373ZM77.9258 17.1373V15.6013H65.4658V29.2559H77.9258V27.7199H67.0018V23.2061H75.7825V21.6511H67.0018V17.1373H77.9258ZM89.0395 22.6179H98.1423C98.3446 22.6179 98.5154 22.5487 98.6547 22.4096C98.7936 22.2703 98.8631 22.0998 98.8631 21.8972V17.8957C98.8631 17.6935 98.7936 17.5199 98.6547 17.3741C98.5154 17.2289 98.3446 17.156 98.1423 17.156H89.0395C88.8369 17.156 88.6628 17.2289 88.5177 17.3741C88.3724 17.5199 88.2998 17.6935 88.2998 17.8957V21.8972C88.2998 22.0998 88.3724 22.2703 88.5177 22.4096C88.6628 22.5487 88.8369 22.6179 89.0395 22.6179ZM100.419 17.8958V21.8973C100.419 22.53 100.197 23.0671 99.7547 23.5095C99.312 23.9522 98.7749 24.1734 98.1426 24.1734H96.0567L100.343 29.2558H98.3135L94.0463 24.1734H89.0397C88.9259 24.1734 88.6793 24.1482 88.3 24.0973V29.2558H86.7637V15.6201H98.1426C98.7749 15.6201 99.312 15.8413 99.7547 16.2838C100.197 16.7267 100.419 17.2638 100.419 17.8958ZM122.228 15.6013H108.573V17.1373H114.642V29.2559H116.178V17.1373H122.228V15.6013ZM130.497 29.2559H132.033V15.6013H130.497V29.2559ZM154.506 15.6013H152.533L147.451 21.6511H143.051V15.6013H141.496V29.2559H143.051V23.2061H147.451L152.533 29.2559H154.525L148.798 22.4285L154.506 15.6013Z" fill="#6B73CA"/>
</svg>
