<?xml version="1.0" encoding="UTF-8"?>
<svg width="24px" height="24px" viewBox="0 0 24 24" version="1.1" xmlns="http://www.w3.org/2000/svg" xmlns:xlink="http://www.w3.org/1999/xlink">
    <title>行情-Dark</title>
    <defs>
        <polygon id="path-1" points="0 24 24 24 24 0 0 0"></polygon>
    </defs>
    <g id="组件/弹窗/导航" stroke="none" stroke-width="1" fill="none" fill-rule="evenodd">
        <g id="H5导航" transform="translate(-873.000000, -159.000000)">
            <g id="HECO-Dark默认" transform="translate(622.000000, 152.000000)">
                <g id="行情-Dark" transform="translate(225.000000, 0.000000)">
                    <g id="编组-46" transform="translate(26.000000, 7.000000)">
                        <mask id="mask-2" fill="white">
                            <use xlink:href="#path-1"></use>
                        </mask>
                        <g id="蒙版"></g>
                        <path d="M14.5,1.44337567 L19.8923048,4.55662433 C21.4393102,5.4497883 22.3923048,7.1004234 22.3923048,8.88675135 L22.3923048,15.1132487 C22.3923048,16.8995766 21.4393102,18.5502117 19.8923048,19.4433757 L14.5,22.5566243 C12.9529946,23.4497883 11.0470054,23.4497883 9.5,22.5566243 L4.10769515,19.4433757 C2.56068977,18.5502117 1.60769515,16.8995766 1.60769515,15.1132487 L1.60769515,8.88675135 C1.60769515,7.1004234 2.56068977,5.4497883 4.10769515,4.55662433 L9.5,1.44337567 C11.0470054,0.550211698 12.9529946,0.550211698 14.5,1.44337567 Z" id="多边形" fill="#3C424D" mask="url(#mask-2)"></path>
                        <path d="M19.3387628,7.81258744 L17.297,10.349 L17.2632527,10.3967143 L13.3456277,15.2437241 C13.0300143,15.634211 12.4797272,15.7257359 12.0585222,15.4757779 L11.9561207,15.4061495 L9.69597498,13.658 L7.33629711,16.6117569 C7.01040845,17.0196131 6.43188347,17.1036491 6.00647162,16.8237439 L5.91120233,16.7526717 L3.95616675,15.1075482 C3.53358782,14.7519565 3.47928397,14.1211245 3.83487572,13.6985456 C4.16311425,13.3084727 4.72587701,13.2321964 5.14288343,13.5024522 L5.24387838,13.5772545 L6.41297498,14.562 L8.74812568,11.6408884 C9.06280163,11.2470652 9.61540445,11.1535025 10.0383283,11.4042163 L10.1411448,11.4740927 L12.404975,13.225 L15.277,9.671 L15.2503642,9.65006995 L14.4694342,9.00695108 C13.9181894,8.54758044 14.0560006,8.04227276 14.7450565,7.90446156 L18.8334551,7.03165738 C19.5684481,6.89384618 19.7521964,7.21540563 19.3387628,7.81258744 Z" id="形状结合" fill="#1C2026" fill-rule="nonzero" mask="url(#mask-2)"></path>
                    </g>
                </g>
            </g>
        </g>
    </g>
</svg>