<?xml version="1.0" encoding="UTF-8"?>
<svg width="172px" height="43px" viewBox="0 0 172 43" version="1.1" xmlns="http://www.w3.org/2000/svg" xmlns:xlink="http://www.w3.org/1999/xlink">
    <title>coinwind</title>
    <defs>
        <linearGradient x1="0.00263157895%" y1="50.1192986%" x2="100.002632%" y2="49.880841%" id="coinwind_dask-1">
            <stop stop-color="#54B1F9" offset="0.05736451%"></stop>
            <stop stop-color="#2762E9" offset="100%"></stop>
        </linearGradient>
        <linearGradient x1="0.00381147699%" y1="50.0720261%" x2="100%" y2="50.0720261%" id="coinwind_dask-2">
            <stop stop-color="#54B1F9" offset="0.05736451%"></stop>
            <stop stop-color="#2762E9" offset="100%"></stop>
        </linearGradient>
        <linearGradient x1="-0.0114877751%" y1="50.1599803%" x2="100%" y2="50.1599803%" id="coinwind_dask-3">
            <stop stop-color="#54B1F9" offset="0.05736451%"></stop>
            <stop stop-color="#2762E9" offset="100%"></stop>
        </linearGradient>
        <linearGradient x1="19.9345455%" y1="50%" x2="100.004545%" y2="50%" id="coinwind_dask-4">
            <stop stop-color="#54B1F9" offset="0.05736451%"></stop>
            <stop stop-color="#2762E9" offset="100%"></stop>
        </linearGradient>
    </defs>
    <g id="HECO" stroke="none" stroke-width="1" fill="none" fill-rule="evenodd">
        <g id="合作伙伴" transform="translate(-2537.000000, -677.000000)">
            <g id="编组-2备份-3" transform="translate(1920.000000, 0.000000)">
                <g id="编组-8" transform="translate(360.000000, 100.000000)">
                    <g id="编组-7" transform="translate(0.000000, 411.000000)">
                        <g id="coinwind" transform="translate(257.000000, 166.000000)">
                            <rect id="矩形" x="0" y="0" width="172" height="43"></rect>
                            <g transform="translate(0.000000, 4.410256)">
                                <g id="编组-30" transform="translate(101.195338, 21.971096)" fill-rule="nonzero">
                                    <path d="M3.36783217,0 L27.1030303,0 C28.9633566,0 30.4708625,1.50750583 30.4708625,3.36783217 L30.4708625,3.36783217 C30.4708625,5.22815851 28.9633566,6.73566434 27.1030303,6.73566434 L3.36783217,6.73566434 C1.50750583,6.73566434 0,5.22815851 0,3.36783217 L0,3.36783217 C0,1.50750583 1.50750583,0 3.36783217,0 Z" id="矩形" fill="url(#coinwind_dask-1)"></path>
                                    <path d="M5.61305361,5.77342657 L5.61305361,4.33006993 L4.33006993,4.33006993 L4.33006993,5.77342657 L5.61305361,5.77342657 Z M8.03468531,5.77342657 L8.03468531,4.63477855 L10.7610256,4.63477855 C11.2742191,4.63477855 11.6430769,4.49044289 11.8515618,4.20177156 C12.0760839,3.94517483 12.1723077,3.49613054 12.1723077,2.88671329 C12.1723077,2.45370629 12.1081585,2.13296037 11.9958974,1.89240093 C11.8996737,1.6358042 11.7232634,1.44335664 11.482704,1.31505828 C11.3383683,1.25090909 11.161958,1.2027972 10.9374359,1.17072261 C10.7129138,1.12261072 10.4723543,1.10657343 10.2157576,1.13864802 L6.57529138,1.13864802 L6.57529138,5.77342657 L8.03468531,5.77342657 Z M10.0714219,3.52820513 L8.01864802,3.52820513 L8.01864802,2.24522145 L10.0714219,2.24522145 C10.2317949,2.24522145 10.3600932,2.29333333 10.456317,2.38955711 C10.5525408,2.48578089 10.6006527,2.64615385 10.6006527,2.8386014 C10.6006527,3.06312354 10.5525408,3.2234965 10.456317,3.33575758 C10.3761305,3.46405594 10.2478322,3.52820513 10.0714219,3.52820513 Z M14.4496037,5.77342657 L14.4496037,4.58666667 L16.5986014,4.58666667 C16.8231235,4.57062937 16.9834965,4.58666667 17.0797203,4.65081585 C17.2080186,4.71496503 17.2561305,4.8593007 17.2561305,5.08382284 L17.2561305,5.77342657 L18.7475991,5.77342657 L18.7475991,4.8432634 C18.7155245,4.60270396 18.6513753,4.41025641 18.5230769,4.23384615 C18.3787413,4.08951049 18.1862937,3.99328671 17.9778089,3.94517483 C18.2504429,3.88102564 18.4428904,3.73668998 18.5551515,3.51216783 C18.6674126,3.28764569 18.7315618,3.01501166 18.7315618,2.66219114 C18.7315618,2.06881119 18.5872261,1.65184149 18.2985548,1.41128205 C17.9778089,1.2027972 17.4806527,1.10657343 16.8070862,1.12261072 L12.9902098,1.12261072 L12.9902098,5.77342657 L14.4496037,5.77342657 L14.4496037,5.77342657 Z M16.8231235,3.52820513 L14.5939394,3.52820513 L14.5939394,2.40559441 L16.8231235,2.40559441 C17.0155711,2.40559441 17.1438695,2.437669 17.2080186,2.51785548 C17.2721678,2.61407925 17.3202797,2.75841492 17.3202797,2.93482517 C17.3202797,3.14331002 17.2882051,3.30368298 17.2080186,3.38386946 C17.1438695,3.48009324 17.0155711,3.52820513 16.8231235,3.52820513 Z M23.6550117,5.77342657 C24.0719814,5.77342657 24.4248019,5.74135198 24.7134732,5.69324009 C25.0021445,5.6611655 25.2587413,5.59701632 25.4832634,5.46871795 C25.6596737,5.32438228 25.7719347,5.13193473 25.8521212,4.89137529 C25.948345,4.65081585 25.9964569,4.36214452 25.9964569,4.02536131 L25.9964569,2.72634033 C25.9964569,2.35748252 25.948345,2.06881119 25.8521212,1.86032634 C25.7719347,1.6197669 25.6596737,1.44335664 25.4832634,1.31505828 C25.2908159,1.17072261 25.0502564,1.07449883 24.7615851,1.02638695 C24.4408392,0.946200466 24.0880186,0.93016317 23.671049,0.946200466 L21.9229837,0.946200466 C21.4899767,0.914125874 21.1211189,0.946200466 20.8324476,1.02638695 C20.5117016,1.07449883 20.2551049,1.17072261 20.0626573,1.31505828 C19.8702098,1.44335664 19.7419114,1.6197669 19.6617249,1.86032634 C19.5815385,2.10088578 19.5655012,2.4216317 19.5815385,2.80652681 L19.5815385,4.07347319 C19.5494639,4.41025641 19.5975758,4.68289044 19.6937995,4.90741259 C19.773986,5.14797203 19.8862471,5.34041958 20.0626573,5.48475524 C20.2871795,5.61305361 20.5437762,5.69324009 20.8324476,5.74135198 C21.1531935,5.77342657 21.506014,5.77342657 21.9229837,5.77342657 L23.6550117,5.77342657 L23.6550117,5.77342657 Z M23.2701166,4.65081585 L22.3880653,4.65081585 C21.9710956,4.65081585 21.6503497,4.58666667 21.4418648,4.47440559 C21.23338,4.33006993 21.1371562,4.10554779 21.1692308,3.78480186 L21.1692308,3.15934732 C21.1531935,2.75841492 21.23338,2.51785548 21.4097902,2.38955711 C21.6022378,2.27729604 21.9229837,2.22918415 22.3880653,2.24522145 L23.2701166,2.24522145 C23.7191608,2.22918415 24.0238695,2.26125874 24.216317,2.38955711 C24.4248019,2.50181818 24.5370629,2.74237762 24.5370629,3.12727273 L24.5370629,3.75272727 C24.5370629,4.12158508 24.4248019,4.36214452 24.216317,4.49044289 C24.0399068,4.58666667 23.7191608,4.65081585 23.2701166,4.65081585 Z" id="_x2E_PRO" fill="#FFFFFF"></path>
                                    <path d="M3.36783217,0 L27.1030303,0 C28.9633566,0 30.4708625,1.50750583 30.4708625,3.36783217 L30.4708625,3.36783217 C30.4708625,5.22815851 28.9633566,6.73566434 27.1030303,6.73566434 L3.36783217,6.73566434 C1.50750583,6.73566434 0,5.22815851 0,3.36783217 L0,3.36783217 C0,1.50750583 1.50750583,0 3.36783217,0 Z" id="矩形备份" fill="url(#coinwind_dask-1)"></path>
                                    <path d="M6.41491841,5.61305361 L6.41491841,3.84895105 L4.81118881,3.84895105 L4.81118881,5.61305361 L6.41491841,5.61305361 Z M9.14125874,6.73566434 L9.14125874,4.875338 C9.20540793,5.18004662 9.39785548,5.38853147 9.7025641,5.48475524 C10.02331,5.58097902 10.4723543,5.62909091 11.0657343,5.62909091 C11.8194872,5.62909091 12.3807925,5.50079254 12.7496503,5.2602331 C13.1185082,5.03571096 13.3109557,4.66685315 13.3109557,4.13762238 L13.3109557,2.72634033 C13.3109557,2.16503497 13.1185082,1.78013986 12.7496503,1.57165501 C12.4128671,1.34713287 11.8194872,1.26694639 11.0176224,1.29902098 C10.3921678,1.26694639 9.92708625,1.31505828 9.60634033,1.44335664 C9.28559441,1.57165501 9.14125874,1.79617716 9.14125874,2.13296037 L9.14125874,1.34713287 L7.53752914,1.34713287 L7.53752914,6.73566434 L9.14125874,6.73566434 Z M10.8732867,4.49044289 L10.1516084,4.49044289 C9.76671329,4.49044289 9.49407925,4.42629371 9.33370629,4.29799534 C9.17333333,4.16969697 9.10918415,3.96121212 9.14125874,3.68857809 L9.14125874,3.17538462 C9.10918415,2.88671329 9.17333333,2.69426573 9.33370629,2.56596737 C9.49407925,2.437669 9.76671329,2.38955711 10.1516084,2.4216317 L10.8732867,2.4216317 C11.1940326,2.38955711 11.4345921,2.437669 11.594965,2.56596737 C11.7874126,2.69426573 11.8836364,2.90275058 11.8836364,3.17538462 L11.8836364,3.73668998 C11.8836364,3.99328671 11.8034499,4.16969697 11.6430769,4.29799534 C11.4666667,4.42629371 11.2100699,4.49044289 10.8732867,4.49044289 Z M15.6684382,5.61305361 L15.6684382,3.33575758 C15.6684382,3.06312354 15.7486247,2.85463869 15.9089977,2.72634033 C16.1014452,2.59804196 16.3420047,2.53389277 16.6627506,2.53389277 C16.9514219,2.53389277 17.1599068,2.59804196 17.3202797,2.72634033 C17.4806527,2.85463869 17.5608392,3.03104895 17.5608392,3.28764569 L17.5608392,3.33575758 L18.8758974,3.33575758 L18.8758974,3.11123543 L18.8758974,3.11123543 C18.907972,3.04708625 18.9240093,2.98293706 18.9240093,2.91878788 C18.9240093,2.32540793 18.7796737,1.90843823 18.5070396,1.66787879 C18.2504429,1.39524476 17.8495105,1.26694639 17.2882051,1.29902098 C16.8872727,1.26694639 16.5504895,1.33109557 16.2938928,1.49146853 C16.037296,1.6197669 15.8448485,1.82825175 15.6844755,2.14899767 L15.6844755,1.36317016 L14.1128205,1.36317016 L14.1128205,5.61305361 L15.6684382,5.61305361 Z M23.4946387,5.61305361 C24.216317,5.61305361 24.7615851,5.48475524 25.1464802,5.2441958 C25.4993007,5.03571096 25.6596737,4.63477855 25.6596737,4.0413986 L25.6596737,2.88671329 C25.6596737,2.30937063 25.4832634,1.89240093 25.1464802,1.65184149 C24.7936597,1.37920746 24.2483916,1.25090909 23.4946387,1.28298368 L21.8909091,1.28298368 C21.073007,1.25090909 20.5117016,1.37920746 20.1909557,1.65184149 C19.8381352,1.89240093 19.6937995,2.30937063 19.7258741,2.88671329 L19.7258741,4.08951049 C19.6937995,4.63477855 19.8702098,5.01967366 20.2390676,5.2441958 C20.5918881,5.48475524 21.1371562,5.61305361 21.8909091,5.61305361 L23.4946387,5.61305361 Z M23.0455944,4.49044289 L22.3559907,4.49044289 C21.9871329,4.49044289 21.7305361,4.42629371 21.5701632,4.29799534 C21.3937529,4.16969697 21.3135664,3.99328671 21.345641,3.73668998 L21.345641,3.17538462 C21.3135664,2.87067599 21.3777156,2.64615385 21.5220513,2.53389277 C21.6824242,2.40559441 21.9550583,2.35748252 22.3559907,2.38955711 L23.0455944,2.38955711 C23.3823776,2.35748252 23.6229371,2.40559441 23.78331,2.53389277 C23.9597203,2.66219114 24.0559441,2.85463869 24.0559441,3.12727273 L24.0559441,3.72065268 C24.0559441,3.96121212 23.9597203,4.15365967 23.78331,4.28195804 C23.6229371,4.42629371 23.3823776,4.49044289 23.0455944,4.49044289 Z" id="_x2E_pro" fill="#FFFFFF"></path>
                                </g>
                                <path d="M49.5873193,17.9617716 C50.5655944,17.9617716 51.3674592,17.8976224 52.008951,17.7853613 C52.6985548,17.7212121 53.2758974,17.5608392 53.740979,17.2721678 C54.0937995,16.9193473 54.3503963,16.5184149 54.5107692,16.0533333 C54.7352914,15.5882517 54.8635897,15.0429837 54.8635897,14.4014918 L54.8635897,13.5354779 L54.8635897,13.5354779 L51.4155711,13.5354779 L51.4155711,13.6317016 C51.4155711,14.2731935 51.191049,14.7062005 50.7259674,14.9307226 C50.325035,15.1552448 49.6675058,15.2835431 48.7373427,15.2835431 L46.6685315,15.2835431 C45.6261072,15.2835431 44.9204662,15.1392075 44.5034965,14.8505361 C44.0384149,14.4977156 43.8459674,13.920373 43.8940793,13.1185082 L43.8940793,11.5468531 C43.8299301,10.5685781 44.0063403,9.92708625 44.4072727,9.63841492 C44.8082051,9.34974359 45.561958,9.23748252 46.6524942,9.28559441 L49.5071329,9.28559441 C50.0203263,9.28559441 50.4212587,9.36578089 50.7099301,9.54219114 C50.9986014,9.76671329 51.1750117,10.1195338 51.2231235,10.5846154 L51.2231235,10.6648019 L54.6711422,10.6648019 L54.6711422,10.0553846 L54.6711422,10.0553846 C54.6711422,9.36578089 54.5909557,8.75636364 54.4145455,8.24317016 C54.2381352,7.77808858 54.0136131,7.44130536 53.7249417,7.20074592 C53.2598601,6.84792541 52.6825175,6.62340326 51.9929138,6.51114219 C51.3674592,6.39888112 50.5495571,6.36680653 49.5712821,6.43095571 L45.6902564,6.43095571 C43.7978555,6.36680653 42.4346853,6.65547786 41.6328205,7.2969697 C40.7668065,7.93846154 40.3658741,9.10918415 40.4300233,10.8412121 L40.4300233,13.8722611 C40.3658741,14.626014 40.4620979,15.2514685 40.68662,15.7806993 C40.8630303,16.358042 41.1998135,16.8551981 41.7290443,17.2561305 C42.1941259,17.5448019 42.7393939,17.7532867 43.3648485,17.8655478 C43.990303,17.929697 44.7761305,17.9457343 45.6902564,17.9457343 L49.5873193,17.9457343 L49.5873193,17.9617716 Z M63.058648,17.9617716 C64.3897436,17.9617716 65.4000932,17.7372494 66.089697,17.2721678 C66.7311888,16.8712354 67.0358974,16.1174825 67.0358974,15.0109091 L67.0358974,12.8298368 C67.0358974,11.7232634 66.7151515,10.9534732 66.089697,10.4883916 C65.4482051,9.95916084 64.4538928,9.73463869 63.058648,9.79878788 L60.1238228,9.79878788 C58.6323543,9.73463869 57.5899301,9.97519814 57.0125874,10.4883916 C56.3710956,10.9534732 56.0824242,11.7393007 56.1465734,12.8298368 L56.1465734,15.0910956 C56.0824242,16.1335198 56.4031702,16.8551981 57.0927739,17.2561305 C57.7342657,17.7212121 58.7285781,17.9457343 60.1238228,17.9457343 L63.058648,17.9457343 L63.058648,17.9617716 Z M62.2407459,15.7165501 L60.9417249,15.7165501 C60.2521212,15.7165501 59.754965,15.604289 59.4662937,15.3797669 C59.1134732,15.1552448 58.9691375,14.8184615 59.0332867,14.35338 L59.0332867,13.326993 C58.9691375,12.7656876 59.0974359,12.3647552 59.3861072,12.1402331 C59.6747786,11.915711 60.187972,11.8355245 60.9417249,11.8836364 L62.2407459,11.8836364 C62.8822378,11.8194872 63.3473193,11.915711 63.6359907,12.1402331 C63.9888112,12.3647552 64.1491841,12.7336131 64.1491841,13.2468065 L64.1491841,14.35338 C64.1491841,14.8024242 63.9727739,15.1552448 63.6359907,15.3797669 C63.3473193,15.604289 62.8822378,15.7165501 62.2407459,15.7165501 Z M71.0452214,8.98088578 L71.0452214,6.57529138 L68.1585082,6.57529138 L68.1585082,8.98088578 L71.0452214,8.98088578 Z M71.0452214,17.8013986 L71.0452214,9.78275058 L68.1585082,9.78275058 L68.1585082,17.8013986 L71.0452214,17.8013986 Z M75.1186946,17.8013986 L75.1186946,13.9845221 C75.0545455,13.2949184 75.1988811,12.7977622 75.5517016,12.5090909 C75.9045221,12.1562704 76.5139394,12.0119347 77.3799534,12.0760839 C78.3101166,12.0119347 78.9195338,12.1402331 79.2082051,12.4289044 C79.5610256,12.7175758 79.7213986,13.1826573 79.7213986,13.8241492 L79.7213986,17.8013986 L82.5920746,17.8013986 L82.5920746,12.6694639 C82.5920746,11.6911888 82.2392541,10.9534732 81.5496503,10.4883916 C80.9081585,10.02331 79.961958,9.79878788 78.6789744,9.79878788 C77.8129604,9.73463869 77.0912821,9.79878788 76.5139394,9.97519814 C75.8724476,10.1516084 75.407366,10.5204662 75.1186946,11.0978089 L75.1186946,9.87897436 L72.1678322,9.87897436 L72.1678322,17.8013986 L75.1186946,17.8013986 Z M91.1239161,17.8013986 L93.8181818,10.1195338 L96.4322611,17.8013986 L100.345361,17.8013986 L104.082051,6.57529138 L100.682145,6.57529138 L98.164289,14.6099767 L95.3898368,6.57529138 L92.2625641,6.57529138 L89.3117016,14.6099767 L86.9542191,6.57529138 L83.5543124,6.57529138 L87.1145921,17.8013986 L91.1239161,17.8013986 Z M108.091375,8.98088578 L108.091375,6.57529138 L105.204662,6.57529138 L105.204662,8.98088578 L108.091375,8.98088578 Z M108.091375,17.8013986 L108.091375,9.78275058 L105.204662,9.78275058 L105.204662,17.8013986 L108.091375,17.8013986 Z M112.164848,17.8013986 L112.164848,13.9845221 C112.100699,13.2949184 112.245035,12.7977622 112.597855,12.5090909 C112.950676,12.1562704 113.560093,12.0119347 114.426107,12.0760839 C115.35627,12.0119347 115.965688,12.1402331 116.254359,12.4289044 C116.607179,12.7175758 116.767552,13.1826573 116.767552,13.8241492 L116.767552,17.8013986 L119.638228,17.8013986 L119.638228,12.6694639 C119.638228,11.6911888 119.285408,10.9534732 118.595804,10.4883916 C117.954312,10.02331 117.008112,9.79878788 115.725128,9.79878788 C114.859114,9.73463869 114.137436,9.79878788 113.560093,9.97519814 C112.918601,10.1516084 112.45352,10.5204662 112.164848,11.0978089 L112.164848,9.87897436 L109.213986,9.87897436 L109.213986,17.8013986 L112.164848,17.8013986 Z M125.042797,17.9617716 C126.21352,17.9617716 127.079534,17.8815851 127.656876,17.7051748 C128.234219,17.4806527 128.554965,17.063683 128.619114,16.4863403 L128.619114,17.8815851 L131.505828,17.8815851 L131.505828,6.57529138 L128.619114,6.57529138 L128.619114,11.3544056 C128.442704,10.7129138 128.073846,10.3119814 127.480466,10.1355711 C126.903124,9.91104895 126.053147,9.81482517 124.946573,9.87897436 C123.439068,9.81482517 122.364569,10.02331 121.723077,10.4883916 C121.017436,10.889324 120.69669,11.6110023 120.760839,12.6534266 L120.760839,15.3476923 C120.69669,16.3259674 121.017436,17.0316084 121.723077,17.4325408 C122.364569,17.7853613 123.471142,17.9617716 125.042797,17.9617716 Z M126.951235,15.7165501 L125.652214,15.7165501 C124.962611,15.7165501 124.465455,15.604289 124.176783,15.3797669 C123.888112,15.1552448 123.775851,14.8184615 123.823963,14.35338 L123.823963,13.326993 C123.759814,12.8137995 123.888112,12.4770163 124.176783,12.3006061 C124.465455,12.0760839 124.962611,11.9798601 125.652214,12.0440093 L126.951235,12.0440093 C127.592727,11.9798601 128.057809,12.0760839 128.34648,12.3006061 C128.635152,12.5251282 128.779487,12.893986 128.779487,13.4071795 L128.779487,14.35338 C128.779487,14.8024242 128.603077,15.1552448 128.250256,15.3797669 C127.961585,15.604289 127.528578,15.7165501 126.951235,15.7165501 Z" id="CoinWind" fill="url(#coinwind_dask-2)" fill-rule="nonzero"></path>
                                <path d="M46.1232634,29.0275058 C46.7326807,29.0275058 47.2298368,28.9954312 47.6307692,28.9152448 C48.0637762,28.8831702 48.4165967,28.7709091 48.7052681,28.5944988 C48.9137529,28.3699767 49.0741259,28.1294172 49.1863869,27.8407459 C49.3307226,27.5520746 49.3948718,27.2152914 49.3948718,26.814359 L49.3948718,26.2690909 L49.3948718,26.2690909 L47.2458741,26.2690909 L47.2458741,26.3172028 C47.2458741,26.7181352 47.1015385,26.9907692 46.8128671,27.1351049 C46.5562704,27.2794406 46.155338,27.359627 45.5779953,27.359627 L44.2950117,27.359627 C43.6535198,27.359627 43.2044755,27.2634033 42.9478788,27.086993 C42.6592075,26.8624709 42.5309091,26.5096503 42.579021,25.9964569 L42.579021,25.0181818 C42.5469464,24.4087646 42.6431702,24.0078322 42.8997669,23.8314219 C43.1563636,23.6550117 43.6214452,23.5748252 44.2950117,23.6068998 L46.0751515,23.6068998 C46.3958974,23.6068998 46.6524942,23.6550117 46.8289044,23.7672727 C47.0053147,23.9116084 47.1175758,24.1200932 47.1496503,24.4248019 L47.1496503,24.4729138 L49.298648,24.4729138 L49.298648,24.0880186 L49.298648,24.0880186 C49.298648,23.6550117 49.2505361,23.2701166 49.1382751,22.9493706 C49.026014,22.6606993 48.8816783,22.4522145 48.7052681,22.2918415 C48.4165967,22.0833566 48.0637762,21.939021 47.6307692,21.8588345 C47.2298368,21.7946853 46.7326807,21.7626107 46.1232634,21.8107226 L43.7016317,21.8107226 C42.5148718,21.778648 41.6809324,21.9550583 41.1837762,22.3559907 C40.6545455,22.7569231 40.3979487,23.4946387 40.4300233,24.5691375 L40.4300233,26.4615385 C40.3979487,26.92662 40.4460606,27.3275524 40.5903963,27.6482984 C40.7026573,28.0011189 40.9111422,28.3218648 41.2318881,28.5624242 C41.5205594,28.7388345 41.8573427,28.8671329 42.2582751,28.9473193 C42.6592075,28.9793939 43.1403263,28.9954312 43.7016317,28.9954312 L46.1232634,28.9954312 L46.1232634,29.0275058 Z M54.5749184,29.0275058 C55.4088578,29.0275058 56.0503497,28.8831702 56.4833566,28.5944988 C56.884289,28.3379021 57.0927739,27.8728205 57.0927739,27.1832168 L57.0927739,25.8200466 C57.0927739,25.1304429 56.884289,24.6332867 56.4833566,24.3446154 C56.0824242,24.0238695 55.4409324,23.8795338 54.5749184,23.9116084 L52.7145921,23.9116084 C51.7683916,23.8795338 51.1108625,24.0238695 50.7420047,24.3446154 C50.3410723,24.6332867 50.164662,25.1304429 50.1967366,25.8200466 L50.1967366,27.2313287 C50.164662,27.8888578 50.3571096,28.3379021 50.8061538,28.5944988 C51.2070862,28.8831702 51.8485781,29.0275058 52.7145921,29.0275058 L54.5749184,29.0275058 Z M54.1419114,27.5841492 L53.3240093,27.5841492 C52.8910023,27.5841492 52.5862937,27.52 52.4098834,27.3756643 C52.1853613,27.2313287 52.1051748,27.0228438 52.1372494,26.7341725 L52.1372494,26.0926807 C52.1051748,25.7398601 52.169324,25.4832634 52.3617716,25.354965 C52.5542191,25.2266667 52.874965,25.1625175 53.3400466,25.1945921 L54.1579487,25.1945921 C54.5588811,25.1625175 54.8475524,25.2106294 55.0239627,25.354965 C55.2484848,25.4993007 55.3447086,25.7238228 55.3447086,26.0445688 L55.3447086,26.7341725 C55.3447086,27.0228438 55.2324476,27.2313287 55.0239627,27.3756643 C54.8154779,27.52 54.5268065,27.5841492 54.1419114,27.5841492 Z M59.4983683,23.4144522 L59.4983683,21.9710956 L57.7342657,21.9710956 L57.7342657,23.4144522 L59.4983683,23.4144522 Z M59.4983683,28.8671329 L59.4983683,23.8955711 L57.7342657,23.8955711 L57.7342657,28.8671329 L59.4983683,28.8671329 Z M62.1605594,28.8671329 L62.1605594,26.4936131 C62.1284848,26.0606061 62.2086713,25.7558974 62.4331935,25.5794872 C62.6577156,25.3710023 63.0426107,25.2747786 63.5878788,25.3068531 C64.1652214,25.2747786 64.5501166,25.3389277 64.7425641,25.515338 C64.9670862,25.6917483 65.0793473,25.9804196 65.0793473,26.381352 L65.0793473,28.8671329 L66.8755245,28.8671329 L66.8755245,25.6917483 C66.8755245,25.082331 66.6510023,24.6332867 66.2179953,24.3446154 C65.8170629,24.0559441 65.2076457,23.9116084 64.4057809,23.9116084 C63.8605128,23.8795338 63.3954312,23.9116084 63.0426107,24.0238695 C62.6416783,24.1361305 62.353007,24.3606527 62.1605594,24.7295105 L62.1605594,23.9757576 L60.3002331,23.9757576 L60.3002331,28.8671329 L62.1605594,28.8671329 Z M72.0876457,29.0275058 L73.7715618,24.2002797 L75.407366,29.0275058 L77.8610723,29.0275058 L80.2025175,21.9710956 L78.0855944,21.9710956 L76.5139394,27.0228438 L74.7498368,21.9710956 L72.7932867,21.9710956 L70.9489977,27.0228438 L69.4735664,21.9710956 L67.3566434,21.9710956 L69.5858275,29.0275058 L72.0876457,29.0275058 Z M82.7524476,23.4144522 L82.7524476,21.9710956 L80.988345,21.9710956 L80.988345,23.4144522 L82.7524476,23.4144522 Z M82.7524476,28.8671329 L82.7524476,23.8955711 L80.988345,23.8955711 L80.988345,28.8671329 L82.7524476,28.8671329 Z M85.2542657,28.8671329 L85.2542657,26.4936131 C85.2221911,26.0606061 85.3023776,25.7558974 85.5268998,25.5794872 C85.7514219,25.3710023 86.136317,25.2747786 86.6815851,25.3068531 C87.2589277,25.2747786 87.6438228,25.3389277 87.8362704,25.515338 C88.0607925,25.6917483 88.1570163,25.9804196 88.1570163,26.381352 L88.1570163,28.8671329 L89.9692308,28.8671329 L89.9692308,25.6917483 C89.9692308,25.082331 89.7447086,24.6332867 89.3117016,24.3446154 C88.9107692,24.0559441 88.301352,23.9116084 87.4994872,23.9116084 C86.9542191,23.8795338 86.4891375,23.9116084 86.136317,24.0238695 C85.7353846,24.1361305 85.4467133,24.3606527 85.2542657,24.7295105 L85.2542657,23.9757576 L83.3939394,23.9757576 L83.3939394,28.8671329 L85.2542657,28.8671329 Z M93.288951,29.0275058 C94.0106294,29.0275058 94.5719347,28.9793939 94.9247552,28.8671329 C95.2936131,28.7227972 95.4860606,28.4662005 95.5341725,28.11338 L95.5341725,28.9793939 L97.3463869,28.9793939 L97.3463869,21.9710956 L95.5341725,21.9710956 L95.5341725,24.9379953 C95.4219114,24.5370629 95.181352,24.2965035 94.8285315,24.1842424 C94.4596737,24.0399068 93.9304429,23.9917949 93.2408392,24.0238695 C92.2946387,23.9917949 91.6210723,24.1200932 91.2201399,24.4087646 C90.7871329,24.6653613 90.578648,25.1144056 90.6107226,25.7558974 L90.6107226,27.4237762 C90.578648,28.0331935 90.7710956,28.4662005 91.2201399,28.7227972 C91.6210723,28.9152448 92.310676,29.0275058 93.288951,29.0275058 Z M94.4596737,27.5841492 L93.6578089,27.5841492 C93.2248019,27.5841492 92.9361305,27.52 92.743683,27.3756643 C92.5512354,27.2313287 92.4870862,27.0228438 92.5351981,26.7502098 L92.5351981,26.1247552 C92.5031235,25.8200466 92.5672727,25.6115618 92.743683,25.4993007 C92.9200932,25.354965 93.2248019,25.3068531 93.6578089,25.3389277 L94.4596737,25.3389277 C94.8445688,25.3068531 95.1332401,25.354965 95.3096503,25.4993007 C95.4860606,25.6436364 95.5822844,25.8681585 95.5822844,26.1728671 L95.5822844,26.7502098 C95.5822844,27.0228438 95.4700233,27.2313287 95.2615385,27.3756643 C95.0851282,27.52 94.8124942,27.5841492 94.4596737,27.5841492 Z" id="CoinWind备份-10" fill="url(#coinwind_dask-3)" fill-rule="nonzero"></path>
                                <ellipse id="椭圆形" fill="#FFFFFF" cx="17.6410256" cy="17.6410256" rx="16.358042" ry="16.5184149"></ellipse>
                                <path d="M17.6410256,0 C27.3917016,0 35.2820513,7.89034965 35.2820513,17.6410256 C35.2820513,27.3917016 27.3917016,35.2820513 17.6410256,35.2820513 C7.89034965,35.2820513 0,27.3917016 0,17.6410256 C0,7.89034965 7.89034965,0 17.6410256,0 Z M17.6410256,2.08484848 C9.04503497,2.08484848 2.08484848,9.04503497 2.08484848,17.6410256 C2.08484848,26.2370163 9.04503497,33.1972028 17.6410256,33.1972028 C26.2370163,33.1972028 33.1972028,26.2370163 33.1972028,17.6410256 C33.1972028,9.04503497 26.2370163,2.08484848 17.6410256,2.08484848 Z M17.6410256,3.04708625 C25.7077855,3.04708625 32.234965,9.57426573 32.234965,17.6410256 C32.234965,25.7077855 25.7077855,32.234965 17.6410256,32.234965 C9.57426573,32.234965 3.04708625,25.7077855 3.04708625,17.6410256 C3.04708625,9.57426573 9.57426573,3.04708625 17.6410256,3.04708625 Z M17.6249883,9.14125874 L13.5034033,17.3683916 L11.9958974,14.1769697 L8.4997669,15.8288112 L13.3911422,26.1889044 L17.6249883,17.7372494 L21.8588345,26.1889044 L26.7502098,15.8288112 L23.2540793,14.1769697 L21.7465734,17.3683916 L17.6249883,9.14125874 Z" id="形状结合" fill="url(#coinwind_dask-4)" fill-rule="nonzero"></path>
                            </g>
                        </g>
                    </g>
                </g>
            </g>
        </g>
    </g>
</svg>