<svg width="180" height="44" viewBox="0 0 180 44" fill="none" xmlns="http://www.w3.org/2000/svg">
<path fill-rule="evenodd" clip-rule="evenodd" d="M25.1917 24.7129C24.6802 25.0396 24.0777 25.0801 23.6198 24.8192C23.0381 24.4874 22.7183 23.7105 22.7183 22.6301V19.3973C22.7183 17.8363 22.1073 16.7254 21.0856 16.4255C19.3541 15.916 18.0519 18.056 17.5625 18.8596L14.5088 23.8609V17.7481C14.4745 16.3417 14.0223 15.5004 13.1637 15.2468C12.5956 15.0791 11.7456 15.1463 10.9199 16.4226L4.07842 27.5193C3.1625 25.7629 2.68504 23.8072 2.68751 21.8221C2.68751 15.1376 7.9907 9.6999 14.5088 9.6999C21.0269 9.6999 26.3294 15.1376 26.3294 21.8221C26.3294 21.8336 26.3322 21.8437 26.3329 21.8546C26.3329 21.8661 26.3308 21.8763 26.3315 21.8878C26.393 23.1822 25.9781 24.2121 25.1917 24.7137V24.7129ZM29.0186 21.8502V21.8495V21.8161L29.0178 21.7828C28.9812 13.6236 22.4877 7 14.5089 7C6.50933 7 0 13.6613 0 21.8495C0 30.0369 6.50933 36.6989 14.5096 36.6989C18.1807 36.6989 21.6843 35.2922 24.3739 32.7388C24.9085 32.2318 24.9401 31.3777 24.4443 30.8316C24.2085 30.5695 23.8781 30.4142 23.5274 30.4005C23.1768 30.3869 22.8354 30.5162 22.5804 30.7591C20.4004 32.8402 17.512 33.9998 14.5096 33.9992C11.0046 33.9992 7.85085 32.4353 5.67581 29.9551L11.8718 19.9255V24.5492C11.8718 26.7701 12.7262 27.4879 13.4426 27.698C14.1597 27.908 15.2555 27.7646 16.4059 25.8813L19.814 20.3116C19.9232 20.132 20.0238 19.977 20.1157 19.843V22.6593C20.1157 24.7353 20.9406 26.3956 22.3785 27.2134C23.6747 27.9508 25.3044 27.8841 26.6323 27.0395C28.2418 26.0146 29.1091 24.1261 29.0186 21.8502ZM49.3494 16.8256C49.7022 17.0433 50.0078 17.5275 50.0078 17.9636C50.0078 18.6654 49.42 19.2462 48.7616 19.2462C48.5972 19.2462 48.4328 19.1983 48.2917 19.1496C47.5155 18.5688 46.5283 18.1813 45.4938 18.1813C43.0495 18.1813 41.3567 20.2145 41.3567 22.7318C41.3567 25.2498 43.0495 27.2586 45.4938 27.2586C46.716 27.2586 47.7977 26.7501 48.6205 25.9759C48.833 25.8209 49.0876 25.7364 49.3494 25.7339C50.0078 25.7339 50.525 26.266 50.525 26.9442C50.525 27.3796 50.266 27.767 49.9372 27.9848C48.7616 29.0017 47.1634 29.6792 45.5178 29.6792C41.7568 29.6792 38.7 26.5324 38.7 22.6594C38.7 18.7865 41.7561 15.6397 45.5178 15.6397C46.9284 15.6397 48.2677 16.0751 49.3494 16.8256ZM55.9946 19.4195C58.5665 19.4195 60.7375 21.577 60.7375 24.2317C60.7375 26.8871 58.5665 29.1392 55.9946 29.1392C53.3043 29.1392 51.0625 26.8871 51.0625 24.2317C51.0625 21.577 53.3043 19.4195 55.9946 19.4195ZM55.9701 26.9793C57.0925 26.9793 58.05 25.9125 58.05 24.4662C58.05 23.0207 57.0925 22.1194 55.9701 22.1194C54.7552 22.1194 53.75 22.9969 53.75 24.4662C53.75 25.9125 54.7552 26.9793 55.9701 26.9793ZM62.3496 27.7537V20.8048C62.3496 20.0514 62.9442 19.4194 63.6816 19.4194C64.419 19.4194 65.0371 20.0514 65.0371 20.8048V27.7537C65.0371 28.5072 64.419 29.1391 63.6816 29.1391C62.9442 29.1391 62.3496 28.5072 62.3496 27.7537ZM62.3496 17.2843C62.3496 16.3759 63.0574 15.6396 63.9375 15.6396C64.8411 15.6396 65.5746 16.3759 65.5746 17.2843C65.5746 18.1672 64.8411 18.8795 63.9375 18.8795C63.0574 18.8795 62.3496 18.1672 62.3496 17.2843ZM70.3237 24.051V27.7708C70.3237 28.515 69.7261 29.1391 69.0124 29.1391C68.3002 29.1391 67.7246 28.515 67.7246 27.7708V20.5952C67.7246 20.0194 68.185 19.5394 68.7371 19.5394C69.2885 19.5394 69.7261 20.0194 69.7261 20.5952C70.7834 19.5877 71.7027 19.4194 72.5764 19.4194C75.1748 19.4194 76.3246 21.4352 76.3246 23.7151V27.7708C76.3246 28.515 75.7269 29.1391 75.014 29.1391C74.3011 29.1391 73.7262 28.515 73.7262 27.7708V24.051C73.7262 22.8752 73.5882 21.8911 71.9559 21.8911C70.8062 21.8911 70.323 22.8752 70.323 24.051H70.3237ZM84.9484 25.5031C84.6413 25.5031 84.4293 25.3603 84.2633 25.1698L81.1445 21.8192V27.7841C81.1445 28.5211 80.5304 29.1392 79.7979 29.1392C79.0653 29.1392 78.4746 28.5211 78.4746 27.7841V15.973C78.5529 15.7692 78.7517 15.6359 78.9717 15.6397C79.2072 15.6397 79.3958 15.8303 79.5383 15.973L84.4995 21.5105C84.6413 21.6772 84.8299 21.7721 84.925 21.7721C85.0193 21.7721 85.2079 21.6772 85.3497 21.5112L90.3116 15.973C90.4534 15.8303 90.6421 15.6397 90.8782 15.6397C91.1143 15.6397 91.3037 15.7825 91.3746 15.973V27.7841C91.3746 28.5211 90.7839 29.1392 90.0513 29.1392C89.3188 29.1392 88.7047 28.5211 88.7047 27.7841V21.8192L85.5866 25.1698C85.4207 25.3603 85.2079 25.5031 84.9484 25.5031ZM97.7787 26.9793C98.9705 26.9793 99.975 25.9229 99.975 24.4907C99.975 23.0592 98.9474 22.1194 97.7787 22.1194C96.6101 22.1194 95.675 23.0821 95.675 24.4907C95.675 25.8756 96.6101 26.9793 97.7787 26.9793ZM100.611 27.9777L100.562 27.6691C100.044 28.6882 98.3913 29.1392 97.3295 29.1392C94.8277 29.1392 92.9875 26.8871 92.9875 24.2317C92.9875 21.577 94.8752 19.4195 97.4712 19.4195C97.9196 19.4195 99.4063 19.5381 100.562 20.8896L100.61 20.581C100.61 20.0122 101.058 19.5381 101.625 19.5381C102.191 19.5381 102.663 20.0122 102.663 20.581V27.9777C102.663 28.5465 102.191 29.0207 101.624 29.0207C101.058 29.0207 100.609 28.5465 100.609 27.9777H100.611ZM109.57 21.8912H109.298C107.69 21.9877 107.373 22.9477 107.373 24.0511V27.771C107.373 28.5151 106.784 29.1392 106.081 29.1392C105.379 29.1392 104.812 28.5151 104.812 27.771V20.5954C104.812 20.0195 105.265 19.5395 105.809 19.5395C106.353 19.5395 106.784 20.0195 106.784 20.5954C107.735 19.6595 108.506 19.4678 109.298 19.4195H109.547C110.159 19.4195 110.725 19.9712 110.725 20.6678C110.725 21.3153 110.182 21.8912 109.57 21.8912ZM119.677 27.1668C119.793 27.3567 119.863 27.5704 119.863 27.8081C119.863 28.4972 119.238 29.1392 118.569 29.1392C118.107 29.1392 117.714 28.7827 117.414 28.4023L114.411 24.8611V27.7842C114.411 28.5211 113.81 29.1392 113.094 29.1392C112.378 29.1392 111.8 28.5211 111.8 27.7842V16.9947C111.8 16.2571 112.378 15.6397 113.094 15.6397C113.81 15.6397 114.411 16.2571 114.411 16.9947V23.7206L117.414 20.3453C117.714 19.9888 118.083 19.6323 118.546 19.6323C119.193 19.6323 119.793 20.2504 119.793 20.9395C119.793 21.1533 119.747 21.367 119.631 21.5576L117.252 24.1952L119.677 27.1661V27.1668ZM124.958 22.1191C124.242 22.1191 123.088 22.5308 123.088 23.7391H126.85C126.85 22.5049 125.65 22.1191 124.957 22.1191H124.958ZM128.499 25.0851H123.092C123.092 26.6738 124.626 26.9108 125.311 26.9108C125.808 26.9108 126.516 26.8161 127.059 26.5784C127.224 26.4605 127.507 26.3651 127.743 26.3651C128.334 26.3651 128.829 26.8638 128.829 27.4565C128.829 27.8591 128.57 28.2147 128.24 28.404C127.413 28.9967 126.35 29.1391 125.335 29.1391C122.643 29.1391 120.4 27.6936 120.4 24.3501C120.4 21.7192 121.77 19.4194 124.957 19.4194C127.531 19.4194 129.49 21.0789 129.538 24.0422C129.538 24.611 129.066 25.0851 128.499 25.0851ZM135.887 29.1392H135.157C133.133 29.1392 131.957 28.2672 131.957 25.1342V21.9064H131.275C130.639 21.9064 130.075 21.3412 130.075 20.7055C130.075 20.0217 130.639 19.4802 131.275 19.4802H131.957V16.9828C131.957 16.2524 132.545 15.6397 133.275 15.6397C134.004 15.6397 134.616 16.2524 134.616 16.9828V19.4802H135.721C136.357 19.4802 136.922 20.0217 136.922 20.7055C136.922 21.3412 136.357 21.9064 135.721 21.9064H134.616V24.6157C134.616 26.4063 134.71 26.7833 135.51 26.7833H135.887C136.522 26.7833 137.062 27.3019 137.062 27.9613C137.062 28.5976 136.522 29.1392 135.887 29.1392ZM148.788 16.8256C149.14 17.0433 149.446 17.5275 149.446 17.9636C149.446 18.6654 148.858 19.2462 148.2 19.2462C148.035 19.2462 147.87 19.1983 147.73 19.1496C146.954 18.5688 145.966 18.1813 144.932 18.1813C142.487 18.1813 140.794 20.2145 140.794 22.7318C140.794 25.2498 142.487 27.2586 144.932 27.2586C146.154 27.2586 147.236 26.7501 148.059 25.9759C148.271 25.8209 148.526 25.7364 148.788 25.7339C149.446 25.7339 149.962 26.266 149.962 26.9442C149.962 27.3796 149.704 27.767 149.375 27.9848C148.2 29.0017 146.601 29.6792 144.955 29.6792C141.194 29.6792 138.137 26.5324 138.137 22.6594C138.137 18.7865 141.193 15.6397 144.955 15.6397C146.366 15.6397 147.706 16.0751 148.788 16.8256ZM155.291 26.9793C156.483 26.9793 157.488 25.9229 157.488 24.4907C157.488 23.0592 156.459 22.1194 155.29 22.1194C154.123 22.1194 153.188 23.0821 153.188 24.4907C153.188 25.8756 154.123 26.9793 155.29 26.9793H155.291ZM158.122 27.9777L158.075 27.6691C157.556 28.6882 155.904 29.1392 154.842 29.1392C152.341 29.1392 150.5 26.8871 150.5 24.2317C150.5 21.577 152.388 19.4195 154.983 19.4195C155.432 19.4195 156.918 19.5381 158.075 20.8896L158.122 20.581C158.122 20.0122 158.57 19.5381 159.137 19.5381C159.703 19.5381 160.175 20.0122 160.175 20.581V27.9777C160.175 28.5465 159.703 29.0207 159.137 29.0207C158.57 29.0207 158.122 28.5465 158.122 27.9777ZM167.21 26.9793C168.378 26.9793 169.312 25.8756 169.312 24.4907C169.312 23.0821 168.378 22.1194 167.21 22.1194C166.041 22.1194 165.012 23.0585 165.012 24.4907C165.012 25.9229 166.018 26.9793 167.21 26.9793ZM164.992 28.7953V32.1229C164.992 32.8496 164.378 33.459 163.647 33.459C162.916 33.459 162.325 32.8496 162.325 32.1229V21.1078C162.325 20.5454 162.797 20.0767 163.364 20.0767C163.93 20.0767 164.379 20.5454 164.379 21.2014C165.369 20.1939 166.597 19.9595 167.517 19.9595C170.112 19.9595 172 22.0924 172 24.7168C172 27.342 170.16 29.5685 167.658 29.5685C166.88 29.5685 165.723 29.3341 164.992 28.7953Z" fill="white"/>
</svg>
