<?xml version="1.0" encoding="UTF-8"?>
<svg width="172px" height="43px" viewBox="0 0 172 43" version="1.1" xmlns="http://www.w3.org/2000/svg" xmlns:xlink="http://www.w3.org/1999/xlink">
    <title>coinmarketcap</title>
    <g id="HECO" stroke="none" stroke-width="1" fill="none" fill-rule="evenodd">
        <g id="合作伙伴" transform="translate(-2280.000000, -1414.000000)">
            <g id="编组-2备份-4" transform="translate(1920.000000, 903.000000)">
                <g id="编组-8" transform="translate(360.000000, 100.000000)">
                    <g id="coinmarketcap" transform="translate(0.000000, 411.000000)">
                        <rect id="矩形" x="0" y="0" width="172" height="43"></rect>
                        <path d="M25.1917405,24.3283214 C24.6801669,24.6549902 24.0777263,24.6954625 23.6198143,24.434561 C23.0381229,24.1028332 22.7182999,23.3259106 22.7182999,22.2454462 L22.7182999,19.0127255 C22.7182999,17.4516532 22.1072735,16.3408346 21.0855573,16.0409064 C19.3540773,15.5313897 18.0518899,17.6713597 17.5624964,18.4750228 L14.5087954,23.4762361 L14.5087954,17.3634815 C14.474452,15.957071 14.0222638,15.1158265 13.1636787,14.8621522 C12.5955816,14.6944815 11.7455823,14.7616943 10.9199097,16.0380155 L4.07841739,27.134638 C3.16250486,25.3782801 2.68503995,23.4225726 2.6875,21.4374467 C2.6875,14.7530217 7.9907035,9.31528638 14.5087954,9.31528638 C21.0268873,9.31528638 26.3293657,14.7530217 26.3293657,21.4374467 C26.3293657,21.4490102 26.3322277,21.4591283 26.3329432,21.469969 C26.3329432,21.4815325 26.3307967,21.4916506 26.3315122,21.5032141 C26.3930441,22.7976032 25.9780613,23.8274773 25.1917405,24.3290441 L25.1917405,24.3283214 Z M29.0185586,21.4655687 L29.0185586,21.4648443 L29.0185586,21.4315236 L29.0178401,21.3982028 C28.9811941,13.238968 22.4876764,6.61538462 14.50892,6.61538462 C6.50932581,6.61538462 0,13.2766349 0,21.4648443 C0,29.6523293 6.50932581,36.314304 14.5096386,36.314304 C18.1807,36.314304 21.6843398,34.9075893 24.3738647,32.3542066 C24.9084644,31.8471519 24.9400805,30.9931269 24.4442824,30.4469565 C24.2085466,30.1848979 23.878088,30.0295381 23.5274244,30.0159104 C23.1767607,30.0022827 22.8354183,30.1315346 22.5803691,30.3745201 C20.400352,32.4556002 17.511988,33.6151643 14.5096386,33.6145998 C11.0045617,33.6145998 7.85085482,32.0506981 5.67581019,29.5704762 L11.8718491,19.5409338 L11.8718491,24.1645485 C11.8718491,26.3854482 12.7262026,27.1032928 13.4425949,27.3133583 C14.1597057,27.5234239 15.2554914,27.3799998 16.4058866,25.4966537 L19.8139595,19.9270198 C19.9231788,19.7473775 20.0237755,19.5923637 20.1157496,19.4583563 L20.1157496,22.2746831 C20.1157496,24.35071 20.9406427,26.0109521 22.3784571,26.8287589 C23.6747176,27.5661613 25.3043843,27.4995198 26.6322609,26.6549116 C28.2418083,25.6299367 29.1090957,23.74152 29.0185586,21.4655687 L29.0185586,21.4655687 Z M49.349411,16.4410174 C49.7022332,16.658724 50.0077699,17.1428443 50.0077699,17.5789954 C50.0077699,18.2808222 49.4199754,18.861619 48.7616164,18.861619 C48.5972086,18.861619 48.4328007,18.8136498 48.2916718,18.7649425 C47.5154629,18.1841458 46.5282882,17.7967019 45.4938281,17.7967019 C43.049534,17.7967019 41.3567149,19.8298596 41.3567149,22.3471377 C41.3567149,24.8651537 43.049534,26.8739578 45.4938281,26.8739578 C46.7159751,26.8739578 47.7977207,26.3654839 48.6204875,25.5913342 C48.8330475,25.436333 49.087646,25.3517862 49.349411,25.349274 C50.0077699,25.349274 50.525,25.8813636 50.525,26.5595748 C50.525,26.9949879 50.2660212,27.3824318 49.9372055,27.6001383 C48.7616164,28.6170862 47.1633682,29.2945594 45.5178345,29.2945594 C41.7568225,29.2945594 38.7,26.1477774 38.7,22.2748148 C38.7,18.4018523 41.756095,15.2550703 45.5178345,15.2550703 C46.9283959,15.2550703 48.2676653,15.6904833 49.349411,16.4410174 L49.349411,16.4410174 Z M55.9945666,19.0349327 C58.5664852,19.0349327 60.7375,21.1923646 60.7375,23.8470539 C60.7375,26.5024659 58.5664852,28.7545791 55.9945666,28.7545791 C53.3043484,28.7545791 51.0625,26.5024659 51.0625,23.8470539 C51.0625,21.1923646 53.3043484,19.0349327 55.9945666,19.0349327 Z M55.970148,26.5946576 C57.092516,26.5946576 58.05,25.5278672 58.05,24.0816289 C58.05,22.6361134 57.092516,21.7348345 55.970148,21.7348345 C54.7552136,21.7348345 53.75,22.6122624 53.75,24.0816289 C53.75,25.5278672 54.7552136,26.5946576 55.970148,26.5946576 Z M62.35,27.3692331 L62.35,20.4202787 C62.35,19.6668579 62.9446057,19.0349327 63.6819756,19.0349327 C64.4193456,19.0349327 65.0375,19.6668579 65.0375,20.4202787 L65.0375,27.3692331 C65.0375,28.1226539 64.4193456,28.7545791 63.6819756,28.7545791 C62.9446057,28.7545791 62.35,28.1226539 62.35,27.3692331 L62.35,27.3692331 Z M62.35,16.8997033 C62.35,15.9913391 63.0577608,15.2550703 63.937925,15.2550703 C64.8415299,15.2550703 65.575,15.9913391 65.575,16.8997033 C65.575,17.7826272 64.8415299,18.4949524 63.937925,18.4949524 C63.0577608,18.4949524 62.35,17.7826272 62.35,16.8997033 Z M70.3241396,23.6664715 L70.3241396,27.3863362 C70.3241396,28.1304554 69.7264727,28.7545791 69.0128299,28.7545791 C68.3006102,28.7545791 67.725,28.1304554 67.725,27.3863362 L67.725,20.2107436 C67.725,19.6349109 68.1853458,19.1549284 68.7374762,19.1549284 C69.2888951,19.1549284 69.7264727,19.6349109 69.7264727,20.2107436 C70.7837739,19.2032193 71.7030425,19.0349327 72.5767746,19.0349327 C75.1752027,19.0349327 76.325,21.050713 76.325,23.3306301 L76.325,27.3863362 C76.325,28.1304554 75.7273331,28.7545791 75.0144018,28.7545791 C74.3014706,28.7545791 73.7265719,28.1304554 73.7265719,27.3863362 L73.7265719,23.6664715 C73.7265719,22.4906606 73.5885393,21.5065501 71.9563395,21.5065501 C70.8065422,21.5065501 70.3234281,22.4906606 70.3234281,23.6664715 L70.3241396,23.6664715 Z M84.9487603,25.1185016 C84.6417044,25.1185016 84.4296897,24.975754 84.2637334,24.7851824 L81.1449235,21.4346 L81.1449235,27.3995641 C81.1449235,28.1364894 80.5308118,28.7545791 79.7982644,28.7545791 C79.0657169,28.7545791 78.475,28.1364894 78.475,27.3995641 L78.475,15.5884714 C78.5532537,15.3846067 78.7521023,15.2512835 78.972138,15.2550703 C79.2075475,15.2550703 79.3961675,15.4457239 79.5387291,15.5884714 L84.4998739,21.1259175 C84.6417044,21.2925771 84.8303245,21.3875006 84.9253655,21.3875006 C85.0196755,21.3875006 85.2082956,21.2925771 85.3501261,21.1266421 L90.312002,15.5884714 C90.4538325,15.4457239 90.6424525,15.2550703 90.8785931,15.2550703 C91.1147336,15.2550703 91.3040847,15.3978998 91.375,15.5884714 L91.375,27.3995641 C91.375,28.1364894 90.7842831,28.7545791 90.0517356,28.7545791 C89.3191882,28.7545791 88.7050765,28.1364894 88.7050765,27.3995641 L88.7050765,21.4346 L85.5869977,24.7851824 C85.4210414,24.975754 85.2082956,25.1185016 84.9487603,25.1185016 L84.9487603,25.1185016 Z M97.7787168,26.5946576 C98.9705096,26.5946576 99.975,25.5382366 99.975,24.106056 C99.975,22.6745912 98.947368,21.7348345 97.7787168,21.7348345 C96.6100656,21.7348345 95.675,22.6974946 95.675,24.106056 C95.675,25.4909982 96.6100656,26.5946576 97.7787168,26.5946576 Z M100.610515,27.5931073 L100.562319,27.2844898 C100.043846,28.3035782 98.3913041,28.7545791 97.3295296,28.7545791 C94.8277144,28.7545791 92.9875,26.5024659 92.9875,23.8470539 C92.9875,21.1923646 94.8751802,19.0349327 97.4711969,19.0349327 C97.9195666,19.0349327 99.4063429,19.153465 100.562319,20.505022 L100.609785,20.1964044 C100.609785,19.6275941 101.058154,19.153465 101.624824,19.153465 C102.190763,19.153465 102.6625,19.6275941 102.6625,20.1964044 L102.6625,27.5931073 C102.6625,28.1619177 102.190763,28.6360468 101.624093,28.6360468 C101.058154,28.6360468 100.609054,28.1619177 100.609054,27.5931073 L100.610515,27.5931073 Z M109.5697,21.5065501 L109.298401,21.5065501 C107.689533,21.603132 107.372667,22.563097 107.372667,23.6664715 L107.372667,27.3863362 C107.372667,28.1304554 106.783801,28.7545791 106.081367,28.7545791 C105.378933,28.7545791 104.8125,28.1304554 104.8125,27.3863362 L104.8125,20.2107436 C104.8125,19.6349109 105.265366,19.1549284 105.809367,19.1549284 C106.353367,19.1549284 106.783801,19.6349109 106.783801,20.2107436 C107.7351,19.274924 108.505534,19.0832236 109.298401,19.0349327 L109.547267,19.0349327 C110.159268,19.0349327 110.725,19.58662 110.725,20.28318 C110.725,20.9307174 110.181701,21.5065501 109.5697,21.5065501 L109.5697,21.5065501 Z M119.677361,26.7821871 C119.793162,26.9720352 119.8625,27.1857956 119.8625,27.4234681 C119.8625,28.1125734 119.238459,28.7545791 118.568669,28.7545791 C118.106892,28.7545791 117.713739,28.3980703 117.413513,28.0176493 L114.411252,24.4764739 L114.411252,27.3995559 C114.411252,28.1364856 113.810085,28.7545791 113.093831,28.7545791 C112.377578,28.7545791 111.8,28.1364856 111.8,27.3995559 L111.8,16.6100934 C111.8,15.8724391 112.377578,15.2550703 113.093831,15.2550703 C113.810085,15.2550703 114.410537,15.8724391 114.410537,16.6100934 L114.410537,23.3359356 L117.413513,19.9606961 C117.713739,19.6041874 118.083303,19.2476786 118.545794,19.2476786 C119.19271,19.2476786 119.793162,19.8657721 119.793162,20.5548774 C119.793162,20.7686377 119.746699,20.9823981 119.630897,21.1729709 L117.251963,23.8105561 L119.677361,26.7814624 L119.677361,26.7821871 Z M124.957678,21.7348345 C124.241895,21.7348345 123.0875,22.1464846 123.0875,23.3547755 L126.85,23.3547755 C126.85,22.1206094 125.649886,21.7348345 124.956963,21.7348345 L124.957678,21.7348345 Z M128.498517,24.7006308 L123.091712,24.7006308 C123.091712,26.2892523 124.626075,26.5263169 125.310694,26.5263169 C125.807535,26.5263169 126.515535,26.4316356 127.058407,26.1938483 C127.223534,26.0760388 127.507026,25.9806348 127.743025,25.9806348 C128.33339,25.9806348 128.82877,26.4793376 128.82877,27.071999 C128.82877,27.4745751 128.56939,27.8301719 128.239136,28.0195344 C127.412772,28.6121958 126.349677,28.7545791 125.334805,28.7545791 C122.643093,28.7545791 120.4,27.3090635 120.4,23.9655861 C120.4,21.3347479 121.769237,19.0349327 124.95706,19.0349327 C127.530406,19.0349327 129.490008,20.6943845 129.5375,23.6576913 C129.5375,24.2265017 129.065501,24.7006308 128.498517,24.7006308 L128.498517,24.7006308 Z M135.886631,28.7545791 L135.157083,28.7545791 C133.132987,28.7545791 131.957118,27.8826236 131.957118,24.749617 L131.957118,21.5218015 L131.274896,21.5218015 C130.639271,21.5218015 130.075,20.9565388 130.075,20.3208875 C130.075,19.6371135 130.639271,19.095553 131.274896,19.095553 L131.957118,19.095553 L131.957118,16.5981978 C131.957118,15.8677375 132.545417,15.2550703 133.274965,15.2550703 C134.003785,15.2550703 134.616111,15.8677375 134.616111,16.5981978 L134.616111,19.095553 L135.721354,19.095553 C136.356979,19.095553 136.921978,19.6371135 136.921978,20.3208875 C136.921978,20.9565388 136.356979,21.5218015 135.721354,21.5218015 L134.616111,21.5218015 L134.616111,24.2310405 C134.616111,26.0216378 134.710034,26.398719 135.510208,26.398719 L135.886631,26.398719 C136.521528,26.398719 137.0625,26.9172955 137.0625,27.5766491 C137.0625,28.2130186 136.521528,28.7545791 135.886631,28.7545791 Z M148.787566,16.4410174 C149.139683,16.658724 149.445966,17.1428443 149.445966,17.5789954 C149.445966,18.2808222 148.858135,18.861619 148.199735,18.861619 C148.035317,18.861619 147.870172,18.8136498 147.729762,18.7649425 C146.953505,18.1841458 145.96627,17.7967019 144.931746,17.7967019 C142.487302,17.7967019 140.793651,19.8298596 140.793651,22.3471377 C140.793651,24.8651537 142.486574,26.8739578 144.931746,26.8739578 C146.153968,26.8739578 147.23578,26.3654839 148.058598,25.5913342 C148.271171,25.436333 148.525785,25.3517862 148.787566,25.349274 C149.445966,25.349274 149.9625,25.8813636 149.9625,26.5595748 C149.9625,26.9949879 149.704233,27.3824318 149.375397,27.6001383 C148.199735,28.6170862 146.600661,29.2945594 144.955026,29.2945594 C141.193783,29.2945594 138.1375,26.1477774 138.1375,22.2748148 C138.1375,18.4018523 141.193056,15.2550703 144.955026,15.2550703 C146.366402,15.2550703 147.705754,15.6904833 148.787566,16.4410174 L148.787566,16.4410174 Z M155.291217,26.5946576 C156.48301,26.5946576 157.4875,25.5382366 157.4875,24.106056 C157.4875,22.6745912 156.459145,21.7348345 155.290494,21.7348345 C154.122566,21.7348345 153.1875,22.6974946 153.1875,24.106056 C153.1875,25.4909982 154.122566,26.5946576 155.290494,26.5946576 L155.291217,26.5946576 Z M158.121709,27.5931073 L158.074977,27.2844898 C157.555813,28.3035782 155.904126,28.7545791 154.841702,28.7545791 C152.340806,28.7545791 150.5,26.5024659 150.5,23.8470539 C150.5,21.1923646 152.388268,19.0349327 154.983358,19.0349327 C155.431694,19.0349327 156.918358,19.153465 158.074977,20.505022 L158.121709,20.1964044 C158.121709,19.6275941 158.570045,19.153465 159.136672,19.153465 C159.702568,19.153465 160.175,19.6275941 160.175,20.1964044 L160.175,27.5931073 C160.175,28.1619177 159.702568,28.6360468 159.136672,28.6360468 C158.570045,28.6360468 158.121709,28.1619177 158.121709,27.5931073 Z M167.209506,26.5946576 C168.378158,26.5946576 169.3125,25.4909982 169.3125,24.106056 C169.3125,22.6974946 168.378158,21.7348345 167.209506,21.7348345 C166.040855,21.7348345 165.0125,22.6738754 165.0125,24.106056 C165.0125,25.5382366 166.017714,26.5946576 167.209506,26.5946576 Z M164.991649,28.4107214 L164.991649,31.7382613 C164.991649,32.4649326 164.378291,33.0744219 163.646642,33.0744219 C162.915723,33.0744219 162.325,32.4649326 162.325,31.7382613 L162.325,20.7231537 C162.325,20.160823 162.797432,19.6920951 163.364058,19.6920951 C163.929955,19.6920951 164.379021,20.160823 164.379021,20.8167564 C165.369157,19.8092771 166.596604,19.5749131 167.516642,19.5749131 C170.112462,19.5749131 172,21.7077683 172,24.3322163 C172,26.9573788 170.159925,29.1838367 167.658298,29.1838367 C166.879917,29.1838367 165.723298,28.9494727 164.991649,28.4107214 L164.991649,28.4107214 Z" id="形状" fill="#FFFFFF"></path>
                    </g>
                </g>
            </g>
        </g>
    </g>
</svg>