<svg width="180" height="44" viewBox="0 0 180 44" fill="none" xmlns="http://www.w3.org/2000/svg">
<path fill-rule="evenodd" clip-rule="evenodd" d="M52.0086 21.7855C51.3671 21.8978 50.5652 21.9619 49.587 21.9619V21.9459H45.6899C44.7758 21.9459 43.9899 21.9299 43.3645 21.8657C42.739 21.7535 42.1938 21.545 41.7287 21.2563C41.1995 20.8554 40.8627 20.3582 40.6863 19.7809C40.4617 19.2516 40.3655 18.6262 40.4297 17.8724V14.8414C40.3655 13.1094 40.7664 11.9386 41.6325 11.2971C42.4343 10.6557 43.7975 10.367 45.6899 10.4311H49.5709C50.5492 10.367 51.3671 10.3991 51.9926 10.5113C52.6822 10.6236 53.2595 10.8481 53.7246 11.2009C54.0133 11.4415 54.2378 11.7783 54.4142 12.2433C54.5906 12.7565 54.6708 13.366 54.6708 14.0556V14.665H51.2228V14.5848C51.1747 14.1197 50.9982 13.7669 50.7096 13.5424C50.4209 13.366 50.02 13.2858 49.5068 13.2858H46.6521C45.5616 13.2377 44.8078 13.3499 44.4069 13.6386C44.006 13.9273 43.8296 14.5688 43.8937 15.547V17.1187C43.8456 17.9205 44.0381 18.4979 44.5031 18.8507C44.9201 19.1394 45.6257 19.2837 46.6682 19.2837H48.737C49.6671 19.2837 50.3247 19.1554 50.7256 18.9309C51.1907 18.7064 51.4152 18.2734 51.4152 17.6319V17.5357H54.8632V18.4017C54.8632 19.0432 54.7349 19.5884 54.5104 20.0535C54.35 20.5186 54.0934 20.9195 53.7406 21.2723C53.2755 21.561 52.6982 21.7214 52.0086 21.7855ZM66.0893 21.2723C65.3997 21.7374 64.3894 21.9619 63.0583 21.9619V21.9459H60.1235C58.7282 21.9459 57.7339 21.7214 57.0924 21.2563C56.4028 20.8554 56.0821 20.1337 56.1462 19.0913V16.83C56.0821 15.7395 56.3707 14.9536 57.0122 14.4886C57.5896 13.9754 58.632 13.7348 60.1235 13.799H63.0583C64.4535 13.7348 65.4478 13.9593 66.0893 14.4886C66.7148 14.9536 67.0355 15.7234 67.0355 16.83V19.0111C67.0355 20.1177 66.7308 20.8714 66.0893 21.2723ZM62.2404 19.7167H60.9414C60.2518 19.7167 59.7546 19.6045 59.4659 19.3799C59.1131 19.1554 58.9688 18.8186 59.0329 18.3536V17.3272C58.9688 16.7659 59.0971 16.3649 59.3857 16.1404C59.6744 15.9159 60.1876 15.8357 60.9414 15.8838H62.2404C62.8819 15.8197 63.347 15.9159 63.6356 16.1404C63.9885 16.3649 64.1488 16.7338 64.1488 17.247V18.3536C64.1488 18.8026 63.9724 19.1554 63.6356 19.3799C63.347 19.6045 62.8819 19.7167 62.2404 19.7167ZM71.0449 10.5755V12.9811H68.1581V10.5755H71.0449ZM71.0449 21.8016V13.7829H68.1581V21.8016H71.0449ZM75.1179 17.9847V21.8016H72.167V13.8792H75.1179V15.098C75.4065 14.5206 75.8716 14.1518 76.5131 13.9754C77.0904 13.799 77.8121 13.7348 78.6781 13.799C79.9611 13.799 80.9073 14.0235 81.5488 14.4886C82.2384 14.9537 82.5912 15.6914 82.5912 16.6696V21.8016H79.7206V17.8243C79.7206 17.1828 79.5602 16.7178 79.2074 16.4291C78.9187 16.1404 78.3093 16.0121 77.3791 16.0763C76.5131 16.0121 75.9037 16.1565 75.5509 16.5093C75.198 16.7979 75.0537 17.2951 75.1179 17.9847ZM91.1233 21.8015L93.8176 14.1197L96.4317 21.8015H100.345L104.081 10.5754H100.682L98.1637 18.6101L95.3892 10.5754H92.262L89.3111 18.6101L86.9536 10.5754H83.5537L87.114 21.8015H91.1233ZM108.091 10.5755V12.9811H105.204V10.5755H108.091ZM108.091 21.8016V13.7829H105.204V21.8016H108.091ZM112.164 17.9847V21.8016H109.214V13.8792H112.164V15.098C112.453 14.5206 112.918 14.1518 113.56 13.9754C114.137 13.799 114.859 13.7348 115.725 13.799C117.008 13.799 117.954 14.0235 118.595 14.4886C119.285 14.9536 119.638 15.6914 119.638 16.6696V21.8016H116.767V17.8243C116.767 17.1828 116.607 16.7178 116.254 16.4291C115.965 16.1404 115.356 16.0121 114.426 16.0763C113.56 16.0121 112.95 16.1564 112.598 16.5093C112.245 16.7979 112.1 17.2951 112.164 17.9847ZM125.043 21.9619C126.214 21.9619 127.08 21.8817 127.657 21.7053C128.234 21.4808 128.555 21.0638 128.619 20.4865V21.8817H131.506V10.5754H128.619V15.3546C128.443 14.7131 128.074 14.3121 127.481 14.1357C126.903 13.9112 126.053 13.815 124.947 13.8791C123.439 13.815 122.365 14.0235 121.723 14.4885C121.018 14.8895 120.697 15.6112 120.761 16.6536V19.3478C120.697 20.3261 121.018 21.0318 121.723 21.4327C122.365 21.7855 123.471 21.9619 125.043 21.9619ZM125.652 19.7167H126.951C127.528 19.7167 127.961 19.6045 128.25 19.3799C128.603 19.1554 128.779 18.8026 128.779 18.3536V17.4074C128.779 16.8942 128.635 16.5253 128.346 16.3008C128.057 16.0763 127.592 15.98 126.951 16.0442H125.652C124.962 15.98 124.465 16.0763 124.176 16.3008C123.888 16.4772 123.759 16.814 123.824 17.3272V18.3536C123.775 18.8186 123.888 19.1554 124.176 19.3799C124.465 19.6045 124.962 19.7167 125.652 19.7167ZM128.298 25.9714H104.563C102.703 25.9714 101.195 27.4789 101.195 29.3393C101.195 31.1996 102.703 32.7071 104.563 32.7071H128.298C130.159 32.7071 131.666 31.1996 131.666 29.3393C131.666 27.4789 130.159 25.9714 128.298 25.9714ZM126.342 31.2156C125.957 31.4561 125.412 31.5844 124.69 31.5844H123.087C122.333 31.5844 121.788 31.4561 121.435 31.2156C121.066 30.991 120.889 30.6061 120.922 30.0609V28.8581C120.889 28.2807 121.034 27.8638 121.387 27.6232C121.707 27.3506 122.269 27.2223 123.087 27.2543H124.69C125.444 27.2223 125.989 27.3506 126.342 27.6232C126.679 27.8638 126.855 28.2807 126.855 28.8581V30.0128C126.855 30.6061 126.695 31.0071 126.342 31.2156ZM110.337 32.707V30.8467C110.401 31.1514 110.594 31.3599 110.898 31.4561C111.219 31.5523 111.668 31.6004 112.261 31.6004C113.015 31.6004 113.576 31.4721 113.945 31.2316C114.314 31.0071 114.507 30.6382 114.507 30.109V28.6977C114.507 28.1364 114.314 27.7515 113.945 27.543C113.609 27.3185 113.015 27.2383 112.213 27.2704C111.588 27.2383 111.123 27.2864 110.802 27.4147C110.481 27.543 110.337 27.7675 110.337 28.1043V27.3185H108.733V32.707H110.337ZM107.611 31.5844V29.8203H106.007V31.5844H107.611ZM111.347 30.4618H112.069C112.406 30.4618 112.662 30.3976 112.839 30.2694C112.999 30.1411 113.079 29.9646 113.079 29.708V29.1467C113.079 28.8741 112.983 28.6656 112.791 28.5373C112.63 28.409 112.39 28.3609 112.069 28.393H111.347C110.962 28.3609 110.69 28.409 110.529 28.5373C110.369 28.6656 110.305 28.8581 110.337 29.1467V29.6599C110.305 29.9326 110.369 30.1411 110.529 30.2694C110.69 30.3976 110.962 30.4618 111.347 30.4618ZM116.864 31.5844V29.3071C116.864 29.0345 116.944 28.826 117.105 28.6977C117.297 28.5694 117.538 28.5052 117.858 28.5052C118.147 28.5052 118.356 28.5694 118.516 28.6977C118.676 28.826 118.756 29.0024 118.756 29.259V29.3071H120.072V29.0826C120.104 29.0184 120.12 28.9543 120.12 28.8901C120.12 28.2968 119.975 27.8798 119.703 27.6392C119.446 27.3666 119.045 27.2383 118.484 27.2704C118.083 27.2383 117.746 27.3025 117.49 27.4628C117.233 27.5911 117.04 27.7996 116.88 28.1204V27.3345H115.308V31.5844H116.864ZM124.241 30.4618H123.552C123.183 30.4618 122.926 30.3976 122.766 30.2694C122.589 30.1411 122.509 29.9646 122.541 29.708V29.1467C122.509 28.842 122.573 28.6175 122.718 28.5052C122.878 28.3769 123.151 28.3288 123.552 28.3609H124.241C124.578 28.3288 124.819 28.3769 124.979 28.5052C125.155 28.6335 125.252 28.826 125.252 29.0986V29.692C125.252 29.9326 125.155 30.125 124.979 30.2533C124.819 30.3976 124.578 30.4618 124.241 30.4618ZM46.1236 33.0278C46.7331 33.0278 47.2302 32.9957 47.6311 32.9155C48.0641 32.8835 48.417 32.7712 48.7056 32.5948C48.9141 32.3703 49.0745 32.1297 49.1868 31.841C49.3311 31.5524 49.3952 31.2156 49.3952 30.8146V30.2694H47.2462V30.3175C47.2462 30.7184 47.1019 30.9911 46.8132 31.1354C46.5566 31.2797 46.1557 31.3599 45.5784 31.3599H44.2954C43.6539 31.3599 43.2048 31.2637 42.9483 31.0873C42.6596 30.8628 42.5313 30.5099 42.5794 29.9967V29.0185C42.5473 28.409 42.6435 28.0081 42.9001 27.8317C43.1567 27.6553 43.6218 27.5751 44.2954 27.6072H46.0755C46.3963 27.6072 46.6529 27.6553 46.8293 27.7676C47.0057 27.9119 47.1179 28.1204 47.15 28.4251V28.4732H49.299V28.0883C49.299 27.6553 49.2509 27.2704 49.1386 26.9497C49.0264 26.661 48.8821 26.4525 48.7056 26.2921C48.417 26.0836 48.0641 25.9393 47.6311 25.8591C47.2302 25.795 46.7331 25.7629 46.1236 25.811H43.702C42.5152 25.7789 41.6813 25.9553 41.1841 26.3563C40.6549 26.7572 40.3983 27.4949 40.4304 28.5694V30.4618C40.3983 30.9269 40.4464 31.3278 40.5908 31.6486C40.703 32.0014 40.9115 32.3221 41.2323 32.5627C41.5209 32.7391 41.8577 32.8674 42.2586 32.9476C42.6596 32.9797 43.1407 32.9957 43.702 32.9957H46.1236V33.0278ZM54.5753 33.0278C55.4092 33.0278 56.0507 32.8835 56.4837 32.5948C56.8847 32.3382 57.0931 31.8731 57.0931 31.1835V29.8203C57.0931 29.1307 56.8847 28.6336 56.4837 28.3449C56.0828 28.0242 55.4413 27.8798 54.5753 27.9119H52.715C51.7688 27.8798 51.1112 28.0242 50.7424 28.3449C50.3414 28.6336 50.165 29.1307 50.1971 29.8203V31.2316C50.165 31.8891 50.3575 32.3382 50.8065 32.5948C51.2075 32.8835 51.849 33.0278 52.715 33.0278H54.5753ZM53.3244 31.5844H54.1423C54.5272 31.5844 54.8159 31.5203 55.0243 31.3759C55.2328 31.2316 55.3451 31.0231 55.3451 30.7345V30.0449C55.3451 29.7241 55.2489 29.4996 55.0243 29.3552C54.8479 29.2109 54.5593 29.1628 54.1583 29.1949H53.3404C52.8753 29.1628 52.5546 29.227 52.3621 29.3552C52.1697 29.4835 52.1055 29.7401 52.1376 30.093V30.7345C52.1055 31.0231 52.1857 31.2316 52.4103 31.3759C52.5867 31.5203 52.8914 31.5844 53.3244 31.5844ZM59.4985 27.4148V25.9714H57.7344V27.4148H59.4985ZM59.4985 27.8958V32.8673H57.7344V27.8958H59.4985ZM62.1609 32.8674V30.4939C62.1289 30.0609 62.209 29.7562 62.4336 29.5798C62.6581 29.3713 63.043 29.2751 63.5883 29.3071C64.1656 29.2751 64.5505 29.3392 64.7429 29.5156C64.9675 29.692 65.0797 29.9807 65.0797 30.3816V32.8674H66.8759V29.692C66.8759 29.0826 66.6514 28.6336 66.2184 28.3449C65.8174 28.0562 65.208 27.9119 64.4062 27.9119C63.8609 27.8798 63.3958 27.9119 63.043 28.0242C62.6421 28.1364 62.3534 28.3609 62.1609 28.7298V27.976H60.3006V32.8674H62.1609ZM73.7723 28.2006L72.0884 33.0278H69.5866L67.3574 25.9714H69.4743L70.9498 31.0232L72.7941 25.9714H74.7506L76.5147 31.0232L78.0864 25.9714H80.2033L77.8619 33.0278H75.4081L73.7723 28.2006ZM82.7524 27.4148V25.9714H80.9883V27.4148H82.7524ZM82.7524 27.8958V32.8673H80.9883V27.8958H82.7524ZM85.2546 32.8674V30.4939C85.2226 30.0609 85.3028 29.7562 85.5273 29.5798C85.7518 29.3713 86.1367 29.2751 86.682 29.3071C87.2593 29.2751 87.6442 29.3392 87.8366 29.5156C88.0612 29.692 88.1574 29.9807 88.1574 30.3816V32.8674H89.9696V29.692C89.9696 29.0826 89.7451 28.6336 89.3121 28.3449C88.9111 28.0562 88.3017 27.9119 87.4999 27.9119C86.9546 27.8798 86.4895 27.9119 86.1367 28.0242C85.7358 28.1364 85.4471 28.3609 85.2546 28.7298V27.976H83.3943V32.8674H85.2546ZM94.9249 32.8675C94.5721 32.9797 94.0108 33.0278 93.2891 33.0278C92.3108 33.0278 91.6212 32.9156 91.2203 32.7231C90.7712 32.4665 90.5788 32.0335 90.6108 31.4241V29.7562C90.5788 29.1147 90.7873 28.6657 91.2203 28.4091C91.6212 28.1204 92.2948 27.9921 93.241 28.0242C93.9306 27.9921 94.4598 28.0402 94.8287 28.1846C95.1815 28.2968 95.422 28.5374 95.5343 28.9383V25.9714H97.3465V32.9797H95.5343V32.1137C95.4862 32.4665 95.2937 32.7231 94.9249 32.8675ZM94.4603 31.5846H93.6584C93.2254 31.5846 92.9368 31.5204 92.7443 31.3761C92.5519 31.2317 92.4877 31.0232 92.5358 30.7506V30.1252C92.5037 29.8204 92.5679 29.612 92.7443 29.4997C92.9207 29.3554 93.2254 29.3073 93.6584 29.3393H94.4603C94.8452 29.3073 95.1339 29.3554 95.3103 29.4997C95.4867 29.644 95.5829 29.8686 95.5829 30.1733V30.7506C95.5829 31.0232 95.4706 31.2317 95.2622 31.3761C95.0857 31.5204 94.8131 31.5846 94.4603 31.5846Z" fill="url(#paint0_linear_177_40972)"/>
<ellipse cx="17.6412" cy="21.641" rx="16.358" ry="16.5184" fill="white"/>
<path fill-rule="evenodd" clip-rule="evenodd" d="M35.2821 21.641C35.2821 11.8903 27.3917 4 17.641 4C7.89035 4 0 11.8903 0 21.641C0 31.3917 7.89035 39.2821 17.641 39.2821C27.3917 39.2821 35.2821 31.3917 35.2821 21.641ZM2.08485 21.641C2.08485 13.045 9.04503 6.08485 17.641 6.08485C26.237 6.08485 33.1972 13.045 33.1972 21.641C33.1972 30.237 26.237 37.1972 17.641 37.1972C9.04503 37.1972 2.08485 30.237 2.08485 21.641ZM17.641 7.04709C25.7078 7.04709 32.235 13.5743 32.235 21.641C32.235 29.7078 25.7078 36.235 17.641 36.235C9.57427 36.235 3.04709 29.7078 3.04709 21.641C3.04709 13.5743 9.57427 7.04709 17.641 7.04709ZM13.5034 21.3684L17.625 13.1413L21.7466 21.3684L23.2541 18.177L26.7502 19.8288L21.8588 30.1889L17.625 21.7373L13.3911 30.1889L8.49977 19.8288L11.9959 18.177L13.5034 21.3684Z" fill="url(#paint1_linear_177_40972)"/>
<defs>
<linearGradient id="paint0_linear_177_40972" x1="40.4136" y1="33.0437" x2="131.666" y2="33.0437" gradientUnits="userSpaceOnUse">
<stop offset="0.000573645" stop-color="#54B1F9"/>
<stop offset="1" stop-color="#2762E9"/>
</linearGradient>
<linearGradient id="paint1_linear_177_40972" x1="7.03332" y1="35.7662" x2="35.2837" y2="35.7662" gradientUnits="userSpaceOnUse">
<stop offset="0.000573645" stop-color="#54B1F9"/>
<stop offset="1" stop-color="#2762E9"/>
</linearGradient>
</defs>
</svg>
