<?xml version="1.0" encoding="UTF-8"?>
<svg width="24px" height="24px" viewBox="0 0 24 24" version="1.1" xmlns="http://www.w3.org/2000/svg" xmlns:xlink="http://www.w3.org/1999/xlink">
    <title>联系我们-Light</title>
    <g id="组件/弹窗/导航" stroke="none" stroke-width="1" fill="none" fill-rule="evenodd">
        <g id="H5更多-Light" transform="translate(-335.000000, -98.000000)">
            <g id="编组-7" transform="translate(0.000000, 88.000000)">
                <g id="联系我们-Light" transform="translate(335.000000, 10.000000)">
                    <rect id="矩形" x="0" y="0" width="24" height="24"></rect>
                    <g id="编组" transform="translate(1.200000, 1.200000)" fill="#000000" fill-rule="nonzero">
                        <path d="M10.7196,0 C15.0036,0 18.6276,3.0324 19.8228,7.2024 L19.8,7.19999999 C20.2773897,7.19999999 20.7352267,7.38964231 21.0727922,7.72720779 C21.4103577,8.06477328 21.6,8.52261032 21.6,9 L21.6,11.4 C21.6,12.3862 20.8065367,13.1888231 19.8204,13.2 C18.924,16.3308 16.6572,18.8196 13.7688,19.866 C13.5697341,20.9293963 12.5961463,21.6681169 11.5184236,21.5734982 C10.440701,21.4788795 9.61072693,20.581815 9.6,19.5 C9.59934765,18.5018391 10.3013988,17.6411449 11.2793278,17.4411934 C12.2572567,17.2412419 13.2408028,17.7572916 13.632,18.6756 C16.878,17.43 19.2,14.106 19.2,10.2 C19.2,5.2296 15.4392,1.2 10.8,1.2 C6.16080001,1.2 2.4,5.2296 2.4,10.2 C2.4,10.4016 2.406,10.602 2.418,10.8 L2.4,10.8 L2.4,13.2 L1.79999999,13.2 C1.32261031,13.2 0.864773265,13.0103577 0.527207784,12.6727922 C0.189642304,12.3352267 0,11.8773897 0,11.4 L0,9 C0,8.07747132 0.697546113,7.30431294 1.61519999,7.20959999 C2.8092,3.0348 6.43319999,0 10.7196,0 Z" id="路径"></path>
                        <path d="M10.8,2.4 C14.7764502,2.4 18,5.6235498 18,9.6 L17.9992584,10.1540156 C17.9841797,13.8718928 17.6625,16.8 10.8,16.8 C3.972,16.8 3.6192,13.9008 3.60000001,10.2108 L3.60000001,9.6 C3.60000001,5.6235498 6.82354981,2.4 10.8,2.4 Z M7.8,9.6 C7.64087011,9.6 7.48825775,9.6632141 7.37573592,9.77573593 C7.26321409,9.88825776 7.19999999,10.0408701 7.19999999,10.2 L7.19999999,10.2 L7.19999999,12.6 C7.19999999,12.9313708 7.46862914,13.2 7.79999999,13.2 C8.13137084,13.2 8.4,12.9313708 8.4,12.6 L8.4,12.6 L8.4,10.2 C8.4,10.0408701 8.3367859,9.88825776 8.22426407,9.77573593 C8.11174225,9.6632141 7.9591299,9.6 7.8,9.6 Z M13.8,9.6 C13.6408701,9.6 13.4882578,9.6632141 13.3757359,9.77573593 C13.2632141,9.88825776 13.2,10.0408701 13.2,10.2 L13.2,10.2 L13.2,12.6 C13.2,12.9313708 13.4686292,13.2 13.8,13.2 C14.1313709,13.2 14.4,12.9313708 14.4,12.6 L14.4,12.6 L14.4,10.2 C14.4,10.0408701 14.3367859,9.88825776 14.2242641,9.77573593 C14.1117422,9.6632141 13.9591299,9.6 13.8,9.6 Z" id="形状结合"></path>
                    </g>
                </g>
            </g>
        </g>
    </g>
</svg>