<?xml version="1.0" encoding="UTF-8"?>
<svg width="31px" height="30px" viewBox="0 0 31 30" version="1.1" xmlns="http://www.w3.org/2000/svg" xmlns:xlink="http://www.w3.org/1999/xlink">
    <title>Dao-Dark</title>
    <defs>
        <linearGradient x1="76.6465749%" y1="2.25199597%" x2="50%" y2="82.7149987%" id="dao_dask-1">
            <stop stop-color="#0F1114" stop-opacity="0" offset="0%"></stop>
            <stop stop-color="#6D77FF" offset="100%"></stop>
        </linearGradient>
        <rect id="path-2" x="0" y="0" width="30" height="30"></rect>
    </defs>
    <g id="H5-HECO" stroke="none" stroke-width="1" fill="none" fill-rule="evenodd">
        <g id="H5首页-Dark" transform="translate(-301.000000, -319.000000)">
            <g id="编组-11备份-2" transform="translate(16.000000, 316.000000)">
                <g id="Dao" transform="translate(257.250000, 0.000000)">
                    <g id="Dao-Dark" transform="translate(28.000000, 3.000000)">
                        <circle id="椭圆形" fill="url(#dao_dask-1)" cx="14.015625" cy="16.921875" r="12.234375"></circle>
                        <mask id="mask-3" fill="white">
                            <use xlink:href="#path-2"></use>
                        </mask>
                        <g id="蒙版"></g>
                        <g id="编组-4" mask="url(#mask-3)">
                            <g transform="translate(-3.421573, -2.203794)">
                                <g id="编组-2" stroke="none" stroke-width="1" fill-rule="evenodd" transform="translate(17.812592, 17.812592) rotate(-315.000000) translate(-17.812592, -17.812592) translate(9.015002, 1.419372)" stroke-linejoin="round">
                                    <path d="M13.8451789,2.38897726 C15.9162467,2.38897726 17.5951789,4.06790945 17.5951789,6.13897726 L17.5952678,8.30936287 C16.8843781,8.53532689 16.3693423,9.20076587 16.3693423,9.9864979 C16.3693423,10.7722299 16.8843781,11.4376689 17.5952678,11.6636329 L17.5951789,25.0313569 C17.5951789,27.1024247 15.9162467,28.7813569 13.8451789,28.7813569 L3.75025912,28.7813569 C1.67919131,28.7813569 0.000259121726,27.1024247 0.000259121726,25.0313569 L0.000826245672,11.6634243 C0.711376724,11.4372595 1.22609567,10.7719882 1.22609567,9.9864979 C1.22609567,9.20100759 0.711376724,8.53573634 0.000826245672,8.30957155 L0.000259121726,6.13897726 C0.000259121726,4.06790945 1.67919131,2.38897726 3.75025912,2.38897726 L13.8451789,2.38897726 Z" id="形状结合" stroke="#FFFFFF" stroke-width="2"></path>
                                </g>
                                <g id="编组-6" stroke="none" stroke-width="1" fill-rule="evenodd" transform="translate(22.046972, 13.594796) rotate(-315.000000) translate(-22.046972, -13.594796) translate(17.705602, 13.126046)" stroke-linecap="round">
                                    <line x1="-2.29971226e-18" y1="0.46875" x2="0.9375" y2="0.46875" id="直线-12" stroke="#FFFFFF" stroke-width="2" transform="translate(0.468750, 0.468750) rotate(-360.000000) translate(-0.468750, -0.468750) "></line>
                                    <line x1="3.87262036" y1="0.46875" x2="4.81012036" y2="0.46875" id="直线-12备份-2" stroke="#FFFFFF" stroke-width="2" transform="translate(4.341370, 0.468750) rotate(-360.000000) translate(-4.341370, -0.468750) "></line>
                                    <line x1="7.74524071" y1="0.46875" x2="8.68274071" y2="0.46875" id="直线-12备份-3" stroke="#FFFFFF" stroke-width="2" transform="translate(8.213991, 0.468750) rotate(-360.000000) translate(-8.213991, -0.468750) "></line>
                                </g>
                                <polyline id="路径-15备份" stroke="#FFFFFF" stroke-width="2" stroke-linecap="round" stroke-linejoin="round" points="11.7926755 21.1515811 13.9950348 23.5369839 19.9145667 17.5672267"></polyline>
                            </g>
                        </g>
                        <line x1="0.9375" y1="29.0625" x2="29.0625" y2="29.0625" id="直线-11备份" stroke="#FFFFFF" stroke-width="2" stroke-linecap="round" mask="url(#mask-3)"></line>
                    </g>
                </g>
            </g>
        </g>
    </g>
</svg>