<?xml version="1.0" encoding="UTF-8"?>
<svg width="24px" height="24px" viewBox="0 0 24 24" version="1.1" xmlns="http://www.w3.org/2000/svg" xmlns:xlink="http://www.w3.org/1999/xlink">
    <title>白天</title>
    <g id="组件/弹窗/导航" stroke="none" stroke-width="1" fill="none" fill-rule="evenodd">
        <g id="H5更多-Dark" transform="translate(-301.000000, -98.000000)">
            <g id="编组-3" transform="translate(0.000000, 88.000000)">
                <g id="白天" transform="translate(301.000000, 10.000000)">
                    <rect id="矩形" x="0" y="0" width="24" height="24"></rect>
                    <path d="M12,17.6816327 C12.7033177,17.6816327 13.2829812,18.2110592 13.362202,18.8931237 L13.3714286,19.0530612 L13.3714286,20.2285714 C13.3714286,20.9859905 12.7574191,21.6 12,21.6 C11.2966823,21.6 10.7170188,21.0705735 10.637798,20.388509 L10.6285714,20.2285714 L10.6285714,19.0530612 C10.6285714,18.2956421 11.2425809,17.6816327 12,17.6816327 Z M17.68862,15.8083611 L17.8278152,15.9034337 L17.9570139,16.017521 L18.7882251,16.8487322 C19.3238013,17.3843084 19.3238013,18.2526489 18.7882251,18.7882251 C18.2938471,19.2826031 17.5159302,19.3206322 16.9779308,18.9023123 L16.8487322,18.7882251 L16.017521,17.9570139 C15.4819448,17.4214377 15.4819448,16.5530971 16.017521,16.017521 C16.4707008,15.5643411 17.1621321,15.4946212 17.68862,15.8083611 Z M7.98247902,16.017521 C8.47685703,16.511899 8.5148861,17.2898159 8.09656625,17.8278152 L7.98247902,17.9570139 L7.15126779,18.7882251 C6.61569161,19.3238013 5.74735107,19.3238013 5.2117749,18.7882251 C4.7173969,18.2938471 4.67936782,17.5159302 5.09768767,16.9779308 L5.2117749,16.8487322 L6.04298614,16.017521 C6.57856231,15.4819448 7.44690285,15.4819448 7.98247902,16.017521 Z M12,7.96967931 C14.2258118,7.96967931 16.0303207,9.77418823 16.0303207,12 C16.0303207,14.2258118 14.2258118,16.0303207 12,16.0303207 C9.77418822,16.0303207 7.96967931,14.2258118 7.96967931,12 C7.96967931,9.77418822 9.77418823,7.96967931 12,7.96967931 Z M20.2285714,10.6285714 C20.9859905,10.6285714 21.6,11.2425809 21.6,12 C21.6,12.7033177 21.0705735,13.2829812 20.388509,13.362202 L20.2285714,13.3714286 L19.0530612,13.3714286 C18.2956421,13.3714286 17.6816327,12.7574191 17.6816327,12 C17.6816327,11.2966823 18.2110592,10.7170188 18.8931237,10.637798 L19.0530612,10.6285714 L20.2285714,10.6285714 Z M4.94693878,10.6285714 C5.70435786,10.6285714 6.31836735,11.2425809 6.31836735,12 C6.31836735,12.7033177 5.7889408,13.2829812 5.10687632,13.362202 L4.94693878,13.3714286 L3.77142857,13.3714286 C3.01400949,13.3714286 2.4,12.7574191 2.4,12 C2.4,11.2966823 2.92942655,10.7170188 3.61149103,10.637798 L3.77142857,10.6285714 L4.94693878,10.6285714 Z M18.7882251,5.2117749 C19.2826031,5.70615291 19.3206322,6.48406978 18.9023123,7.02206915 L18.7882251,7.15126779 L17.9570139,7.98247902 C17.4214377,8.51805519 16.5530971,8.51805519 16.017521,7.98247902 C15.523143,7.48810102 15.4851139,6.71018414 15.9034337,6.17218477 L16.017521,6.04298614 L16.8487322,5.2117749 C17.3843084,4.67619873 18.2526489,4.67619873 18.7882251,5.2117749 Z M6.88287395,5.00261498 L7.02206915,5.09768767 L7.15126779,5.2117749 L7.98247902,6.04298614 C8.51805519,6.57856231 8.51805519,7.44690285 7.98247902,7.98247902 C7.48810102,8.47685703 6.71018414,8.5148861 6.17218477,8.09656625 L6.04298614,7.98247902 L5.2117749,7.15126779 C4.67619873,6.61569161 4.67619873,5.74735107 5.2117749,5.2117749 C5.66495474,4.75859506 6.35638599,4.68887509 6.88287395,5.00261498 Z M12,2.4 C12.7033177,2.4 13.2829812,2.92942655 13.362202,3.61149103 L13.3714286,3.77142857 L13.3714286,4.94693878 C13.3714286,5.70435786 12.7574191,6.31836735 12,6.31836735 C11.2966823,6.31836735 10.7170188,5.7889408 10.637798,5.10687632 L10.6285714,4.94693878 L10.6285714,3.77142857 C10.6285714,3.01400949 11.2425809,2.4 12,2.4 Z" id="形状结合" fill="#FFFFFF" fill-rule="nonzero"></path>
                </g>
            </g>
        </g>
    </g>
</svg>