<?xml version="1.0" encoding="UTF-8"?>
<svg width="36px" height="36px" viewBox="0 0 36 36" version="1.1" xmlns="http://www.w3.org/2000/svg" xmlns:xlink="http://www.w3.org/1999/xlink">
    <title>白天</title>
    <g id="HECO" stroke="none" stroke-width="1" fill="none" fill-rule="evenodd">
        <g id="HECO首页-Dark" transform="translate(-1834.000000, -20.000000)" fill-rule="nonzero">
            <g id="编组-10" transform="translate(50.000000, 19.000000)">
                <g id="白天" transform="translate(1784.000000, 1.000000)">
                    <circle id="椭圆形备份-4" fill-opacity="0.1" fill="#EBEBF5" opacity="0.99874442" cx="18" cy="18" r="18"></circle>
                    <path d="M18,24.2142857 C18.7692538,24.2142857 19.4032607,24.793346 19.4899084,25.539354 L19.5,25.7142857 L19.5,27 C19.5,27.8284271 18.8284271,28.5 18,28.5 C17.2307462,28.5 16.5967393,27.9209397 16.5100916,27.1749317 L16.5,27 L16.5,25.7142857 C16.5,24.8858586 17.1715729,24.2142857 18,24.2142857 Z M24.2219282,22.1653949 L24.3741729,22.2693807 L24.5154839,22.3941636 L25.4246212,23.3033009 C26.0104076,23.8890873 26.0104076,24.8388348 25.4246212,25.4246212 C24.8838953,25.9653471 24.0330487,26.0069414 23.4446119,25.5494041 L23.3033009,25.4246212 L22.3941636,24.5154839 C21.8083771,23.9296975 21.8083771,22.97995 22.3941636,22.3941636 C22.889829,21.8984981 23.6460819,21.8222419 24.2219282,22.1653949 Z M13.6058364,22.3941636 C14.1465624,22.9348895 14.1881567,23.7857361 13.7306193,24.3741729 L13.6058364,24.5154839 L12.6966991,25.4246212 C12.1109127,26.0104076 11.1611652,26.0104076 10.5753788,25.4246212 C10.0346529,24.8838953 9.99305855,24.0330487 10.4505959,23.4446119 L10.5753788,23.3033009 L11.4845161,22.3941636 C12.0703025,21.8083771 13.02005,21.8083771 13.6058364,22.3941636 Z M18,13.5918367 C20.4344816,13.5918367 22.4081633,15.5655184 22.4081633,18 C22.4081633,20.4344816 20.4344816,22.4081633 18,22.4081633 C15.5655184,22.4081633 13.5918367,20.4344816 13.5918367,18 C13.5918367,15.5655184 15.5655184,13.5918367 18,13.5918367 Z M27,16.5 C27.8284271,16.5 28.5,17.1715729 28.5,18 C28.5,18.7692538 27.9209397,19.4032607 27.1749317,19.4899084 L27,19.5 L25.7142857,19.5 C24.8858586,19.5 24.2142857,18.8284271 24.2142857,18 C24.2142857,17.2307462 24.793346,16.5967393 25.539354,16.5100916 L25.7142857,16.5 L27,16.5 Z M10.2857143,16.5 C11.1141414,16.5 11.7857143,17.1715729 11.7857143,18 C11.7857143,18.7692538 11.206654,19.4032607 10.460646,19.4899084 L10.2857143,19.5 L9,19.5 C8.17157288,19.5 7.5,18.8284271 7.5,18 C7.5,17.2307462 8.07906029,16.5967393 8.82506831,16.5100916 L9,16.5 L10.2857143,16.5 Z M25.4246212,10.5753788 C25.9653471,11.1161047 26.0069414,11.9669513 25.5494041,12.5553881 L25.4246212,12.6966991 L24.5154839,13.6058364 C23.9296975,14.1916229 22.97995,14.1916229 22.3941636,13.6058364 C21.8534376,13.0651105 21.8118433,12.2142639 22.2693807,11.6258271 L22.3941636,11.4845161 L23.3033009,10.5753788 C23.8890873,9.98959236 24.8388348,9.98959236 25.4246212,10.5753788 Z M12.4031434,10.3466101 L12.5553881,10.4505959 L12.6966991,10.5753788 L13.6058364,11.4845161 C14.1916229,12.0703025 14.1916229,13.02005 13.6058364,13.6058364 C13.0651105,14.1465624 12.2142639,14.1881567 11.6258271,13.7306193 L11.4845161,13.6058364 L10.5753788,12.6966991 C9.98959236,12.1109127 9.98959236,11.1611652 10.5753788,10.5753788 C11.0710442,10.0797134 11.8272972,10.0034571 12.4031434,10.3466101 Z M18,7.5 C18.7692538,7.5 19.4032607,8.07906029 19.4899084,8.82506831 L19.5,9 L19.5,10.2857143 C19.5,11.1141414 18.8284271,11.7857143 18,11.7857143 C17.2307462,11.7857143 16.5967393,11.206654 16.5100916,10.460646 L16.5,10.2857143 L16.5,9 C16.5,8.17157288 17.1715729,7.5 18,7.5 Z" id="形状结合" fill="#FFFFFF"></path>
                </g>
            </g>
        </g>
    </g>
</svg>