<?xml version="1.0" encoding="UTF-8"?>
<svg width="172px" height="43px" viewBox="0 0 172 43" version="1.1" xmlns="http://www.w3.org/2000/svg" xmlns:xlink="http://www.w3.org/1999/xlink">
    <title>Debank</title>
    <g id="HECO" stroke="none" stroke-width="1" fill="none" fill-rule="evenodd">
        <g id="合作伙伴" transform="translate(-2280.000000, -1497.000000)">
            <g id="编组-2备份-4" transform="translate(1920.000000, 903.000000)">
                <g id="编组-8" transform="translate(360.000000, 100.000000)">
                    <g id="编组-7" transform="translate(0.000000, 411.000000)">
                        <g id="Debank" transform="translate(0.000000, 83.000000)">
                            <rect id="矩形" x="0" y="0" width="172" height="43"></rect>
                            <g id="debank-logo(1)" transform="translate(0.000000, 4.914286)" fill-rule="nonzero">
                                <g id="Group">
                                    <path d="M27.7587555,22.6211803 C27.7587555,27.9754658 23.4567493,32.3159718 18.1499556,32.3159718 L0,32.3159718 L0,25.8527775 L18.1499556,25.8527775 C19.9188868,25.8527775 21.3528889,24.4059422 21.3528889,22.6211803 C21.3528889,20.8364185 19.9188868,19.3895831 18.1499556,19.3895831 L11.7440889,19.3895831 L11.7440889,12.9263888 L18.1499556,12.9263888 C19.9188868,12.9263888 21.3528889,11.4795534 21.3528889,9.69479157 C21.3528889,7.91002971 19.9188868,6.46319436 18.1499556,6.46319436 L0,6.46319436 L0,1.22911713e-11 L18.1499556,1.22911713e-11 C23.4567493,1.22911713e-11 27.7587555,4.34050604 27.7587555,9.69479157 C27.7587555,12.1778036 26.8335768,14.4427947 25.3120556,16.1579859 C26.8335768,17.8731771 27.7587555,20.1381683 27.7587555,22.6211803 Z" id="Path" fill="#FE815F" opacity="0.800000012"></path>
                                    <path d="M0,25.8527775 L15.5889381,25.8527775 C12.2776373,29.77738 7.00564864,32.3159718 1.06764444,32.3159718 C0.709241764,32.3159718 0.353265389,32.3067238 0,32.2884809 L0,25.8527775 L0,25.8527775 Z M18.8545351,19.3895831 L12.8117333,19.3895831 L12.8117333,12.9263888 L18.8545351,12.9263888 C19.0926185,13.9705499 19.2176,15.0512743 19.2176,16.1579859 C19.2176,17.2646976 19.0926185,18.3454219 18.8545351,19.3895831 Z M15.5889381,6.46319436 L1.12887477e-12,6.46319436 L1.12887477e-12,0.0274909856 C0.353265389,0.00924813966 0.709241764,0 1.06764444,0 C7.00564864,0 12.2776373,2.53859183 15.5889381,6.46319436 L15.5889381,6.46319436 Z" id="Shape" fill="#000000" opacity="0.119999997"></path>
                                    <path d="M0,1.22911713e-11 C8.84465618,1.22911713e-11 16.0146667,7.2341767 16.0146667,16.1579859 C16.0146667,25.0817952 8.84465618,32.3159718 0,32.3159718 L0,25.8527775 C5.3067937,25.8527775 9.60879999,21.5122715 9.60879999,16.1579859 C9.60879999,10.8037004 5.3067937,6.46319436 0,6.46319436 L0,1.22911713e-11 Z" id="Path" fill="#FF6238"></path>
                                </g>
                                <path d="M55.8466236,10.102101 C55.8466236,11.4342099 55.5964519,12.5836737 55.0961016,13.550527 C54.5957509,14.5173802 53.9358781,15.3123365 53.1164633,15.9354197 C52.2970485,16.5585029 51.3725016,17.0168561 50.3427944,17.310493 C49.3130874,17.6041299 48.2688932,17.7509462 47.2101801,17.7509462 L41.4670541,17.7509462 L41.4670541,2.53919785 L47.0361461,2.53919785 C48.1238648,2.53919785 49.1970645,2.6645288 50.2557773,2.91519446 C51.3144901,3.16586012 52.2571658,3.58124269 53.0838318,4.16135463 C53.9104982,4.74146659 54.5776222,5.51851845 55.0852244,6.49253357 C55.5928263,7.46654871 55.8466236,8.66972579 55.8466236,10.102101 Z M51.9743645,10.102101 C51.9743645,9.24267588 51.8329632,8.53007991 51.5501562,7.96429173 C51.2673492,7.39850351 50.8902793,6.9473121 50.4189345,6.61070394 C49.9475897,6.27409578 49.4109899,6.03417653 48.8091187,5.89093902 C48.2072476,5.74770148 47.5872573,5.67608381 46.949129,5.67608381 L45.1000165,5.67608381 L45.1000165,14.5710892 L46.862112,14.5710892 C47.5292461,14.5710892 48.1709905,14.4958906 48.7873644,14.3454912 C49.4037383,14.1950919 49.9475897,13.9480108 50.4189345,13.6042408 C50.8902793,13.2604708 51.2673492,12.8021176 51.5501562,12.2291675 C51.8329632,11.6562174 51.9743645,10.9472023 51.9743645,10.102101 Z M65.5707801,11.176377 C65.5707801,10.6177507 65.3931224,10.1379122 65.0378008,9.73684714 C64.6824792,9.33578209 64.1495053,9.13525256 63.4388622,9.13525256 C63.0907922,9.13525256 62.7717328,9.18896585 62.4816746,9.29639399 C62.1916163,9.40382213 61.937819,9.55063836 61.7202753,9.73684714 C61.5027317,9.92305592 61.3286992,10.1414899 61.1981728,10.3921555 C61.0676465,10.6428212 60.9951332,10.9042257 60.9806301,11.176377 L65.5707801,11.176377 Z M68.8556744,12.5299648 L68.8556744,12.9596752 C68.8556744,13.1029127 68.8484228,13.2389863 68.8339201,13.3679001 L60.9806301,13.3679001 C61.009636,13.6686988 61.100278,13.940846 61.2525587,14.1843498 C61.404839,14.4278536 61.6006255,14.6391258 61.8399239,14.8181727 C62.0792219,14.9972196 62.3475217,15.1368741 62.6448314,15.2371403 C62.9421412,15.3374066 63.2503237,15.387539 63.5693879,15.387539 C64.1350016,15.387539 64.6135906,15.2836933 65.0051693,15.0759989 C65.396748,14.8683045 65.7158073,14.5997382 65.9623569,14.2702919 L68.4423433,15.8172494 C67.9347414,16.5477607 67.2639914,17.1099596 66.4300739,17.5038627 C65.596156,17.8977639 64.628101,18.0947145 63.5258792,18.0947145 C62.7137159,18.0947145 61.9450731,17.9693836 61.2199272,17.7187179 C60.4947813,17.4680523 59.8602882,17.1028021 59.3164288,16.6229564 C58.7725695,16.1431107 58.34474,15.5522648 58.0329274,14.850401 C57.7211145,14.1485371 57.5652105,13.3464191 57.5652105,12.4440227 C57.5652105,11.5702738 57.7174889,10.7788984 58.0220502,10.0698727 C58.3266113,9.360847 58.7399383,8.75925843 59.2620433,8.26508902 C59.7841483,7.77091957 60.400513,7.38776494 61.1111558,7.11561368 C61.8217986,6.84346238 62.5904418,6.70738878 63.4171078,6.70738878 C64.2147683,6.70738878 64.9471547,6.83988149 65.6142888,7.10487091 C66.2814229,7.3698603 66.8542796,7.75301493 67.3328756,8.25434625 C67.811472,8.75567754 68.1849166,9.36442786 68.4532205,10.0806155 C68.7215244,10.7968031 68.8556744,11.6132447 68.8556744,12.5299648 Z M83.2787523,13.324929 C83.2787523,14.1557066 83.1119713,14.8539791 82.7784041,15.4197673 C82.4448372,15.9855555 82.0025046,16.4403278 81.4513941,16.7840978 C80.9002832,17.1278678 80.2730416,17.3749489 79.56965,17.5253482 C78.8662584,17.6757476 78.1447493,17.7509462 77.4051006,17.7509462 L71.2703978,17.7509462 L71.2703978,2.53919785 L77.4051006,2.53919785 C77.9997201,2.53919785 78.6088336,2.60007288 79.2324588,2.72182477 C79.8560842,2.84357666 80.4216897,3.05126795 80.9292916,3.34490487 C81.4368938,3.63854179 81.8502205,4.03601991 82.1692846,4.53735123 C82.4883491,5.03868255 82.6478787,5.67607996 82.6478787,6.44956254 C82.6478787,7.2946639 82.4158354,7.99293631 81.9517422,8.54440078 C81.4876486,9.09586522 80.8785355,9.49334337 80.1243837,9.73684714 L80.1243837,9.77981817 C80.5594714,9.85143694 80.9691724,9.98392964 81.3534999,10.1773003 C81.737827,10.370671 82.0713892,10.617752 82.3541962,10.9185507 C82.6370028,11.2193495 82.8617946,11.5702762 83.0285784,11.9713412 C83.1953618,12.3724063 83.2787523,12.8235977 83.2787523,13.324929 Z M79.0584247,6.94372952 C79.0584247,6.42807445 78.8590126,6.0520816 78.4601824,5.81573971 C78.0613525,5.57939778 77.4703674,5.4612286 76.68721,5.4612286 L74.8598515,5.4612286 L74.8598515,8.59811457 L76.8612441,8.59811457 C77.5573841,8.59811457 78.0976096,8.45846008 78.4819367,8.17914691 C78.8662642,7.89983377 79.0584247,7.48803208 79.0584247,6.94372952 Z M79.5587729,12.9811607 C79.5587729,12.3509156 79.3194783,11.9140478 78.840882,11.670544 C78.362286,11.4270402 77.7241672,11.3052901 76.9265068,11.3052901 L74.8598515,11.3052901 L74.8598515,14.7859444 L76.9482611,14.7859444 C77.2383193,14.7859444 77.5392503,14.7608782 77.8510632,14.7107451 C78.1628758,14.660612 78.4456783,14.5710898 78.6994794,14.4421761 C78.9532805,14.3132623 79.1599439,14.1306372 79.3194761,13.8942953 C79.479008,13.6579534 79.5587729,13.3535782 79.5587729,12.9811607 Z M91.9369498,13.0885883 L91.4801103,13.0885883 C91.0885316,13.0885883 90.693333,13.1064927 90.2945028,13.1423021 C89.8956726,13.1781115 89.5403564,13.2461483 89.2285438,13.3464146 C88.9167313,13.4466808 88.6593083,13.5934971 88.4562674,13.7868677 C88.2532265,13.9802384 88.1517077,14.2344811 88.1517077,14.5496037 C88.1517077,14.7501362 88.1988413,14.9220187 88.2931106,15.0652562 C88.3873794,15.2084937 88.5070267,15.323082 88.6520558,15.4090245 C88.7970849,15.494967 88.9638659,15.555842 89.152404,15.5916514 C89.3409418,15.6274608 89.5222255,15.6453652 89.6962605,15.6453652 C90.4214064,15.6453652 90.9761347,15.4484166 91.3604618,15.0545134 C91.7447892,14.6606102 91.9369498,14.1270585 91.9369498,13.4538421 L91.9369498,13.0885883 Z M85.3889159,8.51217249 C86.0270444,7.9105749 86.7703077,7.45938349 87.6187284,7.1585847 C88.4671487,6.85778591 89.3336851,6.70738878 90.2183629,6.70738878 C91.1320466,6.70738878 91.9043154,6.81839618 92.5351921,7.04041436 C93.1660691,7.26243251 93.6772891,7.60619738 94.0688681,8.07171933 C94.4604467,8.53724125 94.7468749,9.12450626 94.9281615,9.83353199 C95.1094477,10.5425577 95.2000897,11.3840655 95.2000897,12.3580806 L95.2000897,17.7509462 L91.9369498,17.7509462 L91.9369498,16.6122136 L91.8716871,16.6122136 C91.5961316,17.0562499 91.179179,17.4000148 90.6208169,17.6435186 C90.0624544,17.8870224 89.4569669,18.0087724 88.8043355,18.0087724 C88.3692482,18.0087724 87.9196644,17.9514783 87.4555712,17.8368883 C86.9914779,17.7222983 86.5672741,17.5360923 86.1829466,17.2782648 C85.7986195,17.0204372 85.4831857,16.6766723 85.2366362,16.2469598 C84.9900866,15.8172472 84.8668137,15.2872764 84.8668137,14.6570313 C84.8668137,13.8835487 85.0807283,13.2604748 85.5085644,12.787791 C85.9364005,12.3151072 86.4875032,11.949857 87.1618886,11.6920295 C87.8362743,11.434202 88.586789,11.2623195 89.4134551,11.176377 C90.2401214,11.0904345 91.0450211,11.0474639 91.8281784,11.0474639 L91.8281784,10.8755797 C91.8281784,10.3456009 91.6396435,9.95528453 91.2625676,9.70461885 C90.885492,9.45395321 90.4214054,9.32862225 89.8702948,9.32862225 C89.3626926,9.32862225 88.8732267,9.43604879 88.4018819,9.65090507 C87.9305371,9.86576134 87.528087,10.123585 87.1945201,10.4243838 L85.3889159,8.51217249 Z M104.967755,17.7509462 L104.967755,11.9068847 C104.967755,11.6060859 104.942375,11.3196152 104.891615,11.0474639 C104.840855,10.7753126 104.757464,10.5353934 104.641441,10.327699 C104.525418,10.1200046 104.362262,9.95528387 104.15197,9.83353199 C103.941678,9.7117801 103.677003,9.65090507 103.357939,9.65090507 C103.038875,9.65090507 102.759698,9.7117801 102.5204,9.83353199 C102.281102,9.95528387 102.08169,10.1235854 101.922158,10.3384417 C101.762626,10.553298 101.642979,10.800379 101.563212,11.0796922 C101.483446,11.3590053 101.443564,11.649057 101.443564,11.9498557 L101.443564,17.7509462 L97.8541102,17.7509462 L97.8541102,7.05115709 L101.313038,7.05115709 L101.313038,8.53365802 L101.356547,8.53365802 C101.487073,8.30447799 101.65748,8.07888227 101.867772,7.85686412 C102.078064,7.63484597 102.32461,7.44505909 102.607417,7.28749783 C102.890224,7.12993655 103.198406,7.00102473 103.531973,6.90075846 C103.86554,6.8004922 104.220857,6.75035983 104.597932,6.75035983 C105.323078,6.75035983 105.939443,6.87927165 106.447045,7.1370992 C106.954647,7.39492672 107.364348,7.72794895 107.676161,8.13617588 C107.987974,8.54440281 108.212765,9.01349864 108.350543,9.54347746 C108.488321,10.0734563 108.557209,10.6034271 108.557209,11.133406 L108.557209,17.7509462 L104.967755,17.7509462 Z M122.893269,17.7509462 L118.477154,17.7509462 L114.931208,12.6159068 L114.865945,12.6159068 L114.865945,17.7509462 L111.276492,17.7509462 L111.276492,1.50789288 L114.865945,1.50789288 L114.865945,11.3912322 L114.931208,11.3912322 L118.390136,7.05115709 L122.719235,7.05115709 L118.542417,11.8853992 L122.893269,17.7509462 Z" id="DeBank" fill="#FFFFFF"></path>
                                <path d="M45.6102364,30.0070682 L45.6102364,26.7004746 L48.4216817,22.3814386 L46.8785577,22.3814386 L44.9760758,25.5910962 L43.094733,22.3814386 L41.4670541,22.3814386 L44.2784994,26.7004746 L44.2784994,30.0070682 L45.6102364,30.0070682 Z M50.4615646,30.1578575 C50.8420611,30.1578575 51.2014187,30.0896433 51.5396378,29.9532149 C51.8778566,29.8167865 52.1702752,29.6282999 52.4168932,29.3877551 C52.6635113,29.1472103 52.8590439,28.8581975 53.0034917,28.5207167 C53.1479392,28.1832359 53.2201631,27.8098529 53.2201631,27.4005677 C53.2201631,26.9912825 53.1479392,26.6196946 53.0034917,26.285804 C52.8590439,25.9519135 52.6635113,25.6664909 52.4168932,25.4295363 C52.1702752,25.1925817 51.8778566,25.0094804 51.5396378,24.8802325 C51.2014187,24.7509845 50.8420611,24.6863605 50.4615646,24.6863605 C50.0810685,24.6863605 49.7217109,24.7509845 49.3834917,24.8802325 C49.0452729,25.0094804 48.7528543,25.1925817 48.5062363,25.4295363 C48.2596183,25.6664909 48.0640857,25.9519135 47.9196378,26.285804 C47.7751903,26.6196946 47.7029664,26.9912825 47.7029664,27.4005677 C47.7029664,27.8098529 47.7751903,28.1832359 47.9196378,28.5207167 C48.0640857,28.8581975 48.2596183,29.1472103 48.5062363,29.3877551 C48.7528543,29.6282999 49.0452729,29.8167865 49.3834917,29.9532149 C49.7217109,30.0896433 50.0810685,30.1578575 50.4615646,30.1578575 Z M50.4615646,29.0807912 C50.2079004,29.0807912 49.9894674,29.0305281 49.8062655,28.9300019 C49.6230636,28.8294757 49.4715696,28.7002278 49.3517838,28.542258 C49.231998,28.3842883 49.1421586,28.2047772 49.0822657,28.0037249 C49.0223725,27.8026725 48.9924262,27.6016201 48.9924262,27.4005677 C48.9924262,27.1995153 49.0223725,27.0002581 49.0822657,26.8027959 C49.1421586,26.6053337 49.231998,26.4276178 49.3517838,26.269648 C49.4715696,26.1116783 49.6230636,25.9842255 49.8062655,25.8872895 C49.9894674,25.7903535 50.2079004,25.7418856 50.4615646,25.7418856 C50.7152291,25.7418856 50.9336622,25.7903535 51.1168641,25.8872895 C51.300066,25.9842255 51.45156,26.1116783 51.5713457,26.269648 C51.6911315,26.4276178 51.780971,26.6053337 51.8408639,26.8027959 C51.9007568,27.0002581 51.9307034,27.1995153 51.9307034,27.4005677 C51.9307034,27.6016201 51.9007568,27.8026725 51.8408639,28.0037249 C51.780971,28.2047772 51.6911315,28.3842883 51.5713457,28.542258 C51.45156,28.7002278 51.300066,28.8294757 51.1168641,28.9300019 C50.9336622,29.0305281 50.7152291,29.0807912 50.4615646,29.0807912 Z M56.2747032,30.1578575 C56.6551996,30.1578575 56.9846106,30.0591264 57.2629366,29.8616643 C57.5412628,29.6642021 57.7367954,29.4362231 57.8495353,29.1777272 L57.8706738,29.1777272 L57.8706738,30.0070682 L59.075579,30.0070682 L59.075579,24.8371498 L57.8072577,24.8371498 L57.8072577,27.680605 C57.8072577,27.8529356 57.782596,28.0234711 57.7332725,28.1922115 C57.6839487,28.3609519 57.6117251,28.509946 57.5166011,28.639194 C57.4214767,28.7684419 57.2981677,28.8743535 57.146674,28.9569286 C56.99518,29.0395036 56.8207859,29.0807912 56.6234914,29.0807912 C56.419151,29.0807912 56.255326,29.0377085 56.132017,28.9515432 C56.0087079,28.8653779 55.9118223,28.7558762 55.84136,28.623038 C55.7708977,28.4901998 55.7250975,28.3412056 55.7039587,28.1760555 C55.6828202,28.0109053 55.6722507,27.8529356 55.6722507,27.7021463 L55.6722507,24.8371498 L54.4039295,24.8371498 L54.4039295,28.0683488 C54.4039295,28.3340252 54.4391606,28.5925211 54.5096229,28.8438366 C54.5800852,29.0951521 54.6910635,29.3177458 54.8425572,29.5116177 C54.9940512,29.7054897 55.1878225,29.8616643 55.4238711,29.9801416 C55.6599197,30.0986189 55.9435305,30.1578575 56.2747032,30.1578575 Z M61.8658854,30.0070682 L61.8658854,27.2390078 C61.8658854,27.145662 61.883501,27.0200042 61.9187321,26.8620345 C61.9539633,26.7040648 62.0209023,26.5496853 62.1195496,26.398896 C62.2181969,26.2481067 62.3555982,26.1188588 62.531754,26.0111521 C62.7079097,25.9034455 62.9404354,25.8495922 63.2293307,25.8495922 C63.2857004,25.8495922 63.343832,25.8531824 63.4037248,25.8603628 C63.4636177,25.8675433 63.5358416,25.8819042 63.6203963,25.9034455 L63.6203963,24.7186725 C63.578119,24.7043116 63.5287952,24.6953361 63.4724255,24.6917459 C63.4160555,24.6881556 63.3632088,24.6863605 63.3138854,24.6863605 C62.9756665,24.6863605 62.6797247,24.7797063 62.4260605,24.9663978 C62.1723963,25.1530893 61.9751021,25.3972243 61.8341775,25.6988029 L61.8130387,25.6988029 L61.8130387,24.8371498 L60.5975641,24.8371498 L60.5975641,30.0070682 L61.8658854,30.0070682 Z M69.8034618,30.0070682 C70.2896514,30.0070682 70.7793642,29.9334687 71.2726003,29.7862696 C71.7658363,29.6390706 72.2097486,29.4110915 72.6043374,29.1023325 C72.9989261,28.7935735 73.3195297,28.3986492 73.5661477,27.9175595 C73.8127658,27.4364699 73.9360748,26.8620345 73.9360748,26.1942534 C73.9360748,25.4762092 73.8127658,24.8748471 73.5661477,24.3901673 C73.3195297,23.9054874 72.9989261,23.5141533 72.6043374,23.216165 C72.2097486,22.9181766 71.7658363,22.7045585 71.2726003,22.5753105 C70.7793642,22.4460625 70.2896514,22.3814386 69.8034618,22.3814386 L67.1505568,22.3814386 L67.1505568,30.0070682 L69.8034618,30.0070682 Z M68.4822939,28.8222953 L68.4822939,23.5446702 L69.592075,23.5446702 C69.9373399,23.5446702 70.2826052,23.5805724 70.6278705,23.6523768 C70.9731355,23.7241813 71.2849313,23.8570194 71.5632572,24.0508914 C71.8415832,24.2447633 72.068824,24.5140299 72.2449797,24.8586911 C72.4211355,25.2033524 72.5092133,25.6485398 72.5092133,26.1942534 C72.5092133,26.7112453 72.4211355,27.1384816 72.2449797,27.4759624 C72.068824,27.8134431 71.8415832,28.0809146 71.5632572,28.2783768 C71.2849313,28.4758389 70.9731355,28.6158576 70.6278705,28.6984327 C70.2826052,28.7810077 69.9373399,28.8222953 69.592075,28.8222953 L68.4822939,28.8222953 Z M77.5930672,30.1578575 C78.5443082,30.1578575 79.2700696,29.8131963 79.7703518,29.1238738 L78.9248043,28.4345514 C78.7838797,28.6427842 78.604201,28.8061393 78.385768,28.9246166 C78.167335,29.0430939 77.8995781,29.1023325 77.5824978,29.1023325 C77.3992959,29.1023325 77.2231402,29.0700205 77.0540306,29.0053965 C76.8849213,28.9407726 76.7334274,28.8528121 76.5995489,28.7415153 C76.4656705,28.6302184 76.3582158,28.4973803 76.2771841,28.3430007 C76.1961524,28.1886212 76.1485905,28.0180857 76.1344979,27.8313942 L79.9923081,27.8313942 C79.9993543,27.7739507 80.0028772,27.7165072 80.0028772,27.6590636 L80.0028772,27.486733 C80.0028772,27.0200042 79.9412227,26.6125142 79.8179137,26.2642627 C79.694605,25.9160113 79.5237338,25.6252034 79.3053007,25.391839 C79.0868677,25.1584746 78.8279186,24.9825538 78.5284539,24.8640765 C78.2289891,24.7455992 77.9031014,24.6863605 77.5507899,24.6863605 C77.1702934,24.6863605 76.8162204,24.7527796 76.4885709,24.8856178 C76.1609212,25.018456 75.8773104,25.2051475 75.6377389,25.4456923 C75.398167,25.6862371 75.2096806,25.977045 75.0722789,26.318116 C74.9348776,26.659187 74.8661769,27.0379554 74.8661769,27.454421 C74.8661769,27.8780671 74.9348776,28.2568354 75.0722789,28.590726 C75.2096806,28.9246166 75.3999286,29.2064489 75.6430234,29.4362231 C75.8861182,29.6659972 76.1732523,29.8437132 76.5044249,29.9693709 C76.8355976,30.0950287 77.1984784,30.1578575 77.5930672,30.1578575 Z M76.1344979,26.9051172 C76.1626828,26.5389146 76.308892,26.2391312 76.5731256,26.0057668 C76.8373592,25.7724024 77.159724,25.6557202 77.5402205,25.6557202 C77.7445612,25.6557202 77.9224782,25.6898273 78.0739722,25.7580416 C78.2254662,25.8262557 78.3505369,25.9178064 78.4491838,26.0326934 C78.5478311,26.1475805 78.620055,26.2804187 78.6658556,26.431208 C78.7116561,26.5819973 78.7345562,26.739967 78.7345562,26.9051172 L76.1344979,26.9051172 Z M82.6240744,30.0070682 L82.6240744,26.7974105 L85.9217092,26.7974105 L85.9217092,25.6557202 L82.6240744,25.6557202 L82.6240744,23.5662115 L86.1225266,23.5662115 L86.1225266,22.3814386 L81.292337,22.3814386 L81.292337,30.0070682 L82.6240744,30.0070682 Z M87.7396361,23.8570194 C87.9721615,23.8570194 88.1676944,23.7834199 88.3262346,23.6362208 C88.4847748,23.4890218 88.5640448,23.3041254 88.5640448,23.0815317 C88.5640448,22.858938 88.4847748,22.6740416 88.3262346,22.5268425 C88.1676944,22.3796434 87.9721615,22.3060439 87.7396361,22.3060439 C87.5071104,22.3060439 87.3151008,22.3832337 87.1636068,22.5376132 C87.0121131,22.6919927 86.9363659,22.8732989 86.9363659,23.0815317 C86.9363659,23.2897645 87.0121131,23.4710707 87.1636068,23.6254502 C87.3151008,23.7798297 87.5071104,23.8570194 87.7396361,23.8570194 Z M88.3843659,30.0070682 L88.3843659,24.8371498 L87.1160449,24.8371498 L87.1160449,30.0070682 L88.3843659,30.0070682 Z M95.2227306,30.0070682 L96.9772414,24.287846 L96.9983802,24.287846 L98.7528911,30.0070682 L100.042351,30.0070682 L102.230205,22.3814386 L100.813913,22.3814386 L99.334205,27.9821835 L99.3130662,27.9821835 L97.6959567,22.3814386 L96.3219423,22.3814386 L94.6731249,27.9821835 L94.6519861,27.9821835 L93.2039861,22.3814386 L91.7454168,22.3814386 L93.9332708,30.0070682 L95.2227306,30.0070682 Z M104.217241,30.1363162 C104.576599,30.1363162 104.897202,30.0627167 105.179051,29.9155176 C105.460901,29.7683185 105.665241,29.5798319 105.792073,29.3500578 L105.823781,29.3500578 L105.823781,30.0070682 L107.007548,30.0070682 L107.007548,26.8620345 C107.007548,26.6035386 106.974078,26.3450427 106.907139,26.0865468 C106.8402,25.8280508 106.722175,25.5946865 106.553066,25.3864536 C106.383956,25.1782208 106.153193,25.0094804 105.860774,24.8802325 C105.568355,24.7509845 105.196667,24.6863605 104.745708,24.6863605 C104.358166,24.6863605 103.975908,24.7545747 103.598935,24.8910031 C103.221962,25.0274315 102.889027,25.2320742 102.600132,25.504931 L103.255431,26.2911894 C103.417494,26.1260392 103.621835,25.9860206 103.868453,25.8711335 C104.115071,25.7562464 104.372258,25.6988029 104.640015,25.6988029 C104.957095,25.6988029 105.230137,25.7759926 105.459139,25.9303722 C105.688141,26.0847517 105.802643,26.3235014 105.802643,26.6466213 L105.802643,26.7758692 C105.408054,26.7758692 105.004657,26.7956154 104.592453,26.8351079 C104.180249,26.8746003 103.805037,26.9553803 103.466818,27.0774478 C103.128599,27.1995153 102.852034,27.3754362 102.637124,27.6052103 C102.422215,27.8349845 102.314759,28.1437435 102.314759,28.5314873 C102.314759,28.8330659 102.376414,29.0861765 102.499723,29.2908191 C102.623032,29.4954617 102.778049,29.6606119 102.964774,29.7862696 C103.151499,29.9119274 103.35584,30.0016829 103.577796,30.0555362 C103.799752,30.1093895 104.012901,30.1363162 104.217241,30.1363162 Z M104.470905,29.1561858 C104.365212,29.1561858 104.259518,29.1454152 104.153825,29.1238738 C104.048132,29.1023325 103.953007,29.0664303 103.868453,29.0161672 C103.783898,28.9659041 103.715197,28.899485 103.662351,28.8169099 C103.609504,28.7343349 103.583081,28.6320136 103.583081,28.509946 C103.583081,28.3160741 103.646497,28.1634897 103.773329,28.0521928 C103.900161,27.940896 104.058701,27.8547307 104.248949,27.7936969 C104.439197,27.7326632 104.647061,27.6931707 104.872541,27.6752196 C105.09802,27.6572685 105.31293,27.648293 105.51727,27.648293 L105.802643,27.648293 L105.802643,27.8313942 C105.802643,28.2406795 105.689903,28.5637993 105.464424,28.8007539 C105.238944,29.0377085 104.907772,29.1561858 104.470905,29.1561858 Z M109.776715,30.0070682 L109.776715,21.8644467 L108.508394,21.8644467 L108.508394,30.0070682 L109.776715,30.0070682 Z M112.609299,30.0070682 L112.609299,21.8644467 L111.340978,21.8644467 L111.340978,30.0070682 L112.609299,30.0070682 Z M116.583372,30.1578575 C117.534613,30.1578575 118.260374,29.8131963 118.760657,29.1238738 L117.915109,28.4345514 C117.774185,28.6427842 117.594506,28.8061393 117.376073,28.9246166 C117.15764,29.0430939 116.889883,29.1023325 116.572803,29.1023325 C116.389601,29.1023325 116.213445,29.0700205 116.044336,29.0053965 C115.875226,28.9407726 115.723732,28.8528121 115.589854,28.7415153 C115.455976,28.6302184 115.348521,28.4973803 115.267489,28.3430007 C115.186457,28.1886212 115.138895,28.0180857 115.124803,27.8313942 L118.982613,27.8313942 C118.989659,27.7739507 118.993182,27.7165072 118.993182,27.6590636 L118.993182,27.486733 C118.993182,27.0200042 118.931528,26.6125142 118.808219,26.2642627 C118.68491,25.9160113 118.514039,25.6252034 118.295605,25.391839 C118.077172,25.1584746 117.818224,24.9825538 117.518759,24.8640765 C117.219294,24.7455992 116.893406,24.6863605 116.541095,24.6863605 C116.160598,24.6863605 115.806525,24.7527796 115.478876,24.8856178 C115.151226,25.018456 114.867615,25.2051475 114.628044,25.4456923 C114.388472,25.6862371 114.199985,25.977045 114.062584,26.318116 C113.925182,26.659187 113.856482,27.0379554 113.856482,27.454421 C113.856482,27.8780671 113.925182,28.2568354 114.062584,28.590726 C114.199985,28.9246166 114.390233,29.2064489 114.633328,29.4362231 C114.876423,29.6659972 115.163557,29.8437132 115.49473,29.9693709 C115.825903,30.0950287 116.188783,30.1578575 116.583372,30.1578575 Z M115.124803,26.9051172 C115.152988,26.5389146 115.299197,26.2391312 115.56343,26.0057668 C115.827664,25.7724024 116.150029,25.6557202 116.530525,25.6557202 C116.734866,25.6557202 116.912783,25.6898273 117.064277,25.7580416 C117.215771,25.8262557 117.340842,25.9178064 117.439489,26.0326934 C117.538136,26.1475805 117.61036,26.2804187 117.65616,26.431208 C117.701961,26.5819973 117.724861,26.739967 117.724861,26.9051172 L115.124803,26.9051172 Z M122.026583,30.1147749 C122.167508,30.1147749 122.315479,30.1022091 122.470496,30.0770775 C122.625513,30.051946 122.759391,30.0178389 122.872131,29.9747563 L122.829853,28.9623139 C122.752345,28.9982161 122.664267,29.0251428 122.56562,29.0430939 C122.466973,29.061045 122.375372,29.0700205 122.290817,29.0700205 C122.008968,29.0700205 121.827528,28.9946259 121.746496,28.8438366 C121.665464,28.6930473 121.624948,28.5027656 121.624948,28.2729914 L121.624948,25.8711335 L122.893269,25.8711335 L122.893269,24.8371498 L121.624948,24.8371498 L121.624948,23.3400276 L120.377766,23.3400276 L120.377766,24.8371498 L119.489941,24.8371498 L119.489941,25.8711335 L120.377766,25.8711335 L120.377766,28.2837621 C120.377766,28.5350776 120.400666,28.770237 120.446467,28.9892406 C120.492267,29.2082441 120.576822,29.402116 120.700131,29.5708564 C120.82344,29.7395968 120.990788,29.872435 121.202175,29.9693709 C121.413562,30.0663069 121.688365,30.1147749 122.026583,30.1147749 Z" id="YourDeFiWallet" fill="#FFFFFF" opacity="0.600000024"></path>
                            </g>
                        </g>
                    </g>
                </g>
            </g>
        </g>
    </g>
</svg>