<svg width="180" height="44" viewBox="0 0 180 44" fill="none" xmlns="http://www.w3.org/2000/svg">
<path opacity="0.8" d="M27.7588 28.6212C27.7588 33.9755 23.4567 38.316 18.15 38.316H0V31.8528H18.15C19.9189 31.8528 21.3529 30.4059 21.3529 28.6212C21.3529 26.8364 19.9189 25.3896 18.15 25.3896H11.7441V18.9264H18.15C19.9189 18.9264 21.3529 17.4796 21.3529 15.6948C21.3529 13.91 19.9189 12.4632 18.15 12.4632H0V6H18.15C23.4567 6 27.7588 10.3405 27.7588 15.6948C27.7588 18.1778 26.8336 20.4428 25.3121 22.158C26.8336 23.8732 27.7588 26.1382 27.7588 28.6212Z" fill="#FE815F"/>
<path opacity="0.12" fill-rule="evenodd" clip-rule="evenodd" d="M0 12.4632H15.5889C12.2776 8.53859 7.00565 6 1.06764 6C0.709242 6 0.353265 6.00925 0 6.02749V12.4632ZM18.8545 25.3896H12.8117V18.9264H18.8545C19.0926 19.9705 19.2176 21.0513 19.2176 22.158C19.2176 23.2647 19.0926 24.3454 18.8545 25.3896ZM0 31.8528H15.5889C12.2776 35.7774 7.00565 38.316 1.06764 38.316C0.709242 38.316 0.353265 38.3067 0 38.2885V31.8528Z" fill="black"/>
<path d="M0 6C8.84466 6 16.0147 13.2342 16.0147 22.158C16.0147 31.0818 8.84466 38.316 0 38.316V31.8528C5.30679 31.8528 9.6088 27.5123 9.6088 22.158C9.6088 16.8037 5.30679 12.4632 0 12.4632V6Z" fill="#FF6238"/>
<path fill-rule="evenodd" clip-rule="evenodd" d="M118.477 23.7509H122.893L118.542 17.8853L122.719 13.0511H118.39L114.931 17.3912H114.866V7.50781H111.276V23.7509H114.866V18.6158H114.931L118.477 23.7509ZM82.7785 21.4196C83.1121 20.8538 83.2789 20.1556 83.2789 19.3248C83.2789 18.8235 83.1955 18.3723 83.0287 17.9712C82.8619 17.5701 82.6371 17.2192 82.3543 16.9184C82.0715 16.6176 81.7379 16.3705 81.3536 16.1772C80.9693 15.9838 80.5596 15.8513 80.1245 15.7797V15.7367C80.8786 15.4932 81.4878 15.0957 81.9519 14.5443C82.4159 13.9928 82.648 13.2945 82.648 12.4494C82.648 11.6759 82.4885 11.0385 82.1694 10.5372C81.8503 10.0359 81.437 9.63841 80.9294 9.34477C80.4218 9.05113 79.8562 8.84344 79.2326 8.72169C78.6089 8.59994 77.9998 8.53906 77.4052 8.53906H71.2705V23.7508H77.4052C78.1449 23.7508 78.8664 23.6756 79.5698 23.5252C80.2732 23.3748 80.9004 23.1277 81.4515 22.784C82.0026 22.4402 82.4449 21.9854 82.7785 21.4196ZM55.8464 16.102C55.8464 17.4341 55.5962 18.5836 55.0958 19.5504C54.5955 20.5173 53.9356 21.3123 53.1162 21.9353C52.2968 22.5584 51.3722 23.0168 50.3425 23.3104C49.3128 23.604 48.2686 23.7509 47.2099 23.7509H41.4668V8.53912H47.0359C48.1236 8.53912 49.1968 8.66445 50.2555 8.91511C51.3142 9.16578 52.2569 9.58116 53.0836 10.1613C53.9102 10.7414 54.5774 11.5184 55.085 12.4925C55.5926 13.4665 55.8464 14.6696 55.8464 16.102ZM51.9741 16.102C51.9741 15.2426 51.8327 14.53 51.5499 13.9642C51.2671 13.3984 50.89 12.9472 50.4187 12.6106C49.9473 12.274 49.4107 12.0341 48.8089 11.8909C48.207 11.7476 47.587 11.676 46.9489 11.676H45.0998V20.571H46.8619C47.529 20.571 48.1707 20.4958 48.7871 20.3454C49.4035 20.195 49.9473 19.9479 50.4187 19.6042C50.89 19.2604 51.2671 18.802 51.5499 18.2291C51.8327 17.6561 51.9741 16.9471 51.9741 16.102ZM65.0375 15.7368C65.3929 16.1378 65.5705 16.6177 65.5705 17.1763H60.9804C60.9949 16.9041 61.0674 16.6427 61.1979 16.3921C61.3284 16.1414 61.5025 15.923 61.72 15.7368C61.9376 15.5506 62.1914 15.4037 62.4814 15.2963C62.7715 15.1889 63.0905 15.1352 63.4386 15.1352C64.1492 15.1352 64.6822 15.3357 65.0375 15.7368ZM68.8559 18.5299V18.9596C68.8559 19.1028 68.8486 19.2389 68.8341 19.3678H60.9809C61.0099 19.6686 61.1005 19.9407 61.2528 20.1842C61.4051 20.4277 61.6008 20.639 61.8401 20.8181C62.0794 20.9971 62.3477 21.1368 62.6451 21.237C62.9424 21.3373 63.2505 21.3874 63.5696 21.3874C64.1352 21.3874 64.6138 21.2836 65.0054 21.0759C65.397 20.8682 65.716 20.5996 65.9626 20.2702L68.4426 21.8171C67.935 22.5476 67.2642 23.1098 66.4303 23.5037C65.5964 23.8976 64.6283 24.0946 63.5261 24.0946C62.7139 24.0946 61.9453 23.9693 61.2201 23.7186C60.495 23.4679 59.8605 23.1027 59.3166 22.6228C58.7728 22.143 58.345 21.5522 58.0331 20.8503C57.7213 20.1484 57.5654 19.3463 57.5654 18.4439C57.5654 17.5702 57.7177 16.7788 58.0223 16.0698C58.3268 15.3607 58.7402 14.7591 59.2623 14.265C59.7844 13.7708 60.4007 13.3877 61.1114 13.1155C61.822 12.8433 62.5907 12.7073 63.4173 12.7073C64.215 12.7073 64.9474 12.8398 65.6145 13.1048C66.2816 13.3697 66.8545 13.7529 67.3331 14.2542C67.8117 14.7556 68.1851 15.3643 68.4534 16.0805C68.7217 16.7967 68.8559 17.6131 68.8559 18.5299ZM79.0582 12.9436C79.0582 12.428 78.8588 12.052 78.4599 11.8157C78.0611 11.5793 77.4701 11.4611 76.687 11.4611H74.8596V14.598H76.861C77.5571 14.598 78.0974 14.4584 78.4817 14.1791C78.866 13.8998 79.0582 13.488 79.0582 12.9436ZM78.8406 17.6705C79.3192 17.914 79.5585 18.3508 79.5585 18.9811C79.5585 19.3535 79.4787 19.6579 79.3192 19.8942C79.1597 20.1306 78.953 20.3132 78.6992 20.4421C78.4454 20.571 78.1626 20.6605 77.8508 20.7107C77.539 20.7608 77.2381 20.7859 76.948 20.7859H74.8596V17.3052H76.9262C77.7239 17.3052 78.362 17.427 78.8406 17.6705ZM91.9367 19.0885H91.4799C91.0883 19.0885 90.6931 19.1064 90.2942 19.1422C89.8954 19.178 89.5401 19.2461 89.2283 19.3463C88.9165 19.4466 88.659 19.5934 88.456 19.7868C88.253 19.9802 88.1515 20.2344 88.1515 20.5495C88.1515 20.7501 88.1986 20.9219 88.2929 21.0652C88.3871 21.2084 88.5068 21.323 88.6518 21.4089C88.7968 21.4949 88.9636 21.5558 89.1521 21.5916C89.3407 21.6274 89.522 21.6453 89.696 21.6453C90.4212 21.6453 90.9759 21.4483 91.3602 21.0544C91.7445 20.6605 91.9367 20.127 91.9367 19.4538V19.0885ZM87.6181 13.1585C86.7697 13.4593 86.0264 13.9105 85.3883 14.5121L87.1939 16.4243C87.5275 16.1235 87.9299 15.8656 88.4013 15.6508C88.8726 15.4359 89.3621 15.3285 89.8697 15.3285C90.4208 15.3285 90.8849 15.4538 91.262 15.7045C91.639 15.9552 91.8276 16.3455 91.8276 16.8755V17.0473C91.0444 17.0473 90.2395 17.0903 89.4129 17.1763C88.5862 17.2622 87.8357 17.4341 87.1613 17.6919C86.4869 17.9497 85.9358 18.315 85.508 18.7877C85.0801 19.2604 84.8662 19.8834 84.8662 20.6569C84.8662 21.2872 84.9895 21.8171 85.236 22.2468C85.4826 22.6766 85.798 23.0203 86.1823 23.2782C86.5667 23.536 86.9909 23.7222 87.455 23.8368C87.9191 23.9514 88.3686 24.0087 88.8037 24.0087C89.4564 24.0087 90.0619 23.8869 90.6202 23.6434C91.1786 23.3999 91.5955 23.0561 91.8711 22.6121H91.9363V23.7508H95.1995V18.358C95.1995 17.384 95.1088 16.5424 94.9276 15.8334C94.7463 15.1244 94.4598 14.5371 94.0683 14.0716C93.6767 13.6061 93.1655 13.2623 92.5346 13.0403C91.9037 12.8183 91.1314 12.7073 90.2178 12.7073C89.3331 12.7073 88.4665 12.8577 87.6181 13.1585ZM104.967 23.7508V17.9068C104.967 17.606 104.942 17.3195 104.891 17.0473C104.84 16.7752 104.757 16.5353 104.641 16.3276C104.525 16.1199 104.362 15.9552 104.151 15.8334C103.941 15.7117 103.676 15.6508 103.357 15.6508C103.038 15.6508 102.759 15.7117 102.52 15.8334C102.281 15.9552 102.081 16.1235 101.922 16.3383C101.762 16.5532 101.642 16.8003 101.563 17.0796C101.483 17.3589 101.443 17.6489 101.443 17.9497V23.7508H97.8535V13.051H101.312V14.5335H101.356C101.486 14.3044 101.657 14.0788 101.867 13.8567C102.077 13.6347 102.324 13.4449 102.607 13.2874C102.89 13.1298 103.198 13.0009 103.531 12.9006C103.865 12.8004 104.22 12.7502 104.597 12.7502C105.322 12.7502 105.939 12.8792 106.446 13.137C106.954 13.3948 107.364 13.7278 107.676 14.1361C107.987 14.5443 108.212 15.0134 108.35 15.5434C108.488 16.0733 108.557 16.6033 108.557 17.1333V23.7508H104.967Z" fill="#19233C"/>
<path opacity="0.6" fill-rule="evenodd" clip-rule="evenodd" d="M109.776 27.8643V36.0069H108.508V27.8643H109.776ZM87.7398 29.8569C87.9723 29.8569 88.1679 29.7833 88.3264 29.6361C88.4849 29.4889 88.5642 29.304 88.5642 29.0814C88.5642 28.8588 88.4849 28.6739 88.3264 28.5267C88.1679 28.3795 87.9723 28.3059 87.7398 28.3059C87.5073 28.3059 87.3153 28.3831 87.1638 28.5375C87.0123 28.6919 86.9365 28.8732 86.9365 29.0814C86.9365 29.2896 87.0123 29.4709 87.1638 29.6253C87.3153 29.7797 87.5073 29.8569 87.7398 29.8569ZM45.61 32.7003V36.0069H44.2782V32.7003L41.4668 28.3812H43.0945L44.9758 31.5909L46.8783 28.3812H48.4214L45.61 32.7003ZM51.5398 35.9531C51.2016 36.0896 50.8422 36.1578 50.4617 36.1578C50.0812 36.1578 49.7219 36.0896 49.3837 35.9531C49.0454 35.8167 48.753 35.6282 48.5064 35.3877C48.2598 35.1471 48.0642 34.8581 47.9198 34.5206C47.7753 34.1832 47.7031 33.8098 47.7031 33.4005C47.7031 32.9912 47.7753 32.6196 47.9198 32.2857C48.0642 31.9518 48.2598 31.6664 48.5064 31.4295C48.753 31.1925 49.0454 31.0094 49.3837 30.8802C49.7219 30.7509 50.0812 30.6863 50.4617 30.6863C50.8422 30.6863 51.2016 30.7509 51.5398 30.8802C51.878 31.0094 52.1704 31.1925 52.4171 31.4295C52.6637 31.6664 52.8592 31.9518 53.0037 32.2857C53.1481 32.6196 53.2203 32.9912 53.2203 33.4005C53.2203 33.8098 53.1481 34.1832 53.0037 34.5206C52.8592 34.8581 52.6637 35.1471 52.4171 35.3877C52.1704 35.6282 51.878 35.8167 51.5398 35.9531ZM50.4613 35.0806C50.2076 35.0806 49.9892 35.0303 49.806 34.9298C49.6228 34.8293 49.4713 34.7 49.3515 34.5421C49.2317 34.3841 49.1419 34.2046 49.082 34.0035C49.0221 33.8025 48.9922 33.6014 48.9922 33.4004C48.9922 33.1993 49.0221 33.0001 49.082 32.8026C49.1419 32.6051 49.2317 32.4274 49.3515 32.2695C49.4713 32.1115 49.6228 31.984 49.806 31.8871C49.9892 31.7902 50.2076 31.7417 50.4613 31.7417C50.715 31.7417 50.9334 31.7902 51.1166 31.8871C51.2998 31.984 51.4513 32.1115 51.5711 32.2695C51.6909 32.4274 51.7807 32.6051 51.8406 32.8026C51.9005 33.0001 51.9304 33.1993 51.9304 33.4004C51.9304 33.6014 51.9005 33.8025 51.8406 34.0035C51.7807 34.2046 51.6909 34.3841 51.5711 34.5421C51.4513 34.7 51.2998 34.8293 51.1166 34.9298C50.9334 35.0303 50.715 35.0806 50.4613 35.0806ZM57.2623 35.8614C56.984 36.0589 56.6546 36.1576 56.2741 36.1576C55.9429 36.1576 55.6593 36.0984 55.4233 35.9799C55.1872 35.8614 54.9934 35.7053 54.8419 35.5114C54.6905 35.3175 54.5795 35.0949 54.509 34.8436C54.4386 34.5923 54.4033 34.3338 54.4033 34.0681V30.8369H55.6716V33.7019C55.6716 33.8527 55.6822 34.0107 55.7033 34.1758C55.7245 34.341 55.7703 34.49 55.8408 34.6228C55.9112 34.7556 56.0081 34.8651 56.1314 34.9513C56.2547 35.0375 56.4185 35.0806 56.6229 35.0806C56.8202 35.0806 56.9946 35.0393 57.1461 34.9567C57.2976 34.8741 57.4209 34.7682 57.516 34.639C57.6111 34.5097 57.6833 34.3607 57.7327 34.192C57.782 34.0232 57.8066 33.8527 57.8066 33.6804V30.8369H59.075V36.0068H57.8701V35.1775H57.8489C57.7362 35.436 57.5407 35.664 57.2623 35.8614ZM61.866 36.007V33.2389C61.866 33.1456 61.8836 33.0199 61.9188 32.862C61.9541 32.704 62.021 32.5496 62.1196 32.3988C62.2183 32.248 62.3557 32.1188 62.5318 32.0111C62.708 31.9034 62.9405 31.8495 63.2294 31.8495C63.2858 31.8495 63.3439 31.8531 63.4038 31.8603C63.4637 31.8675 63.5359 31.8818 63.6205 31.9034V30.7186C63.5782 30.7042 63.5289 30.6953 63.4725 30.6917C63.4161 30.6881 63.3633 30.6863 63.314 30.6863C62.9758 30.6863 62.6798 30.7796 62.4262 30.9663C62.1725 31.153 61.9752 31.3971 61.8343 31.6987H61.8131V30.8371H60.5977V36.007H61.866ZM71.2723 35.7861C70.7791 35.9333 70.2894 36.0069 69.8032 36.0069H67.1503V28.3812H69.8032C70.2894 28.3812 70.7791 28.4459 71.2723 28.5751C71.7656 28.7044 72.2095 28.918 72.6041 29.216C72.9987 29.514 73.3193 29.9053 73.5659 30.39C73.8125 30.8747 73.9358 31.476 73.9358 32.1941C73.9358 32.8618 73.8125 33.4363 73.5659 33.9174C73.3193 34.3985 72.9987 34.7934 72.6041 35.1021C72.2095 35.4109 71.7656 35.6389 71.2723 35.7861ZM68.4824 34.8221V29.5444H69.5922C69.9375 29.5444 70.2827 29.5803 70.628 29.6521C70.9733 29.7239 71.2851 29.8568 71.5634 30.0507C71.8417 30.2445 72.069 30.5138 72.2451 30.8585C72.4213 31.2031 72.5093 31.6483 72.5093 32.194C72.5093 32.711 72.4213 33.1382 72.2451 33.4757C72.069 33.8132 71.8417 34.0807 71.5634 34.2781C71.2851 34.4756 70.9733 34.6156 70.628 34.6982C70.2827 34.7808 69.9375 34.8221 69.5922 34.8221H68.4824ZM79.7704 35.1238C79.2701 35.8131 78.5443 36.1578 77.5931 36.1578C77.1985 36.1578 76.8356 36.0949 76.5045 35.9693C76.1733 35.8436 75.8862 35.6659 75.6431 35.4361C75.4 35.2064 75.2097 34.9245 75.0723 34.5906C74.9349 34.2568 74.8662 33.878 74.8662 33.4543C74.8662 33.0379 74.9349 32.6591 75.0723 32.318C75.2097 31.977 75.3982 31.6862 75.6378 31.4456C75.8773 31.2051 76.161 31.0184 76.4886 30.8855C76.8163 30.7527 77.1703 30.6863 77.5508 30.6863C77.9031 30.6863 78.229 30.7455 78.5285 30.864C78.828 30.9825 79.0869 31.1584 79.3053 31.3918C79.5238 31.6251 79.6946 31.9159 79.8179 32.2642C79.9413 32.6124 80.0029 33.0199 80.0029 33.4867V33.659C80.0029 33.7164 79.9994 33.7739 79.9923 33.8313H76.1345C76.1486 34.018 76.1962 34.1885 76.2772 34.3429C76.3582 34.4973 76.4657 34.6301 76.5996 34.7414C76.7335 34.8527 76.885 34.9407 77.0541 35.0053C77.2232 35.0699 77.3993 35.1023 77.5825 35.1023C77.8996 35.1023 78.1674 35.043 78.3858 34.9245C78.6042 34.8061 78.7839 34.6427 78.9248 34.4345L79.7704 35.1238ZM76.1338 32.9049C76.162 32.5387 76.3082 32.2389 76.5724 32.0056C76.8367 31.7722 77.159 31.6555 77.5395 31.6555C77.7439 31.6555 77.9218 31.6896 78.0733 31.7578C78.2248 31.8261 78.3498 31.9176 78.4485 32.0325C78.5471 32.1474 78.6193 32.2802 78.6651 32.431C78.7109 32.5818 78.7338 32.7398 78.7338 32.9049H76.1338ZM82.6238 32.7972V36.0069H81.2921V28.3812H86.1223V29.566H82.6238V31.6555H85.9215V32.7972H82.6238ZM88.3845 30.8369V36.0068H87.1162V30.8369H88.3845ZM95.2225 36.0069L96.977 30.2877H96.9981L98.7526 36.0069H100.042L102.23 28.3812H100.814L99.3339 33.982H99.3128L97.6957 28.3812H96.3217L94.6729 33.982H94.6517L93.2037 28.3812H91.7452L93.933 36.0069H95.2225ZM105.179 35.9153C104.897 36.0625 104.576 36.1361 104.217 36.1361C104.013 36.1361 103.799 36.1092 103.578 36.0553C103.356 36.0015 103.151 35.9117 102.965 35.7861C102.778 35.6604 102.623 35.4953 102.499 35.2906C102.376 35.086 102.315 34.8329 102.315 34.5313C102.315 34.1436 102.422 33.8348 102.637 33.605C102.852 33.3752 103.128 33.1993 103.467 33.0773C103.805 32.9552 104.18 32.8744 104.592 32.8349C105.004 32.7954 105.408 32.7757 105.802 32.7757V32.6464C105.802 32.3233 105.688 32.0846 105.459 31.9302C105.23 31.7758 104.957 31.6986 104.64 31.6986C104.372 31.6986 104.115 31.7561 103.868 31.8709C103.622 31.9858 103.417 32.1259 103.255 32.291L102.6 31.5047C102.889 31.2319 103.222 31.0272 103.599 30.8908C103.976 30.7544 104.358 30.6862 104.745 30.6862C105.196 30.6862 105.568 30.7508 105.861 30.88C106.153 31.0093 106.384 31.178 106.553 31.3863C106.722 31.5945 106.84 31.8279 106.907 32.0864C106.974 32.3449 107.007 32.6033 107.007 32.8618V36.0069H105.824V35.3499H105.792C105.665 35.5796 105.461 35.7681 105.179 35.9153ZM104.471 35.156C104.365 35.156 104.259 35.1452 104.154 35.1237C104.048 35.1021 103.953 35.0662 103.868 35.016C103.784 34.9657 103.715 34.8993 103.662 34.8167C103.609 34.7341 103.583 34.6318 103.583 34.5098C103.583 34.3159 103.646 34.1633 103.773 34.052C103.9 33.9407 104.058 33.8545 104.249 33.7935C104.439 33.7325 104.647 33.693 104.872 33.675C105.098 33.6571 105.313 33.6481 105.517 33.6481H105.802V33.8312C105.802 34.2405 105.69 34.5636 105.464 34.8006C105.239 35.0375 104.908 35.156 104.471 35.156ZM112.609 36.0069V27.8643H111.341V36.0069H112.609ZM118.76 35.1237C118.26 35.813 117.534 36.1577 116.583 36.1577C116.189 36.1577 115.826 36.0948 115.494 35.9692C115.163 35.8435 114.876 35.6658 114.633 35.436C114.39 35.2063 114.2 34.9244 114.062 34.5905C113.925 34.2566 113.856 33.8779 113.856 33.4542C113.856 33.0378 113.925 32.659 114.062 32.3179C114.2 31.9769 114.388 31.686 114.628 31.4455C114.867 31.205 115.151 31.0183 115.479 30.8854C115.806 30.7526 116.16 30.6862 116.541 30.6862C116.893 30.6862 117.219 30.7454 117.519 30.8639C117.818 30.9824 118.077 31.1583 118.295 31.3916C118.514 31.625 118.685 31.9158 118.808 32.2641C118.931 32.6123 118.993 33.0198 118.993 33.4865V33.6589C118.993 33.7163 118.989 33.7738 118.982 33.8312H115.125C115.139 34.0179 115.186 34.1884 115.267 34.3428C115.348 34.4972 115.456 34.63 115.59 34.7413C115.723 34.8526 115.875 34.9406 116.044 35.0052C116.213 35.0698 116.389 35.1021 116.573 35.1021C116.89 35.1021 117.157 35.0429 117.376 34.9244C117.594 34.806 117.774 34.6426 117.915 34.4344L118.76 35.1237ZM115.125 32.9049C115.153 32.5387 115.299 32.2389 115.564 32.0056C115.828 31.7722 116.15 31.6555 116.531 31.6555C116.735 31.6555 116.913 31.6896 117.064 31.7578C117.216 31.8261 117.341 31.9176 117.44 32.0325C117.538 32.1474 117.611 32.2802 117.656 32.431C117.702 32.5818 117.725 32.7398 117.725 32.9049H115.125ZM122.47 36.0769C122.315 36.102 122.167 36.1146 122.026 36.1146C121.688 36.1146 121.413 36.0661 121.201 35.9692C120.99 35.8723 120.823 35.7394 120.699 35.5707C120.576 35.4019 120.492 35.2081 120.446 34.9891C120.4 34.7701 120.377 34.5349 120.377 34.2836V31.8709H119.489V30.837H120.377V29.3398H121.624V30.837H122.893V31.8709H121.624V34.2728C121.624 34.5026 121.665 34.6929 121.746 34.8437C121.827 34.9944 122.008 35.0698 122.29 35.0698C122.375 35.0698 122.466 35.0609 122.565 35.0429C122.664 35.025 122.752 34.998 122.829 34.9621L122.871 35.9746C122.759 36.0177 122.625 36.0518 122.47 36.0769Z" fill="#19233C"/>
</svg>
