<?xml version="1.0" encoding="UTF-8"?>
<svg width="172px" height="43px" viewBox="0 0 172 43" version="1.1" xmlns="http://www.w3.org/2000/svg" xmlns:xlink="http://www.w3.org/1999/xlink">
    <title>DefiBox</title>
    <g id="HECO" stroke="none" stroke-width="1" fill="none" fill-rule="evenodd">
        <g id="合作伙伴" transform="translate(-3308.000000, -1414.000000)">
            <g id="编组-2备份-4" transform="translate(1920.000000, 903.000000)">
                <g id="编组-8" transform="translate(360.000000, 100.000000)">
                    <g id="编组-7" transform="translate(0.000000, 411.000000)">
                        <g id="DefiBox" transform="translate(1028.000000, 0.000000)">
                            <rect id="矩形" x="0" y="0" width="172" height="43"></rect>
                            <g transform="translate(0.000000, 7.371429)">
                                <path d="M25.055462,12.5277468 C25.055462,5.60888126 19.446626,0 12.5277604,0 L0.739225469,0 C0.330963297,0 0,0.330963252 0,0.739225424 L0,24.3162501 C0,24.7244965 0.330963297,25.0554936 0.739225469,25.0554936 L5.71446881,25.0554936 C6.12271517,25.0554936 6.45366712,24.7244965 6.45366712,24.3162501 L6.45366712,7.1654758 C6.45366712,6.75722944 6.78461908,6.42627748 7.19291062,6.42627748 L15.6098691,6.42627748 C16.0827609,6.42627748 16.1340345,6.89288993 15.7322933,7.14225586 L9.93643278,10.7402629 C9.71923144,10.8751102 9.5870946,11.1126403 9.5870946,11.3683308 L9.5870946,26.3988622 C9.5870946,26.9337792 10.1376422,27.2915651 10.6264807,27.074409 L17.0084867,24.2387298 C17.0084867,8.31639896 17.0085319,6.74724577 17.0085319,24.2303725 C21.7143651,22.4274387 25.055462,17.8677917 25.055462,12.5277468 Z M12.5277152,15.079456 L12.5277152,16.1282385 C12.5277152,16.5681977 13.0155599,16.8328779 13.3843685,16.5930439 L16.2878101,14.7050005 C16.6024087,14.5004482 16.7921889,14.1506582 16.7921889,13.7754348 L16.7921889,12.829832 C16.7921889,12.3962424 16.3168577,12.1304328 15.9474618,12.3574823 L13.0559012,14.1348018 C12.7277049,14.3365533 12.5277152,14.6942037 12.5277152,15.079456 Z" id="形状" fill="#13C09D"></path>
                                <path d="M79.8473911,6.00858955 L79.8473911,21.0642383 C79.8473911,21.2725853 80.0163456,21.4414946 80.2246023,21.4415398 C80.9022271,21.4417657 81.5798519,21.4424885 82.2574767,21.4433468 L82.260639,21.4433468 C82.9798248,21.4442503 83.6985588,21.445199 84.4181964,21.445199 C85.9080674,21.445199 87.0586744,21.4414946 88.1496503,21.4340859 C89.4412032,21.4248251 90.5683191,21.173878 91.5942431,20.667376 C92.8627568,20.0404827 93.6740995,18.9682092 93.8796457,17.6468409 C94.0833849,16.3402899 93.646091,14.9475902 92.766534,14.1003333 C92.5162646,13.8593699 92.2266929,13.6498483 91.9461563,13.4470126 L91.933959,13.4382487 L91.9027883,13.4157515 C91.7821711,13.3283831 91.6583916,13.2387108 91.5395814,13.1475025 L91.5287394,13.1391903 L91.5246736,13.1252764 C91.5183491,13.1002946 91.5156386,13.0882329 91.6321901,13.0225033 C92.031537,12.7993388 92.3802879,12.5104448 92.6703113,12.1631847 C93.2905639,11.420553 93.5701971,10.2862091 93.4007909,9.20377124 C93.2304812,8.11573166 92.6219741,7.19068345 91.6868518,6.59898146 C90.7128791,5.98229771 89.5618204,5.6619167 88.2652983,5.6480028 C86.7320592,5.63133323 85.1911404,5.62948106 84.019753,5.62948106 C83.4491929,5.62948106 82.879988,5.62948106 82.3094279,5.63042973 C81.8992391,5.63042973 81.4885984,5.63065561 81.0784095,5.63088148 C80.7938071,5.63101701 80.5092047,5.63119771 80.2246023,5.63128806 C80.0163456,5.63133323 79.8473911,5.80024251 79.8473911,6.00858955 Z M84.3382366,8.99659874 C84.1299799,8.99705049 83.9614772,9.16586942 83.9614772,9.37399059 L83.9614772,11.2805106 C83.9614772,11.4888124 84.1304317,11.6576766 84.3386884,11.6577669 L85.9320102,11.6585349 C86.5188333,11.6585349 87.2940361,11.6575862 88.0746598,11.6520297 C88.2255443,11.6511262 88.397661,11.6103783 88.6032072,11.5279792 C89.0906453,11.3325973 89.340463,10.9390329 89.3467875,10.3575404 C89.3544672,9.74731668 89.1118775,9.34263915 88.6257947,9.15466602 C88.383205,9.0602503 88.0958921,9.00653724 87.8162589,9.00373639 C87.3220445,8.99632769 86.7781377,8.99357202 86.1068374,8.99357202 C85.6681883,8.99357202 85.2295391,8.99456587 84.79089,8.99560489 C84.6400055,8.99596629 84.4891211,8.99628252 84.3382366,8.99659874 Z M88.0154806,17.9764827 C87.4358855,17.9792384 86.8178917,17.9801871 86.0133252,17.9801871 L84.3386884,17.9794191 C84.1304317,17.9793288 83.9614772,17.8104647 83.9614772,17.6021628 L83.9614772,15.2729856 C83.9614772,15.0646386 84.1304317,14.8957293 84.3386884,14.8956841 C84.4818931,14.895639 84.624646,14.8955938 84.7678508,14.8955486 C85.818621,14.895142 86.8693912,14.8947806 87.9201614,14.9003823 C88.1763036,14.9012858 88.4179897,14.9263128 88.6375402,14.9744693 C89.4014492,15.1402163 89.8256423,15.6985792 89.8016996,16.5060369 C89.7813709,17.1968076 89.2912222,17.7764479 88.6117904,17.9163097 C88.421152,17.9551601 88.2201233,17.9755341 88.0154806,17.9764827 Z" id="形状" fill="#FFFFFF"></path>
                                <path d="M95.1259295,15.9024087 C95.1215061,15.1423847 95.2796186,14.3904922 95.589519,13.6995408 C95.8980642,13.023723 96.338972,12.4196882 96.8846859,11.9247059 C97.4629257,11.4063229 98.1315155,11.0036783 98.8552188,10.7376428 C99.6548161,10.4404817 100.50004,10.2935726 101.350685,10.3039177 C102.194554,10.2940244 103.033905,10.4370032 103.828985,10.7262135 C104.556302,10.9875508 105.228506,11.3863556 105.810812,11.9018474 C106.366012,12.3984108 106.809631,13.0116161 107.111851,13.6995408 C107.424914,14.4175521 107.583026,15.1961881 107.574895,15.9823233 C107.582123,16.7695426 107.419945,17.5488111 107.100558,18.2651057 C106.791561,18.9489195 106.349297,19.5607696 105.79997,20.062754 C105.215857,20.5741349 104.538232,20.9620977 103.806849,21.2041452 C102.99641,21.485992 102.145313,21.6268476 101.289247,21.620749 C100.451251,21.6273445 99.6182244,21.4863986 98.8272103,21.2041452 C98.105314,20.950578 97.44079,20.550689 96.8733921,20.0285114 C96.326323,19.5150976 95.8890292,18.8913666 95.589519,18.1966205 C95.2827808,17.4723751 95.1251201,16.6915254 95.1259295,15.9024087 Z M98.9893885,15.9423886 C98.9839675,16.2795747 99.0485678,16.6140955 99.1791235,16.9239507 C99.301096,17.2118057 99.4732127,17.4747242 99.6868904,17.7001022 C99.8978575,17.9208723 100.150386,18.0956092 100.429567,18.2137418 C100.721398,18.3380633 101.03446,18.4020763 101.350685,18.4020763 C101.66691,18.4020763 101.979973,18.3380633 102.271803,18.2137418 C102.552792,18.0962416 102.807127,17.9215048 103.019901,17.7001022 C103.229965,17.4730075 103.399823,17.2104053 103.522247,16.9239507 C103.652351,16.6220011 103.71921,16.2952956 103.717438,15.965202 C103.718758,15.6406648 103.651899,15.3196514 103.522247,15.0235745 C103.399823,14.7371199 103.229965,14.4745177 103.019901,14.2474231 C102.807127,14.0260204 102.552792,13.8512384 102.271803,13.7337834 C101.979973,13.6094619 101.66691,13.5454489 101.350685,13.5454489 C101.03446,13.5454489 100.721398,13.6094619 100.429567,13.7337834 C100.150386,13.851916 99.8978575,14.0266529 99.6868904,14.2474231 C99.4745679,14.4695936 99.302903,14.7285367 99.1791235,15.0121452 C99.0508265,15.3046081 98.9862263,15.6219172 98.9893885,15.9423886 Z" id="形状" fill="#FFFFFF" fill-rule="nonzero"></path>
                                <path d="M108.677165,21.431782 C108.527635,21.431782 108.437285,21.2659898 108.519052,21.1404937 L111.950544,15.8509092 L108.795071,10.602163 C108.719629,10.476441 108.809979,10.3163408 108.956798,10.3163408 L113.020288,10.3163408 C113.091213,10.3163408 113.155813,10.3560496 113.188339,10.4191139 L114.684986,13.3470856 L116.250299,10.4143254 C116.282825,10.3528874 116.346974,10.3144887 116.416543,10.3144887 L120.347671,10.3144887 C120.493586,10.3144887 120.584388,10.473098 120.510301,10.5988652 L117.417621,15.8509092 L120.822008,21.1326332 C120.902871,21.2581745 120.812521,21.4234698 120.663444,21.4234698 L116.543937,21.4234698 C116.475723,21.4234698 116.412478,21.3864263 116.379048,21.326705 L114.655171,18.2343867 L112.887022,21.3365531 C112.853592,21.3954613 112.791251,21.431782 112.723488,21.431782 L108.677165,21.431782 Z" id="路径" fill="#FFFFFF" fill-rule="nonzero"></path>
                                <path d="M38.886959,5.60174361 C40.419656,5.61764521 41.8243722,5.97163641 43.0637932,6.65341732 C44.7346804,7.57245727 45.8617963,8.96877095 46.4147382,10.8012943 C47.0015613,12.7458516 46.9771668,14.6764047 46.344717,16.5396923 C45.5500889,18.87935 43.8726061,20.4353573 41.3573532,21.164843 C40.4859728,21.4170098 39.5379757,21.5402923 38.459197,21.5402923 L38.4535953,21.5402923 L32.1248055,21.5402923 C31.9164584,21.5402923 31.7475492,21.371383 31.7475492,21.163036 L31.7475492,5.97199781 C31.7475492,5.76184377 31.917904,5.59148889 32.1280581,5.59139854 C32.6314881,5.59112749 33.1349182,5.59035952 33.6383483,5.58963672 C35.3879303,5.58706174 37.1374673,5.58448677 38.886959,5.60174361 Z M39.2007896,17.8454301 C38.4919037,17.9154513 37.0554295,17.9220017 37.0554295,17.9220017 C36.9243768,17.922589 36.7933242,17.9215951 36.6622716,17.9206013 C36.5849772,17.9200592 36.5076828,17.9194719 36.4303432,17.9192009 C36.2187887,17.9184781 36.044865,17.7480328 36.044865,17.5364784 L36.044865,9.59543838 C36.044865,9.38709133 36.2137291,9.21813688 36.4220762,9.21759478 C36.510845,9.21736891 36.5996139,9.21709786 36.6883827,9.21682681 C37.3634325,9.21474876 38.0386631,9.21267071 38.7132612,9.23123763 C40.6363152,9.28449894 42.0186246,10.435151 42.4109242,12.3105906 C42.6976499,13.6844975 42.5641126,14.8762589 42.0027682,15.9540889 C41.4227666,17.0674265 40.4542148,17.7221476 39.2007896,17.8454301 Z" id="形状" fill="#FFFFFF"></path>
                                <path d="M61.6965329,21.4302912 C61.4882762,21.4302461 61.3193218,21.2613368 61.3193218,21.0530349 L61.3193218,6.02227757 C61.3193218,5.81393053 61.4882762,5.64502125 61.6965329,5.64502125 L72.5005829,5.64502125 C72.4784472,7.6164577 70.8670554,9.21375491 68.8911014,9.21375491 L65.5594461,9.21375491 L65.5594461,12.4787771 L72.0429603,12.4787771 C72.0208246,14.4177779 70.4365378,15.9891447 68.4917545,15.9891447 L65.5445384,15.9891447 L65.5445384,21.0538029 C65.5445384,21.2621499 65.3755839,21.431014 65.1673272,21.431014 L61.6965329,21.4302912 Z" id="路径" fill="#FFFFFF" fill-rule="nonzero"></path>
                                <path d="M54.5150652,21.6897312 C54.2815105,21.6897312 54.0407278,21.6813738 53.7994934,21.6647042 C52.6131982,21.5841572 51.6193485,21.3146884 50.7628307,20.8433778 C49.2223637,19.9942687 48.3247367,18.6386125 48.0952477,16.8144465 C47.9461703,15.6282869 48.074919,14.5263334 48.4765246,13.53926 C49.071931,12.0789785 50.1055347,11.0687302 51.5484238,10.5353943 C52.4641208,10.1964916 53.3789143,10.025188 54.2670545,10.025188 C55.3634514,10.025188 56.4399714,10.2862995 57.4663471,10.8011588 C59.0163009,11.578033 59.9116692,12.9197754 60.1294126,14.7883935 C60.1994339,15.3967651 60.1718771,16.0588497 60.0431284,16.8134979 C60.0377074,16.8486892 60.0282206,16.882977 60.0173787,16.9246283 C60.0096989,16.952411 59.9848527,16.9718814 59.9559407,16.9718814 L52.3213678,16.9718814 C52.2743858,16.9718814 52.2296626,16.995011 52.2021058,17.0339066 C52.1750008,17.0728023 52.1677728,17.1218623 52.1835841,17.1663145 C52.3132363,17.5367042 52.5454357,17.8311548 52.8946384,18.066381 C53.3965325,18.4052837 53.9937458,18.5700821 54.7206114,18.5700821 C54.8574916,18.5700821 55.0038585,18.5645256 55.1556465,18.552509 C56.0568875,18.4849272 56.8763618,18.2136063 57.5937406,17.746 C57.6032273,17.7404434 57.6131658,17.7367391 57.6235561,17.7367391 C57.6420778,17.7367391 57.6596961,17.7450513 57.6718933,17.75892 L59.557949,19.8803374 C59.5692428,19.8933026 59.5755673,19.9099722 59.5737603,19.9275904 C59.5728568,19.94426 59.5642735,19.9599809 59.5516245,19.971094 C59.1405321,20.3192576 58.6942033,20.6109525 58.1873399,20.862803 C57.0715177,21.4193137 55.8698631,21.6897312 54.5150652,21.6897312 Z M54.3235232,13.1086971 C54.195678,13.1086971 54.0615083,13.1161058 53.9142379,13.1309232 C52.9316819,13.2290433 52.2630921,13.8698505 52.1704833,14.8050631 C52.1668693,14.8458109 52.1795183,14.8865588 52.2075268,14.9170971 C52.2350836,14.9476805 52.2752893,14.9652536 52.3159468,14.9652536 L56.166211,14.9652536 C56.205965,14.9652536 56.2430085,14.9495327 56.2705652,14.9208014 C56.2985737,14.8921153 56.3134814,14.8550718 56.3126167,14.8152726 C56.2940562,14.1328141 55.8974198,13.5475722 55.2789742,13.2864607 C54.9948236,13.1670181 54.6826644,13.1086971 54.3235232,13.1086971 Z" id="形状" fill="#FFFFFF" fill-rule="nonzero"></path>
                                <path d="M77.2904868,11.0519703 L74.0207213,11.0519703 C73.8124646,11.0519703 73.6435101,11.2208796 73.6435101,11.4292266 L73.6435101,21.0456714 C73.6435101,21.2540184 73.8124646,21.4229277 74.0207213,21.4229277 L77.2904868,21.4229277 C77.4987435,21.4229277 77.667698,21.2540184 77.667698,21.0456714 L77.667698,11.4292266 C77.667698,11.2208796 77.4987435,11.0519703 77.2904868,11.0519703 Z" id="路径" fill="#FFFFFF" fill-rule="nonzero"></path>
                                <path d="M75.6492795,9.54890814 C74.8239325,9.52022202 74.2913194,9.24722957 73.923595,8.66641476 C73.5960764,8.14825766 73.5296691,7.42053378 73.7546406,6.81193635 C73.9800638,6.20243542 74.4643396,5.78944569 75.1180217,5.64863525 C75.3068531,5.60775189 75.4898118,5.58773937 75.662832,5.58773937 C76.1968004,5.58773937 76.6575853,5.78253391 77.0325377,6.16593403 C77.539401,6.68499464 77.7011275,7.37097682 77.4991953,8.1508778 C77.3193988,8.84467526 76.8613245,9.29154624 76.1349107,9.47848033 C76.0034514,9.51240675 75.867023,9.52541715 75.7576995,9.53675607 C75.7174938,9.54109287 75.6799985,9.54457134 75.6492795,9.54890814 Z" id="路径" fill="#FFFFFF" fill-rule="nonzero"></path>
                            </g>
                        </g>
                    </g>
                </g>
            </g>
        </g>
    </g>
</svg>