<svg width="180" height="44" viewBox="0 0 180 44" fill="none" xmlns="http://www.w3.org/2000/svg">
<path fill-rule="evenodd" clip-rule="evenodd" d="M25.0555 20.5277C25.0555 13.6089 19.4466 8 12.5278 8H0.739225C0.330963 8 0 8.33096 0 8.73923V32.3162C0 32.7245 0.330963 33.0555 0.739225 33.0555H5.71447C6.12272 33.0555 6.45367 32.7245 6.45367 32.3162V15.1655C6.45367 14.7572 6.78462 14.4263 7.19291 14.4263H15.6099C16.0828 14.4263 16.134 14.8929 15.7323 15.1423L9.93643 18.7403C9.71923 18.8751 9.58709 19.1126 9.58709 19.3683V34.3989C9.58709 34.9338 10.1376 35.2916 10.6265 35.0744L17.0085 32.2387C17.0085 16.3164 17.0085 14.7472 17.0085 32.2304C21.7144 30.4274 25.0555 25.8678 25.0555 20.5277ZM12.5273 23.0793V24.1281C12.5273 24.5681 13.0152 24.8328 13.384 24.5929L16.2874 22.7049C16.602 22.5003 16.7918 22.1505 16.7918 21.7753V20.8297C16.7918 20.3961 16.3165 20.1303 15.9471 20.3574L13.0555 22.1347C12.7273 22.3364 12.5273 22.6941 12.5273 23.0793Z" fill="#13C09D"/>
<path fill-rule="evenodd" clip-rule="evenodd" d="M73.9241 16.6666C74.2918 17.2474 74.8244 17.5204 75.6498 17.5491C75.6722 17.5459 75.6982 17.5432 75.7263 17.5403C75.7367 17.5392 75.7473 17.5381 75.7582 17.5369L75.7747 17.5352C75.8811 17.5242 76.0105 17.5109 76.1354 17.4786C76.8618 17.2917 77.3199 16.8448 77.4997 16.151C77.7016 15.3711 77.5399 14.6851 77.033 14.1661C76.6581 13.7827 76.1973 13.5879 75.6633 13.5879C75.4903 13.5879 75.3073 13.6079 75.1185 13.6488C74.4648 13.7896 73.9805 14.2026 73.7551 14.8121C73.5301 15.4207 73.5966 16.1484 73.9241 16.6666ZM43.0633 14.6538C41.8239 13.972 40.4192 13.618 38.8865 13.6021C37.137 13.5848 35.3875 13.5874 33.6379 13.59L33.6379 13.59L33.512 13.5902C33.0505 13.5908 32.5891 13.5915 32.1276 13.5918C31.9174 13.5918 31.7471 13.7622 31.7471 13.9724V29.1634C31.7471 29.3717 31.916 29.5406 32.1243 29.5406H38.4531H38.4587C39.5375 29.5406 40.4855 29.4174 41.3569 29.1652C43.8721 28.4357 45.5496 26.8797 46.3442 24.54C46.9767 22.6768 47.0011 20.7462 46.4143 18.8016C45.8613 16.9691 44.7342 15.5728 43.0633 14.6538ZM37.0545 25.9223C37.0545 25.9223 38.491 25.9158 39.1999 25.8457C40.4533 25.7225 41.4218 25.0677 42.0018 23.9544C42.5632 22.8766 42.6967 21.6848 42.41 20.3109C42.0177 18.4355 40.6354 17.2848 38.7123 17.2315C38.0377 17.213 37.3625 17.2151 36.6875 17.2171L36.4212 17.2179C36.2128 17.2184 36.0439 17.3874 36.0439 17.5957V25.5368C36.0439 25.7483 36.2179 25.9188 36.4294 25.9195C36.4972 25.9198 36.5649 25.9202 36.6325 25.9207L36.6614 25.9209C36.7924 25.9219 36.9235 25.9229 37.0545 25.9223ZM79.8477 29.0644V14.0087C79.8477 13.8004 80.0166 13.6315 80.2249 13.6314L81.0787 13.631C81.4889 13.6308 81.8995 13.6306 82.3097 13.6306C82.8803 13.6296 83.4495 13.6296 84.02 13.6296C85.1914 13.6296 86.7323 13.6315 88.2656 13.6482C89.5621 13.6621 90.7131 13.9825 91.6871 14.5991C92.6222 15.1908 93.2307 16.1159 93.4011 17.2039C93.5705 18.2864 93.2908 19.4207 92.6706 20.1633C92.3806 20.5106 92.0318 20.7995 91.6325 21.0227C91.5159 21.0884 91.5186 21.1005 91.5249 21.1254L91.529 21.1393L91.5398 21.1477C91.6587 21.2389 91.7824 21.3285 91.9031 21.4159L91.9342 21.4384L91.9464 21.4472C92.227 21.65 92.5165 21.8595 92.7668 22.1005C93.6464 22.9477 94.0836 24.3404 93.8799 25.647C93.6744 26.9684 92.863 28.0406 91.5945 28.6675C90.5686 29.174 89.4415 29.425 88.1499 29.4342C87.0589 29.4417 85.9083 29.4454 84.4185 29.4454C83.7345 29.4454 83.0513 29.4445 82.3677 29.4436H82.3666H82.3656H82.3645H82.3634H82.3623H82.3613L82.2609 29.4435H82.2577C81.5801 29.4426 80.9025 29.4419 80.2249 29.4417C80.0166 29.4417 79.8477 29.2727 79.8477 29.0644ZM83.9617 17.3741C83.9617 17.166 84.1302 16.9972 84.3385 16.9968L84.7912 16.9958C85.2298 16.9947 85.6685 16.9937 86.1071 16.9937C86.7784 16.9937 87.3223 16.9965 87.8165 17.0039C88.0962 17.0067 88.3835 17.0604 88.6261 17.1548C89.1121 17.3428 89.3547 17.7475 89.3471 18.3577C89.3407 18.9392 89.0909 19.3328 88.6035 19.5281C88.3979 19.6105 88.2258 19.6513 88.0749 19.6522C87.2943 19.6577 86.5191 19.6587 85.9323 19.6587L84.339 19.6579C84.1307 19.6578 83.9617 19.489 83.9617 19.2807V17.3741ZM86.0136 25.9803C86.8182 25.9803 87.4361 25.9794 88.0157 25.9766C88.2204 25.9757 88.4214 25.9553 88.6121 25.9165C89.2915 25.7766 89.7816 25.197 89.802 24.5062C89.8259 23.6987 89.4017 23.1404 88.6378 22.9746C88.4183 22.9265 88.1766 22.9014 87.9204 22.9005C86.8697 22.8949 85.8189 22.8953 84.7681 22.8957L84.339 22.8958C84.1307 22.8959 83.9617 23.0648 83.9617 23.2731V25.6023C83.9617 25.8106 84.1307 25.9795 84.339 25.9796L86.0136 25.9803ZM95.1262 23.9027C95.1216 23.1427 95.2798 22.3908 95.5897 21.6998C95.8982 21.024 96.3391 20.42 96.8848 19.925C97.4631 19.4066 98.1317 19.004 98.8554 18.7379C99.655 18.4408 100.5 18.2939 101.351 18.3042C102.195 18.2943 103.034 18.4373 103.829 18.7265C104.556 18.9879 105.229 19.3867 105.811 19.9022C106.366 20.3987 106.81 21.0119 107.112 21.6998C107.425 22.4179 107.583 23.1965 107.575 23.9826C107.582 24.7698 107.42 25.5491 107.101 26.2654C106.792 26.9492 106.349 27.5611 105.8 28.0631C105.216 28.5744 104.538 28.9624 103.807 29.2044C102.997 29.4863 102.145 29.6272 101.289 29.6211C100.451 29.6276 99.6184 29.4867 98.8273 29.2044C98.1055 28.9509 97.4409 28.551 96.8735 28.0288C96.3265 27.5154 95.8892 26.8917 95.5897 26.1969C95.2829 25.4727 95.1253 24.6918 95.1262 23.9027ZM98.9895 23.9427C98.9841 24.2799 99.0487 24.6144 99.1793 24.9243C99.3012 25.2121 99.4734 25.475 99.687 25.7004C99.898 25.9212 100.151 26.0959 100.43 26.214C100.722 26.3384 101.035 26.4024 101.351 26.4024C101.667 26.4024 101.98 26.3384 102.272 26.214C102.553 26.0965 102.807 25.9218 103.02 25.7004C103.23 25.4733 103.4 25.2107 103.522 24.9243C103.652 24.6223 103.719 24.2956 103.718 23.9655C103.719 23.641 103.652 23.32 103.522 23.0239C103.4 22.7374 103.23 22.4748 103.02 22.2477C102.807 22.0263 102.553 21.8515 102.272 21.7341C101.98 21.6098 101.667 21.5458 101.351 21.5458C101.035 21.5458 100.722 21.6098 100.43 21.7341C100.151 21.8522 99.898 22.027 99.687 22.2477C99.4747 22.4699 99.303 22.7288 99.1793 23.0124C99.051 23.3049 98.9864 23.6222 98.9895 23.9427ZM108.677 29.432C108.528 29.432 108.437 29.2662 108.519 29.1407L111.951 23.8511L108.795 18.6024C108.72 18.4766 108.81 18.3165 108.957 18.3165H113.02C113.091 18.3165 113.156 18.3563 113.188 18.4193L114.685 21.3473L116.25 18.4145C116.283 18.3531 116.347 18.3147 116.417 18.3147H120.348C120.494 18.3147 120.584 18.4733 120.51 18.5991L117.418 23.8511L120.822 29.1328C120.903 29.2584 120.813 29.4237 120.664 29.4237H116.544C116.476 29.4237 116.413 29.3866 116.379 29.3269L114.655 26.2346L112.887 29.3368C112.854 29.3957 112.791 29.432 112.724 29.432H108.677ZM61.6965 29.4305C61.4883 29.4305 61.3193 29.2616 61.3193 29.0533V14.0225C61.3193 13.8142 61.4883 13.6453 61.6965 13.6453H72.5006C72.4785 15.6167 70.8671 17.214 68.8911 17.214H65.5595V20.479H72.043C72.0208 22.418 70.4366 23.9894 68.4918 23.9894H65.5446V29.054C65.5446 29.2624 65.3756 29.4313 65.1673 29.4313L61.6965 29.4305ZM54.5151 29.6899C54.2815 29.6899 54.0407 29.6816 53.7995 29.6649C52.6132 29.5844 51.6193 29.3149 50.7628 28.8436C49.2224 27.9945 48.3247 26.6388 48.0952 24.8146C47.9462 23.6285 48.0749 22.5265 48.4765 21.5395C49.0719 20.0792 50.1055 19.0689 51.5484 18.5356C52.4641 18.1967 53.3789 18.0254 54.2671 18.0254C55.3635 18.0254 56.44 18.2865 57.4663 18.8014C59.0163 19.5782 59.9117 20.92 60.1294 22.7886C60.1994 23.397 60.1719 24.0591 60.0431 24.8137C60.0383 24.8447 60.0304 24.8751 60.0211 24.9104L60.0211 24.9104L60.0174 24.9248C60.0097 24.9526 59.9849 24.9721 59.9559 24.9721H52.3214C52.2744 24.9721 52.2297 24.9952 52.2021 25.0341C52.175 25.073 52.1678 25.1221 52.1836 25.1665C52.3132 25.5369 52.5454 25.8314 52.8946 26.0666C53.3965 26.4055 53.9937 26.5703 54.7206 26.5703C54.8575 26.5703 55.0039 26.5647 55.1556 26.5527C56.0569 26.4851 56.8764 26.2138 57.5937 25.7462C57.6032 25.7406 57.6132 25.7369 57.6236 25.7369C57.6421 25.7369 57.6597 25.7453 57.6719 25.7591L59.5579 27.8805C59.5692 27.8935 59.5756 27.9102 59.5738 27.9278C59.5729 27.9445 59.5643 27.9602 59.5516 27.9713C59.1405 28.3195 58.6942 28.6112 58.1873 28.863C57.0715 29.4195 55.8699 29.6899 54.5151 29.6899ZM54.3235 21.1089C54.1957 21.1089 54.0615 21.1163 53.9142 21.1311C52.9317 21.2292 52.2631 21.8701 52.1705 22.8053C52.1669 22.846 52.1795 22.8868 52.2075 22.9173C52.2351 22.9479 52.2753 22.9655 52.3159 22.9655H56.1662C56.206 22.9655 56.243 22.9497 56.2706 22.921C56.2986 22.8923 56.3135 22.8553 56.3126 22.8155C56.2941 22.133 55.8974 21.5478 55.279 21.2867C54.9948 21.1672 54.6827 21.1089 54.3235 21.1089ZM77.2905 19.0522H74.0208C73.8125 19.0522 73.6436 19.2212 73.6436 19.4295V29.0459C73.6436 29.2543 73.8125 29.4232 74.0208 29.4232H77.2905C77.4988 29.4232 77.6677 29.2543 77.6677 29.0459V19.4295C77.6677 19.2212 77.4988 19.0522 77.2905 19.0522Z" fill="#16221F"/>
</svg>
