<?xml version="1.0" encoding="UTF-8"?>
<svg width="37px" height="36px" viewBox="0 0 37 36" version="1.1" xmlns="http://www.w3.org/2000/svg" xmlns:xlink="http://www.w3.org/1999/xlink">
    <title>简介-Light</title>
    <g id="组件/弹窗/导航" stroke="none" stroke-width="1" fill="none" fill-rule="evenodd">
        <g id="H5更多-Light" transform="translate(-299.000000, -256.000000)" fill-rule="nonzero">
            <g id="编组-5" transform="translate(16.000000, 240.000000)">
                <g id="编组-11备份-2" transform="translate(0.000000, 16.000000)">
                    <g id="简介" transform="translate(257.250000, 0.000000)">
                        <g id="简介-Light" transform="translate(26.000000, 0.000000)">
                            <path d="M0,18 C0,24.4307807 3.4307805,30.3730671 9,33.5884575 C14.5692193,36.8038479 21.4307807,36.8038479 27,33.5884575 C32.5692195,30.3730671 36,24.4307807 36,18 C36,8.0588745 27.9411255,0 18,0 C8.0588745,0 0,8.0588745 0,18 Z" id="路径" fill-opacity="0.8" fill="#FFE6EC"></path>
                            <g id="编组-8" transform="translate(8.721295, 6.826235)">
                                <path d="M3.67497901,0.00193115029 L2.97397145,0.00193115029 C1.3324937,0.00193115029 0,1.3324937 0,2.9759026 L0,20.0260285 C0,21.6675063 1.33056255,23 2.97397145,23 L3.67497901,23 L3.67497901,0.00193115029 Z" id="路径" fill="#FF5985"></path>
                                <path d="M13.0700252,4.94760705 L14.6690176,5.69496222 L14.6690176,0.00193115029 L10.5305626,0.00193115029 L10.5305626,5.69496222 L12.129555,4.94760705 C12.4276274,4.80856362 12.7719527,4.80856362 13.0700252,4.94760705 Z" id="路径" fill="#FF6B92"></path>
                                <path d="M16.8859782,0.0386230059 L16.8859782,7.43879093 C16.8859782,7.81729639 16.6928631,8.17069689 16.3722922,8.37539882 C16.053026,8.5796065 15.6513511,8.60585023 15.3082284,8.44492024 L12.6007557,7.17808564 L9.89135181,8.44492024 C9.54760705,8.60520571 9.14592779,8.58010076 8.82535684,8.37539882 C8.50479269,8.17199048 8.31088832,7.81844303 8.31167086,7.43879093 L8.31167086,0.00193115029 L5.8938707,0.00193115029 L5.8938707,22.9980688 L16.4456759,22.9980688 C18.0871537,22.9980688 19.4196474,21.6675063 19.4196474,20.0240974 L19.4196474,2.9759026 C19.4177162,1.48312343 18.3188917,0.252980688 16.8859782,0.0386230059 Z" id="路径" fill="#F34976"></path>
                                <path d="M19.4177162,2.9759026 C19.4177162,1.48505458 18.3188917,0.252980688 16.8859782,0.0386230059 L16.8859782,7.43879093 C16.8859782,7.81729639 16.6928631,8.17069689 16.3722922,8.37539882 C16.053026,8.5796065 15.6513511,8.60585023 15.3082284,8.44492024 L12.6007557,7.17808564 L9.89328296,8.44492024 C9.5495382,8.60520571 9.14785894,8.58010076 8.82728799,8.37539882 C8.50672384,8.17199048 8.31281947,7.81844303 8.31360202,7.43879093 L8.31360202,0.00193115029 L5.8938707,0.00193115029 L5.8938707,22.9980688 L5.92670025,22.9980688 C12.3052897,21.9745592 17.4981528,17.4035264 19.4177162,11.3706129 L19.4177162,2.9759026 Z" id="路径" fill="#FF5985"></path>
                                <path d="M13.7942065,7.73425693 L12.5988245,7.17615449 L9.89135181,8.44298908 C9.54760705,8.60327456 9.14592779,8.57816961 8.82535684,8.37346767 C8.50479269,8.17005933 8.31088832,7.81651188 8.31167086,7.43685978 L8.31167086,0.00193115029 L5.8938707,0.00193115029 L5.8938707,15.5187238 C9.31780017,13.8811083 12.1063812,11.1292191 13.7942065,7.73425693 L13.7942065,7.73425693 Z M0.00193115029,2.9759026 L0.00193115029,17.1157851 C1.27069689,17.0095718 2.50083963,16.7643157 3.67691016,16.3935348 L3.67691016,0.00193115029 L2.97397145,0.00193115029 C1.3324937,0.00193115029 0.00193115029,1.3324937 0.00193115029,2.9759026 Z" id="形状" fill="#FF6B92"></path>
                                <path d="M5.8938707,6.5774979 C6.79908243,5.73040862 7.60975558,4.78764496 8.31167086,3.76574307 L8.31167086,0 L5.8938707,0 L5.8938707,6.5774979 Z M0.00193115029,2.9759026 L0.00193115029,10.1732997 C1.29726717,9.71088211 2.53137112,9.09220888 3.67691016,8.33098237 L3.67691016,0.00193115029 L2.97397145,0.00193115029 C1.3324937,0.00193115029 0.00193115029,1.3324937 0.00193115029,2.9759026 Z" id="形状" fill="#FF80A1"></path>
                            </g>
                        </g>
                    </g>
                </g>
            </g>
        </g>
    </g>
</svg>