<?xml version="1.0" encoding="UTF-8"?>
<svg width="31px" height="30px" viewBox="0 0 31 30" version="1.1" xmlns="http://www.w3.org/2000/svg" xmlns:xlink="http://www.w3.org/1999/xlink">
    <title>回购销毁-Dark</title>
    <defs>
        <linearGradient x1="65.3274685%" y1="80.5324845%" x2="-13.9071333%" y2="-21.8281382%" id="destroy_dask-1">
            <stop stop-color="#FBD535" offset="0.0928758741%"></stop>
            <stop stop-color="#0F1114" stop-opacity="0" offset="100%"></stop>
        </linearGradient>
        <rect id="path-2" x="0" y="0" width="30" height="30"></rect>
    </defs>
    <g id="H5-HECO" stroke="none" stroke-width="1" fill="none" fill-rule="evenodd">
        <g id="H5首页-Dark" transform="translate(-216.000000, -319.000000)">
            <g id="编组-11备份-2" transform="translate(16.000000, 316.000000)">
                <g id="回购销毁" transform="translate(171.500000, 0.000000)">
                    <g id="回购销毁-Dark" transform="translate(29.000000, 3.000000)">
                        <circle id="椭圆形" fill="url(#destroy_dask-1)" cx="20.15625" cy="20.15625" r="9.84375"></circle>
                        <mask id="mask-3" fill="white">
                            <use xlink:href="#path-2"></use>
                        </mask>
                        <g id="蒙版"></g>
                        <g id="编组-58备份-3" mask="url(#mask-3)" stroke="#FFFFFF" stroke-linecap="round" stroke-linejoin="round" stroke-width="2">
                            <g transform="translate(-3.984375, -4.106250)" id="路径">
                                <path d="M29.0668057,20.1203457 C29.5724219,18.6799924 29.8473863,17.1311051 29.8473863,15.5179963 C29.8473863,8.50900996 24.6562833,2.71247066 17.9090569,1.76335806 L18.947293,4.16490622" transform="translate(23.878222, 10.941852) rotate(-31.000000) translate(-23.878222, -10.941852) "></path>
                                <path d="M29.1604813,36.199189 C29.6660975,34.7588356 29.9410619,33.2099483 29.9410619,31.5968396 C29.9410619,24.5878532 24.7499589,18.7913139 18.0027325,17.8422013 L18.5054992,20.0092354" transform="translate(23.971897, 27.020695) rotate(89.000000) translate(-23.971897, -27.020695) "></path>
                                <path d="M14.8591553,28.5346968 C15.3647715,27.0943435 15.6397359,25.5454561 15.6397359,23.9323474 C15.6397359,16.9233611 10.4486329,11.1268217 3.70140649,10.1777091 L4.74732752,12.7471272" transform="translate(9.670571, 19.356203) rotate(209.000000) translate(-9.670571, -19.356203) "></path>
                            </g>
                        </g>
                        <path d="M12.5460911,22.2657486 C9.16882985,21.2021106 7.59444896,16.7373252 10.6806851,13.4505153 C13.7669213,10.1637054 13.7669213,10.1637054 14.954381,7.26574857 C16.6337909,8.49307718 18.2315311,10.3899216 18.2315311,14.1537528 C18.9849999,13.4505153 19.3065852,13.064121 19.821719,12.121846 C21.1969312,12.7216352 24.5148929,19.8139015 18.2315311,22.0395323 C14.954381,21.7286606 13.5912876,18.8217465 12.9649776,18.5056057 C12.3386677,18.189465 12.4658265,20.6091711 12.5460911,22.2657486 Z" id="路径-10备份" stroke="#FFFFFF" stroke-width="2" mask="url(#mask-3)"></path>
                    </g>
                </g>
            </g>
        </g>
    </g>
</svg>