<?xml version="1.0" encoding="UTF-8"?>
<svg width="24px" height="24px" viewBox="0 0 24 24" version="1.1" xmlns="http://www.w3.org/2000/svg" xmlns:xlink="http://www.w3.org/1999/xlink">
    <title>Discord icon</title>
    <g id="HECO" stroke="none" stroke-width="1" fill="none" fill-rule="evenodd" fill-opacity="0.64">
        <g id="HECO首页-Light" transform="translate(-536.000000, -4425.000000)" fill="#3F4143" fill-rule="nonzero">
            <g id="底部-Light" transform="translate(0.000000, 4275.000000)">
                <g id="编组" transform="translate(360.000000, 80.000000)">
                    <g id="编组-82" transform="translate(0.000000, 70.000000)">
                        <g id="Discord-icon" transform="translate(176.000000, 0.000000)">
                            <path d="M11.9981751,0 C18.6274699,0 23.9963503,5.36969697 23.9963503,12 C23.9963503,18.630303 18.6274699,24 11.9981751,24 C5.36888039,24 0,18.630303 0,12 C0,5.36969697 5.36888039,0 11.9981751,0 Z M14.0501282,6.18342549 L13.8804571,6.35283441 C16.1831371,6.94576562 17.3829547,8.05902422 17.3829547,8.05902422 C15.5044525,6.94576562 13.1169368,6.7763567 12.1716261,6.7763567 L11.6626126,6.7763567 C10.6324662,6.7763567 8.24495056,7.03047008 6.45128397,8.05902422 C6.45128397,8.05902422 7.65110148,6.94576562 9.95378156,6.35283441 L9.7841104,6.18342549 C9.7841104,6.18342549 9.7757615,6.18304902 9.75962029,6.18277654 L9.68837636,6.18275144 C9.28317649,6.18815818 7.65514127,6.29233122 6.02710606,7.55079747 C6.02710606,7.55079747 3.97893273,11.2172905 4.14860389,15.2226013 C4.14860389,15.2226013 5.43325699,17.1829045 8.24495056,17.1829045 L9.09330637,16.0696459 C9.09330637,16.0696459 7.46931095,15.5614191 6.7906263,14.532865 C6.7906263,14.532865 8.75396405,15.900237 11.7474481,15.9849414 L12.2564616,15.9849414 C15.0568177,15.8264621 16.9556618,14.6937367 17.1890179,14.5482383 L17.2132835,14.532865 L17.2132835,14.532865 C16.5345988,15.5614191 14.9106034,16.0696459 14.9106034,16.0696459 L15.7589592,17.1829045 C18.5706528,17.0982 19.8553059,15.2226013 19.8553059,15.2226013 C19.8553059,11.2172905 17.8071326,7.55079747 17.8071326,7.55079747 C15.9286304,6.01401657 14.0501282,6.18342549 14.0501282,6.18342549 Z M9.44476807,11.132586 C10.2082883,11.132586 10.8142567,11.8102217 10.8142567,12.5846624 C10.8142567,13.3591032 10.2082883,14.0367389 9.44476807,14.0367389 C8.68124783,14.0367389 8.07527939,13.3591032 8.07527939,12.5846624 C8.07527939,11.8223223 8.66912846,11.132586 9.44476807,11.132586 Z M14.304635,11.132586 C15.0681552,11.132586 15.6741236,11.8102217 15.6741236,12.5846624 C15.7589592,13.3470026 15.0802746,14.0367389 14.304635,14.0367389 C13.5411147,14.0367389 12.9351463,13.3591032 12.9351463,12.5846624 C12.9351463,11.8223223 13.5289954,11.132586 14.304635,11.132586 Z" id="形状结合"></path>
                        </g>
                    </g>
                </g>
            </g>
        </g>
    </g>
</svg>