<svg width="48" height="48" viewBox="0 0 48 48" fill="none" xmlns="http://www.w3.org/2000/svg">
<path d="M0 0H48V18C48 34.5685 34.5685 48 18 48H0V0Z" fill="#FF882D" fill-opacity="0.16"/>
<mask id="mask0_112_50240" style="mask-type:luminance" maskUnits="userSpaceOnUse" x="8" y="7" width="33" height="33">
<rect width="32.0001" height="32" transform="matrix(-1 0 0 1 40.0005 7.99954)" fill="white"/>
</mask>
<g mask="url(#mask0_112_50240)">
<path d="M32.6184 31.2461L34.0344 30.6968L36.4448 33.0478L31.8 37.8515L29.274 35.5281L29.7392 33.9127L19.5626 24.559L14.9326 26.5894L8.00026 19.4686C8.00026 19.4686 11.147 12.5018 17.1965 9.99966C20.0387 12.6275 24.4105 17.0261 24.4105 17.0261L22.3341 21.8216L32.6184 31.2461Z" fill="#FF982D" fill-opacity="0.6"/>
<path d="M35.9708 18.0938C35.9708 18.0938 39.3014 22.0058 40.0005 25.4229C39.119 26.3567 38.1536 27.3374 38.1536 27.3374L32.407 21.6351L15.6989 38.4442L12.7411 35.5374L29.5935 18.6311L23.851 13.0571L25.8627 11.1849C25.8627 11.1849 29.5505 12.2538 33.0201 15.1738C34.2946 13.9723 35.7844 12.4887 35.7844 12.4887L38.7552 15.1738L35.9708 18.0938Z" fill="#FF982D"/>
</g>
</svg>
