<?xml version="1.0" encoding="UTF-8"?>
<svg width="56px" height="56px" viewBox="0 0 56 56" version="1.1" xmlns="http://www.w3.org/2000/svg" xmlns:xlink="http://www.w3.org/1999/xlink">
    <title>单挖</title>
    <defs>
        <rect id="double_dig-1" x="0" y="0" width="37.3333333" height="37.3333333"></rect>
    </defs>
    <g id="ETH" stroke="none" stroke-width="1" fill="none" fill-rule="evenodd">
        <g id="ETH董事会-列表-Dark" transform="translate(-360.000000, -1024.000000)">
            <g id="编组-4" transform="translate(360.000000, 400.000000)">
                <g id="单挖" transform="translate(0.000000, 624.000000)">
                    <path d="M40,0 L56,0 L56,0 L56,16 C56,38.09139 38.09139,56 16,56 L0,56 L0,56 L0,40 C-2.705415e-15,17.90861 17.90861,4.05812251e-15 40,0 Z" id="矩形" fill-opacity="0.16" fill="#FF882D"></path>
                    <g id="编组-32" transform="translate(28.000000, 28.000000) scale(-1, 1) translate(-28.000000, -28.000000) translate(9.333333, 9.333333)">
                        <mask id="double_dig-2" fill="white">
                            <use xlink:href="#double_dig-1"></use>
                        </mask>
                        <g id="矩形"></g>
                        <g id="编组-30备份-3" mask="url(#double_dig-2)" fill="#FF982D" fill-rule="nonzero">
                            <g transform="translate(0.000000, 2.333333)">
                                <path d="M8.6123363,24.7874891 L6.96026069,24.1466424 L4.14814815,26.889434 L9.56705337,32.4938272 L12.514021,29.7831209 L11.971361,27.8984571 L23.8439427,16.9858503 L29.2456367,19.3546152 L37.3333333,11.0471232 C34.8858484,5.6284688 31.309567,1.94609439 26.6044891,0 C24.3938922,2.04384032 21.5884391,4.77634957 18.1881299,8.19752774 L20.6106466,13.7922606 L8.6123363,24.7874891 Z" id="路径-6" fill-opacity="0.6"></path>
                                <path d="M4.70123436,9.44304173 C2.11084853,12.485766 0.54377041,15.3359705 0,17.9936552 C0.685632592,18.7199962 1.4038566,19.4645187 2.15467203,20.2272228 L8.85902116,13.5746116 L28.3517214,33.1851852 L31.8024691,29.7938869 L12.1414844,10.0699218 L18.8409469,3.5669629 L16.4939742,1.38271605 C13.6257065,2.21404917 10.8422938,3.76527006 8.14373584,6.03637873 C7.15245586,5.1018972 6.07744087,4.05771167 4.91869087,2.90382212 L1.45282504,6.03637873 L4.70123436,9.44304173 Z" id="路径-5"></path>
                            </g>
                        </g>
                    </g>
                </g>
            </g>
        </g>
    </g>
</svg>