<svg width="36" height="37" viewBox="0 0 36 37" fill="none" xmlns="http://www.w3.org/2000/svg">
<path d="M25.0249 2.06444C24.1031 2.3056 23.2474 2.7511 22.5212 3.36794C23.9085 3.67421 25.1817 4.36463 26.1952 5.3603C27.2087 6.35596 27.9217 7.6167 28.2525 8.99839L26.5881 9.43182L32.7646 14.043L35.9075 7.00493L33.5776 7.61165C32.5305 3.59051 28.7016 1.10696 25.0249 2.06444Z" fill="#D6DCDF"/>
<path d="M11.9435 36.0564C12.8718 35.7159 13.7115 35.1708 14.4005 34.4616C12.937 34.2828 11.5533 33.6959 10.4076 32.7679C9.26195 31.8399 8.40047 30.6083 7.92167 29.2139L9.59796 28.6011L2.76041 24.4504L0.21191 32.0323L2.55842 31.1745C4.03895 35.2244 8.24041 37.4101 11.9435 36.0564Z" fill="#D6DCDF"/>
<path fill-rule="evenodd" clip-rule="evenodd" d="M11.8572 24.0053C18.2908 24.0053 23.5063 18.7898 23.5063 12.3562C23.5063 5.92253 18.2908 0.707031 11.8572 0.707031C5.42351 0.707031 0.208008 5.92253 0.208008 12.3562C0.208008 18.7898 5.42351 24.0053 11.8572 24.0053ZM13.0892 17.4966C13.769 17.3108 14.3516 16.9435 14.7992 16.3989C16.0362 14.8958 15.5634 12.6877 13.8239 11.7166C13.3213 11.4404 12.7944 11.2235 12.2652 11.0056C12.212 10.9837 12.1588 10.9618 12.1055 10.9398C11.772 10.8004 11.4469 10.64 11.164 10.412C10.6025 9.96449 10.708 9.2383 11.3667 8.9512C11.5524 8.87098 11.7466 8.84565 11.9451 8.83298C12.0295 8.82876 12.1182 8.82454 12.2026 8.82454C12.8697 8.82454 13.5072 8.96809 14.1152 9.26363C14.2334 9.32274 14.3263 9.35229 14.4023 9.35229C14.5374 9.35229 14.6092 9.24674 14.6852 9.01875C14.7721 8.74244 14.8522 8.46157 14.9321 8.18117C14.9609 8.08024 14.9897 7.97937 15.0187 7.8788C15.0947 7.62126 15.0018 7.45237 14.7612 7.34682C14.3221 7.15261 13.8703 7.01328 13.3932 6.93729C12.7726 6.84018 12.7726 6.84018 12.7684 6.21532L12.7684 6.21478C12.7641 5.36668 12.764 5.33291 11.9788 5.33291H11.8817H11.6411H11.4975C11.0838 5.34558 11.0162 5.41735 11.0036 5.83111C10.9972 5.97367 10.998 6.11386 10.9988 6.25345C10.9991 6.29989 10.9993 6.34627 10.9993 6.39264C10.9993 6.93583 10.9952 6.93731 10.4836 7.12144L10.4674 7.12728C9.18808 7.5917 8.39856 8.46144 8.31412 9.85471C8.23812 11.0875 8.87987 11.9193 9.89316 12.5273C10.3238 12.7862 10.7844 12.971 11.2462 13.1561C11.4545 13.2397 11.663 13.3233 11.8691 13.4139C12.1266 13.5279 12.3757 13.6588 12.591 13.8361C13.2286 14.3596 13.1104 15.2336 12.3546 15.5629C12.0548 15.6938 11.7466 15.7529 11.43 15.7529C11.316 15.7529 11.202 15.7445 11.088 15.7318C10.4082 15.6473 9.76228 15.47 9.15431 15.1534C9.02342 15.0858 8.92632 15.0478 8.85032 15.0478C8.71944 15.0478 8.64766 15.1576 8.57166 15.4025C8.46611 15.736 8.37323 16.0738 8.28034 16.4115C8.1579 16.8675 8.20435 16.9731 8.635 17.1842C9.18386 17.4502 9.77494 17.5853 10.3745 17.6824C10.8431 17.7584 10.86 17.7752 10.8642 18.265V18.2652C10.8642 18.4846 10.8642 18.7084 10.8685 18.9279C10.8685 19.2065 11.0036 19.3712 11.2907 19.3754C11.4426 19.3796 11.5946 19.3796 11.7466 19.3796C11.9197 19.3796 12.0928 19.3754 12.2659 19.3712C12.5319 19.3627 12.6713 19.2192 12.6713 18.949C12.6723 18.8726 12.6739 18.7965 12.6755 18.7205C12.6802 18.4941 12.685 18.2688 12.6755 18.0412C12.6586 17.733 12.7937 17.5768 13.0892 17.4966Z" fill="#0784C3"/>
<path fill-rule="evenodd" clip-rule="evenodd" d="M14.6338 26.245C14.8611 31.9466 19.5553 36.4992 25.3127 36.4992C31.2152 36.4992 36.0002 31.7142 36.0002 25.8117C36.0002 20.0543 31.4476 15.3602 25.746 15.1328C24.6338 20.7263 20.2272 25.1329 14.6338 26.245Z" fill="#D6DCDF"/>
</svg>
