<svg width="36" height="37" viewBox="0 0 36 37" fill="none" xmlns="http://www.w3.org/2000/svg">
<g clip-path="url(#clip0_671_68081)">
<path fill-rule="evenodd" clip-rule="evenodd" d="M31.684 20.4493C29.4883 22.4869 26.5476 23.7327 23.3159 23.7327C16.5201 23.7327 11.011 18.2236 11.011 11.4278C11.011 9.12015 11.6463 6.96084 12.7515 5.11523C9.2211 5.81348 6.11243 7.68465 3.84844 10.3058L9.35343 15.4092C10.002 16.0104 10.315 16.8912 10.1913 17.7669L9.88336 19.947C9.84332 20.2304 9.89795 20.5191 10.0388 20.7683L10.9903 22.4523C11.5234 23.3957 11.4408 24.5664 10.7806 25.4256L9.60731 26.9526C8.88712 27.8899 7.64101 28.2497 6.53202 27.8407L6.2688 27.7436C5.80468 27.5724 5.28363 27.6795 4.92461 28.0198L2.96106 29.881C5.16364 32.9514 8.43672 35.2018 12.2343 36.0864L12.8454 33.459C13.0188 32.7133 13.5006 32.0762 14.171 31.7064L15.6784 30.8749C15.9856 30.7054 16.2113 30.4188 16.3041 30.0804L16.8019 28.2652C17.0141 27.4916 17.5593 26.8523 18.2898 26.5207L19.9654 25.7601C21.4445 25.0886 23.1737 25.8977 23.606 27.4636C23.7357 27.9333 24.1278 28.284 24.609 28.3606L29.2505 29.0995C30.7928 26.6554 31.6853 23.7601 31.6853 20.6565C31.6853 20.5873 31.6849 20.5182 31.684 20.4493ZM15.8427 36.4991C20.9297 36.4991 25.4568 34.1015 28.3555 30.3746L24.3889 29.7432C23.3658 29.5803 22.5322 28.8348 22.2565 27.8362C22.0531 27.0996 21.2398 26.7191 20.5441 27.0349L18.8684 27.7955C18.5167 27.9552 18.2542 28.263 18.1521 28.6355L17.6543 30.4506C17.4615 31.1535 16.9928 31.7487 16.3546 32.1007L14.8473 32.9323C14.5245 33.1103 14.2925 33.417 14.209 33.7761L13.612 36.3433C14.3408 36.446 15.0855 36.4991 15.8427 36.4991ZM2.1841 28.6885L3.96149 27.0037C4.70715 26.2969 5.78933 26.0746 6.75327 26.4301L7.01649 26.5272C7.55044 26.7241 8.15043 26.5509 8.49718 26.0996L9.67048 24.5726C9.98837 24.1589 10.0281 23.5952 9.77146 23.141L8.81991 21.4571C8.52744 20.9395 8.41397 20.3398 8.49712 19.7511L8.80505 17.571C8.86461 17.1494 8.71391 16.7254 8.40164 16.4359L2.9782 11.4081C1.10401 14.0105 0 17.2045 0 20.6565C0 23.5879 0.796184 26.3334 2.1841 28.6885Z" fill="#D6DCDF"/>
<path fill-rule="evenodd" clip-rule="evenodd" d="M33.9658 10.9729C33.9658 16.7569 29.2769 21.4458 23.4929 21.4458C17.7089 21.4458 13.02 16.7569 13.02 10.9729C13.02 5.18888 17.7089 0.5 23.4929 0.5C29.2769 0.5 33.9658 5.18888 33.9658 10.9729ZM23.49 5.66391C22.7133 5.66391 22.0837 6.29351 22.0837 7.07016C22.0837 7.84681 22.7133 8.47641 23.49 8.47641C24.2666 8.47641 24.8962 7.84681 24.8962 7.07016C24.8962 6.29351 24.2666 5.66391 23.49 5.66391ZM20.3962 7.07016C20.3962 5.36153 21.7814 3.97641 23.49 3.97641C25.1986 3.97641 26.5837 5.36153 26.5837 7.07016C26.5837 8.77879 25.1986 10.1639 23.49 10.1639C21.7814 10.1639 20.3962 8.77879 20.3962 7.07016ZM19.2947 16.4005C19.6553 14.4085 21.3999 12.8977 23.4956 12.8977C25.5913 12.8977 27.3358 14.4085 27.6965 16.4005C27.7795 16.859 28.2185 17.1634 28.677 17.0804C29.1356 16.9974 29.44 16.5584 29.357 16.0998C28.8535 13.3192 26.4217 11.2102 23.4956 11.2102C20.5694 11.2102 18.1376 13.3192 17.6342 16.0998C17.5512 16.5584 17.8556 16.9974 18.3141 17.0804C18.7727 17.1634 19.2117 16.859 19.2947 16.4005Z" fill="#0784C3"/>
</g>
<defs>
<clipPath id="clip0_671_68081">
<rect width="36" height="36" fill="white" transform="translate(0 0.5)"/>
</clipPath>
</defs>
</svg>
