<svg width="21" height="21" viewBox="0 0 21 21" fill="none" xmlns="http://www.w3.org/2000/svg">
<path fill-rule="evenodd" clip-rule="evenodd" d="M20.5 10.9758C20.5 5.45316 16.0227 0.97583 10.5 0.97583C4.97733 0.97583 0.5 5.45316 0.5 10.9758C0.5 16.4985 4.97733 20.9758 10.5 20.9758C16.0227 20.9758 20.5 16.4985 20.5 10.9758ZM15.0939 11.5941C15.4047 11.2015 15.3788 10.6297 15.0162 10.2671L12.0058 7.25671L11.9186 7.179C11.5261 6.86818 10.9542 6.89408 10.5916 7.25671L10.5139 7.34393C10.203 7.73645 10.229 8.30829 10.5916 8.67092L11.8923 9.97167L5.83269 9.96631L5.70724 9.97397C5.2141 10.0352 4.83217 10.4555 4.83163 10.9653C4.83105 11.5175 5.27829 11.9657 5.83058 11.9663L11.8959 11.9721L10.5915 13.2775L10.5138 13.3647C10.203 13.7572 10.2289 14.329 10.5915 14.6917C10.9821 15.0822 11.6152 15.0822 12.0058 14.6917L15.0162 11.6813L15.0939 11.5941Z" fill="#0784C3"/>
</svg>
