<svg width="17" height="17" viewBox="0 0 17 17" fill="none" xmlns="http://www.w3.org/2000/svg">
<path d="M5.56104 7.59961C5.56104 6.49504 6.45647 5.59961 7.56104 5.59961H13.161C14.2656 5.59961 15.161 6.49504 15.161 7.59961V11.1996C15.161 13.4088 13.3702 15.1996 11.161 15.1996H7.56103C6.45646 15.1996 5.56104 14.3042 5.56104 13.1996V7.59961Z" stroke="#0784C3" stroke-width="2"/>
<path d="M10.3591 8V12.8M8.06982 10.3455H12.6484" stroke="#0784C3" stroke-width="2" stroke-linecap="round"/>
<path d="M2.81392 14.1965C1.88629 13.7611 1.36816 12.7376 1.36816 11.641V4.32349C1.36816 2.70695 2.67863 1.39648 4.29517 1.39648H11.6127C12.9027 1.39648 13.9977 2.23097 14.3875 3.38956" stroke="#0784C3" stroke-width="2" stroke-linecap="round"/>
</svg>
