<svg width="30" height="31" viewBox="0 0 30 31" fill="none" xmlns="http://www.w3.org/2000/svg">
<rect y="0.5" width="30" height="30" rx="15" fill="white"/>
<path fill-rule="evenodd" clip-rule="evenodd" d="M19.2 15.3887C18.0954 15.3887 17.2 16.2841 17.2 17.3887C17.2 18.4932 18.0954 19.3887 19.2 19.3887H23.9777C24.53 19.3887 24.9777 18.941 24.9777 18.3887V16.3887C24.9777 15.8364 24.53 15.3887 23.9777 15.3887H19.2ZM19.2 18.1387C19.6142 18.1387 19.95 17.8029 19.95 17.3887C19.95 16.9745 19.6142 16.6387 19.2 16.6387C18.7857 16.6387 18.45 16.9745 18.45 17.3887C18.45 17.8029 18.7857 18.1387 19.2 18.1387Z" fill="#0784C3"/>
<path fill-rule="evenodd" clip-rule="evenodd" d="M9.32295 9.83355C9.56179 9.0207 9.93509 8.2703 10.4154 7.61133H9.19995C6.99081 7.61133 5.19995 9.40219 5.19995 11.6113V15.0399C5.19995 15.1172 5.20214 15.1939 5.20646 15.2701C5.20214 15.3462 5.19995 15.423 5.19995 15.5002V20.8336C5.19995 23.0427 6.99081 24.8335 9.19995 24.8335H18.9777C21.1869 24.8335 22.9777 23.0427 22.9777 20.8336V20.3892H19.2C17.5431 20.3892 16.2 19.046 16.2 17.3892C16.2 15.7323 17.5431 14.3892 19.2 14.3892H22.8214C22.3999 12.9283 21.168 11.811 19.644 11.5555C19.644 11.5548 19.644 11.5542 19.644 11.5536H9.04682C8.57186 11.5536 8.18682 11.1685 8.18682 10.6936C8.18682 10.2186 8.57186 9.83355 9.04682 9.83355H9.32295Z" fill="#0784C3"/>
<path fill-rule="evenodd" clip-rule="evenodd" d="M20.7556 10.5C20.4113 8.23943 18.3037 6.5 15.7552 6.5C13.2088 6.5 11.1026 8.23645 10.7556 10.4942L20.7556 10.5Z" fill="#0784C3"/>
</svg>
