<svg width="36" height="37" viewBox="0 0 36 37" fill="none" xmlns="http://www.w3.org/2000/svg">
<g clip-path="url(#clip0_671_68095)">
<path fill-rule="evenodd" clip-rule="evenodd" d="M28.6875 11.7188C28.6875 17.6213 23.9025 22.4062 18 22.4062C12.0975 22.4062 7.3125 17.6213 7.3125 11.7188C7.3125 5.81621 12.0975 1.03125 18 1.03125C23.9025 1.03125 28.6875 5.81621 28.6875 11.7188ZM19.8306 9.07934L20.2093 8.75827C20.3987 8.58829 20.6301 8.49385 20.8616 8.45608C21.093 8.41831 21.3455 8.45608 21.598 8.55051C21.8294 8.64495 22.0188 8.79604 22.1661 8.98491C22.2923 9.17377 22.3765 9.38153 22.3555 9.62705L22.3134 16.6718H22.4817C23.4286 16.6718 24.186 15.9919 24.2071 15.142L24.2491 9.62705C24.2491 9.06045 24.0808 8.51274 23.7652 8.07835C23.4496 7.62507 22.9657 7.26622 22.3976 7.02069C21.8084 6.79405 21.1982 6.71851 20.6091 6.79405C20.0199 6.8696 19.4518 7.11513 18.9889 7.49286L18.6102 7.81393L18.2315 8.13501L19.6412 9.2682L19.8306 9.07934ZM11.7524 15.1424C11.7524 15.9921 12.4911 16.6718 13.3895 16.6718H13.5492L13.5093 9.62907C13.5093 9.38361 13.5692 9.17592 13.689 8.9871C13.8087 8.79829 13.9884 8.66612 14.228 8.55283C14.4676 8.45843 14.7072 8.42067 14.9268 8.45843C15.1464 8.49619 15.366 8.5906 15.5457 8.76053L18.4606 11.234C18.4667 11.2398 18.4824 11.2528 18.5041 11.2709L18.5042 11.2709C18.5527 11.3112 18.6312 11.3764 18.7002 11.4417C18.9996 11.6871 19.1594 11.8193 19.1594 12.2158C19.1594 12.5557 19.0196 12.8578 18.78 13.0843C18.5404 13.3109 18.221 13.4431 17.8616 13.4431C17.5023 13.4431 17.1828 13.3109 16.9432 13.0843C16.7037 12.8578 16.5639 12.5557 16.5639 12.2158C16.5639 11.8004 16.7436 11.6494 17.063 11.385C17.103 11.3473 17.3425 11.1396 17.4424 11.064L16.1047 9.93117L15.8651 10.1389C15.1464 10.7431 14.7671 11.064 14.7671 12.2347C14.7671 13.0466 15.1065 13.7641 15.6655 14.2927C16.2245 14.8214 17.0031 15.1424 17.8417 15.1424C18.7002 15.1424 19.4588 14.8214 20.0178 14.2927C20.5769 13.7641 20.9163 13.0277 20.9163 12.2347C20.9163 11.0829 20.517 10.7431 19.8182 10.1955C19.7783 10.1577 19.7383 10.12 19.5986 10.0067L16.7436 7.49548C16.3044 7.11786 15.7653 6.8724 15.2063 6.79688C14.6473 6.72135 14.0683 6.778 13.5093 7.02345C12.9503 7.25003 12.511 7.62765 12.2116 8.0808C11.9121 8.53395 11.7324 9.06263 11.7524 9.62907V15.1424Z" fill="#0784C3"/>
<path d="M15.6613 36.5V33.5299C16.3154 32.7294 16.6708 31.7367 16.6708 30.6892C16.6708 29.4872 16.2026 28.357 15.3524 27.5068L10.4883 22.6427C9.60596 21.7604 8.17538 21.7604 7.29309 22.6427C6.41081 23.5251 6.41074 24.9557 7.29309 25.838L9.70819 28.253C10.132 28.6769 10.1197 29.3717 9.67127 29.7798C9.2513 30.162 8.59711 30.1251 8.19556 29.7236L5.48902 27.017C4.86373 26.3917 4.51913 25.56 4.5187 24.6741L4.51877 17.4601C4.51877 15.6045 3.04263 14.0026 1.06207 14C0.4545 13.9992 0.000140625 14.488 0.000140625 15.0547L0 25.8839C0.000210938 27.1962 0.511102 28.4296 1.43845 29.357L6.52556 34.4443V36.5H15.6613Z" fill="#D6DCDF"/>
<path d="M35.9998 15.127C35.9998 14.5602 35.5454 14.0715 34.9378 14.0723C32.9573 14.0749 31.4811 15.6767 31.4811 17.5323L31.4812 24.7464C31.4808 25.6323 31.1361 26.464 30.5109 27.0893L27.8044 29.7958C27.4028 30.1974 26.7487 30.2344 26.3286 29.8521C25.8802 29.444 25.8679 28.7492 26.2917 28.3253L28.7068 25.9102C29.5892 25.0279 29.5892 23.5973 28.7068 22.715C27.8245 21.8327 26.3939 21.8327 25.5116 22.715L20.6475 27.5791C19.7973 28.4293 19.3291 29.5595 19.3291 30.7615C19.3291 31.8089 19.6846 32.8017 20.3386 33.6021V36.4998H29.4744V34.5165L34.5615 29.4292C35.4888 28.5019 35.9997 27.2685 35.9999 25.9562L35.9998 15.127Z" fill="#D6DCDF"/>
</g>
<defs>
<clipPath id="clip0_671_68095">
<rect width="36" height="36" fill="white" transform="translate(0 0.5)"/>
</clipPath>
</defs>
</svg>
