<?xml version="1.0" encoding="UTF-8"?>
<svg width="30px" height="30px" viewBox="0 0 30 30" version="1.1" xmlns="http://www.w3.org/2000/svg" xmlns:xlink="http://www.w3.org/1999/xlink">
    <title>市值</title>
    <g id="ETH" stroke="none" stroke-width="1" fill="none" fill-rule="evenodd">
        <g id="ETH首页-Dark" transform="translate(-1259.000000, -1845.000000)">
            <g id="编组-21" transform="translate(-1.000000, 673.000000)">
                <g id="编组-37" transform="translate(361.000000, 100.000000)">
                    <g id="编组-19" transform="translate(0.000000, 1023.000000)">
                        <g id="编组-2" transform="translate(899.000000, 47.000000)">
                            <g id="市值" transform="translate(0.000000, 2.000000)">
                                <rect id="矩形" x="0" y="0" width="30" height="30"></rect>
                                <g id="编组-60">
                                    <path d="M28.0666667,12.1333333 C28.0666667,6.50002889 23.4999711,1.93333333 17.8666667,1.93333333" id="路径" stroke="#616CFF" stroke-width="3"></path>
                                    <path d="M15,0 C6.71572875,0 0,6.71572875 0,15 C0,23.2842712 6.71572875,30 15,30 C23.2842712,30 30,23.2842712 30,15 L15,15 L15,0 Z" id="路径" fill="#616CFF" opacity="0.3"></path>
                                    <path d="M15,7.5 C10.8578644,7.5 7.5,10.8578644 7.5,15 C7.5,19.1421356 10.8578644,22.5 15,22.5 C19.1421356,22.5 22.5,19.1421356 22.5,15" id="路径" stroke="#FFFFFF" stroke-width="3"></path>
                                </g>
                            </g>
                        </g>
                    </g>
                </g>
            </g>
        </g>
    </g>
</svg>