<svg width="286" height="286" viewBox="0 0 286 286" fill="none" xmlns="http://www.w3.org/2000/svg">
<circle opacity="0.2" cx="44.0233" cy="43.3709" r="13.0233" fill="#7DA3BF"/>
<path d="M44.5016 43.5098C18.8749 68.8828 3 104.087 3 142.999C3 220.319 65.6801 282.999 143 282.999" stroke="url(#paint0_linear_671_67437)" stroke-width="5.6"/>
<circle cx="44.0232" cy="43.3708" r="7.13448" fill="#7DA3BF"/>
<circle opacity="0.2" cx="237.923" cy="241.424" r="13.0233" transform="rotate(180 237.923 241.424)" fill="#0784C3"/>
<path d="M241.498 242.49C267.125 217.117 283 181.913 283 143.001C283 65.6813 220.32 3.0012 143 3.0012" stroke="url(#paint1_linear_671_67437)" stroke-width="5.6"/>
<circle cx="237.923" cy="241.424" r="7.13448" transform="rotate(180 237.923 241.424)" fill="#4181A2"/>
<circle cx="143" cy="142.999" r="84.6512" fill="#E4E5E9"/>
<circle cx="143" cy="142.999" r="65.1163" fill="#EEEEF3"/>
<circle cx="143" cy="142.999" r="45.5814" fill="white"/>
<path fill-rule="evenodd" clip-rule="evenodd" d="M152.32 130.478L150.752 131.818L149.968 132.606L144.131 127.877L145.699 126.538L147.267 125.198C149.184 123.622 151.536 122.597 153.975 122.282C156.415 121.967 158.941 122.282 161.381 123.228C163.733 124.252 165.737 125.75 167.044 127.641C168.351 129.453 169.048 131.739 169.048 134.103L168.873 157.113C168.786 160.66 165.65 163.497 161.729 163.497H161.032L161.207 134.103C161.294 133.078 160.945 132.212 160.423 131.423C159.813 130.635 159.029 130.005 158.07 129.611C157.025 129.217 155.979 129.059 155.021 129.217C154.063 129.375 153.104 129.769 152.32 130.478ZM123.833 163.497C120.058 163.497 116.955 160.66 116.955 157.115V134.111C116.871 131.748 117.626 129.542 118.884 127.651C120.142 125.76 121.987 124.185 124.336 123.239C126.685 122.215 129.117 121.979 131.466 122.294C133.815 122.609 136.08 123.633 137.925 125.209L149.92 135.687C150.507 136.16 150.675 136.317 150.843 136.475C153.779 138.759 155.456 140.177 155.456 144.983C155.456 148.292 154.03 151.364 151.682 153.57C149.333 155.776 146.145 157.115 142.538 157.115C139.015 157.115 135.744 155.776 133.395 153.57C131.047 151.364 129.621 148.371 129.621 144.983C129.621 140.099 131.214 138.759 134.234 136.238L135.241 135.372L140.861 140.099C140.441 140.414 139.435 141.28 139.267 141.438C137.925 142.541 137.17 143.171 137.17 144.904C137.17 146.322 137.757 147.583 138.764 148.528C139.77 149.474 141.112 150.025 142.622 150.025C144.132 150.025 145.474 149.474 146.481 148.528C147.487 147.583 148.075 146.322 148.075 144.904C148.075 143.25 147.404 142.698 146.145 141.674C145.856 141.402 145.526 141.13 145.322 140.962C145.231 140.886 145.165 140.832 145.139 140.808L132.892 130.487C132.137 129.778 131.214 129.384 130.292 129.227C129.369 129.069 128.362 129.227 127.356 129.621C126.349 130.093 125.594 130.645 125.091 131.433C124.588 132.22 124.336 133.087 124.336 134.111L124.504 163.497H123.833Z" fill="url(#paint2_linear_671_67437)"/>
<path d="M86.2769 152.855L83.8687 156.902C83.8687 156.902 83.1212 171.165 102.69 190.639C102.69 190.639 117.194 206.168 147.016 199.193C174.809 192.689 202.724 167.084 204.466 131.762C204.841 124.967 203.457 118.19 200.446 112.088C195.881 103.128 189.149 95.4527 180.862 89.7584L86.2769 152.855Z" fill="url(#paint3_linear_671_67437)"/>
<path d="M194.551 137.088C190.347 150.816 182.261 163.035 171.268 172.269C167.218 175.768 162.826 178.849 158.158 181.465C155.811 182.77 153.387 183.96 150.999 185.016C129.118 194.465 105.835 191.928 92.8172 176.833C82.459 164.952 80.9869 147.992 86.96 131.45C91.4863 119.216 99.1007 108.361 109.063 99.9399C111.678 97.6945 114.428 95.6108 117.296 93.7005C118.86 92.6843 120.476 91.6984 122.087 90.822C145.878 77.382 173.049 78.5589 187.514 95.3764C196.869 106.491 198.925 121.725 194.551 137.088Z" fill="url(#paint4_linear_671_67437)"/>
<path fill-rule="evenodd" clip-rule="evenodd" d="M194.551 137.09C190.347 150.818 182.261 163.036 171.267 172.271C167.218 175.77 162.826 178.85 158.158 181.467C155.811 182.771 153.387 183.962 150.999 185.017C129.118 194.467 105.834 191.929 92.8171 176.834C82.4589 164.954 80.9869 147.994 86.9599 131.451L194.551 137.09Z" fill="url(#paint5_linear_671_67437)"/>
<ellipse cx="140.059" cy="136.101" rx="48.1947" ry="37.1467" transform="rotate(-40.73 140.059 136.101)" fill="#417997"/>
<path d="M115.731 110.474C135.858 93.1089 163.084 91.6533 176.491 107.18C181.222 112.911 183.762 120.137 183.658 127.568C184.361 119.256 181.777 111 176.463 104.571C163.058 89.0165 135.857 90.5009 115.703 107.865C102.853 118.914 95.9822 133.735 96.1336 147.084C97.5023 132.75 104.562 119.562 115.731 110.474Z" fill="#2C627D"/>
<path fill-rule="evenodd" clip-rule="evenodd" d="M124.09 115.444C125.58 113.832 127.421 112.585 129.47 111.8C131.556 110.917 133.829 110.564 136.085 110.774C138.243 110.869 140.324 111.599 142.069 112.872C143.71 114.08 144.833 115.865 145.211 117.868L147.784 132.69L148.022 133.91C149.553 137.573 148.494 141.806 145.417 144.315C142.687 147.162 138.957 148.837 135.015 148.986C131.368 149.196 127.787 147.941 125.068 145.5C122.687 143.348 121.339 140.28 121.365 137.07C121.422 133.917 122.691 130.907 124.907 128.663C127.234 125.91 130.692 124.372 134.295 124.489L135.677 124.314L136.593 130.923L134.333 131.107C132.802 130.953 131.285 131.511 130.218 132.62C129.244 133.607 128.709 134.945 128.733 136.331C128.779 137.707 129.423 138.994 130.498 139.855C131.682 140.795 133.18 141.247 134.687 141.118C136.267 141 137.749 140.306 138.852 139.167C139.896 138.168 140.246 136.643 139.741 135.288C139.771 134.713 139.557 134.098 139.536 133.96L137.382 119.544C137.326 118.73 136.952 117.97 136.34 117.431C135.64 116.889 134.8 116.559 133.919 116.48C132.983 116.369 132.034 116.489 131.155 116.83C130.265 117.167 129.466 117.708 128.821 118.409L109.194 139.342L108.828 138.994C106.821 136.652 107.005 133.147 109.246 131.027L124.09 115.444ZM151.662 129.929L154.418 129.716C155.707 129.593 157.006 129.783 158.205 130.272C159.36 130.75 160.363 131.533 161.106 132.538C161.787 133.461 162.16 134.576 162.174 135.723C162.099 136.873 161.58 137.948 160.727 138.722L135.058 165.46L135.683 166.097C137.276 167.916 139.526 169.026 141.939 169.183C144.351 169.341 146.727 168.532 148.542 166.936L170.052 144.646C172.138 142.583 173.346 139.794 173.425 136.862C173.361 133.925 172.277 131.101 170.357 128.877C168.319 126.523 165.724 124.716 162.808 123.622C159.902 122.541 156.785 122.143 153.7 122.459L151.188 122.739L148.729 123.022L150.415 130.138L151.662 129.929Z" fill="#2C627D"/>
<path fill-rule="evenodd" clip-rule="evenodd" d="M148.01 134.649C148.045 134.487 148.054 134.321 148.036 134.156C147.929 133.011 147.713 131.878 147.389 130.773C147.346 130.36 147.267 129.952 147.151 129.553L144.576 114.786C144.216 112.79 143.1 111.011 141.46 109.819C139.715 108.566 137.648 107.839 135.503 107.722C133.244 107.52 130.971 107.882 128.886 108.775C126.837 109.56 124.996 110.807 123.507 112.419L108.775 127.953C107.72 129.06 107.058 130.481 106.888 132C106.866 132.163 106.857 132.328 106.862 132.493C106.849 133.753 107.327 134.97 108.194 135.884L108.588 136.234L111.845 132.754L112.309 132.284L128.182 115.409C128.821 114.715 129.61 114.174 130.488 113.828C131.367 113.487 132.316 113.367 133.252 113.479C134.129 113.54 134.965 113.871 135.645 114.428C136.264 114.944 136.65 115.686 136.718 116.488L138.9 130.905C138.9 130.905 138.999 131.624 139.079 132.205C139.17 132.696 139.217 133.195 139.22 133.694C139.239 133.859 139.231 134.025 139.194 134.187C139.096 134.925 138.728 135.599 138.162 136.082C137.083 137.218 135.616 137.906 134.053 138.008C132.545 138.195 131.028 137.747 129.862 136.773C128.867 136.003 128.232 134.858 128.107 133.606C128.107 133.606 128.118 133.387 128.124 133.278L128.134 133.086C128.117 131.751 128.651 130.468 129.61 129.54C130.675 128.427 132.193 127.868 133.725 128.026C133.971 128.039 135.38 127.865 135.958 127.841L135.04 121.259L133.686 121.435C130.073 121.299 126.603 122.853 124.297 125.637C122.398 127.544 121.194 130.033 120.879 132.706C120.844 132.868 120.836 133.034 120.853 133.198C120.812 133.461 120.798 133.727 120.812 133.992C120.803 137.205 122.159 140.27 124.543 142.424C127.254 144.858 130.824 146.111 134.462 145.908C138.409 145.723 142.138 144.044 144.893 141.212C146.787 139.543 147.914 137.171 148.01 134.649ZM169.589 125.705C167.532 123.366 164.929 121.57 162.012 120.477C159.099 119.417 155.986 119.029 152.902 119.34L150.362 119.619L147.931 119.903L149.646 126.994L151.029 126.792L153.621 126.57C154.901 126.459 156.188 126.649 157.381 127.124C158.54 127.595 159.552 128.369 160.311 129.364C161.022 130.283 161.398 131.416 161.377 132.577C161.323 133.375 161.065 134.146 160.629 134.816C160.493 134.982 160.347 135.139 160.192 135.288L159.959 135.55L134.291 162.261L134.917 162.898C136.505 164.723 138.757 165.838 141.171 165.996C143.586 166.153 145.963 165.34 147.775 163.736L169.257 141.473C170.748 139.928 171.797 138.011 172.293 135.922L172.319 135.429C172.403 134.84 172.435 134.244 172.412 133.65C172.369 130.753 171.356 127.955 169.534 125.702L169.589 125.705Z" fill="#81BBD9"/>
<path fill-rule="evenodd" clip-rule="evenodd" d="M106.945 132.498L111.928 132.759L108.671 136.24L108.277 135.89C107.41 134.975 106.932 133.759 106.945 132.498Z" fill="url(#paint6_linear_671_67437)"/>
<path fill-rule="evenodd" clip-rule="evenodd" d="M144.76 141.151C142.005 143.983 138.276 145.662 134.329 145.848C130.691 146.051 127.121 144.797 124.409 142.363C122.026 140.209 120.669 137.144 120.678 133.932C120.665 133.666 120.679 133.4 120.72 133.138L128.084 133.524C128.209 134.776 128.844 135.921 129.84 136.69C131.005 137.665 132.523 138.112 134.03 137.926C135.593 137.824 137.061 137.136 138.139 136C138.705 135.517 139.073 134.842 139.172 134.105L148.015 134.568C147.889 137.119 146.71 139.503 144.76 141.151Z" fill="url(#paint7_linear_671_67437)"/>
<path fill-rule="evenodd" clip-rule="evenodd" d="M172.293 135.922C171.797 138.011 170.748 139.928 169.257 141.473L147.776 163.736C145.964 165.34 143.586 166.153 141.172 165.996C138.757 165.838 136.506 164.723 134.917 162.898L134.292 162.261L159.959 135.55L160.193 135.288L172.293 135.922Z" fill="url(#paint8_linear_671_67437)"/>
<path fill-rule="evenodd" clip-rule="evenodd" d="M179.445 68.4435L179.711 73.3164C180.07 80.6903 185.409 86.8703 192.652 88.2972L197.433 89.2615L192.56 89.5277C185.194 89.906 179.024 95.2357 177.579 102.469L176.614 107.277L176.273 102.263C175.904 94.8929 170.57 88.718 163.332 87.2822L158.551 86.3179L163.422 86.079C170.784 85.6912 176.949 80.3659 178.403 73.1381L179.445 68.4435Z" fill="white"/>
<defs>
<linearGradient id="paint0_linear_671_67437" x1="-1.80627" y1="44.1415" x2="-1.80627" y2="300.074" gradientUnits="userSpaceOnUse">
<stop stop-color="#7DA3BF"/>
<stop offset="1" stop-color="#FAFAFA" stop-opacity="0.01"/>
</linearGradient>
<linearGradient id="paint1_linear_671_67437" x1="287.857" y1="241.655" x2="287.857" y2="-14.4521" gradientUnits="userSpaceOnUse">
<stop stop-color="#387B9D"/>
<stop offset="1" stop-color="#FAFAFA" stop-opacity="0.01"/>
</linearGradient>
<linearGradient id="paint2_linear_671_67437" x1="109.071" y1="136.781" x2="134.673" y2="179.697" gradientUnits="userSpaceOnUse">
<stop stop-color="#00C6A4"/>
<stop offset="1" stop-color="#2C80F4"/>
</linearGradient>
<linearGradient id="paint3_linear_671_67437" x1="107.558" y1="222.473" x2="223.929" y2="184.904" gradientUnits="userSpaceOnUse">
<stop stop-color="#8FD4F7"/>
<stop offset="1" stop-color="#41738C"/>
</linearGradient>
<linearGradient id="paint4_linear_671_67437" x1="76.1891" y1="108.795" x2="69.1205" y2="183.318" gradientUnits="userSpaceOnUse">
<stop stop-color="#5791AF"/>
<stop offset="0.999372" stop-color="#8ED3F6"/>
</linearGradient>
<linearGradient id="paint5_linear_671_67437" x1="87.6393" y1="133.985" x2="84.8342" y2="187.51" gradientUnits="userSpaceOnUse">
<stop stop-color="#55BBEE" stop-opacity="0"/>
<stop offset="0.999126" stop-color="#E6F6FF"/>
</linearGradient>
<linearGradient id="paint6_linear_671_67437" x1="107.09" y1="132.665" x2="106.911" y2="136.083" gradientUnits="userSpaceOnUse">
<stop stop-color="#EAF8FF" stop-opacity="0"/>
<stop offset="1" stop-color="#B6E6FF"/>
</linearGradient>
<linearGradient id="paint7_linear_671_67437" x1="121.509" y1="133.707" x2="120.917" y2="145.012" gradientUnits="userSpaceOnUse">
<stop stop-color="#EAF8FF" stop-opacity="0"/>
<stop offset="1" stop-color="#B6E6FF"/>
</linearGradient>
<linearGradient id="paint8_linear_671_67437" x1="136.82" y1="135.448" x2="135.264" y2="165.128" gradientUnits="userSpaceOnUse">
<stop stop-color="#EAF8FF" stop-opacity="0"/>
<stop offset="1" stop-color="#B6E6FF"/>
</linearGradient>
</defs>
</svg>
