<svg width="343" height="132" viewBox="0 0 343 132" fill="none" xmlns="http://www.w3.org/2000/svg">
<rect width="343" height="132" fill="url(#paint0_radial_678_78334)"/>
<mask id="mask0_678_78334" style="mask-type:luminance" maskUnits="userSpaceOnUse" x="0" y="0" width="343" height="132">
<rect width="343" height="132" fill="white"/>
</mask>
<g mask="url(#mask0_678_78334)">
<g opacity="0.526944">
<g opacity="0.505266">
<path d="M37.3125 85.7035H-2.16406L100.122 45.3586H115.146L37.3125 85.7035Z" fill="url(#paint1_linear_678_78334)"/>
<path d="M-23.4554 134.117H-92.7847L96.5602 50.3242H114.526L-23.4554 134.117Z" fill="url(#paint2_linear_678_78334)"/>
<path d="M59.7147 106.807H6.52539L113.966 47.8416H130.663L59.7147 106.807Z" fill="url(#paint3_linear_678_78334)"/>
<path d="M82.0709 75.1518H48.7324L115.439 42.876H129.422L82.0709 75.1518Z" fill="url(#paint4_linear_678_78334)"/>
<path d="M473.905 150.255H395.07L217.56 52.1863H236.16L473.905 150.255Z" fill="url(#paint5_linear_678_78334)"/>
<path d="M391.974 103.083H341.665L221.284 47.2207H237.728L391.974 103.083Z" fill="url(#paint6_linear_678_78334)"/>
<path d="M391.974 126.669H327.394L207.629 50.9448H225.352L391.974 126.669Z" fill="url(#paint7_linear_678_78334)"/>
<path d="M272.801 112.393H216.774L179.698 48.4622H196.644L272.801 112.393Z" fill="url(#paint8_linear_678_78334)"/>
<path d="M220.664 80.738H182.574L169.767 43.4966H184.84L220.664 80.738Z" fill="url(#paint9_linear_678_78334)"/>
<path d="M634.043 158.324H549.375L249.836 50.3242H268.723L634.043 158.324Z" fill="url(#paint10_linear_678_78334)"/>
<path d="M399.422 171.359H306.774L192.732 50.9448H212.055L399.422 171.359Z" fill="url(#paint11_linear_678_78334)"/>
<path d="M238.664 150.255H158.595L161.748 52.1863H180.669L238.664 150.255Z" fill="url(#paint12_linear_678_78334)"/>
<path d="M193.974 112.393H137.491L155.012 48.4622H172.088L193.974 112.393Z" fill="url(#paint13_linear_678_78334)"/>
<path d="M162.563 80.738H124.457L148.481 43.4966H163.56L162.563 80.738Z" fill="url(#paint14_linear_678_78334)"/>
<path d="M131.03 134.117H62.3877L135.842 50.3242H153.629L131.03 134.117Z" fill="url(#paint15_linear_678_78334)"/>
<path d="M99.9526 91.2898H56.8013L124.498 45.9795H139.974L99.9526 91.2898Z" fill="url(#paint16_linear_678_78334)"/>
<path d="M67.037 171.359H-25.7505L124.34 50.9448H143.698L67.037 171.359Z" fill="url(#paint17_linear_678_78334)"/>
<path d="M-185.898 150.255H-264.716L62.4124 52.1863H81.0083L-185.898 150.255Z" fill="url(#paint18_linear_678_78334)"/>
<path d="M-21.026 106.807H-74.1641L87.9336 47.8416H104.595L-21.026 106.807Z" fill="url(#paint19_linear_678_78334)"/>
<path d="M-27.2912 95.0139H-72.9229L81.8756 46.6001H97.7668L-27.2912 95.0139Z" fill="url(#paint20_linear_678_78334)"/>
<path d="M291.422 91.2898H247.563L192.732 45.9795H208.432L291.422 91.2898Z" fill="url(#paint21_linear_678_78334)"/>
</g>
<g opacity="0.226857">
<path fill-rule="evenodd" clip-rule="evenodd" d="M41.048 76.5605H1.54639L103.973 44.8616H119.019L41.048 76.5605Z" stroke="url(#paint22_linear_678_78334)" stroke-width="0.5" style="mix-blend-mode:lighten"/>
<path fill-rule="evenodd" clip-rule="evenodd" d="M-19.7747 118.204H-89.1997L100.377 50.4556H118.397L-19.7747 118.204Z" stroke="url(#paint23_linear_678_78334)" stroke-width="0.5" style="mix-blend-mode:lighten"/>
<path fill-rule="evenodd" clip-rule="evenodd" d="M63.494 95.8284H10.248L117.863 48.5908H134.557L63.494 95.8284Z" stroke="url(#paint24_linear_678_78334)" stroke-width="0.5" style="mix-blend-mode:lighten"/>
<path fill-rule="evenodd" clip-rule="evenodd" d="M85.2761 69.7235H51.8916L118.69 45.4832H132.693L85.2761 69.7235Z" stroke="url(#paint25_linear_678_78334)" stroke-width="0.5" style="mix-blend-mode:lighten"/>
<path fill-rule="evenodd" clip-rule="evenodd" d="M478.894 128.77H399.96L222.195 50.4556H240.848L478.894 128.77Z" stroke="url(#paint26_linear_678_78334)" stroke-width="0.5" style="mix-blend-mode:lighten"/>
<path fill-rule="evenodd" clip-rule="evenodd" d="M395.607 91.4775H345.249L224.682 47.3477H241.151L395.607 91.4775Z" stroke="url(#paint27_linear_678_78334)" stroke-width="0.5" style="mix-blend-mode:lighten"/>
<path fill-rule="evenodd" clip-rule="evenodd" d="M395.607 110.124H330.918L211.007 49.834H228.752L395.607 110.124Z" stroke="url(#paint28_linear_678_78334)" stroke-width="0.5" style="mix-blend-mode:lighten"/>
<path fill-rule="evenodd" clip-rule="evenodd" d="M276.892 100.179H220.775L183.66 48.5908H200.624L276.892 100.179Z" stroke="url(#paint29_linear_678_78334)" stroke-width="0.5" style="mix-blend-mode:lighten"/>
<path fill-rule="evenodd" clip-rule="evenodd" d="M224.06 74.6959H187.292L174.958 45.4832H189.479L224.06 74.6959Z" stroke="url(#paint30_linear_678_78334)" stroke-width="0.5" style="mix-blend-mode:lighten"/>
<path fill-rule="evenodd" clip-rule="evenodd" d="M638.632 136.85H553.87L253.895 51.6985H272.809L638.632 136.85Z" stroke="url(#paint31_linear_678_78334)" stroke-width="0.5" style="mix-blend-mode:lighten"/>
<path fill-rule="evenodd" clip-rule="evenodd" d="M403.066 146.795H310.585L196.712 50.4556H215.976L403.066 146.795Z" stroke="url(#paint32_linear_678_78334)" stroke-width="0.5" style="mix-blend-mode:lighten"/>
<path fill-rule="evenodd" clip-rule="evenodd" d="M242.085 128.77H161.905L165.093 50.4556H184.01L242.085 128.77Z" stroke="url(#paint33_linear_678_78334)" stroke-width="0.5" style="mix-blend-mode:lighten"/>
<path fill-rule="evenodd" clip-rule="evenodd" d="M197.333 100.179H142.016L159.155 48.5908H175.887L197.333 100.179Z" stroke="url(#paint34_linear_678_78334)" stroke-width="0.5" style="mix-blend-mode:lighten"/>
<path fill-rule="evenodd" clip-rule="evenodd" d="M165.879 74.6959H127.72L151.808 45.4832H166.878L165.879 74.6959Z" stroke="url(#paint35_linear_678_78334)" stroke-width="0.5" style="mix-blend-mode:lighten"/>
<path fill-rule="evenodd" clip-rule="evenodd" d="M134.281 118.204H65.5654L139.097 50.4556H156.933L134.281 118.204Z" stroke="url(#paint36_linear_678_78334)" stroke-width="0.5" style="mix-blend-mode:lighten"/>
<path fill-rule="evenodd" clip-rule="evenodd" d="M103.198 82.776H59.9717L127.756 46.7263H143.259L103.198 82.776Z" stroke="url(#paint37_linear_678_78334)" stroke-width="0.5" style="mix-blend-mode:lighten"/>
<path fill-rule="evenodd" clip-rule="evenodd" d="M70.8726 146.795H-22.0728L128.255 50.4556H147.61L70.8726 146.795Z" stroke="url(#paint38_linear_678_78334)" stroke-width="0.5" style="mix-blend-mode:lighten"/>
<path fill-rule="evenodd" clip-rule="evenodd" d="M-182.471 128.77H-261.368L66.1823 50.4556H84.8335L-182.471 128.77Z" stroke="url(#paint39_linear_678_78334)" stroke-width="0.5" style="mix-blend-mode:lighten"/>
<path fill-rule="evenodd" clip-rule="evenodd" d="M-17.3417 95.8284H-70.5532L91.7388 48.5908H108.452L-17.3417 95.8284Z" stroke="url(#paint40_linear_678_78334)" stroke-width="0.5" style="mix-blend-mode:lighten"/>
<path fill-rule="evenodd" clip-rule="evenodd" d="M-24.2152 85.262H-69.9316L85.0538 47.3477H100.994L-24.2152 85.262Z" stroke="url(#paint41_linear_678_78334)" stroke-width="0.5" style="mix-blend-mode:lighten"/>
<path fill-rule="evenodd" clip-rule="evenodd" d="M295.538 82.776H251.619L196.712 46.7263H212.463L295.538 82.776Z" stroke="url(#paint42_linear_678_78334)" stroke-width="0.5" style="mix-blend-mode:lighten"/>
</g>
<rect x="-0.0078125" y="0.545166" width="343" height="158" fill="url(#paint43_linear_678_78334)" style="mix-blend-mode:screen"/>
</g>
<rect x="327.55" y="56.0457" width="5" height="5" transform="rotate(-45 327.55 56.0457)" fill="#0784C3" style="mix-blend-mode:lighten"/>
<rect x="317.31" y="105.086" width="4" height="4" transform="rotate(-27 317.31 105.086)" fill="#0784C3" style="mix-blend-mode:lighten"/>
<rect x="6.65479" y="60.5229" width="2" height="2" transform="rotate(-27 6.65479 60.5229)" fill="#0784C3"/>
<rect x="288.948" y="16.4128" width="7" height="7" transform="rotate(-27 288.948 16.4128)" fill="#74B8DB"/>
<rect x="294.353" y="75.009" width="3" height="3" transform="rotate(-30 294.353 75.009)" fill="#74B8DB"/>
<rect x="247.353" y="117.009" width="3" height="3" transform="rotate(-30 247.353 117.009)" fill="#0784C3"/>
<rect x="32.5396" y="100.183" width="4" height="4" transform="rotate(56 32.5396 100.183)" fill="#4BBAF2" style="mix-blend-mode:lighten"/>
<rect x="50.5" y="7.16699" width="3" height="3" transform="rotate(45 50.5 7.16699)" fill="#0784C3"/>
</g>
<defs>
<radialGradient id="paint0_radial_678_78334" cx="0" cy="0" r="1" gradientUnits="userSpaceOnUse" gradientTransform="translate(193.205 140.851) scale(208.893 80.3902)">
<stop stop-color="#0D1C32"/>
<stop offset="1" stop-color="#0F3E55"/>
</radialGradient>
<linearGradient id="paint1_linear_678_78334" x1="95.2457" y1="85.1302" x2="95.2457" y2="58.4765" gradientUnits="userSpaceOnUse">
<stop offset="0.00513549" stop-color="#0784C3"/>
<stop offset="1" stop-color="#0784C3" stop-opacity="0"/>
</linearGradient>
<linearGradient id="paint2_linear_678_78334" x1="79.3575" y1="132.927" x2="79.3575" y2="77.569" gradientUnits="userSpaceOnUse">
<stop offset="0.00513549" stop-color="#0784C3"/>
<stop offset="1" stop-color="#0784C3" stop-opacity="0"/>
</linearGradient>
<linearGradient id="paint3_linear_678_78334" x1="109.605" y1="105.969" x2="109.605" y2="67.0138" gradientUnits="userSpaceOnUse">
<stop offset="0.00513549" stop-color="#0784C3"/>
<stop offset="1" stop-color="#0784C3" stop-opacity="0"/>
</linearGradient>
<linearGradient id="paint4_linear_678_78334" x1="115.734" y1="74.6932" x2="115.734" y2="53.3703" gradientUnits="userSpaceOnUse">
<stop offset="0.00513549" stop-color="#0784C3"/>
<stop offset="1" stop-color="#0784C3" stop-opacity="0"/>
</linearGradient>
<linearGradient id="paint5_linear_678_78334" x1="430.418" y1="148.862" x2="430.418" y2="84.0728" gradientUnits="userSpaceOnUse">
<stop offset="0.00513549" stop-color="#0784C3"/>
<stop offset="1" stop-color="#0784C3" stop-opacity="0"/>
</linearGradient>
<linearGradient id="paint6_linear_678_78334" x1="363.018" y1="102.289" x2="363.018" y2="65.3839" gradientUnits="userSpaceOnUse">
<stop offset="0.00513549" stop-color="#0784C3"/>
<stop offset="1" stop-color="#0784C3" stop-opacity="0"/>
</linearGradient>
<linearGradient id="paint7_linear_678_78334" x1="360.701" y1="125.593" x2="360.701" y2="75.566" gradientUnits="userSpaceOnUse">
<stop offset="0.00513549" stop-color="#0784C3"/>
<stop offset="1" stop-color="#0784C3" stop-opacity="0"/>
</linearGradient>
<linearGradient id="paint8_linear_678_78334" x1="257.007" y1="111.485" x2="257.007" y2="69.2489" gradientUnits="userSpaceOnUse">
<stop offset="0.00513549" stop-color="#0784C3"/>
<stop offset="1" stop-color="#0784C3" stop-opacity="0"/>
</linearGradient>
<linearGradient id="paint9_linear_678_78334" x1="212.03" y1="80.2088" x2="212.03" y2="55.6054" gradientUnits="userSpaceOnUse">
<stop offset="0.00513549" stop-color="#0784C3"/>
<stop offset="1" stop-color="#0784C3" stop-opacity="0"/>
</linearGradient>
<linearGradient id="paint10_linear_678_78334" x1="568.866" y1="156.79" x2="568.866" y2="85.4397" gradientUnits="userSpaceOnUse">
<stop offset="0.00513549" stop-color="#0784C3"/>
<stop offset="1" stop-color="#0784C3" stop-opacity="0"/>
</linearGradient>
<linearGradient id="paint11_linear_678_78334" x1="364.359" y1="169.648" x2="364.359" y2="90.0966" gradientUnits="userSpaceOnUse">
<stop offset="0.00513549" stop-color="#0784C3"/>
<stop offset="1" stop-color="#0784C3" stop-opacity="0"/>
</linearGradient>
<linearGradient id="paint12_linear_678_78334" x1="225.081" y1="148.862" x2="225.081" y2="84.0728" gradientUnits="userSpaceOnUse">
<stop offset="0.00513549" stop-color="#0784C3"/>
<stop offset="1" stop-color="#0784C3" stop-opacity="0"/>
</linearGradient>
<linearGradient id="paint13_linear_678_78334" x1="184.392" y1="111.485" x2="184.392" y2="69.2489" gradientUnits="userSpaceOnUse">
<stop offset="0.00513549" stop-color="#0784C3"/>
<stop offset="1" stop-color="#0784C3" stop-opacity="0"/>
</linearGradient>
<linearGradient id="paint14_linear_678_78334" x1="156.926" y1="80.2088" x2="156.926" y2="55.6054" gradientUnits="userSpaceOnUse">
<stop offset="0.00513549" stop-color="#0784C3"/>
<stop offset="1" stop-color="#0784C3" stop-opacity="0"/>
</linearGradient>
<linearGradient id="paint15_linear_678_78334" x1="138.151" y1="132.927" x2="138.151" y2="77.569" gradientUnits="userSpaceOnUse">
<stop offset="0.00513549" stop-color="#0784C3"/>
<stop offset="1" stop-color="#0784C3" stop-opacity="0"/>
</linearGradient>
<linearGradient id="paint16_linear_678_78334" x1="125.864" y1="90.646" x2="125.864" y2="60.7119" gradientUnits="userSpaceOnUse">
<stop offset="0.00513549" stop-color="#0784C3"/>
<stop offset="1" stop-color="#0784C3" stop-opacity="0"/>
</linearGradient>
<linearGradient id="paint17_linear_678_78334" x1="114.953" y1="169.648" x2="114.953" y2="90.0966" gradientUnits="userSpaceOnUse">
<stop offset="0.00513549" stop-color="#0784C3"/>
<stop offset="1" stop-color="#0784C3" stop-opacity="0"/>
</linearGradient>
<linearGradient id="paint18_linear_678_78334" x1="22.3596" y1="148.862" x2="22.3596" y2="84.0728" gradientUnits="userSpaceOnUse">
<stop offset="0.00513549" stop-color="#0784C3"/>
<stop offset="1" stop-color="#0784C3" stop-opacity="0"/>
</linearGradient>
<linearGradient id="paint19_linear_678_78334" x1="74.2699" y1="105.969" x2="74.2699" y2="67.0138" gradientUnits="userSpaceOnUse">
<stop offset="0.00513549" stop-color="#0784C3"/>
<stop offset="1" stop-color="#0784C3" stop-opacity="0"/>
</linearGradient>
<linearGradient id="paint20_linear_678_78334" x1="68.8109" y1="94.326" x2="68.8109" y2="62.3415" gradientUnits="userSpaceOnUse">
<stop offset="0.00513549" stop-color="#0784C3"/>
<stop offset="1" stop-color="#0784C3" stop-opacity="0"/>
</linearGradient>
<linearGradient id="paint21_linear_678_78334" x1="274.68" y1="90.646" x2="274.68" y2="60.7119" gradientUnits="userSpaceOnUse">
<stop offset="0.00513549" stop-color="#0784C3"/>
<stop offset="1" stop-color="#0784C3" stop-opacity="0"/>
</linearGradient>
<linearGradient id="paint22_linear_678_78334" x1="7.25277" y1="149.625" x2="246.887" y2="149.625" gradientUnits="userSpaceOnUse">
<stop stop-color="#0784C3"/>
<stop offset="1" stop-color="#0784C3" stop-opacity="0"/>
</linearGradient>
<linearGradient id="paint23_linear_678_78334" x1="-79.1154" y1="274.363" x2="344.366" y2="274.363" gradientUnits="userSpaceOnUse">
<stop stop-color="#0784C3"/>
<stop offset="1" stop-color="#0784C3" stop-opacity="0"/>
</linearGradient>
<linearGradient id="paint24_linear_678_78334" x1="16.2865" y1="204.709" x2="269.868" y2="204.709" gradientUnits="userSpaceOnUse">
<stop stop-color="#0784C3"/>
<stop offset="1" stop-color="#0784C3" stop-opacity="0"/>
</linearGradient>
<linearGradient id="paint25_linear_678_78334" x1="55.8166" y1="125.597" x2="220.645" y2="125.597" gradientUnits="userSpaceOnUse">
<stop stop-color="#0784C3"/>
<stop offset="1" stop-color="#0784C3" stop-opacity="0"/>
</linearGradient>
<linearGradient id="paint26_linear_678_78334" x1="234.665" y1="309.284" x2="758.311" y2="309.284" gradientUnits="userSpaceOnUse">
<stop stop-color="#0784C3"/>
<stop offset="1" stop-color="#0784C3" stop-opacity="0"/>
</linearGradient>
<linearGradient id="paint27_linear_678_78334" x1="232.985" y1="193.195" x2="581.659" y2="193.195" gradientUnits="userSpaceOnUse">
<stop stop-color="#0784C3"/>
<stop offset="1" stop-color="#0784C3" stop-opacity="0"/>
</linearGradient>
<linearGradient id="paint28_linear_678_78334" x1="219.974" y1="249.091" x2="596.543" y2="249.091" gradientUnits="userSpaceOnUse">
<stop stop-color="#0784C3"/>
<stop offset="1" stop-color="#0784C3" stop-opacity="0"/>
</linearGradient>
<linearGradient id="paint29_linear_678_78334" x1="188.189" y1="219.089" x2="378.375" y2="219.089" gradientUnits="userSpaceOnUse">
<stop stop-color="#0784C3"/>
<stop offset="1" stop-color="#0784C3" stop-opacity="0"/>
</linearGradient>
<linearGradient id="paint30_linear_678_78334" x1="177.343" y1="142.03" x2="277.508" y2="142.03" gradientUnits="userSpaceOnUse">
<stop stop-color="#0784C3"/>
<stop offset="1" stop-color="#0784C3" stop-opacity="0"/>
</linearGradient>
<linearGradient id="paint31_linear_678_78334" x1="272.584" y1="333.123" x2="1057.42" y2="333.123" gradientUnits="userSpaceOnUse">
<stop stop-color="#0784C3"/>
<stop offset="1" stop-color="#0784C3" stop-opacity="0"/>
</linearGradient>
<linearGradient id="paint32_linear_678_78334" x1="206.736" y1="368.855" x2="627.681" y2="368.855" gradientUnits="userSpaceOnUse">
<stop stop-color="#0784C3"/>
<stop offset="1" stop-color="#0784C3" stop-opacity="0"/>
</linearGradient>
<linearGradient id="paint33_linear_678_78334" x1="165.8" y1="309.284" x2="329.36" y2="309.284" gradientUnits="userSpaceOnUse">
<stop stop-color="#0784C3"/>
<stop offset="1" stop-color="#0784C3" stop-opacity="0"/>
</linearGradient>
<linearGradient id="paint34_linear_678_78334" x1="144.703" y1="219.089" x2="257.547" y2="219.089" gradientUnits="userSpaceOnUse">
<stop stop-color="#0784C3"/>
<stop offset="1" stop-color="#0784C3" stop-opacity="0"/>
</linearGradient>
<linearGradient id="paint35_linear_678_78334" x1="129.622" y1="142.03" x2="209.501" y2="142.03" gradientUnits="userSpaceOnUse">
<stop stop-color="#0784C3"/>
<stop offset="1" stop-color="#0784C3" stop-opacity="0"/>
</linearGradient>
<linearGradient id="paint36_linear_678_78334" x1="70.0037" y1="274.363" x2="256.386" y2="274.363" gradientUnits="userSpaceOnUse">
<stop stop-color="#0784C3"/>
<stop offset="1" stop-color="#0784C3" stop-opacity="0"/>
</linearGradient>
<linearGradient id="paint37_linear_678_78334" x1="64.0175" y1="165.869" x2="233.917" y2="165.869" gradientUnits="userSpaceOnUse">
<stop stop-color="#0784C3"/>
<stop offset="1" stop-color="#0784C3" stop-opacity="0"/>
</linearGradient>
<linearGradient id="paint38_linear_678_78334" x1="-13.8302" y1="368.855" x2="332.309" y2="368.855" gradientUnits="userSpaceOnUse">
<stop stop-color="#0784C3"/>
<stop offset="1" stop-color="#0784C3" stop-opacity="0"/>
</linearGradient>
<linearGradient id="paint39_linear_678_78334" x1="-244.551" y1="309.284" x2="461.674" y2="309.284" gradientUnits="userSpaceOnUse">
<stop stop-color="#0784C3"/>
<stop offset="1" stop-color="#0784C3" stop-opacity="0"/>
</linearGradient>
<linearGradient id="paint40_linear_678_78334" x1="-61.8578" y1="204.709" x2="303.3" y2="204.709" gradientUnits="userSpaceOnUse">
<stop stop-color="#0784C3"/>
<stop offset="1" stop-color="#0784C3" stop-opacity="0"/>
</linearGradient>
<linearGradient id="paint41_linear_678_78334" x1="-61.6287" y1="172.653" x2="287.046" y2="172.653" gradientUnits="userSpaceOnUse">
<stop stop-color="#0784C3"/>
<stop offset="1" stop-color="#0784C3" stop-opacity="0"/>
</linearGradient>
<linearGradient id="paint42_linear_678_78334" x1="201.513" y1="165.869" x2="403.11" y2="165.869" gradientUnits="userSpaceOnUse">
<stop stop-color="#0784C3"/>
<stop offset="1" stop-color="#0784C3" stop-opacity="0"/>
</linearGradient>
<linearGradient id="paint43_linear_678_78334" x1="342.995" y1="158.548" x2="342.995" y2="0.545166" gradientUnits="userSpaceOnUse">
<stop stop-color="#0B2C3D"/>
<stop offset="1" stop-color="#152E53"/>
</linearGradient>
</defs>
</svg>
