<svg width="90" height="90" viewBox="0 0 90 90" fill="none" xmlns="http://www.w3.org/2000/svg">
<path fill-rule="evenodd" clip-rule="evenodd" d="M77.4846 20.8527V20.7645L56.7201 0H56.6319L77.4846 20.8527ZM52.6425 0H15.1911C12.3241 0 10 2.32414 10 5.19112V77.8668C10 80.7338 12.3241 83.0579 15.1911 83.0579H72.2934C75.1604 83.0579 77.4846 80.7338 77.4846 77.8668V24.8573H59.8796C55.8826 24.8573 52.6425 21.6123 52.6425 17.6095V0ZM22.2817 51.7543C21.1102 51.7543 20.1606 52.7039 20.1606 53.8754C20.1606 55.0468 21.1102 55.9965 22.2817 55.9965H51.9768C53.1482 55.9965 54.0978 55.0468 54.0978 53.8754C54.0978 52.7039 53.1482 51.7543 51.9768 51.7543H22.2817ZM20.1606 64.905C20.1606 63.7336 21.1102 62.7839 22.2817 62.7839H46.0377C47.2092 62.7839 48.1588 63.7336 48.1588 64.905C48.1588 66.0764 47.2092 67.0261 46.0377 67.0261H22.2817C21.1102 67.0261 20.1606 66.0764 20.1606 64.905Z" fill="#939498" fill-opacity="0.5"/>
<path d="M77.4114 20.7646H61.9111C59.0441 20.7646 56.72 18.4404 56.72 15.5735V0.103516L77.4114 20.7646Z" fill="#939498" fill-opacity="0.5"/>
<circle cx="72.7428" cy="71.2681" r="16.1202" fill="#0784C3"/>
<rect x="71.0459" y="61.9355" width="3.39373" height="13.5749" rx="1.69686" fill="white"/>
<circle cx="72.7428" cy="79.7525" r="1.69686" fill="white"/>
<path fill-rule="evenodd" clip-rule="evenodd" d="M20.1431 36.6016C20.1431 38.4209 21.7159 39.8763 23.6287 39.8763H23.9687L23.8837 24.7965C23.8837 24.2709 24.0112 23.8262 24.2663 23.4219C24.5213 23.0177 24.9039 22.7347 25.414 22.4921C25.9241 22.2899 26.4341 22.2091 26.9017 22.2899C27.3693 22.3708 27.8369 22.5729 28.2194 22.9368L34.4255 28.2329C34.468 28.2733 34.723 28.4755 34.9355 28.6776C35.5731 29.2032 35.9132 29.4862 35.9132 30.3352C35.9132 31.0629 35.6156 31.7098 35.1056 32.1949C34.5955 32.68 33.9154 32.963 33.1502 32.963C32.3851 32.963 31.705 32.68 31.1949 32.1949C30.6848 31.7098 30.3873 31.0629 30.3873 30.3352C30.3873 29.4458 30.7699 29.1223 31.45 28.5563C31.535 28.4755 32.0451 28.0308 32.2576 27.8691L29.4096 25.4434L28.8995 25.8881C27.3693 27.1818 26.5617 27.8691 26.5617 30.3756C26.5617 32.114 27.2843 33.6503 28.4745 34.7823C29.6647 35.9143 31.3224 36.6016 33.1077 36.6016C34.9355 36.6016 36.5508 35.9143 37.741 34.7823C38.9312 33.6503 39.6538 32.0736 39.6538 30.3756C39.6538 27.9095 38.8037 27.1818 37.3159 26.0094C37.2309 25.9285 37.1459 25.8476 36.8484 25.6051L30.7699 20.2281C29.8347 19.4195 28.687 18.894 27.4968 18.7322C26.3066 18.5705 25.0739 18.6918 23.8837 19.2174C22.6935 19.7025 21.7584 20.5111 21.1208 21.4814C20.4832 22.4517 20.1006 23.5836 20.1431 24.7965V36.6016Z" fill="white"/>
<path fill-rule="evenodd" clip-rule="evenodd" d="M37.3222 23.6194L38.1765 22.9319C38.6037 22.568 39.1258 22.3658 39.6479 22.2849C40.17 22.204 40.7396 22.2849 41.3092 22.4871C41.8313 22.6893 42.2585 23.0128 42.5907 23.4172C42.8755 23.8216 43.0654 24.2665 43.0179 24.7922L42.923 39.8763H43.3027C45.4386 39.8763 47.1474 38.4205 47.1948 36.6007L47.2897 24.7922C47.2897 23.579 46.91 22.4062 46.1981 21.4761C45.4861 20.5055 44.3944 19.7372 43.1129 19.2115C41.7838 18.7262 40.4074 18.5644 39.0784 18.7262C37.7493 18.8879 36.4678 19.4137 35.4236 20.2225L34.5692 20.9099L33.7148 21.5974L36.895 24.0238L37.3222 23.6194Z" fill="white"/>
</svg>
