<svg width="18" height="17" viewBox="0 0 18 17" fill="none" xmlns="http://www.w3.org/2000/svg">
<path d="M15.0449 9.39941V9.39941C15.6827 9.39941 16.1998 9.9165 16.1998 10.5544V13.7994C16.1998 14.904 15.3044 15.7994 14.1998 15.7994H3.79981C2.69524 15.7994 1.7998 14.904 1.7998 13.7994V10.5818C1.7998 9.9288 2.32919 9.39941 2.98223 9.39941V9.39941" stroke="#0784C3" stroke-width="2" stroke-linecap="round" stroke-linejoin="round"/>
<path d="M5.3999 12.1998V3.79981C5.3999 2.69524 6.29533 1.7998 7.3999 1.7998H10.5999C11.7045 1.7998 12.5999 2.69524 12.5999 3.7998V12.1998" stroke="#0784C3" stroke-width="2" stroke-linecap="round"/>
<path d="M4.20801 12.6002H13.8242" stroke="#0784C3" stroke-width="2" stroke-linecap="round"/>
<path d="M8.99994 5.40019V9.80019M7.34668 6.69028L9.00081 5.19141L10.6055 6.69028" stroke="#0784C3" stroke-width="2" stroke-linecap="round" stroke-linejoin="round"/>
</svg>
