<?xml version="1.0" encoding="UTF-8"?>
<svg width="30px" height="30px" viewBox="0 0 30 30" version="1.1" xmlns="http://www.w3.org/2000/svg" xmlns:xlink="http://www.w3.org/1999/xlink">
    <title>ETH钱包</title>
    <g id="ETH" stroke="none" stroke-width="1" fill="none" fill-rule="evenodd">
        <g id="ETH流动性挖矿-列表-Light" transform="translate(-1589.000000, -23.000000)">
            <g id="编组-10" transform="translate(50.000000, 19.000000)">
                <g id="编组-4" transform="translate(1536.000000, 1.000000)">
                    <g id="ETH钱包" transform="translate(3.000000, 3.000000)">
                        <circle id="椭圆形" fill="#FFFFFF" fill-rule="nonzero" cx="15" cy="15" r="15"></circle>
                        <g id="编组-9" transform="translate(5.000000, 5.000000)">
                            <rect id="矩形" x="0" y="0" width="20" height="20"></rect>
                            <g id="编组-8" transform="translate(0.200000, 1.000000)" fill="#616CFF">
                                <path d="M18.7777778,8.88888889 C19.3300625,8.88888889 19.7777778,9.33660414 19.7777778,9.88888889 L19.7777778,11.8888889 C19.7777778,12.4411736 19.3300625,12.8888889 18.7777778,12.8888889 L14,12.8888889 C12.8954305,12.8888889 12,11.9934584 12,10.8888889 C12,9.78431939 12.8954305,8.88888889 14,8.88888889 L18.7777778,8.88888889 Z M14,10.1388889 C13.5857864,10.1388889 13.25,10.4746753 13.25,10.8888889 C13.25,11.3031025 13.5857864,11.6388889 14,11.6388889 C14.4142136,11.6388889 14.75,11.3031025 14.75,10.8888889 C14.75,10.4746753 14.4142136,10.1388889 14,10.1388889 Z" id="形状结合"></path>
                                <path d="M4.12329149,3.33238133 L3.84686972,3.33333333 C3.37190484,3.33333333 2.98686972,3.71836845 2.98686972,4.19333333 C2.98686972,4.63176246 3.31494698,4.99356503 3.73899315,5.04663271 L3.84686972,5.05333333 L14.4440444,5.05395371 L14.4440721,5.05597057 C15.9678323,5.31083983 17.1995743,6.42775113 17.6212787,7.88834354 L14,7.88888889 C12.3431458,7.88888889 11,9.23203464 11,10.8888889 C11,12.4865698 12.24892,13.7925498 13.8237272,13.8837962 L14,13.8888889 L17.777,13.8881111 L17.7777778,14.3333333 C17.7777778,16.5424723 15.9869168,18.3333333 13.7777778,18.3333333 L4,18.3333333 C1.790861,18.3333333 2.705415e-16,16.5424723 0,14.3333333 L0,9 C-9.44668829e-18,8.92286194 0.00218350033,8.84623386 0.00649206563,8.7701742 C0.00220278059,8.69412381 -2.16614702e-17,8.61716042 0,8.53968254 L0,5.11111111 C-1.15871992e-15,2.90197211 1.790861,1.11111111 4,1.11111111 L5.21601869,1.10995476 C4.73559081,1.76896562 4.36219459,2.51943795 4.12329149,3.33238133 Z" id="形状结合"></path>
                                <path d="M15.5555556,4 C15.2112507,1.73942708 13.1036613,0 10.5551112,0 C8.00874425,0 5.9025827,1.73644841 5.55555556,3.994192 L15.5555556,4 Z" id="路径"></path>
                            </g>
                        </g>
                    </g>
                </g>
            </g>
        </g>
    </g>
</svg>