<?xml version="1.0" encoding="UTF-8"?>
<svg width="37px" height="36px" viewBox="0 0 37 36" version="1.1" xmlns="http://www.w3.org/2000/svg" xmlns:xlink="http://www.w3.org/1999/xlink">
    <title>FAQ-Light</title>
    <g id="组件/弹窗/导航" stroke="none" stroke-width="1" fill="none" fill-rule="evenodd">
        <g id="H5更多-Light" transform="translate(-126.000000, -256.000000)" fill-rule="nonzero">
            <g id="编组-5" transform="translate(16.000000, 240.000000)">
                <g id="编组-11备份-2" transform="translate(0.000000, 16.000000)">
                    <g id="FAQ" transform="translate(85.750000, 0.000000)">
                        <g id="FAQ-Light" transform="translate(25.000000, 0.000000)">
                            <path d="M0,18 C0,24.4307807 3.4307805,30.3730671 9,33.5884575 C14.5692193,36.8038479 21.4307807,36.8038479 27,33.5884575 C32.5692195,30.3730671 36,24.4307807 36,18 C36,8.0588745 27.9411255,0 18,0 C8.0588745,0 0,8.0588745 0,18 Z" id="路径" fill-opacity="0.8" fill="#E0F9F3"></path>
                            <path d="M15.970017,26.2609881 C14.7618399,26.2568995 13.6558773,26.0954003 12.572402,25.7621806 C12.392018,25.705848 12.1981465,25.7101562 12.0204429,25.7744463 C10.9737649,26.1649063 9.93935264,26.5839864 8.8988075,26.9867121 C8.27529813,27.2279387 7.99727428,27.0112436 8.09744463,26.3448041 C8.23236797,25.4534923 8.37546848,24.5642249 8.54310051,23.6810903 C8.58603066,23.4521295 8.53287905,23.3110733 8.37955707,23.155707 C6.92606474,21.6817717 6.00204429,19.9216354 5.60749574,17.8896082 C4.78568995,13.6558773 6.63577513,9.4241908 10.2950596,7.14480409 C14.0463373,4.80817717 18.9424191,5.13526405 22.3482112,7.95229983 C26.5819421,11.4541738 27.2994889,17.6749574 24.1001704,22.0027257 C22.0681431,24.7543441 19.2919932,26.1158433 15.970017,26.2609881 L15.970017,26.2609881 Z M15.9536627,18.6828022 L15.9761499,18.6828022 C16.4422487,18.6848382 16.8224872,18.3107325 16.8265758,17.8446337 C16.8265758,17.7649063 16.8286201,17.7015332 16.8286201,17.6708688 C16.834753,16.8020443 17.1475298,16.6344123 17.8548552,16.2787053 C18.4844974,15.9618399 19.067121,15.4834753 19.2960818,14.7945486 C19.7458262,13.4432709 19.506644,12.1471891 18.5049404,11.1373083 C17.4521295,10.074276 15.8739353,9.76558773 14.4776831,10.311414 C13.5516184,10.6732538 12.913799,11.4153322 12.5764906,12.3229983 C12.3659284,12.8892675 12.746167,13.5025554 13.3431005,13.5986371 L13.367632,13.6027257 C13.7969336,13.6722317 14.2160136,13.4473595 14.4081772,13.0548552 C14.6964225,12.4640545 15.2708688,11.7403748 16.3584327,11.9959114 C16.9901193,12.1451448 17.5420784,12.7073254 17.644293,13.3369676 C17.762862,14.0729131 17.5768313,14.434753 16.8674617,14.853833 C16.7775128,14.9069847 16.6834753,14.9560477 16.5935264,15.0112436 C15.718569,15.550937 15.2034072,16.3277683 15.1216354,17.3519591 C15.1175468,17.4132879 15.1155026,17.6034072 15.1155026,17.8303237 C15.1093697,18.2984668 15.4855196,18.6787053 15.9536627,18.6828022 L15.9536627,18.6828022 Z M16.109029,19.6415615 C15.481431,19.6436116 14.9601363,20.1587734 14.9662692,20.770017 C14.972402,21.3730835 15.4855196,21.886201 16.0865417,21.8902896 C16.6752981,21.8943782 17.2129472,21.3649063 17.2149974,20.7781942 C17.2170358,20.1833049 16.6875639,19.639523 16.109029,19.6415615 L16.109029,19.6415615 Z" id="形状" fill="#27C29E"></path>
                            <path d="M19.0896082,27.6940375 C22.3522998,26.7925043 24.8340716,24.9649063 26.5042589,22.1151618 C28.1703578,19.269506 28.5424191,16.2132879 27.7308348,12.9321976 C28.8776831,13.7908007 29.7015332,14.8006814 30.2780239,15.9945486 C31.9155026,19.3819421 31.283816,23.1741056 28.6528109,25.8868825 C28.4729131,26.0708688 28.39523,26.2364566 28.4524702,26.4981261 C28.5465077,26.9315162 28.6098807,27.3730835 28.6691652,27.8126065 C28.7325383,28.2643952 28.5730835,28.3870528 28.158092,28.2153322 C27.6715503,28.0149915 27.1931857,27.7942078 26.7005111,27.6102215 C26.5553663,27.5570698 26.3488927,27.5468484 26.2139693,27.6102215 C24.2269165,28.5444634 22.1805792,28.6364566 20.0831346,28.0681431 C19.9584327,28.0354344 19.8357751,27.9945486 19.7172061,27.9475298 C19.5311755,27.8800681 19.3492334,27.8003407 19.0896082,27.6940375 L19.0896082,27.6940375 Z" id="路径" fill="#1BB48F"></path>
                            <path d="M8.23441227,25.4841567 C10.9655877,24.8034072 13.4494037,23.4971039 15.5284497,21.7287905 C15.1993186,21.530494 14.972402,21.1706985 14.9683135,20.770017 C14.9621806,20.1587734 15.4834753,19.6436116 16.1110733,19.6415673 C16.5056218,19.639523 16.8797274,19.8950596 17.0739353,20.2446337 C20.0463373,17.0350937 21.8657581,12.7379898 21.8657581,8.01771721 C21.8657581,7.86848382 21.8637138,7.72129472 21.8596252,7.57206133 C18.4865417,5.11073254 13.8725724,4.9165247 10.2991482,7.1427598 C6.63986371,9.42214651 4.78977853,13.653833 5.61158433,17.8875639 C6.00613288,19.9175468 6.92810903,21.6776831 8.38364566,23.1536627 C8.53696763,23.309029 8.59011925,23.4480409 8.5471891,23.679046 C8.4306644,24.2800681 8.33049404,24.8810903 8.23441227,25.4841567 L8.23441227,25.4841567 Z M12.5764906,12.3229983 C12.913799,11.4153322 13.5516184,10.6732538 14.4776831,10.311414 C15.8739353,9.76558773 17.4521295,10.074276 18.5049404,11.1373083 C19.5045997,12.1471891 19.7458262,13.4432709 19.2960818,14.7945486 C19.067121,15.4834753 18.4844974,15.9597956 17.8548552,16.2787053 C17.1495741,16.6344123 16.834753,16.8020443 16.8286201,17.6708688 C16.8286201,17.7035775 16.8286201,17.7669506 16.8265758,17.8446337 C16.8223037,18.3105493 16.4420783,18.6852906 15.9761499,18.6828063 L15.9536627,18.6828063 C15.729436,18.6815508 15.5148995,18.5912269 15.3573064,18.4317166 C15.1997132,18.2722062 15.11199,18.0565933 15.1134583,17.832368 C15.1155026,17.6054514 15.1175468,17.4153322 15.1195911,17.3540034 C15.2013629,16.3298126 15.7165247,15.550937 16.5914821,15.0132879 C16.681431,14.958092 16.7754685,14.909029 16.8654174,14.8558773 C17.5768313,14.4388416 17.762862,14.0749574 17.6422487,13.3390119 C17.5400341,12.7093697 16.9901193,12.1471891 16.3563884,11.9979557 C15.2688245,11.7424191 14.6943782,12.4660988 14.4061329,13.0568995 C14.2160136,13.4494037 13.7969336,13.674276 13.3655877,13.60477 L13.3410562,13.6006814 C12.746167,13.5025554 12.3659284,12.8892675 12.5764906,12.3229983 L12.5764906,12.3229983 Z" id="形状" fill="#3ECEAD"></path>
                            <path d="M12.9403748,13.437138 C12.592845,13.1959114 12.4190801,12.746167 12.5764906,12.3229983 C12.913799,11.4153322 13.5516184,10.6732538 14.4776831,10.311414 C14.7250426,10.2153322 14.9785349,10.1458262 15.2320273,10.1028961 C15.9795888,8.70094904 16.5371296,7.20569476 16.8899489,5.65655877 C14.6350937,5.41124361 12.3025554,5.89778535 10.2991482,7.14684838 C6.63986371,9.42623509 4.78977853,13.6579216 5.61158433,17.8916525 C5.65042589,18.0899489 5.69540034,18.2841567 5.74241908,18.4763203 C8.52015148,17.415063 10.9927098,15.6840615 12.9403748,13.437138 L12.9403748,13.437138 Z" id="路径" fill="#57DABC"></path>
                        </g>
                    </g>
                </g>
            </g>
        </g>
    </g>
</svg>