<?xml version="1.0" encoding="UTF-8"?>
<svg width="24px" height="24px" viewBox="0 0 24 24" version="1.1" xmlns="http://www.w3.org/2000/svg" xmlns:xlink="http://www.w3.org/1999/xlink">
    <title>Github icon</title>
    <defs>
        <filter color-interpolation-filters="auto" id="github_dark-1">
            <feColorMatrix in="SourceGraphic" type="matrix" values="0 0 0 0 0.903137 0 0 0 0 0.931961 0 0 0 0 0.960784 0 0 0 0.800000 0"></feColorMatrix>
        </filter>
    </defs>
    <g id="组件/弹窗/导航" stroke="none" stroke-width="1" fill="none" fill-rule="evenodd" fill-opacity="0.8">
        <g id="组件" transform="translate(-452.000000, -6483.000000)">
            <g id="编组-3" transform="translate(90.000000, 5442.000000)">
                <g id="底部-Dark备份" transform="translate(2.000000, 891.000000)">
                    <g id="编组" transform="translate(360.000000, 80.000000)">
                        <g id="Github-icon" transform="translate(0.000000, 70.000000)" filter="url(#github_dark-1)">
                            <g>
                                <path d="M0,12.3130446 C0,10.6447164 0.316651881,9.04947736 0.949205616,7.52653385 C1.58173591,6.00359033 2.43336775,4.69277135 3.50412456,3.59405285 C4.57408447,2.49615207 5.85156738,1.62228077 7.33652641,0.972414894 C8.81043667,0.325874867 10.3974932,-0.00500412918 12.0004266,0 C13.6255234,0 15.1801412,0.324184448 16.6643267,0.97402627 C18.1492858,1.62309848 19.4267687,2.49696978 20.4967286,3.59568828 C21.5674854,4.69358907 22.4191407,6.0044321 23.0516475,7.52816927 C23.6820678,9.03994493 24.0050649,10.6678715 24.0008938,12.3122268 C24.0008938,14.9894693 23.2390136,17.3982132 21.7153578,19.5392279 C20.1924521,21.679449 18.2352341,23.1666296 15.8444304,24 C15.7190119,24 15.6253289,23.9761901 15.5634048,23.9284982 C15.5006838,23.8808303 15.4650575,23.8323687 15.4573229,23.7839072 C15.4481427,23.7122883 15.4442642,23.6400586 15.4457209,23.5678384 C15.4331598,23.5456611 15.4252486,23.5210374 15.4224935,23.4955428 L15.4224935,20.3932817 C15.4224935,19.4161139 15.0864816,18.5819498 14.4144577,17.8923767 C16.2114044,17.5714241 17.5554522,16.886613 18.4458276,15.8363801 C19.3361795,14.7861232 19.7821172,13.5150355 19.7821172,12.0238625 C19.7821172,10.6288191 19.3446876,9.41809785 18.4690549,8.39249257 C18.7818395,7.36606957 18.7268766,6.28404205 18.3056898,5.14561635 C17.8674632,5.11382172 17.3913369,5.19010959 16.8757171,5.37440781 C16.3600737,5.55870602 15.977607,5.7310993 15.72677,5.8907699 C15.4774564,6.05125823 15.2505968,6.20380992 15.0477615,6.34837688 C14.1411667,6.09178315 13.1292401,5.96308946 12.0128254,5.96308946 C10.894817,5.96308946 9.89144535,6.09178315 9.00031993,6.34837688 C8.82844663,6.21970723 8.62870516,6.0798782 8.40264243,5.92732651 C8.17575937,5.77479887 7.78169067,5.59050065 7.21884254,5.37440781 C6.65674444,5.15752129 6.14888263,5.06536016 5.69516338,5.09794845 C5.25773377,6.25227148 5.21127899,7.35017226 5.55502559,8.39246852 C4.6956591,9.41889151 4.26596414,10.6288191 4.26596414,12.0238385 C4.26596414,13.5150114 4.70339375,14.7821549 5.57827641,15.8236575 C6.45313564,16.8659778 7.79718341,17.5555268 9.60962284,17.8923767 C9.14563689,18.349365 8.82030601,18.9342568 8.6728161,19.5766022 C7.34426106,19.9126344 6.41441551,19.671914 5.88330288,18.8536472 C4.89849444,17.3791652 4.01587712,16.8500805 3.23470092,17.2671625 C3.12477514,17.3791652 3.1410179,17.4951603 3.2811557,17.6159174 C3.42206695,17.7358808 3.63263694,17.896345 3.91445946,18.0965646 C4.19548507,18.2975538 4.40610193,18.517615 4.54698975,18.7583114 C4.56248249,18.790106 4.60581997,18.9068707 4.67629904,19.1070903 C4.74360879,19.3004385 4.81381491,19.4927122 4.88689246,19.683843 C4.95657463,19.8681412 5.0897278,20.0731228 5.28560195,20.2971282 C5.48070263,20.5219754 5.70756226,20.710266 5.96538392,20.8627936 C6.22320559,21.0145276 6.57855416,21.127348 7.03147651,21.1996435 C7.48439886,21.2711213 8.00001875,21.2751137 8.57835962,21.2115485 L8.57835962,23.6282289 C8.57835962,23.6520629 8.57449229,23.6917941 8.56675764,23.748986 C8.55902299,23.8045905 8.54353025,23.8443218 8.52030287,23.8681557 C8.49707548,23.8927833 8.46533997,23.9166173 8.42584638,23.9412449 C8.37932492,23.9669594 8.32689988,23.9793069 8.27410661,23.9769838 C8.21138563,23.9769838 8.13319536,23.9690471 8.03951234,23.9531739 C5.66420134,23.1031125 3.73096075,21.6159078 2.2382905,19.4915841 C0.746323404,17.3672603 0,14.9752074 0,12.3138623 L0,12.3130446 Z" fill="#E6EEF5" fill-rule="nonzero"></path>
                            </g>
                        </g>
                    </g>
                </g>
            </g>
        </g>
    </g>
</svg>