<svg width="90" height="91" viewBox="0 0 90 91" fill="none" xmlns="http://www.w3.org/2000/svg">
<path fill-rule="evenodd" clip-rule="evenodd" d="M77.4846 21.1208V21.0325L56.7201 0.268066H56.6319L77.4846 21.1208ZM52.6425 0.268066H15.1911C12.3241 0.268066 10 2.59221 10 5.45919V78.1349C10 81.0018 12.3241 83.326 15.1911 83.326H72.2934C75.1604 83.326 77.4846 81.0018 77.4846 78.1349V25.1253H59.8796C55.8826 25.1253 52.6425 21.8804 52.6425 17.8776V0.268066ZM22.2817 52.0224C21.1102 52.0224 20.1606 52.972 20.1606 54.1435C20.1606 55.3149 21.1102 56.2645 22.2817 56.2645H51.9768C53.1482 56.2645 54.0978 55.3149 54.0978 54.1435C54.0978 52.972 53.1482 52.0224 51.9768 52.0224H22.2817ZM20.1606 65.1731C20.1606 64.0016 21.1102 63.052 22.2817 63.052H46.0377C47.2092 63.052 48.1588 64.0016 48.1588 65.1731C48.1588 66.3445 47.2092 67.2941 46.0377 67.2941H22.2817C21.1102 67.2941 20.1606 66.3445 20.1606 65.1731Z" fill="#939498" fill-opacity="0.5"/>
<path d="M77.4114 21.0326H61.9111C59.0441 21.0326 56.72 18.7085 56.72 15.8415V0.371582L77.4114 21.0326Z" fill="#939498" fill-opacity="0.5"/>
<circle cx="72.7428" cy="71.5362" r="16.1202" fill="#2C72F4"/>
<rect x="71.0459" y="62.2036" width="3.39373" height="13.5749" rx="1.69686" fill="white"/>
<circle cx="72.7428" cy="80.0206" r="1.69686" fill="white"/>
<path fill-rule="evenodd" clip-rule="evenodd" d="M20.1431 36.8697C20.1431 38.689 21.7159 40.1444 23.6287 40.1444H23.9687L23.8837 25.0646C23.8837 24.539 24.0112 24.0943 24.2663 23.69C24.5213 23.2857 24.9039 23.0027 25.414 22.7601C25.9241 22.558 26.4341 22.4771 26.9017 22.558C27.3693 22.6389 27.8369 22.841 28.2194 23.2049L34.4255 28.501C34.468 28.5414 34.723 28.7436 34.9355 28.9457C35.5731 29.4713 35.9132 29.7543 35.9132 30.6033C35.9132 31.331 35.6156 31.9778 35.1056 32.463C34.5955 32.9481 33.9154 33.2311 33.1502 33.2311C32.3851 33.2311 31.705 32.9481 31.1949 32.463C30.6848 31.9778 30.3873 31.331 30.3873 30.6033C30.3873 29.7138 30.7699 29.3904 31.45 28.8244C31.535 28.7436 32.0451 28.2988 32.2576 28.1371L29.4096 25.7114L28.8995 26.1561C27.3693 27.4498 26.5617 28.1371 26.5617 30.6437C26.5617 32.3821 27.2843 33.9184 28.4745 35.0504C29.6647 36.1824 31.3224 36.8697 33.1077 36.8697C34.9355 36.8697 36.5508 36.1824 37.741 35.0504C38.9312 33.9184 39.6538 32.3417 39.6538 30.6437C39.6538 28.1776 38.8037 27.4498 37.3159 26.2774C37.2309 26.1966 37.1459 26.1157 36.8484 25.8731L30.7699 20.4962C29.8347 19.6876 28.687 19.162 27.4968 19.0003C26.3066 18.8386 25.0739 18.9599 23.8837 19.4854C22.6935 19.9706 21.7584 20.7792 21.1208 21.7494C20.4832 22.7197 20.1006 23.8517 20.1431 25.0646V36.8697Z" fill="white"/>
<path fill-rule="evenodd" clip-rule="evenodd" d="M37.3222 23.8875L38.1765 23.2C38.6037 22.8361 39.1258 22.6339 39.6479 22.553C40.17 22.4721 40.7396 22.553 41.3092 22.7552C41.8313 22.9574 42.2585 23.2809 42.5907 23.6853C42.8755 24.0897 43.0654 24.5345 43.0179 25.0603L42.923 40.1444H43.3027C45.4386 40.1444 47.1474 38.6885 47.1948 36.8687L47.2897 25.0603C47.2897 23.8471 46.91 22.6743 46.1981 21.7442C45.4861 20.7736 44.3944 20.0053 43.1129 19.4795C41.7838 18.9943 40.4074 18.8325 39.0784 18.9943C37.7493 19.156 36.4678 19.6817 35.4236 20.4905L34.5692 21.178L33.7148 21.8655L36.895 24.2919L37.3222 23.8875Z" fill="white"/>
</svg>
