<?xml version="1.0" encoding="UTF-8"?>
<svg width="17px" height="17px" viewBox="0 0 17 17" version="1.1" xmlns="http://www.w3.org/2000/svg" xmlns:xlink="http://www.w3.org/1999/xlink">
    <title>添加</title>
    <defs>
        <filter color-interpolation-filters="auto" id="filter-1">
            <feColorMatrix in="SourceGraphic" type="matrix" values="0 0 0 0 0.011765 0 0 0 0 0.678431 0 0 0 0 0.564706 0 0 0 1.000000 0"></feColorMatrix>
        </filter>
    </defs>
    <g id="HECO" stroke="none" stroke-width="1" fill="none" fill-rule="evenodd">
        <g id="HECO流动性挖矿-列表-Dark" transform="translate(-1232.000000, -1011.000000)">
            <g id="币种" transform="translate(360.000000, 880.000000)">
                <g id="添加" transform="translate(872.000000, 125.000000)" filter="url(#filter-1)">
                    <g transform="translate(0.000000, 6.000000)">
                        <rect id="矩形" x="0" y="0" width="16" height="16"></rect>
                        <path d="M7.56089808,5.6 L13.1608981,5.6 C14.2654676,5.6 15.1608981,6.4954305 15.1608981,7.6 L15.1608981,11.2 C15.1608981,13.409139 13.3700371,15.2 11.1608981,15.2 L7.56089808,15.2 C6.45632858,15.2 5.56089808,14.3045695 5.56089808,13.2 L5.56089808,7.6 C5.56089808,6.4954305 6.45632858,5.6 7.56089808,5.6 Z" id="矩形" stroke="#979797" stroke-width="2"></path>
                        <path d="M10.3591975,8 L10.3591975,12.8 M8.06991169,10.3454545 L12.6484833,10.3454545" id="直线-3" stroke="#03AD90" stroke-width="2" stroke-linecap="round"></path>
                        <path d="M2.81378894,14.1969056 C1.88615849,13.76153 1.36803407,12.7379823 1.36803407,11.6414343 L1.36803407,4.32391378 C1.36803407,2.70737179 2.67850028,1.39690558 4.29504227,1.39690558 L11.6125628,1.39690558 C12.9025428,1.39690558 13.9976188,2.23138928 14.3874143,3.38998025" id="路径" stroke="#979797" stroke-width="2" stroke-linecap="round"></path>
                    </g>
                </g>
            </g>
        </g>
    </g>
</svg>