<?xml version="1.0" encoding="UTF-8"?>
<svg width="172px" height="43px" viewBox="0 0 172 43" version="1.1" xmlns="http://www.w3.org/2000/svg" xmlns:xlink="http://www.w3.org/1999/xlink">
    <title>Heco</title>
    <g id="HECO" stroke="none" stroke-width="1" fill="none" fill-rule="evenodd">
        <g id="合作伙伴" transform="translate(-2794.000000, -1414.000000)">
            <g id="编组-2备份-4" transform="translate(1920.000000, 903.000000)">
                <g id="编组-8" transform="translate(360.000000, 100.000000)">
                    <g id="编组-7" transform="translate(0.000000, 411.000000)">
                        <g id="Heco" transform="translate(514.000000, 0.000000)">
                            <rect id="矩形" x="0" y="0" width="172" height="43"></rect>
                            <g id="编组-5" transform="translate(0.000000, 11.025641)" fill-rule="nonzero">
                                <path d="M6.29319003,0.0800256993 C6.28615366,-0.036492183 6.36535966,0.00805886626 6.37064475,0.00977237718 C7.48137385,0.827111612 8.94243567,3.33738908 8.94243567,6.25548636 C8.94243567,9.40662019 3.75135056,12.3109966 4.13333129,16.1166529 C4.44841965,19.2661293 6.89696476,20.7568221 4.90785511,20.2187748 C1.35385819,19.2575293 -2.13676456,14.0519493 1.61614255,9.3038111 C3.2426371,7.24588582 6.19989566,5.71915909 6.29143093,0.0834531902 C6.29143093,0.0817394448 6.29319003,0.0817394448 6.29319003,0.0800256993 Z M19.2877666,5.23814545 C19.7137794,5.23814545 20.0587957,5.57399109 20.0587957,5.98865963 L20.0587957,5.98865963 L20.0587957,11.0743166 L25.9715303,11.0743166 L25.9715303,5.23814545 L27.9676685,5.23814545 C28.3936812,5.23814545 28.7386976,5.57399109 28.7386976,5.98865963 L28.7386976,5.98865963 L28.7386976,19.8936948 L26.7425594,19.8936948 C26.3165467,19.8936948 25.9715303,19.5579039 25.9715303,19.1432275 L25.9715303,19.1432275 L25.9715303,13.4269638 L20.0587957,13.4269638 L20.0587957,19.8954148 L18.0626575,19.8954148 C17.6366448,19.8954148 17.2916284,19.5596239 17.2916284,19.1449475 L17.2916284,19.1449475 L17.2916284,5.23814545 Z M32.725423,8.69352383 C33.1514358,8.69352383 33.4964521,9.02939292 33.4964521,9.44406928 L33.4964521,9.44406928 L33.4964521,15.5132457 C33.4964521,16.964613 35.1176303,18.0646311 36.6843158,17.183913 C37.2458176,16.8669639 37.5767612,16.2689511 37.5767612,15.6383366 L37.5767612,15.6383366 L37.5767612,8.69352383 L39.581734,8.69352383 C40.0076685,8.69352383 40.3526849,9.02939292 40.3526849,9.44406928 L40.3526849,9.44406928 L40.3526849,15.7599875 C40.3526849,18.0338275 38.4410613,19.8947111 36.1051449,19.8947111 L36.1051449,19.8947111 L34.9697885,19.8947111 C32.6338721,19.8947111 30.7222485,18.0338275 30.7222485,15.7599875 L30.7222485,15.7599875 L30.7222485,8.69352383 Z M47.5931813,8.68664383 C50.4959158,8.68664383 52.8705322,10.706862 52.8705322,13.5324311 L52.8705322,13.5324311 L52.8705322,15.0608857 C52.8705322,17.8864548 50.4959158,19.8947111 47.5931813,19.8947111 C44.6905249,19.8947111 42.3159085,17.8864548 42.3159085,15.0608857 L42.3159085,15.0608857 L42.3159085,13.5324311 C42.3159085,10.706862 44.6905249,8.68664383 47.5931813,8.68664383 Z M85.5129269,5.25627581 C86.007036,5.25627581 86.4104542,5.66066345 86.4104542,6.15929145 L86.4104542,6.15929145 L86.4104542,7.85564928 L78.5203451,7.85564928 L78.5203451,11.0530511 L84.1306724,11.0530511 C84.3863269,11.0376493 84.6060178,11.1404584 84.7803633,11.3117547 C84.9547087,11.4831293 85.0493087,11.7110293 85.0493087,11.9560511 L85.0493087,11.9560511 L85.0493087,13.5924748 L84.9351633,13.5890348 C84.5004724,13.5753529 84.1416178,13.5684729 84.0814178,13.5684729 L78.5203451,13.5684729 L78.5203451,17.295322 L85.7099451,17.295322 C86.2040542,17.295322 86.6074724,17.6997566 86.6074724,18.198322 L86.6074724,18.198322 L86.6074724,19.8947111 L76.7287305,19.8947111 C76.4876178,19.8947111 76.2604996,19.8005021 76.0915487,19.6291275 C75.9225196,19.457753 75.8310469,19.231573 75.8310469,18.9899911 L75.8310469,18.9899911 L75.8319403,18.649043 C75.8326746,18.3437554 75.8333827,17.987105 75.8340637,17.5906975 L75.8348676,17.0966679 C75.835263,16.8408541 75.8356483,16.572399 75.8360235,16.2938094 L75.83676,15.7238602 C75.8368805,15.6268641 75.8369998,15.5289276 75.8371179,15.4301437 L75.8378126,14.8280124 C75.837926,14.7262098 75.8380383,14.6237453 75.8381493,14.5207118 L75.8388011,13.8964258 C75.8389073,13.7914877 75.8390124,13.6861664 75.8391161,13.5805546 L75.8397241,12.9441411 C75.8398229,12.8377389 75.8399205,12.7312319 75.8400169,12.624713 L75.8408499,11.668228 C75.8409386,11.5624732 75.8410261,11.456985 75.8411122,11.3518563 L75.8418526,10.4179104 C75.8419309,10.3157741 75.842008,10.2142758 75.8420836,10.1135084 L75.8429273,8.94532177 C75.8429922,8.85188662 75.8430557,8.7595537 75.8431178,8.66841586 L75.8439453,7.40258432 C75.8439934,7.32571833 75.8440401,7.25051165 75.8440853,7.17705712 L75.844951,5.68724006 C75.8449696,5.6528446 75.8449867,5.62103689 75.8450023,5.59190978 L75.8451196,5.25627581 Z M108.9964,5.25799581 C112.779618,5.25799581 115.632472,7.94305655 115.632472,11.5054111 L115.632472,11.5054111 L115.632472,13.6421984 C115.632472,17.194233 112.779618,19.8724293 108.9964,19.8724293 C105.213182,19.8724293 102.360327,17.194233 102.360327,13.6421984 L102.360327,13.6421984 L102.360327,11.5054111 C102.360327,7.94305655 105.213182,5.25799581 108.9964,5.25799581 Z M164.030145,8.37993655 C164.432782,8.37993655 164.7588,8.69688564 164.7588,9.08928019 L164.7588,9.08928019 L164.7588,9.34806201 C164.958945,8.80141474 166.172327,8.5461511 167.265309,8.5461511 C170.243255,8.5461511 172,10.2767838 172,13.4673057 L172,13.4673057 L172,19.7798621 L169.836709,19.7798621 C169.434073,19.7798621 169.108055,19.4628348 169.108055,19.0704402 L169.108055,19.0704402 L169.108055,13.5923966 C169.108055,11.7572347 168.079964,11.0272511 166.816545,11.0272511 C165.915109,11.0272511 164.737691,11.6955493 164.737691,13.6763638 L164.737691,13.6763638 L164.737691,19.7815821 L162.553291,19.7815821 C162.149873,19.7815821 161.823855,19.4645548 161.823855,19.0721602 L161.823855,19.0721602 L161.823855,8.37993655 Z M135.641545,5.05070454 C136.039491,5.05070454 136.363163,5.36598836 136.363163,5.75323854 L136.363163,5.75323854 L136.363163,9.53663656 C136.562527,8.99350746 137.762618,8.74160565 138.845436,8.74160565 C141.793673,8.74160565 143.534782,10.4568366 143.534782,13.6164766 L143.534782,13.6164766 L143.534782,19.7799402 L141.3926,19.7799402 C140.994654,19.7799402 140.670982,19.4647111 140.670982,19.0773984 L140.670982,19.0773984 L140.670982,13.7398475 C140.670982,11.9218857 139.651491,11.198782 138.3998,11.198782 C137.509309,11.198782 136.342054,11.860122 136.342054,13.8220948 L136.342054,13.8220948 L136.342054,19.7816602 L134.178763,19.7816602 C133.780818,19.7816602 133.457145,19.4664311 133.457145,19.0791184 L133.457145,19.0791184 L133.457145,5.05070454 Z M96.1831815,4.98886272 C98.610727,4.98886272 100.388582,5.83019291 100.388582,6.48817891 L100.388582,9.06011837 L100.279909,9.06011837 L100.279909,9.06183837 C99.3487633,7.87957291 97.484127,7.50086019 96.2042906,7.50086019 C93.5609633,7.50086019 91.5876542,9.35830383 91.5876542,12.1633111 C91.5876542,15.5594511 93.5163997,17.269522 96.3121815,17.269522 C97.785127,17.269522 99.4331997,16.7006711 100.235345,15.8764784 L100.3448,15.8764784 L100.3448,17.8744148 C100.3448,18.7208893 98.6951633,19.7797839 95.922836,19.7797839 C91.9777815,19.7797839 88.5964178,16.9097293 88.5964178,12.5847893 C88.5964178,8.13311655 91.6525451,4.98886272 96.1831815,4.98886272 Z M150.231836,8.49658383 C151.802509,8.49658383 153.022145,8.82557292 153.854782,9.4732311 C154.699927,10.1312093 155.127582,11.178142 155.129145,12.5849457 L155.129145,12.5849457 L155.129145,17.889973 C155.129145,19.7251348 151.166891,19.7799402 150.618054,19.7799402 C149.862818,19.7799402 149.169345,19.7165348 148.5564,19.5931639 C147.926254,19.4647111 147.380545,19.255653 146.937254,18.9677875 C146.486145,18.6782021 146.132764,18.3012093 145.886491,17.8488493 C145.641782,17.3999293 145.518254,16.856722 145.518254,16.2312675 C145.518254,15.6161329 145.662891,15.0661239 145.947473,14.594922 C146.229709,14.128802 146.619836,13.7346875 147.106127,13.4245402 C147.583036,13.1195529 148.138909,12.8899329 148.757327,12.7426384 C149.366364,12.5969857 150.013709,12.5232602 150.682945,12.5232602 C151.173927,12.5232602 151.575,12.5335802 151.888509,12.554142 C152.055818,12.5661038 152.210618,12.5781438 152.349782,12.5901057 L152.349782,12.5901057 L152.349782,12.5061384 C152.349782,11.8070366 152.1598,11.3237947 151.788436,11.0702511 C151.390491,10.8012275 150.791618,10.6640966 150.005109,10.6640966 C149.501618,10.6640966 149.0208,10.7001384 148.581418,10.7703457 C148.303091,10.8149093 147.278127,11.0359293 146.7504,11.1610202 C146.468945,11.2278657 146.465036,10.9914438 146.465036,10.730942 L146.465036,9.26933292 C146.465036,9.08599656 146.500218,8.93346383 146.701145,8.88890019 C147.193691,8.77928928 147.906709,8.68500201 148.408636,8.61995474 C149.034873,8.53770746 149.647818,8.49658383 150.231836,8.49658383 Z M127.278436,4.98886272 C129.705982,4.98886272 131.483836,5.83019291 131.483836,6.48817891 L131.483836,9.06011837 L131.374382,9.06011837 L131.374382,9.06183837 C130.443236,7.87957291 128.579382,7.50086019 127.299545,7.50086019 C124.655436,7.50086019 122.682127,9.35830383 122.682127,12.1633111 C122.682127,15.5594511 124.611654,17.269522 127.406654,17.269522 C128.880382,17.269522 130.527673,16.7006711 131.3306,15.8764784 L131.439273,15.8764784 L131.439273,17.8744148 C131.439273,18.7208893 129.790418,19.7797839 127.018091,19.7797839 C123.073036,19.7797839 119.691673,16.9097293 119.691673,12.5847893 C119.691673,8.13311655 122.747018,4.98886272 127.278436,4.98886272 Z M159.097654,9.06363656 C159.522964,9.06363656 159.868527,9.39950565 159.868527,9.81418201 L159.868527,9.81418201 L159.868527,19.6496111 L157.872545,19.6496111 C157.446454,19.6496111 157.100891,19.3138202 157.100891,18.8991439 L157.100891,18.8991439 L157.100891,9.06363656 Z M150.906545,14.591482 C150.040291,14.591482 149.380436,14.7302548 148.945745,15.0044384 C148.536854,15.261422 148.338273,15.6487348 148.338273,16.1918639 C148.338273,16.5396948 148.404727,16.8087184 148.5392,16.990413 C148.679927,17.1822711 148.847236,17.3244839 149.052854,17.4239311 C149.265509,17.5267402 149.505527,17.5917875 149.764309,17.6140693 C150.425727,17.6723148 150.998018,17.662073 151.633636,17.6038275 C151.893982,17.5815457 152.133218,17.5489439 152.349782,17.5078202 L152.349782,17.5078202 L152.349782,14.6822511 C152.179345,14.6651293 151.983891,14.6480075 151.760291,14.6308857 C151.424109,14.6051639 151.140309,14.591482 150.906545,14.591482 Z M47.5931813,11.1112966 C46.2202304,11.1112966 45.0971486,12.0005366 45.0971486,13.3371329 L45.0971486,13.3371329 L45.0971486,15.244222 C45.0971486,16.5807402 46.2202304,17.4700584 47.5931813,17.4700584 C48.9662104,17.4700584 50.0892922,16.5807402 50.0892922,15.244222 L50.0892922,15.244222 L50.0892922,13.3371329 C50.0892922,12.0005366 48.9662104,11.1112966 47.5931813,11.1112966 Z M108.994836,7.84368746 C106.762745,7.84368746 105.079491,9.15792383 105.079491,11.2329475 L105.079491,11.2329475 L105.079491,13.899182 C105.079491,15.9742057 106.762745,17.2610784 108.994836,17.2610784 C111.226927,17.2610784 112.9094,15.9742057 112.9094,13.899182 L112.9094,13.899182 L112.9094,11.2329475 C112.9094,9.15792383 111.226927,7.84368746 108.994836,7.84368746 Z M158.484709,4.99058272 C159.336891,4.99058272 160.028018,5.66338418 160.028018,6.49332327 C160.028018,7.32326237 159.336891,7.99606382 158.484709,7.99606382 C157.631745,7.99606382 156.940618,7.32326237 156.940618,6.49332327 C156.940618,5.66338418 157.631745,4.99058272 158.484709,4.99058272 Z" id="形状结合" fill="#FFFFFF"></path>
                                <path d="M10.5909775,8.18463837 C10.6138848,8.14867473 10.6455484,8.15891655 10.6684557,8.17439655 C11.406023,8.7895311 13.4778411,10.9056784 13.1838775,14.2624148 C12.8828775,17.7288402 10.0946011,19.2504148 9.97842295,19.3070184 C8.49101385,20.0334839 9.08597749,20.7446257 8.49101385,20.0334839 C7.46474458,18.8100948 5.64109893,16.5310948 8.8412684,11.8052384 C9.78476659,10.4121947 10.5293702,8.89406019 10.5909775,8.18463837 Z M69.4202941,9.30873656 C69.8463068,9.30873656 70.1913232,9.64452747 70.1913232,10.0592038 L70.1913232,10.0592038 L70.1913232,19.8947111 L68.195185,19.8947111 C67.7691723,19.8947111 67.4241559,19.5589202 67.4241559,19.1442439 L67.4241559,19.1442439 L67.4241559,9.30873656 Z M56.871565,5.2253549 C57.2974995,5.2253549 57.6425159,5.56120054 57.6425159,5.97586909 L57.6425159,5.97586909 L57.6425159,9.24181292 C58.3906377,8.88366201 59.2461813,8.68664383 60.1526995,8.68664383 C63.0553559,8.68664383 65.4299723,10.706862 65.4299723,13.5324311 L65.4299723,13.5324311 L65.4299723,15.0608857 C65.4299723,17.8864548 63.0553559,19.894633 60.1526995,19.894633 C57.249965,19.894633 54.8754268,17.8864548 54.8754268,15.0608857 L54.8754268,15.0608857 L54.8754268,5.2253549 Z M60.1526995,11.1112184 C58.7796704,11.1112184 57.6565886,12.0005366 57.6565886,13.3370548 L57.6565886,13.3370548 L57.6565886,15.244222 C57.6565886,16.5807402 58.7796704,17.4700584 60.1526995,17.4700584 C61.5257286,17.4700584 62.6487323,16.5807402 62.6487323,15.244222 L62.6487323,15.244222 L62.6487323,13.3370548 C62.6487323,12.0005366 61.5257286,11.1112184 60.1526995,11.1112184 Z M68.8075832,5.23776236 C69.6602341,5.23776236 70.3513614,5.91056381 70.3513614,6.74050291 C70.3513614,7.570442 69.6602341,8.24327473 68.8075832,8.24327473 C67.9550105,8.24327473 67.2638832,7.570442 67.2638832,6.74050291 C67.2638832,5.91056381 67.9550105,5.23776236 68.8075832,5.23776236 Z" id="形状结合" fill="#01943F"></path>
                            </g>
                        </g>
                    </g>
                </g>
            </g>
        </g>
    </g>
</svg>