<svg width="408" height="408" viewBox="0 0 408 408" fill="none" xmlns="http://www.w3.org/2000/svg">
<circle opacity="0.2" cx="62.6047" cy="61.6745" r="18.6047" fill="#0E76F2"/>
<path d="M63.288 61.8728C26.6785 98.1201 4 148.412 4 204C4 314.457 93.5431 404 204 404" stroke="url(#paint0_linear_64_41145)" stroke-width="8"/>
<circle cx="62.6042" cy="61.6745" r="10.1921" fill="#2C72F4"/>
<circle opacity="0.2" cx="345.395" cy="346.326" r="18.6047" transform="rotate(180 345.395 346.326)" fill="#1FCBB0"/>
<path d="M344.712 346.127C381.322 309.88 404 259.588 404 204C404 93.5431 314.457 4 204 4" stroke="url(#paint1_linear_64_41145)" stroke-width="8"/>
<circle cx="345.396" cy="346.325" r="10.1921" transform="rotate(180 345.396 346.325)" fill="#00C5A3"/>
<circle cx="204" cy="204" r="120.93" fill="#DAE1E9"/>
<circle cx="204" cy="204" r="93.0233" fill="#EAEFF3"/>
<circle cx="204" cy="204" r="65.1163" fill="white"/>
<path fill-rule="evenodd" clip-rule="evenodd" d="M217.314 186.109L215.073 188.023L213.953 189.149L205.614 182.394L207.855 180.48L210.095 178.567C212.833 176.315 216.193 174.852 219.678 174.401C223.163 173.951 226.772 174.401 230.257 175.752C233.618 177.216 236.48 179.355 238.347 182.057C240.214 184.646 241.21 187.91 241.21 191.288L240.961 224.16C240.836 229.226 236.356 233.279 230.755 233.279H229.76L230.008 191.288C230.133 189.824 229.635 188.586 228.888 187.46C228.017 186.334 226.897 185.434 225.528 184.871C224.034 184.308 222.541 184.083 221.172 184.308C219.803 184.533 218.434 185.096 217.314 186.109ZM176.617 233.279C171.225 233.279 166.791 229.227 166.791 224.163V191.3C166.671 187.923 167.75 184.772 169.547 182.071C171.345 179.37 173.981 177.119 177.336 175.769C180.692 174.306 184.167 173.968 187.522 174.418C190.877 174.868 194.113 176.331 196.749 178.582L213.885 193.551C214.724 194.226 214.963 194.451 215.203 194.676C219.397 197.94 221.794 199.966 221.794 206.831C221.794 211.558 219.756 215.947 216.401 219.098C213.046 222.25 208.492 224.163 203.34 224.163C198.307 224.163 193.633 222.25 190.278 219.098C186.923 215.947 184.886 211.67 184.886 206.831C184.886 199.853 187.163 197.94 191.476 194.339L192.914 193.101L200.943 199.853C200.344 200.303 198.906 201.541 198.666 201.766C196.749 203.342 195.67 204.242 195.67 206.718C195.67 208.744 196.509 210.545 197.947 211.895C199.385 213.246 201.303 214.034 203.46 214.034C205.616 214.034 207.534 213.246 208.972 211.895C210.41 210.545 211.249 208.744 211.249 206.718C211.249 204.355 210.29 203.567 208.492 202.104C208.078 201.715 207.607 201.326 207.316 201.086C207.186 200.979 207.091 200.901 207.054 200.866L189.559 186.123C188.481 185.11 187.163 184.547 185.844 184.322C184.526 184.097 183.088 184.322 181.65 184.885C180.212 185.56 179.134 186.348 178.415 187.473C177.696 188.599 177.336 189.837 177.336 191.3L177.576 233.279H176.617Z" fill="url(#paint2_linear_64_41145)"/>
<path d="M122.968 221.078L119.527 226.858C119.527 226.858 118.459 247.235 146.414 275.054C146.414 275.054 167.135 297.239 209.737 287.275C249.442 277.983 289.321 241.404 291.809 190.944C292.346 181.237 290.367 171.556 286.066 162.838C279.545 150.039 269.928 139.074 258.089 130.939L122.968 221.078Z" fill="url(#paint3_linear_64_41145)"/>
<path d="M277.644 198.555C271.638 218.167 260.086 235.621 244.382 248.814C238.597 253.812 232.322 258.214 225.653 261.951C222.301 263.815 218.839 265.516 215.426 267.023C184.168 280.523 150.906 276.897 132.31 255.333C117.512 238.361 115.41 214.132 123.942 190.5C130.409 173.023 141.286 157.516 155.518 145.486C159.254 142.279 163.182 139.302 167.28 136.573C169.513 135.121 171.822 133.713 174.123 132.461C208.111 113.261 246.927 114.942 267.59 138.967C280.955 154.845 283.893 176.607 277.644 198.555Z" fill="url(#paint4_linear_64_41145)"/>
<path fill-rule="evenodd" clip-rule="evenodd" d="M277.645 198.555C271.639 218.167 260.087 235.621 244.382 248.814C238.598 253.812 232.323 258.214 225.654 261.951C222.301 263.815 218.839 265.516 215.427 267.023C184.169 280.523 150.907 276.897 132.31 255.333C117.513 238.361 115.41 214.132 123.943 190.5L277.645 198.555Z" fill="url(#paint5_linear_64_41145)"/>
<ellipse cx="199.799" cy="197.145" rx="68.8496" ry="53.0667" transform="rotate(-40.73 199.799 197.145)" fill="#01B1FF"/>
<path d="M165.045 160.535C193.797 135.727 232.692 133.648 251.844 155.829C258.603 164.016 262.232 174.339 262.083 184.955C263.086 173.081 259.396 161.286 251.804 152.101C232.654 129.881 193.796 132.001 165.005 156.807C146.647 172.591 136.831 193.764 137.048 212.835C139.003 192.357 149.088 173.518 165.045 160.535Z" fill="#1983C7"/>
<path fill-rule="evenodd" clip-rule="evenodd" d="M176.987 167.632C179.114 165.33 181.744 163.548 184.672 162.427C187.652 161.165 190.899 160.661 194.121 160.961C197.204 161.096 200.178 162.139 202.67 163.958C205.015 165.684 206.619 168.235 207.159 171.096L210.834 192.27L211.174 194.013C213.362 199.245 211.848 205.293 207.454 208.877C203.553 212.944 198.225 215.336 192.594 215.55C187.383 215.85 182.267 214.057 178.384 210.57C174.981 207.495 173.056 203.113 173.093 198.527C173.175 194.023 174.987 189.722 178.154 186.517C181.477 182.583 186.418 180.386 191.565 180.553L193.539 180.304L194.848 189.745L191.619 190.008C189.431 189.789 187.264 190.586 185.74 192.17C184.349 193.58 183.585 195.491 183.619 197.471C183.684 199.437 184.605 201.276 186.14 202.505C187.831 203.848 189.972 204.494 192.124 204.309C194.382 204.14 196.499 203.149 198.074 201.523C199.567 200.095 200.066 197.917 199.345 195.981C199.388 195.16 199.081 194.281 199.052 194.084L195.975 173.49C195.895 172.327 195.36 171.242 194.486 170.471C193.486 169.697 192.286 169.226 191.027 169.113C189.69 168.954 188.335 169.125 187.079 169.612C185.807 170.094 184.666 170.867 183.745 171.869L155.706 201.773L155.183 201.275C152.316 197.929 152.578 192.922 155.78 189.894L176.987 167.632ZM216.374 188.324L220.312 188.021C222.153 187.844 224.009 188.116 225.722 188.814C227.372 189.497 228.804 190.616 229.866 192.051C230.838 193.371 231.372 194.963 231.392 196.602C231.285 198.244 230.543 199.78 229.325 200.886L192.655 239.084L193.548 239.993C195.823 242.591 199.038 244.178 202.484 244.403C205.93 244.627 209.324 243.472 211.918 241.191L242.646 209.349C245.626 206.402 247.352 202.418 247.465 198.229C247.374 194.033 245.824 189.999 243.082 186.822C240.171 183.458 236.463 180.878 232.298 179.315C228.146 177.77 223.694 177.201 219.287 177.653L215.697 178.053L212.186 178.457L214.594 188.623L216.374 188.324Z" fill="#1983C7"/>
<path fill-rule="evenodd" clip-rule="evenodd" d="M211.158 195.071C211.209 194.84 211.221 194.602 211.195 194.367C211.043 192.73 210.734 191.112 210.271 189.534C210.21 188.944 210.096 188.36 209.931 187.791L206.252 166.695C205.738 163.844 204.144 161.302 201.801 159.599C199.307 157.809 196.355 156.77 193.291 156.603C190.064 156.316 186.816 156.833 183.839 158.108C180.911 159.23 178.282 161.011 176.154 163.314L155.108 185.506C153.602 187.086 152.655 189.117 152.412 191.286C152.381 191.519 152.368 191.755 152.376 191.99C152.356 193.791 153.039 195.529 154.279 196.835L154.841 197.335L159.494 192.363L160.156 191.692L182.832 167.585C183.746 166.593 184.872 165.821 186.127 165.326C187.383 164.839 188.738 164.668 190.075 164.827C191.328 164.915 192.522 165.389 193.494 166.183C194.378 166.92 194.929 167.98 195.027 169.126L198.143 189.722C198.143 189.722 198.286 190.749 198.399 191.579C198.53 192.281 198.597 192.993 198.601 193.707C198.628 193.942 198.616 194.18 198.564 194.411C198.423 195.464 197.898 196.428 197.089 197.118C195.549 198.741 193.452 199.724 191.219 199.869C189.066 200.136 186.898 199.497 185.233 198.105C183.811 197.005 182.904 195.369 182.725 193.581C182.725 193.581 182.741 193.268 182.749 193.111L182.764 192.838C182.74 190.931 183.503 189.098 184.873 187.771C186.393 186.182 188.563 185.384 190.751 185.609C191.103 185.627 193.116 185.38 193.941 185.345L192.63 175.942L190.695 176.194C185.534 176 180.576 178.219 177.282 182.197C174.569 184.921 172.85 188.477 172.4 192.294C172.35 192.526 172.338 192.763 172.363 192.998C172.304 193.373 172.284 193.754 172.303 194.133C172.291 198.722 174.228 203.1 177.633 206.177C181.507 209.654 186.607 211.446 191.804 211.155C197.443 210.89 202.77 208.492 206.706 204.446C209.411 202.063 211.021 198.674 211.158 195.071ZM241.985 182.294C239.046 178.952 235.328 176.386 231.161 174.824C227 173.311 222.552 172.756 218.147 173.201L214.518 173.599L211.046 174.005L213.495 184.134L215.471 183.845L219.174 183.53C221.002 183.371 222.841 183.642 224.545 184.321C226.201 184.994 227.647 186.099 228.73 187.521C229.746 188.833 230.284 190.452 230.255 192.111C230.177 193.251 229.809 194.352 229.185 195.31C228.99 195.546 228.782 195.771 228.561 195.983L228.228 196.358L191.56 234.516L192.454 235.426C194.723 238.033 197.939 239.626 201.389 239.851C204.838 240.076 208.234 238.914 210.823 236.624L241.511 204.819C243.641 202.612 245.139 199.873 245.848 196.889L245.885 196.185C246.006 195.343 246.05 194.492 246.018 193.643C245.957 189.505 244.51 185.507 241.907 182.29L241.985 182.294Z" fill="#5DD5FF"/>
<path fill-rule="evenodd" clip-rule="evenodd" d="M152.493 191.996L159.611 192.369L154.958 197.341L154.396 196.841C153.157 195.535 152.474 193.797 152.493 191.996Z" fill="url(#paint6_linear_64_41145)"/>
<path fill-rule="evenodd" clip-rule="evenodd" d="M206.514 204.357C202.578 208.403 197.251 210.802 191.613 211.067C186.415 211.357 181.316 209.566 177.441 206.089C174.037 203.012 172.099 198.633 172.112 194.044C172.092 193.665 172.112 193.285 172.171 192.91L182.692 193.461C182.871 195.25 183.778 196.886 185.2 197.985C186.865 199.377 189.032 200.016 191.186 199.75C193.419 199.604 195.515 198.622 197.056 196.999C197.865 196.309 198.39 195.345 198.531 194.291L211.164 194.954C210.984 198.597 209.3 202.003 206.514 204.357Z" fill="url(#paint7_linear_64_41145)"/>
<path fill-rule="evenodd" clip-rule="evenodd" d="M245.848 196.889C245.139 199.873 243.641 202.612 241.511 204.819L210.823 236.624C208.235 238.914 204.838 240.076 201.389 239.851C197.94 239.626 194.723 238.033 192.454 235.426L191.561 234.516L228.228 196.358L228.562 195.983L245.848 196.889Z" fill="url(#paint8_linear_64_41145)"/>
<path fill-rule="evenodd" clip-rule="evenodd" d="M256.065 100.49L256.445 107.452C256.958 117.986 264.584 126.814 274.932 128.853L281.762 130.23L274.801 130.611C264.278 131.151 255.464 138.765 253.4 149.098L252.02 155.967L251.533 148.804C251.006 138.275 243.386 129.454 233.046 127.403L226.216 126.025L233.175 125.684C243.693 125.13 252.499 117.522 254.576 107.197L256.065 100.49Z" fill="white"/>
<defs>
<linearGradient id="paint0_linear_64_41145" x1="-3.02397" y1="62.7752" x2="-3.02397" y2="428.933" gradientUnits="userSpaceOnUse">
<stop stop-color="#2C72F4"/>
<stop offset="1" stop-color="#F4F9FF" stop-opacity="0.01"/>
</linearGradient>
<linearGradient id="paint1_linear_64_41145" x1="411.288" y1="346.127" x2="411.288" y2="-20.9333" gradientUnits="userSpaceOnUse">
<stop stop-color="#00C5A4"/>
<stop offset="1" stop-color="#F4F9FF" stop-opacity="0.01"/>
</linearGradient>
<linearGradient id="paint2_linear_64_41145" x1="155.53" y1="195.114" x2="192.103" y2="256.422" gradientUnits="userSpaceOnUse">
<stop stop-color="#00C6A4"/>
<stop offset="1" stop-color="#2C80F4"/>
</linearGradient>
<linearGradient id="paint3_linear_64_41145" x1="151.876" y1="321.889" x2="319.869" y2="267.653" gradientUnits="userSpaceOnUse">
<stop stop-color="#03FBCA"/>
<stop offset="1" stop-color="#1973B4"/>
</linearGradient>
<linearGradient id="paint4_linear_64_41145" x1="108.441" y1="157.928" x2="98.3185" y2="264.652" gradientUnits="userSpaceOnUse">
<stop stop-color="#01B1FF"/>
<stop offset="1" stop-color="#03FBCA"/>
</linearGradient>
<linearGradient id="paint5_linear_64_41145" x1="122.403" y1="192.755" x2="118.256" y2="271.885" gradientUnits="userSpaceOnUse">
<stop stop-color="white" stop-opacity="0.01"/>
<stop offset="1" stop-color="#03FBCA"/>
</linearGradient>
<linearGradient id="paint6_linear_64_41145" x1="152.554" y1="192.095" x2="152.286" y2="197.201" gradientUnits="userSpaceOnUse">
<stop stop-color="#01C4FF" stop-opacity="0.01"/>
<stop offset="1" stop-color="#03FBCA"/>
</linearGradient>
<linearGradient id="paint7_linear_64_41145" x1="172.484" y1="193.244" x2="171.599" y2="210.133" gradientUnits="userSpaceOnUse">
<stop stop-color="#01C4FF" stop-opacity="0.01"/>
<stop offset="1" stop-color="#03FBCA"/>
</linearGradient>
<linearGradient id="paint8_linear_64_41145" x1="194.112" y1="195.011" x2="191.789" y2="239.349" gradientUnits="userSpaceOnUse">
<stop stop-color="#01C4FF" stop-opacity="0.01"/>
<stop offset="1" stop-color="#03FBCA"/>
</linearGradient>
</defs>
</svg>
