<?xml version="1.0" encoding="UTF-8"?>
<svg width="408px" height="408px" viewBox="0 0 408 408" version="1.1" xmlns="http://www.w3.org/2000/svg" xmlns:xlink="http://www.w3.org/1999/xlink">
    <title>HECO旋风-Dark</title>
    <defs>
        <linearGradient x1="50%" y1="0.26376464%" x2="50%" y2="107.287733%" id="linearGradient-1">
            <stop stop-color="#2C72F4" offset="0%"></stop>
            <stop stop-color="#1A1E23" stop-opacity="0" offset="100%"></stop>
        </linearGradient>
        <linearGradient x1="50%" y1="0%" x2="50%" y2="107.147058%" id="linearGradient-2">
            <stop stop-color="#00C5A4" offset="0%"></stop>
            <stop stop-color="#1A1E23" stop-opacity="0" offset="100%"></stop>
        </linearGradient>
        <linearGradient x1="29.8461375%" y1="19.5007896%" x2="97.4699803%" y2="76.1154684%" id="linearGradient-3">
            <stop stop-color="#00C6A4" offset="0%"></stop>
            <stop stop-color="#2C80F4" offset="100%"></stop>
        </linearGradient>
        <linearGradient x1="4.04717092%" y1="69.8636867%" x2="102.07264%" y2="37.3137376%" id="linearGradient-4">
            <stop stop-color="#03FBCA" offset="0%"></stop>
            <stop stop-color="#1973B4" offset="100%"></stop>
        </linearGradient>
        <linearGradient x1="25.4736561%" y1="30.1378455%" x2="22.5731307%" y2="96.4183359%" id="linearGradient-5">
            <stop stop-color="#01B1FF" offset="0%"></stop>
            <stop stop-color="#03FBCA" offset="100%"></stop>
        </linearGradient>
        <linearGradient x1="50%" y1="2.85904591%" x2="50%" y2="100%" id="linearGradient-6">
            <stop stop-color="#FFFFFF" stop-opacity="0" offset="0%"></stop>
            <stop stop-color="#03FBCA" offset="100%"></stop>
        </linearGradient>
        <linearGradient x1="50%" y1="1.84012236%" x2="50%" y2="100%" id="linearGradient-7">
            <stop stop-color="#01C4FF" stop-opacity="0" offset="0%"></stop>
            <stop stop-color="#03FBCA" offset="100%"></stop>
        </linearGradient>
        <linearGradient x1="50%" y1="1.84012236%" x2="50%" y2="100%" id="linearGradient-8">
            <stop stop-color="#01C4FF" stop-opacity="0" offset="0%"></stop>
            <stop stop-color="#03FBCA" offset="100%"></stop>
        </linearGradient>
        <linearGradient x1="50%" y1="1.84012236%" x2="50%" y2="100%" id="linearGradient-9">
            <stop stop-color="#01C4FF" stop-opacity="0" offset="0%"></stop>
            <stop stop-color="#03FBCA" offset="100%"></stop>
        </linearGradient>
    </defs>
    <g id="HECO" stroke="none" stroke-width="1" fill="none" fill-rule="evenodd">
        <g id="HECO首页-Dark" transform="translate(-746.000000, -1792.000000)">
            <g id="编组-21" transform="translate(0.000000, 673.000000)">
                <g id="编组-39" transform="translate(354.000000, 100.000000)">
                    <g id="编组-19" transform="translate(1.000000, 1023.000000)">
                        <g id="HECO旋风-Dark" transform="translate(395.000000, 0.000000)">
                            <g id="编组-78">
                                <g id="编组-76" transform="translate(0.000000, 39.069767)">
                                    <circle id="椭圆形" fill="#0E76F2" opacity="0.2" cx="58.6046512" cy="18.6046512" r="18.6046512"></circle>
                                    <path d="M59.2880108,18.8030278 C22.6784906,55.0502768 0,105.341832 0,160.930233 C0,271.387183 89.54305,360.930233 200,360.930233" id="路径" stroke="url(#linearGradient-1)" stroke-width="8"></path>
                                    <circle id="椭圆形" fill="#2C72F4" cx="58.6046512" cy="18.6046512" r="10.1921132"></circle>
                                </g>
                                <g id="编组-76备份" transform="translate(300.000000, 180.465116) scale(-1, -1) translate(-300.000000, -180.465116) translate(200.000000, 0.000000)">
                                    <circle id="椭圆形" fill="#1FCBB0" opacity="0.2" cx="58.6046512" cy="18.6046512" r="18.6046512"></circle>
                                    <path d="M59.2880108,18.8030278 C22.6784906,55.0502768 0,105.341832 0,160.930233 C0,271.387183 89.54305,360.930233 200,360.930233" id="路径" stroke="url(#linearGradient-2)" stroke-width="8"></path>
                                    <circle id="椭圆形" fill="#00C5A3" cx="58.6046512" cy="18.6046512" r="10.1921132"></circle>
                                </g>
                                <circle id="椭圆形" fill-opacity="0.0955528846" fill="#6593C6" cx="200" cy="200" r="120.930233"></circle>
                                <circle id="椭圆形" fill-opacity="0.1" fill="#6C8CAC" cx="200" cy="200" r="93.0232558"></circle>
                                <circle id="椭圆形" fill="#1B1D1F" cx="200" cy="200" r="65.1162791"></circle>
                            </g>
                            <path d="M173.336288,171.768796 C176.691551,170.305718 180.166644,169.968084 183.521907,170.418262 C186.877169,170.86844 190.112601,172.331519 192.748879,174.582409 L192.748879,174.582409 L209.884685,189.550828 C210.7235,190.226095 210.963162,190.451184 211.202823,190.676273 C215.396902,193.940063 217.793518,195.965864 217.793518,202.831079 C217.793518,207.557948 215.756394,211.947183 212.401132,215.098429 C209.045869,218.249675 204.492298,220.162932 199.339573,220.162932 C194.30668,220.162932 189.633278,218.249675 186.278015,215.098429 C182.922753,211.947183 180.885629,207.670492 180.885629,202.831079 C180.885629,195.85332 183.162414,193.940063 187.476323,190.338639 L187.476323,190.338639 L188.914293,189.10065 L196.942957,195.85332 C196.343803,196.303498 194.905834,197.541487 194.666172,197.766576 C192.748879,199.342199 191.670402,200.242555 191.670402,202.718534 C191.670402,204.744335 192.509217,206.545047 193.947187,207.895581 C195.385157,209.246115 197.30245,210.033927 199.459404,210.033927 C201.616359,210.033927 203.533652,209.246115 204.971621,207.895581 C206.409591,206.545047 207.248407,204.744335 207.248407,202.718534 C207.248407,200.3551 206.28976,199.567288 204.492298,198.10421 C203.893144,197.541487 203.174159,196.978765 203.054329,196.86622 L203.054329,196.86622 L185.559031,182.12289 C184.480553,181.10999 183.162414,180.547267 181.844275,180.322178 C180.526137,180.097089 179.088167,180.322178 177.650197,180.884901 C176.212228,181.560168 175.13375,182.347979 174.414765,183.473424 C173.695781,184.59887 173.336288,185.836859 173.336288,187.299938 L173.336288,187.299938 L173.57595,229.279037 L172.617303,229.279037 C167.224917,229.279037 162.791177,225.227435 162.791177,220.162932 L162.791177,220.162932 L162.791177,187.299938 C162.671346,183.923602 163.749823,180.772356 165.547286,178.071288 C167.344748,175.37022 169.981025,173.11933 173.336288,171.768796 Z M215.677695,170.401423 C219.16258,169.951116 222.771924,170.401423 226.256809,171.752344 C229.617233,173.215841 232.479816,175.354798 234.346719,178.056639 C236.213621,180.645903 237.209302,183.910627 237.209302,187.287928 L237.209302,187.287928 L236.960382,220.160324 C236.835922,225.226275 232.355356,229.279037 226.754649,229.279037 L226.754649,229.279037 L225.758968,229.279037 L226.007888,187.287928 C226.132348,185.824431 225.634508,184.586087 224.887747,183.46032 C224.016526,182.334553 222.896384,181.43394 221.527323,180.871056 C220.033801,180.308173 218.540279,180.083019 217.171217,180.308173 C215.802155,180.533326 214.433094,181.09621 213.312952,182.1094 L213.312952,182.1094 L211.07267,184.023204 L209.952528,185.148971 L201.613698,178.394369 L203.85398,176.480565 L206.094263,174.566761 C208.832387,172.315227 212.192811,170.85173 215.677695,170.401423 Z" id="形状结合" fill="url(#linearGradient-3)"></path>
                            <g id="编组-32" transform="translate(107.000000, 96.000000)">
                                <g id="编组-35" transform="translate(0.000000, 13.007596)">
                                    <path d="M10.6857278,113.38083 L7.55263979,119.333697 C7.55263979,119.333697 7.55263979,139.737933 36.9253394,166.055871 C36.9253394,166.055871 58.778628,187.125888 100.80117,174.946009 C139.96477,163.588565 177.875134,124.973256 177.718964,74.4522122 C177.746451,64.7305853 175.264338,55.1663569 170.512377,46.6852201 C163.330756,34.2452611 153.152938,23.7981881 140.904696,16.2942669 L10.6857278,113.38083 Z" id="路径" fill="url(#linearGradient-4)" fill-rule="nonzero" transform="translate(92.635802, 97.515321) rotate(3.000000) translate(-92.635802, -97.515321) "></path>
                                    <path d="M164.611669,82.4753274 C159.64012,102.374191 149.017427,120.409648 134.024898,134.40626 C128.509628,139.700234 122.473934,144.423821 116.009642,148.505156 C112.759064,150.541663 109.390994,152.421516 106.062088,154.105551 C75.5536442,169.2227 42.1470938,167.342848 22.4478032,146.781958 C6.7823634,130.607391 3.41429384,106.521777 10.6987234,82.4753274 C16.2412741,64.683656 26.2925696,48.6285665 39.875605,35.8706439 C43.4381394,32.4718159 47.2048515,29.2936526 51.1547217,26.3538893 C53.3087196,24.7873453 55.5410448,23.2599649 57.77337,21.8892389 L57.77337,21.8892389 C90.7099572,0.936713162 129.560248,0.584240766 151.4527,23.4949465 C165.629923,38.6512595 169.702937,60.2304028 164.611669,82.4753274 Z" id="路径" fill="url(#linearGradient-5)" fill-rule="nonzero" transform="translate(86.869676, 85.143034) rotate(3.000000) translate(-86.869676, -85.143034) "></path>
                                    <path d="M162.618186,82.3680929 C157.646637,102.266956 147.023943,120.302413 132.031415,134.299026 C126.516144,139.592999 120.48045,144.316586 114.016159,148.397922 C110.76558,150.434429 107.39751,152.314282 104.068605,153.998316 C73.5601605,169.115466 40.1536101,167.235613 20.4543195,146.674723 C4.78887973,130.500157 1.42081017,106.414543 8.70523968,82.3680929 L162.618186,82.3680929 Z" id="路径" fill="url(#linearGradient-6)" transform="translate(83.825375, 123.153452) rotate(3.000000) translate(-83.825375, -123.153452) "></path>
                                    <ellipse id="椭圆形" fill="#01B1FF" fill-rule="nonzero" transform="translate(86.799493, 85.137589) rotate(-40.730000) translate(-86.799493, -85.137589) " cx="86.7994929" cy="85.1375894" rx="68.849608" ry="53.0666774"></ellipse>
                                    <path d="M51.2825499,50.4158429 C78.6970695,24.1370677 117.429869,20.0248897 137.716614,41.1732335 C144.8947,48.9956044 149.058892,59.1145901 149.465694,69.7234975 C149.846322,57.8130442 145.544017,46.2277542 137.481632,37.4526915 C117.194888,16.2651842 78.5012515,20.4165257 51.0475683,46.695301 C33.5414393,63.418158 24.8471202,85.0756285 26.0611918,104.109138 C26.9420418,83.5568345 36.0270438,64.2159373 51.2825499,50.4158429 L51.2825499,50.4158429 Z" id="路径" fill="#1983C7" fill-rule="nonzero" transform="translate(87.719164, 64.015036) rotate(3.000000) translate(-87.719164, -64.015036) "></path>
                                    <path d="M62.1794072,56.8782942 C64.1837103,54.4676462 66.7165441,52.5512693 69.5813275,51.2778995 C72.4915877,49.8616648 75.7075114,49.1888774 78.9414278,49.3197195 C82.0269967,49.2934689 85.0516011,50.1790513 87.6357469,51.8653535 C90.0678031,53.4662782 91.8030212,55.9291684 92.4920333,58.758147 L97.2699924,79.7106727 L97.700792,81.4338711 C100.159492,86.5442171 98.9644075,92.6630475 94.763522,96.4726933 C91.0805251,100.737643 85.8851178,103.405555 80.2729902,103.913777 C75.0846646,104.486356 69.8824655,102.963761 65.821622,99.6841085 C62.2631542,96.7918406 60.1110549,92.5161467 59.9079185,87.9350286 C59.754521,83.4323171 61.3391099,79.0431461 64.3334052,75.676822 C67.4462603,71.5742267 72.2651975,69.1214742 77.4140474,69.0190101 L79.3722274,68.6665377 L81.173753,78.0266379 L77.9623378,78.4574375 C75.7664805,78.3534164 73.6443474,79.262902 72.2052887,80.9247443 C70.8897746,82.4053641 70.2262623,84.353549 70.3645995,86.329321 C70.5324026,88.2888066 71.5481552,90.0771033 73.1452151,91.224771 C74.9044969,92.4775693 77.0763329,93.0100194 79.215573,92.7129878 C81.4613678,92.4263884 83.5238582,91.3254645 85.0117858,89.6190634 C86.427524,88.1154281 86.8124854,85.9134487 85.9908757,84.0186687 C85.9908757,83.1962331 85.6384033,82.3346339 85.5992397,82.1388159 L81.4478982,61.7345805 C81.3079549,60.5770348 80.7168472,59.5214853 79.803027,58.7973106 C78.7643947,58.0771756 77.5412899,57.669474 76.2783031,57.6224026 C74.9348266,57.5332629 73.5900112,57.7753297 72.3619431,58.3273474 C71.1169758,58.8755772 70.0172867,59.7070495 69.1505279,60.7554906 L42.7150983,92.0863702 L42.1668079,91.616407 C39.1282098,88.425158 39.1282098,83.4110485 42.1668079,80.2197995 L62.1794072,56.8782942 Z M102.596242,75.481004 L106.512602,74.9718772 C108.341656,74.6989292 110.209621,74.8736309 111.956342,75.481004 C113.639549,76.0763312 115.128839,77.1188343 116.264338,78.4966011 C117.304543,79.7637149 117.920948,81.3252747 118.0267,82.9612515 C118.005218,84.6067462 117.345216,86.1795172 116.186011,87.3475746 L81.565389,127.411937 L82.5053154,128.273536 C84.9131403,130.749108 88.2068846,132.165105 91.6600188,132.209188 C95.113153,132.25327 98.4419711,130.921817 100.912207,128.508518 L129.932434,95.1019673 C132.753889,92.0030687 134.26924,87.9340702 134.162103,83.7445235 C133.851925,79.5589604 132.093204,75.6122261 129.188326,72.5828976 C126.105124,69.3763061 122.267797,66.9931243 118.0267,65.6509405 C113.799412,64.3250087 109.32363,63.9899951 104.946058,64.6718505 L101.38217,65.2593045 L97.89661,65.8467585 L100.83388,75.87264 L102.596242,75.481004 Z" id="形状" fill="#1983C7" transform="translate(87.027640, 90.756979) rotate(3.000000) translate(-87.027640, -90.756979) "></path>
                                    <path d="M97.9718605,82.427781 C98.010573,82.1943938 98.010573,81.9562233 97.9718605,81.7228362 C97.734462,80.0961694 97.3410111,78.4961356 96.7969526,76.944877 C96.7048203,76.3588221 96.5606504,75.7821423 96.366153,75.2216787 L91.5881938,54.3474801 C90.9256189,51.5275629 89.1999336,49.0723196 86.7710711,47.4938502 C84.1876662,45.8376054 81.1846433,44.9543633 78.1159156,44.9482162 C74.8787022,44.8295348 71.662611,45.5158137 68.7558153,46.9455598 C65.8910319,48.2189296 63.3581981,50.1353065 61.353895,52.5459545 L41.49795,75.8091327 C40.0766444,77.4662558 39.2375057,79.543468 39.1089705,81.7228362 C39.0895351,81.9574159 39.0895351,82.1932013 39.1089705,82.427781 C39.184109,84.2272194 39.9566333,85.9267729 41.2629684,87.1665765 L41.8504224,87.6365397 L46.2367456,82.427781 L46.8633632,81.7228362 L68.2466885,56.4623145 C69.1071579,55.4237458 70.1917148,54.5935912 71.4189401,54.0341713 C72.6470082,53.4821536 73.9918236,53.2400869 75.3353,53.3292265 C76.5907019,53.3509619 77.8084759,53.7614475 78.8208604,54.5041345 C79.7414076,55.1940434 80.347784,56.2234732 80.5048952,57.3630773 L84.6954003,77.7673126 C84.6954003,77.7673126 84.8912183,78.7855662 85.0478727,79.6080018 C85.2149012,80.3022444 85.3197519,81.0099864 85.3611815,81.7228362 C85.4006209,81.9561629 85.4006209,82.1944543 85.3611815,82.427781 C85.2755358,83.4871769 84.8012876,84.4775186 84.0296191,85.2083965 C82.5760868,86.9100429 80.5342482,88.0008881 78.3117336,88.2631573 C76.1749138,88.6419206 73.9767215,88.1171908 72.2413757,86.8141041 C70.7636477,85.7908223 69.7721838,84.2044802 69.4999237,82.427781 C69.4999237,82.427781 69.4999237,82.1144722 69.4999237,81.9578178 L69.4999237,81.6836726 C69.3762638,79.7806404 70.0420692,77.910719 71.3406129,76.5140774 C72.7761122,74.8473704 74.9007367,73.936817 77.097662,74.0467707 C77.4501344,74.0467707 79.447478,73.6942983 80.2699136,73.6159711 L78.468388,64.2950344 L76.5493716,64.6475068 C71.3849149,64.7240086 66.5501224,67.1993065 63.4687294,71.3444823 C60.9020701,74.2064001 59.3711425,77.8475252 59.1215698,81.6836726 C59.0842333,81.9171711 59.0842333,82.1551189 59.1215698,82.3886174 C59.0822539,82.7661781 59.0822539,83.146801 59.1215698,83.5243618 C59.3492392,88.1078769 61.513233,92.3789174 65.0744369,95.2734416 C69.125308,98.5429863 74.3113358,100.064973 79.4866416,99.5031104 C85.1035175,98.9434717 90.2975864,96.2694361 94.016337,92.0228629 C96.5936948,89.5014797 98.0235653,86.0329818 97.9718605,82.427781 L97.9718605,82.427781 Z M128.088669,68.0547399 C124.978667,64.8710596 121.131466,62.5035509 116.887879,61.1619464 C112.653975,59.8681603 108.182622,59.5468655 103.807237,60.22202 L100.204186,60.809474 L96.757789,61.396928 L99.7342225,71.3836459 L101.692402,70.9920099 L105.373781,70.4828831 C107.19035,70.2283737 109.041276,70.4027363 110.778358,70.9920099 C112.467709,71.5771551 113.969006,72.6050705 115.125517,73.9684435 C116.208741,75.2252006 116.83048,76.8140907 116.887879,78.4722574 C116.869883,79.6148899 116.559793,80.7339102 115.987116,81.7228362 C115.805243,81.9690961 115.609088,82.2044816 115.399662,82.427781 L115.086354,82.819417 L80.4657316,122.844616 L81.4056579,123.706215 C83.8082053,126.191395 87.1037949,127.614109 90.5601524,127.658233 C94.0165099,127.702357 97.3473442,126.364235 99.8125497,123.941196 L128.793613,90.5738097 C130.805453,88.2584755 132.15808,85.4450123 132.709973,82.427781 L132.709973,81.7228362 C132.786735,80.8760275 132.786735,80.0240109 132.709973,79.1772022 C132.4326,75.0481767 130.777728,71.1316473 128.010341,68.0547399 L128.088669,68.0547399 Z" id="形状" fill="#5DD5FF" transform="translate(85.930969, 86.297179) rotate(3.000000) translate(-85.930969, -86.297179) "></path>
                                    <path d="M39.3517899,80.171709 L46.4795651,80.171709 L42.0932419,85.3804678 L41.5057879,84.9105046 C40.1994528,83.6707009 39.4269285,81.9711475 39.3517899,80.171709 Z" id="路径" fill="url(#linearGradient-7)" transform="translate(42.915678, 82.776088) rotate(3.000000) translate(-42.915678, -82.776088) "></path>
                                    <path d="M93.588604,91.5458377 C89.8698535,95.7924109 84.6757845,98.4664465 79.0589086,99.0260852 C73.8836029,99.5879475 68.6975751,98.0659611 64.646704,94.7964164 C61.0855001,91.9018922 58.9215062,87.6308517 58.6938369,83.0473366 C58.6545209,82.6697758 58.6545209,82.2891529 58.6938369,81.9115922 L69.2288451,81.9115922 C69.5011053,83.6882914 70.4925691,85.2746335 71.9702971,86.2979153 C73.705643,87.601002 75.9038353,88.1257318 78.040655,87.7469685 C80.2631697,87.4846993 82.3050082,86.3938541 83.7585406,84.6922077 C84.5302091,83.9613298 85.0044572,82.9709881 85.0901029,81.9115922 L97.7400109,81.9115922 C97.7514285,85.5596082 96.2480032,89.0486895 93.588604,91.5458377 L93.588604,91.5458377 Z" id="路径" fill="url(#linearGradient-8)" transform="translate(78.202180, 90.526068) rotate(3.000000) translate(-78.202180, -90.526068) "></path>
                                    <path d="M131.700555,83.4831875 C131.148662,86.5004188 129.796035,89.313882 127.784195,91.6292162 L98.8031317,124.996603 C96.3379262,127.419642 93.0070919,128.757763 89.5507344,128.713639 C86.0943769,128.669516 82.7987873,127.246802 80.3962399,124.761621 L79.4563135,123.900022 L114.076935,83.8748235 L114.390244,83.4831875 L131.700555,83.4831875 Z" id="路径" fill="url(#linearGradient-9)" transform="translate(105.578434, 106.098942) rotate(3.000000) translate(-105.578434, -106.098942) "></path>
                                </g>
                                <path d="M141.609986,1.41920404 L142.354094,8.35116116 C143.417582,18.8440294 151.495629,27.2613547 161.935894,28.7553965 L168.828687,29.7736501 L161.89673,30.5177585 C151.41631,31.6081348 143.012891,39.6728372 141.492495,50.0995583 L140.474241,57.0315154 L139.612642,49.9037403 C138.535673,39.4171078 130.464322,31.0067598 120.030842,29.4995049 L113.138049,28.4812513 L120.070006,27.7763065 C130.544236,26.6725949 138.940776,18.6144948 140.474241,8.19450676 L141.609986,1.41920404 Z" id="Fill-1-2" fill="#FFFFFF" transform="translate(140.983368, 29.225360) rotate(3.000000) translate(-140.983368, -29.225360) "></path>
                            </g>
                        </g>
                    </g>
                </g>
            </g>
        </g>
    </g>
</svg>