<svg width="50" height="51" viewBox="0 0 50 51" fill="none" xmlns="http://www.w3.org/2000/svg">
<g clip-path="url(#clip0_576_48300)">
<path d="M29.8213 15.8874C29.8213 8.70938 26.3494 2.53455 23.7099 0.524038C23.6974 0.519823 23.5091 0.410236 23.5259 0.696849C23.5259 0.701064 23.5217 0.701064 23.5217 0.70528C23.3042 14.5681 16.2768 18.3236 12.4117 23.3857C3.49367 35.0653 11.7885 47.8701 20.2339 50.2346C24.9606 51.5581 19.1421 47.8912 18.3934 40.1441C17.4857 30.7829 29.8213 23.6386 29.8213 15.8874Z" fill="#1D2243"/>
<path fill-rule="evenodd" clip-rule="evenodd" d="M34.8929 20.5349C34.8373 20.4968 34.7604 20.4715 34.7048 20.5602C34.5551 22.3093 32.7466 26.0524 30.4551 29.4871C22.6825 41.1392 27.1117 46.7583 29.6044 49.7747C31.0494 51.5281 29.6044 49.7747 33.217 47.9835C33.4992 47.8439 40.2714 44.0923 41.0024 35.5455C41.7164 27.2692 36.6844 22.0516 34.8929 20.5349Z" fill="#32A7DD"/>
</g>
<defs>
<clipPath id="clip0_576_48300">
<rect width="50" height="50" fill="white" transform="translate(0 0.5)"/>
</clipPath>
</defs>
</svg>
