<?xml version="1.0" encoding="UTF-8"?>
<svg width="20px" height="20px" viewBox="0 0 20 20" version="1.1" xmlns="http://www.w3.org/2000/svg" xmlns:xlink="http://www.w3.org/1999/xlink">
    <title>HECO下拉箭头</title>
    <g id="HECO" stroke="none" stroke-width="1" fill="none" fill-rule="evenodd">
        <g id="HECO流动性挖矿-列表-Dark" transform="translate(-1492.000000, -610.000000)">
            <g id="编组-25备份-2" transform="translate(360.000000, 580.000000)">
                <g id="HECO下拉箭头" transform="translate(1132.000000, 30.000000)">
                    <rect id="矩形" x="0" y="0" width="20" height="20"></rect>
                    <path d="M11.4743083,8.48333631 L15.5215882,12.8985507 C16.267973,13.7127887 16.2129671,14.9779235 15.3987292,15.7243083 C15.0298695,16.0624296 14.5476632,16.25 14.0472799,16.25 L5.9527201,16.25 C4.8481506,16.25 3.9527201,15.3545695 3.9527201,14.25 C3.9527201,13.7496167 4.14029047,13.2674104 4.47841182,12.8985507 L8.52569172,8.48333631 C9.27207653,7.66909833 10.5372113,7.61409247 11.3514493,8.36047728 C11.3941627,8.39963123 11.4351543,8.44062291 11.4743083,8.48333631 Z" id="三角形" fill="#03AD90" transform="translate(10.000000, 11.562500) rotate(-180.000000) translate(-10.000000, -11.562500) "></path>
                </g>
            </g>
        </g>
    </g>
</svg>