<?xml version="1.0" encoding="UTF-8"?>
<svg width="30px" height="30px" viewBox="0 0 30 30" version="1.1" xmlns="http://www.w3.org/2000/svg" xmlns:xlink="http://www.w3.org/1999/xlink">
    <title>heco</title>
    <g id="HECO" stroke="none" stroke-width="1" fill="none" fill-rule="evenodd">
        <g id="HECO首页-Light" transform="translate(-1495.000000, -23.000000)">
            <g id="编组-10" transform="translate(50.000000, 10.000000)">
                <g id="编组-5" transform="translate(1442.000000, 10.000000)">
                    <g id="heco" transform="translate(3.000000, 3.000000)">
                        <circle id="椭圆形" fill="#FFFFFF" cx="15" cy="15" r="15"></circle>
                        <g id="编组-57" transform="translate(8.250000, 4.500000)">
                            <path d="M8.925,6.46270018 C8.925,3.44794053 7.46678691,0.854509794 6.35822348,0.0100960885 C6.35294869,0.00832581728 6.27389712,-0.0377009914 6.28091977,0.0826765612 C6.28091977,0.0844470748 6.27916411,0.0844470748 6.27916411,0.0862175883 C6.1878073,5.90860699 3.23631471,7.48590675 1.61299145,9.61200108 C-2.13259836,14.517422 1.35121848,19.8954375 4.89828593,20.8885244 C6.88351728,21.4443946 4.43974627,19.9043224 4.12527225,16.6505192 C3.7440363,12.7188 8.925,9.71821574 8.925,6.46270018 Z" id="路径" fill="#1D2243" fill-rule="nonzero"></path>
                            <path d="M11.0550956,8.41467422 C11.0317279,8.3986439 10.9994278,8.38803798 10.9760601,8.42528015 C10.9132146,9.15992243 10.1536448,10.7320278 9.19118289,12.1745952 C5.92669191,17.0684592 7.78699176,19.4284793 8.83388844,20.6953608 C9.44081049,21.4317842 8.83388844,20.6953608 10.3511936,19.943069 C10.4697069,19.884453 13.314026,18.3087854 13.6210759,14.719126 C13.920948,11.2430551 11.8074875,9.05167726 11.0550956,8.41467422 Z" id="路径" fill="#32A7DD"></path>
                        </g>
                    </g>
                </g>
            </g>
        </g>
    </g>
</svg>