<svg width="37" height="37" viewBox="0 0 37 37" fill="none" xmlns="http://www.w3.org/2000/svg">
<g clip-path="url(#clip0_78_48514)">
<path fill-rule="evenodd" clip-rule="evenodd" d="M32.184 20.4503C29.9883 22.4878 27.0476 23.7337 23.8159 23.7337C17.0201 23.7337 11.511 18.2246 11.511 11.4288C11.511 9.12112 12.1463 6.96181 13.2515 5.11621C9.7211 5.81446 6.61243 7.68563 4.34844 10.3068L9.85343 15.4102C10.502 16.0114 10.815 16.8921 10.6913 17.7678L10.3834 19.9479C10.3433 20.2314 10.398 20.5201 10.5388 20.7693L11.4903 22.4532C12.0234 23.3966 11.9408 24.5674 11.2806 25.4266L10.1073 26.9536C9.38712 27.8909 8.14101 28.2507 7.03202 27.8417L6.7688 27.7446C6.30468 27.5734 5.78363 27.6805 5.42461 28.0208L3.46106 29.882C5.66364 32.9523 8.93672 35.2028 12.7343 36.0874L13.3454 33.4599C13.5188 32.7142 14.0006 32.0772 14.671 31.7074L16.1784 30.8759C16.4856 30.7064 16.7113 30.4198 16.8041 30.0814L17.3019 28.2662C17.5141 27.4925 18.0593 26.8533 18.7898 26.5217L20.4654 25.7611C21.9445 25.0896 23.6737 25.8987 24.106 27.4646C24.2357 27.9343 24.6278 28.2849 25.109 28.3616L29.7505 29.1005C31.2928 26.6563 32.1853 23.7611 32.1853 20.6575C32.1853 20.5883 32.1849 20.5192 32.184 20.4503ZM16.3427 36.5001C21.4297 36.5001 25.9568 34.1025 28.8555 30.3756L24.8889 29.7441C23.8658 29.5813 23.0322 28.8358 22.7565 27.8371C22.5531 27.1006 21.7398 26.72 21.0441 27.0359L19.3684 27.7965C19.0167 27.9561 18.7542 28.2639 18.6521 28.6364L18.1543 30.4516C17.9615 31.1545 17.4928 31.7496 16.8546 32.1017L15.3473 32.9333C15.0245 33.1113 14.7925 33.418 14.709 33.7771L14.112 36.3443C14.8408 36.447 15.5855 36.5001 16.3427 36.5001ZM2.6841 28.6895L4.46149 27.0047C5.20715 26.2979 6.28933 26.0756 7.25327 26.4311L7.51649 26.5282C8.05044 26.7251 8.65043 26.5519 8.99718 26.1006L10.1705 24.5736C10.4884 24.1599 10.5281 23.5962 10.2715 23.142L9.31991 21.458C9.02744 20.9404 8.91397 20.3408 8.99712 19.7521L9.30505 17.572C9.36461 17.1504 9.21391 16.7263 8.90164 16.4369L3.4782 11.409C1.60401 14.0114 0.5 17.2055 0.5 20.6575C0.5 23.5889 1.29618 26.3344 2.6841 28.6895Z" fill="#C1D3EA"/>
<path fill-rule="evenodd" clip-rule="evenodd" d="M34.4658 10.9727C34.4658 16.7567 29.7769 21.4456 23.9929 21.4456C18.2089 21.4456 13.52 16.7567 13.52 10.9727C13.52 5.18863 18.2089 0.499756 23.9929 0.499756C29.7769 0.499756 34.4658 5.18863 34.4658 10.9727ZM23.99 5.66366C23.2133 5.66366 22.5837 6.29326 22.5837 7.06991C22.5837 7.84657 23.2133 8.47616 23.99 8.47616C24.7666 8.47616 25.3962 7.84657 25.3962 7.06991C25.3962 6.29326 24.7666 5.66366 23.99 5.66366ZM20.8962 7.06991C20.8962 5.36128 22.2814 3.97616 23.99 3.97616C25.6986 3.97616 27.0837 5.36128 27.0837 7.06991C27.0837 8.77855 25.6986 10.1637 23.99 10.1637C22.2814 10.1637 20.8962 8.77855 20.8962 7.06991ZM19.7947 16.4002C20.1553 14.4082 21.8999 12.8974 23.9956 12.8974C26.0913 12.8974 27.8358 14.4082 28.1965 16.4002C28.2795 16.8588 28.7185 17.1632 29.177 17.0802C29.6356 16.9972 29.94 16.5581 29.857 16.0996C29.3535 13.3189 26.9217 11.2099 23.9956 11.2099C21.0694 11.2099 18.6376 13.3189 18.1342 16.0996C18.0512 16.5581 18.3556 16.9972 18.8141 17.0802C19.2727 17.1632 19.7117 16.8588 19.7947 16.4002Z" fill="#2C72F4"/>
</g>
<defs>
<clipPath id="clip0_78_48514">
<rect width="36" height="36" fill="white" transform="translate(0.5 0.5)"/>
</clipPath>
</defs>
</svg>
