<svg width="180" height="44" viewBox="0 0 180 44" fill="none" xmlns="http://www.w3.org/2000/svg">
<path fill-rule="evenodd" clip-rule="evenodd" d="M6.37064 12.0098C7.48137 12.8271 8.94244 15.3374 8.94244 18.2555C8.94244 19.7098 7.83676 21.1115 6.68353 22.5735C5.33796 24.2794 3.92764 26.0674 4.13333 28.1167C4.28652 29.6478 4.94396 30.7869 5.35058 31.4914C5.78035 32.2361 5.92993 32.4952 4.90786 32.2188C1.35386 31.2575 -2.13676 26.0519 1.61614 21.3038C1.96045 20.8682 2.36439 20.4563 2.78816 20.0243C4.36625 18.4154 6.21927 16.5262 6.29143 12.0835C6.29143 12.0826 6.29187 12.0822 6.29231 12.0817C6.29275 12.0813 6.29319 12.0809 6.29319 12.08C6.28666 11.9719 6.35445 12.0025 6.36843 12.0088C6.36951 12.0093 6.37027 12.0096 6.37064 12.0098ZM96.2047 19.5008C97.4845 19.5008 99.3491 19.8795 100.28 21.0617V21.06H100.389V18.4881C100.389 17.8301 98.6111 16.9888 96.1835 16.9888C91.6529 16.9888 88.5968 20.133 88.5968 24.5847C88.5968 28.9096 91.9781 31.7797 95.9232 31.7797C98.6955 31.7797 100.345 30.7208 100.345 29.8743V27.8764H100.236C99.4336 28.7006 97.7855 29.2694 96.3125 29.2694C93.5168 29.2694 91.588 27.5594 91.588 24.1632C91.588 21.3582 93.5613 19.5008 96.2047 19.5008ZM25.9719 17.2381V23.0742H20.0592V17.9886C20.0592 17.5739 19.7141 17.2381 19.2881 17.2381H17.292V31.1449C17.292 31.5595 17.637 31.8953 18.063 31.8953H20.0592V25.4269H25.9719V31.1431C25.9719 31.5578 26.3169 31.8936 26.7429 31.8936H28.7391V17.9886C28.7391 17.5739 28.394 17.2381 27.968 17.2381H25.9719ZM37.5771 20.6934V27.6382C37.5771 28.2689 37.2462 28.8669 36.6847 29.1838C35.118 30.0645 33.4968 28.9645 33.4968 27.5132V21.444C33.4968 21.0293 33.1518 20.6934 32.7258 20.6934H30.7226V27.7599C30.7226 30.0337 32.6342 31.8946 34.9702 31.8946H36.1055C38.4414 31.8946 40.3531 30.0337 40.3531 27.7599V21.444C40.3531 21.0293 40.008 20.6934 39.5821 20.6934H37.5771ZM47.5935 20.6866C44.6909 20.6866 42.3163 22.7068 42.3163 25.5323V27.0608C42.3163 29.8864 44.6909 31.8946 47.5935 31.8946C50.4963 31.8946 52.8709 29.8864 52.8709 27.0608V25.5323C52.8709 22.7068 50.4963 20.6866 47.5935 20.6866ZM50.0897 27.2441C50.0897 28.5806 48.9666 29.47 47.5935 29.47C46.2206 29.47 45.0975 28.5806 45.0975 27.2441V25.337C45.0975 24.0004 46.2206 23.1112 47.5935 23.1112C48.9666 23.1112 50.0897 24.0004 50.0897 25.337V27.2441ZM85.71 29.2952H78.5204V25.5683H84.0814C84.1416 25.5683 84.5005 25.5752 84.9352 25.5889L85.0493 25.5923V23.9559C85.0493 23.7109 84.9547 23.483 84.7804 23.3116C84.606 23.1403 84.3863 23.0375 84.1307 23.0529H78.5204V19.8555H86.4105V18.1591C86.4105 17.6605 86.007 17.2561 85.5129 17.2561H75.8451V17.3675C75.8451 17.3675 75.8398 27.9467 75.8311 30.9898C75.8311 31.2314 75.9225 31.4576 76.0916 31.629C76.2605 31.8003 76.4876 31.8945 76.7287 31.8945H86.6075V30.1982C86.6075 29.6996 86.2041 29.2952 85.71 29.2952ZM102.36 23.5052C102.36 19.9429 105.213 17.2578 108.996 17.2578C112.78 17.2578 115.632 19.9429 115.632 23.5052V25.642C115.632 29.194 112.78 31.8722 108.996 31.8722C105.213 31.8722 102.36 29.194 102.36 25.642V23.5052ZM108.994 29.2609C111.227 29.2609 112.909 27.974 112.909 25.899V23.2328C112.909 21.1577 111.227 19.8435 108.994 19.8435C106.762 19.8435 105.079 21.1577 105.079 23.2328V25.899C105.079 27.974 106.762 29.2609 108.994 29.2609ZM153.855 21.4731C153.023 20.8255 151.803 20.4965 150.232 20.4965C149.648 20.4965 149.035 20.5376 148.409 20.6199C147.907 20.6849 147.194 20.7792 146.702 20.8888C146.501 20.9334 146.465 21.0859 146.465 21.2692V22.7308C146.465 22.9914 146.469 23.2278 146.751 23.1609C147.278 23.0358 148.303 22.8148 148.582 22.7703C149.021 22.7 149.502 22.664 150.005 22.664C150.792 22.664 151.391 22.8011 151.789 23.0702C152.16 23.3237 152.35 23.8069 152.35 24.506V24.59C152.211 24.5781 152.056 24.566 151.889 24.554C151.575 24.5335 151.174 24.5232 150.683 24.5232C150.014 24.5232 149.367 24.5969 148.758 24.7425C148.139 24.8898 147.583 25.1195 147.106 25.4244C146.62 25.7346 146.23 26.1287 145.948 26.5948C145.663 27.066 145.519 27.616 145.519 28.2312C145.519 28.8566 145.642 29.3998 145.887 29.8488C146.133 30.3011 146.487 30.6781 146.938 30.9677C147.381 31.2556 147.927 31.4646 148.557 31.5931C149.17 31.7164 149.863 31.7798 150.618 31.7798C151.167 31.7798 155.13 31.725 155.13 29.8899V24.5849C155.128 23.178 154.7 22.1311 153.855 21.4731ZM152.35 26.6822V29.5078C152.134 29.5489 151.895 29.5815 151.634 29.6038C150.999 29.6621 150.426 29.6723 149.765 29.614C149.506 29.5918 149.266 29.5267 149.054 29.4239C148.848 29.3245 148.681 29.1823 148.54 28.9904C148.405 28.8087 148.339 28.5397 148.339 28.1918C148.339 27.6487 148.538 27.2614 148.946 27.0044C149.381 26.7302 150.041 26.5915 150.907 26.5915C151.141 26.5915 151.425 26.6051 151.761 26.6309C151.985 26.648 152.18 26.6651 152.35 26.6822ZM167.266 20.5461C166.173 20.5461 164.959 20.8013 164.759 21.348V21.0892C164.759 20.6968 164.433 20.3798 164.031 20.3798H161.824V31.0721C161.824 31.4645 162.15 31.7815 162.554 31.7815H164.738V25.6763C164.738 23.6955 165.915 23.0272 166.817 23.0272C168.08 23.0272 169.108 23.7571 169.108 25.5923V31.0703C169.108 31.4627 169.434 31.7798 169.837 31.7798H172V25.4672C172 22.2767 170.244 20.5461 167.266 20.5461ZM159.869 31.6495H157.873C157.447 31.6495 157.102 31.3137 157.102 30.899V21.0635H159.098C159.524 21.0635 159.869 21.3993 159.869 21.814V31.6495ZM158.486 19.996C159.338 19.996 160.029 19.3232 160.029 18.4932C160.029 17.6633 159.338 16.9905 158.486 16.9905C157.633 16.9905 156.941 17.6633 156.941 18.4932C156.941 19.3232 157.633 19.996 158.486 19.996ZM127.3 19.5008C128.58 19.5008 130.444 19.8795 131.375 21.0617V21.06H131.485V18.4881C131.485 17.8301 129.707 16.9888 127.279 16.9888C122.748 16.9888 119.692 20.133 119.692 24.5847C119.692 28.9096 123.074 31.7797 127.019 31.7797C129.791 31.7797 131.44 30.7208 131.44 29.8743V27.8764H131.331C130.528 28.7006 128.881 29.2694 127.407 29.2694C124.612 29.2694 122.683 27.5594 122.683 24.1632C122.683 21.3582 124.656 19.5008 127.3 19.5008ZM138.845 20.7414C137.763 20.7414 136.562 20.9933 136.363 21.5365V17.7531C136.363 17.3658 136.039 17.0505 135.641 17.0505H133.457V31.079C133.457 31.4663 133.781 31.7815 134.179 31.7815H136.342V25.8219C136.342 23.86 137.509 23.1986 138.4 23.1986C139.651 23.1986 140.671 23.9217 140.671 25.7397V31.0772C140.671 31.4645 140.995 31.7798 141.392 31.7798H143.535V25.6163C143.535 22.4567 141.794 20.7414 138.845 20.7414Z" fill="#2D3338"/>
<path fill-rule="evenodd" clip-rule="evenodd" d="M60.1523 20.6869C59.2458 20.6869 58.3902 20.8839 57.6421 21.242V17.9761C57.6421 17.5614 57.2971 17.2256 56.8711 17.2256H54.875V27.0611C54.875 29.8867 57.2495 31.8949 60.1523 31.8949C63.0549 31.8949 65.4295 29.8867 65.4295 27.0611V25.5327C65.4295 22.7071 63.0549 20.6869 60.1523 20.6869ZM62.6483 27.2445C62.6483 28.581 61.5253 29.4703 60.1523 29.4703C58.7792 29.4703 57.6562 28.581 57.6562 27.2445V25.3373C57.6562 24.0008 58.7792 23.1114 60.1523 23.1114C61.5253 23.1114 62.6483 24.0008 62.6483 25.3373V27.2445ZM68.8074 20.2435C69.66 20.2435 70.3512 19.5707 70.3512 18.7408C70.3512 17.9108 69.66 17.238 68.8074 17.238C67.9548 17.238 67.2637 17.9108 67.2637 18.7408C67.2637 19.5707 67.9548 20.2435 68.8074 20.2435ZM10.5907 20.1848C10.6137 20.1488 10.6453 20.1591 10.6682 20.1746C11.4058 20.7897 13.4776 22.9059 13.1836 26.2626C12.8826 29.729 10.0944 31.2506 9.97819 31.3072C9.23449 31.6704 9.01138 32.0298 8.89982 32.2095C8.857 32.2785 8.83062 32.321 8.79754 32.3271C8.74444 32.3368 8.67408 32.2528 8.49078 32.0337C7.46451 30.8103 5.64087 28.5313 8.84104 23.8054C9.78454 22.4124 10.5291 20.8942 10.5907 20.1848ZM70.191 31.8951H68.1949C67.7688 31.8951 67.4238 31.5593 67.4238 31.1446V21.3091H69.42C69.846 21.3091 70.191 21.6449 70.191 22.0595V31.8951Z" fill="#01943F"/>
</svg>
