<svg width="36" height="36" viewBox="0 0 36 36" fill="none" xmlns="http://www.w3.org/2000/svg">
<g clip-path="url(#clip0_78_48522)">
<path fill-rule="evenodd" clip-rule="evenodd" d="M28.6875 11.2185C28.6875 17.121 23.9025 21.906 18 21.906C12.0975 21.906 7.3125 17.121 7.3125 11.2185C7.3125 5.31596 12.0975 0.531006 18 0.531006C23.9025 0.531006 28.6875 5.31596 28.6875 11.2185ZM19.8306 8.57909L20.2093 8.25802C20.3987 8.08804 20.6301 7.99361 20.8616 7.95583C21.093 7.91806 21.3455 7.95583 21.598 8.05027C21.8294 8.1447 22.0188 8.29579 22.1661 8.48466C22.2923 8.67353 22.3765 8.88128 22.3555 9.12681L22.3134 16.1715H22.4817C23.4286 16.1715 24.186 15.4916 24.2071 14.6417L24.2491 9.12681C24.2491 8.56021 24.0808 8.01249 23.7652 7.5781C23.4496 7.12482 22.9657 6.76597 22.3976 6.52045C21.8084 6.29381 21.1982 6.21826 20.6091 6.29381C20.0199 6.36935 19.4518 6.61488 18.9889 6.99261L18.6102 7.31369L18.2315 7.63476L19.6412 8.76796L19.8306 8.57909ZM11.7524 14.6422C11.7524 15.4918 12.4911 16.1715 13.3895 16.1715H13.5492L13.5093 9.12882C13.5093 8.88337 13.5692 8.67567 13.689 8.48686C13.8087 8.29805 13.9884 8.16588 14.228 8.05259C14.4676 7.95818 14.7072 7.92042 14.9268 7.95818C15.1464 7.99595 15.366 8.09035 15.5457 8.26028L18.4606 10.7337C18.4667 10.7396 18.4824 10.7526 18.5041 10.7706L18.5042 10.7706C18.5527 10.811 18.6312 10.8762 18.7002 10.9414C18.9996 11.1869 19.1594 11.319 19.1594 11.7156C19.1594 12.0554 19.0196 12.3575 18.78 12.5841C18.5404 12.8107 18.221 12.9428 17.8616 12.9428C17.5023 12.9428 17.1828 12.8107 16.9432 12.5841C16.7037 12.3575 16.5639 12.0554 16.5639 11.7156C16.5639 11.3002 16.7436 11.1491 17.063 10.8848C17.103 10.847 17.3425 10.6393 17.4424 10.5638L16.1047 9.43092L15.8651 9.63862C15.1464 10.2428 14.7671 10.5638 14.7671 11.7344C14.7671 12.5463 15.1065 13.2638 15.6655 13.7925C16.2245 14.3212 17.0031 14.6422 17.8417 14.6422C18.7002 14.6422 19.4588 14.3212 20.0178 13.7925C20.5769 13.2638 20.9163 12.5274 20.9163 11.7344C20.9163 10.5827 20.517 10.2428 19.8182 9.69526C19.7783 9.6575 19.7383 9.61974 19.5986 9.50645L16.7436 6.99524C16.3044 6.61762 15.7653 6.37216 15.2063 6.29663C14.6473 6.22111 14.0683 6.27775 13.5093 6.52321C12.9503 6.74978 12.511 7.12741 12.2116 7.58056C11.9121 8.03371 11.7324 8.56239 11.7524 9.12882V14.6422Z" fill="#2C72F4"/>
<path d="M15.6613 36V33.0299C16.3154 32.2294 16.6708 31.2367 16.6708 30.1892C16.6708 28.9872 16.2026 27.857 15.3524 27.0068L10.4883 22.1427C9.60596 21.2604 8.17538 21.2604 7.29309 22.1427C6.41081 23.0251 6.41074 24.4557 7.29309 25.338L9.70819 27.753C10.132 28.1769 10.1197 28.8717 9.67127 29.2798C9.2513 29.662 8.59711 29.6251 8.19556 29.2236L5.48902 26.517C4.86373 25.8917 4.51913 25.06 4.5187 24.1741L4.51877 16.9601C4.51877 15.1045 3.04263 13.5026 1.06207 13.5C0.4545 13.4992 0.000140625 13.988 0.000140625 14.5547L0 25.3839C0.000210938 26.6962 0.511102 27.9296 1.43845 28.857L6.52556 33.9443V36H15.6613Z" fill="#C1D3EA"/>
<path d="M35.9998 14.6272C35.9998 14.0605 35.5454 13.5717 34.9378 13.5725C32.9573 13.5751 31.4811 15.177 31.4811 17.0326L31.4812 24.2467C31.4808 25.1325 31.1361 25.9642 30.5109 26.5895L27.8044 29.2961C27.4028 29.6976 26.7487 29.7346 26.3286 29.3523C25.8802 28.9442 25.8679 28.2494 26.2917 27.8256L28.7068 25.4105C29.5892 24.5281 29.5892 23.0975 28.7068 22.2153C27.8245 21.333 26.3939 21.3329 25.5116 22.2153L20.6475 27.0793C19.7973 27.9295 19.3291 29.0598 19.3291 30.2617C19.3291 31.3092 19.6846 32.3019 20.3386 33.1024V36H29.4744V34.0168L34.5615 28.9295C35.4888 28.0021 35.9997 26.7688 35.9999 25.4564L35.9998 14.6272Z" fill="#C1D3EA"/>
</g>
<defs>
<clipPath id="clip0_78_48522">
<rect width="36" height="36" fill="white"/>
</clipPath>
</defs>
</svg>
