<?xml version="1.0" encoding="UTF-8"?>
<svg width="24px" height="24px" viewBox="0 0 24 24" version="1.1" xmlns="http://www.w3.org/2000/svg" xmlns:xlink="http://www.w3.org/1999/xlink">
    <title>首页-Light</title>
    <defs>
        <circle id="path-1" cx="12" cy="12" r="12"></circle>
    </defs>
    <g id="组件/弹窗/导航" stroke="none" stroke-width="1" fill="none" fill-rule="evenodd">
        <g id="H5导航" transform="translate(-196.000000, -159.000000)">
            <g id="HECO-Light默认" transform="translate(170.000000, 152.000000)">
                <g id="1首页-Light" transform="translate(26.000000, 7.000000)">
                    <polygon id="路径" points="0 24 24 24 24 0 0 0"></polygon>
                    <g id="HMDX备份-3">
                        <mask id="mask-2" fill="white">
                            <use xlink:href="#path-1"></use>
                        </mask>
                        <use id="蒙版" fill="#A1AAB3" xlink:href="#path-1"></use>
                        <path d="M4.32185947,16.0788704 C4.32185947,17.1255201 5.23182556,17.9628952 6.33841473,17.9628952 L6.5351753,17.9628952 L6.48595078,9.28728927 C6.48595078,8.98488069 6.55978756,8.72903915 6.70732361,8.49648114 C6.85485967,8.26378453 7.0762325,8.10107707 7.37130461,7.96151454 C7.66637673,7.84523553 7.96158634,7.79866849 8.23204619,7.84523553 C8.50264354,7.89166398 8.77310339,8.00808158 8.99447622,8.21735608 L12.5849786,11.2643096 C12.6094533,11.2875931 12.7571269,11.4038721 12.8800507,11.5201511 C13.2489596,11.8225597 13.4457201,11.9852672 13.4457201,12.4736667 C13.4457201,12.8923543 13.2735718,13.2644749 12.9784997,13.5437385 C12.6832901,13.822725 12.2899065,13.985571 11.8471608,13.985571 C11.4045526,13.985571 11.0110315,13.822725 10.7159594,13.5437385 C10.4207498,13.2644749 10.2486014,12.8923543 10.2486014,12.4736667 C10.2486014,11.9619837 10.4699743,11.7759927 10.8634954,11.4504392 C10.9127199,11.4038721 11.2077921,11.147892 11.3307159,11.0548965 L9.68306948,9.65940982 L9.38785987,9.91525136 C8.50264354,10.6594924 8.03528561,11.0548965 8.03528561,12.4969503 C8.03528561,13.4971715 8.45341902,14.3809751 9.14201228,15.0322207 C9.83060554,15.6834663 10.7896587,16.0788704 11.8225485,16.0788704 C12.8800507,16.0788704 13.814629,15.6834663 14.5032223,15.0322207 C15.1918156,14.3809751 15.6098115,13.473888 15.6098115,12.4969503 C15.6098115,11.07818 15.1179788,10.6594924 14.2572372,9.98496332 C14.2080127,9.93853488 14.1587882,9.89196784 13.9867774,9.75240531 L10.4699743,6.65902333 C9.92891708,6.1937687 9.26493608,5.89136012 8.57634282,5.79836463 C7.88774956,5.70536914 7.17454404,5.77508111 6.48595078,6.07748969 C5.79735752,6.35661475 5.25630032,6.82186938 4.88752893,7.3799809 C4.51862004,7.93823102 4.29724721,8.58947662 4.32185947,9.28728927 L4.32185947,16.0788704 Z" id="Fill-1" fill="#FFFFFF" mask="url(#mask-2)"></path>
                        <path d="M14.3392164,8.62664253 L14.7970252,8.23180186 C15.0259296,8.02276042 15.3056256,7.90668777 15.5854585,7.86020338 C15.8651545,7.81385733 16.1703148,7.86020338 16.4754751,7.97641437 C16.7551711,8.09248701 16.9840755,8.27828625 17.1621883,8.51056989 C17.3147,8.74271518 17.416557,8.99824101 17.3910927,9.30025124 L17.3401642,17.9629506 L17.5436044,17.9629506 C18.6881265,17.9629506 19.6037442,17.1267848 19.6290715,16.081716 L19.68,9.30025124 C19.68,8.60340034 19.4765598,7.92992997 19.0950068,7.39577445 C18.7135907,6.83837673 18.1285976,6.39705166 17.4420212,6.09517977 C16.7298437,5.81655009 15.9923389,5.72358129 15.2801614,5.81655009 C14.5681208,5.90938053 13.8814075,6.21139076 13.3218786,6.67581969 L12.8642067,7.07066037 L12.4062609,7.4653627 L14.1103119,8.85892617 L14.3392164,8.62664253 Z" id="Fill-3" fill="#FFFFFF" mask="url(#mask-2)"></path>
                    </g>
                </g>
            </g>
        </g>
    </g>
</svg>