<?xml version="1.0" encoding="UTF-8"?>
<svg width="50px" height="50px" viewBox="0 0 50 50" version="1.1" xmlns="http://www.w3.org/2000/svg" xmlns:xlink="http://www.w3.org/1999/xlink">
    <title>heco</title>
    <g id="HECO" stroke="none" stroke-width="1" fill="none" fill-rule="evenodd">
        <g id="HECO首页-Light" transform="translate(-440.000000, -1201.000000)">
            <g id="编组-21" transform="translate(0.000000, 673.000000)">
                <g id="编组-36" transform="translate(360.000000, 100.000000)">
                    <g id="编组-26" transform="translate(0.000000, 264.000000)">
                        <g id="编组-54" transform="translate(50.000000, 139.000000)">
                            <g id="编组-52" transform="translate(30.000000, 21.000000)">
                                <g id="heco" transform="translate(0.000000, 4.000000)">
                                    <circle id="椭圆形" fill="#000000" cx="25" cy="25" r="25"></circle>
                                    <g id="编组-57" transform="translate(13.750000, 7.500000)">
                                        <path d="M14.875,10.771167 C14.875,5.74656756 12.4446448,1.42418299 10.5970391,0.0168268141 C10.5882478,0.0138763621 10.4564952,-0.0628349857 10.4681996,0.137794269 C10.4681996,0.140745125 10.4652735,0.140745125 10.4652735,0.14369598 C10.3130122,9.84767832 5.39385786,12.4765113 2.68831908,16.0200018 C-3.5543306,24.1957033 2.2520308,33.1590626 8.16380989,34.8142073 C11.4725288,35.7406576 7.39957711,33.1738707 6.87545375,27.7508654 C6.2400605,21.198 14.875,16.1970262 14.875,10.771167 Z" id="路径" fill="#FFFFFF" fill-rule="nonzero"></path>
                                        <path d="M18.4251593,14.024457 C18.3862131,13.9977398 18.3323797,13.9800633 18.2934335,14.0421336 C18.1886909,15.2665374 16.9227414,17.886713 15.3186382,20.2909919 C9.87781986,28.447432 12.9783196,32.3807989 14.7231474,34.492268 C15.7346842,35.7196404 14.7231474,34.492268 17.2519893,33.2384483 C17.4495115,33.1407551 22.1900433,30.5146423 22.7017931,24.5318766 C23.20158,18.7384252 19.6791458,15.0861288 18.4251593,14.024457 Z" id="路径" fill="#32A7DD"></path>
                                    </g>
                                </g>
                            </g>
                        </g>
                    </g>
                </g>
            </g>
        </g>
    </g>
</svg>