<svg width="180" height="44" viewBox="0 0 180 44" fill="none" xmlns="http://www.w3.org/2000/svg">
<ellipse cx="14.393" cy="22.2216" rx="14.393" ry="14.2216" fill="#2386E3"/>
<path fill-rule="evenodd" clip-rule="evenodd" d="M108.441 15L107.35 18.8128L114.648 18.8162L113.775 22.8766L118.266 22.8902C118.266 22.8902 118.277 22.4628 118.545 20.7463C118.968 18.0123 123.731 17.8562 123.683 20.916C123.649 23.1684 121.888 23.4397 120.75 23.4737C119.611 23.5076 105.813 23.4669 105.813 23.4669L104.537 27.2084H112.471L111.299 31.7675H116.368L117.572 27.0999C117.572 27.0999 120.265 27.0456 121.369 27.0456C123.336 27.0456 128.543 25.7803 128.543 20.4037C128.543 15.5394 123.161 15.0271 121.162 15.0271C119.164 15.0271 108.441 15 108.441 15ZM141.749 18.979H146.554L146.791 26.6826L151.279 18.979H156.142L148.37 31.0755C148.37 31.0755 145.845 35.6007 142.035 35.7533C140.277 35.7533 139.448 35.448 138.551 34.7662C139.067 33.9487 140.057 32.0796 140.057 32.0796C140.057 32.0796 141.092 32.9853 142.647 32.429C143.575 32.0796 143.256 30.6854 143.256 30.6854L141.749 18.979ZM137.667 19.6911C134.648 19.2942 132.759 19.4706 130.008 19.9964L130.386 22.9577C130.386 22.9577 133.857 22.3811 135.47 22.8254C136.677 23.1579 136.147 24.8302 136.147 24.8302C136.147 24.8302 133.389 23.7583 130.318 24.8302C127.941 25.6613 125.558 28.9483 128.11 31.8384C129.386 32.9952 131.735 33.0868 134.111 31.2618C134.042 31.7367 133.836 32.5542 133.836 32.5542H138.355C138.355 32.5542 140.322 25.7495 140.529 24.8302C140.538 24.7876 140.55 24.7391 140.562 24.6853L140.562 24.6849C140.823 23.5765 141.616 20.2118 137.667 19.6911ZM134.816 28.8669C134.08 29.7828 133.079 29.9354 132.529 29.6267C131.821 29.2299 131.504 28.1885 132.116 27.3472C132.629 26.6382 134.589 26.5907 135.428 26.6654C135.872 26.7807 135.528 27.9815 134.816 28.8669Z" fill="#2386E3"/>
<path d="M7.57063 16.376L5.87734 18.0732L8.10022 19.7291L13.0233 19.7326L11.5216 21.6467L12.2568 23.3026L16.2008 23.3164C16.2008 23.3164 16.2113 22.9377 16.4447 21.4298C16.8175 19.0268 20.995 18.8857 20.9567 21.5813C20.9253 23.5642 19.3818 23.8018 18.3819 23.8328C17.382 23.8638 5.27111 23.8259 5.27111 23.8259L3.41406 25.4611L5.0098 27.1171H11.1175L9.35102 29.4718L10.682 31.1278H14.5389L15.5981 27.0241C15.5981 27.0241 17.9603 26.9759 18.9324 26.9759C20.657 26.9759 25.2317 25.8639 25.2317 21.1372C25.2317 16.8579 20.5072 16.4104 18.7512 16.4104C16.9882 16.4035 7.57063 16.376 7.57063 16.376Z" fill="#2665A3"/>
<path d="M6.83548 14.7197L5.88083 18.0729L12.2881 18.0763L11.5216 21.6463L15.4657 21.6601C15.4657 21.6601 15.4761 21.2814 15.7096 19.7735C16.0824 17.3706 20.2598 17.2294 20.2215 19.925C20.1902 21.908 18.6467 22.1455 17.6467 22.1765C16.6468 22.2075 4.53595 22.1696 4.53595 22.1696L3.41406 25.4608H10.3788L9.35102 29.4715H13.8037L14.8629 25.3679C14.8629 25.3679 17.2252 25.3197 18.1972 25.3197C19.9219 25.3197 24.4965 24.2077 24.4965 19.4809C24.4965 15.2017 19.7721 14.7542 18.0161 14.7542C16.2496 14.7473 6.83548 14.7197 6.83548 14.7197Z" fill="white"/>
<path fill-rule="evenodd" clip-rule="evenodd" d="M35.8236 15.0859H40.9515L39.1115 21.6159H44.7793L46.609 15.0859H51.5993L46.8153 32.23H42.1242L43.7338 25.5847H37.9387L36.0093 32.23H31.1084L35.8236 15.0859ZM51.5989 19.1328H56.4035L56.6408 26.8364L61.129 19.1328H65.992L58.2194 31.2293C58.2194 31.2293 55.695 35.7545 51.8843 35.9071C50.1269 35.9071 49.298 35.6018 48.4004 34.92C48.9163 34.1025 49.9068 32.2334 49.9068 32.2334C49.9068 32.2334 50.942 33.1391 52.4965 32.5828C53.4251 32.2334 53.1053 30.8392 53.1053 30.8392L51.5989 19.1328ZM76.7781 19.1325C74.3638 18.2471 72.2899 19.3496 71.21 20.7302C71.4405 19.7498 71.4989 19.1325 71.4989 19.1325H67.2893L62.667 35.9034H67.2893L68.8576 30.0349C68.8576 30.0349 70.082 32.0601 72.2556 32.2297C72.2556 32.2297 76.221 32.7385 78.257 29.1665C80.2965 25.598 80.6404 20.5267 76.7781 19.1325ZM74.684 26.612C73.9652 28.1962 72.3109 29.0069 70.9902 28.4235C69.6696 27.84 69.1812 26.0829 69.9 24.4987C70.6188 22.9146 72.2731 22.1038 73.5937 22.6873C74.9144 23.2708 75.4028 25.0279 74.684 26.612ZM80.4785 26.8839C80.4785 22.9388 83.56 18.9462 88.5744 19.1396C96.0719 19.4686 93.2208 26.6126 93.2139 26.6092H84.3854C84.1584 29.5129 88.1136 29.6485 89.7678 28.0169C89.7678 28.0169 90.7342 28.9701 91.8382 30.4661C85.6751 34.9573 80.4785 30.829 80.4785 26.8839ZM90.2083 24.747H84.7744C85.2765 21.226 90.6898 20.6968 90.2083 24.747ZM93.3446 31.9247L96.691 19.1328H101.176C101.176 19.1328 100.897 20.2217 100.553 21.3784C102.311 19.1328 104.45 18.6579 105.657 18.8784C105.657 18.8784 104.759 21.9585 104.45 23.624C103.762 23.5562 102.349 23.4544 100.484 24.7469C98.6238 26.0393 97.6918 31.9247 97.6918 31.9247H93.3446Z" fill="white"/>
</svg>
