<?xml version="1.0" encoding="UTF-8"?>
<svg width="172px" height="43px" viewBox="0 0 172 43" version="1.1" xmlns="http://www.w3.org/2000/svg" xmlns:xlink="http://www.w3.org/1999/xlink">
    <title>HyperPay</title>
    <g id="HECO" stroke="none" stroke-width="1" fill="none" fill-rule="evenodd">
        <g id="合作伙伴" transform="translate(-3051.000000, -1580.000000)">
            <g id="编组-2备份-4" transform="translate(1920.000000, 903.000000)">
                <g id="编组-8" transform="translate(360.000000, 100.000000)">
                    <g id="编组-7" transform="translate(0.000000, 411.000000)">
                        <g id="HyperPay" transform="translate(771.000000, 166.000000)">
                            <rect id="矩形" x="0" y="0" width="172" height="43"></rect>
                            <g id="HyperPay-Logo" transform="translate(0.000000, 7.371429)" fill-rule="nonzero">
                                <g id="编组">
                                    <ellipse id="椭圆形" fill="#2386E3" cx="14.3929515" cy="14.2216069" rx="14.3929515" ry="14.2216069"></ellipse>
                                    <path d="M7.57102002,8.37597907 L5.8777316,10.0732079 L8.10060817,11.7291248 L13.0236875,11.7325675 L11.5220263,13.6466835 L12.2571783,15.3026005 L16.2012163,15.3163711 C16.2012163,15.3163711 16.2116687,14.9376791 16.4451056,13.4297963 C16.8179078,11.0268232 20.9953827,10.8856744 20.9570573,13.5812731 C20.9257001,15.5642422 19.3822293,15.8017854 18.3822833,15.8327693 C17.3823373,15.8637532 5.27149254,15.825884 5.27149254,15.825884 L3.41444989,17.461145 L5.0101826,19.117062 L11.1178669,19.117062 L9.35141175,21.4718378 L10.6823504,23.1277548 L14.5392851,23.1277548 L15.5984614,19.0241103 C15.5984614,19.0241103 17.9607033,18.9759131 18.9327762,18.9759131 C20.6574219,18.9759131 25.2320879,17.8639356 25.2320879,13.1371706 C25.2320879,8.85795074 20.5076042,8.41040562 18.7516014,8.41040562 C16.9886303,8.40352031 7.57102002,8.37597907 7.57102002,8.37597907 Z" id="路径" fill="#2665A3"></path>
                                    <path d="M6.83586805,6.72006212 L5.88121574,10.0732079 L12.2885355,10.0766505 L11.5220263,13.6466835 L15.4660644,13.6604542 C15.4660644,13.6604542 15.4765168,13.2817621 15.7099536,11.7738793 C16.0827558,9.3709063 20.2602307,9.22975745 20.2219053,11.9253561 C20.1905481,13.9083253 18.6470774,14.1458685 17.6471313,14.1768524 C16.6471853,14.2078363 4.53634057,14.1699671 4.53634057,14.1699671 L3.41444989,17.461145 L10.3792309,17.461145 L9.35141175,21.4718378 L13.8041331,21.4718378 L14.8633094,17.3681933 C14.8633094,17.3681933 17.2255513,17.3199962 18.1976243,17.3199962 C19.9222699,17.3199962 24.4969359,16.2080187 24.4969359,11.4812537 C24.4969359,7.20203379 19.7724522,6.75448867 18.0164494,6.75448867 C16.2499942,6.74760336 6.83586805,6.72006212 6.83586805,6.72006212 Z" id="路径" fill="#FFFFFF"></path>
                                </g>
                                <g id="编组" transform="translate(31.108631, 7.086205)">
                                    <path d="M25.2954998,4.04686593 L25.5328063,11.7504976 L30.0209949,4.04686593 L34.884059,4.04686593 L27.1114105,16.1433654 C27.1114105,16.1433654 24.5870194,20.6685282 20.7763581,20.8211761 C19.0189142,20.8211761 18.1900609,20.5158802 17.2924232,19.8340529 C17.808307,19.0165385 18.7988038,17.1474495 18.7988038,17.1474495 C18.7988038,17.1474495 19.8340105,18.0531605 21.3885402,17.4968436 C22.3171309,17.1474495 21.997283,15.7532652 21.997283,15.7532652 L20.4909024,4.04686593 L25.2954998,4.04686593 Z M40.1013633,5.64458081 C41.1812799,4.26396519 43.2551326,3.161508 45.6694686,4.04686593 C49.5317182,5.44105025 49.1877957,10.5123533 47.1483353,14.0809224 C45.1123141,17.6528837 41.1468877,17.1440573 41.1468877,17.1440573 C38.9732975,16.9744485 37.7489334,14.9493195 37.7489334,14.9493195 L37.7489334,14.9493195 L36.1806468,20.8177839 L31.5583284,20.8177839 L36.1806468,4.04686593 L40.3902582,4.04686593 C40.3902582,4.04686593 40.3317914,4.66424195 40.1013633,5.64458081 Z M57.1894288,4.04718803 L57.4660102,4.05365028 C64.9635207,4.38269135 62.1124032,11.5266139 62.1055247,11.5232218 L62.1055247,11.5232218 L53.2770342,11.5232218 C53.0500454,14.4269244 57.0051541,14.5626114 58.6594213,12.9309748 L58.6594213,12.9309748 L58.7031035,12.9748544 C58.9031764,13.1777556 59.7638424,14.0711699 60.7298348,15.3801258 C54.5667436,19.8713668 49.3700746,15.7430887 49.3700746,11.797988 C49.3700746,7.85288736 52.4516202,3.86029625 57.4660102,4.05365028 Z M9.8430619,0 L8.00307654,6.52993874 L13.6709193,6.52993874 L15.500587,0 L20.4909024,0 L15.7069405,17.1440573 L11.0158376,17.1440573 L12.6253949,10.4987846 L6.83030082,10.4987846 L4.9008956,17.1440573 L0,17.1440573 L4.71517745,0 L9.8430619,0 Z M69.4448309,6.29248642 C71.2022748,4.04686593 73.3414728,3.57196129 74.5486407,3.79245273 C74.5486407,3.79245273 74.5237064,3.87801095 74.480716,4.02831889 L74.420901,4.23843655 C74.1617623,5.15281706 73.5787793,7.2611788 73.3414728,8.53810691 C72.6536278,8.47026339 71.2401063,8.36849811 69.3760464,9.66091715 C67.5154256,10.9533362 66.5833957,16.8387615 66.5833957,16.8387615 L66.5833957,16.8387615 L62.2362153,16.8387615 L65.5825812,4.04686593 L70.0673306,4.04686593 C70.0673306,4.04686593 69.7887534,5.13575441 69.4448309,6.29248642 Z M42.4847462,7.60186634 C41.1640838,7.01841208 39.5098166,7.82914213 38.7910186,9.41328831 C38.0722206,10.9974345 38.5605905,12.7545816 39.8812529,13.3380359 C41.2019153,13.9214902 42.8561825,13.1107601 43.5749805,11.5266139 C44.2937786,9.94246776 43.8054086,8.18532061 42.4847462,7.60186634 Z M59.0996421,9.66091715 C59.5811336,5.61065905 54.1677935,6.1398385 53.6656666,9.66091715 L53.6656666,9.66091715 Z" id="形状结合" fill="#FFFFFF"></path>
                                    <path d="M115.434147,4.04686593 L115.671454,11.7504976 L120.159642,4.04686593 L125.022707,4.04686593 L117.250058,16.1433654 C117.250058,16.1433654 114.725667,20.6685282 110.915006,20.8211761 C109.157562,20.8211761 108.328709,20.5158802 107.431071,19.8340529 C107.946955,19.0165385 108.937451,17.1474495 108.937451,17.1474495 C108.937451,17.1474495 109.972658,18.0531605 111.527188,17.4968436 C112.455778,17.1474495 112.135931,15.7532652 112.135931,15.7532652 L110.62955,4.04686593 L115.434147,4.04686593 Z M98.6335333,4.69137936 C101.384913,4.16559209 103.273048,3.98919894 106.292687,4.38608353 C110.433514,4.93222386 109.360476,8.60595043 109.154123,9.52523012 C109.067742,9.91004487 108.672802,11.3261618 108.242768,12.8427342 L108.098499,13.350702 C107.54336,15.3023846 106.980532,17.2492148 106.980532,17.2492148 L106.980532,17.2492148 L102.461391,17.2492148 C102.461391,17.2492148 102.667744,16.4317004 102.736529,15.9567957 C100.360024,17.7817864 98.0110336,17.6901977 96.7350811,16.5334657 C94.1831762,13.6433317 96.5665591,10.3563132 98.9430635,9.52523012 C102.014291,8.45330251 104.77255,9.52523012 104.77255,9.52523012 C104.77255,9.52523012 105.302191,7.85288736 104.095023,7.52045412 C102.482026,7.07607907 99.011848,7.65274898 99.011848,7.65274898 L99.011848,7.65274898 Z M77.6660392,0.0687113428 C77.7030862,0.068804059 77.7428881,0.0689035743 77.7853343,0.0690095798 L78.0708568,0.069721022 C80.0689072,0.0746887549 85.5654347,0.0881356915 88.4835699,0.0931034244 L88.922015,0.0938148666 C88.9912227,0.0939208721 89.0584233,0.0940203875 89.1235061,0.0941131036 L89.6490795,0.0947556268 C89.7004586,0.0948047663 89.7493876,0.0948461796 89.7957558,0.0948795574 L90.1567858,0.0955322871 C92.2380409,0.115444496 97.4229261,0.697280615 97.4229261,5.47157984 C97.4229261,10.8481787 92.2159395,12.1134604 90.2487028,12.1134604 C89.866552,12.1134604 89.2940126,12.1199637 88.7086824,12.1284681 L88.3185162,12.1343847 C87.3481083,12.1496704 86.4517984,12.1677352 86.4517984,12.1677352 L86.4517984,12.1677352 L85.2480697,16.8353693 L80.178652,16.8353693 L81.3514278,12.2762848 L73.4171357,12.2762848 L74.6930882,8.53471473 L74.6930882,8.53471473 L74.7366539,8.53484194 C74.7510204,8.53488367 74.768862,8.53493532 74.790062,8.53499638 L75.0683946,8.53578645 C76.3177547,8.53928891 80.4585726,8.55037445 84.0182712,8.55390563 L85.0322578,8.55470484 C85.1424095,8.55476701 85.2516068,8.5548198 85.3597331,8.55486269 L86.5983828,8.55486998 C86.6960764,8.55482559 86.7922328,8.55476928 86.8867354,8.55470054 L87.4329731,8.55413479 C88.5694487,8.5525681 89.387036,8.54872831 89.6296423,8.54149909 C90.7680258,8.50757733 92.5289089,8.23620325 92.5633012,5.98379841 C92.6114503,2.92405568 87.8481237,3.08009578 87.4250991,5.81418961 C87.1801664,7.3813749 87.1502666,7.87396502 87.1469187,7.9477827 L87.1465218,7.95804482 L82.654894,7.94447612 L83.5284572,3.88404148 L76.2304218,3.88064931 L77.3206561,0.0678435193 L77.3206561,0.0678435193 Z M104.053752,11.3603973 C103.214581,11.2857694 101.254223,11.3332599 100.741778,12.0422247 C100.129596,12.8834843 100.446005,13.9248823 101.154485,14.3217669 C101.704761,14.6304549 102.705576,14.477807 103.44157,13.5619195 C104.153489,12.6765616 104.497412,11.4757313 104.053752,11.3603973 Z" id="形状结合" fill="#2386E3"></path>
                                </g>
                            </g>
                        </g>
                    </g>
                </g>
            </g>
        </g>
    </g>
</svg>