<svg width="180" height="44" viewBox="0 0 180 44" fill="none" xmlns="http://www.w3.org/2000/svg">
<path d="M26.4415 13.6417C27.3157 25.483 19.7041 31.0798 12.8805 31.6766C6.53653 32.2314 0.565043 28.3333 0.0411704 22.3442C-0.390969 17.3961 2.66717 15.2896 5.06991 15.0796C7.54117 14.8629 9.61788 16.5672 9.79803 18.6306C9.97154 20.6145 8.7337 21.5174 7.87274 21.5926C7.19192 21.6523 6.33538 21.2389 6.25802 20.3514C6.1917 19.5888 6.48127 19.485 6.41054 18.6748C6.28454 17.2325 5.0268 17.0645 4.33825 17.1242C3.50492 17.1972 1.99298 18.1697 2.20519 20.5924C2.41849 23.036 4.76155 24.9668 7.83295 24.6983C11.1475 24.4087 13.4552 21.828 13.6287 18.2084C13.6271 18.0167 13.6675 17.827 13.747 17.6525L13.7481 17.6481C13.7838 17.5723 13.8255 17.4995 13.873 17.4304C13.9437 17.3243 14.0343 17.2071 14.1515 17.0789C14.1526 17.0756 14.1526 17.0756 14.1548 17.0756C14.2399 16.9794 14.3427 16.8755 14.4587 16.7639C15.9066 15.3979 21.121 12.1762 26.0525 13.1963C26.2665 13.2422 26.4248 13.4234 26.4415 13.6417Z" fill="url(#paint0_linear_251_63225)"/>
<path fill-rule="evenodd" clip-rule="evenodd" d="M39.4263 15.6211C39.4263 16.3902 38.7736 17.0137 37.9685 17.0137C37.1634 17.0137 36.5107 16.3902 36.5107 15.6211C36.5107 14.852 37.1634 14.2285 37.9685 14.2285C38.7736 14.2285 39.4263 14.852 39.4263 15.6211ZM95.5205 30.2707H93.1288C93.1041 30.2707 93.0809 30.2593 93.0658 30.2398C92.5327 29.533 92.0808 28.8401 91.7391 28.3162L91.739 28.3161C91.5027 27.9537 91.3191 27.6723 91.198 27.5232L91.1438 27.4569L91.1152 27.4214C90.6135 26.7984 89.6144 25.5579 88.2526 25.3205C88.2275 25.3167 88.2022 25.3249 88.1841 25.3426L87.1617 26.397C87.1477 26.4106 87.1397 26.4293 87.1396 26.4489V30.1757C87.1378 30.2176 87.103 30.2504 87.0612 30.2497H84.8352C84.7938 30.2498 84.7597 30.2171 84.7579 30.1757V14.5457C84.7591 14.5039 84.7934 14.4705 84.8352 14.4706H87.0612C87.1054 14.4706 87.1396 14.5037 87.1396 14.5457V23.5466C87.1407 23.5764 87.1595 23.6019 87.1883 23.6129C87.217 23.624 87.249 23.6195 87.2723 23.5997L92.1684 18.6914C92.1833 18.6772 92.2031 18.6693 92.2236 18.6693H94.8496C94.8806 18.6704 94.9071 18.6881 94.9192 18.7157C94.9309 18.7427 94.9253 18.7741 94.9049 18.7953L89.9038 23.7798C89.8868 23.7969 89.8793 23.8213 89.8839 23.845C89.8883 23.8671 89.9038 23.8881 89.9259 23.8981C91.3656 24.5594 92.3653 25.7965 92.8312 26.3731L92.8326 26.3749L92.8845 26.4401C93.0802 26.6813 93.5002 27.2697 93.9933 27.9603L93.9934 27.9604L93.9935 27.9605L93.9941 27.9614L93.9942 27.9615C94.5037 28.6751 95.091 29.4977 95.589 30.1591C95.6027 30.1819 95.6027 30.2104 95.589 30.2332C95.5747 30.2561 95.5498 30.2703 95.5227 30.2707H95.5205ZM71.1961 16.5757V14.8007C71.1959 14.7795 71.1866 14.7594 71.1706 14.7455C71.1552 14.7311 71.1331 14.7245 71.111 14.7256H58.8928C58.8509 14.7255 58.8166 14.7589 58.8154 14.8007V16.5757C58.8166 16.6176 58.8509 16.6509 58.8928 16.6508H63.8762C63.9185 16.6502 63.9535 16.6837 63.9547 16.726V30.1776C63.9565 30.2195 63.9913 30.2523 64.0332 30.2516H66.3895C66.41 30.2522 66.4299 30.2447 66.4448 30.2306C66.4598 30.2165 66.4685 30.197 66.469 30.1765V16.726C66.4703 16.6837 66.5052 16.6502 66.5475 16.6508H71.1187C71.1606 16.6509 71.1949 16.6176 71.1961 16.5757ZM59.5457 22.973L59.5214 22.9686H59.5203L59.5291 22.9641C59.5291 20.8222 58.5167 18.6317 55.2961 18.6317C53.8825 18.6317 52.1264 19.2451 51.2367 20.3127C51.2195 20.3332 51.1934 20.3438 51.1668 20.3411C51.1403 20.3385 51.1168 20.3229 51.104 20.2995C50.9725 20.063 50.8145 19.8408 50.6332 19.6352L50.6951 19.7148C50.1038 19.0539 49.1942 18.6306 47.7884 18.6306C46.4334 18.6306 45.0364 19.0694 44.0605 19.99C44.0384 20.0099 44.0052 20.0165 43.9754 20.0055C43.9466 19.9944 43.9267 19.9679 43.9267 19.937L43.7875 19.4838C43.6825 19.1412 43.3542 18.9069 42.9807 18.9069H42.0578C42.0159 18.9069 41.9817 18.9402 41.9805 18.9821V30.1801C41.9817 30.222 42.0159 30.2553 42.0578 30.2553H44.2495C44.2914 30.2553 44.3256 30.222 44.3268 30.1801V22.5895C44.3268 22.1352 44.5821 21.7363 44.9325 21.4268C45.1779 21.2234 45.4497 21.0521 45.7415 20.9162C46.167 20.7128 46.7218 20.5625 47.1474 20.5625C48.1896 20.5625 48.7234 20.7902 49.0992 21.2754C49.6657 22.0132 49.6603 23.1648 49.655 24.3134V24.3134V24.3135V24.3136V24.3137C49.6545 24.4243 49.654 24.535 49.654 24.6452V30.3348C49.6552 30.3771 49.6901 30.4106 49.7325 30.41H51.8799C51.9222 30.4106 51.9572 30.3771 51.9584 30.3348V23.5974C51.9584 23.5681 51.9573 23.5378 51.9562 23.5068L51.9562 23.5068C51.9551 23.4748 51.9539 23.4422 51.9539 23.4096V23.3974C51.9528 23.01 51.9266 22.6231 51.8755 22.2391C52.1971 21.6567 52.7696 21.2389 53.2857 20.9383C53.7291 20.6987 54.2221 20.5655 54.7258 20.5493C56.4665 20.526 56.9562 21.397 57.1219 22.5972C57.1661 22.931 57.1882 23.2659 57.1882 23.6008C57.1927 23.7168 57.1927 23.8317 57.1927 23.9511C57.1927 24.0662 57.1916 24.1824 57.1905 24.2989V24.299C57.1894 24.4164 57.1882 24.5342 57.1882 24.6518V30.1768C57.1888 30.1973 57.1975 30.2168 57.2125 30.2309C57.2274 30.245 57.2473 30.2525 57.2678 30.2519H59.4683C59.5102 30.252 59.5445 30.2187 59.5457 30.1768V22.973ZM36.8337 18.8328C36.7945 18.8328 36.7627 18.8646 36.7627 18.9038V30.1776C36.7627 30.2168 36.7945 30.2486 36.8337 30.2486H39.1033C39.1425 30.2486 39.1743 30.2168 39.1743 30.1776V18.9038C39.1743 18.8646 39.1425 18.8328 39.1033 18.8328H36.8337ZM102.425 28.5971C101.167 28.7662 99.9174 28.2435 99.1935 27.2466C98.8067 26.7492 98.6022 26.1723 98.4641 25.4152C98.4611 25.3956 98.4663 25.3757 98.4784 25.36C98.4909 25.3439 98.5091 25.3332 98.5293 25.3301L104.882 24.4736C106.624 24.2282 107.352 22.724 106.695 21.2729C106.095 20.0621 105.058 19.1235 103.795 18.6458C102.07 17.9782 99.7505 18.3684 98.5138 19.3531C96.8637 20.6683 96.3 22.2499 96.2127 23.9309C96.2017 24.1188 96.1973 24.3067 96.1973 24.4946C96.1973 24.8836 96.2304 25.2716 96.2989 25.6551C96.7344 28.175 98.5856 30.4893 101.687 30.5003C105.197 30.5114 106.855 28.4734 107.139 26.946C107.142 26.9226 107.134 26.8992 107.117 26.883C107.099 26.8659 107.075 26.8578 107.05 26.8609L104.862 27.1847C104.839 27.189 104.819 27.2026 104.807 27.2223C104.206 28.0567 103.506 28.438 102.425 28.5971ZM70.8848 24.3332C70.8848 20.5567 73.1626 18.3429 76.6407 18.3429C80.099 18.3429 82.3945 20.5633 82.3945 24.3343C82.3945 28.123 80.1078 30.3246 76.6407 30.3246C73.1726 30.3246 70.8848 28.1241 70.8848 24.3332ZM73.1641 24.2204C73.1641 26.9083 74.2914 28.4478 76.6411 28.4478C78.983 28.4478 80.1104 27.0044 80.1104 24.3309C80.1104 21.6585 78.9908 20.2173 76.6411 20.2173C74.2914 20.2173 73.1641 21.548 73.1641 24.2204ZM101.627 20.1776C100.658 20.239 99.7579 20.7011 99.143 21.453C98.6556 22.0631 98.3881 22.6931 98.2886 23.5485C98.2861 23.5711 98.2943 23.5936 98.3107 23.6093C98.3287 23.6256 98.3531 23.6329 98.377 23.6292L104.164 22.8533C104.74 22.7749 105.009 22.1383 104.755 21.7006C104.586 21.4044 104.373 21.1325 104.121 20.896C103.418 20.2318 102.617 20.098 101.627 20.1776ZM119.414 23.1793V30.1742C119.413 30.2161 119.379 30.2494 119.337 30.2494H117.155C117.135 30.25 117.115 30.2424 117.1 30.2283C117.085 30.2142 117.076 30.1948 117.076 30.1742V24.3597C117.076 24.3597 117.103 23.3783 117.021 22.4631C116.961 21.8199 116.738 21.1966 116.225 20.7909C115.495 20.2118 114.463 20.34 114.463 20.34C113.182 20.4726 112.078 21.2408 111.388 22.0155L111.349 22.0608L111.388 22.0443V30.172C111.387 30.2143 111.352 30.2478 111.31 30.2472H109.122C109.101 30.2478 109.081 30.2402 109.066 30.2261C109.051 30.212 109.043 30.1925 109.042 30.172V18.7584C109.043 18.7161 109.078 18.6827 109.12 18.6833H110.916C110.961 18.6833 110.996 18.7164 110.996 18.7584V19.8769C110.996 19.9068 111.016 19.9322 111.046 19.9432C111.074 19.9543 111.107 19.9488 111.129 19.9278C112.056 18.9651 113.456 18.386 114.924 18.386C116.14 18.3882 119.413 18.4368 119.413 23.1793H119.414Z" fill="white"/>
<defs>
<linearGradient id="paint0_linear_251_63225" x1="-0.0457552" y1="-4.45127" x2="-14.3349" y2="36.0721" gradientUnits="userSpaceOnUse">
<stop stop-color="#11C4D1"/>
<stop offset="1" stop-color="#0062AD"/>
</linearGradient>
</defs>
</svg>
