<?xml version="1.0" encoding="UTF-8"?>
<svg width="172px" height="43px" viewBox="0 0 172 43" version="1.1" xmlns="http://www.w3.org/2000/svg" xmlns:xlink="http://www.w3.org/1999/xlink">
    <title>Imtoken</title>
    <defs>
        <linearGradient x1="97.204%" y1="2.796%" x2="0%" y2="100%" id="imtoken_dask-1">
            <stop stop-color="#11C4D1" offset="0%"></stop>
            <stop stop-color="#0062AD" offset="100%"></stop>
        </linearGradient>
    </defs>
    <g id="HECO" stroke="none" stroke-width="1" fill="none" fill-rule="evenodd">
        <g id="合作伙伴" transform="translate(-2794.000000, -1497.000000)">
            <g id="编组-2备份-4" transform="translate(1920.000000, 903.000000)">
                <g id="编组-8" transform="translate(360.000000, 100.000000)">
                    <g id="编组-7" transform="translate(0.000000, 411.000000)">
                        <g id="Imtoken" transform="translate(514.000000, 83.000000)">
                            <rect id="矩形" x="0" y="0" width="172" height="43"></rect>
                            <g id="imToken" transform="translate(0.000000, 12.285714)" fill-rule="nonzero">
                                <path d="M26.4414874,0.641672792 C27.315714,12.4829671 19.704085,18.0797856 12.8804756,18.6766028 C6.53653035,19.2314217 0.565043238,15.3333216 0.0411704091,9.34415096 C-0.390969414,4.39609473 2.66716585,2.28955125 5.06990748,2.07956003 C7.54117255,1.86293751 9.61787518,3.56718203 9.79802554,5.63062205 C9.9715446,7.61448645 8.73370163,8.51744869 7.87273763,8.59260345 C7.191924,8.65228516 6.33538087,8.23893402 6.25801569,7.35144482 C6.19170267,6.58884514 6.48126951,6.48495474 6.41053562,5.67483073 C6.28454089,4.23252262 5.02680402,4.06452965 4.33825386,4.12421136 C3.50492029,4.19715568 1.99298352,5.16974659 2.20518517,7.59238212 C2.41849204,10.0360168 4.76155195,11.9668308 7.83294982,11.698263 C11.1474954,11.4086962 13.4551884,8.82801465 13.6287074,5.20842918 C13.627137,5.01671676 13.6674987,4.82697889 13.7469657,4.65250506 L13.7480709,4.64808419 C13.7837829,4.57227046 13.8255479,4.49945876 13.8729604,4.43035646 C13.9436943,4.32425563 14.0343221,4.20710263 14.1514751,4.07889747 C14.1525803,4.07558182 14.1525803,4.07558182 14.1547907,4.07558182 C14.2398924,3.97942795 14.3426776,3.87553755 14.4587254,3.76391064 C15.9065596,2.39786251 21.1209731,-0.823844868 26.052451,0.196270366 C26.266484,0.242155209 26.4248038,0.423413337 26.4414874,0.641672792" id="路径" fill="url(#imtoken_dask-1)"></path>
                                <path d="M98.5546822,6.23628093 C99.7914199,5.25153264 102.11127,4.86139106 103.835409,5.52894209 C105.099377,6.0066608 106.135553,6.94530024 106.735498,8.15604275 C107.393102,9.60719259 106.664764,11.1113928 104.922942,11.356751 L104.922942,11.356751 L98.5701552,12.2132941 C98.5500132,12.2163656 98.5318167,12.2270462 98.5193152,12.243135 C98.5072161,12.2588377 98.5020289,12.2787885 98.5049474,12.2983958 C98.6430995,13.0554694 98.8475647,13.6323927 99.2343906,14.1297403 C99.9583077,15.126646 101.208308,15.6494136 102.466045,15.4803154 C103.546947,15.3211642 104.246549,14.9398643 104.847787,14.1054255 C104.860218,14.085796 104.880224,14.072192 104.903048,14.0678482 L104.903048,14.0678482 L107.091378,13.7440196 C107.115692,13.7409328 107.140091,13.7490659 107.157691,13.7661239 C107.1748,13.7823211 107.183033,13.8057847 107.179795,13.8291213 C106.895754,15.3565311 105.237929,17.3945511 101.72776,17.3835437 C98.6265213,17.3724468 96.7752829,15.0581225 96.3398274,12.5382279 C96.271304,12.1547176 96.2381475,11.7667865 96.2381475,11.3777501 C96.2381475,11.1898632 96.2425684,11.0019764 96.2536205,10.8140895 C96.3409327,9.13305453 96.9045933,7.55148909 98.5546822,6.23628093 Z M47.8285404,5.51346906 C49.2343763,5.51346906 50.1439699,5.93676714 50.7352609,6.59768687 L50.6733688,6.51811125 C50.8546244,6.7236816 51.0126704,6.94583021 51.1441912,7.18234663 C51.1569558,7.20576094 51.1804658,7.22135517 51.2070011,7.22400871 C51.2335365,7.22666224 51.2596688,7.21603224 51.2768172,7.19560924 C52.1665169,6.12796967 53.9227066,5.51457427 55.336279,5.51457427 C58.5568812,5.51457427 59.5692599,7.70511424 59.5692599,9.84702467 L59.5604182,9.85144554 L59.5615234,9.85144554 L59.5858382,9.85586641 L59.5858382,17.0596704 C59.5846416,17.1015324 59.550352,17.1348423 59.508473,17.1348252 L57.3079861,17.1348252 C57.2874652,17.1354199 57.2675494,17.127834 57.2526242,17.1137379 C57.237699,17.0996419 57.2289884,17.0801917 57.2284104,17.0596704 L57.2284104,11.5346909 C57.2284104,11.3003849 57.2328313,11.0649737 57.2328313,10.8339834 C57.2328313,10.71462 57.2328313,10.5996774 57.2284104,10.4836296 C57.2284104,10.1487489 57.2063061,9.81386816 57.1620974,9.48009265 C56.9963149,8.27982705 56.5067038,7.4089161 54.7659871,7.43212566 C54.2622805,7.44837098 53.769257,7.58155922 53.3258894,7.82116202 C52.8097531,8.12178103 52.2372507,8.53955303 51.9156326,9.12200236 C51.9668005,9.50598921 51.9930123,9.89289023 51.994103,10.2802697 L51.994103,10.2924271 C51.994103,10.3565297 51.9985239,10.4206323 51.9985239,10.480314 L51.9985239,17.2177164 C51.9973195,17.2600113 51.9623609,17.2934928 51.9200535,17.2928797 L49.772617,17.2928797 C49.7303095,17.2934928 49.6953509,17.2600113 49.6941466,17.2177164 L49.6941466,11.5280596 C49.6941466,10.2736384 49.7604596,8.96727199 49.1393277,8.15825319 C48.7635539,7.67306295 48.2297341,7.44538826 47.1875146,7.44538826 C46.762006,7.44538826 46.2071871,7.59569777 45.7816786,7.79905768 C45.4899013,7.93499937 45.218018,8.10630799 44.9726598,8.30966791 C44.622306,8.61912865 44.3670009,9.01811197 44.3670009,9.47235613 L44.3670009,17.0629861 C44.3658044,17.104848 44.3315148,17.1381579 44.2896357,17.1381408 L42.0979906,17.1381408 C42.0561115,17.1381579 42.0218219,17.104848 42.0206254,17.0629861 L42.0206254,5.86492804 C42.0218219,5.82306607 42.0561115,5.78975619 42.0979906,5.78977329 L43.0208467,5.78977329 C43.39441,5.78977329 43.7226595,6.02407928 43.8276551,6.36669653 L43.9669124,6.81983548 C43.9669124,6.85078155 43.9868063,6.87730676 44.0155419,6.88835893 C44.0453828,6.8994111 44.0785393,6.89277979 44.1006436,6.87288589 C45.0765502,5.95224018 46.4735444,5.51346906 47.8285404,5.51346906 Z M76.6813338,5.22611265 C80.1395576,5.22611265 82.4350931,7.44649348 82.4350931,11.2174937 C82.4350931,15.0061773 80.1483993,17.2077695 76.6813338,17.2077695 C73.213163,17.2077695 70.925364,15.0072826 70.925364,11.2163885 C70.925364,7.43986218 73.2032161,5.22611265 76.6813338,5.22611265 Z M87.1013191,1.35343249 C87.1455277,1.35343249 87.1797895,1.38658901 87.1797895,1.42858725 L87.1797895,10.429474 C87.1808947,10.4593149 87.1996834,10.4847348 87.228419,10.495787 C87.2571546,10.5068392 87.2892059,10.5024183 87.3124155,10.4825244 L92.2085265,5.57425599 C92.2234567,5.56011458 92.2432232,5.55220796 92.2637874,5.55215165 L94.8897828,5.55215165 C94.9207289,5.55325687 94.9472541,5.57094034 94.9594115,5.59857076 C94.971108,5.62556628 94.9654423,5.65694581 94.9450437,5.67814638 L89.943937,10.6626748 C89.9269314,10.6797841 89.9194842,10.7041943 89.9240431,10.7278826 C89.928464,10.7499869 89.943937,10.770986 89.9660414,10.780933 C91.4072442,11.4429579 92.4074656,12.6819061 92.8727619,13.2577241 L92.9247071,13.3229319 C93.3225852,13.8136483 94.6488455,15.7400414 95.629173,17.0419869 C95.6428742,17.0647688 95.6428742,17.0932546 95.629173,17.1160365 C95.6148953,17.1390222 95.5899155,17.1531774 95.5628599,17.1536138 L93.16896,17.1536138 C93.1443003,17.1536138 93.1210325,17.1421871 93.1059627,17.1226678 C92.2041057,15.926823 91.5343442,14.7707661 91.2381461,14.4060445 L91.1839904,14.3397315 C90.6921689,13.7296518 89.6808954,12.4453897 88.2927429,12.2033472 C88.2676983,12.1995498 88.2423241,12.207735 88.2242195,12.2254515 L87.2018938,13.2798285 C87.1878526,13.2934751 87.1798872,13.3121937 87.1797895,13.3317737 L87.1797895,17.0585652 C87.1779987,17.1004244 87.1432117,17.1332515 87.1013191,17.1326147 L84.8754121,17.1326147 C84.8339466,17.1326528 84.799824,17.0999927 84.798047,17.0585652 L84.798047,1.42858725 C84.7992435,1.38672528 84.8335331,1.35343249 84.8754121,1.35343249 L87.1013191,1.35343249 Z M71.1508282,1.6086192 C71.1729325,1.6076324 71.1950369,1.6142637 71.2105099,1.62863152 C71.2265069,1.64256082 71.2357624,1.66268149 71.2359299,1.68389236 L71.2359299,3.45887077 C71.2347334,3.50073274 71.2004438,3.53404262 71.1585647,3.53402552 L66.5873875,3.53402552 C66.54508,3.53340392 66.5101214,3.56688542 66.5089171,3.60918027 L66.5089171,17.0596704 C66.5083391,17.0801917 66.4996285,17.0996419 66.4847033,17.1137379 C66.4697781,17.127834 66.4498623,17.1354199 66.4293414,17.1348577 L64.0730189,17.1348577 C64.0311263,17.135462 63.9963393,17.1026348 63.9945485,17.0607756 L63.9945485,3.60918027 C63.9933442,3.56688542 63.9583856,3.53340392 63.9160781,3.53402552 L58.932655,3.53402552 C58.8907759,3.53404262 58.8564863,3.50073274 58.8552898,3.45887077 L58.8552898,1.68389236 C58.8564863,1.6420304 58.8907759,1.6086192 58.932655,1.6086192 L71.1508282,1.6086192 Z M114.964943,5.26921611 C116.180682,5.27142655 119.454334,5.32005609 119.454334,10.062542 L119.45544,10.062542 L119.45544,17.05746 C119.454243,17.0993219 119.419954,17.1326472 119.378075,17.1326472 L117.196376,17.1326472 C117.175855,17.1332094 117.15594,17.1256235 117.141014,17.1115275 C117.126089,17.0974315 117.117379,17.0779813 117.116801,17.05746 L117.116801,11.2429137 C117.116801,11.2429137 117.144431,10.261481 117.06154,9.3463614 C117.001858,8.70312514 116.778604,8.07978279 116.265784,7.67416817 C115.53634,7.09503449 114.504068,7.22323966 114.504068,7.22323966 C113.223121,7.35586569 112.11901,8.12399146 111.429354,8.89874854 L111.389566,8.94406243 L111.429354,8.92748418 L111.429354,17.0552495 C111.42815,17.0975444 111.393191,17.1310259 111.350884,17.1304043 L109.162554,17.1304043 C109.142034,17.130999 109.122118,17.1234131 109.107193,17.1093171 C109.092267,17.0952211 109.083557,17.0757709 109.082979,17.0552495 L109.082979,5.64167422 C109.084183,5.59937937 109.119142,5.56589787 109.161449,5.56651947 L110.957427,5.56651947 C111.001635,5.56651947 111.037002,5.59967598 111.037002,5.64167422 L111.037002,6.76015376 C111.037002,6.78999462 111.056896,6.81541461 111.086737,6.82646678 C111.115473,6.83751895 111.147524,6.83199286 111.169628,6.81099374 C112.096905,5.84834979 113.497215,5.26921611 114.964943,5.26921611 Z M39.1434796,5.71572376 C39.1826918,5.71572376 39.2144796,5.74751154 39.2144796,5.78672376 L39.2144796,17.0605095 C39.2144796,17.0997217 39.1826918,17.1315095 39.1434796,17.1315095 L36.8738962,17.1315095 C36.834684,17.1315095 36.8028962,17.0997217 36.8028962,17.0605095 L36.8028962,5.78672376 C36.8028962,5.74751154 36.834684,5.71572376 36.8738962,5.71572376 L39.1434796,5.71572376 Z M76.6813338,7.10056058 C74.3316426,7.10056058 73.2043213,8.43124177 73.2043213,11.1036563 C73.2043213,13.7915439 74.3316426,15.3311111 76.6813338,15.3311111 C79.0232885,15.3311111 80.1506097,13.8876978 80.1506097,11.214178 C80.1506097,8.54176347 79.031025,7.10056058 76.6813338,7.10056058 Z M104.161448,7.77916378 C103.45853,7.1149284 102.657247,6.98119715 101.668078,7.06077277 C100.698637,7.12213847 99.7984774,7.58423121 99.1835506,8.33619312 C98.69615,8.94627287 98.4286875,9.57624652 98.3292179,10.4316844 C98.3267088,10.4542845 98.3348824,10.4767619 98.3513223,10.4924714 C98.3693135,10.5087316 98.3936645,10.5160369 98.4176353,10.5123653 L98.4176353,10.5123653 L104.204551,9.73650298 C104.780369,9.65803257 105.050042,9.02142762 104.795842,8.58376171 C104.626744,8.28756357 104.413437,8.0156802 104.161448,7.77916378 Z M38.0086879,1.11138999 C38.8137982,1.11138999 39.466469,1.73486631 39.466469,2.50396333 C39.466469,3.27306035 38.8137982,3.89653668 38.0086879,3.89653668 C37.2035776,3.89653668 36.5509067,3.27306035 36.5509067,2.50396333 C36.5509067,1.73486631 37.2035776,1.11138999 38.0086879,1.11138999 Z" id="形状结合" fill="#FFFFFF"></path>
                            </g>
                        </g>
                    </g>
                </g>
            </g>
        </g>
    </g>
</svg>