<?xml version="1.0" encoding="UTF-8"?>
<svg width="37px" height="36px" viewBox="0 0 37 36" version="1.1" xmlns="http://www.w3.org/2000/svg" xmlns:xlink="http://www.w3.org/1999/xlink">
    <title>Info-Dark</title>
    <g id="组件/弹窗/导航" stroke="none" stroke-width="1" fill="none" fill-rule="evenodd">
        <g id="H5更多-Dark" transform="translate(-213.000000, -256.000000)" fill-rule="nonzero">
            <g id="编组-5" transform="translate(16.000000, 240.000000)">
                <g id="编组-11备份-2" transform="translate(0.000000, 16.000000)">
                    <g id="Info" transform="translate(171.500000, 0.000000)">
                        <g id="Info-Dark" transform="translate(26.000000, 0.000000)">
                            <path d="M0,18 C0,27.9411255 8.0588745,36 18,36 C27.9411255,36 36,27.9411255 36,18 C36,8.0588745 27.9411255,0 18,0 C8.0588745,0 0,8.0588745 0,18 Z" id="路径" fill-opacity="0.1" fill="#72B8FF"></path>
                            <path d="M12.0919932,28.7080068 L8.14241908,28.7080068 C7.5516184,28.7080068 7.07325383,28.2296422 7.07325383,27.6388416 L7.07325383,21.7001704 C7.07325383,21.1093697 7.5516184,20.6310051 8.14241908,20.6310051 L12.0899489,20.6310051 C12.6807496,20.6310051 13.1591141,21.1093697 13.1591141,21.7001704 L13.1591141,27.6388416 C13.1591141,28.2296422 12.6807496,28.7080068 12.0919932,28.7080068 Z" id="路径" fill="#4CA4ED"></path>
                            <path d="M19.876661,28.7080068 L15.9291312,28.7080068 C15.3383305,28.7080068 14.8599659,28.2296422 14.8599659,27.6388416 L14.8599659,17.5359455 C14.8599659,16.9451448 15.3383305,16.4667802 15.9291312,16.4667802 L19.876661,16.4667802 C20.4674617,16.4667802 20.9458262,16.9451448 20.9458262,17.5359455 L20.9458262,27.6388416 C20.9458262,28.2296422 20.4674617,28.7080068 19.876661,28.7080068 Z M27.6633731,28.7080068 L23.7158433,28.7080068 C23.1250426,28.7080068 22.646678,28.2296422 22.646678,27.6388416 L22.646678,11.6586031 C22.646678,11.0678024 23.1250426,10.5894378 23.7158433,10.5894378 L27.6633731,10.5894378 C28.2541738,10.5894378 28.7325383,11.0678024 28.7325383,11.6586031 L28.7325383,27.6388416 C28.7325383,28.2296422 28.2541738,28.7080068 27.6633731,28.7080068 Z" id="形状" fill="#2E99E8"></path>
                            <path d="M14.0013629,5.99591141 L20.6759796,5.99591141 C20.8456559,5.99591141 20.9846678,6.13492334 20.9846678,6.30459966 L20.9846678,13.2143101 C20.9846678,13.4923339 20.6473595,13.6272572 20.4551959,13.4289608 L18.6582624,11.5686542 C18.5570576,11.4626743 18.3947326,11.4437793 18.271891,11.5236797 L8.99693356,17.4296422 C8.70868825,17.6136286 8.37955707,17.2599659 8.58398637,16.9860307 L15.1563884,8.15264055 C15.2504259,8.02589438 15.2340716,7.84804089 15.1175468,7.74173765 L13.792845,6.53356048 C13.5863714,6.34344123 13.7192504,5.99591141 14.0013629,5.99591141 Z" id="路径" fill="#68B4F8"></path>
                            <path d="M19.876661,16.4667802 L15.9291312,16.4667802 C15.3383305,16.4667802 14.8599659,16.9451448 14.8599659,17.5359455 L14.8599659,27.6388416 C14.8599659,28.2296422 15.3383305,28.7080068 15.9291312,28.7080068 L17.3703578,28.7080068 C18.6223842,28.2966267 19.8222789,27.7409293 20.9458262,27.0521295 L20.9458262,17.5359455 C20.9458262,16.9451448 20.4674617,16.4667802 19.876661,16.4667802 L19.876661,16.4667802 Z M28.7325383,15.851448 L28.7325383,11.6586031 C28.7325383,11.0678024 28.2541738,10.5894378 27.6633731,10.5894378 L23.7158433,10.5894378 C23.1250426,10.5894378 22.646678,11.0678024 22.646678,11.6586031 L22.646678,25.8521295 C25.7335605,23.3887564 27.9434412,19.876661 28.7325383,15.851448 Z" id="形状" fill="#4CA4ED"></path>
                            <path d="M23.9120954,10.5894378 L23.713799,10.5894378 C23.1229983,10.5894378 22.6446337,11.0678024 22.6446337,11.6586031 L22.6446337,14.0586031 C23.1937263,12.9524784 23.6187976,11.7890172 23.9120954,10.5894378 Z M20.7945486,16.9942078 C20.6085179,16.6793867 20.2691652,16.4667802 19.876661,16.4667802 L15.9291312,16.4667802 C15.3383305,16.4667802 14.8599659,16.9451448 14.8599659,17.5359455 L14.8599659,21.8064736 C17.1863714,20.6698467 19.2122658,19.0139693 20.7945486,16.9942078 Z M12.0919932,20.6310051 L8.14241908,20.6310051 C7.5516184,20.6310051 7.07325383,21.1093697 7.07325383,21.7001704 L7.07325383,23.5155026 C7.18568995,23.5175468 7.29812606,23.5236797 7.41056218,23.5236797 C9.42827939,23.5236797 11.3642249,23.170017 13.1591141,22.5240204 L13.1591141,21.7001704 C13.1591141,21.1093697 12.6807496,20.6310051 12.0919932,20.6310051 Z" id="形状" fill="#68B4F8"></path>
                            <path d="M8.95400341,16.4872232 C13.7703578,14.7332198 17.5645656,10.8592845 19.2224872,5.99591141 L14.0013629,5.99591141 C13.7192504,5.99591141 13.5863714,6.34139693 13.792845,6.53151618 L15.1175468,7.73969336 C15.2340716,7.84599659 15.2524702,8.02385009 15.1563884,8.15059625 L8.95400341,16.4872232 Z" id="路径" fill="#7ECAFC"></path>
                        </g>
                    </g>
                </g>
            </g>
        </g>
    </g>
</svg>