<?xml version="1.0" encoding="UTF-8"?>
<svg width="24px" height="24px" viewBox="0 0 24 24" version="1.1" xmlns="http://www.w3.org/2000/svg" xmlns:xlink="http://www.w3.org/1999/xlink">
    <title>info</title>
    <g id="组件/弹窗/导航" stroke="none" stroke-width="1" fill="none" fill-rule="evenodd">
        <g id="弹窗" transform="translate(-311.000000, -386.000000)">
            <g id="编组-10" transform="translate(281.000000, 306.000000)">
                <g id="编组-8备份-2" transform="translate(0.000000, 68.000000)">
                    <g id="info" transform="translate(30.000000, 12.000000)">
                        <rect id="矩形" x="0" y="0" width="24" height="24"></rect>
                        <g id="编组">
                            <path d="M12,5.11785736e-16 C5.37307317,5.11785736e-16 0,5.37190244 0,12 C0,18.6269268 5.37307317,24 12,24 C18.6280976,24 24,18.6269268 24,12 C24,5.37190244 18.6280976,5.11785736e-16 12,5.11785736e-16 Z M12,22.2 C6.36702439,22.2 1.80000001,17.633561 1.80000001,12 C1.80000001,6.36702439 6.36702439,1.80000001 12,1.80000001 C17.6329756,1.80000001 22.2,6.36702439 22.2,12 C22.2,17.633561 17.6329756,22.2 12,22.2 Z M19.2409756,7.75726829 C19.0553337,7.57092404 18.7972416,7.47547705 18.5350244,7.49619514 C18.5155365,7.49497265 18.4960139,7.49438697 18.4764878,7.49443904 L14.2770732,7.49268294 C13.7976827,7.51713892 13.4215379,7.9129617 13.4215379,8.39297561 C13.4215379,8.87298952 13.7976827,9.26881231 14.2770732,9.29326829 L16.4318049,9.29326829 L13.0776585,12.6462439 L10.734439,10.3018537 C10.5620337,10.1292432 10.3268523,10.0341564 10.0829268,10.038439 C9.84526829,10.0325854 9.60643903,10.1203902 9.42556097,10.3018537 L4.75902439,14.9683903 C4.42092958,15.3220319 4.42714541,15.88095 4.77302144,16.2269851 C5.11889748,16.5730203 5.67781261,16.5794931 6.03160975,16.241561 L10.0794146,12.1931707 L12.4314146,14.5451707 C12.6070244,14.7207805 12.8382439,14.8085854 13.0694634,14.8085854 C13.3065366,14.8132683 13.5453658,14.7260488 13.7262439,14.5451707 L17.7038049,10.566439 L17.7038049,12.6140488 C17.7047711,13.1105426 18.1070184,13.5127898 18.6035122,13.5137561 C19.1010732,13.5137561 19.5061464,13.1116098 19.5050691,12.6146341 L19.5050691,8.41463416 L19.5050691,8.40409757 C19.5084794,8.16152317 19.4134266,7.92790448 19.241561,7.75668292 L19.2409756,7.75726829 Z" id="形状" fill="#CDA76E" fill-rule="nonzero"></path>
                            <circle id="椭圆形" stroke="#90979E" stroke-width="2" cx="12" cy="12" r="11"></circle>
                            <polyline id="路径-2" stroke="#90979E" stroke-width="2" stroke-linecap="round" stroke-linejoin="round" points="5.36383119 15.6427112 10.0956484 10.9779459 13.1388539 13.943752 18.5823735 8.47374274"></polyline>
                            <polyline id="路径-3" stroke="#90979E" stroke-width="2" stroke-linecap="round" stroke-linejoin="round" points="14.1353597 8.40300672 18.6134746 8.40300672 18.6134746 12.7737475"></polyline>
                        </g>
                    </g>
                </g>
            </g>
        </g>
    </g>
</svg>