<svg width="357" height="125" viewBox="0 0 357 125" fill="none" xmlns="http://www.w3.org/2000/svg">
<rect y="15" width="343" height="110" rx="20" fill="url(#paint0_linear_690_53568)"/>
<mask id="mask0_690_53568" style="mask-type:luminance" maskUnits="userSpaceOnUse" x="0" y="15" width="343" height="110">
<rect y="15" width="343" height="110" rx="20" fill="white"/>
</mask>
<g mask="url(#mask0_690_53568)">
<path opacity="0.41" d="M211.562 100.654C212.001 100.469 212.506 100.675 212.691 101.114C212.865 101.527 212.693 101.999 212.306 102.207L212.231 102.243L197.525 108.43L204.842 108.431C205.739 108.431 206.025 109.614 205.275 110.038L205.202 110.076L183.521 120.048C183.089 120.247 182.577 120.057 182.378 119.625C182.19 119.217 182.347 118.74 182.727 118.519L182.801 118.481L200.903 110.155L193.254 110.155C192.342 110.155 192.069 108.94 192.844 108.534L192.92 108.498L211.562 100.654Z" fill="url(#paint1_linear_690_53568)"/>
<path opacity="0.41" d="M209.446 99.1697C209.753 99.0861 210.069 99.2666 210.152 99.5728C210.23 99.8571 210.08 100.15 209.813 100.257L209.749 100.279L172.921 110.335L182.7 110.336C183.293 110.336 183.486 111.111 183.002 111.4L182.943 111.431L165.013 119.785C164.725 119.919 164.383 119.795 164.249 119.507C164.125 119.24 164.223 118.926 164.468 118.775L164.527 118.743L180.106 111.484L168.634 111.485C167.988 111.485 167.846 110.599 168.417 110.378L168.483 110.356L209.446 99.1697Z" fill="url(#paint2_linear_690_53568)"/>
<path opacity="0.41" d="M301.89 101.731C302.042 101.31 302.488 101.079 302.914 101.187L302.993 101.212L323.729 108.671C324.611 108.988 324.416 110.266 323.52 110.341L323.437 110.344L312.213 110.344L327.813 118.5C328.21 118.708 328.378 119.182 328.213 119.588L328.178 119.664C327.97 120.061 327.497 120.229 327.09 120.063L327.014 120.028L308.305 110.246C307.53 109.841 307.786 108.692 308.624 108.623L308.704 108.62L318.493 108.62L302.409 102.834C301.988 102.682 301.757 102.236 301.866 101.811L301.89 101.731Z" fill="url(#paint3_linear_690_53568)"/>
<path opacity="0.41" d="M302.719 99.5824C302.792 99.2967 303.067 99.1161 303.352 99.1544L303.418 99.1672L344.686 109.672C345.321 109.834 345.226 110.742 344.609 110.801L344.538 110.803L333.482 110.684L350.079 118.747C350.344 118.876 350.465 119.182 350.37 119.454L350.345 119.516C350.216 119.781 349.91 119.902 349.638 119.807L349.576 119.781L330.677 110.6C330.146 110.342 330.307 109.562 330.868 109.511L330.934 109.508L339.754 109.602L303.134 100.281C302.849 100.208 302.668 99.9335 302.706 99.6483L302.719 99.5824Z" fill="url(#paint4_linear_690_53568)"/>
</g>
<g opacity="0.667528">
<path d="M17.7361 51H23.0561V39.8L28.0401 47.416H28.1521L33.1641 39.744V51H38.5681V31.4H32.8281L28.1521 38.988L23.4761 31.4H17.7361V51Z" fill="url(#paint5_linear_690_53568)"/>
<path d="M42.0447 51H49.4927C56.5487 51 60.6647 46.8 60.6647 41.144V41.088C60.6647 35.432 56.6047 31.4 49.6047 31.4H42.0447V51ZM47.4767 46.184V36.216H49.6887C52.9367 36.216 55.0927 38.036 55.0927 41.172V41.228C55.0927 44.392 52.9367 46.184 49.6887 46.184H47.4767Z" fill="url(#paint6_linear_690_53568)"/>
<path d="M63.4548 51H79.3588V46.38H68.8308V43.272H78.2388V38.988H68.8308V36.02H79.2188V31.4H63.4548V51Z" fill="url(#paint7_linear_690_53568)"/>
<path d="M80.7026 51H86.8066L90.5866 45.092L94.3386 51H100.583L93.8626 40.976L100.303 31.4H94.1986L90.6986 36.916L87.2266 31.4H80.9826L87.4226 41.032L80.7026 51Z" fill="url(#paint8_linear_690_53568)"/>
<path d="M102.106 51H107.65V45.54H102.106V51Z" fill="url(#paint9_linear_690_53568)"/>
<path d="M119.184 51.392C123.524 51.392 126.016 49.516 127.864 46.968L123.776 44.056C122.6 45.484 121.396 46.436 119.352 46.436C116.608 46.436 114.676 44.14 114.676 41.2V41.144C114.676 38.288 116.608 35.964 119.352 35.964C121.228 35.964 122.516 36.86 123.636 38.26L127.724 35.096C125.988 32.688 123.412 31.008 119.408 31.008C113.472 31.008 109.076 35.488 109.076 41.2V41.256C109.076 47.108 113.584 51.392 119.184 51.392Z" fill="url(#paint10_linear_690_53568)"/>
<path d="M139.51 51.392C145.558 51.392 150.094 46.828 150.094 41.2V41.144C150.094 35.516 145.614 31.008 139.566 31.008C133.518 31.008 128.982 35.572 128.982 41.2V41.256C128.982 46.884 133.462 51.392 139.51 51.392ZM139.566 46.492C136.598 46.492 134.554 44.028 134.554 41.2V41.144C134.554 38.316 136.542 35.908 139.51 35.908C142.506 35.908 144.55 38.372 144.55 41.2V41.256C144.55 44.084 142.562 46.492 139.566 46.492Z" fill="url(#paint11_linear_690_53568)"/>
<path d="M152.924 51H158.244V39.8L163.228 47.416H163.34L168.352 39.744V51H173.756V31.4H168.016L163.34 38.988L158.664 31.4H152.924V51Z" fill="url(#paint12_linear_690_53568)"/>
</g>
<path d="M152.501 85.93C152.501 85.93 169.761 51.2999 193.966 73.3116C200.681 78.9511 216.894 106.342 245.192 62.4423" stroke="url(#paint13_linear_690_53568)" stroke-width="2.9148" stroke-linecap="round" stroke-linejoin="round"/>
<path d="M271.425 53.4632C271.425 53.4632 290.681 26.062 308.169 35.1364C325.657 44.2107 336.218 66.2352 355.372 47.5903" stroke="url(#paint14_linear_690_53568)" stroke-width="2.9148" stroke-linecap="round" stroke-linejoin="round"/>
<ellipse opacity="0.14" cx="255.977" cy="116.949" rx="49.8431" ry="5.53812" fill="#3EBFFF"/>
<path d="M292.301 111.412C283.731 110.345 270.576 109.662 255.809 109.662C241.041 109.662 227.89 110.345 219.32 111.412H209.049V114.323C209.049 116.901 229.984 118.989 255.809 118.989C281.633 118.989 302.573 116.901 302.573 114.323V111.412H292.301Z" fill="#3EBFFF"/>
<path d="M302.248 110.97L294.057 98.5858H214.825L209.194 111.153C209.11 111.243 209.059 111.357 209.049 111.478C209.049 113.847 229.987 115.771 255.815 115.771C281.642 115.771 302.585 113.847 302.585 111.478C302.557 111.267 302.433 111.081 302.248 110.97Z" fill="url(#paint15_linear_690_53568)"/>
<mask id="mask1_690_53568" style="mask-type:luminance" maskUnits="userSpaceOnUse" x="209" y="98" width="94" height="18">
<path d="M302.248 110.97L294.057 98.5858H214.825L209.194 111.153C209.11 111.243 209.059 111.357 209.049 111.478C209.049 113.847 229.987 115.771 255.815 115.771C281.642 115.771 302.585 113.847 302.585 111.478C302.557 111.267 302.433 111.081 302.248 110.97Z" fill="white"/>
</mask>
<g mask="url(#mask1_690_53568)">
<path d="M218.127 99.3936L214.552 106.643" stroke="#3EB1FF" stroke-width="0.58296"/>
<path d="M210.422 105.835L225.828 107.984L231.881 104.761L256.642 105.835" stroke="#3EB1FF" stroke-width="0.58296"/>
<path d="M223.63 115.504L230.23 111.207L251.139 112.281V116.845" stroke="#3EB1FF" stroke-width="0.58296"/>
<path d="M256.642 102.617V116.308" stroke="#3EB1FF" stroke-width="0.58296"/>
<path d="M256.642 110.133L278.652 109.595L280.618 106.372L298.46 104.224" stroke="#3EB1FF" stroke-width="0.58296"/>
<path d="M285.802 100.468L287.555 105.486" stroke="#3EB1FF" stroke-width="0.58296"/>
<path d="M291.305 114.43L293.507 111.207L302.858 109.058" stroke="#3EB1FF" stroke-width="0.58296"/>
</g>
<ellipse cx="255.102" cy="98.8773" rx="39.6413" ry="4.3722" fill="#ABE5FF"/>
<circle cx="198.847" cy="63.3167" r="2.04036" fill="#0EAFFF"/>
<circle cx="295.618" cy="20.7607" r="2.04036" fill="#0EAFFF"/>
<circle cx="304.654" cy="14.6396" r="3.49776" fill="#38B3F1"/>
<circle cx="188.645" cy="54.2808" r="3.49776" fill="#0C81BB"/>
<circle cx="215.461" cy="5.89517" r="1.74888" fill="#0C81BB"/>
<circle cx="218.084" cy="11.4333" r="0.87444" fill="#0C81BB"/>
<circle cx="303.197" cy="86.6351" r="1.4574" fill="#0C81BB"/>
<circle cx="311.066" cy="78.1822" r="2.33184" fill="#0C81BB"/>
<rect x="225.371" y="1.81445" width="57.713" height="96.7713" fill="url(#paint16_linear_690_53568)"/>
<ellipse cx="254.228" cy="98.8773" rx="28.8565" ry="2.62332" fill="#76D8F8"/>
<path d="M254.226 96.4639C238.29 96.4639 225.371 97.5209 225.371 98.8218C225.371 99.0129 225.66 99.1999 226.189 99.3787C226.131 99.3414 226.093 99.2823 226.083 99.2161C226.083 98.1307 238.684 97.2485 254.226 97.2485C269.767 97.2485 282.373 98.1307 282.373 99.2161C282.363 99.2823 282.324 99.3414 282.267 99.3787C282.796 99.1999 283.084 99.0129 283.084 98.8218C283.08 97.5209 270.161 96.4639 254.226 96.4639Z" fill="#54B3E2"/>
<circle cx="268.802" cy="59.236" r="1.4574" fill="#0EAFFF"/>
<circle cx="245.192" cy="81.68" r="2.33184" fill="#0EAFFF"/>
<circle cx="237.905" cy="90.1329" r="0.87444" fill="#0EAFFF"/>
<path d="M256.386 69.8816L256.335 69.9155C254.939 70.8648 254.159 72.4582 253.973 74.4245C253.852 76.0178 254.03 77.6196 254.499 79.1495C254.901 80.5185 255.458 81.839 256.158 83.0863C256.52 83.7304 256.921 84.3576 257.365 85.0102C257.74 85.5442 258.132 86.0485 258.537 86.5316C259.453 87.6274 260.487 88.622 261.622 89.4979C262.861 90.4747 264.262 91.2344 265.763 91.7439C267.853 92.4135 269.822 92.3202 271.318 91.3201L271.374 91.282L275.506 88.4767L273.722 85.934C273.712 84.5143 273.484 83.1042 273.046 81.7514C272.616 80.397 272.038 79.0926 271.322 77.8612C271.007 77.3188 270.663 76.7764 270.292 76.2424C269.855 75.623 269.386 75.0261 268.887 74.4541C267.951 73.3686 266.894 72.3893 265.737 71.5343C264.685 70.7482 263.524 70.1133 262.29 69.6486L260.506 67.106L256.386 69.8816Z" fill="#056392"/>
<mask id="mask2_690_53568" style="mask-type:luminance" maskUnits="userSpaceOnUse" x="253" y="67" width="23" height="26">
<path d="M256.386 69.8816L256.335 69.9155C254.939 70.8648 254.159 72.4582 253.973 74.4245C253.852 76.0178 254.03 77.6196 254.499 79.1495C254.901 80.5185 255.458 81.839 256.158 83.0863C256.52 83.7304 256.921 84.3576 257.365 85.0102C257.74 85.5442 258.132 86.0485 258.537 86.5316C259.453 87.6274 260.487 88.622 261.622 89.4979C262.861 90.4747 264.262 91.2344 265.763 91.7439C267.853 92.4135 269.822 92.3202 271.318 91.3201L271.374 91.282L275.506 88.4767L273.722 85.934C273.712 84.5143 273.484 83.1042 273.046 81.7514C272.616 80.397 272.038 79.0926 271.322 77.8612C271.007 77.3188 270.663 76.7764 270.292 76.2424C269.855 75.623 269.386 75.0261 268.887 74.4541C267.951 73.3686 266.894 72.3893 265.737 71.5343C264.685 70.7482 263.524 70.1133 262.29 69.6486L260.506 67.106L256.386 69.8816Z" fill="white"/>
</mask>
<g mask="url(#mask2_690_53568)">
<path d="M273.924 86.3436L265.596 91.7545C267.722 92.4076 269.725 92.3166 271.246 91.3411L271.303 91.3039L275.506 88.5675L273.924 86.3436Z" fill="#52BEF4"/>
<path d="M255.837 70.5822L255.784 70.6172C254.347 71.5962 253.544 73.2395 253.354 75.2674L261.515 69.7168L260.091 67.6889L255.837 70.5822Z" fill="#056392"/>
<path d="M273.451 82.2629L262.098 89.9504C263.327 90.9171 264.718 91.669 266.207 92.1732L274.34 86.6959L274.139 86.4107C274.129 85.0057 273.903 83.6101 273.468 82.2713C273.468 82.2713 273.455 82.2629 273.451 82.2629Z" fill="#3BB4F1"/>
<path d="M271.048 77.8907L258.21 87.2181V87.4607C259.129 88.6663 259.975 89.4608 261.114 90.4244V90.6766L273.241 82.7152L273.052 81.8836C272.622 80.3936 271.902 79.5368 271.183 78.1822L271.048 77.8907Z" fill="#26A9EB"/>
<path d="M268.501 74.6844L256.268 83.4405C256.616 84.0922 257.001 84.7269 257.427 85.3872C257.787 85.9275 258.163 86.4378 258.552 86.9266L270.842 78.132C270.54 77.5831 270.209 77.0342 269.854 76.494C269.434 75.8672 268.984 75.2632 268.505 74.6844C268.505 74.6844 268.505 74.6844 268.501 74.6844Z" fill="#1296D9"/>
<path d="M265.443 72.3607L254.52 79.661C254.91 80.9713 255.45 82.235 256.131 83.4288L268.511 75.147C267.601 74.1081 266.575 73.1708 265.451 72.3526L265.443 72.3607Z" fill="#0784C3"/>
<path d="M261.798 69.4378L253.973 75.0254C253.853 76.6797 254.029 78.3426 254.492 79.9311L265.596 72.0116C264.557 71.1954 263.412 70.5362 262.193 70.0537L261.798 69.4378Z" fill="#0670A6"/>
</g>
<ellipse cx="268.057" cy="77.8606" rx="7.76648" ry="13.0519" transform="rotate(-34.62 268.057 77.8606)" fill="url(#paint17_linear_690_53568)"/>
<path d="M260.619 67.3391C260.336 67.5396 260.076 67.7697 259.844 68.0254C259.726 68.1516 259.616 68.2836 259.512 68.4211C259.461 68.4885 259.418 68.56 259.366 68.6316C259.316 68.7006 259.27 68.7723 259.228 68.8463C258.883 69.4389 258.636 70.0811 258.496 70.7492C258.236 72.0886 258.236 73.464 258.496 74.8033C258.748 76.1435 259.158 77.4504 259.719 78.6975C260.281 79.9446 260.964 81.1358 261.76 82.2549C262.156 82.8162 262.576 83.3579 263.021 83.8799C263.466 84.402 263.938 84.9015 264.438 85.3787C265.431 86.3351 266.536 87.1731 267.731 87.8751C268.916 88.5938 270.232 89.0827 271.606 89.3149C272.294 89.4244 272.997 89.4244 273.685 89.3149C273.771 89.3149 273.853 89.2812 273.939 89.2644C274.025 89.2476 274.111 89.2307 274.193 89.2055C274.361 89.1507 274.529 89.1129 274.688 89.0455C275.016 88.922 275.329 88.7654 275.623 88.5782C275.047 88.9767 274.391 89.2508 273.698 89.3823C273.002 89.5085 272.29 89.5256 271.589 89.4328C270.191 89.2199 268.848 88.7469 267.632 88.0393C266.412 87.3463 265.285 86.5062 264.278 85.5386C262.25 83.6221 260.627 81.3331 259.504 78.8028C258.938 77.5387 258.534 76.2109 258.303 74.8496C258.056 73.4855 258.08 72.0879 258.372 70.7323C258.533 70.0595 258.801 69.4159 259.168 68.8252C259.537 68.234 260.032 67.7272 260.619 67.3391V67.3391Z" fill="#5AC3F8"/>
<path d="M262.811 81.5181C264.606 84.1951 266.885 86.2599 269.226 87.3419C272.021 88.6351 273.64 87.9713 274.358 87.4626C275.075 86.9539 276.254 85.6306 276.07 82.4837C275.914 79.8542 274.84 76.9316 273.044 74.2589C271.249 71.5863 268.97 69.5172 266.629 68.4395C263.834 67.1463 262.211 67.8101 261.497 68.3188C260.784 68.8275 259.601 70.1508 259.785 73.2933C259.936 75.9272 261.011 78.8455 262.811 81.5181Z" fill="url(#paint18_linear_690_53568)"/>
<path d="M269.413 87.2577C269.605 87.3257 269.798 87.4023 269.991 87.4661L270.286 87.5596C270.385 87.5894 270.483 87.6191 270.582 87.6404L270.881 87.7169L271.181 87.7764C271.279 87.7977 271.382 87.8147 271.481 87.8275L271.785 87.8615C272.585 87.9555 273.395 87.8275 274.127 87.4916C274.828 87.1244 275.376 86.5217 275.672 85.7908C275.98 85.0675 276.147 84.2927 276.165 83.5076C276.175 81.9023 275.885 80.3091 275.308 78.8094C274.743 77.3027 273.986 75.8739 273.056 74.5575C272.144 73.2244 271.062 72.0139 269.837 70.9563C268.63 69.8877 267.233 69.0527 265.718 68.4945C264.971 68.2235 264.179 68.0965 263.384 68.1203C262.592 68.1446 261.834 68.4457 261.244 68.9707C260.668 69.5297 260.259 70.2361 260.062 71.0115C260.036 71.1093 260.015 71.2071 259.989 71.3049C259.964 71.4027 259.946 71.5047 259.929 71.6025C259.912 71.7003 259.891 71.8024 259.878 71.9044L259.844 72.2063C259.844 72.3083 259.835 72.4104 259.818 72.5124V72.8186C259.818 73.0226 259.818 73.2437 259.818 73.4308C259.725 72.6102 259.757 71.7803 259.912 70.969C260.07 70.1345 260.463 69.3619 261.047 68.7411C261.353 68.4332 261.716 68.1877 262.117 68.0183C262.517 67.8505 262.94 67.7444 263.372 67.7036C264.228 67.6468 265.087 67.755 265.902 68.0225C267.502 68.5598 268.982 69.4002 270.26 70.4971C272.819 72.6774 274.766 75.4779 275.912 78.6265C276.475 80.1907 276.729 81.8479 276.661 83.5076C276.624 84.3591 276.421 85.1953 276.062 85.9694C275.871 86.3566 275.621 86.7123 275.321 87.0239C275.02 87.3368 274.659 87.5868 274.259 87.7594C273.469 88.0804 272.604 88.1718 271.763 88.023C270.946 87.8858 270.153 87.6278 269.413 87.2577Z" fill="#0670A6"/>
<path d="M274.34 78.7651L273.832 79.2776L273.757 79.3481L274.269 78.8357L274.34 78.7651Z" fill="#957978"/>
<path fill-rule="evenodd" clip-rule="evenodd" d="M267.965 74.0818L268.51 74.2484L268.066 74.6844L266.762 74.2844L266.8 73.9445L266.838 73.6085C266.871 73.2962 267.005 73.0055 267.218 72.7845L267.659 72.3526C267.447 72.5726 267.313 72.8618 267.279 73.1725L267.244 73.5085L267.203 73.8485L267.96 74.08L268.444 73.6556C268.572 73.5644 268.729 73.5161 268.889 73.5186H268.987C269.352 73.5676 269.676 73.7595 269.878 74.0459L273.757 78.8955L273.24 79.3481L269.362 74.5026C269.246 74.3437 269.093 74.2104 268.916 74.1123C268.779 74.0396 268.627 73.9917 268.471 73.9712H268.373C268.227 73.9657 268.084 74.0048 267.965 74.0818ZM269.306 80.5881C269.204 80.575 269.103 80.5558 269.003 80.5307C268.229 80.3225 267.552 79.8549 267.085 79.2072C266.316 78.1925 266.374 77.7469 266.481 76.9307V76.8028L268.257 77.2748C268.279 77.2748 268.408 77.3101 268.519 77.3454C268.814 77.38 269.079 77.5413 269.243 77.7866C269.431 78.0235 269.537 78.3144 269.545 78.616C269.555 78.8482 269.467 79.0739 269.301 79.2381L269.816 78.7616C269.982 78.5957 270.071 78.3686 270.061 78.1351C270.053 77.8335 269.947 77.5426 269.759 77.3057C269.594 77.0599 269.33 76.8985 269.035 76.8645L268.768 76.7895L265.335 75.9072C265.264 75.8861 265.191 75.8714 265.117 75.863C264.969 75.8388 264.817 75.8493 264.673 75.8939C264.555 75.9261 264.448 75.9885 264.362 76.0748L263.858 76.5405C263.944 76.4627 264.046 76.4046 264.158 76.3704C264.302 76.3311 264.453 76.3206 264.602 76.3395C264.676 76.3498 264.748 76.3661 264.819 76.3881L266.347 76.7895L265.957 77.1513L265.925 77.4248C265.814 78.241 265.757 78.6866 266.525 79.6969C266.995 80.3434 267.674 80.8105 268.448 81.0204C268.546 81.0445 268.646 81.0622 268.746 81.0734C269.285 81.1581 269.835 81.0123 270.26 80.6719L270.327 80.6101L270.798 80.1706C270.814 80.1578 270.828 80.144 270.842 80.1293L270.798 80.1706C270.789 80.1777 270.78 80.1845 270.771 80.191C270.358 80.518 269.828 80.6617 269.306 80.5881ZM266.985 83.3867C267.25 83.7696 267.649 84.0258 268.094 84.0986C268.457 84.1517 268.824 84.0309 269.093 83.7694L268.602 84.2499C268.335 84.5117 267.97 84.6341 267.607 84.5835C267.16 84.513 266.76 84.2544 266.498 83.8672L262.781 78.6796C262.412 78.203 262.182 77.6256 262.116 77.0157C262.048 76.4837 262.172 75.9443 262.463 75.503C262.543 75.3804 262.635 75.2671 262.738 75.1649L263.225 74.6844C263.123 74.7859 263.032 74.8993 262.954 75.0225C262.663 75.4638 262.54 76.0032 262.607 76.5352C262.675 77.1447 262.905 77.7216 263.272 78.1992L266.985 83.3867Z" fill="#0670A6"/>
<path d="M268.88 75.3282L268.641 75.2578L265.269 74.2404C265.087 74.1855 264.9 74.1472 264.711 74.1259C264.37 74.0789 264.023 74.0999 263.691 74.1876C263.2 74.311 262.771 74.6053 262.486 75.0155C262.177 75.4524 262.045 75.9862 262.117 76.5129C262.189 77.1162 262.433 77.6873 262.823 78.16L266.766 83.295C267.048 83.674 267.472 83.9276 267.944 83.9996C268.33 84.0522 268.719 83.9326 269.005 83.6737L269.109 83.5768L264.266 77.332C264.113 77.1447 264.012 76.9216 263.974 76.6846C263.939 76.4738 263.984 76.2578 264.1 76.0769C264.201 75.908 264.361 75.7799 264.55 75.7158C264.695 75.6713 264.849 75.6607 264.999 75.6849C265.074 75.6932 265.147 75.708 265.219 75.729L268.695 76.6098L268.965 76.6846C269.264 76.7186 269.532 76.8797 269.698 77.125C269.888 77.3615 269.996 77.6519 270.004 77.953C270.017 78.2134 269.901 78.4642 269.693 78.6268C269.519 78.7529 269.3 78.8052 269.086 78.7721C269.03 78.7657 268.975 78.7554 268.92 78.7413C268.615 78.6439 268.349 78.4543 268.16 78.1996C267.956 77.953 267.881 77.6272 267.958 77.3188C267.958 77.2704 267.958 77.0061 267.994 76.9048L266.398 76.5085L266.366 76.7771C266.258 77.5919 266.2 78.0367 266.978 79.0496C267.45 79.6961 268.136 80.1629 268.92 80.3708C269.021 80.3958 269.123 80.4149 269.226 80.428C269.771 80.5118 270.327 80.3645 270.755 80.0228C271.219 79.6154 271.465 79.0202 271.42 78.411C271.382 77.7187 271.128 77.0547 270.692 76.5085C270.294 75.8735 269.631 75.442 268.88 75.3282Z" fill="#D4F7FF"/>
<path d="M273.414 77.5588L270.67 73.709C270.398 73.3234 270.056 72.9966 269.665 72.7465C269.333 72.5403 268.963 72.4078 268.58 72.3571H268.45C268.071 72.3285 267.695 72.4349 267.382 72.659C267.081 72.9022 266.888 73.262 266.845 73.6565L266.808 74.0239L266.762 74.3958L268.203 74.8333V74.6277L268.228 74.2689C268.23 74.1032 268.297 73.9455 268.412 73.8315C268.532 73.7353 268.68 73.6845 268.831 73.6871H268.923C269.266 73.7387 269.571 73.941 269.761 74.2427L273.414 79.3481L273.481 79.2825C273.883 78.915 273.833 78.1581 273.414 77.5588Z" fill="#D4F7FF"/>
<g opacity="0.95">
<path d="M237.73 70.1193H237.67C236.195 69.5831 234.988 68.4912 234.305 67.0762C233.736 65.9458 233.403 64.7116 233.325 63.4483C233.249 62.3709 233.321 61.2882 233.538 60.2301C233.644 59.6779 233.786 59.1333 233.964 58.5997C234.118 58.1496 234.296 57.708 234.496 57.2766C234.942 56.304 235.515 55.3954 236.2 54.5749C236.99 53.6282 237.953 52.8416 239.038 52.2573C240.514 51.423 242.269 51.2391 243.886 51.7494H243.941L247.468 52.953L247.553 55.4243C247.967 56.4624 248.201 57.5638 248.244 58.6808C248.29 59.753 248.194 60.8265 247.958 61.8734C247.855 62.3384 247.725 62.7972 247.57 63.2477C247.388 63.7815 247.171 64.3032 246.923 64.8098C246.452 65.7797 245.85 66.6802 245.134 67.4859C244.459 68.2556 243.665 68.9113 242.782 69.4279L241.214 71.3315L237.73 70.1193Z" fill="#003D97"/>
<path d="M247.685 55.1596L239.08 52.2189C240.556 51.3845 242.312 51.2006 243.928 51.711H243.983L247.511 52.9146L247.685 55.1596Z" fill="#056392"/>
<path d="M237.73 70.1195H237.67C236.195 69.5833 234.988 68.4914 234.305 67.0763L242.659 69.936L241.257 71.3444L237.73 70.1195Z" fill="#52BEF4"/>
<path d="M248.286 58.664L236.23 54.5452C237.02 53.5986 237.983 52.8119 239.067 52.2277L247.664 55.1684L247.583 55.4159C247.997 56.454 248.231 57.5555 248.273 58.6725L248.286 58.664Z" fill="#0670A6"/>
<path d="M248.009 61.8606L234.518 57.251C234.963 56.2784 235.536 55.3698 236.222 54.5493L248.286 58.6595C248.332 59.7316 248.236 60.8052 248.001 61.852L248.009 61.8606Z" fill="#0784C3"/>
<path d="M246.97 64.8013L233.542 60.2088C233.648 59.6566 233.791 59.1119 233.968 58.5784C234.122 58.1283 234.3 57.6867 234.501 57.2553L247.988 61.8648C247.884 62.3298 247.755 62.7887 247.6 63.2392C247.417 63.7729 247.201 64.2947 246.953 64.8013H246.97Z" fill="#1296D9"/>
<path d="M245.176 67.4816L233.325 63.4312C233.249 62.3538 233.321 61.2711 233.538 60.2131L246.97 64.8055C246.499 65.7755 245.897 66.6759 245.181 67.4816H245.176Z" fill="#26A9EB"/>
<path d="M242.659 69.9189L234.305 67.0593C233.736 65.9289 233.403 64.6947 233.325 63.4314L245.176 67.4818C244.502 68.2515 243.708 68.9072 242.825 69.4238L242.659 69.9189Z" fill="#3BB4F1"/>
<ellipse cx="244.398" cy="62.1074" rx="9.71656" ry="7.71228" transform="rotate(-71.16 244.398 62.1074)" fill="url(#paint19_linear_690_53568)"/>
<path d="M241.278 71.3101C240.181 70.9477 239.201 70.2961 238.441 69.4236C237.682 68.5512 237.117 67.5269 236.784 66.4189C236.452 65.3126 236.308 64.1584 236.358 63.0044C236.408 61.8423 236.62 60.693 236.988 59.5899C237.366 58.4948 237.897 57.4587 238.565 56.5126C239.229 55.5646 240.048 54.7362 240.989 54.0627C241.927 53.3838 242.999 52.9124 244.133 52.6799C245.27 52.4517 246.447 52.5357 247.541 52.9231C246.447 52.5827 245.284 52.5356 244.167 52.7866C243.058 53.0381 242.014 53.5209 241.104 54.2036C240.191 54.8793 239.393 55.6996 238.744 56.6321C237.442 58.5117 236.692 60.7193 236.579 63.0044C236.527 64.1405 236.658 65.2776 236.967 66.3719C237.271 67.4668 237.802 68.4849 238.526 69.3596C239.255 70.2451 240.204 70.9211 241.278 71.3187V71.3101Z" fill="#5AC3F8"/>
<path d="M238.096 59.9513C238.824 57.7082 240.309 55.7897 242.297 54.5266C244.563 53.1352 246.387 53.4382 247.268 53.737C248.15 54.0357 249.773 54.9192 250.723 57.4075C252.274 61.9775 250.556 67.0205 246.54 69.6868C244.269 71.0782 242.45 70.7795 241.568 70.4764C240.687 70.1734 239.059 69.2942 238.114 66.8059C237.311 64.5928 237.305 62.1683 238.096 59.9513Z" fill="url(#paint20_linear_690_53568)"/>
<path d="M242.322 54.5365C242.927 54.126 243.59 53.8107 244.29 53.6018C245.002 53.392 245.748 53.3281 246.484 53.414C246.855 53.4601 247.22 53.5489 247.571 53.6786C247.921 53.8138 248.255 53.9869 248.567 54.195C249.192 54.615 249.73 55.1511 250.152 55.7742C250.978 57.0255 251.468 58.4691 251.575 59.9655C251.791 62.9735 250.781 65.9407 248.776 68.1901C247.778 69.3086 246.509 70.1508 245.091 70.6358C244.376 70.8703 243.622 70.9645 242.872 70.9132C242.497 70.8879 242.127 70.8192 241.768 70.7083C241.411 70.5989 241.067 70.447 240.746 70.2559C240.111 69.8706 239.56 69.3629 239.123 68.7621C238.698 68.1671 238.366 67.5108 238.139 66.8158C238.421 67.4816 238.793 68.105 239.246 68.6682C239.698 69.2201 240.254 69.6771 240.882 70.0126C241.19 70.1804 241.518 70.3094 241.858 70.3967C242.196 70.4851 242.543 70.5352 242.893 70.5461C243.593 70.5654 244.291 70.4539 244.951 70.2175C245.611 69.9766 246.237 69.6494 246.812 69.2444C247.388 68.8358 247.914 68.3617 248.38 67.8316C248.848 67.3068 249.261 66.7346 249.611 66.1244C249.955 65.5082 250.241 64.8609 250.463 64.1909C250.693 63.5212 250.859 62.8309 250.957 62.1294C251.056 61.4227 251.082 60.7075 251.034 59.9954C250.989 59.2915 250.862 58.5953 250.655 57.9211C250.446 57.2477 250.15 56.6048 249.773 56.009C249.396 55.418 248.912 54.9027 248.346 54.4895C248.063 54.2841 247.759 54.1095 247.438 53.9688C247.114 53.8341 246.775 53.7353 246.429 53.6743C245.721 53.5587 244.998 53.5819 244.299 53.7426C243.606 53.9135 242.941 54.1807 242.322 54.5365Z" fill="#0670A6"/>
<path d="M245.922 67.4434L245.351 67.2215L245.266 67.1873L245.841 67.4135L245.922 67.4434Z" fill="#957978"/>
<path fill-rule="evenodd" clip-rule="evenodd" d="M240.009 63.4269C239.807 63.7903 239.763 64.2205 239.885 64.6177C239.984 64.9387 240.224 65.1967 240.537 65.3177L239.962 65.0957C239.651 64.9701 239.412 64.7119 239.31 64.3915C239.19 63.9955 239.234 63.5675 239.434 63.205L242.058 58.1771C242.29 57.6922 242.655 57.2835 243.11 56.9991C243.502 56.7438 243.974 56.6448 244.435 56.7217C244.564 56.7388 244.69 56.7718 244.81 56.8199L245.349 57.0336C245.24 56.9917 245.126 56.963 245.01 56.9479C244.548 56.8712 244.074 56.9701 243.681 57.2254C243.227 57.5083 242.863 57.9156 242.633 58.3991L240.009 63.4269ZM245.381 57.0461L245.349 57.0336C245.36 57.0376 245.37 57.0418 245.381 57.0461ZM243.208 64.2378C243.183 64.1525 243.161 64.0671 243.14 63.9775C243.014 63.2868 243.13 62.5738 243.468 61.9587C243.984 60.9685 244.358 60.8447 245.049 60.6227L245.155 60.5843L245.458 62.1891C245.458 62.1891 245.483 62.3172 245.496 62.4239C245.581 62.6669 245.556 62.9349 245.428 63.158C245.31 63.3953 245.118 63.5883 244.882 63.7086C244.702 63.8068 244.488 63.8223 244.295 63.7513L244.865 63.9775C245.058 64.0485 245.273 64.033 245.453 63.9348C245.692 63.8144 245.885 63.6197 246.003 63.3799C246.134 63.1593 246.159 62.8913 246.071 62.6501C246.071 62.5641 246.046 62.4753 246.034 62.4329C246.031 62.4227 246.029 62.4152 246.028 62.4111L245.458 59.3551C245.446 59.2915 245.431 59.2287 245.411 59.1673C245.372 59.0465 245.31 58.9347 245.228 58.8387C245.154 58.7609 245.064 58.701 244.963 58.6637L244.416 58.4469C244.408 58.4436 244.401 58.4405 244.393 58.4375L244.416 58.4469C244.507 58.4848 244.588 58.5429 244.652 58.6167C244.736 58.7109 244.8 58.8213 244.84 58.9411C244.859 59.004 244.873 59.0682 244.882 59.1332L245.138 60.4904L244.712 60.3197L244.482 60.3965C243.763 60.5438 243.168 61.047 242.902 61.7325C242.565 62.3481 242.451 63.061 242.578 63.7513C242.594 63.8396 242.617 63.9267 242.646 64.0116C242.784 64.4682 243.107 64.8458 243.536 65.053L243.609 65.0829L244.18 65.3091L244.107 65.2792C243.675 65.0739 243.349 64.696 243.208 64.2378ZM247.162 59.9315L247.392 61.2973L246.821 61.0711L246.586 59.701L246.902 59.5943L247.213 59.4919C247.499 59.3889 247.812 59.3889 248.099 59.4919L248.674 59.7181C248.388 59.6152 248.074 59.6152 247.788 59.7181L247.477 59.8248L247.162 59.9315ZM248.636 61.8862C248.623 62.0682 248.569 62.2449 248.478 62.4026L245.845 67.4006L245.27 67.1743L247.911 62.1636C248.001 62.0053 248.055 61.8289 248.069 61.6472C248.077 61.51 248.059 61.3726 248.018 61.2417C248.011 61.2138 248.001 61.1866 247.988 61.1606C247.933 61.0256 247.83 60.916 247.698 60.8533L248.269 61.0752C248.398 61.1397 248.5 61.2489 248.555 61.3825C248.568 61.4073 248.579 61.433 248.589 61.4594C248.631 61.5975 248.647 61.7422 248.636 61.8862Z" fill="#0670A6"/>
<path d="M247.127 62.0569C247.127 62.0142 247.127 61.9758 247.098 61.8435L246.672 58.8259C246.647 58.6635 246.609 58.5036 246.557 58.3479C246.468 58.0629 246.323 57.7987 246.131 57.5711C245.85 57.2368 245.458 57.0155 245.027 56.948C244.565 56.8712 244.091 56.9702 243.698 57.2254C243.244 57.5083 242.88 57.9156 242.65 58.3991L240.009 63.4312C239.807 63.7946 239.763 64.2248 239.885 64.622C239.984 64.943 240.224 65.201 240.537 65.322L240.652 65.3689L243.826 59.2229C243.925 59.0299 244.072 58.8654 244.252 58.7448C244.409 58.6413 244.597 58.5946 244.784 58.6125C244.961 58.633 245.125 58.7145 245.249 58.843C245.331 58.9391 245.394 59.0508 245.432 59.1717C245.452 59.233 245.468 59.2958 245.479 59.3595L246.05 62.4154C246.05 62.4154 246.079 62.5477 246.092 62.6544C246.18 62.8956 246.155 63.1636 246.024 63.3843C245.906 63.624 245.713 63.8188 245.475 63.9391C245.291 64.0444 245.068 64.0569 244.874 63.973C244.68 63.8891 244.536 63.7184 244.486 63.5123C244.47 63.4663 244.458 63.4192 244.448 63.3715C244.406 63.0884 244.456 62.7993 244.593 62.5477C244.714 62.2913 244.95 62.1077 245.227 62.0526C245.266 62.0526 245.487 61.9502 245.572 61.9246L245.296 60.5289L245.07 60.6057C244.38 60.8277 244.005 60.9515 243.489 61.9417C243.151 62.5567 243.036 63.2698 243.161 63.9605C243.183 64.0501 243.204 64.1355 243.229 64.2208C243.368 64.6774 243.691 65.055 244.12 65.2622C244.617 65.4679 245.181 65.4333 245.649 65.1683C246.184 64.8776 246.617 64.4311 246.893 63.8879C247.229 63.3393 247.314 62.6727 247.127 62.0569Z" fill="#D4F7FF"/>
<path d="M247.268 66.7093L249.257 62.9363C249.457 62.5615 249.582 62.1512 249.624 61.7284C249.658 61.3725 249.617 61.0134 249.505 60.6742L249.466 60.559C249.336 60.2316 249.1 59.9569 248.797 59.7779C248.485 59.617 248.119 59.5923 247.788 59.7096L247.477 59.8163L247.161 59.923L247.392 61.2888L247.558 61.212L247.856 61.0968C247.991 61.0352 248.147 61.0352 248.282 61.0968C248.411 61.1612 248.512 61.2704 248.567 61.4041C248.58 61.4289 248.592 61.4545 248.601 61.4809C248.643 61.619 248.659 61.7638 248.648 61.9077C248.636 62.0897 248.582 62.2664 248.491 62.4241L245.854 67.4349L245.935 67.4648C246.365 67.6184 246.953 67.2727 247.268 66.7093Z" fill="#D4F7FF"/>
</g>
<g opacity="0.65">
<path d="M259.924 22.6303H259.896C259.176 22.3693 258.586 21.8307 258.255 21.1312C257.976 20.574 257.814 19.9645 257.779 19.3407C257.742 18.8081 257.778 18.2728 257.885 17.7501C257.94 17.4765 258.011 17.2067 258.099 16.9423C258.177 16.7174 258.263 16.5009 258.357 16.2885C258.57 15.8088 258.846 15.3606 259.178 14.956C259.562 14.4879 260.031 14.0991 260.56 13.8109C261.28 13.3991 262.135 13.3086 262.923 13.5611H262.948L264.691 14.1399L264.732 15.3599C264.935 15.8721 265.048 16.4158 265.069 16.9673C265.092 17.4973 265.045 18.0281 264.929 18.5454C264.88 18.7753 264.817 19.0019 264.74 19.2241C264.651 19.4874 264.546 19.7446 264.425 19.9945C264.194 20.4727 263.9 20.9168 263.551 21.3145C263.222 21.6941 262.836 22.0175 262.406 22.2722L261.639 23.2132L259.924 22.6303Z" fill="#056392"/>
<path d="M264.773 15.2475L260.581 13.7943C261.3 13.3824 262.156 13.292 262.944 13.5444H262.968L264.691 14.1399L264.773 15.2475Z" fill="#056392"/>
<path d="M259.924 22.6303H259.896C259.176 22.3693 258.586 21.8307 258.255 21.1312L262.324 22.5428L261.639 23.2382L259.924 22.6303Z" fill="#52BEF4"/>
<path d="M265.069 16.9756L259.198 14.9435C259.582 14.4754 260.052 14.0866 260.581 13.7984L264.769 15.2475L264.728 15.3724C264.93 15.8846 265.044 16.4283 265.065 16.9797L265.069 16.9756Z" fill="#0670A6"/>
<path d="M264.929 18.5537L258.365 16.276C258.578 15.7963 258.854 15.3481 259.186 14.9435L265.056 16.9797C265.08 17.5098 265.033 18.0406 264.917 18.5579L264.929 18.5537Z" fill="#0784C3"/>
<path d="M264.408 20.007L257.885 17.7376C257.94 17.464 258.011 17.1942 258.099 16.9298C258.177 16.7049 258.263 16.4884 258.357 16.276L264.921 18.5537C264.871 18.7836 264.808 19.0102 264.732 19.2325C264.643 19.4957 264.537 19.753 264.416 20.0028L264.408 20.007Z" fill="#1296D9"/>
<path d="M263.551 21.3269L257.779 19.3282C257.742 18.7956 257.778 18.2603 257.885 17.7376L264.408 20.0028C264.177 20.4811 263.883 20.9251 263.534 21.3228L263.551 21.3269Z" fill="#26A9EB"/>
<path d="M262.324 22.5303L258.255 21.1188C257.976 20.5615 257.814 19.952 257.779 19.3282L263.551 21.327C263.222 21.7066 262.836 22.03 262.406 22.2847L262.324 22.5303Z" fill="#3BB4F1"/>
<ellipse cx="263.164" cy="18.6727" rx="4.78955" ry="3.75956" transform="rotate(-71.16 263.164 18.6727)" fill="url(#paint21_linear_690_53568)"/>
<path d="M261.651 23.2174C261.116 23.0392 260.638 22.7169 260.269 22.2847C259.91 21.8503 259.644 21.3457 259.485 20.8023C259.325 20.2542 259.256 19.6829 259.28 19.1117C259.305 18.5446 259.409 17.9839 259.588 17.4461C259.77 16.9048 260.029 16.3929 260.355 15.9263C260.679 15.4592 261.079 15.0509 261.536 14.7187C261.993 14.3828 262.514 14.1499 263.067 14.0358C263.614 13.9256 264.181 13.9673 264.708 14.1566C264.176 13.9857 263.61 13.9627 263.067 14.0899C262.527 14.2131 262.019 14.4516 261.578 14.7895C261.134 15.1225 260.746 15.5261 260.429 15.9845C259.793 16.9098 259.427 17.9977 259.37 19.1242C259.344 19.6861 259.408 20.2486 259.559 20.7898C259.706 21.3242 259.96 21.8218 260.306 22.2514C260.484 22.4668 260.688 22.6584 260.913 22.8218C261.141 22.9856 261.389 23.1186 261.651 23.2174Z" fill="#67C4FB"/>
<path d="M260.113 17.6168C260.468 16.5089 261.194 15.5618 262.164 14.9394C262.858 14.4123 263.764 14.2669 264.584 14.5509C265.405 14.8349 266.034 15.5116 266.267 16.3593C267.022 18.6185 266.178 21.1103 264.215 22.4221C263.52 22.947 262.615 23.0906 261.795 22.806C260.975 22.5214 260.346 21.8451 260.113 20.998C259.726 19.9052 259.726 18.7096 260.113 17.6168Z" fill="url(#paint22_linear_690_53568)"/>
<path d="M262.152 14.9394C262.446 14.7374 262.768 14.5816 263.108 14.4772C263.455 14.376 263.819 14.3448 264.178 14.3856C264.36 14.4073 264.537 14.452 264.708 14.5188C264.878 14.5837 265.04 14.6675 265.192 14.7686C265.497 14.9761 265.759 15.242 265.963 15.5515C266.369 16.1728 266.609 16.89 266.66 17.6335C266.712 18.3683 266.618 19.1063 266.381 19.8029C266.15 20.5016 265.78 21.1449 265.294 21.6934C264.808 22.2466 264.189 22.6626 263.497 22.9009C263.15 23.0173 262.784 23.064 262.419 23.0383C262.053 23.0155 261.699 22.9041 261.385 22.7136C261.075 22.5235 260.806 22.273 260.593 21.9765C260.387 21.6816 260.226 21.3575 260.113 21.0146C260.251 21.3441 260.433 21.6524 260.655 21.9307C260.875 22.2021 261.145 22.427 261.45 22.5928C261.601 22.6748 261.761 22.739 261.926 22.7843C262.091 22.8268 262.261 22.8506 262.431 22.8551C262.772 22.8661 263.111 22.8109 263.432 22.6927C263.753 22.5725 264.057 22.4116 264.338 22.2139C264.618 22.0124 264.874 21.7791 265.101 21.5185C265.328 21.2622 265.529 20.9831 265.7 20.6857C265.867 20.3819 266.004 20.0626 266.111 19.7321C266.222 19.4018 266.303 19.0617 266.353 18.7161C266.4 18.3699 266.412 18.0197 266.39 17.671C266.367 17.3234 266.305 16.9797 266.205 16.6466C266.107 16.3155 265.97 15.998 265.795 15.7014C265.61 15.4112 265.375 15.1573 265.101 14.9519C264.963 14.8513 264.815 14.7661 264.658 14.6979C264.5 14.6305 264.335 14.5816 264.166 14.5521C263.824 14.4945 263.474 14.5058 263.136 14.5854C262.793 14.6555 262.462 14.7746 262.152 14.9394Z" fill="#0670A6"/>
<path d="M263.912 21.3103L263.633 21.1979L263.596 21.1812L263.875 21.2936L263.912 21.3103Z" fill="#957978"/>
<path fill-rule="evenodd" clip-rule="evenodd" d="M261.032 19.3282C260.934 19.5074 260.912 19.7192 260.97 19.9153C261.022 20.0725 261.139 20.1988 261.29 20.2609L261.011 20.1485C260.859 20.0873 260.742 19.9606 260.691 19.8029C260.633 19.6068 260.655 19.395 260.753 19.2157L262.033 16.7173C262.146 16.4799 262.322 16.2793 262.542 16.1385C262.733 16.0126 262.964 15.9636 263.19 16.0011C263.252 16.0089 263.313 16.0257 263.37 16.0511L263.649 16.1594C263.591 16.1372 263.53 16.1218 263.469 16.1136C263.243 16.076 263.012 16.125 262.82 16.251C262.6 16.3907 262.423 16.5915 262.312 16.8298L261.032 19.3282ZM262.591 19.7237C262.577 19.6828 262.566 19.641 262.558 19.5988C262.496 19.2583 262.553 18.9065 262.718 18.6036C262.846 18.2632 263.137 18.0133 263.489 17.9415H263.538L263.686 18.7327V18.8493C263.726 18.9693 263.714 19.1009 263.653 19.2115C263.595 19.3285 263.502 19.4235 263.387 19.4822C263.299 19.5319 263.193 19.5395 263.099 19.503L263.378 19.6154C263.47 19.6543 263.574 19.6543 263.666 19.6154C263.781 19.5552 263.875 19.4588 263.932 19.3406C263.993 19.2301 264.005 19.0983 263.965 18.9784C263.965 18.945 263.956 18.9099 263.95 18.8864L263.95 18.8864C263.947 18.8747 263.944 18.8659 263.944 18.8618L263.666 17.3544C263.668 17.3239 263.668 17.2933 263.666 17.2628C263.659 17.1875 263.632 17.1155 263.588 17.0546C263.551 17.0176 263.508 16.9879 263.46 16.9671L263.181 16.8547C263.229 16.8755 263.272 16.9051 263.309 16.9422C263.348 16.9903 263.379 17.0453 263.399 17.1046C263.401 17.1364 263.401 17.1684 263.399 17.2003L263.522 17.8707L263.309 17.7833L263.198 17.8249C262.848 17.8964 262.559 18.1447 262.431 18.4828C262.265 18.7857 262.209 19.1375 262.271 19.478C262.279 19.5217 262.29 19.5648 262.304 19.6071C262.375 19.8414 262.545 20.0319 262.767 20.1276H262.804L262.936 20.1808C262.971 20.2032 263.008 20.223 263.046 20.24H263.083L262.936 20.1808C262.772 20.0757 262.649 19.9142 262.591 19.7237ZM264.515 17.5961L264.63 18.2707L264.351 18.1624L264.236 17.4879L264.392 17.4337L264.543 17.3838C264.676 17.3365 264.821 17.3365 264.954 17.3838L265.233 17.492C265.1 17.4466 264.955 17.4466 264.822 17.492L264.671 17.5462L264.515 17.5961ZM265.237 18.5661C265.23 18.6558 265.204 18.7427 265.159 18.8201L263.867 21.2936L263.588 21.1811L264.88 18.7119C264.925 18.6344 264.951 18.5475 264.958 18.4579C264.96 18.3903 264.952 18.3229 264.933 18.258C264.932 18.2441 264.932 18.2302 264.933 18.2164C264.905 18.1518 264.856 18.099 264.794 18.0665L265.073 18.1747C265.136 18.2048 265.186 18.2584 265.212 18.3246C265.213 18.3385 265.213 18.3524 265.212 18.3663C265.231 18.4311 265.239 18.4986 265.237 18.5661Z" fill="#0670A6"/>
<path d="M264.503 18.6495C264.503 18.6495 264.503 18.6079 264.503 18.5454L264.273 17.0547C264.26 16.9755 264.241 16.8975 264.215 16.8215C264.172 16.6809 264.1 16.5506 264.006 16.4384C263.871 16.2719 263.679 16.1621 263.469 16.1303C263.243 16.0927 263.012 16.1417 262.821 16.2677C262.6 16.4074 262.424 16.6082 262.312 16.8465L261.032 19.3449C260.934 19.5241 260.912 19.7359 260.97 19.932C261.022 20.0892 261.139 20.2155 261.29 20.2776H261.348L262.89 17.2462C262.936 17.1508 263.005 17.069 263.091 17.0089C263.167 16.957 263.259 16.9348 263.35 16.9464C263.439 16.9519 263.524 16.9904 263.588 17.0547C263.629 17.1012 263.66 17.1567 263.678 17.2171C263.68 17.2476 263.68 17.2782 263.678 17.3087L263.957 18.8161C263.957 18.8161 263.957 18.8827 263.977 18.9327C264.018 19.0526 264.006 19.1844 263.945 19.2949C263.887 19.4131 263.794 19.5095 263.678 19.5697C263.579 19.6216 263.461 19.6216 263.362 19.5697C263.282 19.5242 263.222 19.4499 263.194 19.3615C263.192 19.338 263.192 19.3143 263.194 19.2908C263.17 19.1479 263.195 19.0013 263.264 18.8744C263.322 18.7476 263.436 18.6564 263.571 18.6287L263.739 18.5662L263.588 17.8875L263.481 17.925C263.129 17.9967 262.838 18.2466 262.71 18.587C262.545 18.89 262.488 19.2417 262.55 19.5822C262.558 19.6245 262.569 19.6662 262.583 19.7072C262.649 19.9342 262.807 20.1219 263.017 20.2235C263.259 20.3249 263.533 20.308 263.76 20.1777C264.022 20.0372 264.237 19.8195 264.375 19.5531C264.542 19.2837 264.588 18.9554 264.503 18.6495Z" fill="#D4F7FF"/>
<path d="M264.568 20.9437L265.536 19.0824C265.634 18.8977 265.695 18.6954 265.717 18.4869C265.733 18.3113 265.714 18.1341 265.659 17.9664C265.659 17.9664 265.659 17.929 265.659 17.9123C265.596 17.7504 265.482 17.6142 265.335 17.5251C265.182 17.449 265.005 17.437 264.843 17.4917L264.691 17.5459L264.535 17.5958L264.65 18.2704L264.728 18.2329L264.876 18.1788C264.94 18.1498 265.013 18.1498 265.077 18.1788C265.14 18.2089 265.19 18.2625 265.216 18.3287C265.217 18.3426 265.217 18.3565 265.216 18.3704C265.235 18.4351 265.244 18.5027 265.241 18.5702C265.235 18.6599 265.208 18.7468 265.163 18.8242L263.879 21.2976H263.916C264.188 21.3495 264.459 21.2023 264.568 20.9437Z" fill="#D4F7FF"/>
</g>
<g opacity="0.85">
<path d="M274.063 40.2931L274.093 40.3228C274.851 41.1698 275.108 42.343 274.919 43.6602C274.919 43.6602 274.919 43.6898 274.919 43.7068C274.737 44.7831 274.355 45.8169 273.793 46.7562C273.302 47.6028 272.717 48.3926 272.05 49.111C271.703 49.4837 271.33 49.848 270.932 50.1995C270.598 50.4917 270.255 50.767 269.908 51.0254C269.119 51.6081 268.269 52.1051 267.373 52.5078C266.391 52.9637 265.338 53.2502 264.259 53.3548C262.768 53.4649 261.479 53.0838 260.653 52.1689C260.645 52.1558 260.635 52.1443 260.623 52.135L258.348 49.5939L259.95 48.1877C260.189 47.243 260.573 46.3402 261.089 45.511C261.598 44.6785 262.197 43.9031 262.875 43.1985C263.175 42.8894 263.492 42.5844 263.826 42.288C264.217 41.9453 264.626 41.623 265.051 41.3223C265.852 40.7512 266.714 40.2683 267.621 39.8823C268.447 39.5276 269.319 39.2909 270.212 39.1792L271.81 37.7731L274.063 40.2931Z" fill="#056392"/>
<path d="M271.788 37.7604L274.093 40.3016C274.851 41.1487 275.108 42.3218 274.919 43.639L270.576 38.8277L271.788 37.7604Z" fill="#056392"/>
<path d="M259.745 48.3487L264.238 53.3506C262.747 53.4607 261.458 53.0795 260.631 52.1647C260.624 52.1515 260.613 52.14 260.601 52.1308L258.327 49.5896L259.745 48.3487Z" fill="#52BEF4"/>
<path d="M261.06 45.5068L267.368 52.5162C266.387 52.9722 265.334 53.2587 264.255 53.3633L259.766 48.3614L259.946 48.2047C260.185 47.2599 260.569 46.3571 261.085 45.528L261.06 45.5068Z" fill="#3BB4F1"/>
<path d="M262.846 43.1901L269.895 51.0339C269.106 51.6166 268.256 52.1136 267.36 52.5162L261.068 45.5153C261.577 44.6827 262.176 43.9073 262.854 43.2028L262.846 43.1901Z" fill="#26A9EB"/>
<path d="M265.026 41.3096L272.041 49.1153C271.694 49.488 271.322 49.8522 270.923 50.2037C270.589 50.496 270.247 50.7713 269.9 51.0296L262.846 43.1943C263.145 42.8851 263.462 42.5802 263.796 42.2837C264.188 41.9411 264.596 41.6188 265.021 41.3181L265.026 41.3096Z" fill="#1296D9"/>
<path d="M267.6 39.8696L273.793 46.7562C273.302 47.6028 272.717 48.3926 272.05 49.111L265.034 41.3054C265.835 40.7342 266.697 40.2514 267.604 39.8654L267.6 39.8696Z" fill="#0784C3"/>
<path d="M270.551 38.8489L274.915 43.7068C274.732 44.7831 274.351 45.8169 273.789 46.7562L267.595 39.8696C268.421 39.5149 269.293 39.2782 270.187 39.1665L270.551 38.8489Z" fill="#0670A6"/>
<ellipse cx="265.074" cy="43.6962" rx="8.96716" ry="5.32918" transform="rotate(-41.63 265.074 43.6962)" fill="url(#paint23_linear_690_53568)"/>
<path d="M271.818 37.7943C272.146 38.1447 272.392 38.5607 272.542 39.0141C272.69 39.4699 272.763 39.9459 272.761 40.4244C272.729 41.3805 272.514 42.322 272.127 43.1985C271.749 44.0771 271.261 44.9052 270.675 45.6635C269.516 47.1905 268.06 48.4722 266.392 49.4329C265.562 49.9198 264.675 50.3025 263.749 50.5722C262.823 50.8486 261.852 50.9477 260.888 50.8645C260.407 50.8125 259.936 50.6838 259.496 50.4833C259.061 50.283 258.673 49.9944 258.357 49.6362C258.52 49.8088 258.703 49.9623 258.901 50.0936C259.094 50.2295 259.303 50.3432 259.522 50.4325C259.96 50.6124 260.424 50.7225 260.897 50.7586C261.845 50.818 262.795 50.6987 263.698 50.407C264.604 50.127 265.474 49.7418 266.289 49.2593C267.105 48.7802 267.871 48.2226 268.576 47.5948C269.29 46.9741 269.942 46.2862 270.521 45.5407C271.099 44.7977 271.588 43.9903 271.977 43.135C272.375 42.2821 272.606 41.3623 272.658 40.4244C272.677 39.9555 272.621 39.4866 272.491 39.0352C272.458 38.9232 272.419 38.813 272.375 38.7049C272.331 38.5949 272.281 38.4874 272.225 38.383C272.111 38.1732 271.975 37.9758 271.818 37.7943V37.7943Z" fill="#67C4FB"/>
<path d="M268.011 46.968C266.511 48.354 264.662 49.3164 262.657 49.7548C260.516 50.1444 259.518 49.4372 259.107 48.9797C258.695 48.5223 258.104 47.4508 258.747 45.4009C260.201 41.5411 263.497 38.6457 267.544 37.6715C269.685 37.2818 270.688 37.9891 271.095 38.4465C271.501 38.9039 272.097 39.9712 271.459 42.0254C270.775 43.9472 269.585 45.6535 268.011 46.968Z" fill="url(#paint24_linear_690_53568)"/>
<path d="M262.657 49.7548C262.097 49.8928 261.52 49.9471 260.944 49.9157C260.347 49.8815 259.772 49.6803 259.286 49.3355C259.043 49.1529 258.839 48.9239 258.687 48.6621C258.531 48.3991 258.418 48.1132 258.353 47.815C258.235 47.2335 258.235 46.6347 258.353 46.0531C258.584 44.9089 259.041 43.821 259.698 42.8512C260.995 40.9126 262.781 39.3419 264.88 38.2941C265.923 37.7704 267.059 37.4511 268.225 37.3538C268.824 37.31 269.427 37.382 269.998 37.5656C270.286 37.6632 270.557 37.8062 270.799 37.9891C271.045 38.1714 271.252 38.4003 271.407 38.6625C271.696 39.1795 271.83 39.7672 271.793 40.3567C271.76 40.9278 271.638 41.4906 271.433 42.0254C271.463 41.8856 271.497 41.7501 271.523 41.6018C271.549 41.4536 271.579 41.3265 271.591 41.1783C271.63 40.8977 271.644 40.6143 271.634 40.3312C271.626 39.7824 271.466 39.2463 271.172 38.7811C270.862 38.3452 270.407 38.0305 269.887 37.8917C269.358 37.751 268.808 37.7094 268.264 37.7689C267.156 37.9001 266.082 38.2347 265.098 38.7557C264.103 39.266 263.178 39.8993 262.344 40.6404C261.5 41.3712 260.754 42.2068 260.126 43.1265C259.486 44.0321 259.023 45.0476 258.76 46.1209C258.637 46.6472 258.613 47.1914 258.691 47.7261C258.772 48.255 259.035 48.7399 259.436 49.0983C259.869 49.4424 260.389 49.6622 260.94 49.7336C261.223 49.7782 261.51 49.7966 261.796 49.7887C261.938 49.7887 262.079 49.7887 262.225 49.7887L262.657 49.7548Z" fill="#0670A6"/>
<path fill-rule="evenodd" clip-rule="evenodd" d="M264.662 45.2613H264.704L264.829 45.2358H264.859L265.008 45.1935H265.047L265.163 45.1469H265.201L265.347 45.0749H265.372L265.45 45.0283L265.484 45.0029L265.544 44.9648L265.629 44.897L265.689 44.8504L265.719 44.825L265.809 44.7403L265.899 44.6471L265.925 44.6175L265.972 44.5667L266.023 44.4989L266.049 44.4693C266.073 44.4402 266.095 44.409 266.113 44.3761C266.132 44.3508 266.147 44.3238 266.161 44.2956L266.186 44.249V44.2194C266.187 44.2039 266.187 44.1883 266.186 44.1728C266.188 44.163 266.188 44.1529 266.186 44.1431V44.1177V44.0669C266.188 44.0557 266.188 44.0442 266.186 44.033V43.978V43.8678V43.8424C266.188 43.8086 266.188 43.7746 266.186 43.7408C266.188 43.7013 266.188 43.6617 266.186 43.6222V43.5883V43.4697C266.191 43.4162 266.191 43.3623 266.186 43.3088V41.3224V41.1869C266.189 41.146 266.189 41.105 266.186 41.0641C266.179 41.0244 266.166 40.986 266.148 40.9497C266.132 40.9118 266.113 40.875 266.092 40.8396L266.053 40.7803L265.809 40.45L265.848 40.5092C265.869 40.5432 265.888 40.5786 265.904 40.6151C265.904 40.6374 265.914 40.6596 265.924 40.6818C265.931 40.6977 265.939 40.7136 265.942 40.7295C265.955 40.7694 265.964 40.8106 265.968 40.8523V40.9878V42.9742C265.973 43.0277 265.973 43.0816 265.968 43.1351V43.2537V43.2876C265.97 43.3271 265.97 43.3667 265.968 43.4062C265.97 43.44 265.97 43.474 265.968 43.5078V43.5333V43.6434V43.6688V43.7238C265.97 43.735 265.97 43.7466 265.968 43.7577V43.8086C265.97 43.8226 265.97 43.8369 265.968 43.8509C265.968 43.8608 265.968 43.8707 265.968 43.8806L265.946 43.9271V43.9568L265.916 44.0118V44.0373L265.865 44.1177C265.865 44.1375 265.846 44.1573 265.827 44.177L265.827 44.177C265.817 44.1869 265.808 44.1968 265.801 44.2067L265.775 44.2363L265.724 44.3041L265.668 44.3634L265.642 44.393L265.552 44.4862L265.428 44.5963C265.412 44.6141 265.393 44.6297 265.372 44.6429L265.287 44.7107C265.265 44.7223 265.245 44.7366 265.227 44.753L265.111 44.8208L264.966 44.8928H264.927L264.807 44.9436H264.773L264.623 44.9902H264.593L264.469 45.0156H264.426H264.276C263.847 45.0517 263.426 44.8815 263.145 44.5582L263.094 44.4904L263.338 44.825L263.389 44.8928C263.673 45.2127 264.091 45.3821 264.52 45.3502L264.662 45.2613ZM264.413 41.1361L264.465 41.1022L264.516 41.0725H264.542L264.623 41.0344C264.687 41.0098 264.755 40.9955 264.824 40.9921C264.873 40.988 264.921 40.988 264.97 40.9921C265.073 41.0054 265.167 41.055 265.235 41.1318L264.987 40.7972C264.916 40.72 264.821 40.6692 264.717 40.6532C264.67 40.649 264.623 40.649 264.576 40.6532C264.507 40.6567 264.439 40.671 264.375 40.6956L264.293 40.7337H264.267L264.225 40.7591L264.173 40.7972H264.152C264.137 40.8103 264.122 40.8244 264.109 40.8396L261.317 43.6307L261.565 43.9652L264.353 41.1699L264.413 41.1361ZM266.829 42.7961L267.133 42.7749H267.171C267.306 42.7688 267.441 42.7981 267.561 42.8596C267.643 42.9035 267.714 42.9646 267.77 43.0385L267.531 42.7156C267.475 42.6371 267.402 42.572 267.317 42.525C267.196 42.4647 267.062 42.437 266.927 42.4446H266.889H266.585L266.417 42.47L266.662 42.8046L266.829 42.7961ZM263.993 43.5628V43.6136C264.024 43.6337 264.055 43.6521 264.088 43.6687V43.7025V43.7745V43.8127C264.094 43.8328 264.101 43.8526 264.109 43.872V43.9101C264.122 43.9332 264.136 43.9556 264.151 43.9769L263.908 43.6433L263.882 43.6094C263.883 43.5981 263.883 43.5868 263.882 43.5755V43.5374C263.88 43.5176 263.88 43.4978 263.882 43.4781V43.44V43.368V43.3341C263.88 43.2974 263.88 43.2606 263.882 43.224V43.1943V43.1604C263.884 43.1493 263.884 43.1377 263.882 43.1265C263.885 43.1168 263.885 43.1066 263.882 43.0969L263.921 43.0037C263.934 42.9755 263.949 42.9486 263.968 42.9232L264.028 42.8428L264.075 42.792L264.113 42.7538L264.165 42.7157L264.216 42.6903H264.255H264.31H264.37H264.409H264.614H264.679L264.704 41.8009L264.948 42.1312L264.923 43.0207H264.863H264.653H264.499H264.439H264.383H264.345L264.293 43.0503L264.238 43.0927L264.182 43.1435L264.135 43.1943C264.112 43.2193 264.092 43.2463 264.075 43.2748L264.028 43.3553C264.014 43.3842 264.003 43.4139 263.993 43.4442C263.992 43.4526 263.992 43.4612 263.993 43.4696V43.4993C263.996 43.5104 263.996 43.522 263.993 43.5331V43.5628ZM269.163 43.5162C269.161 43.5402 269.161 43.5643 269.163 43.5882C269.159 43.6052 269.052 43.7153 269.052 43.7153C269.054 43.7307 269.054 43.7464 269.052 43.7619C269.052 43.7679 269.055 43.7696 269.058 43.7713C269.063 43.7742 269.068 43.7769 269.052 43.8042C269.026 43.8466 269.026 43.8889 269.026 43.9313V43.9694V44.0414C269.027 44.0555 269.027 44.0696 269.026 44.0837L268.996 44.1642C268.994 44.1797 268.994 44.1953 268.996 44.2108C268.994 44.222 268.994 44.2335 268.996 44.2447C268.994 44.2587 268.994 44.273 268.996 44.287L268.97 44.3294L268.923 44.4099L268.902 44.4437C268.883 44.4764 268.861 44.5076 268.837 44.5369L268.752 44.6428C268.717 44.6843 268.68 44.7239 268.64 44.7614L265.749 47.5906L265.724 47.6202H265.694L265.664 47.6456L265.621 47.6795H265.591L265.505 47.7261H265.48L265.368 47.7727H265.27H265.24H265.128C264.812 47.789 264.509 47.6455 264.323 47.3915L264.079 47.0612C264.266 47.3129 264.569 47.4546 264.884 47.4381C264.921 47.4402 264.959 47.4402 264.996 47.4381H265.026L265.124 47.4127L265.231 47.3703H265.261L265.347 47.3238H265.372H265.398L265.445 47.2899L265.475 47.2645L265.531 47.2179L268.422 44.3845C268.461 44.347 268.498 44.3074 268.533 44.2659L268.623 44.1557L268.696 44.0541C268.697 44.0428 268.697 44.0315 268.696 44.0202L268.743 43.9397L268.769 43.8974L268.807 43.8212C268.806 43.8057 268.806 43.7901 268.807 43.7746C268.837 43.7492 268.837 43.7237 268.837 43.6941V43.656L268.863 43.5713V43.5289L268.889 43.4019V43.3129V43.2536C268.887 43.2297 268.887 43.2056 268.889 43.1816V43.1223C268.891 43.0984 268.891 43.0743 268.889 43.0503V42.991V42.919V42.864V42.7877V42.7369C268.891 42.7115 268.891 42.6861 268.889 42.6607C268.891 42.6438 268.891 42.6268 268.889 42.6099C268.881 42.581 268.871 42.5527 268.859 42.5252C268.86 42.5111 268.86 42.4969 268.859 42.4828C268.855 42.474 268.851 42.4649 268.847 42.4557C268.834 42.4252 268.82 42.3935 268.803 42.3642L269.052 42.6988L269.107 42.8174V42.8597L269.142 42.9444V42.991C269.151 43.0159 269.158 43.0414 269.163 43.0673V43.1223V43.1986C269.161 43.2169 269.161 43.2353 269.163 43.2536C269.161 43.2776 269.161 43.3017 269.163 43.3256V43.3849C269.165 43.4089 269.165 43.433 269.163 43.4569V43.5162Z" fill="#0670A6"/>
<path d="M261.274 43.6009L261.522 43.9355L261.278 43.6009" fill="#9A7D7C"/>
<path d="M261.312 43.6519L261.561 43.9865L261.522 43.9357L261.274 43.6011L261.312 43.6519Z" fill="#957978"/>
<path d="M268.619 42.1863L268.863 42.5209C268.889 42.559 268.919 42.5971 268.944 42.6395L268.696 42.3049C268.675 42.2668 268.645 42.2244 268.619 42.1863Z" fill="#B89695"/>
<path d="M268.696 42.3051L268.944 42.6397C268.954 42.6604 268.966 42.6802 268.979 42.699L268.73 42.3644C268.72 42.3438 268.709 42.324 268.696 42.3051Z" fill="#BD9A99"/>
<path d="M263.993 47.1458L264.237 47.4762L264.173 47.3957L263.929 47.0611L263.993 47.1458Z" fill="#957978"/>
<path d="M265.565 44.3421C265.976 44.0168 266.175 43.4954 266.083 42.9825C266.088 42.929 266.088 42.8751 266.083 42.8216V40.8352C266.088 40.5791 265.991 40.3314 265.814 40.1449C265.637 39.9637 265.399 39.8523 265.145 39.8315C265.056 39.823 264.965 39.823 264.876 39.8315C264.686 39.8432 264.499 39.8861 264.323 39.9585C264.048 40.0649 263.799 40.2297 263.595 40.4414L261.484 42.559C261.168 42.8252 261.082 43.273 261.278 43.6348L261.316 43.6856L264.109 40.8945C264.197 40.8035 264.304 40.7314 264.422 40.6828C264.486 40.6582 264.554 40.6439 264.623 40.6404C264.67 40.6362 264.717 40.6362 264.764 40.6404C264.868 40.6564 264.964 40.7072 265.034 40.7844C265.1 40.8657 265.13 40.969 265.12 41.0724L265.085 43.0164C265.085 43.0164 265.085 43.1138 265.085 43.1901C265.115 43.3785 265.048 43.5692 264.906 43.6983C264.765 43.8425 264.576 43.9326 264.375 43.9524C264.202 43.9682 264.031 43.9034 263.914 43.7772C263.796 43.6509 263.745 43.4777 263.775 43.3087C263.8 43.1222 263.888 42.9493 264.023 42.8174C264.158 42.677 264.351 42.6053 264.546 42.6225H264.751H264.799L264.824 41.7331H264.657C264.189 41.7214 263.742 41.9209 263.441 42.2752C263.13 42.5788 262.925 42.9716 262.854 43.3976C262.786 43.7943 262.892 44.2009 263.145 44.5157C263.426 44.839 263.847 45.0092 264.276 44.9731C264.77 44.9278 265.229 44.7029 265.565 44.3421Z" fill="#D4F7FF"/>
<path d="M268.73 42.3642C268.562 42.0589 268.304 41.8119 267.989 41.6569C267.692 41.5148 267.363 41.4506 267.034 41.4705H266.961L266.662 41.5002L266.37 41.5298L266.417 42.4785L266.584 42.4531H266.889H266.94C267.075 42.4455 267.209 42.4733 267.33 42.5336C267.453 42.6032 267.551 42.708 267.612 42.8343C267.675 42.9663 267.694 43.1149 267.664 43.2578C267.634 43.4077 267.554 43.5434 267.437 43.6433L263.942 47.0611L264.006 47.1459C264.193 47.3976 264.496 47.5393 264.811 47.5228C265.059 47.5053 265.293 47.4018 265.471 47.2306L268.362 44.3971C268.644 44.129 268.835 43.7815 268.91 43.4018C268.969 43.0458 268.906 42.6806 268.73 42.3642Z" fill="#D4F7FF"/>
</g>
<g opacity="0.75">
<path d="M248.874 40.1678H248.916C249.963 39.7905 250.819 39.0191 251.303 38.0187C251.704 37.2247 251.94 36.3578 251.996 35.4703C252.047 34.7094 251.996 33.9451 251.843 33.198C251.696 32.4765 251.463 31.775 251.15 31.1084C250.828 30.4205 250.418 29.7779 249.929 29.1971C249.38 28.5102 248.703 27.9373 247.934 27.5109C246.887 26.9205 245.643 26.7898 244.496 27.1499H244.454L241.952 27.9993L241.893 29.7407C241.599 30.4758 241.433 31.2559 241.404 32.047C241.374 32.8044 241.443 33.5624 241.608 34.3023C241.682 34.6299 241.775 34.9532 241.884 35.2707C242.012 35.6487 242.166 36.0176 242.344 36.375C242.682 37.0606 243.111 37.6978 243.62 38.2693C244.1 38.8114 244.663 39.2744 245.288 39.6411L246.402 40.9833L248.874 40.1678Z" fill="#056392"/>
<path d="M241.808 29.5878L247.934 27.5109C246.887 26.9205 245.643 26.7898 244.496 27.1499H244.454L241.952 27.9993L241.808 29.5878Z" fill="#056392"/>
<path d="M248.874 40.1678H248.916C249.963 39.7905 250.819 39.019 251.303 38.0187L245.381 40.0234L246.377 41.0172L248.874 40.1678Z" fill="#52BEF4"/>
<path d="M241.374 32.0682L249.929 29.1503C249.376 28.4802 248.699 27.9235 247.934 27.5109L241.808 29.5836L241.867 29.7577C241.573 30.4928 241.408 31.2729 241.378 32.064L241.374 32.0682Z" fill="#0670A6"/>
<path d="M241.578 34.3275L251.15 31.0656C250.829 30.3778 250.418 29.7351 249.929 29.1544L241.382 32.068C241.353 32.8254 241.422 33.5834 241.587 34.3233L241.578 34.3275Z" fill="#0784C3"/>
<path d="M242.314 36.409L251.843 33.164C251.696 32.4425 251.463 31.741 251.15 31.0744L241.578 34.3363C241.652 34.6639 241.745 34.9871 241.855 35.3047C241.983 35.6827 242.136 36.0516 242.314 36.409Z" fill="#1296D9"/>
<path d="M243.59 38.3032L251.996 35.4363C252.047 34.6755 251.996 33.9112 251.843 33.164L242.314 36.409C242.652 37.0946 243.082 37.7317 243.59 38.3032Z" fill="#26A9EB"/>
<path d="M245.381 40.0231L251.307 38.0014C251.708 37.2074 251.944 36.3405 252 35.453L243.59 38.32C244.07 38.8621 244.633 39.3251 245.258 39.6918L245.381 40.0231Z" fill="#3BB4F1"/>
<ellipse cx="244.133" cy="34.5187" rx="5.46978" ry="6.87324" transform="rotate(-18.84 244.133 34.5187)" fill="url(#paint25_linear_690_53568)"/>
<path d="M246.355 41.0045C246.735 40.8673 247.095 40.6786 247.423 40.4439C247.752 40.2091 248.049 39.9337 248.308 39.6241C248.822 39.0015 249.198 38.2779 249.414 37.5005C249.634 36.7263 249.726 35.9215 249.686 35.1178C249.607 33.5043 249.075 31.9457 248.151 30.6199C247.688 29.9666 247.122 29.3928 246.474 28.921C245.83 28.4339 245.089 28.0906 244.301 27.9144C243.907 27.8245 243.504 27.7874 243.101 27.804C242.697 27.8207 242.297 27.8892 241.91 28.0078C242.683 27.7375 243.514 27.6789 244.318 27.8379C245.122 28.0013 245.882 28.3343 246.547 28.8148C247.207 29.2939 247.782 29.8796 248.248 30.5477C248.721 31.2166 249.096 31.9487 249.363 32.7223C249.634 33.4998 249.792 34.3123 249.831 35.1348C249.871 35.9528 249.77 36.7716 249.533 37.5557C249.296 38.3365 248.899 39.0596 248.368 39.6794C247.828 40.2936 247.133 40.7513 246.355 41.0045Z" fill="#67C4FB"/>
<path d="M248.593 32.9855C248.075 31.4045 247.022 30.0529 245.615 29.1629C244.003 28.1818 242.714 28.3942 242.089 28.6065C241.463 28.8189 240.31 29.456 239.634 31.2016C238.536 34.4348 239.759 38.0008 242.612 39.8831C244.224 40.8642 245.513 40.6561 246.138 40.4394C246.764 40.2228 247.917 39.59 248.593 37.8486C249.161 36.2772 249.161 34.5569 248.593 32.9855Z" fill="url(#paint26_linear_690_53568)"/>
<path d="M245.628 29.1461C245.181 28.8965 244.701 28.7093 244.203 28.5897C243.709 28.4802 243.2 28.4658 242.701 28.5472C242.452 28.5913 242.21 28.664 241.978 28.7638C241.751 28.8621 241.536 28.9846 241.336 29.1291C240.933 29.4213 240.588 29.7857 240.319 30.2037C240.052 30.6241 239.843 31.0784 239.698 31.5543C239.552 32.0282 239.461 32.5168 239.425 33.0111C239.393 33.51 239.411 34.011 239.481 34.5062C239.556 35.0096 239.68 35.5046 239.851 35.9842C240.016 36.4572 240.223 36.9148 240.468 37.3518C240.716 37.7719 241.004 38.1673 241.327 38.5326C241.659 38.9054 242.033 39.2389 242.442 39.5264C242.849 39.8134 243.293 40.0461 243.76 40.2188C244.229 40.3859 244.726 40.4637 245.224 40.4481C245.471 40.4419 245.716 40.4077 245.955 40.3462C246.196 40.2815 246.429 40.1904 246.649 40.0743C247.095 39.8364 247.489 39.5131 247.81 39.123C248.13 38.7243 248.395 38.2843 248.597 37.8148C248.432 38.3055 248.196 38.7692 247.895 39.1909C247.586 39.6148 247.196 39.9729 246.747 40.2442C246.516 40.3775 246.273 40.4858 246.019 40.567C245.764 40.6425 245.502 40.6909 245.237 40.7114C244.704 40.7453 244.17 40.6775 243.663 40.5118C242.656 40.1702 241.755 39.5747 241.046 38.7832C239.625 37.1922 238.909 35.0951 239.06 32.9686C239.135 31.907 239.484 30.8828 240.072 29.9956C240.372 29.5553 240.753 29.1762 241.195 28.8785C241.418 28.7323 241.656 28.6112 241.906 28.5175C242.154 28.424 242.412 28.3599 242.676 28.3264C243.198 28.2677 243.727 28.3125 244.233 28.458C244.729 28.617 245.2 28.8489 245.628 29.1461Z" fill="#0670A6"/>
<path fill-rule="evenodd" clip-rule="evenodd" d="M244.943 30.8235H245.011L245.117 30.9127H245.164H245.198L245.313 30.9722L245.347 30.9977L245.411 31.0359L245.445 31.0614L245.513 31.1123L245.551 31.1421L245.581 31.1676L245.611 31.2015L245.649 31.2313L245.713 31.2992L245.738 31.329C245.748 31.3396 245.756 31.3501 245.764 31.3605C245.78 31.3793 245.794 31.3975 245.811 31.4139L245.887 31.5243C245.896 31.5376 245.904 31.5505 245.913 31.5632C245.934 31.5955 245.954 31.6268 245.972 31.6602L247.921 35.1345C247.919 35.1444 247.919 35.1544 247.921 35.1643V35.1982V35.2322L247.942 35.2832C247.94 35.2944 247.94 35.3059 247.942 35.3172V35.3426L247.968 35.4403V35.4658V35.5805V35.6952C247.965 35.705 247.965 35.7151 247.968 35.7249V35.8353C247.9 36.1375 247.684 36.385 247.393 36.4936L247.01 36.6338C247.302 36.5265 247.518 36.2784 247.585 35.9755C247.587 35.9387 247.587 35.9018 247.585 35.8651C247.583 35.8552 247.583 35.8452 247.585 35.8353V35.7249C247.587 35.6867 247.587 35.6484 247.585 35.6102V35.5805L247.559 35.487V35.4616V35.4276L247.538 35.3766V35.3384L247.508 35.2747L245.564 31.7919C245.538 31.7451 245.51 31.6997 245.479 31.656L245.398 31.5413C245.373 31.5083 245.346 31.477 245.317 31.4479L245.292 31.4182L245.228 31.3502L245.19 31.3162L245.13 31.261L245.092 31.227L245.024 31.1761L244.99 31.1506L244.913 31.1039L244.879 31.0826L244.764 31.0232L244.683 30.9892L244.628 30.9637L244.56 30.9425H244.505H244.437H244.377H244.309H244.25H243.862L243.731 30.9637L244.113 30.8235H244.241H244.288H244.373H244.632H244.692H244.76H244.82H244.888H244.943ZM243.705 32.5181L243.646 32.8154V32.9768L243.263 33.117V32.9556L243.322 32.6625V32.6285C243.348 32.4981 243.41 32.3776 243.501 32.2802C243.567 32.2111 243.649 32.1587 243.739 32.1273L244.103 31.9941C244.02 32.026 243.945 32.0758 243.884 32.1401C243.793 32.2358 243.731 32.355 243.705 32.4841C243.703 32.4954 243.703 32.5068 243.705 32.5181ZM244.122 31.9872C244.116 31.9894 244.109 31.9917 244.103 31.9941L244.122 31.9872ZM241.429 34.6546V34.6249C241.427 34.6065 241.427 34.588 241.429 34.5697C241.427 34.5499 241.427 34.53 241.429 34.5102V34.4847V34.3998C241.418 34.3337 241.418 34.2663 241.429 34.2002C241.441 34.1536 241.457 34.1082 241.476 34.0642C241.516 33.9698 241.588 33.8929 241.68 33.8476L241.297 33.9878C241.206 34.032 241.134 34.1073 241.093 34.2002C241.074 34.2443 241.059 34.2897 241.046 34.3361C241.036 34.4036 241.036 34.4724 241.046 34.5399V34.6206C241.046 34.6305 241.046 34.6405 241.046 34.6504V34.6971C241.044 34.7055 241.044 34.7142 241.046 34.7226C241.045 34.7409 241.045 34.7594 241.046 34.7778V34.8033C241.055 34.8225 241.064 34.841 241.076 34.8585L243.012 38.2266L243.394 38.0822L241.467 34.7098C241.453 34.6929 241.44 34.6744 241.429 34.6546ZM243.68 35.6994H243.637H243.607H243.577H243.552H243.531L243.454 35.6399C243.429 35.6194 243.407 35.5967 243.386 35.5719L243.326 35.4955L243.288 35.436C243.288 35.4201 243.278 35.4058 243.269 35.3921L243.269 35.3921C243.263 35.3839 243.257 35.376 243.254 35.3681C243.245 35.3475 243.238 35.3262 243.233 35.3044V35.2534C243.231 35.2407 243.231 35.2278 243.233 35.2152C243.231 35.1968 243.231 35.1783 243.233 35.16V35.1047V35.058V34.9901C243.233 34.9901 243.258 34.8669 243.275 34.7947C243.287 34.7448 243.283 34.7415 243.279 34.7387C243.277 34.7374 243.275 34.7362 243.275 34.731L242.425 34.4761L242.042 34.6163L242.893 34.8754V34.9348L242.85 35.1345V35.1982V35.2449V35.3044C242.848 35.3227 242.848 35.3412 242.85 35.3596C242.848 35.3737 242.848 35.388 242.85 35.402V35.4573C242.848 35.477 242.848 35.497 242.85 35.5167L242.876 35.5634L242.914 35.6229C242.931 35.6515 242.951 35.6785 242.973 35.7036L243.041 35.7673L243.118 35.8268H243.144H243.173H243.203H243.233L243.339 35.8608H243.373H243.441H243.543H243.586H243.68H243.722L244.105 35.7163H244.028H243.986H243.884H243.811H243.782C243.747 35.7149 243.713 35.7091 243.68 35.6994ZM245.432 35.5084V35.4659V35.3385V35.313V35.1601V35.1219V34.9944V34.9562C245.432 34.9435 245.432 34.85 245.402 34.7991C245.401 34.7907 245.401 34.782 245.402 34.7736L245.377 34.6844V34.6462L245.351 34.5782L245.313 34.4805L245.279 34.4126V34.3786L245.219 34.2724L245.156 34.162L245.134 34.128L245.096 34.0728L245.045 34.0048L245.024 33.9751C245.015 33.9645 245.006 33.9539 244.998 33.9435C244.983 33.9247 244.968 33.9066 244.951 33.8902L244.892 33.8222H244.871L244.832 33.7882H244.807L244.769 33.7542H244.739H244.718L244.671 33.7288H244.645C244.63 33.717 244.613 33.7083 244.594 33.7033C244.563 33.6869 244.53 33.674 244.496 33.665H244.471L244.373 33.6353L244.258 33.6056H244.228L244.113 33.5759L243.956 33.5376L241.978 32.8581L241.846 32.8326H241.723H241.697H241.582H241.467H241.404L241.021 32.9727H241.089L241.204 32.9473H241.225H241.34H241.365H241.489C241.533 32.9516 241.577 32.9602 241.621 32.9727L243.514 33.4994L243.671 33.5419L243.786 33.5674H243.816L243.931 33.5928L244.028 33.6226H244.054L244.152 33.6608H244.177L244.228 33.6863H244.254C244.271 33.6936 244.287 33.7037 244.301 33.716L244.339 33.7373H244.364L244.403 33.767H244.428L244.471 33.8095H244.492L244.552 33.8774L244.624 33.9666L244.645 33.9963L244.696 34.0643L244.739 34.128C244.744 34.1402 244.751 34.1517 244.76 34.162L244.824 34.2724C244.842 34.3029 244.856 34.3319 244.871 34.3603C244.881 34.3793 244.89 34.3981 244.9 34.4168C244.909 34.4402 244.919 34.4629 244.93 34.4848L244.956 34.7099L244.981 34.7778L245.02 34.901C245.017 34.9108 245.017 34.921 245.02 34.9307C245.02 34.9817 245.02 35.0327 245.049 35.0879C245.069 35.1247 245.063 35.1238 245.056 35.1228C245.053 35.1223 245.049 35.1219 245.049 35.1261V35.2493V35.2875V35.4404V35.4701V35.5976C245.047 35.6102 245.047 35.6231 245.049 35.6358L245.024 35.7844C244.942 36.1976 244.669 36.5476 244.288 36.7273L244.211 36.7571L244.594 36.6169L244.671 36.5829C245.052 36.4032 245.325 36.0532 245.407 35.64C245.419 35.6061 245.428 35.5593 245.432 35.5084Z" fill="#0670A6"/>
<path d="M242.965 38.2605L243.348 38.1204L242.965 38.2648" fill="#9A7D7C"/>
<path d="M243.02 38.2393L243.403 38.0949L243.348 38.1204L242.965 38.2605L243.02 38.2393Z" fill="#957978"/>
<path d="M243.531 30.968L243.914 30.8236L244.05 30.7811L243.667 30.9212L243.531 30.968Z" fill="#B89695"/>
<path d="M243.68 30.9212L244.062 30.7811H244.126L243.743 30.9212H243.68Z" fill="#BD9A99"/>
<path d="M247.053 36.6338L247.436 36.4937L247.342 36.5319L246.959 36.6721L247.053 36.6338Z" fill="#957978"/>
<path d="M244.79 34.4125C244.587 33.9388 244.142 33.6132 243.629 33.5631L243.471 33.5206L241.578 33.0109C241.335 32.9373 241.072 32.9617 240.846 33.0789C240.629 33.2035 240.461 33.3983 240.37 33.631C240.333 33.7051 240.302 33.7818 240.276 33.8604C240.244 34.043 240.244 34.2298 240.276 34.4125C240.305 34.7011 240.398 34.9797 240.549 35.228L241.995 37.7764C242.164 38.1497 242.575 38.3497 242.973 38.252H243.029L241.093 34.884C241.03 34.7773 240.989 34.6587 240.974 34.5357C240.963 34.4681 240.963 34.3993 240.974 34.3318C240.986 34.2855 241.002 34.2401 241.021 34.1959C241.061 34.1031 241.134 34.0278 241.225 33.9835C241.32 33.9429 241.428 33.9429 241.523 33.9835L243.369 34.5272L243.535 34.5782C243.718 34.6044 243.877 34.7186 243.96 34.884C244.059 35.0547 244.095 35.2544 244.062 35.4488C244.034 35.6166 243.928 35.7612 243.777 35.839C243.625 35.9168 243.446 35.9186 243.292 35.8438C243.112 35.7761 242.961 35.6467 242.867 35.4786C242.767 35.315 242.748 35.1143 242.816 34.9349L242.859 34.7353V34.6758L242.008 34.4168L241.978 34.5824C241.852 35.0163 241.927 35.4836 242.182 35.8566C242.387 36.2324 242.71 36.5308 243.101 36.706C243.464 36.867 243.878 36.867 244.241 36.706C244.623 36.5263 244.896 36.1763 244.977 35.7631C245.078 35.305 245.011 34.8261 244.79 34.4125Z" fill="#D4F7FF"/>
<path d="M243.731 30.8873C243.402 30.9702 243.106 31.1491 242.88 31.4012C242.669 31.6442 242.523 31.9363 242.454 32.2506V32.3228L242.403 32.6117L242.357 32.8962L243.275 33.1001V32.9387L243.335 32.6456C243.335 32.6456 243.335 32.6201 243.335 32.6117C243.361 32.4813 243.423 32.3607 243.514 32.2634C243.611 32.1646 243.738 32.0991 243.875 32.0765C244.02 32.0509 244.169 32.0717 244.301 32.136C244.436 32.2059 244.545 32.3177 244.611 32.4545L246.976 36.6551L247.07 36.6168C247.348 36.5098 247.557 36.2734 247.627 35.984C247.677 35.7452 247.64 35.4964 247.521 35.2832L245.573 31.8132C245.39 31.4762 245.108 31.2035 244.764 31.0317C244.445 30.8713 244.082 30.8206 243.731 30.8873Z" fill="#D4F7FF"/>
</g>
<path d="M64.488 60H69.048V50.4L73.32 56.928H73.416L77.712 50.352V60H82.344V43.2H77.424L73.416 49.704L69.408 43.2H64.488V60Z" fill="white"/>
<path d="M85.324 60H91.708C97.756 60 101.284 56.4 101.284 51.552V51.504C101.284 46.656 97.804 43.2 91.804 43.2H85.324V60ZM89.98 55.872V47.328H91.876C94.66 47.328 96.508 48.888 96.508 51.576V51.624C96.508 54.336 94.66 55.872 91.876 55.872H89.98Z" fill="white"/>
<path d="M103.676 60H117.308V56.04H108.284V53.376H116.348V49.704H108.284V47.16H117.188V43.2H103.676V60Z" fill="white"/>
<path d="M118.459 60H123.691L126.931 54.936L130.147 60H135.499L129.739 51.408L135.259 43.2H130.027L127.027 47.928L124.051 43.2H118.699L124.219 51.456L118.459 60Z" fill="white"/>
<defs>
<linearGradient id="paint0_linear_690_53568" x1="337.783" y1="122.68" x2="337.783" y2="16.0266" gradientUnits="userSpaceOnUse">
<stop stop-color="#113658"/>
<stop offset="1" stop-color="#136594"/>
</linearGradient>
<linearGradient id="paint1_linear_690_53568" x1="181.626" y1="120.558" x2="213.432" y2="120.558" gradientUnits="userSpaceOnUse">
<stop stop-color="#35FFE3"/>
<stop offset="1" stop-color="#35FFE3" stop-opacity="0.01"/>
</linearGradient>
<linearGradient id="paint2_linear_690_53568" x1="163.765" y1="120.035" x2="210.603" y2="120.035" gradientUnits="userSpaceOnUse">
<stop stop-color="#FF914F"/>
<stop offset="0.27" stop-color="#FF914F" stop-opacity="0.99"/>
<stop offset="0.4" stop-color="#FF8F4E" stop-opacity="0.96"/>
<stop offset="0.51" stop-color="#FF8D4C" stop-opacity="0.91"/>
<stop offset="0.6" stop-color="#FF8A4A" stop-opacity="0.83"/>
<stop offset="0.69" stop-color="#FF8647" stop-opacity="0.74"/>
<stop offset="0.76" stop-color="#FF8243" stop-opacity="0.62"/>
<stop offset="0.83" stop-color="#FF7C3F" stop-opacity="0.48"/>
<stop offset="0.9" stop-color="#FF753A" stop-opacity="0.31"/>
<stop offset="0.96" stop-color="#FF6E34" stop-opacity="0.13"/>
<stop offset="1" stop-color="#FF6930" stop-opacity="0.01"/>
</linearGradient>
<linearGradient id="paint3_linear_690_53568" x1="301.173" y1="120.604" x2="328.942" y2="120.604" gradientUnits="userSpaceOnUse">
<stop stop-color="#35FFE3" stop-opacity="0.01"/>
<stop offset="1" stop-color="#35FFE3"/>
</linearGradient>
<linearGradient id="paint4_linear_690_53568" x1="302.271" y1="120.026" x2="350.833" y2="120.026" gradientUnits="userSpaceOnUse">
<stop stop-color="#FF6930" stop-opacity="0.01"/>
<stop offset="0.04" stop-color="#FF6E34" stop-opacity="0.13"/>
<stop offset="0.1" stop-color="#FF753A" stop-opacity="0.31"/>
<stop offset="0.17" stop-color="#FF7C3F" stop-opacity="0.48"/>
<stop offset="0.24" stop-color="#FF8243" stop-opacity="0.62"/>
<stop offset="0.31" stop-color="#FF8647" stop-opacity="0.74"/>
<stop offset="0.4" stop-color="#FF8A4A" stop-opacity="0.83"/>
<stop offset="0.49" stop-color="#FF8D4C" stop-opacity="0.91"/>
<stop offset="0.6" stop-color="#FF8F4E" stop-opacity="0.96"/>
<stop offset="0.73" stop-color="#FF914F" stop-opacity="0.99"/>
<stop offset="1" stop-color="#FF914F"/>
</linearGradient>
<linearGradient id="paint5_linear_690_53568" x1="173.342" y1="56.3112" x2="173.342" y2="31.008" gradientUnits="userSpaceOnUse">
<stop stop-color="#135681"/>
<stop offset="0.0001" stop-color="#124C73"/>
<stop offset="1" stop-color="#2F84B5"/>
</linearGradient>
<linearGradient id="paint6_linear_690_53568" x1="173.342" y1="56.3112" x2="173.342" y2="31.008" gradientUnits="userSpaceOnUse">
<stop stop-color="#135681"/>
<stop offset="0.0001" stop-color="#124C73"/>
<stop offset="1" stop-color="#2F84B5"/>
</linearGradient>
<linearGradient id="paint7_linear_690_53568" x1="173.342" y1="56.3112" x2="173.342" y2="31.008" gradientUnits="userSpaceOnUse">
<stop stop-color="#135681"/>
<stop offset="0.0001" stop-color="#124C73"/>
<stop offset="1" stop-color="#2F84B5"/>
</linearGradient>
<linearGradient id="paint8_linear_690_53568" x1="173.342" y1="56.3112" x2="173.342" y2="31.008" gradientUnits="userSpaceOnUse">
<stop stop-color="#135681"/>
<stop offset="0.0001" stop-color="#124C73"/>
<stop offset="1" stop-color="#2F84B5"/>
</linearGradient>
<linearGradient id="paint9_linear_690_53568" x1="173.342" y1="56.3112" x2="173.342" y2="31.008" gradientUnits="userSpaceOnUse">
<stop stop-color="#135681"/>
<stop offset="0.0001" stop-color="#124C73"/>
<stop offset="1" stop-color="#2F84B5"/>
</linearGradient>
<linearGradient id="paint10_linear_690_53568" x1="173.342" y1="56.3112" x2="173.342" y2="31.008" gradientUnits="userSpaceOnUse">
<stop stop-color="#135681"/>
<stop offset="0.0001" stop-color="#124C73"/>
<stop offset="1" stop-color="#2F84B5"/>
</linearGradient>
<linearGradient id="paint11_linear_690_53568" x1="173.342" y1="56.3112" x2="173.342" y2="31.008" gradientUnits="userSpaceOnUse">
<stop stop-color="#135681"/>
<stop offset="0.0001" stop-color="#124C73"/>
<stop offset="1" stop-color="#2F84B5"/>
</linearGradient>
<linearGradient id="paint12_linear_690_53568" x1="173.342" y1="56.3112" x2="173.342" y2="31.008" gradientUnits="userSpaceOnUse">
<stop stop-color="#135681"/>
<stop offset="0.0001" stop-color="#124C73"/>
<stop offset="1" stop-color="#2F84B5"/>
</linearGradient>
<linearGradient id="paint13_linear_690_53568" x1="151.438" y1="87.1956" x2="246.256" y2="87.1956" gradientUnits="userSpaceOnUse">
<stop stop-color="#FF914F"/>
<stop offset="0.440184" stop-color="#FF773A" stop-opacity="0.205372"/>
<stop offset="1" stop-color="#FF6930" stop-opacity="0.01"/>
</linearGradient>
<linearGradient id="paint14_linear_690_53568" x1="270.363" y1="55.137" x2="356.434" y2="55.137" gradientUnits="userSpaceOnUse">
<stop stop-color="#2BCBB4" stop-opacity="0.01"/>
<stop offset="0.756255" stop-color="#2BCBB4" stop-opacity="0.5"/>
<stop offset="1" stop-color="#2BCBB4"/>
</linearGradient>
<linearGradient id="paint15_linear_690_53568" x1="209.049" y1="115.773" x2="302.585" y2="115.773" gradientUnits="userSpaceOnUse">
<stop stop-color="#43B9F4"/>
<stop stop-color="#1172C1"/>
<stop offset="0.99" stop-color="#094C6D"/>
</linearGradient>
<linearGradient id="paint16_linear_690_53568" x1="283.087" y1="98.5858" x2="283.087" y2="1.81445" gradientUnits="userSpaceOnUse">
<stop stop-color="#4BBEFF" stop-opacity="0.2"/>
<stop offset="1" stop-color="white" stop-opacity="0.01"/>
</linearGradient>
<linearGradient id="paint17_linear_690_53568" x1="256.699" y1="85.8317" x2="274.47" y2="90.1756" gradientUnits="userSpaceOnUse">
<stop stop-color="#61C8FB"/>
<stop offset="1" stop-color="#1296D9"/>
</linearGradient>
<linearGradient id="paint18_linear_690_53568" x1="281.582" y1="68.5633" x2="264.12" y2="65.4736" gradientUnits="userSpaceOnUse">
<stop stop-color="#0784C3"/>
<stop offset="1" stop-color="#49B5EC"/>
</linearGradient>
<linearGradient id="paint19_linear_690_53568" x1="230.188" y1="66.8175" x2="248.771" y2="76.4354" gradientUnits="userSpaceOnUse">
<stop stop-color="#61C8FB"/>
<stop offset="1" stop-color="#1296D9"/>
</linearGradient>
<linearGradient id="paint20_linear_690_53568" x1="255.927" y1="54.2233" x2="241.182" y2="51.6173" gradientUnits="userSpaceOnUse">
<stop stop-color="#0784C3"/>
<stop offset="1" stop-color="#49B5EC"/>
</linearGradient>
<linearGradient id="paint21_linear_690_53568" x1="259.177" y1="17.7892" x2="264.832" y2="25.1449" gradientUnits="userSpaceOnUse">
<stop stop-color="#61C8FB"/>
<stop offset="1" stop-color="#1296D9"/>
</linearGradient>
<linearGradient id="paint22_linear_690_53568" x1="268.801" y1="14.7743" x2="261.607" y2="13.5229" gradientUnits="userSpaceOnUse">
<stop stop-color="#0784C3"/>
<stop offset="1" stop-color="#49B5EC"/>
</linearGradient>
<linearGradient id="paint23_linear_690_53568" x1="251.96" y1="46.9509" x2="266.674" y2="57.1214" gradientUnits="userSpaceOnUse">
<stop stop-color="#1296D9"/>
<stop offset="0.765625" stop-color="#61C8FB"/>
</linearGradient>
<linearGradient id="paint24_linear_690_53568" x1="276.207" y1="38.0861" x2="262.348" y2="34.78" gradientUnits="userSpaceOnUse">
<stop stop-color="#49B5EC"/>
<stop offset="1" stop-color="#0784C3"/>
</linearGradient>
<linearGradient id="paint25_linear_690_53568" x1="243.672" y1="41.1724" x2="240.816" y2="27.6516" gradientUnits="userSpaceOnUse">
<stop stop-color="#1296D9"/>
<stop offset="1" stop-color="#61C8FB"/>
</linearGradient>
<linearGradient id="paint26_linear_690_53568" x1="241.338" y1="29.8208" x2="246.712" y2="39.3474" gradientUnits="userSpaceOnUse">
<stop stop-color="#49B5EC"/>
<stop offset="1" stop-color="#0784C3"/>
</linearGradient>
</defs>
</svg>
