<svg width="357" height="125" viewBox="0 0 357 125" fill="none" xmlns="http://www.w3.org/2000/svg">
<rect y="15" width="343" height="110" rx="20" fill="url(#paint0_linear_22_51159)"/>
<mask id="mask0_22_51159" style="mask-type:luminance" maskUnits="userSpaceOnUse" x="0" y="15" width="343" height="110">
<rect y="15" width="343" height="110" rx="20" fill="white"/>
</mask>
<g mask="url(#mask0_22_51159)">
<path opacity="0.41" d="M211.562 100.654C212.001 100.469 212.506 100.675 212.691 101.114C212.865 101.527 212.693 101.999 212.306 102.207L212.231 102.243L197.525 108.43L204.842 108.431C205.739 108.431 206.025 109.614 205.275 110.038L205.202 110.076L183.521 120.048C183.089 120.247 182.577 120.057 182.378 119.625C182.19 119.217 182.347 118.74 182.727 118.519L182.801 118.481L200.903 110.155L193.254 110.155C192.342 110.155 192.069 108.94 192.844 108.534L192.92 108.498L211.562 100.654Z" fill="url(#paint1_linear_22_51159)"/>
<path opacity="0.41" d="M209.446 99.1697C209.753 99.0861 210.069 99.2666 210.152 99.5728C210.23 99.8571 210.08 100.15 209.813 100.257L209.749 100.279L172.921 110.335L182.7 110.336C183.293 110.336 183.486 111.111 183.002 111.4L182.943 111.431L165.013 119.785C164.725 119.919 164.383 119.795 164.249 119.507C164.125 119.24 164.223 118.926 164.468 118.775L164.527 118.743L180.106 111.484L168.634 111.485C167.988 111.485 167.846 110.599 168.417 110.378L168.483 110.356L209.446 99.1697Z" fill="url(#paint2_linear_22_51159)"/>
<path opacity="0.41" d="M301.89 101.731C302.042 101.31 302.488 101.079 302.914 101.187L302.993 101.212L323.729 108.671C324.611 108.988 324.416 110.266 323.52 110.341L323.437 110.344L312.213 110.344L327.813 118.5C328.21 118.708 328.378 119.182 328.213 119.588L328.178 119.664C327.97 120.061 327.497 120.229 327.09 120.063L327.014 120.028L308.305 110.246C307.53 109.841 307.786 108.692 308.624 108.623L308.704 108.62L318.493 108.62L302.409 102.834C301.988 102.682 301.757 102.236 301.866 101.811L301.89 101.731Z" fill="url(#paint3_linear_22_51159)"/>
<path opacity="0.41" d="M302.719 99.5824C302.792 99.2967 303.067 99.1161 303.352 99.1544L303.418 99.1672L344.686 109.672C345.321 109.834 345.226 110.742 344.609 110.801L344.538 110.803L333.482 110.684L350.079 118.747C350.344 118.876 350.465 119.182 350.37 119.454L350.345 119.516C350.216 119.781 349.91 119.902 349.638 119.807L349.576 119.781L330.677 110.6C330.146 110.342 330.307 109.562 330.868 109.511L330.934 109.508L339.754 109.602L303.134 100.281C302.849 100.208 302.668 99.9335 302.706 99.6483L302.719 99.5824Z" fill="url(#paint4_linear_22_51159)"/>
</g>
<g opacity="0.667528">
<path d="M17.7361 51H23.0561V39.8L28.0401 47.416H28.1521L33.1641 39.744V51H38.5681V31.4H32.8281L28.1521 38.988L23.4761 31.4H17.7361V51Z" fill="url(#paint5_linear_22_51159)"/>
<path d="M42.0447 51H49.4927C56.5487 51 60.6647 46.8 60.6647 41.144V41.088C60.6647 35.432 56.6047 31.4 49.6047 31.4H42.0447V51ZM47.4767 46.184V36.216H49.6887C52.9367 36.216 55.0927 38.036 55.0927 41.172V41.228C55.0927 44.392 52.9367 46.184 49.6887 46.184H47.4767Z" fill="url(#paint6_linear_22_51159)"/>
<path d="M63.4548 51H79.3588V46.38H68.8308V43.272H78.2388V38.988H68.8308V36.02H79.2188V31.4H63.4548V51Z" fill="url(#paint7_linear_22_51159)"/>
<path d="M80.7026 51H86.8066L90.5866 45.092L94.3386 51H100.583L93.8626 40.976L100.303 31.4H94.1986L90.6986 36.916L87.2266 31.4H80.9826L87.4226 41.032L80.7026 51Z" fill="url(#paint8_linear_22_51159)"/>
<path d="M102.106 51H107.65V45.54H102.106V51Z" fill="url(#paint9_linear_22_51159)"/>
<path d="M119.184 51.392C123.524 51.392 126.016 49.516 127.864 46.968L123.776 44.056C122.6 45.484 121.396 46.436 119.352 46.436C116.608 46.436 114.676 44.14 114.676 41.2V41.144C114.676 38.288 116.608 35.964 119.352 35.964C121.228 35.964 122.516 36.86 123.636 38.26L127.724 35.096C125.988 32.688 123.412 31.008 119.408 31.008C113.472 31.008 109.076 35.488 109.076 41.2V41.256C109.076 47.108 113.584 51.392 119.184 51.392Z" fill="url(#paint10_linear_22_51159)"/>
<path d="M139.51 51.392C145.558 51.392 150.094 46.828 150.094 41.2V41.144C150.094 35.516 145.614 31.008 139.566 31.008C133.518 31.008 128.982 35.572 128.982 41.2V41.256C128.982 46.884 133.462 51.392 139.51 51.392ZM139.566 46.492C136.598 46.492 134.554 44.028 134.554 41.2V41.144C134.554 38.316 136.542 35.908 139.51 35.908C142.506 35.908 144.55 38.372 144.55 41.2V41.256C144.55 44.084 142.562 46.492 139.566 46.492Z" fill="url(#paint11_linear_22_51159)"/>
<path d="M152.924 51H158.244V39.8L163.228 47.416H163.34L168.352 39.744V51H173.756V31.4H168.016L163.34 38.988L158.664 31.4H152.924V51Z" fill="url(#paint12_linear_22_51159)"/>
</g>
<path d="M245.172 61.9917C245.602 61.3247 246.491 61.1326 247.158 61.5625C247.825 61.9924 248.017 62.8816 247.587 63.5486C247.187 64.1693 246.788 64.7775 246.39 65.3735L245.795 66.2581C245.597 66.5499 245.399 66.8387 245.201 67.1244L244.61 67.9722C235.746 80.5529 227.492 86.957 219.633 88.1435C212.903 89.1595 207.209 86.4927 201.354 81.0111L201.027 80.7018L200.578 80.2604L199.621 79.2933L196.566 76.1682L195.789 75.3866L195.422 75.0243L195.192 74.8033L194.956 74.5873C194.94 74.5734 194.925 74.5605 194.911 74.5487C188.415 68.6414 182.22 66.7565 176.269 68.1265C171.475 69.2302 166.967 72.4112 162.87 77.0476C161.026 79.1343 159.39 81.3759 157.985 83.6171C157.555 84.3026 157.175 84.9444 156.846 85.5294L156.635 85.9088L156.442 86.2661L156.286 86.5665C155.932 87.2767 155.069 87.5655 154.359 87.2115C153.649 86.8576 153.36 85.9949 153.714 85.2847L153.853 85.0154L154.126 84.5082L154.194 84.3852C154.578 83.6911 155.031 82.9199 155.55 82.0908C157.034 79.7244 158.76 77.3584 160.717 75.1447C165.176 70.099 170.155 66.5854 175.624 65.3262C182.538 63.7346 189.681 65.9079 196.802 72.3855L196.914 72.4828L197.049 72.6069L197.386 72.9275L197.688 73.2235L198.394 73.9292L199.056 74.6011L202.092 77.7065L202.79 78.4071L203.078 78.6869C208.445 83.7816 213.437 86.1728 219.204 85.3022C223.703 84.6229 228.49 81.8993 233.59 76.826L234.119 76.2927C236.238 74.1262 238.411 71.5555 240.64 68.5589L241.198 67.8009C242.503 66.0115 243.828 64.0765 245.172 61.9917Z" fill="url(#paint13_linear_22_51159)"/>
<path d="M280.107 42.9237C280.467 42.5892 280.827 42.2617 281.188 41.9413L281.729 41.4661C282.09 41.1528 282.451 40.8468 282.812 40.5482L283.354 40.1058C290.401 34.4271 297.511 31.5906 304.363 32.9082C305.995 33.222 307.585 33.7751 309.127 34.5752C309.397 34.7153 309.665 34.8577 309.931 35.0027L310.462 35.2964C310.815 35.4949 311.166 35.6986 311.518 35.9086L312.045 36.2286C312.221 36.337 312.397 36.447 312.574 36.5589L313.106 36.9004C313.461 37.1318 313.82 37.3712 314.183 37.6196L314.731 37.999C314.823 38.0634 314.916 38.1284 315.008 38.194L315.569 38.5951L316.14 39.0116C316.236 39.0823 316.333 39.1537 316.43 39.2258L317.019 39.6669L317.621 40.1254C317.723 40.2033 317.825 40.2819 317.928 40.3614L318.553 40.8474L319.195 41.3527L319.855 41.8782L325.188 46.2083L325.956 46.8203L326.537 47.2763L327.095 47.7084L327.634 48.1185L328.155 48.5084L328.663 48.8803C328.746 48.9408 328.829 49.0007 328.912 49.06L329.404 49.4082C329.485 49.4651 329.566 49.5214 329.646 49.5772C338.55 55.733 345.232 55.6314 353.998 47.0987C354.567 46.5453 355.476 46.5575 356.03 47.1261C356.583 47.6947 356.571 48.6043 356.002 49.1578C346.189 58.7107 337.985 58.8353 328.012 51.9408L327.502 51.5835L326.984 51.2123C326.897 51.1492 326.809 51.0854 326.721 51.0209L326.186 50.6252C326.096 50.5578 326.005 50.4895 325.914 50.4205L325.356 49.9958L324.779 49.5493C324.681 49.473 324.582 49.3957 324.482 49.3173L323.299 48.3768L319.073 44.9378L318.403 44.3971L317.754 43.8775L317.048 43.319L316.364 42.7849L315.7 42.2742C315.591 42.191 315.483 42.1087 315.376 42.0273L314.739 41.5496C314.424 41.3161 314.116 41.0902 313.812 40.8716L313.211 40.4437C313.013 40.3041 312.816 40.1675 312.621 40.0338L312.041 39.6408C310.791 38.807 309.596 38.085 308.371 37.4258L307.804 37.1259C306.507 36.4531 305.18 35.9915 303.82 35.73C297.921 34.5956 291.483 37.2073 284.971 42.4963L284.442 42.931C284.002 43.2981 283.562 43.6773 283.121 44.0682L282.592 44.543C282.416 44.7031 282.239 44.8651 282.063 45.0289C279.772 47.1576 277.654 49.4425 275.764 51.7271C275.516 52.0267 275.279 52.3181 275.053 52.6004L274.616 53.1523C274.475 53.332 274.339 53.5073 274.209 53.6779L273.819 54.1942L273.564 54.5402L273.417 54.7442C272.961 55.3934 272.065 55.5499 271.415 55.0937C270.766 54.6374 270.61 53.7412 271.066 53.092L271.326 52.7325L271.514 52.4782L271.725 52.1972C271.856 52.0232 271.993 51.8444 272.135 51.661L272.576 51.0974C272.881 50.713 273.206 50.3116 273.55 49.8955C275.515 47.5198 277.717 45.1446 280.107 42.9237Z" fill="url(#paint14_linear_22_51159)"/>
<ellipse opacity="0.14" cx="257.012" cy="116.506" rx="49.1379" ry="5.45977" fill="#3EB1FF"/>
<path d="M292.822 111.047C284.374 109.995 271.404 109.322 256.846 109.322C242.287 109.322 229.322 109.995 220.874 111.047H210.747V113.917C210.747 116.458 231.387 118.517 256.846 118.517C282.305 118.517 302.948 116.458 302.948 113.917V111.047H292.822Z" fill="#3EB1FF"/>
<path d="M302.628 110.611L294.553 98.4023H216.442L210.89 110.791C210.808 110.88 210.758 110.993 210.747 111.112C210.747 113.447 231.39 115.344 256.852 115.344C282.314 115.344 302.96 113.447 302.96 111.112C302.933 110.904 302.811 110.72 302.628 110.611Z" fill="url(#paint15_linear_22_51159)"/>
<mask id="mask1_22_51159" style="mask-type:luminance" maskUnits="userSpaceOnUse" x="210" y="98" width="93" height="18">
<path d="M302.628 110.611L294.553 98.4023H216.442L210.89 110.791C210.808 110.88 210.758 110.993 210.747 111.112C210.747 113.447 231.39 115.344 256.852 115.344C282.314 115.344 302.96 113.447 302.96 111.112C302.933 110.904 302.811 110.72 302.628 110.611Z" fill="white"/>
</mask>
<g mask="url(#mask1_22_51159)">
<path d="M219.44 99.0716L219.955 99.3258L216.43 106.473L215.915 106.219L219.44 99.0716Z" fill="#3EB1FF"/>
<path d="M227.236 107.37L233.191 104.2L257.68 105.262L257.655 105.836L233.322 104.78L227.341 107.965L212.062 105.834L212.141 105.265L227.236 107.37Z" fill="#3EB1FF"/>
<path d="M224.966 114.84L231.551 110.553L252.529 111.631V116.403H251.955L251.955 112.177L231.708 111.136L225.28 115.322L224.966 114.84Z" fill="#3EB1FF"/>
<path d="M258.38 102.376V115.874H257.38V102.376H258.38Z" fill="#3EB1FF"/>
<path d="M298.859 103.675L298.928 104.246L281.477 106.347L279.529 109.54L257.675 110.073L257.661 109.498L279.202 108.973L281.132 105.81L298.859 103.675Z" fill="#3EB1FF"/>
<path d="M286.686 100.163L288.415 105.11L287.872 105.299L286.143 100.353L286.686 100.163Z" fill="#3EB1FF"/>
<path d="M303.165 108.447L303.294 109.007L294.184 111.099L292.077 114.184L291.603 113.86L293.837 110.59L303.165 108.447Z" fill="#3EB1FF"/>
</g>
<ellipse cx="256.15" cy="98.6897" rx="39.0805" ry="4.31034" fill="#ABE5FF"/>
<circle cx="200.69" cy="63.6322" r="2.01149" fill="#0E8EFF"/>
<circle cx="296.092" cy="21.6782" r="2.01149" fill="#0E8EFF"/>
<circle cx="305" cy="15.6437" r="3.44828" fill="#0E8EFF"/>
<circle cx="190.632" cy="54.7242" r="3.44828" fill="#0C3EBB"/>
<circle cx="217.069" cy="7.02303" r="1.72414" fill="#0C3EBB"/>
<circle cx="219.655" cy="12.4828" r="0.862069" fill="#0C3EBB"/>
<circle cx="303.563" cy="86.6207" r="1.43678" fill="#0C3EBB"/>
<circle cx="311.322" cy="78.2874" r="2.29885" fill="#0C3EBB"/>
<rect x="226.839" y="3" width="56.8966" height="95.4023" fill="url(#paint16_linear_22_51159)"/>
<ellipse cx="255.287" cy="98.6897" rx="28.4483" ry="2.58621" fill="#6DE9A3"/>
<path d="M255.285 96.6782C239.575 96.6782 226.839 97.7202 226.839 99.0027C226.839 99.1911 227.123 99.3754 227.645 99.5518C227.588 99.5149 227.55 99.4567 227.541 99.3914C227.541 98.3214 239.964 97.4517 255.285 97.4517C270.607 97.4517 283.034 98.3214 283.034 99.3914C283.024 99.4567 282.986 99.5149 282.929 99.5518C283.452 99.3754 283.736 99.1911 283.736 99.0027C283.731 97.7202 270.995 96.6782 255.285 96.6782Z" fill="#46C67A"/>
<circle cx="269.655" cy="57.6092" r="1.43678" fill="#0E8EFF"/>
<circle cx="246.379" cy="81.7356" r="2.29885" fill="#0E8EFF"/>
<circle cx="239.195" cy="90.069" r="0.862069" fill="#0E8EFF"/>
<path d="M257.415 68.1043L257.364 68.1377C255.988 69.0735 255.219 70.6444 255.036 72.5828C254.917 74.1537 255.093 75.7327 255.555 77.241C255.951 78.5906 256.5 79.8924 257.19 81.1221C257.547 81.7572 257.942 82.3755 258.38 83.0188C258.749 83.5452 259.136 84.0424 259.535 84.5186C260.438 85.599 261.458 86.5796 262.577 87.4431C263.799 88.406 265.179 89.155 266.659 89.6573C268.72 90.3174 270.661 90.2254 272.135 89.2395L272.191 89.2019L276.264 86.4362L274.506 83.9296C274.496 82.5299 274.271 81.1398 273.839 79.8061C273.416 78.4709 272.846 77.1849 272.14 75.971C271.829 75.4362 271.49 74.9015 271.124 74.3751C270.694 73.7644 270.231 73.176 269.739 72.6121C268.816 71.5419 267.775 70.5764 266.634 69.7336C265.596 68.9586 264.452 68.3326 263.235 67.8745L261.477 65.3679L257.415 68.1043Z" fill="#003D97"/>
<mask id="mask2_22_51159" style="mask-type:luminance" maskUnits="userSpaceOnUse" x="255" y="65" width="22" height="26">
<path d="M257.415 68.1043L257.364 68.1377C255.988 69.0735 255.219 70.6444 255.036 72.5828C254.917 74.1537 255.093 75.7327 255.555 77.241C255.951 78.5906 256.5 79.8924 257.19 81.1221C257.547 81.7572 257.942 82.3755 258.38 83.0188C258.749 83.5452 259.136 84.0424 259.535 84.5186C260.438 85.599 261.458 86.5796 262.577 87.4431C263.799 88.406 265.179 89.155 266.659 89.6573C268.72 90.3174 270.661 90.2254 272.135 89.2395L272.191 89.2019L276.264 86.4362L274.506 83.9296C274.496 82.5299 274.271 81.1398 273.839 79.8061C273.416 78.4709 272.846 77.1849 272.14 75.971C271.829 75.4362 271.49 74.9015 271.124 74.3751C270.694 73.7644 270.231 73.176 269.739 72.6121C268.816 71.5419 267.775 70.5764 266.634 69.7336C265.596 68.9586 264.452 68.3326 263.235 67.8745L261.477 65.3679L257.415 68.1043Z" fill="white"/>
</mask>
<g mask="url(#mask2_22_51159)">
<path d="M274.705 84.3334L266.494 89.6677C268.59 90.3115 270.565 90.2219 272.064 89.2602L272.121 89.2235L276.264 86.5258L274.705 84.3334Z" fill="#1D75E0"/>
<path d="M256.874 68.7949L256.822 68.8294C255.405 69.7945 254.613 71.4146 254.425 73.4138L262.471 67.9418L261.068 65.9426L256.874 68.7949Z" fill="#05398C"/>
<path d="M274.238 80.3104L263.046 87.8892C264.258 88.8421 265.629 89.5834 267.097 90.0805L275.115 84.6807L274.917 84.3995C274.907 83.0143 274.684 81.6386 274.255 80.3187C274.255 80.3187 274.243 80.3104 274.238 80.3104Z" fill="#1572CD"/>
<path d="M271.87 76L259.213 85.1954V85.4347C260.119 86.6232 260.953 87.4064 262.076 88.3564V88.605L274.032 80.7562L273.845 79.9364C273.421 78.4675 272.712 77.6228 272.003 76.2874L271.87 76Z" fill="#0B64C5"/>
<path d="M269.358 72.8391L257.299 81.4713C257.642 82.1138 258.021 82.7395 258.441 83.3905C258.796 83.9231 259.167 84.4262 259.55 84.9081L271.667 76.2379C271.369 75.6968 271.043 75.1557 270.692 74.623C270.279 74.0051 269.835 73.4097 269.363 72.8391C269.363 72.8391 269.363 72.8391 269.358 72.8391Z" fill="#0C59AE"/>
<path d="M266.344 70.5483L255.575 77.7453C255.96 79.037 256.493 80.2829 257.163 81.4598L269.368 73.2952C268.472 72.2709 267.46 71.3469 266.352 70.5403L266.344 70.5483Z" fill="#104D97"/>
<path d="M262.75 67.6667L255.036 73.1753C254.918 74.8062 255.092 76.4456 255.547 78.0115L266.494 70.2041C265.47 69.3995 264.341 68.7496 263.14 68.274L262.75 67.6667Z" fill="#084694"/>
</g>
<ellipse cx="268.921" cy="75.9704" rx="7.65661" ry="12.8673" transform="rotate(-34.62 268.921 75.9704)" fill="url(#paint17_linear_22_51159)"/>
<path d="M261.588 65.5977C261.309 65.7954 261.053 66.0222 260.824 66.2743C260.708 66.3987 260.599 66.5289 260.497 66.6644C260.446 66.7308 260.404 66.8014 260.353 66.8719C260.304 66.94 260.258 67.0106 260.217 67.0836C259.877 67.6678 259.633 68.3009 259.496 68.9595C259.239 70.28 259.239 71.6359 259.496 72.9563C259.743 74.2775 260.148 75.5659 260.701 76.7954C261.255 78.0248 261.929 79.1993 262.713 80.3025C263.103 80.8559 263.518 81.3899 263.956 81.9045C264.395 82.4192 264.86 82.9117 265.353 83.3821C266.332 84.3249 267.422 85.1511 268.6 85.8432C269.768 86.5517 271.065 87.0337 272.419 87.2626C273.098 87.3706 273.791 87.3706 274.469 87.2626C274.554 87.2626 274.635 87.2294 274.72 87.2128C274.805 87.1962 274.89 87.1796 274.97 87.1547C275.136 87.1008 275.301 87.0634 275.458 86.997C275.781 86.8753 276.09 86.7209 276.379 86.5363C275.812 86.9292 275.165 87.1994 274.482 87.3291C273.796 87.4535 273.094 87.4703 272.403 87.3789C271.024 87.169 269.7 86.7026 268.502 86.0051C267.299 85.3219 266.188 84.4936 265.196 83.5398C263.196 81.6503 261.596 79.3937 260.489 76.8992C259.931 75.653 259.533 74.344 259.305 73.002C259.062 71.6572 259.085 70.2793 259.372 68.9429C259.531 68.2797 259.796 67.6451 260.158 67.0628C260.522 66.4799 261.009 65.9803 261.588 65.5977V65.5977Z" fill="#67C4FB"/>
<path d="M263.749 79.5762C265.519 82.2152 267.765 84.2509 270.073 85.3175C272.828 86.5924 274.425 85.938 275.132 85.4365C275.84 84.9351 277.002 83.6304 276.82 80.5281C276.667 77.9358 275.608 75.0545 273.838 72.4197C272.067 69.7848 269.821 67.745 267.513 66.6825C264.758 65.4076 263.157 66.0621 262.454 66.5636C261.751 67.065 260.584 68.3697 260.766 71.4677C260.915 74.0643 261.974 76.9413 263.749 79.5762Z" fill="url(#paint18_linear_22_51159)"/>
<path d="M270.257 85.2345C270.447 85.3016 270.637 85.3771 270.827 85.4399L271.118 85.5322C271.215 85.5615 271.313 85.5908 271.41 85.6118L271.705 85.6872L272.001 85.7459C272.098 85.7669 272.199 85.7837 272.296 85.7962L272.596 85.8298C273.384 85.9224 274.184 85.7962 274.904 85.4651C275.596 85.1031 276.136 84.5089 276.428 83.7884C276.732 83.0753 276.896 82.3115 276.914 81.5375C276.924 79.9549 276.638 78.3842 276.069 76.9057C275.512 75.4204 274.766 74.0118 273.849 72.714C272.95 71.3997 271.883 70.2064 270.675 69.1637C269.486 68.1102 268.109 67.2871 266.615 66.7367C265.878 66.4696 265.098 66.3444 264.314 66.3679C263.533 66.3918 262.786 66.6887 262.204 67.2062C261.636 67.7574 261.233 68.4537 261.039 69.2182C261.014 69.3146 260.992 69.411 260.967 69.5074C260.942 69.6038 260.925 69.7044 260.908 69.8008C260.891 69.8972 260.87 69.9978 260.857 70.0984L260.824 70.396C260.824 70.4966 260.815 70.5972 260.798 70.6978V70.9996C260.798 71.2008 260.798 71.4188 260.798 71.6032C260.707 70.7942 260.738 69.9761 260.891 69.1763C261.047 68.3536 261.435 67.5918 262.01 66.9798C262.311 66.6763 262.67 66.4343 263.065 66.2673C263.459 66.1019 263.876 65.9973 264.302 65.9571C265.146 65.901 265.993 66.0078 266.796 66.2714C268.374 66.8012 269.833 67.6296 271.093 68.711C273.615 70.8604 275.535 73.6214 276.665 76.7255C277.219 78.2675 277.47 79.9013 277.403 81.5375C277.367 82.3769 277.166 83.2013 276.812 83.9645C276.624 84.3462 276.378 84.6968 276.082 85.004C275.785 85.3125 275.429 85.559 275.035 85.7292C274.256 86.0456 273.403 86.1357 272.575 85.989C271.769 85.8537 270.988 85.5994 270.257 85.2345Z" fill="#0C59AE"/>
<path d="M275.115 76.8621L274.614 77.3673L274.54 77.4368L275.045 76.9316L275.115 76.8621Z" fill="#957978"/>
<path d="M270.716 72.2096C270.517 71.9273 270.197 71.7381 269.838 71.6898H269.742C269.583 71.6873 269.428 71.7349 269.303 71.8249L268.793 72.271C268.917 72.178 269.073 72.13 269.232 72.136H269.329C269.483 72.1563 269.632 72.2035 269.768 72.2751C269.943 72.3719 270.093 72.5032 270.207 72.6599L274.031 77.4368L274.54 76.9907L270.716 72.2096Z" fill="#0B64C5"/>
<path d="M269.368 72.4093L268.079 72.015L268.12 71.6798L268.154 71.3486C268.188 71.0422 268.32 70.7572 268.528 70.5403L268.094 70.9661C267.884 71.1839 267.752 71.4706 267.719 71.7784L267.681 72.1096L267.644 72.4448L268.929 72.8391L269.368 72.4093Z" fill="#0B64C5"/>
<path d="M270.152 78.6592C270.051 78.6463 269.952 78.6274 269.854 78.6027C269.091 78.3974 268.422 77.9365 267.962 77.2979C267.205 76.2975 267.262 75.8582 267.367 75.0536V74.9275L269.118 75.3929C269.14 75.3929 269.267 75.4277 269.377 75.4625C269.667 75.4965 269.928 75.6555 270.09 75.8974C270.276 76.1309 270.38 76.4177 270.388 76.7151C270.398 76.944 270.31 77.1665 270.147 77.3283L270.655 76.8586C270.819 76.6951 270.906 76.4712 270.896 76.241C270.888 75.9437 270.784 75.6568 270.598 75.4233C270.436 75.181 270.175 75.0219 269.885 74.9884L269.622 74.9144L266.237 74.0446C266.167 74.0238 266.095 74.0093 266.022 74.0011C265.876 73.9771 265.726 73.9876 265.585 74.0315C265.468 74.0633 265.363 74.1247 265.278 74.2098L264.77 74.6796C264.857 74.5975 264.962 74.5365 265.077 74.5012C265.219 74.4625 265.368 74.4522 265.515 74.4708C265.587 74.481 265.659 74.497 265.729 74.5186L267.235 74.9144L266.85 75.2711L266.819 75.5407C266.71 76.3454 266.653 76.7847 267.411 77.7807C267.874 78.418 268.543 78.8785 269.307 79.0855C269.403 79.1092 269.501 79.1266 269.6 79.1377C270.132 79.2212 270.674 79.0775 271.093 78.7419L271.159 78.681L271.667 78.2069C271.645 78.2295 271.622 78.2499 271.597 78.2678C271.19 78.5902 270.667 78.7318 270.152 78.6592Z" fill="#0B64C5"/>
<path d="M268.957 82.1201C268.519 82.0483 268.125 81.7958 267.864 81.4183L264.203 76.3041C263.842 75.8334 263.614 75.2646 263.548 74.6637C263.482 74.1392 263.604 73.6075 263.89 73.1725C263.967 73.051 264.056 72.9392 264.157 72.8391L263.677 73.3128C263.576 73.4136 263.485 73.5253 263.406 73.6462C263.119 74.0812 262.997 74.6129 263.064 75.1374C263.129 75.7387 263.356 76.3079 263.719 76.7778L267.384 81.892C267.642 82.2737 268.037 82.5287 268.477 82.5982C268.835 82.648 269.195 82.5274 269.458 82.2692L269.943 81.7955C269.677 82.0534 269.316 82.1725 268.957 82.1201Z" fill="#0B64C5"/>
<path d="M269.732 73.4738L269.497 73.4043L266.172 72.4014C265.993 72.3472 265.809 72.3094 265.623 72.2885C265.286 72.2421 264.944 72.2628 264.616 72.3493C264.132 72.471 263.71 72.7611 263.428 73.1655C263.124 73.5962 262.994 74.1225 263.065 74.6417C263.136 75.2365 263.377 75.7995 263.761 76.2655L267.648 81.3279C267.926 81.7015 268.344 81.9515 268.81 82.0225C269.19 82.0744 269.574 81.9565 269.856 81.7012L269.958 81.6057L265.184 75.4493C265.033 75.2646 264.933 75.0446 264.896 74.811C264.861 74.6032 264.905 74.3903 265.02 74.2119C265.119 74.0453 265.277 73.9191 265.463 73.8559C265.606 73.812 265.758 73.8016 265.906 73.8255C265.98 73.8337 266.052 73.8482 266.123 73.8689L269.55 74.7372L269.816 74.811C270.11 74.8445 270.375 75.0033 270.539 75.2452C270.726 75.4783 270.832 75.7646 270.84 76.0614C270.853 76.3182 270.739 76.5654 270.534 76.7257C270.362 76.85 270.147 76.9016 269.936 76.869C269.88 76.8627 269.825 76.8525 269.772 76.8386C269.471 76.7426 269.208 76.5556 269.022 76.3046C268.821 76.0614 268.748 75.7403 268.823 75.4362C268.823 75.3885 268.823 75.128 268.858 75.0281L267.285 74.6374L267.254 74.9022C267.147 75.7054 267.09 76.1439 267.857 77.1425C268.323 77.7799 268.999 78.2401 269.772 78.445C269.871 78.4697 269.972 78.4885 270.073 78.5014C270.611 78.584 271.159 78.4388 271.58 78.102C272.038 77.7003 272.281 77.1135 272.236 76.513C272.199 75.8305 271.948 75.1758 271.518 74.6374C271.126 74.0114 270.473 73.5859 269.732 73.4738Z" fill="#D4F7FF"/>
<path d="M274.202 75.6728L271.497 71.8774C271.228 71.4974 270.892 71.1752 270.506 70.9286C270.178 70.7253 269.814 70.5947 269.436 70.5448H269.308C268.935 70.5165 268.564 70.6215 268.255 70.8423C267.959 71.0821 267.768 71.4368 267.726 71.8257L267.689 72.188L267.644 72.5546L269.065 72.9859V72.7832L269.089 72.4295C269.092 72.2661 269.157 72.1106 269.271 71.9982C269.389 71.9035 269.535 71.8533 269.684 71.8559H269.775C270.113 71.9068 270.413 72.1062 270.601 72.4036L274.202 77.4368L274.268 77.3721C274.665 77.0098 274.615 76.2637 274.202 75.6728Z" fill="#D4F7FF"/>
<g opacity="0.95">
<path d="M240.023 65.3386H239.964C238.51 64.81 237.319 63.7335 236.646 62.3385C236.086 61.2241 235.757 60.0074 235.68 58.7619C235.606 57.6998 235.676 56.6324 235.89 55.5893C235.995 55.0449 236.135 54.508 236.31 53.982C236.462 53.5383 236.637 53.1029 236.835 52.6776C237.274 51.7187 237.839 50.823 238.515 50.0141C239.293 49.0808 240.243 48.3053 241.312 47.7293C242.767 46.9067 244.498 46.7254 246.091 47.2286H246.146L249.623 48.4152L249.707 50.8514C250.116 51.8748 250.346 52.9607 250.388 54.0619C250.433 55.1189 250.339 56.1773 250.106 57.2093C250.004 57.6677 249.877 58.1201 249.724 58.5642C249.544 59.0904 249.331 59.6048 249.086 60.1042C248.621 61.0604 248.028 61.9481 247.322 62.7424C246.657 63.5012 245.874 64.1477 245.004 64.657L243.458 66.5336L240.023 65.3386Z" fill="#003D97"/>
<path d="M249.838 50.5906L241.354 47.6914C242.809 46.8689 244.54 46.6876 246.133 47.1907H246.188L249.665 48.3773L249.838 50.5906Z" fill="#05398C"/>
<path d="M240.023 65.3386H239.964C238.51 64.81 237.319 63.7335 236.646 62.3385L244.882 65.1577L243.5 66.5462L240.023 65.3386Z" fill="#1D75E0"/>
<path d="M250.43 54.0451L238.544 49.9847C239.323 49.0514 240.272 48.2758 241.341 47.6999L249.817 50.599L249.737 50.843C250.145 51.8664 250.375 52.9523 250.417 54.0535L250.43 54.0451Z" fill="#084694"/>
<path d="M250.157 57.1967L236.856 52.6523C237.295 51.6935 237.86 50.7977 238.536 49.9889L250.43 54.0409C250.475 55.0979 250.381 56.1562 250.148 57.1883L250.157 57.1967Z" fill="#104D97"/>
<path d="M249.132 60.0958L235.894 55.5683C235.999 55.0239 236.139 54.4869 236.314 53.9609C236.466 53.5172 236.642 53.0818 236.839 52.6566L250.136 57.2009C250.034 57.6593 249.906 58.1117 249.754 58.5558C249.573 59.082 249.36 59.5964 249.115 60.0958H249.132Z" fill="#0C59AE"/>
<path d="M247.364 62.7382L235.68 58.7451C235.606 57.6829 235.676 56.6155 235.89 55.5725L249.132 60.1C248.668 61.0562 248.074 61.9439 247.368 62.7382H247.364Z" fill="#0B64C5"/>
<path d="M244.882 65.1408L236.646 62.3217C236.086 61.2073 235.757 59.9905 235.68 58.7451L247.364 62.7382C246.699 63.497 245.916 64.1435 245.046 64.6528L244.882 65.1408Z" fill="#1572CD"/>
<ellipse cx="246.596" cy="57.44" rx="9.5791" ry="7.60317" transform="rotate(-71.16 246.596 57.44)" fill="url(#paint19_linear_22_51159)"/>
<path d="M243.521 66.5126C242.439 66.1552 241.473 65.5128 240.724 64.6528C239.976 63.7926 239.419 62.7829 239.09 61.6905C238.763 60.5999 238.621 59.462 238.67 58.3243C238.719 57.1787 238.929 56.0456 239.292 54.9582C239.664 53.8785 240.188 52.8571 240.846 51.9244C241.5 50.9898 242.308 50.1731 243.236 49.5092C244.161 48.8398 245.217 48.3751 246.335 48.1459C247.456 47.9209 248.617 48.0038 249.695 48.3857C248.617 48.0501 247.47 48.0036 246.369 48.2511C245.275 48.4991 244.246 48.975 243.349 49.648C242.449 50.3142 241.663 51.1228 241.022 52.0422C239.739 53.8952 239 56.0716 238.889 58.3243C238.837 59.4444 238.966 60.5654 239.271 61.6442C239.57 62.7236 240.094 63.7273 240.808 64.5896C241.526 65.4626 242.462 66.1291 243.521 66.521V66.5126Z" fill="#67C4FB"/>
<path d="M240.409 55.3242C241.126 53.1129 242.59 51.2215 244.55 49.9762C246.784 48.6045 248.582 48.9033 249.451 49.1978C250.321 49.4923 251.921 50.3633 252.857 52.8164C254.386 57.3218 252.692 62.2934 248.733 64.922C246.495 66.2938 244.701 65.9992 243.832 65.7005C242.963 65.4017 241.358 64.5349 240.426 62.0818C239.634 59.9001 239.628 57.5099 240.409 55.3242Z" fill="url(#paint20_linear_22_51159)"/>
<path d="M244.55 49.9762C245.146 49.5715 245.8 49.2607 246.49 49.0547C247.192 48.8479 247.927 48.7849 248.653 48.8696C249.019 48.9151 249.379 49.0026 249.724 49.1305C250.069 49.2637 250.399 49.4344 250.707 49.6396C251.322 50.0536 251.853 50.5821 252.269 51.1965C253.084 52.43 253.567 53.8532 253.672 55.3284C253.885 58.2939 252.889 61.2191 250.913 63.4367C249.928 64.5393 248.677 65.3696 247.28 65.8477C246.575 66.079 245.832 66.1718 245.092 66.1212C244.723 66.0963 244.358 66.0285 244.004 65.9193C243.652 65.8114 243.313 65.6617 242.996 65.4732C242.371 65.0934 241.827 64.5928 241.396 64.0005C240.977 63.414 240.65 62.767 240.426 62.0818C240.704 62.7382 241.071 63.3528 241.518 63.908C241.963 64.4521 242.511 64.9026 243.131 65.2334C243.434 65.3988 243.757 65.526 244.092 65.6121C244.426 65.6992 244.768 65.7486 245.113 65.7594C245.803 65.7783 246.491 65.6685 247.141 65.4354C247.793 65.1979 248.41 64.8753 248.977 64.476C249.544 64.0732 250.063 63.6058 250.522 63.0833C250.984 62.5659 251.391 62.0018 251.736 61.4002C252.075 60.7928 252.357 60.1546 252.576 59.4941C252.803 58.8338 252.966 58.1532 253.063 57.4618C253.161 56.765 253.186 56.0599 253.139 55.3579C253.094 54.6639 252.969 53.9776 252.765 53.3129C252.559 52.649 252.267 52.0152 251.896 51.4279C251.524 50.8452 251.047 50.3372 250.489 49.9299C250.21 49.7274 249.91 49.5553 249.594 49.4166C249.274 49.2838 248.94 49.1864 248.599 49.1263C247.901 49.0123 247.188 49.0352 246.499 49.1936C245.816 49.3621 245.16 49.6255 244.55 49.9762Z" fill="#0C59AE"/>
<path d="M248.099 62.7004L247.536 62.4816L247.452 62.4479L248.019 62.6709L248.099 62.7004Z" fill="#957978"/>
<path d="M250.619 57.731C250.709 57.5756 250.762 57.4013 250.774 57.2219C250.785 57.08 250.769 56.9373 250.728 56.8011C250.719 56.7751 250.707 56.7498 250.694 56.7254C250.64 56.5936 250.54 56.486 250.413 56.4224L249.85 56.2036C249.98 56.2654 250.082 56.3735 250.136 56.5066C250.148 56.5323 250.158 56.559 250.165 56.5865C250.206 56.7156 250.223 56.8511 250.216 56.9863C250.202 57.1654 250.149 57.3393 250.06 57.4954L247.456 62.4353L248.023 62.6583L250.619 57.731Z" fill="#0B64C5"/>
<path d="M249.548 56.6413L249.321 55.2948L249.632 55.1896L249.939 55.0844C250.221 54.9829 250.53 54.9829 250.812 55.0844L250.245 54.8614C249.963 54.7599 249.654 54.7599 249.372 54.8614L249.065 54.9624L248.754 55.0676L248.985 56.4183L249.548 56.6413Z" fill="#0B64C5"/>
<path d="M245.424 59.5404C245.398 59.4562 245.377 59.3721 245.356 59.2837C245.233 58.6028 245.347 57.8998 245.68 57.2934C246.188 56.3173 246.558 56.1952 247.238 55.9764L247.343 55.9386L247.641 57.5207C247.641 57.5207 247.666 57.6469 247.679 57.7521C247.763 57.9916 247.738 58.2559 247.612 58.4758C247.495 58.7098 247.307 58.9001 247.074 59.0186C246.896 59.1154 246.685 59.1307 246.495 59.0607L247.057 59.2837C247.248 59.3537 247.459 59.3384 247.637 59.2416C247.872 59.123 248.062 58.931 248.179 58.6946C248.308 58.4771 248.333 58.2129 248.246 57.9751C248.246 57.8699 248.208 57.7605 248.204 57.7395L247.641 54.7267C247.63 54.664 247.615 54.6021 247.595 54.5416C247.557 54.4225 247.496 54.3123 247.414 54.2176C247.342 54.1409 247.253 54.0819 247.154 54.0451L246.591 53.8221C246.69 53.8589 246.778 53.9196 246.847 53.9988C246.93 54.0917 246.993 54.2005 247.032 54.3186C247.051 54.3805 247.065 54.4438 247.074 54.5079L247.326 55.846L246.906 55.6777L246.679 55.7534C245.97 55.8986 245.384 56.3947 245.121 57.0704C244.79 57.6773 244.677 58.3802 244.802 59.0607C244.818 59.1478 244.841 59.2336 244.869 59.3174C245.006 59.7674 245.324 60.1397 245.747 60.344L245.818 60.3735L246.381 60.5965L246.31 60.5671C245.884 60.3646 245.562 59.992 245.424 59.5404Z" fill="#0B64C5"/>
<path d="M242.148 59.9148C242.027 59.5233 242.071 59.0992 242.27 58.7409L244.857 53.7842C245.084 53.3075 245.442 52.906 245.89 52.6271C246.277 52.3755 246.745 52.2779 247.2 52.3536C247.326 52.3699 247.448 52.4024 247.566 52.4504L247.003 52.2273C246.884 52.1799 246.76 52.1474 246.633 52.1306C246.179 52.0547 245.713 52.1523 245.327 52.4041C244.878 52.6844 244.518 53.0873 244.29 53.5654L241.703 58.5221C241.506 58.8795 241.462 59.3015 241.581 59.6918C241.681 60.0077 241.917 60.2623 242.223 60.3861L242.79 60.6049C242.482 60.4856 242.245 60.2313 242.148 59.9148Z" fill="#0B64C5"/>
<path d="M249.287 57.3902C249.287 57.3481 249.287 57.3103 249.258 57.1798L248.838 54.205C248.814 54.0449 248.776 53.8872 248.725 53.7337C248.638 53.4527 248.495 53.1922 248.305 52.9679C248.028 52.6383 247.642 52.4201 247.217 52.3536C246.761 52.2779 246.294 52.3755 245.907 52.6271C245.459 52.906 245.1 53.3075 244.873 53.7842L242.27 58.7451C242.071 59.1034 242.027 59.5275 242.148 59.9191C242.245 60.2355 242.482 60.4898 242.79 60.6091L242.904 60.6554L246.033 54.5963C246.13 54.4061 246.275 54.2439 246.453 54.125C246.608 54.0229 246.793 53.9769 246.978 53.9946C247.152 54.0148 247.314 54.0951 247.435 54.2218C247.517 54.3165 247.578 54.4267 247.616 54.5458C247.636 54.6063 247.651 54.6682 247.662 54.7309L248.225 57.7437C248.225 57.7437 248.254 57.8741 248.267 57.9793C248.354 58.2171 248.329 58.4813 248.2 58.6988C248.083 58.9352 247.893 59.1272 247.658 59.2458C247.477 59.3496 247.257 59.362 247.066 59.2792C246.874 59.1965 246.733 59.0282 246.684 58.825C246.668 58.7796 246.655 58.7333 246.646 58.6862C246.604 58.4071 246.654 58.1221 246.789 57.8741C246.908 57.6213 247.14 57.4403 247.414 57.386C247.452 57.386 247.671 57.285 247.754 57.2598L247.482 55.8839L247.259 55.9596C246.579 56.1784 246.209 56.3004 245.701 57.2766C245.368 57.883 245.253 58.5859 245.377 59.2669C245.398 59.3552 245.419 59.4394 245.445 59.5235C245.581 59.9736 245.899 60.3459 246.322 60.5502C246.812 60.753 247.368 60.7189 247.83 60.4576C248.357 60.171 248.785 59.7308 249.056 59.1953C249.388 58.6545 249.472 57.9973 249.287 57.3902Z" fill="#D4F7FF"/>
<path d="M249.426 61.9766L251.387 58.257C251.584 57.8875 251.707 57.483 251.749 57.0662C251.782 56.7154 251.742 56.3613 251.631 56.0269L251.593 55.9133C251.465 55.5906 251.233 55.3198 250.934 55.1433C250.625 54.9846 250.265 54.9603 249.938 55.076L249.632 55.1812L249.321 55.2864L249.548 56.6328L249.712 56.5571L250.006 56.4435C250.139 56.3828 250.292 56.3828 250.426 56.4435C250.553 56.5071 250.653 56.6147 250.707 56.7465C250.72 56.7709 250.731 56.7962 250.741 56.8222C250.782 56.9584 250.798 57.101 250.787 57.243C250.775 57.4224 250.722 57.5966 250.631 57.7521L248.032 62.692L248.112 62.7214C248.536 62.8729 249.115 62.5321 249.426 61.9766Z" fill="#D4F7FF"/>
</g>
<g opacity="0.65">
<path d="M261.903 10.5214H261.875C261.165 10.2641 260.584 9.73306 260.257 9.04353C259.983 8.49418 259.823 7.89324 259.788 7.27834C259.752 6.7532 259.787 6.22548 259.893 5.7102C259.947 5.44052 260.017 5.17454 260.103 4.91381C260.18 4.69213 260.265 4.47867 260.358 4.26931C260.568 3.79639 260.84 3.3545 261.167 2.95568C261.546 2.49415 262.009 2.11089 262.53 1.82678C263.239 1.42075 264.083 1.33156 264.86 1.58047H264.884L266.603 2.15108L266.643 3.35387C266.842 3.85879 266.955 4.39483 266.975 4.93844C266.998 5.46096 266.952 5.98428 266.837 6.49427C266.788 6.72087 266.726 6.94431 266.651 7.1634C266.563 7.4229 266.459 7.67654 266.34 7.92284C266.112 8.39433 265.822 8.83214 265.478 9.22415C265.155 9.59842 264.774 9.91723 264.35 10.1683L263.594 11.0961L261.903 10.5214Z" fill="#003D97"/>
<path d="M266.684 3.24304L262.55 1.81036C263.26 1.40433 264.103 1.31514 264.88 1.56406H264.904L266.603 2.15108L266.684 3.24304Z" fill="#05398C"/>
<path d="M261.903 10.5214H261.875C261.165 10.2641 260.584 9.73305 260.257 9.04352L264.269 10.4351L263.594 11.1207L261.903 10.5214Z" fill="#1D75E0"/>
<path d="M266.975 4.94664L261.187 2.94335C261.566 2.48183 262.029 2.09856 262.55 1.81445L266.68 3.24302L266.639 3.36618C266.838 3.8711 266.951 4.40713 266.971 4.95074L266.975 4.94664Z" fill="#084694"/>
<path d="M266.837 6.50247L260.366 4.25699C260.576 3.78407 260.848 3.34218 261.175 2.94336L266.963 4.95075C266.986 5.47327 266.939 5.99659 266.825 6.50658L266.837 6.50247Z" fill="#104D97"/>
<path d="M266.324 7.93518L259.893 5.69791C259.947 5.42823 260.017 5.16225 260.103 4.90152C260.18 4.67984 260.265 4.46638 260.358 4.25702L266.829 6.5025C266.78 6.7291 266.718 6.95255 266.643 7.17163C266.555 7.43114 266.451 7.68478 266.332 7.93107L266.324 7.93518Z" fill="#0C59AE"/>
<path d="M265.478 9.23646L259.788 7.26602C259.752 6.74088 259.787 6.21316 259.893 5.69788L266.324 7.93105C266.096 8.40254 265.806 8.84034 265.462 9.23236L265.478 9.23646Z" fill="#0B64C5"/>
<path d="M264.269 10.4229L260.257 9.03124C259.983 8.48189 259.823 7.88095 259.788 7.26605L265.478 9.2365C265.155 9.61076 264.774 9.92958 264.35 10.1807L264.269 10.4229Z" fill="#1572CD"/>
<ellipse cx="265.096" cy="6.6198" rx="4.72179" ry="3.70638" transform="rotate(-71.16 265.096 6.6198)" fill="url(#paint21_linear_22_51159)"/>
<path d="M263.606 11.1002C263.078 10.9245 262.607 10.6067 262.243 10.1807C261.889 9.75245 261.626 9.255 261.47 8.71924C261.312 8.17892 261.244 7.61567 261.268 7.05257C261.293 6.49347 261.395 5.94069 261.571 5.41054C261.751 4.87684 262.006 4.37221 262.328 3.91218C262.647 3.45169 263.041 3.04922 263.493 2.7217C263.942 2.39053 264.457 2.16097 265.001 2.04847C265.541 1.9398 266.1 1.98093 266.619 2.16751C266.095 1.99907 265.536 1.97639 265.001 2.10183C264.469 2.22324 263.968 2.45835 263.533 2.79149C263.096 3.1198 262.713 3.51764 262.401 3.96965C261.774 4.88182 261.412 5.9543 261.357 7.06489C261.331 7.61885 261.394 8.17342 261.543 8.70692C261.688 9.23372 261.938 9.72436 262.279 10.1478C262.455 10.3602 262.656 10.5491 262.878 10.7102C263.103 10.8716 263.348 11.0027 263.606 11.1002Z" fill="#67C4FB"/>
<path d="M262.089 5.57883C262.439 4.48658 263.155 3.5529 264.111 2.93926C264.796 2.41963 265.688 2.27631 266.497 2.55627C267.306 2.83623 267.927 3.50338 268.156 4.33909C268.9 6.56638 268.069 9.02287 266.133 10.3161C265.448 10.8336 264.556 10.9752 263.747 10.6946C262.939 10.4141 262.319 9.74732 262.089 8.91217C261.708 7.83481 261.708 6.65618 262.089 5.57883Z" fill="url(#paint22_linear_22_51159)"/>
<path d="M264.099 2.9393C264.389 2.74022 264.707 2.58661 265.042 2.48364C265.384 2.38386 265.743 2.35318 266.097 2.39332C266.276 2.41472 266.451 2.45885 266.619 2.52469C266.786 2.58867 266.946 2.67128 267.096 2.77099C267.397 2.97554 267.655 3.2377 267.856 3.54275C268.256 4.15524 268.493 4.86235 268.544 5.59529C268.595 6.31974 268.502 7.04725 268.269 7.73405C268.04 8.42288 267.676 9.05708 267.197 9.59776C266.718 10.1432 266.108 10.5533 265.426 10.7882C265.083 10.9029 264.722 10.949 264.362 10.9237C264.002 10.9012 263.653 10.7914 263.343 10.6035C263.038 10.4161 262.773 10.1692 262.562 9.8769C262.36 9.58616 262.2 9.26663 262.089 8.92863C262.225 9.25338 262.405 9.55734 262.623 9.83175C262.84 10.0993 263.107 10.321 263.408 10.4845C263.556 10.5653 263.714 10.6286 263.877 10.6733C264.04 10.7152 264.206 10.7386 264.374 10.7431C264.71 10.7538 265.045 10.6995 265.361 10.583C265.677 10.4645 265.978 10.3059 266.255 10.1109C266.531 9.9123 266.783 9.68228 267.007 9.42534C267.231 9.17265 267.429 8.89757 267.598 8.60433C267.762 8.30482 267.897 7.99003 268.002 7.66426C268.112 7.33859 268.192 7.00327 268.241 6.66262C268.287 6.3213 268.299 5.97606 268.277 5.63224C268.255 5.28964 268.194 4.95079 268.095 4.62239C267.999 4.29594 267.863 3.98291 267.691 3.69053C267.508 3.40446 267.277 3.15414 267.007 2.95162C266.871 2.85243 266.724 2.76847 266.57 2.70121C266.414 2.63478 266.252 2.58658 266.085 2.55753C265.748 2.50075 265.403 2.51191 265.07 2.59037C264.732 2.6594 264.405 2.77689 264.099 2.9393Z" fill="#0C59AE"/>
<path d="M265.834 9.22006L265.559 9.10922L265.523 9.0928L265.798 9.20363L265.834 9.22006Z" fill="#957978"/>
<path d="M267.064 6.76524C267.108 6.6889 267.134 6.60319 267.141 6.51483C267.143 6.44824 267.135 6.38165 267.116 6.31778C267.117 6.30411 267.117 6.29041 267.116 6.27673C267.091 6.21146 267.042 6.15858 266.979 6.12895L266.704 6.02222C266.765 6.05426 266.813 6.10636 266.841 6.17C266.841 6.18368 266.841 6.19738 266.841 6.21105C266.86 6.27498 266.868 6.34152 266.866 6.4081C266.859 6.49646 266.833 6.58216 266.789 6.65851L265.515 9.09282L265.79 9.20366L267.064 6.76524Z" fill="#0B64C5"/>
<path d="M266.542 6.22332L266.429 5.55829L266.582 5.50903L266.732 5.45567C266.863 5.41092 267.005 5.41092 267.136 5.45567L266.861 5.34893C266.731 5.30231 266.588 5.30231 266.457 5.34893L266.307 5.39819L266.154 5.45156L266.267 6.11659L266.542 6.22332Z" fill="#0B64C5"/>
<path d="M264.532 7.65604C264.519 7.61568 264.508 7.57455 264.5 7.53289C264.439 7.19718 264.494 6.8504 264.657 6.55177C264.784 6.21619 265.071 5.9698 265.418 5.89907H265.466L265.612 6.67903C265.612 6.67903 265.612 6.74061 265.612 6.79397C265.651 6.91233 265.639 7.04201 265.579 7.15112C265.522 7.26647 265.43 7.36006 265.317 7.41795C265.23 7.46694 265.126 7.47445 265.033 7.43847L265.309 7.54931C265.399 7.58763 265.501 7.58763 265.592 7.54931C265.706 7.48988 265.798 7.39491 265.854 7.27838C265.915 7.16942 265.927 7.03953 265.887 6.92123C265.887 6.87197 265.867 6.81861 265.867 6.80629L265.592 5.32025C265.594 5.29019 265.594 5.25999 265.592 5.22994C265.585 5.1557 265.558 5.08475 265.515 5.02468C265.479 4.98819 265.436 4.95894 265.389 4.93847L265.114 4.82764C265.161 4.8481 265.204 4.87735 265.24 4.91384C265.279 4.96129 265.309 5.01554 265.329 5.07394C265.331 5.10537 265.331 5.13693 265.329 5.16836L265.45 5.82928L265.24 5.74307L265.131 5.78412C264.786 5.85461 264.5 6.09934 264.374 6.43273C264.211 6.73135 264.156 7.07813 264.217 7.41384C264.225 7.45685 264.236 7.49934 264.249 7.5411C264.319 7.77212 264.487 7.95986 264.706 8.05424H264.742L265.017 8.16508H264.981C264.766 8.06965 264.602 7.88386 264.532 7.65604Z" fill="#0B64C5"/>
<path d="M262.934 7.84487C262.877 7.65154 262.899 7.44273 262.995 7.26605L264.257 4.80299C264.367 4.56811 264.541 4.37012 264.758 4.23239C264.947 4.1082 265.175 4.0599 265.397 4.09692C265.458 4.10507 265.518 4.12022 265.575 4.14207L265.3 4.03534C265.244 4.01033 265.184 3.99374 265.122 3.98608C264.9 3.94907 264.672 3.99736 264.483 4.12155C264.267 4.26032 264.093 4.45803 263.982 4.69216L262.72 7.15521C262.624 7.33189 262.602 7.5407 262.659 7.73403C262.709 7.88957 262.825 8.01445 262.975 8.07475L263.25 8.18559C263.101 8.12433 262.985 7.99982 262.934 7.84487Z" fill="#0B64C5"/>
<path d="M266.417 6.59692C266.417 6.59692 266.417 6.55587 266.417 6.49429L266.19 5.02467C266.177 4.9466 266.158 4.86972 266.133 4.79478C266.09 4.65613 266.02 4.52769 265.927 4.41712C265.794 4.25291 265.605 4.1447 265.397 4.11334C265.175 4.07632 264.947 4.12462 264.758 4.24881C264.541 4.38654 264.367 4.58453 264.257 4.81941L262.995 7.28247C262.899 7.45915 262.877 7.66796 262.934 7.86129C262.985 8.01624 263.101 8.14075 263.25 8.20201H263.307L264.827 5.2135C264.872 5.11939 264.94 5.03876 265.025 4.97951C265.1 4.92832 265.191 4.90644 265.28 4.91794C265.369 4.92337 265.452 4.96132 265.515 5.02467C265.556 5.07052 265.586 5.12526 265.604 5.18477C265.606 5.21483 265.606 5.24502 265.604 5.27508L265.879 6.76112C265.879 6.76112 265.879 6.8268 265.899 6.87607C265.939 6.99436 265.927 7.12426 265.867 7.23321C265.81 7.34975 265.718 7.44471 265.604 7.50414C265.506 7.55528 265.39 7.55528 265.292 7.50414C265.214 7.45925 265.154 7.38599 265.126 7.29889C265.124 7.27569 265.124 7.25231 265.126 7.2291C265.103 7.08831 265.128 6.94373 265.195 6.81859C265.253 6.69362 265.365 6.60376 265.499 6.57639L265.664 6.51482L265.515 5.84569L265.41 5.88263C265.063 5.95336 264.776 6.19976 264.649 6.53534C264.486 6.83397 264.431 7.18075 264.491 7.51646C264.5 7.55812 264.511 7.59924 264.524 7.63961C264.589 7.86342 264.745 8.04852 264.953 8.14864C265.19 8.24865 265.46 8.23199 265.685 8.10349C265.943 7.96495 266.155 7.75032 266.291 7.48772C266.455 7.22214 266.501 6.89849 266.417 6.59692Z" fill="#D4F7FF"/>
<path d="M266.481 8.85882L267.436 7.02384C267.532 6.84174 267.592 6.64236 267.614 6.43682C267.63 6.26364 267.611 6.08893 267.557 5.92368C267.557 5.92368 267.557 5.88673 267.557 5.87031C267.495 5.7107 267.383 5.57644 267.238 5.48854C267.086 5.41352 266.912 5.40173 266.752 5.4557L266.603 5.50907L266.449 5.55833L266.562 6.22335L266.639 6.18641L266.785 6.13304C266.848 6.10441 266.92 6.10441 266.983 6.13304C267.046 6.16267 267.095 6.21555 267.12 6.28082C267.121 6.2945 267.121 6.3082 267.12 6.32187C267.139 6.38575 267.147 6.45233 267.145 6.51892C267.138 6.60728 267.112 6.69299 267.068 6.76933L265.802 9.20775H265.838C266.107 9.25889 266.374 9.1138 266.481 8.85882Z" fill="#D4F7FF"/>
</g>
<g opacity="0.85">
<path d="M274.842 32.9343L274.871 32.9636C275.618 33.7986 275.872 34.9552 275.686 36.2538C275.686 36.2538 275.686 36.283 275.686 36.2997C275.506 37.3608 275.13 38.38 274.576 39.306C274.092 40.1406 273.515 40.9192 272.857 41.6275C272.515 41.9949 272.148 42.354 271.755 42.7006C271.426 42.9887 271.088 43.2601 270.746 43.5148C269.968 44.0893 269.13 44.5792 268.246 44.9762C267.279 45.4257 266.24 45.7081 265.176 45.8112C263.707 45.9198 262.436 45.544 261.621 44.6421C261.614 44.6292 261.604 44.6178 261.592 44.6087L259.35 42.1035L260.929 40.7173C261.164 39.7859 261.543 38.8958 262.052 38.0784C262.554 37.2576 263.144 36.4932 263.813 35.7987C264.108 35.4939 264.421 35.1932 264.75 34.9009C265.136 34.5632 265.539 34.2454 265.958 33.949C266.747 33.3859 267.597 32.9099 268.491 32.5293C269.305 32.1797 270.165 31.9463 271.046 31.8362L272.621 30.45L274.842 32.9343Z" fill="#003D97"/>
<path d="M272.599 30.4375L274.871 32.9427C275.618 33.7778 275.872 34.9344 275.686 36.2329L271.404 31.4897L272.599 30.4375Z" fill="#05398C"/>
<path d="M260.726 40.8759L265.155 45.8071C263.686 45.9156 262.415 45.5399 261.6 44.638C261.593 44.625 261.583 44.6137 261.571 44.6046L259.328 42.0993L260.726 40.8759Z" fill="#1D75E0"/>
<path d="M262.022 38.0742L268.242 44.9845C267.274 45.434 266.236 45.7164 265.172 45.8196L260.747 40.8885L260.925 40.734C261.16 39.8026 261.539 38.9125 262.048 38.0951L262.022 38.0742Z" fill="#1572CD"/>
<path d="M263.783 35.7903L270.733 43.5231C269.955 44.0976 269.117 44.5876 268.233 44.9845L262.031 38.0826C262.532 37.2618 263.123 36.4974 263.791 35.8028L263.783 35.7903Z" fill="#0B64C5"/>
<path d="M265.932 33.9364L272.849 41.6317C272.507 41.9991 272.139 42.3582 271.746 42.7048C271.417 42.9929 271.079 43.2643 270.737 43.519L263.783 35.7945C264.079 35.4897 264.391 35.189 264.72 34.8968C265.106 34.559 265.509 34.2412 265.928 33.9448L265.932 33.9364Z" fill="#0C59AE"/>
<path d="M268.47 32.5168L274.575 39.306C274.092 40.1406 273.515 40.9192 272.857 41.6275L265.941 33.9323C266.73 33.3692 267.58 32.8932 268.474 32.5126L268.47 32.5168Z" fill="#104D97"/>
<path d="M271.379 31.5105L275.682 36.2997C275.502 37.3608 275.125 38.38 274.571 39.306L268.466 32.5168C269.28 32.1671 270.14 31.9338 271.02 31.8237L271.379 31.5105Z" fill="#084694"/>
<ellipse cx="265.98" cy="36.2893" rx="8.8403" ry="5.25379" transform="rotate(-41.63 265.98 36.2893)" fill="url(#paint23_linear_22_51159)"/>
<path d="M272.629 30.4709C272.952 30.8163 273.195 31.2265 273.343 31.6734C273.488 32.1227 273.561 32.592 273.558 33.0638C273.527 34.0063 273.315 34.9345 272.933 35.7987C272.561 36.6648 272.08 37.4812 271.502 38.2287C270.36 39.7341 268.924 40.9977 267.279 41.9448C266.461 42.4248 265.586 42.8021 264.674 43.068C263.761 43.3404 262.804 43.4382 261.853 43.3561C261.379 43.3049 260.915 43.178 260.481 42.9803C260.052 42.7829 259.669 42.4984 259.358 42.1452C259.519 42.3154 259.699 42.4667 259.894 42.5962C260.085 42.7301 260.29 42.8422 260.507 42.9302C260.938 43.1077 261.396 43.2162 261.862 43.2517C262.796 43.3103 263.733 43.1927 264.623 42.9052C265.517 42.6291 266.375 42.2493 267.178 41.7736C267.982 41.3013 268.737 40.7517 269.433 40.1327C270.137 39.5208 270.779 38.8426 271.35 38.1076C271.92 37.3752 272.402 36.5792 272.785 35.736C273.177 34.8951 273.405 33.9884 273.457 33.0638C273.476 32.6015 273.42 32.1392 273.292 31.6942C273.26 31.5838 273.222 31.4751 273.178 31.3686C273.135 31.2601 273.085 31.1542 273.03 31.0512C272.917 30.8444 272.783 30.6498 272.629 30.4709V30.4709Z" fill="#67C4FB"/>
<path d="M268.875 39.5148C267.396 40.8812 265.574 41.83 263.597 42.2622C261.486 42.6463 260.502 41.949 260.097 41.4981C259.692 41.0471 259.109 39.9908 259.742 37.9699C261.176 34.1646 264.425 31.3102 268.415 30.3498C270.526 29.9657 271.514 30.6629 271.915 31.1139C272.317 31.5648 272.903 32.617 272.274 34.6421C271.6 36.5367 270.427 38.2189 268.875 39.5148Z" fill="url(#paint24_linear_22_51159)"/>
<path d="M263.597 42.2622C263.046 42.3983 262.476 42.4517 261.908 42.4208C261.32 42.387 260.753 42.1887 260.274 41.8488C260.034 41.6688 259.833 41.443 259.683 41.1849C259.529 40.9257 259.418 40.6438 259.354 40.3498C259.238 39.7765 259.238 39.1862 259.354 38.6129C259.582 37.4849 260.033 36.4123 260.68 35.4563C261.959 33.5451 263.72 31.9966 265.789 30.9636C266.817 30.4473 267.937 30.1325 269.086 30.0366C269.677 29.9935 270.271 30.0644 270.834 30.2454C271.119 30.3416 271.385 30.4826 271.624 30.6629C271.867 30.8426 272.07 31.0683 272.224 31.3268C272.508 31.8365 272.64 32.4158 272.604 32.997C272.571 33.5601 272.452 34.1149 272.249 34.6421C272.279 34.5043 272.312 34.3707 272.338 34.2245C272.363 34.0784 272.393 33.9531 272.405 33.807C272.443 33.5303 272.457 33.251 272.447 32.9719C272.44 32.4309 272.282 31.9023 271.991 31.4437C271.686 31.014 271.238 30.7037 270.725 30.5669C270.204 30.4282 269.661 30.3872 269.124 30.4458C268.032 30.5751 266.974 30.9051 266.004 31.4187C265.023 31.9218 264.111 32.5461 263.289 33.2767C262.456 33.9971 261.721 34.821 261.102 35.7277C260.471 36.6204 260.015 37.6215 259.755 38.6797C259.634 39.1985 259.611 39.7351 259.687 40.2622C259.767 40.7835 260.026 41.2616 260.422 41.615C260.849 41.9542 261.361 42.1708 261.904 42.2413C262.183 42.2852 262.466 42.3034 262.749 42.2956C262.888 42.2956 263.027 42.2956 263.171 42.2956L263.597 42.2622Z" fill="#0C59AE"/>
<path d="M265.328 33.7653L265.379 33.7319L265.43 33.7026H265.455L265.535 33.665C265.599 33.6408 265.666 33.6267 265.734 33.6233C265.782 33.6193 265.83 33.6193 265.877 33.6233C265.979 33.6364 266.072 33.6854 266.139 33.7611L265.894 33.4312C265.825 33.3551 265.731 33.305 265.628 33.2893C265.582 33.2851 265.535 33.2851 265.489 33.2893C265.421 33.2927 265.354 33.3068 265.29 33.331L265.21 33.3686H265.185L265.143 33.3936L265.092 33.4312H265.071C265.056 33.4441 265.042 33.458 265.029 33.473L262.276 36.2246L262.521 36.5544L265.269 33.7987L265.328 33.7653Z" fill="#0B64C5"/>
<path d="M264.915 36.2078C264.915 36.2078 264.915 36.1744 264.915 36.1577C264.915 36.141 264.915 36.1577 264.915 36.1285C264.917 36.1175 264.917 36.1061 264.915 36.0951V36.0659C264.913 36.0576 264.913 36.0491 264.915 36.0408C264.924 36.0109 264.935 35.9816 264.948 35.9531L264.995 35.8738C265.012 35.8457 265.032 35.8191 265.054 35.7945L265.1 35.7444L265.155 35.6943L265.21 35.6525L265.261 35.6233H265.299H265.354H265.413H265.565H265.772H265.831L265.856 34.7465L265.616 34.4208L265.59 35.2976H265.527H265.324H265.286H265.227H265.172H265.134L265.084 35.3227L265.033 35.3602L264.995 35.3978L264.948 35.4479L264.889 35.5273C264.871 35.5522 264.856 35.5788 264.843 35.6066L264.805 35.6984C264.807 35.708 264.807 35.7181 264.805 35.7277C264.807 35.7387 264.807 35.7501 264.805 35.7611C264.805 35.7611 264.805 35.782 264.805 35.7945C264.805 35.7945 264.805 35.807 264.805 35.7945C264.805 35.7945 264.805 35.7945 264.805 35.8237C264.803 35.8599 264.803 35.8961 264.805 35.9323C264.805 35.9323 264.805 35.9323 264.805 35.9657C264.805 35.9991 264.805 36.0116 264.805 36.0367V36.0742C264.803 36.0937 264.803 36.1132 264.805 36.1327V36.1703C264.806 36.1814 264.806 36.1925 264.805 36.2037L264.83 36.2371L265.071 36.5669C265.055 36.5456 265.041 36.5233 265.029 36.5001V36.4625C265.02 36.4435 265.013 36.424 265.008 36.4041V36.3665C265.008 36.3415 265.008 36.3206 265.008 36.2955C265.008 36.2705 265.008 36.2955 265.008 36.2621C264.976 36.2458 264.945 36.2277 264.915 36.2078Z" fill="#0B64C5"/>
<path d="M267.71 35.402L268.01 35.3811H268.048C268.181 35.3751 268.313 35.4039 268.432 35.4646C268.515 35.5093 268.587 35.5721 268.643 35.6483L268.402 35.3227C268.347 35.2452 268.275 35.181 268.191 35.1348C268.072 35.0753 267.94 35.048 267.807 35.0554H267.769H267.469L267.304 35.0805L267.545 35.4103L267.71 35.402Z" fill="#0B64C5"/>
<path d="M265.573 37.8321H265.616L265.738 37.807H265.768L265.915 37.7653H265.953L266.067 37.7193H266.105L266.249 37.6484H266.274L266.35 37.6024L266.384 37.5774L266.443 37.5398L266.528 37.473L266.587 37.4271L266.616 37.402L266.705 37.3185L266.794 37.2266L266.819 37.1974L266.865 37.1473L266.916 37.0805L266.941 37.0513C266.965 37.0227 266.987 36.9919 267.005 36.9594C267.023 36.9345 267.038 36.9079 267.051 36.8801L267.077 36.8342V36.8049C267.077 36.7896 267.077 36.7743 267.077 36.759C267.078 36.7493 267.078 36.7394 267.077 36.7298V36.7047V36.6546C267.078 36.6436 267.078 36.6323 267.077 36.6212V36.5669V36.4584V36.4333C267.079 36.4 267.079 36.3665 267.077 36.3331C267.079 36.2942 267.079 36.2551 267.077 36.2162V36.1828C267.077 36.1452 267.077 36.1076 267.077 36.0659C267.081 36.0131 267.081 35.96 267.077 35.9072V33.949C267.077 33.903 267.077 33.8571 267.077 33.8154C267.079 33.775 267.079 33.7346 267.077 33.6943C267.069 33.6552 267.056 33.6173 267.039 33.5815C267.023 33.5441 267.004 33.5079 266.984 33.473L266.946 33.4145L266.705 33.0888L266.743 33.1473C266.764 33.1808 266.782 33.2156 266.798 33.2517C266.798 33.2893 266.827 33.3268 266.836 33.3644C266.849 33.4037 266.857 33.4443 266.861 33.4855C266.861 33.5314 266.861 33.5732 266.861 33.6191V35.5774C266.866 35.6302 266.866 35.6832 266.861 35.736C266.861 35.7778 266.861 35.8154 266.861 35.8529V35.8863C266.863 35.9253 266.863 35.9643 266.861 36.0033C266.863 36.0366 266.863 36.0701 266.861 36.1035V36.1285V36.2371C266.861 36.2371 266.861 36.2371 266.861 36.2621V36.3164C266.864 36.3274 266.864 36.3388 266.861 36.3498V36.3999C266.864 36.4137 266.864 36.4279 266.861 36.4417C266.862 36.4514 266.862 36.4612 266.861 36.4709L266.84 36.5168V36.5461L266.811 36.6003V36.6254L266.76 36.7047C266.76 36.734 266.718 36.7632 266.696 36.7924L266.671 36.8216L266.62 36.8884L266.566 36.9469L266.54 36.9761L266.452 37.068L266.329 37.1765C266.313 37.194 266.294 37.2095 266.274 37.2225L266.19 37.2893C266.168 37.3008 266.149 37.3148 266.131 37.331L266.017 37.3978L265.873 37.4688H265.835L265.717 37.5189H265.683L265.535 37.5649H265.506L265.383 37.5899H265.341C265.29 37.5899 265.244 37.5899 265.193 37.5899C264.77 37.6255 264.355 37.4577 264.079 37.139L264.028 37.0722L264.269 37.402L264.319 37.4688C264.598 37.7842 265.011 37.9512 265.434 37.9198L265.573 37.8321Z" fill="#0B64C5"/>
<path d="M270.011 36.1828C270.009 36.1592 270.009 36.1354 270.011 36.1118V36.0534C270.013 36.0297 270.013 36.006 270.011 35.9824V35.9239C270.009 35.9003 270.009 35.8766 270.011 35.8529C270.009 35.8349 270.009 35.8167 270.011 35.7987C270.011 35.7736 270.011 35.7486 270.011 35.7235V35.6692C270.006 35.6437 269.999 35.6185 269.99 35.5941V35.5481L269.956 35.4646V35.4229L269.901 35.306L269.656 34.9761C269.677 35.0137 269.694 35.0554 269.711 35.093C269.712 35.1069 269.712 35.1209 269.711 35.1348C269.723 35.1619 269.733 35.1898 269.741 35.2183C269.743 35.2349 269.743 35.2517 269.741 35.2684C269.743 35.2934 269.743 35.3185 269.741 35.3435V35.3936C269.741 35.4187 269.741 35.4437 269.741 35.4688C269.741 35.4939 269.741 35.5064 269.741 35.5231V35.5941V35.6525C269.743 35.6761 269.743 35.6999 269.741 35.7235V35.782C269.739 35.8056 269.739 35.8293 269.741 35.8529C269.741 35.8529 269.741 35.8905 269.741 35.9114V35.9991L269.715 36.1243V36.1661L269.69 36.2496V36.2872C269.69 36.3164 269.69 36.3415 269.661 36.3665C269.659 36.3818 269.659 36.3972 269.661 36.4124L269.623 36.4876L269.597 36.5293L269.551 36.6087C269.552 36.6198 269.552 36.631 269.551 36.6421L269.479 36.7423L269.39 36.8509C269.356 36.8918 269.319 36.9308 269.281 36.9678L266.43 39.7611L266.376 39.807L266.346 39.8321L266.3 39.8655H266.274H266.249L266.164 39.9114H266.135L266.029 39.9532L265.932 39.9782H265.903C265.866 39.9803 265.829 39.9803 265.793 39.9782C265.482 39.9944 265.183 39.8548 264.999 39.6066L265.24 39.9323C265.423 40.1826 265.722 40.3241 266.034 40.3081H266.143H266.173H266.27L266.38 40.2621H266.405L266.49 40.2162H266.519L266.561 40.1828L266.591 40.1578H266.62L266.646 40.1285L269.496 37.3394C269.535 37.3024 269.571 37.2634 269.606 37.2225L269.69 37.1181C269.714 37.0891 269.735 37.0584 269.753 37.0262L269.775 36.9928L269.821 36.9135L269.846 36.8717C269.844 36.8579 269.844 36.8438 269.846 36.83C269.844 36.819 269.844 36.8076 269.846 36.7966C269.845 36.7813 269.845 36.7659 269.846 36.7506L269.876 36.6713C269.877 36.6574 269.877 36.6435 269.876 36.6296C269.876 36.6087 269.876 36.5836 269.876 36.5586V36.521C269.876 36.4792 269.876 36.4375 269.901 36.3957C269.927 36.354 269.901 36.3707 269.901 36.354C269.904 36.3388 269.904 36.3233 269.901 36.3081C269.901 36.3081 270.007 36.1995 270.011 36.1828Z" fill="#0B64C5"/>
<path d="M262.233 36.1953L262.478 36.5252L262.238 36.1953" fill="#9A7D7C"/>
<path d="M262.271 36.2454L262.516 36.5753L262.478 36.5252L262.233 36.1953L262.271 36.2454Z" fill="#957978"/>
<path d="M269.475 34.8008L269.715 35.1306C269.741 35.1682 269.77 35.2058 269.796 35.2475L269.551 34.9177C269.53 34.8801 269.5 34.8383 269.475 34.8008Z" fill="#B89695"/>
<path d="M269.551 34.9177L269.796 35.2475C269.805 35.2679 269.817 35.2874 269.829 35.306L269.585 34.9761C269.575 34.9558 269.564 34.9362 269.551 34.9177Z" fill="#BD9A99"/>
<path d="M264.915 39.6901L265.155 40.0158L265.092 39.9365L264.851 39.6066L264.915 39.6901Z" fill="#957978"/>
<path d="M266.464 36.926C266.87 36.6054 267.066 36.0913 266.975 35.5857C266.98 35.5329 266.98 35.4798 266.975 35.4271V33.4688C266.98 33.2163 266.884 32.9721 266.709 32.7882C266.535 32.6096 266.301 32.4998 266.05 32.4792C265.962 32.4709 265.873 32.4709 265.784 32.4792C265.597 32.4908 265.413 32.5331 265.24 32.6045C264.968 32.7093 264.723 32.8718 264.522 33.0805L262.44 35.1682C262.129 35.4306 262.045 35.8721 262.238 36.2287L262.276 36.2788L265.029 33.5272C265.116 33.4375 265.221 33.3664 265.337 33.3185C265.4 33.2942 265.467 33.2802 265.535 33.2767C265.582 33.2726 265.628 33.2726 265.675 33.2767C265.777 33.2924 265.871 33.3426 265.941 33.4187C266.005 33.4988 266.036 33.6007 266.025 33.7026L265.991 35.6191C265.991 35.6191 265.991 35.7152 265.991 35.7903C266.02 35.9761 265.954 36.164 265.814 36.2914C265.675 36.4335 265.489 36.5223 265.29 36.5419C265.12 36.5575 264.952 36.4936 264.836 36.3691C264.72 36.2447 264.67 36.0739 264.699 35.9072C264.724 35.7234 264.81 35.5529 264.944 35.4229C265.077 35.2845 265.267 35.2138 265.459 35.2308H265.662H265.708L265.734 34.354H265.569C265.108 34.3424 264.667 34.5391 264.37 34.8884C264.064 35.1877 263.861 35.575 263.791 35.9949C263.724 36.386 263.829 36.7869 264.079 37.0972C264.355 37.4159 264.77 37.5837 265.193 37.5482C265.68 37.5034 266.133 37.2818 266.464 36.926Z" fill="#D4F7FF"/>
<path d="M269.585 34.9761C269.419 34.6751 269.164 34.4317 268.854 34.2788C268.561 34.1387 268.237 34.0755 267.913 34.0951H267.841L267.545 34.1243L267.258 34.1536L267.305 35.0889L267.469 35.0638H267.769H267.82C267.953 35.0563 268.085 35.0837 268.204 35.1431C268.325 35.2117 268.422 35.3151 268.483 35.4396C268.545 35.5697 268.563 35.7162 268.533 35.8571C268.504 36.0049 268.425 36.1386 268.309 36.2371L264.864 39.6066L264.927 39.6901C265.112 39.9383 265.41 40.078 265.721 40.0617C265.965 40.0445 266.196 39.9425 266.371 39.7736L269.222 36.9803C269.499 36.716 269.688 36.3733 269.762 35.9991C269.82 35.6481 269.757 35.288 269.585 34.9761Z" fill="#D4F7FF"/>
</g>
<g opacity="0.75">
<path d="M251.009 33.8108H251.051C252.082 33.4389 252.927 32.6783 253.404 31.6921C253.799 30.9093 254.031 30.0547 254.087 29.1797C254.138 28.4296 254.087 27.6762 253.936 26.9396C253.791 26.2283 253.561 25.5367 253.253 24.8795C252.936 24.2014 252.531 23.5678 252.049 22.9953C251.509 22.3181 250.84 21.7533 250.082 21.3329C249.051 20.7509 247.824 20.622 246.693 20.977H246.651L244.185 21.8145L244.127 23.5312C243.837 24.2559 243.674 25.025 243.644 25.8049C243.616 26.5516 243.683 27.2988 243.846 28.0283C243.919 28.3512 244.01 28.6699 244.118 28.9829C244.245 29.3556 244.396 29.7193 244.571 30.0716C244.905 30.7476 245.328 31.3757 245.829 31.9391C246.303 32.4736 246.858 32.93 247.473 33.2916L248.572 34.6147L251.009 33.8108Z" fill="#003D97"/>
<path d="M244.043 23.3805L250.082 21.3329C249.051 20.7509 247.824 20.622 246.693 20.977H246.652L244.186 21.8145L244.043 23.3805Z" fill="#05398C"/>
<path d="M251.009 33.8108H251.051C252.082 33.4388 252.927 32.6783 253.404 31.692L247.566 33.6684L248.547 34.6482L251.009 33.8108Z" fill="#1D75E0"/>
<path d="M243.615 25.8258L252.049 22.9492C251.504 22.2886 250.836 21.7397 250.082 21.3329L244.043 23.3763L244.102 23.548C243.812 24.2727 243.648 25.0417 243.619 25.8216L243.615 25.8258Z" fill="#084694"/>
<path d="M243.816 28.0534L253.253 24.8376C252.936 24.1595 252.531 23.5259 252.049 22.9534L243.623 25.8258C243.595 26.5725 243.662 27.3197 243.825 28.0492L243.816 28.0534Z" fill="#104D97"/>
<path d="M244.542 30.1051L253.936 26.9061C253.791 26.1948 253.561 25.5032 253.253 24.846L243.816 28.0618C243.89 28.3847 243.981 28.7034 244.089 29.0165C244.215 29.3891 244.367 29.7528 244.542 30.1051Z" fill="#0C59AE"/>
<path d="M245.8 31.9726L254.087 29.1462C254.138 28.3961 254.087 27.6427 253.936 26.9061L244.542 30.1051C244.876 30.7811 245.299 31.4092 245.8 31.9726Z" fill="#0B64C5"/>
<path d="M247.566 33.6684L253.408 31.6753C253.803 30.8925 254.036 30.0379 254.091 29.163L245.8 31.9893C246.273 32.5238 246.828 32.9803 247.444 33.3418L247.566 33.6684Z" fill="#1572CD"/>
<ellipse cx="246.336" cy="28.2416" rx="5.3924" ry="6.776" transform="rotate(-18.84 246.336 28.2416)" fill="url(#paint25_linear_22_51159)"/>
<path d="M248.526 34.6357C248.901 34.5004 249.255 34.3144 249.579 34.083C249.903 33.8515 250.196 33.58 250.451 33.2748C250.958 32.661 251.329 31.9477 251.542 31.1812C251.758 30.418 251.849 29.6246 251.81 28.8322C251.732 27.2416 251.207 25.705 250.296 24.398C249.84 23.7539 249.282 23.1882 248.644 22.7231C248.009 22.2429 247.278 21.9045 246.5 21.7307C246.113 21.6421 245.715 21.6055 245.318 21.6219C244.919 21.6384 244.525 21.7059 244.144 21.8229C244.906 21.5564 245.725 21.4986 246.517 21.6554C247.31 21.8164 248.059 22.1448 248.715 22.6184C249.365 23.0908 249.932 23.6681 250.392 24.3268C250.858 24.9862 251.228 25.708 251.491 26.4706C251.759 27.2371 251.914 28.0382 251.953 28.849C251.992 29.6554 251.892 30.4626 251.659 31.2357C251.425 32.0054 251.034 32.7183 250.51 33.3293C249.978 33.9348 249.293 34.3861 248.526 34.6357Z" fill="#67C4FB"/>
<path d="M250.732 26.7303C250.222 25.1717 249.184 23.8392 247.796 22.9618C246.207 21.9945 244.936 22.2039 244.32 22.4133C243.703 22.6226 242.567 23.2507 241.9 24.9716C240.817 28.1591 242.023 31.6746 244.836 33.5303C246.425 34.4975 247.696 34.2923 248.312 34.0788C248.929 33.8652 250.065 33.2413 250.732 31.5246C251.292 29.9754 251.292 28.2794 250.732 26.7303Z" fill="url(#paint26_linear_22_51159)"/>
<path d="M247.809 22.945C247.368 22.6989 246.895 22.5144 246.404 22.3965C245.918 22.2886 245.415 22.2744 244.924 22.3546C244.678 22.3981 244.439 22.4698 244.211 22.5682C243.987 22.6651 243.775 22.7858 243.577 22.9283C243.18 23.2163 242.841 23.5755 242.575 23.9876C242.312 24.4021 242.106 24.85 241.963 25.3192C241.82 25.7863 241.729 26.2681 241.694 26.7554C241.662 27.2472 241.68 27.7411 241.749 28.2293C241.823 28.7256 241.945 29.2136 242.114 29.6864C242.277 30.1527 242.48 30.6038 242.722 31.0347C242.966 31.4488 243.25 31.8386 243.569 32.1987C243.896 32.5663 244.265 32.895 244.668 33.1785C245.07 33.4614 245.507 33.6909 245.968 33.861C246.43 34.0258 246.92 34.1025 247.411 34.0871C247.654 34.081 247.896 34.0473 248.132 33.9867C248.369 33.9229 248.598 33.833 248.815 33.7187C249.255 33.4841 249.644 33.1654 249.96 32.7807C250.276 32.3878 250.537 31.9539 250.736 31.4911C250.574 31.9748 250.341 32.432 250.044 32.8477C249.74 33.2656 249.355 33.6186 248.912 33.8862C248.685 34.0176 248.445 34.1243 248.195 34.2044C247.943 34.2788 247.685 34.3265 247.423 34.3468C246.898 34.3801 246.371 34.3133 245.871 34.15C244.879 33.8132 243.991 33.2261 243.292 32.4458C241.891 30.8773 241.185 28.8099 241.334 26.7135C241.408 25.6669 241.752 24.6572 242.332 23.7825C242.627 23.3485 243.003 22.9747 243.439 22.6812C243.659 22.5371 243.893 22.4177 244.139 22.3253C244.384 22.2332 244.639 22.1699 244.898 22.1369C245.414 22.0791 245.935 22.1232 246.433 22.2667C246.923 22.4234 247.387 22.652 247.809 22.945Z" fill="#0C59AE"/>
<path d="M243.67 28.3758V28.3465C243.668 28.3284 243.668 28.3102 243.67 28.2921C243.668 28.2726 243.668 28.2529 243.67 28.2334C243.67 28.2334 243.67 28.2334 243.67 28.2083V28.1246C243.659 28.0594 243.659 27.9929 243.67 27.9278C243.681 27.8819 243.697 27.8371 243.716 27.7938C243.755 27.7007 243.826 27.6249 243.917 27.5802L243.54 27.7184C243.45 27.762 243.378 27.8363 243.338 27.9278C243.32 27.9713 243.304 28.0161 243.292 28.0618C243.282 28.1283 243.282 28.1962 243.292 28.2627V28.3423C243.292 28.3521 243.292 28.3618 243.292 28.3716V28.4177C243.29 28.4259 243.29 28.4345 243.292 28.4428C243.29 28.4609 243.29 28.4791 243.292 28.4972V28.5223C243.3 28.5413 243.31 28.5595 243.322 28.5768L245.23 31.8972L245.607 31.7549L243.707 28.4302C243.693 28.4136 243.68 28.3953 243.67 28.3758Z" fill="#0B64C5"/>
<path d="M245.888 29.4059H245.846H245.817H245.788H245.762H245.741L245.666 29.3472C245.642 29.3271 245.619 29.3046 245.599 29.2802L245.54 29.2049L245.502 29.1463C245.502 29.1211 245.477 29.1002 245.469 29.0793C245.46 29.059 245.453 29.038 245.448 29.0165V28.9662C245.446 28.9537 245.446 28.941 245.448 28.9285C245.446 28.9104 245.446 28.8922 245.448 28.8741C245.448 28.8741 245.448 28.8364 245.448 28.8197C245.448 28.8197 245.448 28.7903 245.448 28.7736V28.7066C245.448 28.7066 245.473 28.5852 245.49 28.514C245.507 28.4428 245.49 28.4679 245.49 28.4512L244.651 28.2L244.274 28.3381L245.112 28.5935V28.6522L245.07 28.849V28.9118C245.07 28.9118 245.07 28.9411 245.07 28.9578C245.07 28.9788 245.07 28.9955 245.07 29.0165C245.068 29.0345 245.068 29.0528 245.07 29.0709C245.068 29.0848 245.068 29.0989 245.07 29.1128V29.1672C245.068 29.1867 245.068 29.2063 245.07 29.2258L245.096 29.2719L245.133 29.3305C245.15 29.3587 245.17 29.3853 245.192 29.41L245.259 29.4729L245.335 29.5315H245.36H245.389H245.418H245.448L245.553 29.565H245.586H245.653H245.754H245.796H245.888H245.93L246.308 29.4226H246.232H246.19H246.089H246.018H245.989C245.955 29.4211 245.921 29.4155 245.888 29.4059Z" fill="#0B64C5"/>
<path d="M245.855 26.5627L245.913 26.2696C245.911 26.2586 245.911 26.2472 245.913 26.2361C245.939 26.1089 246 25.9914 246.089 25.897C246.155 25.8289 246.235 25.7772 246.324 25.7462L245.947 25.8844C245.858 25.9154 245.777 25.967 245.712 26.0352C245.623 26.1311 245.562 26.25 245.536 26.3785C245.536 26.3785 245.536 26.3994 245.536 26.412L245.477 26.7009V26.86L245.855 26.7219V26.5627Z" fill="#0B64C5"/>
<path d="M247.616 29.2174C247.616 29.2174 247.616 29.1881 247.616 29.1756C247.616 29.163 247.616 29.0918 247.616 29.0499V29.0248C247.616 28.9746 247.616 28.9243 247.616 28.8741C247.616 28.8238 247.616 28.849 247.616 28.8364V28.7108C247.616 28.7108 247.616 28.6857 247.616 28.6731C247.616 28.6605 247.616 28.5684 247.587 28.5182C247.585 28.5099 247.585 28.5013 247.587 28.493L247.561 28.4051V28.3674L247.536 28.3004L247.499 28.2041L247.465 28.1371V28.1036L247.406 27.999L247.343 27.8901L247.322 27.8566L247.285 27.8022L247.234 27.7352L247.213 27.7059C247.188 27.6765 247.167 27.6472 247.142 27.6221L247.083 27.5551H247.062L247.025 27.5216H246.999L246.962 27.4881H246.932H246.911L246.865 27.463H246.84C246.825 27.4514 246.808 27.4428 246.79 27.4379C246.759 27.4217 246.727 27.4091 246.693 27.4002H246.668L246.572 27.3709L246.458 27.3416H246.429L246.316 27.3123L246.161 27.2746L244.211 26.6046L244.081 26.5795H243.959H243.934H243.821H243.707H243.644L243.267 26.7177H243.334L243.447 26.6926H243.468H243.582H243.607H243.728C243.772 26.6969 243.816 26.7053 243.858 26.7177L245.725 27.2369L245.88 27.2788L245.993 27.3039H246.022L246.136 27.329L246.232 27.3583H246.257L246.354 27.396H246.379L246.429 27.4211H246.454C246.471 27.4284 246.487 27.4383 246.5 27.4504L246.538 27.4714H246.563L246.601 27.5007H246.626L246.668 27.5426H246.689L246.748 27.6095L246.819 27.6975L246.84 27.7268L246.89 27.7938L246.932 27.8566C246.938 27.8687 246.945 27.8799 246.953 27.8901L247.016 27.999C247.046 28.0492 247.067 28.0953 247.092 28.1413C247.1 28.1644 247.11 28.1868 247.121 28.2083L247.146 28.4302L247.171 28.4972L247.209 28.6187C247.207 28.6283 247.207 28.6384 247.209 28.648C247.209 28.6982 247.209 28.7485 247.239 28.8029C247.268 28.8573 247.239 28.828 247.239 28.8406V28.962C247.239 28.962 247.239 28.9871 247.239 28.9997C247.239 29.0123 247.239 29.1002 247.239 29.1504V29.1797C247.239 29.2216 247.239 29.2635 247.239 29.3054C247.237 29.3178 247.237 29.3306 247.239 29.343L247.213 29.4896C247.133 29.8969 246.864 30.242 246.488 30.4192L246.412 30.4485L246.79 30.3103L246.865 30.2768C247.241 30.0996 247.511 29.7546 247.591 29.3472C247.603 29.3137 247.612 29.2677 247.616 29.2174Z" fill="#0B64C5"/>
<path d="M247.201 24.5989H247.134H247.079H247.012H246.953H246.886H246.828H246.572H246.488H246.442H246.316L245.938 24.7371L246.068 24.7162H246.45H246.509H246.576H246.635H246.702H246.756L246.823 24.7371L246.878 24.7622L246.958 24.7957L247.071 24.8544L247.104 24.8753L247.18 24.9214L247.213 24.9465L247.281 24.9967L247.318 25.0302L247.377 25.0847L247.415 25.1181L247.478 25.1851L247.503 25.2145C247.532 25.2432 247.558 25.274 247.582 25.3066L247.662 25.4196C247.693 25.4627 247.721 25.5075 247.746 25.5536L249.663 28.9871L249.692 29.0499V29.0876L249.713 29.1379C249.713 29.1379 249.713 29.1379 249.713 29.1714C249.713 29.2048 249.713 29.1714 249.713 29.1965L249.738 29.2886C249.738 29.2886 249.738 29.2886 249.738 29.3179C249.74 29.3556 249.74 29.3933 249.738 29.431V29.5398C249.736 29.5495 249.736 29.5594 249.738 29.5691C249.74 29.6054 249.74 29.6418 249.738 29.678C249.673 29.9766 249.459 30.2213 249.172 30.327L249.549 30.1888C249.836 30.0818 250.049 29.8377 250.116 29.5398C250.116 29.5021 250.116 29.4645 250.116 29.431C250.114 29.4213 250.114 29.4113 250.116 29.4016V29.2886V29.1755C250.116 29.1755 250.116 29.1755 250.116 29.1504L250.09 29.0541V29.029C250.089 29.0179 250.089 29.0066 250.09 28.9955L250.069 28.9452C250.069 28.9452 250.069 28.9452 250.069 28.9117V28.8782C250.068 28.8685 250.068 28.8587 250.069 28.8489L248.149 25.4238C248.123 25.3778 248.094 25.3359 248.065 25.2898L247.989 25.181C247.964 25.1558 247.943 25.1265 247.918 25.0972L247.893 25.0679L247.83 25.0009L247.792 24.9716L247.763 24.9381L247.733 24.913L247.696 24.8837L247.629 24.8334L247.595 24.8083L247.532 24.7706L247.499 24.7455L247.385 24.6869H247.352H247.306L247.201 24.5989Z" fill="#0B64C5"/>
<path d="M245.184 31.9307L245.561 31.7925L245.184 31.9349" fill="#9A7D7C"/>
<path d="M245.238 31.9098L245.616 31.7674L245.561 31.7925L245.184 31.9307L245.238 31.9098Z" fill="#957978"/>
<path d="M245.741 24.7413L246.119 24.599L246.253 24.5571L245.876 24.6953L245.741 24.7413Z" fill="#B89695"/>
<path d="M245.888 24.6953L246.266 24.5571H246.328L245.951 24.6953H245.888Z" fill="#BD9A99"/>
<path d="M249.214 30.327L249.591 30.1888L249.499 30.2265L249.122 30.3647L249.214 30.327Z" fill="#957978"/>
<path d="M246.983 28.1371C246.783 27.6701 246.344 27.3491 245.838 27.2997L245.683 27.2578L243.816 26.7553C243.576 26.6828 243.318 26.7068 243.095 26.8223C242.881 26.9452 242.715 27.1372 242.625 27.3667C242.589 27.4397 242.558 27.5153 242.533 27.5928C242.502 27.7729 242.502 27.957 242.533 28.1371C242.562 28.4217 242.653 28.6963 242.801 28.9411L244.227 31.4534C244.394 31.8214 244.799 32.0186 245.192 31.9223H245.246L243.338 28.6019C243.276 28.4968 243.236 28.3799 243.221 28.2585C243.21 28.192 243.21 28.1241 243.221 28.0576C243.233 28.0119 243.249 27.9671 243.267 27.9236C243.307 27.8321 243.378 27.7578 243.468 27.7142C243.562 27.6742 243.668 27.6742 243.762 27.7142L245.582 28.2502L245.746 28.3004C245.926 28.3263 246.083 28.4389 246.165 28.6019C246.262 28.7702 246.298 28.9671 246.266 29.1588C246.238 29.3242 246.133 29.4668 245.984 29.5434C245.834 29.6201 245.657 29.6219 245.507 29.5482C245.329 29.4814 245.18 29.3538 245.087 29.1881C244.988 29.0268 244.97 28.8289 245.037 28.6521L245.079 28.4553V28.3967L244.24 28.1413L244.211 28.3046C244.086 28.7323 244.16 29.1931 244.412 29.5608C244.614 29.9312 244.932 30.2254 245.318 30.3982C245.676 30.5569 246.084 30.5569 246.442 30.3982C246.818 30.221 247.087 29.876 247.167 29.4686C247.266 29.017 247.201 28.5449 246.983 28.1371Z" fill="#D4F7FF"/>
<path d="M245.938 24.6618C245.615 24.7435 245.323 24.9199 245.1 25.1684C244.892 25.408 244.747 25.696 244.68 26.0059V26.077L244.63 26.3618L244.584 26.6423L245.49 26.8433V26.6842L245.548 26.3953C245.548 26.3953 245.548 26.3701 245.548 26.3618C245.574 26.2332 245.635 26.1144 245.725 26.0184C245.821 25.921 245.946 25.8565 246.081 25.8342C246.224 25.8089 246.37 25.8294 246.5 25.8928C246.634 25.9618 246.741 26.0719 246.807 26.2068L249.138 30.348L249.231 30.3103C249.505 30.2048 249.71 29.9717 249.78 29.6864C249.829 29.451 249.792 29.2058 249.675 28.9955L247.754 25.5746C247.574 25.2424 247.296 24.9735 246.958 24.8041C246.643 24.6461 246.285 24.596 245.938 24.6618Z" fill="#D4F7FF"/>
</g>
<path d="M64.488 60H69.048V50.4L73.32 56.928H73.416L77.712 50.352V60H82.344V43.2H77.424L73.416 49.704L69.408 43.2H64.488V60Z" fill="white"/>
<path d="M85.324 60H91.708C97.756 60 101.284 56.4 101.284 51.552V51.504C101.284 46.656 97.804 43.2 91.804 43.2H85.324V60ZM89.98 55.872V47.328H91.876C94.66 47.328 96.508 48.888 96.508 51.576V51.624C96.508 54.336 94.66 55.872 91.876 55.872H89.98Z" fill="white"/>
<path d="M103.676 60H117.308V56.04H108.284V53.376H116.348V49.704H108.284V47.16H117.188V43.2H103.676V60Z" fill="white"/>
<path d="M118.459 60H123.691L126.931 54.936L130.147 60H135.499L129.739 51.408L135.259 43.2H130.027L127.027 47.928L124.051 43.2H118.699L124.219 51.456L118.459 60Z" fill="white"/>
<defs>
<linearGradient id="paint0_linear_22_51159" x1="337.783" y1="122.68" x2="337.783" y2="16.0266" gradientUnits="userSpaceOnUse">
<stop stop-color="#112458"/>
<stop offset="1" stop-color="#08276B"/>
</linearGradient>
<linearGradient id="paint1_linear_22_51159" x1="181.626" y1="120.558" x2="213.432" y2="120.558" gradientUnits="userSpaceOnUse">
<stop stop-color="#35FFE3"/>
<stop offset="1" stop-color="#35FFE3" stop-opacity="0.01"/>
</linearGradient>
<linearGradient id="paint2_linear_22_51159" x1="163.765" y1="120.035" x2="210.603" y2="120.035" gradientUnits="userSpaceOnUse">
<stop stop-color="#FF914F"/>
<stop offset="0.27" stop-color="#FF914F" stop-opacity="0.99"/>
<stop offset="0.4" stop-color="#FF8F4E" stop-opacity="0.96"/>
<stop offset="0.51" stop-color="#FF8D4C" stop-opacity="0.91"/>
<stop offset="0.6" stop-color="#FF8A4A" stop-opacity="0.83"/>
<stop offset="0.69" stop-color="#FF8647" stop-opacity="0.74"/>
<stop offset="0.76" stop-color="#FF8243" stop-opacity="0.62"/>
<stop offset="0.83" stop-color="#FF7C3F" stop-opacity="0.48"/>
<stop offset="0.9" stop-color="#FF753A" stop-opacity="0.31"/>
<stop offset="0.96" stop-color="#FF6E34" stop-opacity="0.13"/>
<stop offset="1" stop-color="#FF6930" stop-opacity="0.01"/>
</linearGradient>
<linearGradient id="paint3_linear_22_51159" x1="301.173" y1="120.604" x2="328.942" y2="120.604" gradientUnits="userSpaceOnUse">
<stop stop-color="#35FFE3" stop-opacity="0.01"/>
<stop offset="1" stop-color="#35FFE3"/>
</linearGradient>
<linearGradient id="paint4_linear_22_51159" x1="302.271" y1="120.026" x2="350.833" y2="120.026" gradientUnits="userSpaceOnUse">
<stop stop-color="#FF6930" stop-opacity="0.01"/>
<stop offset="0.04" stop-color="#FF6E34" stop-opacity="0.13"/>
<stop offset="0.1" stop-color="#FF753A" stop-opacity="0.31"/>
<stop offset="0.17" stop-color="#FF7C3F" stop-opacity="0.48"/>
<stop offset="0.24" stop-color="#FF8243" stop-opacity="0.62"/>
<stop offset="0.31" stop-color="#FF8647" stop-opacity="0.74"/>
<stop offset="0.4" stop-color="#FF8A4A" stop-opacity="0.83"/>
<stop offset="0.49" stop-color="#FF8D4C" stop-opacity="0.91"/>
<stop offset="0.6" stop-color="#FF8F4E" stop-opacity="0.96"/>
<stop offset="0.73" stop-color="#FF914F" stop-opacity="0.99"/>
<stop offset="1" stop-color="#FF914F"/>
</linearGradient>
<linearGradient id="paint5_linear_22_51159" x1="175.576" y1="55.836" x2="175.576" y2="25" gradientUnits="userSpaceOnUse">
<stop stop-color="#082566"/>
<stop offset="1" stop-color="#0A3799"/>
</linearGradient>
<linearGradient id="paint6_linear_22_51159" x1="175.576" y1="55.836" x2="175.576" y2="25" gradientUnits="userSpaceOnUse">
<stop stop-color="#082566"/>
<stop offset="1" stop-color="#0A3799"/>
</linearGradient>
<linearGradient id="paint7_linear_22_51159" x1="175.576" y1="55.836" x2="175.576" y2="25" gradientUnits="userSpaceOnUse">
<stop stop-color="#082566"/>
<stop offset="1" stop-color="#0A3799"/>
</linearGradient>
<linearGradient id="paint8_linear_22_51159" x1="175.576" y1="55.836" x2="175.576" y2="25" gradientUnits="userSpaceOnUse">
<stop stop-color="#082566"/>
<stop offset="1" stop-color="#0A3799"/>
</linearGradient>
<linearGradient id="paint9_linear_22_51159" x1="175.576" y1="55.836" x2="175.576" y2="25" gradientUnits="userSpaceOnUse">
<stop stop-color="#082566"/>
<stop offset="1" stop-color="#0A3799"/>
</linearGradient>
<linearGradient id="paint10_linear_22_51159" x1="175.576" y1="55.836" x2="175.576" y2="25" gradientUnits="userSpaceOnUse">
<stop stop-color="#082566"/>
<stop offset="1" stop-color="#0A3799"/>
</linearGradient>
<linearGradient id="paint11_linear_22_51159" x1="175.576" y1="55.836" x2="175.576" y2="25" gradientUnits="userSpaceOnUse">
<stop stop-color="#082566"/>
<stop offset="1" stop-color="#0A3799"/>
</linearGradient>
<linearGradient id="paint12_linear_22_51159" x1="175.576" y1="55.836" x2="175.576" y2="25" gradientUnits="userSpaceOnUse">
<stop stop-color="#082566"/>
<stop offset="1" stop-color="#0A3799"/>
</linearGradient>
<linearGradient id="paint13_linear_22_51159" x1="152.481" y1="88.653" x2="248.898" y2="88.653" gradientUnits="userSpaceOnUse">
<stop stop-color="#FF914F"/>
<stop offset="0.440184" stop-color="#FF773A" stop-opacity="0.205372"/>
<stop offset="1" stop-color="#FF6930" stop-opacity="0.01"/>
</linearGradient>
<linearGradient id="paint14_linear_22_51159" x1="269.721" y1="57.0718" x2="357.521" y2="57.0718" gradientUnits="userSpaceOnUse">
<stop stop-color="#2BCBB4" stop-opacity="0.01"/>
<stop offset="0.756255" stop-color="#2BCBB4" stop-opacity="0.5"/>
<stop offset="1" stop-color="#2BCBB4"/>
</linearGradient>
<linearGradient id="paint15_linear_22_51159" x1="210.747" y1="115.346" x2="302.96" y2="115.346" gradientUnits="userSpaceOnUse">
<stop stop-color="#4443F4"/>
<stop stop-color="#1172C1"/>
<stop offset="0.99" stop-color="#09326D"/>
</linearGradient>
<linearGradient id="paint16_linear_22_51159" x1="278.216" y1="98.4023" x2="278.216" y2="21.5181" gradientUnits="userSpaceOnUse">
<stop stop-color="#00FFDA" stop-opacity="0.2"/>
<stop offset="1" stop-color="white" stop-opacity="0.01"/>
</linearGradient>
<linearGradient id="paint17_linear_22_51159" x1="257.724" y1="83.8287" x2="275.243" y2="88.1112" gradientUnits="userSpaceOnUse">
<stop stop-color="#4ABAFD"/>
<stop offset="1" stop-color="#116DDA"/>
</linearGradient>
<linearGradient id="paint18_linear_22_51159" x1="282.254" y1="66.8046" x2="265.04" y2="63.7586" gradientUnits="userSpaceOnUse">
<stop stop-color="#0A5ED0"/>
<stop offset="1" stop-color="#2CA2F9"/>
</linearGradient>
<linearGradient id="paint19_linear_22_51159" x1="256.176" y1="49.8385" x2="237.022" y2="49.8385" gradientUnits="userSpaceOnUse">
<stop stop-color="#4ABAFD"/>
<stop offset="1" stop-color="#116DDA"/>
</linearGradient>
<linearGradient id="paint20_linear_22_51159" x1="243.3" y1="47.6389" x2="236.55" y2="60.6056" gradientUnits="userSpaceOnUse">
<stop stop-color="#2CA2F9"/>
<stop offset="1" stop-color="#0A5ED0"/>
</linearGradient>
<linearGradient id="paint21_linear_22_51159" x1="269.814" y1="2.91098" x2="260.375" y2="2.91098" gradientUnits="userSpaceOnUse">
<stop stop-color="#4ABAFD"/>
<stop offset="1" stop-color="#116DDA"/>
</linearGradient>
<linearGradient id="paint22_linear_22_51159" x1="263.508" y1="1.77914" x2="260.136" y2="8.13124" gradientUnits="userSpaceOnUse">
<stop stop-color="#2CA2F9"/>
<stop offset="1" stop-color="#0A5ED0"/>
</linearGradient>
<linearGradient id="paint23_linear_22_51159" x1="256.975" y1="34.974" x2="259.558" y2="43.5633" gradientUnits="userSpaceOnUse">
<stop stop-color="#116DDA"/>
<stop offset="1" stop-color="#4ABAFD"/>
</linearGradient>
<linearGradient id="paint24_linear_22_51159" x1="258.819" y1="42.2639" x2="271.248" y2="41.8881" gradientUnits="userSpaceOnUse">
<stop stop-color="#0A5ED0"/>
<stop offset="1" stop-color="#2CA2F9"/>
</linearGradient>
<linearGradient id="paint25_linear_22_51159" x1="240.945" y1="21.4698" x2="240.945" y2="35.0176" gradientUnits="userSpaceOnUse">
<stop stop-color="#4ABAFD"/>
<stop offset="1" stop-color="#116DDA"/>
</linearGradient>
<linearGradient id="paint26_linear_22_51159" x1="240.716" y1="25.4239" x2="245.474" y2="34.6077" gradientUnits="userSpaceOnUse">
<stop stop-color="#2CA2F9"/>
<stop offset="1" stop-color="#0A5ED0"/>
</linearGradient>
</defs>
</svg>
