<svg width="357" height="125" viewBox="0 0 357 125" fill="none" xmlns="http://www.w3.org/2000/svg">
<g clip-path="url(#clip0_137_44451)">
<rect y="15" width="343" height="110" rx="20" fill="url(#paint0_linear_137_44451)"/>
<mask id="mask0_137_44451" style="mask-type:luminance" maskUnits="userSpaceOnUse" x="0" y="15" width="343" height="110">
<rect y="15" width="343" height="110" rx="20" fill="white"/>
</mask>
<g mask="url(#mask0_137_44451)">
<path opacity="0.41" d="M211.562 100.654C212.001 100.469 212.506 100.675 212.691 101.114C212.865 101.527 212.693 101.999 212.306 102.207L212.231 102.243L197.525 108.43L204.842 108.431C205.739 108.431 206.025 109.614 205.275 110.038L205.202 110.076L183.521 120.048C183.089 120.247 182.577 120.057 182.378 119.625C182.19 119.217 182.347 118.74 182.727 118.519L182.801 118.481L200.903 110.155L193.254 110.155C192.342 110.155 192.069 108.94 192.844 108.534L192.92 108.498L211.562 100.654Z" fill="url(#paint1_linear_137_44451)"/>
<path opacity="0.41" d="M209.446 99.1697C209.753 99.0861 210.069 99.2666 210.152 99.5727C210.23 99.8571 210.08 100.15 209.813 100.257L209.749 100.279L172.921 110.335L182.7 110.336C183.293 110.336 183.486 111.111 183.002 111.4L182.943 111.431L165.013 119.785C164.725 119.919 164.383 119.795 164.249 119.507C164.125 119.24 164.223 118.926 164.468 118.775L164.527 118.743L180.106 111.484L168.634 111.485C167.988 111.485 167.846 110.599 168.417 110.378L168.483 110.356L209.446 99.1697Z" fill="url(#paint2_linear_137_44451)"/>
<path opacity="0.41" d="M301.89 101.731C302.042 101.31 302.488 101.079 302.914 101.187L302.993 101.212L323.729 108.671C324.611 108.988 324.416 110.266 323.52 110.341L323.437 110.344L312.213 110.344L327.813 118.5C328.21 118.708 328.378 119.182 328.213 119.588L328.178 119.664C327.97 120.061 327.497 120.229 327.09 120.063L327.014 120.028L308.305 110.246C307.53 109.841 307.786 108.692 308.624 108.623L308.704 108.62L318.493 108.62L302.409 102.834C301.988 102.682 301.757 102.236 301.866 101.811L301.89 101.731Z" fill="url(#paint3_linear_137_44451)"/>
<path opacity="0.41" d="M302.719 99.5824C302.792 99.2967 303.067 99.1161 303.352 99.1544L303.418 99.1672L344.686 109.672C345.321 109.834 345.226 110.742 344.609 110.801L344.538 110.803L333.482 110.684L350.079 118.747C350.344 118.876 350.465 119.182 350.37 119.454L350.345 119.516C350.216 119.781 349.91 119.902 349.638 119.807L349.576 119.781L330.677 110.6C330.146 110.342 330.307 109.562 330.868 109.511L330.934 109.508L339.754 109.602L303.134 100.281C302.849 100.208 302.668 99.9335 302.706 99.6483L302.719 99.5824Z" fill="url(#paint4_linear_137_44451)"/>
</g>
<g opacity="0.667528">
<path d="M17.7361 51H23.0561V39.8L28.0401 47.416H28.1521L33.1641 39.744V51H38.5681V31.4H32.8281L28.1521 38.988L23.4761 31.4H17.7361V51Z" fill="url(#paint5_linear_137_44451)"/>
<path d="M42.0447 51H49.4927C56.5487 51 60.6647 46.8 60.6647 41.144V41.088C60.6647 35.432 56.6047 31.4 49.6047 31.4H42.0447V51ZM47.4767 46.184V36.216H49.6887C52.9367 36.216 55.0927 38.036 55.0927 41.172V41.228C55.0927 44.392 52.9367 46.184 49.6887 46.184H47.4767Z" fill="url(#paint6_linear_137_44451)"/>
<path d="M63.4548 51H79.3588V46.38H68.8308V43.272H78.2388V38.988H68.8308V36.02H79.2188V31.4H63.4548V51Z" fill="url(#paint7_linear_137_44451)"/>
<path d="M80.7026 51H86.8066L90.5866 45.092L94.3386 51H100.583L93.8626 40.976L100.303 31.4H94.1986L90.6986 36.916L87.2266 31.4H80.9826L87.4226 41.032L80.7026 51Z" fill="url(#paint8_linear_137_44451)"/>
<path d="M102.106 51H107.65V45.54H102.106V51Z" fill="url(#paint9_linear_137_44451)"/>
<path d="M119.184 51.392C123.524 51.392 126.016 49.516 127.864 46.968L123.776 44.056C122.6 45.484 121.396 46.436 119.352 46.436C116.608 46.436 114.676 44.14 114.676 41.2V41.144C114.676 38.288 116.608 35.964 119.352 35.964C121.228 35.964 122.516 36.86 123.636 38.26L127.724 35.096C125.988 32.688 123.412 31.008 119.408 31.008C113.472 31.008 109.076 35.488 109.076 41.2V41.256C109.076 47.108 113.584 51.392 119.184 51.392Z" fill="url(#paint10_linear_137_44451)"/>
<path d="M139.51 51.392C145.558 51.392 150.094 46.828 150.094 41.2V41.144C150.094 35.516 145.614 31.008 139.566 31.008C133.518 31.008 128.982 35.572 128.982 41.2V41.256C128.982 46.884 133.462 51.392 139.51 51.392ZM139.566 46.492C136.598 46.492 134.554 44.028 134.554 41.2V41.144C134.554 38.316 136.542 35.908 139.51 35.908C142.506 35.908 144.55 38.372 144.55 41.2V41.256C144.55 44.084 142.562 46.492 139.566 46.492Z" fill="url(#paint11_linear_137_44451)"/>
<path d="M152.924 51H158.244V39.8L163.228 47.416H163.34L168.352 39.744V51H173.756V31.4H168.016L163.34 38.988L158.664 31.4H152.924V51Z" fill="url(#paint12_linear_137_44451)"/>
</g>
<path d="M245.172 61.9917C245.602 61.3247 246.491 61.1326 247.158 61.5625C247.825 61.9924 248.017 62.8816 247.587 63.5486C247.187 64.1692 246.788 64.7775 246.39 65.3734L245.795 66.2581C245.597 66.5499 245.399 66.8387 245.201 67.1243L244.61 67.9722C235.746 80.5529 227.492 86.9569 219.633 88.1435C212.903 89.1594 207.209 86.4927 201.354 81.0111L201.027 80.7018L200.578 80.2604L199.621 79.2933L196.566 76.1682L195.789 75.3866L195.422 75.0243L195.192 74.8033L194.956 74.5873C194.94 74.5733 194.925 74.5605 194.911 74.5487C188.415 68.6414 182.22 66.7564 176.269 68.1265C171.475 69.2302 166.967 72.4112 162.87 77.0476C161.026 79.1343 159.39 81.3758 157.985 83.617C157.555 84.3026 157.175 84.9444 156.846 85.5294L156.635 85.9088L156.442 86.2661L156.286 86.5665C155.932 87.2767 155.069 87.5655 154.359 87.2115C153.649 86.8576 153.36 85.9949 153.714 85.2847L153.853 85.0154L154.126 84.5082L154.194 84.3851C154.578 83.691 155.031 82.9199 155.55 82.0908C157.034 79.7244 158.76 77.3583 160.717 75.1447C165.176 70.0989 170.155 66.5854 175.624 65.3262C182.538 63.7346 189.681 65.9079 196.802 72.3855L196.914 72.4828L197.049 72.6068L197.386 72.9275L197.688 73.2235L198.394 73.9292L199.056 74.6011L202.092 77.7065L202.79 78.4071L203.078 78.6869C208.445 83.7816 213.437 86.1728 219.204 85.3021C223.703 84.6228 228.49 81.8993 233.59 76.8259L234.119 76.2927C236.238 74.1261 238.411 71.5554 240.64 68.5589L241.198 67.8009C242.503 66.0114 243.828 64.0765 245.172 61.9917Z" fill="url(#paint13_linear_137_44451)"/>
<path d="M280.107 42.9237C280.467 42.5892 280.827 42.2617 281.188 41.9413L281.729 41.4661C282.09 41.1528 282.451 40.8468 282.812 40.5481L283.354 40.1057C290.401 34.4271 297.511 31.5905 304.363 32.9082C305.995 33.222 307.585 33.775 309.127 34.5752C309.397 34.7153 309.665 34.8576 309.931 35.0027L310.462 35.2964C310.815 35.4948 311.166 35.6986 311.518 35.9086L312.045 36.2286C312.221 36.337 312.397 36.447 312.574 36.5589L313.106 36.9003C313.461 37.1318 313.82 37.3712 314.183 37.6196L314.731 37.999C314.823 38.0634 314.916 38.1284 315.008 38.194L315.569 38.5951L316.14 39.0116C316.236 39.0823 316.333 39.1537 316.43 39.2258L317.019 39.6669L317.621 40.1254C317.723 40.2033 317.825 40.2819 317.928 40.3614L318.553 40.8474L319.195 41.3527L319.855 41.8782L325.188 46.2083L325.956 46.8203L326.537 47.2763L327.095 47.7084L327.634 48.1184L328.155 48.5084L328.663 48.8803C328.746 48.9408 328.829 49.0007 328.912 49.06L329.404 49.4082C329.485 49.465 329.566 49.5213 329.646 49.5771C338.55 55.7329 345.232 55.6314 353.998 47.0987C354.567 46.5452 355.476 46.5575 356.03 47.1261C356.583 47.6947 356.571 48.6043 356.002 49.1578C346.189 58.7107 337.985 58.8353 328.012 51.9408L327.502 51.5835L326.984 51.2123C326.897 51.1492 326.809 51.0854 326.721 51.0209L326.186 50.6252C326.096 50.5578 326.005 50.4895 325.914 50.4205L325.356 49.9958L324.779 49.5493C324.681 49.473 324.582 49.3956 324.482 49.3173L323.299 48.3768L319.073 44.9378L318.403 44.3971L317.754 43.8775L317.048 43.3189L316.364 42.7849L315.7 42.2742C315.591 42.1909 315.483 42.1086 315.376 42.0273L314.739 41.5496C314.424 41.316 314.116 41.0902 313.812 40.8716L313.211 40.4437C313.013 40.3041 312.816 40.1675 312.621 40.0338L312.041 39.6408C310.791 38.807 309.596 38.085 308.371 37.4258L307.804 37.1258C306.507 36.4531 305.18 35.9914 303.82 35.73C297.921 34.5956 291.483 37.2073 284.971 42.4963L284.442 42.931C284.002 43.2981 283.562 43.6773 283.121 44.0682L282.592 44.543C282.416 44.7031 282.239 44.8651 282.063 45.0289C279.772 47.1576 277.654 49.4425 275.764 51.7271C275.516 52.0267 275.279 52.3181 275.053 52.6004L274.616 53.1523C274.475 53.332 274.339 53.5073 274.209 53.6779L273.819 54.1942L273.564 54.5401L273.417 54.7442C272.961 55.3934 272.065 55.5499 271.415 55.0936C270.766 54.6374 270.61 53.7412 271.066 53.092L271.326 52.7325L271.514 52.4782L271.725 52.1972C271.856 52.0232 271.993 51.8444 272.135 51.661L272.576 51.0974C272.881 50.713 273.206 50.3115 273.55 49.8954C275.515 47.5198 277.717 45.1445 280.107 42.9237Z" fill="url(#paint14_linear_137_44451)"/>
<path opacity="0.14" d="M258.212 121.964C285.816 121.964 308.194 119.478 308.194 116.41C308.194 113.343 285.816 110.857 258.212 110.857C230.607 110.857 208.229 113.343 208.229 116.41C208.229 119.478 230.607 121.964 258.212 121.964Z" fill="#713EFF"/>
<path d="M294.637 110.857C286.044 109.787 272.85 109.103 258.042 109.103C243.234 109.103 230.046 109.787 221.453 110.857H211.152V113.78C211.152 116.364 232.145 118.457 258.042 118.457C283.939 118.457 304.938 116.364 304.938 113.78V110.857H294.637Z" fill="#713EFF"/>
<path d="M304.611 110.413L296.397 97.9959H216.946L211.298 110.6C211.218 110.689 211.167 110.802 211.152 110.921C211.152 113.3 232.151 115.23 258.048 115.23C283.945 115.23 304.95 113.3 304.95 110.921C304.935 110.816 304.897 110.716 304.838 110.628C304.78 110.54 304.702 110.466 304.611 110.413Z" fill="url(#paint15_linear_137_44451)"/>
<mask id="mask1_137_44451" style="mask-type:alpha" maskUnits="userSpaceOnUse" x="211" y="97" width="94" height="19">
<path d="M304.611 110.413L296.397 97.9959H216.946L211.298 110.6C211.218 110.689 211.167 110.802 211.152 110.921C211.152 113.3 232.151 115.23 258.048 115.23C283.945 115.23 304.95 113.3 304.95 110.921C304.935 110.816 304.897 110.716 304.838 110.628C304.78 110.54 304.702 110.466 304.611 110.413Z" fill="url(#paint16_linear_137_44451)"/>
</mask>
<g mask="url(#mask1_137_44451)">
<path d="M220.254 98.8085L216.671 106.075" stroke="#713EFF" stroke-width="0.584589"/>
<path d="M212.532 105.268L227.977 107.42L234.051 104.187L258.878 105.268" stroke="#713EFF" stroke-width="0.584589"/>
<path d="M225.767 114.949L232.39 110.641L253.354 111.716V116.294" stroke="#713EFF" stroke-width="0.584589"/>
<path d="M258.878 102.035V115.767" stroke="#713EFF" stroke-width="0.584589"/>
<path d="M258.878 109.577L280.952 109.039L282.922 105.806L300.811 103.649" stroke="#713EFF" stroke-width="0.584589"/>
<path d="M288.119 99.8841L289.873 104.917" stroke="#713EFF" stroke-width="0.584589"/>
<path d="M293.638 113.885L295.848 110.652L305.201 108.495" stroke="#713EFF" stroke-width="0.584589"/>
</g>
<path d="M257.335 102.673C279.289 102.673 297.087 100.71 297.087 98.2882C297.087 95.8668 279.289 93.9038 257.335 93.9038C235.38 93.9038 217.583 95.8668 217.583 98.2882C217.583 100.71 235.38 102.673 257.335 102.673Z" fill="#BCABFF"/>
<path d="M200.724 65.7128C201.854 65.7128 202.77 64.7968 202.77 63.6668C202.77 62.5368 201.854 61.6207 200.724 61.6207C199.594 61.6207 198.678 62.5368 198.678 63.6668C198.678 64.7968 199.594 65.7128 200.724 65.7128Z" fill="#570EFF"/>
<path d="M296.127 23.6897C297.257 23.6897 298.173 22.7736 298.173 21.6436C298.173 20.5136 297.257 19.5975 296.127 19.5975C294.997 19.5975 294.081 20.5136 294.081 21.6436C294.081 22.7736 294.997 23.6897 296.127 23.6897Z" fill="#570EFF"/>
<path d="M305 19.3006C306.937 19.3006 308.508 17.7302 308.508 15.793C308.508 13.8559 306.937 12.2855 305 12.2855C303.063 12.2855 301.492 13.8559 301.492 15.793C301.492 17.7302 303.063 19.3006 305 19.3006Z" fill="#570EFF"/>
<path d="M190.691 58.2928C192.629 58.2928 194.199 56.7224 194.199 54.7852C194.199 52.8481 192.629 51.2777 190.691 51.2777C188.754 51.2777 187.184 52.8481 187.184 54.7852C187.184 56.7224 188.754 58.2928 190.691 58.2928Z" fill="#4012A4"/>
<path d="M217.039 8.83429C218.008 8.83429 218.793 8.0491 218.793 7.08052C218.793 6.11194 218.008 5.32675 217.039 5.32675C216.071 5.32675 215.286 6.11194 215.286 7.08052C215.286 8.0491 216.071 8.83429 217.039 8.83429Z" fill="#7710FF"/>
<path d="M219.67 13.3745C220.154 13.3745 220.547 12.9819 220.547 12.4976C220.547 12.0133 220.154 11.6207 219.67 11.6207C219.186 11.6207 218.793 12.0133 218.793 12.4976C218.793 12.9819 219.186 13.3745 219.67 13.3745Z" fill="#7710FF"/>
<path d="M303.538 88.1069C304.346 88.1069 305 87.4525 305 86.6454C305 85.8382 304.346 85.1839 303.538 85.1839C302.731 85.1839 302.077 85.8382 302.077 86.6454C302.077 87.4525 302.731 88.1069 303.538 88.1069Z" fill="#7710FF"/>
<path d="M311.361 80.6652C312.653 80.6652 313.7 79.6183 313.7 78.3269C313.7 77.0354 312.653 75.9885 311.361 75.9885C310.07 75.9885 309.023 77.0354 309.023 78.3269C309.023 79.6183 310.07 80.6652 311.361 80.6652Z" fill="#7710FF"/>
<path d="M285.395 0.954086H227.521V97.9959H285.395V0.954086Z" fill="url(#paint17_linear_137_44451)"/>
<path d="M256.458 100.919C272.439 100.919 285.395 99.7411 285.395 98.2882C285.395 96.8353 272.439 95.6576 256.458 95.6576C240.476 95.6576 227.521 96.8353 227.521 98.2882C227.521 99.7411 240.476 100.919 256.458 100.919Z" fill="#789EFF"/>
<path d="M256.458 96.2421C240.475 96.2421 227.521 97.3003 227.521 98.5805C227.521 98.7734 227.807 98.9605 228.339 99.1651C228.311 99.1473 228.286 99.1233 228.268 99.095C228.25 99.0667 228.238 99.0348 228.234 99.0014C228.234 97.9141 240.873 97.0313 256.458 97.0313C272.043 97.0313 284.682 97.9141 284.682 99.0014C284.678 99.0348 284.666 99.0667 284.648 99.095C284.629 99.1233 284.605 99.1473 284.577 99.1651C285.109 98.9839 285.395 98.7968 285.395 98.5805C285.395 97.3003 272.435 96.2421 256.458 96.2421Z" fill="#5A91FF"/>
<path d="M269.703 59.0952C270.511 59.0952 271.165 58.4409 271.165 57.6337C271.165 56.8266 270.511 56.1722 269.703 56.1722C268.896 56.1722 268.242 56.8266 268.242 57.6337C268.242 58.4409 268.896 59.0952 269.703 59.0952Z" fill="#570EFF"/>
<path d="M246.482 83.9658C247.773 83.9658 248.82 82.9189 248.82 81.6274C248.82 80.336 247.773 79.2891 246.482 79.2891C245.19 79.2891 244.144 80.336 244.144 81.6274C244.144 82.9189 245.19 83.9658 246.482 83.9658Z" fill="#570EFF"/>
<path d="M239.181 90.9607C239.665 90.9607 240.057 90.5681 240.057 90.0838C240.057 89.5995 239.665 89.2069 239.181 89.2069C238.696 89.2069 238.304 89.5995 238.304 90.0838C238.304 90.5681 238.696 90.9607 239.181 90.9607Z" fill="#570EFF"/>
<path d="M258.187 67.7094L258.135 67.7445C256.738 68.6974 255.954 70.2933 255.796 72.2634C255.675 73.8627 255.853 75.4707 256.323 77.0044C256.728 78.3782 257.287 79.7019 257.989 80.9504C258.351 81.5993 258.754 82.2248 259.199 82.8795C259.573 83.4173 259.97 83.9201 260.368 84.4053C261.288 85.5058 262.325 86.5035 263.46 87.3808C264.707 88.3637 266.113 89.125 267.617 89.6315C269.71 90.3038 271.709 90.2161 273.188 89.2106L273.241 89.1697L277.385 86.3578L275.596 83.809C275.585 82.3836 275.356 80.9682 274.918 79.6116C274.478 78.2516 273.89 76.9441 273.165 75.7124C272.849 75.1688 272.504 74.6251 272.136 74.0873C271.767 73.5495 271.224 72.8713 270.727 72.2984C269.787 71.2075 268.726 70.2269 267.564 69.3755C266.508 68.5842 265.345 67.9465 264.109 67.4814L262.32 64.9268L258.187 67.7094Z" fill="#5200E3"/>
<path d="M257.435 68.3474L257.383 68.3814C255.983 69.3333 255.201 70.9311 255.015 72.9029C254.894 74.5007 255.072 76.1069 255.542 77.6411C255.945 79.0139 256.503 80.3381 257.206 81.589C257.569 82.2349 257.971 82.8638 258.416 83.5182C258.792 84.0537 259.185 84.5594 259.591 85.0438C260.51 86.1427 261.547 87.1402 262.685 88.0185C263.928 88.998 265.332 89.7599 266.838 90.2708C268.934 90.9422 270.908 90.8487 272.408 89.8458L272.464 89.8076L276.608 86.9944L274.819 84.4446C274.809 83.0209 274.58 81.6069 274.141 80.2503C273.71 78.8921 273.131 77.5841 272.412 76.3493C272.097 75.8053 271.751 75.2614 271.379 74.7259C270.941 74.1048 270.471 73.5062 269.971 72.9326C269.032 71.8441 267.972 70.862 266.812 70.0047C265.757 69.2164 264.593 68.5797 263.355 68.1137L261.566 65.5639L257.435 68.3474Z" fill="#6616D6"/>
<mask id="mask2_137_44451" style="mask-type:luminance" maskUnits="userSpaceOnUse" x="254" y="65" width="23" height="26">
<path d="M257.435 68.3474L257.383 68.3814C255.983 69.3333 255.201 70.9311 255.015 72.9029C254.894 74.5007 255.072 76.1069 255.542 77.6411C255.945 79.0139 256.503 80.3381 257.206 81.589C257.569 82.2349 257.971 82.8638 258.416 83.5182C258.792 84.0537 259.185 84.5594 259.591 85.0438C260.51 86.1427 261.547 87.1402 262.685 88.0185C263.928 88.998 265.332 89.7599 266.838 90.2708C268.934 90.9422 270.908 90.8487 272.408 89.8458L272.464 89.8076L276.608 86.9944L274.819 84.4446C274.809 83.0209 274.58 81.6069 274.141 80.2503C273.71 78.8921 273.131 77.5841 272.412 76.3493C272.097 75.8053 271.751 75.2614 271.379 74.7259C270.941 74.1048 270.471 73.5062 269.971 72.9326C269.032 71.8441 267.972 70.862 266.812 70.0047C265.757 69.2164 264.593 68.5797 263.355 68.1137L261.566 65.5639L257.435 68.3474Z" fill="white"/>
</mask>
<g mask="url(#mask2_137_44451)">
<path d="M275.105 85.0924L266.752 90.5174C268.885 91.1721 270.891 91.102 272.416 90.1023L272.475 90.0672L276.69 87.3255L275.105 85.0924Z" fill="#6C21FF"/>
<path d="M256.642 68.2542L256.578 68.297C254.817 69.4945 253.841 71.5045 253.606 73.9993L263.585 67.2135L261.846 64.6903L256.642 68.2542Z" fill="#5507D8"/>
<path d="M273.852 81.0003L262.47 88.711C263.707 89.6818 265.101 90.435 266.591 90.9383L274.746 85.4431L274.542 85.1625C274.535 83.7486 274.308 82.3443 273.869 81.0003H273.852Z" fill="#611AFF"/>
<path d="M271.443 76.6158L258.582 85.9693V86.2148C259.438 87.3148 260.419 88.3114 261.505 89.1845V89.4359L273.671 81.4562L273.478 80.6203C273.045 79.1237 272.309 78.2819 271.607 76.9081L271.443 76.6158Z" fill="#5D0FFF"/>
<path d="M268.9 73.4006L256.624 82.1694C256.975 82.8242 257.361 83.4614 257.793 84.122C258.15 84.6656 258.53 85.1742 258.921 85.6653L271.239 76.8555C270.935 76.306 270.602 75.7565 270.245 75.2128C269.829 74.5856 269.38 73.9806 268.9 73.4006Z" fill="#5A11F7"/>
<path d="M265.825 71.0622L254.87 78.393C255.265 79.7082 255.806 80.9749 256.484 82.1694L268.9 73.8624C267.985 72.8175 266.956 71.8783 265.831 71.0622H265.825Z" fill="#5D17E3"/>
<path d="M262.172 68.1393L254.321 73.7397C254.213 75.4 254.399 77.0663 254.87 78.6619L265.977 70.7232C264.943 69.9033 263.792 69.2414 262.563 68.759L262.172 68.1393Z" fill="#550CE0"/>
</g>
<path d="M277.328 86.4854C280.867 84.0422 280.406 77.239 276.299 71.2901C272.193 65.3412 265.994 62.4994 262.455 64.9426C258.916 67.3858 259.377 74.189 263.483 80.1379C267.59 86.0868 273.789 88.9286 277.328 86.4854Z" fill="url(#paint18_linear_137_44451)"/>
<path d="M262.432 65.1606C262.148 65.3619 261.888 65.5932 261.654 65.8504C261.536 65.9749 261.426 66.1077 261.327 66.2479C261.274 66.3122 261.227 66.3824 261.175 66.4584C261.122 66.5344 261.081 66.5987 261.04 66.6747C260.693 67.266 260.445 67.9096 260.304 68.5804C260.037 69.9314 260.037 71.3216 260.304 72.6726C260.557 74.0182 260.969 75.329 261.531 76.5776C262.096 77.8317 262.781 79.028 263.577 80.1495C263.975 80.734 264.396 81.2543 264.84 81.7746C265.284 82.2949 265.764 82.8035 266.261 83.2828C267.261 84.2418 268.37 85.0814 269.564 85.7849C270.757 86.506 272.076 86.9958 273.451 87.2288C274.142 87.3399 274.847 87.3399 275.538 87.2288C275.623 87.2191 275.707 87.2015 275.789 87.1762L276.047 87.1178C276.215 87.072 276.381 87.0174 276.544 86.9541C276.871 86.8314 277.184 86.6746 277.479 86.4864C276.901 86.8899 276.243 87.165 275.55 87.2931C274.851 87.4216 274.137 87.4394 273.434 87.3458C272.035 87.1309 270.689 86.6571 269.464 85.9486C268.244 85.2545 267.115 84.4121 266.103 83.4407C264.077 81.5275 262.45 79.2329 261.315 76.6887C260.749 75.4213 260.344 74.0877 260.111 72.7193C259.865 71.3522 259.889 69.9502 260.181 68.5921C260.348 67.9156 260.622 67.2702 260.993 66.6805C261.368 66.0867 261.864 65.5787 262.449 65.1898L262.432 65.1606Z" fill="#8D68FF"/>
<path d="M264.63 79.3778C266.209 81.8684 268.431 83.8877 271.06 85.2237C273.86 86.5215 275.485 85.855 276.204 85.3465C276.924 84.8379 278.104 83.5108 277.923 80.3541C277.648 77.3872 276.602 74.5437 274.889 72.1055C273.308 69.6157 271.087 67.5966 268.459 66.2596C265.659 64.9618 264.028 65.6283 263.314 66.1369C262.601 66.6454 261.414 67.9725 261.596 71.1234C261.863 74.0938 262.91 76.9411 264.63 79.3778Z" fill="url(#paint19_linear_137_44451)"/>
<path d="M271.253 85.136L271.838 85.3465L272.136 85.44C272.231 85.4715 272.329 85.4969 272.428 85.516L272.732 85.5978L273.03 85.6563L273.334 85.7031L273.638 85.7381C274.437 85.8303 275.245 85.703 275.976 85.3699C276.68 85.0027 277.231 84.3979 277.531 83.6628C277.837 82.9365 278.004 82.1591 278.022 81.3713C278.029 79.7725 277.738 78.1865 277.163 76.6945C276.596 75.1819 275.837 73.7478 274.907 72.427C273.989 71.0901 272.903 69.8777 271.674 68.8201C270.465 67.7442 269.065 66.9054 267.547 66.3473C266.797 66.0776 266.004 65.9507 265.208 65.9732C264.415 65.9964 263.655 66.2986 263.063 66.8267C262.492 67.3881 262.088 68.0961 261.894 68.8727C261.894 68.9721 261.847 69.0715 261.818 69.165C261.788 69.2586 261.777 69.3696 261.759 69.4632C261.742 69.5567 261.718 69.6678 261.707 69.7672L261.672 70.0711C261.68 70.1723 261.68 70.274 261.672 70.3751V71.2988C261.577 70.4765 261.608 69.6446 261.765 68.8318C261.923 67.9935 262.319 67.2184 262.905 66.5987C263.211 66.2896 263.574 66.0433 263.975 65.8738C264.375 65.7052 264.799 65.5987 265.232 65.5581C266.09 65.4983 266.951 65.6055 267.769 65.8738C269.373 66.4118 270.858 67.2555 272.142 68.3583C274.704 70.5391 276.658 73.3468 277.812 76.5075C278.374 78.0751 278.628 79.7365 278.56 81.4005C278.531 82.2553 278.332 83.0959 277.976 83.8733C277.786 84.2631 277.535 84.6203 277.233 84.9314C276.931 85.2446 276.569 85.4949 276.169 85.668C275.377 85.9908 274.509 86.082 273.667 85.9311C272.854 85.7924 272.066 85.5344 271.329 85.1652L271.253 85.136Z" fill="#5A11F7"/>
<path d="M276.193 76.6185L275.684 77.133L275.608 77.2031L276.123 76.6887L276.193 76.6185Z" fill="#E1CCB5"/>
<path d="M271.721 71.8834C271.616 71.7391 271.482 71.618 271.328 71.5275C271.174 71.437 271.003 71.379 270.826 71.3572H270.727C270.567 71.3543 270.411 71.4036 270.283 71.4975L269.762 71.9418C269.891 71.8487 270.048 71.8014 270.207 71.8074H270.306C270.464 71.8246 270.617 71.8723 270.756 71.9477C270.93 72.0459 271.081 72.1793 271.2 72.3394L275.088 77.1973L275.608 76.7413L271.721 71.8834Z" fill="#5D0FFF"/>
<path d="M270.347 72.088L269.037 71.6904L269.078 71.3455L269.113 71.0123C269.147 70.7034 269.28 70.4139 269.493 70.188L269.049 70.6206C268.837 70.8472 268.704 71.1363 268.669 71.4449L268.634 71.784L268.593 72.123L269.903 72.5264L270.347 72.088Z" fill="#5D0FFF"/>
<path d="M271.142 78.4483L270.844 78.3898C270.068 78.1815 269.387 77.7131 268.915 77.0628C268.634 76.761 268.433 76.3937 268.331 75.9944C268.229 75.5951 268.229 75.1766 268.33 74.7771V74.6485L270.084 75.122C270.171 75.1407 270.257 75.1661 270.341 75.198C270.488 75.2127 270.629 75.2596 270.755 75.3354C270.882 75.4112 270.99 75.514 271.072 75.6364C271.258 75.8737 271.363 76.1649 271.37 76.4665C271.376 76.5817 271.357 76.6969 271.316 76.8045C271.275 76.9122 271.211 77.0102 271.13 77.0921L271.645 76.6127C271.727 76.5313 271.791 76.4336 271.834 76.3259C271.876 76.2182 271.895 76.1028 271.89 75.9872C271.883 75.6846 271.776 75.3929 271.586 75.1571C271.505 75.0346 271.398 74.9313 271.273 74.8545C271.148 74.7778 271.007 74.7294 270.861 74.7128L270.592 74.6368L267.149 73.754C267.078 73.7329 267.006 73.7173 266.933 73.7073C266.787 73.6749 266.635 73.6749 266.489 73.7073C266.369 73.7415 266.26 73.806 266.173 73.8943L265.658 74.3679C265.746 74.2845 265.852 74.2225 265.968 74.1866C266.115 74.1582 266.266 74.1582 266.413 74.1866L266.635 74.2334L268.166 74.6368L267.775 74.9992L267.745 75.274C267.64 75.6723 267.639 76.0909 267.741 76.49C267.843 76.8891 268.046 77.2553 268.33 77.5539C268.804 78.2018 269.485 78.6696 270.259 78.8809L270.557 78.9335C270.825 78.9743 271.098 78.9595 271.359 78.8901C271.621 78.8207 271.865 78.6981 272.077 78.5301L272.147 78.4658L272.662 77.9865L272.592 78.0508C272.385 78.2123 272.148 78.3306 271.895 78.3989C271.642 78.4672 271.378 78.484 271.119 78.4483H271.142Z" fill="#5D0FFF"/>
<path d="M269.932 81.9675C269.707 81.9294 269.493 81.8466 269.301 81.7241C269.109 81.6016 268.944 81.4419 268.815 81.2543L265.086 76.034C264.717 75.5491 264.486 74.9733 264.419 74.3679C264.353 73.8357 264.477 73.2972 264.77 72.8479C264.846 72.7251 264.937 72.6113 265.039 72.5089L264.554 72.9882C264.449 73.0903 264.357 73.204 264.279 73.3273C263.984 73.7757 263.86 74.315 263.928 74.8472C263.992 75.4536 264.222 76.0304 264.594 76.5133L268.324 81.7162C268.449 81.9065 268.613 82.0687 268.804 82.1925C268.995 82.3162 269.21 82.3989 269.435 82.4352C269.616 82.4618 269.801 82.4455 269.974 82.3876C270.148 82.3297 270.306 82.2319 270.435 82.102L270.926 81.6168C270.799 81.749 270.643 81.8496 270.47 81.9105C270.298 81.9714 270.113 81.9909 269.932 81.9675Z" fill="#5D0FFF"/>
<path d="M270.715 73.1695L270.475 73.0993L267.097 72.0821C266.906 72.0238 266.71 71.9846 266.512 71.9652C266.17 71.9194 265.822 71.9412 265.489 72.0295C264.998 72.1501 264.568 72.4452 264.279 72.8596C263.97 73.2958 263.839 73.8327 263.911 74.362C263.988 74.9668 264.233 75.538 264.618 76.0106L268.576 81.1608C268.857 81.5411 269.277 81.7952 269.745 81.8681C269.935 81.8935 270.129 81.8774 270.313 81.8209C270.496 81.7643 270.665 81.6688 270.809 81.5408L270.914 81.4414L266.056 75.1804C265.902 74.9945 265.801 74.7703 265.764 74.5315C265.736 74.3284 265.779 74.1218 265.886 73.947C265.991 73.7764 266.153 73.6481 266.342 73.5845C266.49 73.5495 266.645 73.5495 266.793 73.5845C266.866 73.5925 266.938 73.6062 267.009 73.6254L270.516 74.5082L270.785 74.5842C270.933 74.6018 271.074 74.6505 271.201 74.7271C271.328 74.8037 271.438 74.9064 271.522 75.0285C271.712 75.2643 271.818 75.556 271.826 75.8586C271.824 75.9695 271.798 76.0787 271.75 76.179C271.703 76.2792 271.634 76.3682 271.55 76.4401C271.465 76.5119 271.366 76.565 271.26 76.5958C271.153 76.6265 271.041 76.6343 270.931 76.6185H270.762C270.458 76.5216 270.192 76.3314 270.002 76.0749C269.901 75.954 269.83 75.8112 269.795 75.6579C269.759 75.5045 269.76 75.345 269.797 75.1921C269.794 75.0529 269.805 74.9137 269.832 74.7771L268.236 74.3796L268.201 74.6485C268.102 75.0493 268.106 75.469 268.213 75.8679C268.32 76.2668 268.528 76.6318 268.815 76.9284C269.293 77.5797 269.98 78.0464 270.762 78.2495C270.863 78.278 270.967 78.2976 271.072 78.308C271.341 78.3504 271.616 78.3364 271.88 78.267C272.144 78.1976 272.39 78.0742 272.603 77.9046C272.833 77.7052 273.013 77.455 273.128 77.1739C273.244 76.8927 273.292 76.5885 273.27 76.2853C273.232 75.5893 272.976 74.9227 272.539 74.3796C272.337 74.066 272.071 73.7994 271.757 73.5977C271.443 73.396 271.09 73.2639 270.721 73.2104L270.715 73.1695Z" fill="#DBD4FF"/>
<path d="M275.263 75.4084L272.516 71.5502C272.243 71.1671 271.9 70.8397 271.504 70.5856C271.174 70.3783 270.803 70.2447 270.417 70.1939H270.288C269.905 70.1644 269.524 70.2721 269.213 70.4979C268.91 70.7484 268.717 71.107 268.675 71.4975L268.64 71.8658L268.593 72.2341L270.037 72.6726V72.468V72.1114C270.04 71.9464 270.107 71.789 270.224 71.6729C270.343 71.5769 270.492 71.5253 270.645 71.5268H270.739C270.911 71.5534 271.075 71.6167 271.22 71.7126C271.365 71.8084 271.488 71.9345 271.58 72.0821L275.24 77.2031L275.31 77.1388C275.737 76.7705 275.684 76.034 275.263 75.4084Z" fill="#DBD4FF"/>
<g opacity="0.95">
<path d="M239.907 65.6741H239.848C238.373 65.1421 237.162 64.0587 236.469 62.6518C235.903 61.5173 235.569 60.281 235.487 59.0157C235.413 57.9352 235.485 56.8496 235.703 55.7887C235.807 55.2338 235.95 54.6868 236.13 54.1519C236.284 53.7006 236.462 53.2576 236.662 52.8249C237.111 51.8489 237.686 50.9368 238.375 50.1124C239.163 49.1578 240.128 48.3639 241.216 47.774C241.948 47.3598 242.758 47.1009 243.595 47.0134C244.432 46.9259 245.278 47.0117 246.08 47.2654H246.132L249.669 48.4697L249.757 50.9483C250.171 51.9906 250.407 53.0955 250.453 54.2162C250.496 55.2903 250.398 56.3655 250.16 57.4139C250.061 57.8815 249.932 58.3423 249.774 58.7935C249.593 59.3297 249.377 59.8531 249.125 60.3602C248.653 61.3325 248.049 62.2353 247.331 63.0435C246.661 63.8134 245.871 64.4706 244.992 64.9902L243.42 66.9018L239.907 65.6741Z" fill="#5200E3"/>
<path d="M249.891 50.6736L241.263 47.7214C241.995 47.3087 242.803 47.0506 243.639 46.9631C244.475 46.8756 245.319 46.9606 246.121 47.2128H246.179L249.687 48.4229L249.891 50.6736Z" fill="#5507D8"/>
<path d="M239.907 65.6742H239.848C238.373 65.1421 237.162 64.0587 236.469 62.6518L244.846 65.5163L243.443 66.931L239.907 65.6742Z" fill="#6C21FF"/>
<path d="M250.493 54.187L238.404 50.0539C239.192 49.0994 240.157 48.3055 241.245 47.7156L249.868 50.6385L249.786 50.8899C250.2 51.9303 250.435 53.0331 250.482 54.1519L250.493 54.187Z" fill="#550CE0"/>
<path d="M250.213 57.3905L236.685 52.7723C237.132 51.7965 237.706 50.8844 238.392 50.0598L250.493 54.1811C250.539 55.2569 250.443 56.334 250.207 57.3847L250.213 57.3905Z" fill="#5D17E3"/>
<path d="M249.172 60.3427L235.727 55.7361C235.831 55.1814 235.974 54.6344 236.153 54.0993C236.307 53.648 236.485 53.205 236.685 52.7723L250.195 57.3905C250.091 57.8574 249.96 58.318 249.804 58.7702C249.622 59.3059 249.405 59.8293 249.155 60.3369L249.172 60.3427Z" fill="#5A11F7"/>
<path d="M247.389 63.026L235.487 58.9689C235.413 57.8884 235.485 56.8028 235.703 55.742L249.149 60.3427C248.678 61.3158 248.074 62.2188 247.354 63.026H247.389Z" fill="#5D0FFF"/>
<path d="M244.846 65.4695L236.469 62.605C235.903 61.4705 235.569 60.2343 235.487 58.9689L247.389 63.026C246.719 63.7973 245.93 64.4565 245.051 64.9785L244.846 65.4695Z" fill="#611AFF"/>
<path d="M253.915 60.137C255.653 55.0432 253.784 49.7958 249.742 48.4164C245.699 47.037 241.013 50.0481 239.275 55.1419C237.537 60.2356 239.405 65.483 243.448 66.8624C247.49 68.2418 252.177 65.2307 253.915 60.137Z" fill="url(#paint20_linear_137_44451)"/>
<path d="M243.467 66.8667C242.366 66.5088 241.383 65.8605 240.62 64.9902C239.859 64.1138 239.293 63.0855 238.96 61.9737C238.625 60.864 238.481 59.7058 238.533 58.548C238.62 56.2102 239.388 53.9488 240.743 52.0415C241.408 51.0909 242.23 50.2606 243.174 49.5862C244.114 48.9042 245.188 48.4299 246.325 48.1949C247.467 47.9684 248.648 48.0532 249.745 48.4404C248.648 48.1011 247.481 48.0548 246.36 48.306C245.252 48.5554 244.208 49.0355 243.297 49.7149C242.39 50.3927 241.601 51.2141 240.959 52.1467C239.637 54.0351 238.873 56.2575 238.755 58.5597C238.702 59.6994 238.832 60.8403 239.141 61.9386C239.445 63.0378 239.979 64.0599 240.707 64.9376C241.437 65.8246 242.39 66.5024 243.467 66.9018V66.8667Z" fill="#8D68FF"/>
<path d="M240.298 55.4848C241.03 53.2385 242.52 51.3165 244.513 50.0481C246.781 48.6509 248.605 48.9549 249.494 49.253C250.382 49.5512 252.007 50.4222 252.96 52.9359C253.717 55.1636 253.716 57.579 252.956 59.8058C252.197 62.0326 250.723 63.9458 248.763 65.2474C246.489 66.6446 244.671 66.3464 243.782 66.0424C242.894 65.7385 241.263 64.8733 240.316 62.3595C239.515 60.1379 239.515 57.7064 240.316 55.4848H240.298Z" fill="url(#paint21_linear_137_44451)"/>
<path d="M244.513 50.0481C245.116 49.6332 245.781 49.3174 246.483 49.1127C247.198 48.9028 247.947 48.8373 248.687 48.9198C249.059 48.9656 249.424 49.0559 249.774 49.1887C250.125 49.3249 250.46 49.4973 250.774 49.7032C251.4 50.1254 251.94 50.6631 252.364 51.2874C253.204 52.5391 253.706 53.9873 253.82 55.4906C253.927 56.9833 253.734 58.4823 253.252 59.8991C252.77 61.3158 252.009 62.6216 251.014 63.7392C250.011 64.8589 248.74 65.7041 247.319 66.1944C246.601 66.429 245.845 66.5223 245.092 66.4692C244.339 66.4192 243.608 66.1929 242.958 65.8086C242.323 65.4211 241.771 64.9126 241.333 64.3121C240.906 63.7151 240.573 63.0568 240.345 62.3595C240.627 63.0279 241.001 63.6536 241.456 64.2185C241.899 64.7723 242.447 65.2332 243.069 65.5748C243.378 65.7414 243.706 65.8691 244.045 65.9548C244.385 66.0462 244.734 66.0972 245.086 66.1067C245.788 66.1239 246.487 66.0129 247.15 65.7794C247.81 65.534 248.437 65.206 249.014 64.8031C249.591 64.393 250.118 63.9183 250.587 63.3884C251.055 62.8606 251.468 62.2867 251.82 61.6756C252.158 61.0542 252.436 60.4024 252.651 59.7289C252.883 59.0569 253.05 58.3638 253.147 57.6594C253.25 56.9511 253.279 56.2342 253.235 55.5198C253.19 54.8137 253.063 54.1152 252.855 53.4387C252.645 52.7735 252.352 52.1372 251.984 51.5446C251.604 50.9543 251.119 50.4391 250.552 50.0247C250.266 49.8202 249.96 49.644 249.64 49.4986C249.315 49.3634 248.976 49.2653 248.629 49.2063C247.92 49.0892 247.195 49.113 246.495 49.2764C245.801 49.439 245.134 49.6988 244.513 50.0481Z" fill="#5A11F7"/>
<path d="M248.12 62.9909L247.535 62.7687L247.454 62.7337L248.038 62.9616H248.12V62.9909Z" fill="#E1CCB5"/>
<path d="M250.686 57.9342C250.776 57.7765 250.83 57.6008 250.844 57.4198C250.855 57.2739 250.839 57.1273 250.797 56.9872L250.762 56.9112C250.704 56.7786 250.603 56.6694 250.476 56.6013L249.891 56.3792C250.022 56.4455 250.125 56.555 250.184 56.689C250.186 56.7162 250.186 56.7436 250.184 56.7709C250.225 56.903 250.241 57.0419 250.23 57.1801C250.218 57.3615 250.164 57.5376 250.073 57.6945L247.424 62.722L248.009 62.9441L250.686 57.9342Z" fill="#5D0FFF"/>
<path d="M249.593 56.8059L249.365 55.4321L249.681 55.3269L249.991 55.2217C250.278 55.1166 250.592 55.1166 250.879 55.2217L250.295 54.9937C250.008 54.8886 249.693 54.8886 249.406 54.9937L249.09 55.0931L248.775 55.2042L249.009 56.5779L249.593 56.8059Z" fill="#5D0FFF"/>
<path d="M245.402 59.7756C245.402 59.688 245.355 59.6061 245.332 59.5126C245.204 58.8208 245.319 58.1061 245.659 57.4899C245.789 57.1513 246.002 56.8511 246.279 56.617C246.556 56.383 246.888 56.2227 247.243 56.1512L247.354 56.1103L247.658 57.7237C247.658 57.7237 247.658 57.8523 247.693 57.9576C247.736 58.078 247.752 58.2064 247.74 58.3336C247.728 58.4609 247.688 58.5839 247.623 58.6942C247.507 58.9321 247.316 59.1252 247.079 59.2437C246.991 59.2921 246.893 59.3213 246.792 59.3294C246.691 59.3374 246.59 59.3242 246.495 59.2904L247.079 59.5126C247.174 59.5472 247.275 59.5614 247.376 59.5544C247.477 59.5473 247.575 59.5191 247.664 59.4717C247.907 59.3435 248.101 59.1377 248.214 58.8871C248.279 58.7783 248.32 58.6562 248.332 58.5297C248.344 58.4032 248.328 58.2756 248.284 58.1563C248.281 58.0745 248.265 57.9936 248.237 57.9166L247.652 54.8476C247.652 54.7891 247.652 54.7248 247.606 54.6605C247.564 54.5407 247.501 54.4296 247.419 54.3331C247.345 54.2559 247.255 54.196 247.155 54.1577L246.571 53.9297C246.672 53.9655 246.761 54.0282 246.828 54.111C246.914 54.2035 246.98 54.313 247.021 54.4325C247.021 54.4968 247.021 54.5611 247.062 54.6254L247.319 55.9875L246.892 55.818L246.659 55.894C246.304 55.9675 245.973 56.1285 245.697 56.3623C245.42 56.5961 245.206 56.8953 245.074 57.2327C244.737 57.8518 244.622 58.5675 244.747 59.2612C244.764 59.3485 244.788 59.4345 244.817 59.5184C244.888 59.7442 245.004 59.9532 245.157 60.1331C245.311 60.3129 245.5 60.4598 245.712 60.5648H245.782L246.366 60.7928H246.296C246.086 60.6927 245.898 60.5509 245.744 60.3761C245.591 60.2012 245.474 59.9969 245.402 59.7756Z" fill="#5D0FFF"/>
<path d="M242.07 60.1556C242.011 59.9624 241.992 59.7594 242.013 59.5586C242.034 59.3578 242.095 59.1633 242.192 58.9864L244.823 53.9414C245.058 53.4615 245.423 53.0566 245.875 52.7723C246.268 52.5144 246.745 52.4161 247.208 52.4975C247.335 52.5106 247.459 52.5421 247.576 52.591L246.992 52.3689C246.87 52.3188 246.742 52.2854 246.612 52.2695C246.151 52.1909 245.677 52.289 245.285 52.5443C244.83 52.8273 244.463 53.2324 244.227 53.7134L241.596 58.7584C241.499 58.9355 241.439 59.13 241.418 59.3307C241.396 59.5314 241.415 59.7343 241.473 59.9276C241.523 60.0868 241.608 60.2328 241.721 60.3552C241.834 60.4775 241.973 60.5731 242.128 60.635L242.713 60.8571C242.559 60.7962 242.421 60.7016 242.308 60.5802C242.196 60.4587 242.112 60.3137 242.064 60.1556H242.07Z" fill="#5D0FFF"/>
<path d="M249.33 57.5893C249.339 57.5175 249.339 57.4448 249.33 57.373L248.903 54.3507C248.88 54.1875 248.84 54.027 248.786 53.8713C248.698 53.5841 248.553 53.3176 248.36 53.0879C248.079 52.7535 247.686 52.5331 247.255 52.4683C246.792 52.3869 246.315 52.4852 245.922 52.743C245.469 53.0274 245.105 53.4323 244.87 53.9122L242.221 58.9631C242.124 59.1399 242.063 59.3345 242.042 59.5353C242.021 59.736 242.04 59.939 242.099 60.1322C242.147 60.2903 242.231 60.4354 242.343 60.5568C242.456 60.6782 242.594 60.7728 242.748 60.8338L242.865 60.8805L246.051 54.7189C246.149 54.5248 246.296 54.3595 246.477 54.2396C246.634 54.1349 246.822 54.0874 247.009 54.1051C247.187 54.1281 247.352 54.2105 247.477 54.339C247.561 54.4335 247.623 54.5452 247.658 54.6663C247.68 54.727 247.696 54.7897 247.705 54.8534L248.289 57.9167C248.289 57.9167 248.289 58.0511 248.33 58.1563C248.375 58.2762 248.393 58.4045 248.382 58.5319C248.37 58.6593 248.331 58.7827 248.266 58.8929C248.145 59.1303 247.953 59.3243 247.717 59.4483C247.626 59.5014 247.524 59.5324 247.419 59.5389C247.314 59.5454 247.209 59.5271 247.112 59.4856C247.015 59.4441 246.93 59.3805 246.862 59.2999C246.795 59.2193 246.747 59.1239 246.723 59.0215C246.706 58.9738 246.692 58.925 246.682 58.8754C246.642 58.5921 246.693 58.3033 246.828 58.0511C246.889 57.9246 246.978 57.8139 247.088 57.7277C247.199 57.6415 247.328 57.5821 247.465 57.5542C247.582 57.5176 247.698 57.4746 247.81 57.4256L247.535 56.0284L247.307 56.1044C246.951 56.1749 246.619 56.3348 246.342 56.569C246.065 56.8032 245.852 57.104 245.723 57.4431C245.384 58.0593 245.268 58.774 245.396 59.4658C245.396 59.5593 245.437 59.6412 245.46 59.7289C245.531 59.9546 245.647 60.1637 245.8 60.3435C245.954 60.5233 246.143 60.6702 246.355 60.7753C246.6 60.8768 246.866 60.9211 247.131 60.9049C247.396 60.8887 247.655 60.8124 247.886 60.6818C248.424 60.3899 248.86 59.9413 249.137 59.3957C249.303 59.1232 249.409 58.8189 249.449 58.5027C249.49 58.1865 249.463 57.8653 249.371 57.5601L249.33 57.5893Z" fill="#DBD4FF"/>
<path d="M249.47 62.2543L251.464 58.472C251.666 58.0972 251.791 57.6858 251.832 57.2619C251.867 56.9049 251.827 56.5446 251.715 56.2038L251.674 56.0869C251.545 55.7576 251.308 55.4816 251.002 55.3035C250.847 55.2229 250.678 55.1751 250.504 55.163C250.33 55.151 250.155 55.1749 249.991 55.2334L249.681 55.3445L249.365 55.4497L249.593 56.8176L249.763 56.7416L250.061 56.6247C250.128 56.5959 250.201 56.5811 250.274 56.5811C250.348 56.5811 250.42 56.5959 250.488 56.6247C250.618 56.6887 250.72 56.7992 250.774 56.9345L250.809 57.0105C250.855 57.1677 250.869 57.3327 250.85 57.4954C250.831 57.6581 250.779 57.8153 250.698 57.9576L248.05 62.9792H248.132C248.558 63.1663 249.143 62.8214 249.47 62.2543Z" fill="#DBD4FF"/>
</g>
<g opacity="0.65">
<path d="M261.939 10.6232H261.909C261.185 10.3586 260.595 9.81863 260.267 9.12076C259.986 8.5595 259.823 7.94679 259.787 7.32023C259.752 6.78788 259.787 6.25319 259.893 5.73014C259.95 5.45547 260.022 5.18419 260.109 4.91756C260.185 4.68957 260.273 4.47327 260.366 4.26282C260.584 3.78241 260.863 3.33239 261.196 2.92411C261.579 2.449 262.049 2.05203 262.582 1.75493C262.938 1.55047 263.333 1.42253 263.742 1.37925C264.151 1.33597 264.564 1.3783 264.955 1.50356L266.709 2.08815L266.75 3.31579C266.96 3.8353 267.078 4.38702 267.101 4.94679C267.124 5.47875 267.077 6.01149 266.96 6.53103C266.908 6.76022 266.843 6.98656 266.767 7.20915C266.68 7.47536 266.575 7.73516 266.452 7.98666C266.222 8.46572 265.927 8.9104 265.575 9.30783C265.242 9.69096 264.847 10.0151 264.406 10.2666L263.634 11.2136L261.939 10.6232Z" fill="#5200E3"/>
<path d="M266.802 3.19303L262.599 1.7374C262.95 1.53585 263.34 1.40943 263.742 1.36616C264.145 1.32288 264.552 1.3637 264.938 1.48603L266.691 2.07061L266.802 3.19303Z" fill="#5507D8"/>
<path d="M261.939 10.6232H261.91C261.185 10.3587 260.595 9.81864 260.267 9.12077L264.359 10.5355L263.669 11.2311L261.939 10.6232Z" fill="#6C21FF"/>
<path d="M267.101 4.94679L261.196 2.91242C261.576 2.43466 262.047 2.03722 262.582 1.74324L266.797 3.19302L266.756 3.32163C266.958 3.83466 267.073 4.37814 267.095 4.92925L267.101 4.94679Z" fill="#550CE0"/>
<path d="M266.96 6.53104L260.378 4.25114C260.588 3.76951 260.863 3.31906 261.196 2.91243L267.083 4.9468C267.111 5.47855 267.066 6.01168 266.949 6.53104H266.96Z" fill="#5D17E3"/>
<path d="M266.458 7.9925L259.916 5.7126C259.973 5.43985 260.045 5.17052 260.132 4.90587C260.208 4.67788 260.296 4.46158 260.39 4.25113L266.972 6.53103C266.925 6.76289 266.862 6.99138 266.785 7.215C266.691 7.47822 266.581 7.73586 266.458 7.98666V7.9925Z" fill="#5A11F7"/>
<path d="M265.575 9.31368L259.787 7.28515C259.752 6.75086 259.788 6.21428 259.893 5.68922L266.458 7.98666C266.228 8.46572 265.933 8.9104 265.581 9.30783L265.575 9.31368Z" fill="#5D0FFF"/>
<path d="M264.347 10.5238L260.255 9.10324C259.974 8.5443 259.811 7.93336 259.776 7.30855L265.563 9.31369C265.23 9.69682 264.835 10.021 264.394 10.2724L264.347 10.5238Z" fill="#611AFF"/>
<path d="M268.756 7.8709C269.613 5.35918 268.71 2.77787 266.74 2.1054C264.769 1.43292 262.476 2.92392 261.619 5.43564C260.762 7.94737 261.665 10.5287 263.636 11.2011C265.607 11.8736 267.899 10.3826 268.756 7.8709Z" fill="url(#paint22_linear_137_44451)"/>
<path d="M263.669 11.2077C263.13 11.0288 262.651 10.7052 262.284 10.2724C261.924 9.8357 261.658 9.33051 261.5 8.78755C261.336 8.2382 261.267 7.66487 261.296 7.09224C261.321 6.52374 261.423 5.9613 261.6 5.42031C261.786 4.88057 262.045 4.36909 262.371 3.90038C262.691 3.43475 263.086 3.02577 263.54 2.69028C264.002 2.35812 264.531 2.13069 265.09 2.02385C265.64 1.91817 266.209 1.96053 266.738 2.14661C266.205 1.97658 265.635 1.95436 265.09 2.08231C264.548 2.20695 264.04 2.44616 263.599 2.78381C263.148 3.10731 262.753 3.50223 262.43 3.95299C261.791 4.88289 261.423 5.97154 261.366 7.09808C261.342 7.66207 261.407 8.2263 261.559 8.77001C261.703 9.30599 261.958 9.80583 262.307 10.2373C262.475 10.4571 262.672 10.6537 262.892 10.8219C263.12 10.9831 263.367 11.1147 263.628 11.2136L263.669 11.2077Z" fill="#8D68FF"/>
<path d="M262.132 5.5957C262.484 4.48901 263.209 3.53869 264.184 2.90658C264.525 2.64741 264.925 2.47658 265.348 2.40927C265.771 2.34196 266.205 2.38026 266.61 2.52076C267.017 2.66263 267.384 2.90183 267.679 3.21763C267.973 3.53343 268.186 3.91628 268.299 4.33298C268.67 5.43182 268.669 6.62205 268.297 7.72055C267.926 8.81904 267.203 9.76494 266.241 10.4127C265.9 10.6719 265.5 10.8427 265.077 10.91C264.653 10.9773 264.22 10.939 263.815 10.7985C263.408 10.6568 263.042 10.4175 262.748 10.1016C262.455 9.78572 262.243 9.40282 262.132 8.98631C261.74 7.89004 261.74 6.69197 262.132 5.5957Z" fill="url(#paint23_linear_137_44451)"/>
<path d="M264.172 2.90658C264.468 2.70746 264.79 2.55193 265.131 2.44475C265.48 2.3438 265.845 2.31202 266.206 2.35122C266.388 2.37597 266.566 2.42108 266.738 2.48568C266.908 2.5518 267.071 2.63607 267.223 2.73705C267.528 2.947 267.79 3.21282 267.995 3.5204C268.404 4.14666 268.645 4.86716 268.697 5.61323C268.747 6.34952 268.652 7.08855 268.416 7.7879C268.185 8.48733 267.813 9.13195 267.323 9.68197C266.839 10.2359 266.218 10.6532 265.522 10.8921C265.174 11.0085 264.807 11.0562 264.441 11.0324C264.074 11.0095 263.719 10.8971 263.406 10.705C263.096 10.5134 262.826 10.2632 262.611 9.96842C262.406 9.67121 262.245 9.34644 262.132 9.00385C262.267 9.33338 262.448 9.64232 262.669 9.92165C262.891 10.1913 263.163 10.4155 263.47 10.5822C263.622 10.6645 263.783 10.7292 263.95 10.7752C264.114 10.8161 264.283 10.8396 264.452 10.8453C264.795 10.8586 265.137 10.803 265.458 10.6816C265.78 10.563 266.085 10.4018 266.364 10.2023C266.646 10.0019 266.903 9.76836 267.13 9.50659C267.353 9.24873 267.549 8.9686 267.714 8.67063C267.879 8.36608 268.016 8.04714 268.124 7.71775C268.241 7.38693 268.329 7.0466 268.387 6.70057C268.434 6.35382 268.445 6.00325 268.422 5.65415C268.401 5.30494 268.338 4.95951 268.235 4.62527C268.14 4.29325 268.002 3.97492 267.825 3.67824C267.641 3.38867 267.405 3.13511 267.13 2.92996C266.992 2.82756 266.843 2.74126 266.686 2.67274C266.529 2.60382 266.364 2.55473 266.194 2.5266C265.851 2.46804 265.499 2.47997 265.16 2.56167C264.815 2.63096 264.483 2.74907 264.172 2.91243V2.90658Z" fill="#5A11F7"/>
<path d="M265.937 9.29615L265.657 9.18507H265.622L265.902 9.29615H265.937Z" fill="#E1CCB5"/>
<path d="M267.188 6.79994C267.234 6.72353 267.26 6.63727 267.264 6.54857C267.276 6.4809 267.276 6.41163 267.264 6.34396V6.30304C267.238 6.23697 267.188 6.18292 267.124 6.15105L266.843 6.04582C266.876 6.06007 266.905 6.08093 266.93 6.10709C266.954 6.13326 266.972 6.16415 266.984 6.19782V6.23874C266.995 6.3045 266.995 6.37173 266.984 6.4375C266.977 6.52845 266.949 6.61654 266.902 6.69472L265.61 9.16753L265.885 9.2786L267.188 6.79994Z" fill="#5D0FFF"/>
<path d="M266.656 6.25043L266.545 5.57231L266.697 5.52554L266.849 5.46708C266.984 5.42031 267.13 5.42031 267.264 5.46708L266.984 5.36186C266.851 5.31505 266.707 5.31505 266.574 5.36186L266.417 5.40862L266.265 5.46708L266.376 6.13936L266.656 6.25043Z" fill="#5D0FFF"/>
<path d="M264.616 7.70606C264.599 7.66686 264.587 7.62558 264.581 7.5833C264.518 7.24183 264.574 6.88905 264.739 6.58365C264.802 6.41641 264.907 6.26778 265.043 6.15136C265.179 6.03493 265.341 5.95443 265.516 5.91722H265.563L265.709 6.71226V6.82918C265.729 6.88842 265.737 6.9511 265.732 7.0134C265.727 7.0757 265.709 7.13633 265.68 7.19162C265.624 7.31091 265.529 7.40773 265.411 7.46638C265.366 7.48809 265.318 7.49937 265.268 7.49937C265.218 7.49937 265.169 7.48809 265.125 7.46638L265.405 7.5833C265.498 7.61834 265.599 7.61834 265.692 7.5833C265.809 7.52069 265.903 7.42241 265.961 7.30269C265.985 7.2454 265.998 7.18376 265.998 7.12147C265.998 7.05918 265.985 6.99754 265.961 6.94025C265.963 6.90132 265.963 6.86226 265.961 6.82333L265.68 5.31509V5.23909C265.673 5.16265 265.645 5.08973 265.598 5.02864C265.562 4.99296 265.521 4.96335 265.475 4.94095L265.195 4.82988C265.241 4.85364 265.284 4.8831 265.323 4.91757C265.364 4.96535 265.394 5.02112 265.411 5.08125C265.417 5.11216 265.417 5.14388 265.411 5.17479L265.534 5.84707L265.323 5.75938L265.212 5.8003C265.039 5.83734 264.877 5.91718 264.743 6.03255C264.608 6.14793 264.504 6.29517 264.441 6.46088C264.276 6.76644 264.22 7.11906 264.283 7.46053C264.28 7.50336 264.28 7.54632 264.283 7.58914C264.319 7.70432 264.379 7.8104 264.46 7.90017C264.541 7.98994 264.64 8.0613 264.751 8.10943H264.786L265.066 8.22634H265.031C264.922 8.17784 264.825 8.10619 264.746 8.01636C264.667 7.92652 264.609 7.82064 264.575 7.70606H264.616Z" fill="#5D0FFF"/>
<path d="M262.991 7.89897C262.96 7.80268 262.95 7.70116 262.96 7.60065C262.97 7.50013 263 7.40272 263.049 7.31438L264.336 4.81234C264.445 4.57271 264.622 4.36977 264.844 4.22775C265.036 4.10261 265.267 4.05457 265.493 4.09329C265.555 4.09988 265.616 4.11564 265.674 4.14006L265.394 4.02899C265.336 4.00456 265.275 3.98881 265.212 3.98222C264.987 3.94409 264.755 3.99208 264.563 4.11668C264.342 4.25945 264.166 4.46217 264.055 4.70127L262.769 7.20915C262.721 7.29795 262.691 7.3953 262.681 7.49562C262.671 7.59594 262.681 7.69725 262.71 7.79374C262.734 7.87188 262.776 7.94355 262.831 8.00331C262.887 8.06307 262.956 8.10936 263.032 8.13865L263.312 8.24972C263.236 8.22121 263.167 8.17518 263.111 8.11531C263.055 8.05543 263.014 7.98336 262.991 7.90482V7.89897Z" fill="#5D0FFF"/>
<path d="M266.528 6.63041V6.52519L266.3 5.02864C266.288 4.94889 266.269 4.87053 266.241 4.7948C266.198 4.65495 266.126 4.52557 266.031 4.41482C265.898 4.24635 265.705 4.13542 265.493 4.10499C265.267 4.06627 265.036 4.1143 264.844 4.23945C264.622 4.38147 264.445 4.58441 264.335 4.82403L263.049 7.32608C263 7.41442 262.97 7.51183 262.96 7.61234C262.95 7.71286 262.96 7.81437 262.991 7.91067C263.015 7.9888 263.056 8.06047 263.112 8.12023C263.168 8.18 263.236 8.22628 263.312 8.25557H263.365L264.914 5.21571C264.962 5.12226 265.03 5.04044 265.113 4.97603C265.192 4.9274 265.284 4.9068 265.376 4.91757C265.466 4.92264 265.551 4.96 265.616 5.02279C265.656 5.07057 265.686 5.12635 265.703 5.18648V5.28001L265.984 6.78825C265.978 6.82703 265.978 6.8664 265.984 6.90517C266.004 6.96539 266.012 7.02902 266.007 7.09229C266.002 7.15556 265.984 7.21717 265.955 7.27346C265.895 7.39033 265.801 7.4862 265.686 7.54822C265.637 7.57432 265.583 7.58798 265.528 7.58798C265.473 7.58798 265.419 7.57432 265.37 7.54822C265.29 7.50121 265.229 7.42632 265.201 7.33777V7.28516C265.176 7.14096 265.201 6.99278 265.271 6.86425C265.301 6.8027 265.344 6.74867 265.398 6.70616C265.451 6.66366 265.514 6.63378 265.581 6.61872L265.75 6.56026L265.598 5.8763L265.487 5.91722C265.313 5.95325 265.151 6.03272 265.016 6.14823C264.881 6.26374 264.778 6.41152 264.715 6.5778C264.551 6.88341 264.493 7.2353 264.552 7.57745L264.587 7.70021C264.621 7.81207 264.677 7.91584 264.753 8.00526C264.828 8.09469 264.921 8.16791 265.025 8.2205C265.145 8.26924 265.273 8.29036 265.402 8.28226C265.53 8.27416 265.656 8.23705 265.768 8.17373C266.033 8.03267 266.249 7.81458 266.387 7.54822C266.468 7.41318 266.52 7.26335 266.541 7.10766C266.562 6.95198 266.552 6.79364 266.51 6.64211L266.528 6.63041Z" fill="#DBD4FF"/>
<path d="M266.598 8.92786L267.568 7.06302C267.665 6.88123 267.726 6.68292 267.749 6.47843C267.766 6.30283 267.746 6.1258 267.691 5.95814V5.89968C267.628 5.7384 267.512 5.60271 267.364 5.51385C267.211 5.43811 267.035 5.42551 266.873 5.47878L266.721 5.53724L266.563 5.584L266.68 6.26213L266.756 6.22121L266.902 6.16859C266.934 6.15425 266.969 6.14683 267.004 6.14683C267.039 6.14683 267.074 6.15425 267.106 6.16859C267.17 6.20089 267.22 6.2548 267.247 6.32059V6.36151C267.258 6.42728 267.258 6.4945 267.247 6.56027C267.243 6.65097 267.217 6.73934 267.171 6.81749L265.879 9.29615H265.92C266.053 9.32222 266.192 9.30087 266.311 9.23577C266.431 9.17067 266.524 9.06591 266.574 8.93955L266.598 8.92786Z" fill="#DBD4FF"/>
</g>
<g opacity="0.85">
<path d="M274.871 32.9767H274.906C275.29 33.4408 275.564 33.9858 275.708 34.571C275.852 35.1562 275.861 35.7663 275.736 36.3556V36.4024C275.553 37.4828 275.17 38.5196 274.607 39.4598C274.113 40.3027 273.524 41.0871 272.854 41.7982C272.501 42.1909 272.126 42.5637 271.731 42.9147C271.398 43.207 271.053 43.4993 270.708 43.7448C269.917 44.337 269.064 44.8426 268.165 45.2531C267.18 45.7096 266.124 45.9961 265.044 46.1007C264.391 46.1975 263.725 46.1423 263.097 45.9396C262.47 45.7368 261.897 45.3918 261.425 44.9316C261.423 44.924 261.419 44.9171 261.414 44.911C261.409 44.905 261.403 44.9001 261.396 44.8965L259.116 42.3301L260.723 40.9213C260.97 39.971 261.365 39.0655 261.893 38.238C262.402 37.3956 263.002 36.6115 263.681 35.8997C263.985 35.5898 264.301 35.3151 264.634 34.9877C264.968 34.6603 265.441 34.3213 265.868 34.0173C266.67 33.4438 267.533 32.9596 268.44 32.5733C269.27 32.2181 270.146 31.982 271.041 31.8718L272.643 30.4571L274.871 32.9767Z" fill="#5200E3"/>
<path d="M272.591 30.4396L274.929 32.9884C275.304 33.4515 275.571 33.9925 275.711 34.572C275.851 35.1516 275.859 35.7549 275.736 36.3381L271.38 31.5094L272.591 30.4396Z" fill="#5507D8"/>
<path d="M260.536 41.0557L265.044 46.0715C264.391 46.1683 263.725 46.1131 263.097 45.9103C262.47 45.7075 261.897 45.3626 261.425 44.9023V44.8672L259.092 42.3301L260.536 41.0557Z" fill="#6C21FF"/>
<path d="M261.834 38.238L268.136 45.2531C267.152 45.714 266.096 46.0027 265.014 46.1066L260.536 41.0733L260.718 40.9154C260.959 39.9699 261.343 39.067 261.858 38.238H261.834Z" fill="#611AFF"/>
<path d="M263.623 35.8996L270.697 43.7624C269.898 44.3482 269.04 44.8479 268.136 45.2531L261.823 38.238C262.335 37.3963 262.937 36.6123 263.617 35.8996H263.623Z" fill="#5D0FFF"/>
<path d="M265.798 33.9997L272.813 41.8274C272.462 42.2015 272.088 42.564 271.69 42.9206C271.293 43.2772 271.012 43.5052 270.662 43.7448L263.623 35.8997C263.927 35.5898 264.243 35.3151 264.576 34.9877C264.909 34.6603 265.383 34.3213 265.804 34.0173L265.798 33.9997Z" fill="#5A11F7"/>
<path d="M268.393 32.5558L274.602 39.4598C274.107 40.3027 273.519 41.0871 272.848 41.7982L265.798 33.9939C266.601 33.4193 267.466 32.9351 268.376 32.55L268.393 32.5558Z" fill="#5D17E3"/>
<path d="M271.351 31.5328L275.736 36.4024C275.551 37.4831 275.166 38.5199 274.602 39.4598L268.387 32.5558C269.215 32.1987 270.089 31.9606 270.983 31.8484L271.351 31.5328Z" fill="#550CE0"/>
<path d="M269.406 40.3896C273.117 37.0909 274.537 32.6287 272.576 30.423C270.616 28.2173 266.018 29.1034 262.307 32.4022C258.595 35.7009 257.175 40.1631 259.136 42.3688C261.096 44.5744 265.694 43.6884 269.406 40.3896Z" fill="url(#paint24_linear_137_44451)"/>
<path d="M272.62 30.4747C272.95 30.8232 273.2 31.2403 273.351 31.6964C273.495 32.154 273.568 32.6312 273.567 33.1112C273.538 34.0733 273.322 35.0206 272.93 35.8996C272.553 36.7834 272.064 37.6146 271.474 38.3725C270.313 39.9075 268.853 41.192 267.183 42.1489C266.351 42.6481 265.459 43.0409 264.529 43.3181C263.601 43.5929 262.629 43.692 261.665 43.6104C261.182 43.5585 260.71 43.4302 260.267 43.2304C259.822 43.032 259.423 42.741 259.098 42.3769C259.431 42.7188 259.828 42.991 260.267 43.1778C260.707 43.3593 261.173 43.4698 261.647 43.5052C262.596 43.5648 263.548 43.4458 264.453 43.1544C265.362 42.8641 266.234 42.4719 267.055 41.9852C267.871 41.5034 268.638 40.9434 269.346 40.3133C270.073 39.6903 270.735 38.9949 271.322 38.238C271.9 37.4921 272.391 36.6819 272.784 35.8236C273.18 34.9688 273.41 34.0463 273.462 33.1053C273.483 32.6357 273.428 32.1657 273.298 31.714C273.263 31.6029 273.228 31.4918 273.181 31.3808C273.136 31.2709 273.086 31.1635 273.029 31.0592C272.915 30.8494 272.778 30.6533 272.62 30.4747Z" fill="#8D68FF"/>
<path d="M268.803 39.6761C267.299 41.0619 265.455 42.0258 263.459 42.4704C261.314 42.8563 260.308 42.1489 259.899 41.6929C259.49 41.237 258.894 40.1555 259.537 38.1036C260.264 36.1904 261.448 34.484 262.986 33.133C264.523 31.7819 266.367 30.8272 268.358 30.3519C270.51 29.9602 271.515 30.6676 271.918 31.1294C272.322 31.5912 272.924 32.6552 272.287 34.7188C271.587 36.6518 270.384 38.3631 268.803 39.6761Z" fill="url(#paint25_linear_137_44451)"/>
<path d="M263.459 42.4704C262.897 42.6078 262.318 42.661 261.741 42.6283C261.143 42.5929 260.568 42.3903 260.08 42.0437C259.843 41.8582 259.644 41.6277 259.496 41.3656C259.339 41.1032 259.226 40.8168 259.163 40.5179C259.042 39.9396 259.042 39.3425 259.163 38.7641C259.394 37.614 259.851 36.5211 260.507 35.5489C261.814 33.6018 263.605 32.0283 265.704 30.9833C266.741 30.4678 267.865 30.1524 269.019 30.0538C269.612 30.0138 270.207 30.0872 270.773 30.2701C271.063 30.3653 271.335 30.5075 271.579 30.691C271.815 30.8784 272.013 31.1084 272.164 31.3691C272.45 31.8862 272.584 32.4742 272.55 33.0644C272.529 33.633 272.42 34.195 272.228 34.7305C272.257 34.5902 272.292 34.4499 272.322 34.3037C272.351 34.1576 272.374 34.029 272.392 33.877C272.426 33.5958 272.44 33.3125 272.433 33.0293C272.425 32.4784 272.265 31.9404 271.971 31.4743C271.657 31.0361 271.2 30.7217 270.679 30.5857C270.15 30.443 269.598 30.4014 269.054 30.463C267.943 30.5899 266.866 30.9251 265.88 31.4509C263.883 32.4821 262.171 33.9876 260.893 35.8353C260.256 36.7377 259.792 37.7506 259.525 38.8226C259.402 39.3515 259.38 39.899 259.461 40.4361C259.541 40.9665 259.803 41.4523 260.203 41.8098C260.637 42.1539 261.156 42.3741 261.706 42.447C261.989 42.4937 262.277 42.5113 262.565 42.4997H262.997L263.459 42.4704Z" fill="#5A11F7"/>
<path d="M265.213 33.8244L265.266 33.7893H265.318L265.4 33.7542C265.466 33.7297 265.535 33.714 265.605 33.7074H265.751C265.852 33.7243 265.944 33.7735 266.014 33.8477L265.768 33.5145C265.695 33.437 265.599 33.3856 265.494 33.3684H265.353C265.283 33.3728 265.214 33.3886 265.149 33.4151L265.073 33.4502H265.044H265.003L264.95 33.4911L264.909 33.5321L262.109 36.3322L262.36 36.6655L265.155 33.8653L265.213 33.8244Z" fill="#5D0FFF"/>
<path d="M267.622 35.4904H267.926H267.961C268.097 35.4846 268.232 35.5149 268.352 35.5781C268.437 35.6241 268.511 35.6879 268.569 35.7652L268.323 35.432C268.264 35.3545 268.191 35.289 268.107 35.2391C267.986 35.1788 267.85 35.1525 267.715 35.1631H267.376H267.207L267.452 35.4963L267.622 35.4904Z" fill="#5D0FFF"/>
<path d="M265.447 37.9632H265.488H265.611H265.646L265.792 37.9223H265.833L265.95 37.8756H265.985L266.131 37.8054H266.16L266.236 37.7586H266.271L266.33 37.7236L266.417 37.6534L266.476 37.6066H266.505L266.599 37.519L266.686 37.4254L266.733 37.3787L266.78 37.3085H266.809C266.834 37.2797 266.855 37.2484 266.873 37.215C266.892 37.1898 266.908 37.1623 266.92 37.1331V37.0864V37.0104V36.9344C266.923 36.929 266.925 36.923 266.925 36.9168C266.925 36.9107 266.923 36.9046 266.92 36.8993V36.8467V36.7064C266.926 36.6735 266.926 36.6399 266.92 36.607C266.926 36.5682 266.926 36.5288 266.92 36.4901V36.3322C266.926 36.2798 266.926 36.2269 266.92 36.1744V33.877C266.926 33.8363 266.926 33.7949 266.92 33.7542C266.915 33.7136 266.903 33.6741 266.885 33.6373C266.868 33.5991 266.848 33.562 266.827 33.5262L266.792 33.4678L266.546 33.1345L266.581 33.1988C266.604 33.2318 266.624 33.2671 266.64 33.3041C266.64 33.3391 266.669 33.3801 266.675 33.4151C266.68 33.4559 266.68 33.4972 266.675 33.5379V35.6658C266.68 35.7202 266.68 35.7751 266.675 35.8295V36.1043V36.5778V36.6245V36.6538V36.7064V36.7356L266.622 36.8175C266.622 36.8467 266.581 36.8759 266.558 36.9051L266.505 36.9753L266.447 37.0338V37.063L266.359 37.1565L266.23 37.2676L266.178 37.3144L266.09 37.3787C266.068 37.3909 266.048 37.4067 266.032 37.4254L265.915 37.4897L265.768 37.5657H265.728L265.611 37.6125H265.576L265.424 37.6593H265.394H265.272H265.079C264.867 37.6776 264.653 37.6452 264.456 37.5649C264.259 37.4847 264.084 37.3587 263.945 37.1974L263.892 37.1331L264.137 37.4663L264.19 37.5365C264.33 37.6944 264.505 37.8178 264.701 37.8969C264.896 37.976 265.108 38.0087 265.318 37.9925L265.447 37.9632Z" fill="#5D0FFF"/>
<path d="M269.96 36.2855V35.7594C269.962 35.7341 269.962 35.7087 269.96 35.6834V35.6366L269.925 35.5548V35.5138L269.872 35.3911L269.621 35.0578C269.643 35.0956 269.662 35.1347 269.679 35.1748V35.2157C269.679 35.2157 269.679 35.2741 269.709 35.3034V36.0984L269.679 36.227V36.2679V36.3498V36.3907C269.681 36.4057 269.68 36.421 269.675 36.4352C269.67 36.4495 269.661 36.4623 269.65 36.4726V36.5193L269.609 36.5953V36.6362L269.562 36.7181V36.7532L269.486 36.8525L269.399 36.9636C269.365 37.0054 269.328 37.0445 269.288 37.0805L266.365 39.9216L266.306 39.9684V39.9976L266.26 40.0327H266.207L266.125 40.0795H266.09L265.985 40.1204H265.885H265.745C265.59 40.1294 265.435 40.0999 265.295 40.0346C265.154 39.9693 265.032 39.8703 264.938 39.7463L265.184 40.0736C265.277 40.199 265.399 40.2998 265.539 40.3671C265.68 40.4343 265.835 40.4661 265.991 40.4595H266.23L266.341 40.4127L266.423 40.3659L266.47 40.3308V40.3016H266.499L269.422 37.4664C269.462 37.4303 269.499 37.3912 269.533 37.3494L269.621 37.2442L269.685 37.1507V37.1156L269.732 37.0338V36.9928V36.8701V36.7882V36.7473V36.6362C269.727 36.5913 269.737 36.5459 269.761 36.5076C269.761 36.4667 269.761 36.5076 269.761 36.4667V36.4199C269.831 36.3811 269.898 36.3361 269.96 36.2855Z" fill="#5D0FFF"/>
<path d="M262.085 36.3498L262.337 36.683L262.296 36.6304L262.05 36.2972L262.085 36.3498Z" fill="#E1CCB5"/>
<path d="M269.416 34.8766L269.656 35.2157C269.687 35.2522 269.714 35.2914 269.738 35.3326L269.492 34.9994L269.416 34.8766Z" fill="#E8D2BB"/>
<path d="M269.492 34.9994L269.738 35.3326L269.773 35.391L269.527 35.0578L269.492 34.9994Z" fill="#FFE8CE"/>
<path d="M264.775 39.8515L265.02 40.1847L264.956 40.1029L264.71 39.7696L264.775 39.8515Z" fill="#E1CCB5"/>
<path d="M266.382 37.0688C266.583 36.9092 266.737 36.6986 266.829 36.459C266.92 36.2193 266.946 35.9596 266.903 35.7067C266.908 35.6523 266.908 35.5975 266.903 35.5431V33.5555C266.905 33.2966 266.807 33.0471 266.628 32.8598C266.45 32.6789 266.214 32.567 265.961 32.5441H265.687C265.498 32.5577 265.312 32.6011 265.137 32.6727C264.861 32.7799 264.612 32.9454 264.406 33.1579L262.29 35.2508C262.136 35.3792 262.031 35.5569 261.992 35.754C261.954 35.9511 261.985 36.1553 262.08 36.3322L262.121 36.3849L264.892 33.5613C264.981 33.468 265.088 33.3943 265.207 33.345C265.271 33.3224 265.338 33.3086 265.406 33.3041H265.546C265.651 33.3213 265.748 33.3727 265.821 33.4502C265.885 33.5312 265.914 33.6341 265.903 33.7367L265.868 35.6892V35.8997C265.881 35.9923 265.873 36.0868 265.842 36.1753C265.812 36.2638 265.76 36.3437 265.692 36.4082C265.547 36.5512 265.357 36.64 265.155 36.6596C265.07 36.668 264.985 36.6565 264.906 36.626C264.827 36.5956 264.756 36.547 264.699 36.4842C264.638 36.424 264.594 36.3497 264.57 36.2681C264.545 36.1865 264.541 36.1 264.558 36.0166C264.582 35.8296 264.668 35.6563 264.804 35.5255C264.872 35.456 264.954 35.4023 265.045 35.3679C265.136 35.3336 265.233 35.3195 265.33 35.3268H265.581L265.611 34.4382H265.441C265.21 34.4322 264.98 34.4779 264.769 34.572C264.557 34.666 264.37 34.806 264.219 34.9818C263.91 35.2843 263.705 35.6775 263.635 36.1043C263.6 36.3014 263.608 36.5037 263.658 36.6974C263.709 36.8911 263.8 37.0716 263.927 37.2267C264.066 37.3873 264.242 37.5124 264.439 37.5917C264.636 37.6709 264.849 37.7021 265.061 37.6827C265.563 37.6509 266.034 37.4318 266.382 37.0688Z" fill="#DBD4FF"/>
<path d="M269.527 35.0578C269.36 34.7501 269.1 34.5027 268.785 34.3505C268.487 34.2049 268.157 34.1403 267.826 34.1634H267.75H267.452H267.16L267.207 35.1105H267.376H267.733C267.868 35.1054 268.002 35.1335 268.124 35.1923C268.245 35.2627 268.342 35.3662 268.405 35.4904C268.469 35.6263 268.487 35.7796 268.455 35.9264C268.423 36.0733 268.344 36.2056 268.23 36.303L264.722 39.7346L264.786 39.8164C264.879 39.9411 265.001 40.041 265.142 40.1073C265.283 40.1736 265.438 40.2042 265.593 40.1964C265.842 40.1784 266.078 40.0752 266.26 39.9041L269.182 37.063C269.467 36.7957 269.661 36.4462 269.738 36.0633C269.796 35.706 269.732 35.3395 269.557 35.0228L269.527 35.0578Z" fill="#DBD4FF"/>
</g>
<g opacity="0.75">
<path d="M250.959 33.8642H251C252.048 33.4844 252.906 32.7104 253.391 31.707C253.794 30.9115 254.03 30.0423 254.087 29.1524C254.138 28.389 254.087 27.6222 253.935 26.8725C253.788 26.1494 253.554 25.4467 253.239 24.7797C252.916 24.0895 252.503 23.4448 252.011 22.8622C251.462 22.1731 250.783 21.599 250.012 21.1727C249.494 20.8798 248.92 20.6965 248.328 20.6341C247.736 20.5718 247.137 20.6318 246.569 20.8103H246.522L244.014 21.6638L243.956 23.4176C243.66 24.1632 243.493 24.9541 243.465 25.7559C243.436 26.5157 243.505 27.276 243.669 28.0183C243.838 28.735 244.085 29.4309 244.406 30.0936C244.748 30.7801 245.178 31.4189 245.686 31.9935C246.169 32.5372 246.733 33.0027 247.358 33.3731L248.48 34.7177L250.959 33.8642Z" fill="#5200E3"/>
<path d="M243.874 23.2539L250.012 21.1727C249.494 20.8798 248.92 20.6965 248.328 20.6341C247.736 20.5718 247.137 20.6318 246.569 20.8103H246.522L244.014 21.6638L243.874 23.2539Z" fill="#5507D8"/>
<path d="M250.959 33.8642H251C252.048 33.4844 252.906 32.7104 253.391 31.707L247.452 33.718L248.434 34.7177L250.959 33.8642Z" fill="#6C21FF"/>
<path d="M243.435 25.7442L252.011 22.8213C251.458 22.1491 250.779 21.5912 250.012 21.1786L243.874 23.248L243.932 23.4234C243.633 24.168 243.466 24.9595 243.441 25.7618L243.435 25.7442Z" fill="#550CE0"/>
<path d="M243.64 28.0066L253.239 24.7387C252.916 24.0486 252.503 23.4039 252.011 22.8213L243.441 25.7442C243.412 26.5043 243.483 27.265 243.652 28.0066H243.64Z" fill="#5D17E3"/>
<path d="M244.377 30.0936L253.935 26.8433C253.788 26.1183 253.554 25.4137 253.239 24.7446L243.64 28.0183C243.716 28.3457 243.81 28.6672 243.915 28.9887C244.044 29.3667 244.199 29.7357 244.377 30.0936Z" fill="#5A11F7"/>
<path d="M245.657 31.9935L254.087 29.1173C254.138 28.3559 254.087 27.591 253.935 26.8433L244.377 30.0936C244.716 30.7815 245.147 31.4206 245.657 31.9935Z" fill="#5D0FFF"/>
<path d="M247.452 33.718L253.397 31.6954C253.799 30.8974 254.035 30.0265 254.092 29.1349L245.657 32.011C246.137 32.5608 246.701 33.0305 247.329 33.4024L247.452 33.718Z" fill="#611AFF"/>
<path d="M248.424 34.723C251.29 33.745 252.617 30.0317 251.388 26.4292C250.158 22.8266 246.838 20.6989 243.972 21.6769C241.106 22.6548 239.779 26.3681 241.008 29.9707C242.237 33.5732 245.557 35.7009 248.424 34.723Z" fill="url(#paint26_linear_137_44451)"/>
<path d="M248.434 34.706C248.818 34.5622 249.18 34.3654 249.509 34.1214C249.838 33.8862 250.136 33.6113 250.398 33.303C250.911 32.6786 251.287 31.9537 251.503 31.1751C251.725 30.3986 251.818 29.5908 251.777 28.7841C251.697 27.1647 251.162 25.6008 250.234 24.2711C249.771 23.6163 249.205 23.0417 248.556 22.5699C247.911 22.079 247.167 21.7339 246.376 21.5586C245.981 21.469 245.576 21.4316 245.172 21.4475C244.775 21.4676 244.382 21.5363 244.002 21.6521C244.778 21.3847 245.611 21.3262 246.417 21.4826C247.223 21.6456 247.985 21.9806 248.65 22.4647C249.315 22.9473 249.892 23.5405 250.357 24.2184C251.307 25.5727 251.856 27.1672 251.941 28.8192C251.977 29.6388 251.876 30.4586 251.643 31.2452C251.404 32.0276 251.006 32.7521 250.474 33.3731C249.927 33.9934 249.222 34.454 248.434 34.706Z" fill="#8D68FF"/>
<path d="M250.673 26.662C250.155 25.0759 249.101 23.7198 247.691 22.8271C247.191 22.4551 246.607 22.2103 245.991 22.1139C245.375 22.0174 244.745 22.0723 244.155 22.2736C243.564 22.475 243.032 22.8168 242.603 23.2697C242.174 23.7225 241.862 24.2728 241.693 24.8732C241.157 26.4495 241.159 28.1591 241.698 29.7343C242.238 31.3095 243.285 32.6612 244.675 33.5777C245.181 33.9372 245.763 34.1766 246.376 34.2779C246.989 34.3792 247.616 34.3397 248.212 34.1623C248.789 33.9388 249.31 33.5894 249.736 33.1394C250.161 32.6894 250.482 32.1501 250.673 31.5609C251.245 29.9862 251.245 28.2601 250.673 26.6854V26.662Z" fill="url(#paint27_linear_137_44451)"/>
<path d="M247.703 22.8096C247.254 22.5504 246.773 22.3537 246.271 22.225C245.777 22.1151 245.267 22.1012 244.768 22.1841C244.519 22.2258 244.275 22.2985 244.043 22.4004C243.815 22.5001 243.597 22.6236 243.395 22.7687C242.991 23.0602 242.646 23.4251 242.377 23.8443C242.107 24.2713 241.896 24.7336 241.752 25.2181C241.61 25.6922 241.52 26.1802 241.483 26.6737C241.448 27.175 241.465 27.6786 241.536 28.1761C241.61 28.6804 241.736 29.1759 241.91 29.6551C242.072 30.1429 242.28 30.6146 242.529 31.064C242.779 31.4797 243.066 31.8711 243.389 32.2332C243.721 32.6067 244.096 32.9402 244.505 33.227C244.915 33.5135 245.359 33.7472 245.826 33.9226C246.297 34.0883 246.795 34.1655 247.294 34.1506C247.542 34.1442 247.789 34.1109 248.03 34.0512C248.272 33.9857 248.505 33.8935 248.726 33.7765C249.174 33.5381 249.571 33.2144 249.895 32.8236C250.216 32.4222 250.481 31.9799 250.684 31.5083C250.521 32.0006 250.284 32.4656 249.983 32.8879C249.522 33.5413 248.861 34.0274 248.1 34.2734C247.845 34.3489 247.583 34.3959 247.317 34.4137C246.783 34.4513 246.247 34.3838 245.739 34.2149C244.728 33.8658 243.824 33.2617 243.114 32.4612C242.407 31.6703 241.865 30.7451 241.523 29.7408C241.181 28.7365 241.044 27.6736 241.12 26.6153C241.197 25.5504 241.547 24.5233 242.138 23.6339C242.437 23.1933 242.818 22.8142 243.26 22.5173C243.483 22.3689 243.722 22.2473 243.973 22.1548C244.222 22.0619 244.481 21.9972 244.745 21.9619C245.269 21.9018 245.799 21.9455 246.306 22.0905C246.804 22.2512 247.277 22.4836 247.709 22.7804L247.703 22.8096Z" fill="#5A11F7"/>
<path d="M243.488 28.334V28.2521V28.0826C243.482 28.0145 243.482 27.9461 243.488 27.878L243.535 27.7435C243.586 27.658 243.664 27.5922 243.757 27.5565L243.371 27.6968C243.281 27.7417 243.209 27.8159 243.167 27.9072C243.148 27.9531 243.133 27.9999 243.12 28.0475C243.108 28.1152 243.108 28.1844 243.12 28.2521V28.41C243.114 28.429 243.114 28.4494 243.12 28.4684C243.118 28.4859 243.118 28.5035 243.12 28.521L245.061 31.9L245.446 31.7538L243.511 28.3749C243.503 28.3616 243.495 28.348 243.488 28.334Z" fill="#5D0FFF"/>
<path d="M245.745 29.3862H245.598L245.511 29.3102L245.441 29.2459L245.382 29.1699L245.341 29.1056C245.341 29.1056 245.341 29.0589 245.341 29.0413C245.339 29.02 245.339 28.9984 245.341 28.977V28.9244V28.901C245.335 28.882 245.335 28.8616 245.341 28.8426V28.7899V28.7256V28.6555C245.341 28.6555 245.341 28.5327 245.382 28.4567C245.423 28.3807 245.382 28.41 245.382 28.3983L244.488 28.1411L244.108 28.2814L244.955 28.5386V28.597L244.914 28.8016V28.8659V28.9127V28.9712V29.0238V29.0705V29.1232V29.1816V29.2284L244.949 29.2868L245.008 29.3687L245.078 29.433L245.154 29.4915H245.271L245.376 29.5265H245.762L246.142 29.3862H245.821H245.715H245.745Z" fill="#5D0FFF"/>
<path d="M245.715 26.4925L245.774 26.1944V26.1593C245.799 26.0292 245.862 25.9093 245.955 25.8144C246.02 25.7456 246.1 25.6934 246.189 25.6624L245.809 25.8027C245.717 25.8312 245.634 25.8837 245.569 25.9547C245.477 26.0526 245.415 26.174 245.388 26.3054V26.3405L245.329 26.6328V26.7965L245.715 26.6562V26.4925Z" fill="#5D0FFF"/>
<path d="M247.504 29.1933V28.6379C247.515 28.5859 247.515 28.5322 247.504 28.4801V28.3866V28.3515V28.2813L247.469 28.1878L247.434 28.1177V28.0826L247.376 27.9774L247.311 27.8663V27.8312L247.276 27.7786L247.224 27.7084L247.153 27.6208L247.095 27.5565L247.054 27.5214L247.013 27.4863H246.966H246.92C246.902 27.4821 246.884 27.4821 246.867 27.4863C246.838 27.4686 246.807 27.4567 246.773 27.4512H246.68L246.563 27.4162H246.534L246.417 27.3869L246.259 27.3518L244.277 26.6679H244.143H243.465L243.085 26.8082H243.172L243.289 26.7789H243.576L243.704 26.8082L245.604 27.3343L245.762 27.3752H245.879H245.996L246.09 27.4045L246.183 27.4454H246.212H246.265H246.312H246.353L246.393 27.4746L246.434 27.5155L246.493 27.5857L246.563 27.6734V27.7026L246.616 27.7728L246.657 27.8371C246.655 27.8487 246.655 27.8605 246.657 27.8721L246.721 27.9832L246.797 28.1294C246.795 28.1507 246.795 28.1723 246.797 28.1937V28.4216V28.4918L246.832 28.6146V28.6438C246.828 28.6987 246.84 28.7536 246.867 28.8016C246.867 28.8542 246.867 28.8016 246.867 28.8367V29.3102C246.864 29.3167 246.863 29.3237 246.863 29.3307C246.863 29.3377 246.864 29.3447 246.867 29.3511L246.838 29.4973C246.797 29.7016 246.709 29.8935 246.582 30.0579C246.454 30.2223 246.289 30.3546 246.101 30.4443H246.025L246.405 30.304L246.487 30.2689C246.724 30.2145 246.942 30.0965 247.117 29.9276C247.292 29.7587 247.418 29.5452 247.481 29.3102C247.493 29.2721 247.5 29.233 247.504 29.1933Z" fill="#5D0FFF"/>
<path d="M247.083 24.4932H246.183L245.797 24.6335H245.932H246.633H246.698H246.756L246.838 24.6627L246.949 24.727H246.984L247.06 24.7738H247.095L247.165 24.8206L247.2 24.8557L247.265 24.9141L247.3 24.9492L247.364 25.0135L247.446 25.107L247.528 25.2239L247.615 25.3584L249.562 28.8659V28.9302V28.9653V29.0179V29.0764V29.1699C249.568 29.2087 249.568 29.2481 249.562 29.2868V29.4271C249.568 29.4639 249.568 29.5014 249.562 29.5382C249.528 29.6888 249.457 29.8284 249.355 29.9439C249.253 30.0594 249.123 30.1471 248.977 30.1988L249.363 30.0585C249.508 30.0059 249.637 29.9179 249.739 29.8025C249.842 29.6871 249.913 29.548 249.948 29.3979V29.0004V28.901C249.945 28.8957 249.943 28.8896 249.943 28.8835C249.943 28.8773 249.945 28.8713 249.948 28.8659V28.8133V28.7198L247.995 25.2123L247.908 25.072L247.832 24.9609L247.761 24.879V24.8498L247.697 24.7797L247.662 24.7504V24.7154L247.621 24.6861L247.551 24.6335H247.522L247.457 24.5926H247.422L247.305 24.5341H247.224L247.083 24.4932Z" fill="#5D0FFF"/>
<path d="M245.031 31.9526L245.417 31.8123L245.031 31.9584" fill="#E6D1B9"/>
<path d="M245.084 31.9292L245.47 31.7889H245.417L245.031 31.9292H245.084Z" fill="#E1CCB5"/>
<path d="M245.598 24.6335L245.984 24.4874L246.119 24.4464L245.733 24.5867L245.598 24.6335Z" fill="#E8D2BB"/>
<path d="M245.745 24.5926L246.13 24.4523H246.195L245.809 24.5926H245.745Z" fill="#FFE8CE"/>
<path d="M249.129 30.3216L249.515 30.1813L249.422 30.2163L249.036 30.3567L249.129 30.3216Z" fill="#E1CCB5"/>
<path d="M246.861 28.0943C246.76 27.8606 246.598 27.6583 246.393 27.5082C246.187 27.3581 245.945 27.2658 245.692 27.2408L245.534 27.1999L243.634 26.6854C243.389 26.6143 243.125 26.6394 242.898 26.7556C242.68 26.8799 242.512 27.0763 242.424 27.3109C242.385 27.3837 242.354 27.46 242.331 27.5389C242.292 27.7318 242.292 27.9306 242.331 28.1235C242.361 28.4133 242.454 28.6928 242.605 28.9419L244.055 31.4966C244.136 31.678 244.278 31.825 244.457 31.9116C244.635 31.9983 244.839 32.019 245.031 31.9701H245.09L243.172 28.5678C243.109 28.4599 243.068 28.3408 243.05 28.217C243.044 28.149 243.044 28.0805 243.05 28.0124C243.064 27.9663 243.081 27.9214 243.102 27.878C243.141 27.7828 243.214 27.7055 243.307 27.6617C243.354 27.6416 243.405 27.6312 243.456 27.6312C243.507 27.6312 243.558 27.6416 243.605 27.6617L245.452 28.2112L245.622 28.258C245.712 28.2726 245.798 28.3082 245.872 28.362C245.946 28.4158 246.007 28.4863 246.049 28.5678C246.153 28.7438 246.188 28.9519 246.148 29.1524C246.131 29.2344 246.097 29.3118 246.047 29.3794C245.998 29.4469 245.934 29.5031 245.861 29.5441C245.786 29.5816 245.703 29.6012 245.619 29.6012C245.535 29.6012 245.452 29.5816 245.376 29.5441C245.195 29.4795 245.043 29.3505 244.95 29.1816C244.901 29.0995 244.871 29.0077 244.862 28.9127C244.853 28.8178 244.865 28.7219 244.897 28.6321L244.944 28.4333V28.3749L244.09 28.1177L244.061 28.2814C243.998 28.4965 243.983 28.7231 244.019 28.9446C244.054 29.1661 244.138 29.3768 244.266 29.5616C244.471 29.9368 244.793 30.2345 245.183 30.4093C245.367 30.4937 245.566 30.5374 245.768 30.5374C245.97 30.5374 246.169 30.4937 246.353 30.4093C246.54 30.3202 246.704 30.1888 246.832 30.0254C246.96 29.8621 247.048 29.6713 247.089 29.4681C247.19 29.0081 247.124 28.5273 246.902 28.1118L246.861 28.0943Z" fill="#DBD4FF"/>
<path d="M245.797 24.5575C245.468 24.6409 245.171 24.8199 244.944 25.0719C244.734 25.317 244.587 25.6102 244.517 25.9254V25.9956L244.47 26.2879L244.423 26.5743L245.341 26.7789V26.6153L245.4 26.323V26.2879C245.428 26.1569 245.49 26.0357 245.581 25.9371C245.68 25.8391 245.806 25.7738 245.943 25.7501C246.091 25.7209 246.244 25.7426 246.378 25.8116C246.512 25.8806 246.618 25.9929 246.68 26.1301L249.053 30.3449L249.147 30.304C249.29 30.2549 249.418 30.1709 249.52 30.0597C249.622 29.9484 249.695 29.8133 249.732 29.6668C249.78 29.4272 249.741 29.1782 249.62 28.9653L247.668 25.487C247.486 25.1491 247.204 24.8755 246.861 24.7037C246.54 24.5419 246.174 24.4905 245.821 24.5575H245.797Z" fill="#DBD4FF"/>
</g>
<path d="M64.488 60H69.048V50.4L73.32 56.928H73.416L77.712 50.352V60H82.344V43.2H77.424L73.416 49.704L69.408 43.2H64.488V60Z" fill="white"/>
<path d="M85.324 60H91.708C97.756 60 101.284 56.4 101.284 51.552V51.504C101.284 46.656 97.804 43.2 91.804 43.2H85.324V60ZM89.98 55.872V47.328H91.876C94.66 47.328 96.508 48.888 96.508 51.576V51.624C96.508 54.336 94.66 55.872 91.876 55.872H89.98Z" fill="white"/>
<path d="M103.676 60H117.308V56.04H108.284V53.376H116.348V49.704H108.284V47.16H117.188V43.2H103.676V60Z" fill="white"/>
<path d="M118.459 60H123.691L126.931 54.936L130.147 60H135.499L129.739 51.408L135.259 43.2H130.027L127.027 47.928L124.051 43.2H118.699L124.219 51.456L118.459 60Z" fill="white"/>
</g>
<defs>
<linearGradient id="paint0_linear_137_44451" x1="337.783" y1="122.68" x2="337.783" y2="16.0266" gradientUnits="userSpaceOnUse">
<stop stop-color="#1D1254"/>
<stop offset="1" stop-color="#2F1499"/>
</linearGradient>
<linearGradient id="paint1_linear_137_44451" x1="181.626" y1="120.558" x2="213.432" y2="120.558" gradientUnits="userSpaceOnUse">
<stop stop-color="#35FFE3"/>
<stop offset="1" stop-color="#35FFE3" stop-opacity="0.01"/>
</linearGradient>
<linearGradient id="paint2_linear_137_44451" x1="163.765" y1="120.035" x2="210.603" y2="120.035" gradientUnits="userSpaceOnUse">
<stop stop-color="#FF914F"/>
<stop offset="0.27" stop-color="#FF914F" stop-opacity="0.99"/>
<stop offset="0.4" stop-color="#FF8F4E" stop-opacity="0.96"/>
<stop offset="0.51" stop-color="#FF8D4C" stop-opacity="0.91"/>
<stop offset="0.6" stop-color="#FF8A4A" stop-opacity="0.83"/>
<stop offset="0.69" stop-color="#FF8647" stop-opacity="0.74"/>
<stop offset="0.76" stop-color="#FF8243" stop-opacity="0.62"/>
<stop offset="0.83" stop-color="#FF7C3F" stop-opacity="0.48"/>
<stop offset="0.9" stop-color="#FF753A" stop-opacity="0.31"/>
<stop offset="0.96" stop-color="#FF6E34" stop-opacity="0.13"/>
<stop offset="1" stop-color="#FF6930" stop-opacity="0.01"/>
</linearGradient>
<linearGradient id="paint3_linear_137_44451" x1="301.173" y1="120.605" x2="328.942" y2="120.605" gradientUnits="userSpaceOnUse">
<stop stop-color="#35FFE3" stop-opacity="0.01"/>
<stop offset="1" stop-color="#35FFE3"/>
</linearGradient>
<linearGradient id="paint4_linear_137_44451" x1="302.271" y1="120.026" x2="350.833" y2="120.026" gradientUnits="userSpaceOnUse">
<stop stop-color="#FF6930" stop-opacity="0.01"/>
<stop offset="0.04" stop-color="#FF6E34" stop-opacity="0.13"/>
<stop offset="0.1" stop-color="#FF753A" stop-opacity="0.31"/>
<stop offset="0.17" stop-color="#FF7C3F" stop-opacity="0.48"/>
<stop offset="0.24" stop-color="#FF8243" stop-opacity="0.62"/>
<stop offset="0.31" stop-color="#FF8647" stop-opacity="0.74"/>
<stop offset="0.4" stop-color="#FF8A4A" stop-opacity="0.83"/>
<stop offset="0.49" stop-color="#FF8D4C" stop-opacity="0.91"/>
<stop offset="0.6" stop-color="#FF8F4E" stop-opacity="0.96"/>
<stop offset="0.73" stop-color="#FF914F" stop-opacity="0.99"/>
<stop offset="1" stop-color="#FF914F"/>
</linearGradient>
<linearGradient id="paint5_linear_137_44451" x1="173.342" y1="51.2841" x2="173.342" y2="31.008" gradientUnits="userSpaceOnUse">
<stop stop-color="#2D1886"/>
<stop offset="1" stop-color="#4724AA"/>
</linearGradient>
<linearGradient id="paint6_linear_137_44451" x1="173.342" y1="51.2841" x2="173.342" y2="31.008" gradientUnits="userSpaceOnUse">
<stop stop-color="#2D1886"/>
<stop offset="1" stop-color="#4724AA"/>
</linearGradient>
<linearGradient id="paint7_linear_137_44451" x1="173.342" y1="51.2841" x2="173.342" y2="31.008" gradientUnits="userSpaceOnUse">
<stop stop-color="#2D1886"/>
<stop offset="1" stop-color="#4724AA"/>
</linearGradient>
<linearGradient id="paint8_linear_137_44451" x1="173.342" y1="51.2841" x2="173.342" y2="31.008" gradientUnits="userSpaceOnUse">
<stop stop-color="#2D1886"/>
<stop offset="1" stop-color="#4724AA"/>
</linearGradient>
<linearGradient id="paint9_linear_137_44451" x1="173.342" y1="51.2841" x2="173.342" y2="31.008" gradientUnits="userSpaceOnUse">
<stop stop-color="#2D1886"/>
<stop offset="1" stop-color="#4724AA"/>
</linearGradient>
<linearGradient id="paint10_linear_137_44451" x1="173.342" y1="51.2841" x2="173.342" y2="31.008" gradientUnits="userSpaceOnUse">
<stop stop-color="#2D1886"/>
<stop offset="1" stop-color="#4724AA"/>
</linearGradient>
<linearGradient id="paint11_linear_137_44451" x1="173.342" y1="51.2841" x2="173.342" y2="31.008" gradientUnits="userSpaceOnUse">
<stop stop-color="#2D1886"/>
<stop offset="1" stop-color="#4724AA"/>
</linearGradient>
<linearGradient id="paint12_linear_137_44451" x1="173.342" y1="51.2841" x2="173.342" y2="31.008" gradientUnits="userSpaceOnUse">
<stop stop-color="#2D1886"/>
<stop offset="1" stop-color="#4724AA"/>
</linearGradient>
<linearGradient id="paint13_linear_137_44451" x1="152.481" y1="88.653" x2="248.898" y2="88.653" gradientUnits="userSpaceOnUse">
<stop stop-color="#FF914F"/>
<stop offset="0.440184" stop-color="#FF773A" stop-opacity="0.205372"/>
<stop offset="1" stop-color="#FF6930" stop-opacity="0.01"/>
</linearGradient>
<linearGradient id="paint14_linear_137_44451" x1="269.721" y1="57.0718" x2="357.521" y2="57.0718" gradientUnits="userSpaceOnUse">
<stop stop-color="#2BCBB4" stop-opacity="0.01"/>
<stop offset="0.756255" stop-color="#2BCBB4" stop-opacity="0.5"/>
<stop offset="1" stop-color="#2BCBB4"/>
</linearGradient>
<linearGradient id="paint15_linear_137_44451" x1="211.152" y1="106.613" x2="304.95" y2="106.613" gradientUnits="userSpaceOnUse">
<stop stop-color="#5717FF"/>
<stop offset="0.99" stop-color="#4C0FB9"/>
</linearGradient>
<linearGradient id="paint16_linear_137_44451" x1="211.152" y1="106.613" x2="304.95" y2="106.613" gradientUnits="userSpaceOnUse">
<stop stop-color="#5717FF"/>
<stop offset="0.99" stop-color="#4C0FB9"/>
</linearGradient>
<linearGradient id="paint17_linear_137_44451" x1="256.458" y1="97.9959" x2="256.458" y2="0.954086" gradientUnits="userSpaceOnUse">
<stop stop-color="#000DFF" stop-opacity="0.2"/>
<stop offset="1" stop-color="white" stop-opacity="0.01"/>
</linearGradient>
<linearGradient id="paint18_linear_137_44451" x1="261.326" y1="78.9778" x2="278.463" y2="72.4387" gradientUnits="userSpaceOnUse">
<stop stop-color="#764AFF"/>
<stop offset="1" stop-color="#6314FF"/>
</linearGradient>
<linearGradient id="paint19_linear_137_44451" x1="281.437" y1="77.8053" x2="263.922" y2="74.7069" gradientUnits="userSpaceOnUse">
<stop stop-color="#620CFF"/>
<stop offset="1" stop-color="#652DFF"/>
</linearGradient>
<linearGradient id="paint20_linear_137_44451" x1="249.736" y1="48.4145" x2="243.444" y2="66.855" gradientUnits="userSpaceOnUse">
<stop stop-color="#764AFF"/>
<stop offset="1" stop-color="#6314FF"/>
</linearGradient>
<linearGradient id="paint21_linear_137_44451" x1="249.985" y1="51.1822" x2="243.116" y2="64.3705" gradientUnits="userSpaceOnUse">
<stop stop-color="#652DFF"/>
<stop offset="1" stop-color="#620CFF"/>
</linearGradient>
<linearGradient id="paint22_linear_137_44451" x1="266.74" y1="2.1054" x2="263.638" y2="11.1956" gradientUnits="userSpaceOnUse">
<stop stop-color="#764AFF"/>
<stop offset="1" stop-color="#6314FF"/>
</linearGradient>
<linearGradient id="paint23_linear_137_44451" x1="266.89" y1="3.49117" x2="263.459" y2="9.95088" gradientUnits="userSpaceOnUse">
<stop stop-color="#652DFF"/>
<stop offset="1" stop-color="#620CFF"/>
</linearGradient>
<linearGradient id="paint24_linear_137_44451" x1="262.524" y1="34.3363" x2="270.292" y2="39.125" gradientUnits="userSpaceOnUse">
<stop stop-color="#6314FF"/>
<stop offset="1" stop-color="#764AFF"/>
</linearGradient>
<linearGradient id="paint25_linear_137_44451" x1="258.397" y1="36.6362" x2="271.041" y2="36.2504" gradientUnits="userSpaceOnUse">
<stop stop-color="#620CFF"/>
<stop offset="1" stop-color="#652DFF"/>
</linearGradient>
<linearGradient id="paint26_linear_137_44451" x1="243.972" y1="21.6769" x2="248.424" y2="34.723" gradientUnits="userSpaceOnUse">
<stop stop-color="#764AFF"/>
<stop offset="1" stop-color="#6314FF"/>
</linearGradient>
<linearGradient id="paint27_linear_137_44451" x1="243.815" y1="23.6105" x2="248.656" y2="32.9522" gradientUnits="userSpaceOnUse">
<stop stop-color="#652DFF"/>
<stop offset="1" stop-color="#620CFF"/>
</linearGradient>
<clipPath id="clip0_137_44451">
<rect width="357" height="125" fill="white"/>
</clipPath>
</defs>
</svg>
