<svg width="860" height="219" viewBox="0 0 860 219" fill="none" xmlns="http://www.w3.org/2000/svg">
<rect width="860" height="219" rx="40" fill="url(#paint0_linear_22_46626)"/>
<path opacity="0.667528" fill-rule="evenodd" clip-rule="evenodd" d="M363.693 85C345.932 85 332.739 71.3835 332.739 54.1669V54C332.739 36.9576 345.676 23 364.212 23C375.6 23 382.412 26.767 388.011 32.247L379.561 41.9223C374.906 37.727 370.162 35.1576 364.125 35.1576C353.95 35.1576 346.619 43.5481 346.619 53.8258V54C346.619 64.2777 353.782 72.8715 364.125 72.8715C371.024 72.8715 375.249 70.1351 379.993 65.8527L388.442 74.2796C382.237 80.8846 375.337 85 363.693 85ZM98.166 44.8328V83.9693H111.388V24.0234H97.077L81.2088 49.3765L65.3406 24.0234H51V83.9693H64.0249V45.0941L80.836 70.4399H81.1795L98.166 44.8328ZM125.853 83.9693H149.396C168.4 83.9693 181.476 70.8682 181.476 54V53.8258C181.476 36.9576 168.4 24.0234 149.396 24.0234H125.853V83.9693ZM167.588 54C167.588 43.3812 160.279 35.9269 149.396 35.9269H139.163V72.1021H149.396C160.265 72.1021 167.588 64.8438 167.588 54.2032V54ZM193.295 24.0234V83.9693H239.255V72.24H206.488V59.6469H234.913V47.9176H206.488V35.76H238.824V24.0234H193.295ZM288.752 83.9693L275.216 63.3922L261.592 83.9693H246.498L267.541 53.4847L247.339 24.0234H262.863L275.537 43.4683L288.299 24.0234H303.393L283.234 53.3105L304.277 83.9693H288.752ZM312.303 70.2657V83.9693H326.278V70.2657H312.303ZM394.655 54.1669C394.655 71.2093 408.023 85 426.647 85C445.278 85 458.815 71.0424 458.807 54V53.8258C458.807 36.7907 445.432 23 426.815 23C408.199 23 394.655 36.9576 394.655 54V54.1669ZM444.92 54C444.92 43.7223 437.326 35.1285 426.647 35.1285C415.968 35.1285 408.542 43.5191 408.542 53.7968V53.971C408.542 64.2487 416.129 72.8424 426.815 72.8424C437.501 72.8424 444.927 64.4519 444.927 54.1742L444.92 54ZM517.778 44.8328V83.9693H531V24.0234H516.681L500.813 49.3765L484.945 24.0234H470.634V83.9693H483.659V45.0941L500.47 70.4399H500.813L517.778 44.8328Z" fill="url(#paint1_linear_22_46626)"/>
<path d="M439 148.291C439 148.291 468.607 88.8865 510.127 126.645C521.646 136.319 549.458 183.305 598 108" stroke="url(#paint2_linear_22_46626)" stroke-width="5" stroke-linecap="round" stroke-linejoin="round"/>
<path opacity="0.405831" d="M538 184L505.563 197.649H525.725L488 215" stroke="url(#paint3_linear_22_46626)" stroke-width="3" stroke-linecap="round" stroke-linejoin="round"/>
<path opacity="0.405831" d="M534 181L462.724 200.464H487.199L456 215" stroke="url(#paint4_linear_22_46626)" stroke-width="2" stroke-linecap="round" stroke-linejoin="round"/>
<path opacity="0.405831" d="M696 185L732.08 197.979H706.445L739 215" stroke="url(#paint5_linear_22_46626)" stroke-width="3" stroke-linecap="round" stroke-linejoin="round"/>
<path opacity="0.405831" d="M697 181L768.807 199.278L745.115 199.024L778 215" stroke="url(#paint6_linear_22_46626)" stroke-width="2" stroke-linecap="round" stroke-linejoin="round"/>
<path d="M643 92.5975C643 92.5975 676.031 45.5939 706.03 61.1599C736.028 76.7259 754.144 114.506 787 82.5232" stroke="url(#paint7_linear_22_46626)" stroke-width="5" stroke-linecap="round" stroke-linejoin="round"/>
<ellipse opacity="0.14" cx="616.5" cy="201.5" rx="85.5" ry="9.5" fill="#3EB1FF"/>
<path d="M678.81 192.001C664.11 190.171 641.544 189 616.211 189C590.879 189 568.32 190.171 553.62 192.001H536V196.996C536 201.417 571.913 205 616.211 205C660.51 205 696.43 201.417 696.43 196.996V192.001H678.81Z" fill="#3EB1FF"/>
<path d="M695.873 191.243L681.822 170H545.909L536.249 191.557C536.106 191.712 536.019 191.907 536 192.114C536 196.179 571.918 199.479 616.222 199.479C660.526 199.479 696.451 196.179 696.451 192.114C696.403 191.754 696.19 191.433 695.873 191.243Z" fill="url(#paint8_linear_22_46626)"/>
<mask id="mask0_22_46626" style="mask-type:luminance" maskUnits="userSpaceOnUse" x="536" y="170" width="161" height="30">
<path d="M695.873 191.243L681.822 170H545.909L536.249 191.557C536.106 191.712 536.019 191.907 536 192.114C536 196.179 571.918 199.479 616.222 199.479C660.526 199.479 696.451 196.179 696.451 192.114C696.403 191.754 696.19 191.433 695.873 191.243Z" fill="white"/>
</mask>
<g mask="url(#mask0_22_46626)">
<path d="M551.573 171.386L545.44 183.821" stroke="#3EB1FF"/>
<path d="M538.356 182.436L564.782 186.121L575.167 180.593L617.642 182.436" stroke="#3EB1FF"/>
<path d="M561.014 199.021L572.335 191.65L608.201 193.493V201.321" stroke="#3EB1FF"/>
<path d="M617.642 176.914V200.4" stroke="#3EB1FF"/>
<path d="M617.642 189.807L655.396 188.886L658.77 183.357L689.374 179.672" stroke="#3EB1FF"/>
<path d="M667.661 173.229L670.669 181.836" stroke="#3EB1FF"/>
<path d="M677.102 197.179L680.878 191.65L696.919 187.964" stroke="#3EB1FF"/>
</g>
<ellipse cx="615" cy="170.5" rx="68" ry="7.5" fill="#ABE5FF"/>
<circle cx="518.5" cy="109.5" r="3.5" fill="#0E8EFF"/>
<circle cx="684.5" cy="36.5" r="3.5" fill="#0E8EFF"/>
<circle cx="700" cy="26" r="6" fill="#0E8EFF"/>
<circle cx="501" cy="94" r="6" fill="#0C3EBB"/>
<circle cx="547" cy="11" r="3" fill="#0C3EBB"/>
<circle cx="551.5" cy="20.5" r="1.5" fill="#0C3EBB"/>
<circle cx="697.5" cy="149.5" r="2.5" fill="#0C3EBB"/>
<circle cx="711" cy="135" r="4" fill="#0C3EBB"/>
<rect x="564" y="4" width="99" height="166" fill="url(#paint9_linear_22_46626)"/>
<ellipse cx="613.5" cy="170.5" rx="49.5" ry="4.5" fill="#6DE9A3"/>
<path d="M613.496 167C586.161 167 564 168.813 564 171.045C564 171.372 564.494 171.693 565.403 172C565.304 171.936 565.238 171.835 565.221 171.721C565.221 169.859 586.837 168.346 613.496 168.346C640.156 168.346 661.779 169.859 661.779 171.721C661.762 171.835 661.696 171.936 661.597 172C662.506 171.693 663 171.372 663 171.045C662.993 168.813 640.832 167 613.496 167Z" fill="#46C67A"/>
<circle cx="638.5" cy="102.5" r="2.5" fill="#0E8EFF"/>
<circle cx="598" cy="141" r="4" fill="#0E8EFF"/>
<circle cx="585.5" cy="155.5" r="1.5" fill="#0E8EFF"/>
<path d="M617.203 120.761L617.114 120.82C614.719 122.448 613.381 125.181 613.063 128.554C612.855 131.287 613.161 134.035 613.965 136.659C614.655 139.008 615.609 141.273 616.811 143.412C617.432 144.517 618.119 145.593 618.881 146.713C619.524 147.629 620.196 148.494 620.891 149.322C622.463 151.202 624.237 152.908 626.184 154.411C628.309 156.086 630.712 157.39 633.287 158.264C636.872 159.412 640.25 159.252 642.815 157.537L642.911 157.471L650 152.659L646.94 148.297C646.922 145.862 646.531 143.443 645.779 141.123C645.043 138.799 644.052 136.562 642.823 134.449C642.283 133.519 641.692 132.588 641.056 131.673C640.307 130.61 639.502 129.586 638.646 128.605C637.04 126.743 635.228 125.063 633.243 123.596C631.438 122.248 629.446 121.159 627.329 120.362L624.269 116L617.203 120.761Z" fill="#003D97"/>
<mask id="mask1_22_46626" style="mask-type:luminance" maskUnits="userSpaceOnUse" x="613" y="116" width="37" height="43">
<path d="M617.203 120.761L617.114 120.82C614.719 122.448 613.381 125.181 613.063 128.554C612.855 131.287 613.161 134.035 613.965 136.659C614.655 139.008 615.609 141.273 616.811 143.412C617.432 144.517 618.119 145.593 618.881 146.713C619.524 147.629 620.196 148.494 620.891 149.322C622.463 151.202 624.237 152.908 626.184 154.411C628.309 156.086 630.712 157.39 633.287 158.264C636.872 159.412 640.25 159.252 642.815 157.537L642.911 157.471L650 152.659L646.94 148.297C646.922 145.862 646.531 143.443 645.779 141.123C645.043 138.799 644.052 136.562 642.823 134.449C642.283 133.519 641.692 132.588 641.056 131.673C640.307 130.61 639.502 129.586 638.646 128.605C637.04 126.743 635.228 125.063 633.243 123.596C631.438 122.248 629.446 121.159 627.329 120.362L624.269 116L617.203 120.761Z" fill="white"/>
</mask>
<g mask="url(#mask1_22_46626)">
<path d="M647.286 149L633 158.282C636.647 159.402 640.083 159.246 642.692 157.573L642.789 157.509L650 152.815L647.286 149Z" fill="#1D75E0"/>
<path d="M616.261 121.963L616.17 122.023C613.704 123.702 612.327 126.521 612 130L626 120.479L623.558 117L616.261 121.963Z" fill="#05398C"/>
<path d="M646.474 142L627 155.187C629.109 156.845 631.494 158.135 634.049 159L648 149.604L647.655 149.115C647.638 146.705 647.25 144.311 646.504 142.014C646.504 142.014 646.482 142 646.474 142Z" fill="#1572CD"/>
<path d="M642.353 134.5L620.33 150.5V150.916C621.907 152.984 623.358 154.347 625.312 156V156.433L646.115 142.776L645.791 141.349C645.052 138.793 643.818 137.324 642.585 135L642.353 134.5Z" fill="#0B64C5"/>
<path d="M637.984 129L617 144.02C617.596 145.138 618.256 146.227 618.987 147.359C619.604 148.286 620.25 149.161 620.917 150L642 134.914C641.482 133.972 640.914 133.031 640.304 132.104C639.585 131.029 638.813 129.993 637.991 129C637.991 129 637.991 129 637.984 129Z" fill="#0C59AE"/>
<path d="M632.738 125.014L614 137.537C614.67 139.784 615.597 141.952 616.764 144L638 129.793C636.44 128.011 634.68 126.404 632.752 125L632.738 125.014Z" fill="#104D97"/>
<path d="M626.485 120L613.062 129.585C612.857 132.423 613.159 135.275 613.952 138L633 124.415C631.218 123.015 629.253 121.884 627.164 121.057L626.485 120Z" fill="#084694"/>
</g>
<ellipse cx="637.223" cy="134.448" rx="13.3225" ry="22.3891" transform="rotate(-34.62 637.223 134.448)" fill="url(#paint10_linear_22_46626)"/>
<path d="M624.463 116.4C623.977 116.744 623.531 117.139 623.134 117.577C622.932 117.794 622.742 118.02 622.565 118.256C622.476 118.372 622.402 118.494 622.314 118.617C622.228 118.735 622.149 118.858 622.077 118.985C621.486 120.002 621.062 121.104 620.822 122.25C620.375 124.547 620.375 126.906 620.822 129.204C621.253 131.503 621.957 133.745 622.919 135.884C623.883 138.023 625.056 140.067 626.42 141.986C627.099 142.949 627.821 143.878 628.584 144.774C629.347 145.669 630.157 146.526 631.013 147.345C632.717 148.985 634.614 150.423 636.663 151.627C638.696 152.86 640.953 153.699 643.31 154.097C644.491 154.285 645.695 154.285 646.877 154.097C647.024 154.097 647.165 154.039 647.312 154.01C647.46 153.981 647.608 153.953 647.748 153.909C648.036 153.815 648.324 153.75 648.597 153.635C649.159 153.423 649.696 153.154 650.2 152.833C649.212 153.517 648.087 153.987 646.899 154.212C645.705 154.429 644.483 154.458 643.28 154.299C640.882 153.934 638.578 153.123 636.493 151.909C634.399 150.72 632.467 149.279 630.74 147.619C627.26 144.331 624.477 140.405 622.55 136.065C621.579 133.896 620.887 131.618 620.49 129.283C620.067 126.943 620.107 124.546 620.608 122.221C620.884 121.067 621.345 119.962 621.974 118.949C622.607 117.935 623.456 117.066 624.463 116.4V116.4Z" fill="#67C4FB"/>
<path d="M628.223 140.722C631.303 145.314 635.211 148.856 639.228 150.712C644.021 152.931 646.799 151.792 648.03 150.919C649.261 150.047 651.283 147.777 650.967 142.379C650.7 137.868 648.858 132.855 645.777 128.27C642.697 123.686 638.789 120.136 634.772 118.288C629.979 116.069 627.193 117.208 625.97 118.081C624.746 118.953 622.716 121.223 623.033 126.614C623.292 131.132 625.135 136.138 628.223 140.722Z" fill="url(#paint11_linear_22_46626)"/>
<path d="M639.548 150.568C639.878 150.685 640.209 150.816 640.539 150.925L641.046 151.086C641.215 151.137 641.384 151.188 641.553 151.224L642.067 151.356L642.581 151.458C642.75 151.494 642.926 151.523 643.095 151.545L643.616 151.604C644.989 151.765 646.379 151.545 647.634 150.969C648.838 150.339 649.777 149.305 650.285 148.052C650.813 146.811 651.1 145.482 651.13 144.135C651.148 141.381 650.65 138.648 649.661 136.076C648.691 133.491 647.393 131.04 645.798 128.782C644.232 126.495 642.376 124.419 640.275 122.605C638.205 120.772 635.809 119.339 633.209 118.382C631.928 117.917 630.57 117.699 629.207 117.74C627.848 117.782 626.547 118.298 625.535 119.199C624.547 120.158 623.845 121.369 623.508 122.7C623.463 122.867 623.427 123.035 623.383 123.203C623.339 123.371 623.309 123.546 623.28 123.713C623.25 123.881 623.214 124.056 623.192 124.231L623.133 124.749C623.133 124.924 623.118 125.099 623.089 125.274V125.799C623.089 126.149 623.089 126.529 623.089 126.85C622.93 125.442 622.984 124.018 623.25 122.627C623.521 121.195 624.196 119.87 625.197 118.805C625.722 118.277 626.345 117.856 627.033 117.565C627.718 117.277 628.444 117.095 629.185 117.025C630.654 116.928 632.127 117.113 633.525 117.572C636.27 118.494 638.809 119.936 641.002 121.817C645.391 125.557 648.73 130.361 650.696 135.762C651.662 138.445 652.098 141.288 651.982 144.135C651.918 145.596 651.569 147.03 650.953 148.358C650.626 149.022 650.197 149.632 649.683 150.167C649.166 150.704 648.547 151.133 647.861 151.429C646.506 151.979 645.021 152.136 643.58 151.881C642.177 151.645 640.818 151.203 639.548 150.568Z" fill="#0C59AE"/>
<path d="M648 136L647.129 136.879L647 137L647.879 136.121L648 136Z" fill="#957978"/>
<path d="M640.346 127.905C639.999 127.413 639.443 127.084 638.818 127H638.65C638.374 126.996 638.105 127.079 637.886 127.235L637 128.012C637.216 127.85 637.487 127.766 637.764 127.776H637.932C638.201 127.812 638.46 127.894 638.696 128.019C639 128.187 639.261 128.416 639.46 128.688L646.114 137L647 136.224L640.346 127.905Z" fill="#0B64C5"/>
<path d="M638 128.252L635.757 127.566L635.828 126.983L635.887 126.407C635.946 125.873 636.176 125.377 636.539 125L635.783 125.741C635.418 126.12 635.188 126.619 635.13 127.154L635.065 127.731L635 128.314L637.237 129L638 128.252Z" fill="#0B64C5"/>
<path d="M639.364 139.127C639.189 139.105 639.016 139.072 638.846 139.029C637.518 138.671 636.355 137.869 635.554 136.758C634.236 135.018 634.335 134.253 634.518 132.853V132.634L637.566 133.444C637.604 133.444 637.825 133.504 638.015 133.565C638.521 133.624 638.975 133.901 639.257 134.321C639.58 134.728 639.762 135.227 639.775 135.744C639.792 136.142 639.64 136.53 639.356 136.811L640.24 135.994C640.524 135.709 640.676 135.32 640.659 134.919C640.645 134.402 640.464 133.903 640.141 133.497C639.859 133.075 639.405 132.798 638.899 132.74L638.442 132.611L632.552 131.097C632.43 131.061 632.305 131.036 632.179 131.022C631.924 130.98 631.663 130.998 631.417 131.075C631.215 131.13 631.031 131.237 630.884 131.385L630 132.202C630.151 132.06 630.334 131.953 630.533 131.892C630.781 131.825 631.04 131.807 631.295 131.839C631.422 131.857 631.547 131.885 631.669 131.922L634.29 132.611L633.619 133.232L633.566 133.701C633.375 135.101 633.276 135.865 634.594 137.598C635.401 138.707 636.565 139.509 637.893 139.869C638.061 139.91 638.232 139.94 638.404 139.96C639.329 140.105 640.273 139.855 641.002 139.271L641.116 139.165L642 138.34C641.963 138.379 641.922 138.415 641.878 138.446C641.17 139.007 640.261 139.253 639.364 139.127Z" fill="#0B64C5"/>
<path d="M637.286 145.149C636.522 145.024 635.838 144.585 635.383 143.928L629.014 135.029C628.384 134.21 627.989 133.22 627.873 132.175C627.758 131.262 627.97 130.337 628.469 129.58C628.602 129.369 628.758 129.174 628.934 129L628.098 129.824C627.922 130 627.764 130.194 627.626 130.404C627.128 131.161 626.915 132.086 627.031 132.999C627.144 134.045 627.54 135.036 628.171 135.853L634.548 144.752C634.997 145.416 635.684 145.86 636.451 145.981C637.072 146.068 637.699 145.858 638.158 145.408L639 144.584C638.538 145.033 637.909 145.24 637.286 145.149Z" fill="#0B64C5"/>
<path d="M638.633 130.104L638.224 129.983L632.44 128.238C632.128 128.144 631.807 128.078 631.483 128.042C630.898 127.961 630.303 127.997 629.732 128.148C628.89 128.359 628.155 128.864 627.665 129.568C627.135 130.317 626.91 131.233 627.033 132.136C627.156 133.171 627.576 134.151 628.244 134.962L635.008 143.77C635.491 144.421 636.218 144.856 637.029 144.979C637.69 145.069 638.359 144.864 638.849 144.42L639.027 144.254L630.72 133.542C630.457 133.22 630.284 132.838 630.218 132.431C630.159 132.069 630.235 131.699 630.434 131.389C630.608 131.099 630.881 130.879 631.205 130.769C631.455 130.693 631.719 130.675 631.977 130.716C632.105 130.731 632.231 130.756 632.355 130.792L638.317 132.303L638.78 132.431C639.292 132.489 639.752 132.766 640.037 133.187C640.364 133.592 640.548 134.09 640.561 134.607C640.584 135.054 640.386 135.484 640.029 135.763C639.73 135.979 639.355 136.069 638.988 136.012C638.892 136.001 638.796 135.983 638.703 135.959C638.179 135.792 637.722 135.467 637.399 135.03C637.049 134.607 636.921 134.048 637.052 133.519C637.052 133.436 637.052 132.983 637.114 132.809L634.376 132.129L634.322 132.59C634.136 133.987 634.036 134.75 635.371 136.488C636.181 137.597 637.358 138.398 638.703 138.754C638.875 138.797 639.05 138.83 639.227 138.852C640.162 138.996 641.116 138.743 641.849 138.157C642.646 137.459 643.068 136.438 642.991 135.392C642.925 134.205 642.489 133.066 641.742 132.129C641.059 131.04 639.923 130.299 638.633 130.104Z" fill="#D4F7FF"/>
<path d="M646.412 133.931L641.705 127.327C641.237 126.665 640.652 126.105 639.98 125.676C639.41 125.322 638.777 125.095 638.119 125.008H637.896C637.247 124.959 636.601 125.141 636.064 125.526C635.548 125.943 635.217 126.56 635.144 127.237L635.079 127.867L635 128.505L637.472 129.255V128.903L637.515 128.287C637.52 128.003 637.634 127.732 637.831 127.537C638.037 127.372 638.291 127.285 638.55 127.289H638.708C639.296 127.378 639.819 127.725 640.145 128.242L646.412 137L646.527 136.887C647.216 136.257 647.13 134.959 646.412 133.931Z" fill="#D4F7FF"/>
<g opacity="0.95">
<path d="M585.199 121.169H585.097C582.567 120.249 580.496 118.376 579.324 115.949C578.349 114.01 577.777 111.893 577.643 109.726C577.514 107.877 577.637 106.02 578.008 104.205C578.191 103.258 578.435 102.324 578.739 101.409C579.004 100.636 579.309 99.8789 579.653 99.1389C580.417 97.4705 581.4 95.9119 582.576 94.5044C583.93 92.8805 585.582 91.5311 587.443 90.5289C589.975 89.0976 592.986 88.7821 595.759 89.6576H595.854L601.905 91.7223L602.051 95.9614C602.761 97.7421 603.161 99.6315 603.235 101.548C603.314 103.387 603.149 105.228 602.745 107.024C602.568 107.822 602.346 108.609 602.08 109.382C601.766 110.297 601.395 111.192 600.969 112.061C600.161 113.725 599.128 115.27 597.9 116.652C596.743 117.972 595.381 119.097 593.866 119.983L591.177 123.248L585.199 121.169Z" fill="#003D97"/>
<path d="M602.277 95.5075L587.516 90.4631C590.048 89.0318 593.059 88.7164 595.832 89.5918H595.927L601.978 91.6565L602.277 95.5075Z" fill="#05398C"/>
<path d="M585.199 121.169H585.097C582.567 120.249 580.496 118.376 579.324 115.949L593.654 120.854L591.25 123.27L585.199 121.169Z" fill="#1D75E0"/>
<path d="M603.308 101.518L582.627 94.4532C583.981 92.8293 585.633 91.4799 587.494 90.4777L602.241 95.5221L602.102 95.9468C602.812 97.7275 603.212 99.6169 603.286 101.533L603.308 101.518Z" fill="#084694"/>
<path d="M602.833 107.002L579.689 99.095C580.453 97.4267 581.436 95.868 582.612 94.4606L603.308 101.511C603.387 103.35 603.222 105.192 602.818 106.988L602.833 107.002Z" fill="#104D97"/>
<path d="M601.05 112.047L578.016 104.169C578.198 103.221 578.442 102.287 578.747 101.372C579.011 100.6 579.316 99.8423 579.66 99.1023L602.796 107.009C602.619 107.807 602.397 108.594 602.131 109.367C601.817 110.283 601.446 111.178 601.02 112.047H601.05Z" fill="#0C59AE"/>
<path d="M597.973 116.644L577.643 109.696C577.514 107.848 577.637 105.991 578.008 104.176L601.05 112.054C600.241 113.718 599.209 115.262 597.98 116.644H597.973Z" fill="#0B64C5"/>
<path d="M593.654 120.825L579.324 115.92C578.349 113.981 577.777 111.863 577.643 109.696L597.973 116.644C596.816 117.965 595.454 119.09 593.939 119.976L593.654 120.825Z" fill="#1572CD"/>
<ellipse cx="596.638" cy="107.426" rx="16.6676" ry="13.2295" transform="rotate(-71.16 596.638 107.426)" fill="url(#paint12_linear_22_46626)"/>
<path d="M591.287 123.212C589.404 122.59 587.723 121.472 586.42 119.976C585.118 118.479 584.149 116.722 583.577 114.821C583.008 112.924 582.761 110.944 582.846 108.964C582.932 106.971 583.296 104.999 583.928 103.107C584.576 101.229 585.486 99.4513 586.632 97.8284C587.77 96.2021 589.176 94.7811 590.79 93.6259C592.399 92.4612 594.238 91.6526 596.183 91.2537C598.133 90.8623 600.153 91.0065 602.029 91.6711C600.153 91.087 598.158 91.0062 596.241 91.4368C594.339 91.8683 592.548 92.6965 590.987 93.8675C589.421 95.0266 588.053 96.4337 586.938 98.0334C584.705 101.258 583.419 105.045 583.226 108.964C583.136 110.913 583.361 112.864 583.891 114.741C584.412 116.619 585.324 118.365 586.566 119.866C587.815 121.385 589.444 122.544 591.287 123.226V123.212Z" fill="#67C4FB"/>
<path d="M585.872 103.744C587.119 99.8964 589.667 96.6054 593.077 94.4386C596.965 92.0518 600.092 92.5716 601.605 93.0841C603.118 93.5966 605.902 95.1122 607.532 99.3806C610.191 107.22 607.244 115.87 600.355 120.444C596.46 122.831 593.34 122.319 591.827 121.799C590.315 121.279 587.523 119.771 585.901 115.502C584.524 111.706 584.513 107.547 585.872 103.744Z" fill="url(#paint13_linear_22_46626)"/>
<path d="M593.077 94.4386C594.114 93.7344 595.252 93.1937 596.453 92.8352C597.673 92.4754 598.953 92.3658 600.217 92.5131C600.853 92.5922 601.478 92.7445 602.08 92.967C602.681 93.1989 603.254 93.4959 603.79 93.8529C604.861 94.5733 605.784 95.4929 606.508 96.5618C607.926 98.7083 608.766 101.185 608.949 103.751C609.319 108.911 607.587 114.001 604.148 117.86C602.435 119.778 600.258 121.223 597.827 122.055C596.6 122.457 595.307 122.619 594.02 122.531C593.377 122.488 592.742 122.37 592.127 122.18C591.513 121.992 590.925 121.731 590.373 121.403C589.285 120.743 588.338 119.872 587.589 118.841C586.86 117.82 586.291 116.695 585.901 115.502C586.384 116.645 587.024 117.714 587.801 118.68C588.575 119.627 589.529 120.411 590.607 120.986C591.136 121.274 591.698 121.495 592.28 121.645C592.861 121.797 593.457 121.883 594.056 121.901C595.257 121.934 596.454 121.743 597.586 121.338C598.719 120.924 599.793 120.363 600.779 119.668C601.766 118.967 602.669 118.154 603.468 117.245C604.272 116.345 604.98 115.363 605.58 114.316C606.171 113.259 606.66 112.149 607.042 111C607.437 109.851 607.721 108.667 607.89 107.463C608.06 106.251 608.104 105.024 608.021 103.803C607.944 102.595 607.726 101.401 607.371 100.245C607.013 99.0893 606.504 97.9865 605.858 96.9645C605.211 95.9507 604.381 95.0667 603.41 94.3581C602.924 94.0057 602.403 93.7062 601.853 93.4649C601.296 93.2337 600.715 93.0643 600.122 92.9597C598.907 92.7614 597.667 92.8012 596.468 93.0768C595.28 93.37 594.138 93.8284 593.077 94.4386Z" fill="#0C59AE"/>
<path d="M599.252 116.579L598.273 116.198L598.127 116.139L599.113 116.527L599.252 116.579Z" fill="#957978"/>
<path d="M603.637 107.932C603.794 107.661 603.886 107.358 603.907 107.046C603.926 106.799 603.898 106.551 603.827 106.314C603.81 106.269 603.791 106.225 603.768 106.182C603.674 105.953 603.5 105.766 603.279 105.655L602.299 105.274C602.525 105.382 602.702 105.57 602.796 105.801C602.818 105.846 602.835 105.893 602.847 105.941C602.919 106.165 602.948 106.401 602.935 106.636C602.912 106.948 602.819 107.25 602.665 107.522L598.134 116.117L599.12 116.505L603.637 107.932Z" fill="#0B64C5"/>
<path d="M601.773 106.036L601.379 103.693L601.919 103.51L602.453 103.327C602.944 103.15 603.481 103.15 603.973 103.327L602.986 102.939C602.495 102.762 601.958 102.762 601.466 102.939L600.933 103.114L600.392 103.297L600.794 105.648L601.773 106.036Z" fill="#0B64C5"/>
<path d="M594.597 111.08C594.553 110.934 594.517 110.787 594.48 110.634C594.264 109.449 594.463 108.226 595.043 107.171C595.927 105.472 596.57 105.26 597.754 104.879L597.937 104.813L598.455 107.566C598.455 107.566 598.499 107.786 598.521 107.969C598.667 108.385 598.625 108.845 598.404 109.228C598.202 109.635 597.874 109.966 597.469 110.172C597.159 110.341 596.791 110.367 596.46 110.246L597.44 110.634C597.771 110.755 598.138 110.729 598.448 110.56C598.857 110.354 599.188 110.02 599.391 109.609C599.616 109.23 599.659 108.77 599.508 108.357C599.508 108.174 599.442 107.983 599.435 107.947L598.455 102.704C598.436 102.595 598.41 102.488 598.375 102.382C598.309 102.175 598.202 101.983 598.061 101.819C597.935 101.685 597.78 101.582 597.608 101.518L596.629 101.13C596.8 101.194 596.953 101.3 597.074 101.438C597.218 101.599 597.328 101.789 597.396 101.994C597.429 102.102 597.453 102.212 597.469 102.324L597.907 104.652L597.177 104.359L596.782 104.491C595.548 104.744 594.527 105.607 594.071 106.783C593.494 107.839 593.298 109.062 593.515 110.246C593.543 110.397 593.582 110.546 593.632 110.692C593.87 111.475 594.424 112.123 595.16 112.479L595.284 112.53L596.263 112.918L596.139 112.867C595.397 112.514 594.838 111.866 594.597 111.08Z" fill="#0B64C5"/>
<path d="M588.897 111.732C588.686 111.05 588.763 110.313 589.109 109.689L593.61 101.065C594.005 100.235 594.629 99.5364 595.408 99.0511C596.082 98.6133 596.895 98.4435 597.688 98.5752C597.906 98.6035 598.12 98.6601 598.324 98.7436L597.345 98.3556C597.138 98.273 596.922 98.2165 596.702 98.1872C595.911 98.0552 595.1 98.2251 594.429 98.6631C593.648 99.1509 593.021 99.8519 592.624 100.684L588.122 109.308C587.78 109.93 587.704 110.665 587.91 111.344C588.085 111.893 588.495 112.336 589.028 112.552L590.015 112.933C589.478 112.725 589.066 112.282 588.897 111.732Z" fill="#0B64C5"/>
<path d="M601.32 107.339C601.32 107.266 601.32 107.2 601.269 106.973L600.538 101.797C600.496 101.518 600.43 101.244 600.341 100.977C600.189 100.488 599.941 100.034 599.61 99.644C599.129 99.0705 598.456 98.6909 597.717 98.5751C596.925 98.4434 596.112 98.6132 595.437 99.051C594.658 99.5363 594.035 100.235 593.64 101.064L589.109 109.696C588.763 110.32 588.686 111.058 588.897 111.739C589.066 112.29 589.478 112.732 590.015 112.94L590.212 113.02L595.657 102.477C595.827 102.146 596.078 101.864 596.387 101.657C596.657 101.48 596.979 101.4 597.301 101.43C597.604 101.466 597.886 101.605 598.097 101.826C598.239 101.991 598.346 102.182 598.412 102.39C598.446 102.495 598.473 102.603 598.492 102.712L599.471 107.954C599.471 107.954 599.522 108.181 599.544 108.364C599.695 108.778 599.652 109.237 599.427 109.616C599.224 110.027 598.894 110.361 598.485 110.568C598.169 110.748 597.788 110.77 597.454 110.626C597.121 110.482 596.875 110.189 596.789 109.835C596.762 109.756 596.74 109.676 596.723 109.594C596.651 109.108 596.738 108.612 596.972 108.181C597.18 107.741 597.584 107.426 598.061 107.332C598.127 107.332 598.507 107.156 598.653 107.112L598.178 104.718L597.79 104.85C596.607 105.23 595.963 105.443 595.079 107.141C594.5 108.196 594.301 109.419 594.517 110.604C594.553 110.758 594.59 110.904 594.633 111.051C594.871 111.834 595.425 112.482 596.161 112.837C597.014 113.19 597.981 113.131 598.784 112.676C599.701 112.177 600.445 111.411 600.918 110.48C601.494 109.539 601.641 108.395 601.32 107.339Z" fill="#D4F7FF"/>
<path d="M601.561 115.319L604.974 108.847C605.316 108.204 605.53 107.5 605.602 106.775C605.661 106.165 605.591 105.549 605.398 104.967L605.332 104.769C605.108 104.208 604.705 103.736 604.185 103.429C603.648 103.153 603.022 103.111 602.453 103.312L601.919 103.495L601.378 103.678L601.773 106.021L602.058 105.889L602.57 105.692C602.802 105.586 603.068 105.586 603.3 105.692C603.522 105.802 603.696 105.989 603.79 106.219C603.813 106.261 603.832 106.305 603.848 106.351C603.92 106.587 603.948 106.836 603.929 107.083C603.908 107.395 603.815 107.698 603.658 107.969L599.135 116.564L599.274 116.615C600.012 116.879 601.02 116.286 601.561 115.319Z" fill="#D4F7FF"/>
</g>
<g opacity="0.65">
<path d="M623.271 39.7071H623.222C621.987 39.2594 620.976 38.3355 620.407 37.1357C619.93 36.1798 619.652 35.1342 619.591 34.0642C619.528 33.1505 619.589 32.2323 619.774 31.3357C619.867 30.8664 619.99 30.4036 620.14 29.95C620.274 29.5642 620.421 29.1928 620.583 28.8285C620.949 28.0056 621.422 27.2368 621.991 26.5428C622.65 25.7398 623.455 25.0729 624.362 24.5785C625.597 23.872 627.064 23.7168 628.416 24.15H628.458L631.449 25.1428L631.519 27.2357C631.866 28.1142 632.061 29.0469 632.096 29.9928C632.136 30.902 632.056 31.8126 631.857 32.7C631.772 33.0942 631.664 33.483 631.533 33.8642C631.38 34.3158 631.199 34.7571 630.991 35.1857C630.595 36.0061 630.091 36.7679 629.492 37.45C628.929 38.1012 628.266 38.6559 627.529 39.0928L626.213 40.7071L623.271 39.7071Z" fill="#003D97"/>
<path d="M631.589 27.0428L624.397 24.55C625.632 23.8435 627.1 23.6883 628.451 24.1214H628.493L631.449 25.1428L631.589 27.0428Z" fill="#05398C"/>
<path d="M623.272 39.7072H623.222C621.987 39.2595 620.976 38.3355 620.407 37.1357L627.388 39.5572L626.213 40.75L623.272 39.7072Z" fill="#1D75E0"/>
<path d="M632.096 30.0071L622.026 26.5214C622.685 25.7184 623.49 25.0515 624.397 24.5571L631.582 27.0428L631.512 27.2571C631.859 28.1357 632.054 29.0684 632.089 30.0143L632.096 30.0071Z" fill="#084694"/>
<path d="M631.857 32.7142L620.597 28.8071C620.963 27.9842 621.436 27.2153 622.005 26.5214L632.075 30.0142C632.115 30.9234 632.035 31.834 631.836 32.7214L631.857 32.7142Z" fill="#104D97"/>
<path d="M630.963 35.2071L619.774 31.3143C619.867 30.845 619.99 30.3822 620.14 29.9286C620.274 29.5428 620.421 29.1714 620.583 28.8071L631.843 32.7143C631.758 33.1086 631.649 33.4973 631.519 33.8786C631.366 34.3301 631.185 34.7714 630.977 35.2L630.963 35.2071Z" fill="#0C59AE"/>
<path d="M629.492 37.4714L619.591 34.0428C619.528 33.129 619.589 32.2108 619.774 31.3142L630.963 35.1999C630.567 36.0203 630.063 36.7821 629.464 37.4642L629.492 37.4714Z" fill="#0B64C5"/>
<path d="M627.388 39.5357L620.407 37.1143C619.93 36.1584 619.652 35.1128 619.591 34.0428L629.492 37.4714C628.929 38.1226 628.266 38.6774 627.529 39.1143L627.388 39.5357Z" fill="#1572CD"/>
<ellipse cx="628.828" cy="32.9184" rx="8.21591" ry="6.4491" transform="rotate(-71.16 628.828 32.9184)" fill="url(#paint14_linear_22_46626)"/>
<path d="M626.234 40.7142C625.316 40.4085 624.496 39.8555 623.863 39.1142C623.248 38.3691 622.79 37.5036 622.519 36.5713C622.244 35.6312 622.125 34.6511 622.167 33.6713C622.209 32.6985 622.387 31.7367 622.694 30.8142C623.008 29.8856 623.451 29.0075 624.01 28.2071C624.566 27.4058 625.252 26.7055 626.037 26.1356C626.82 25.5594 627.715 25.16 628.662 24.9642C629.601 24.7751 630.574 24.8467 631.477 25.1713C630.565 24.8782 629.593 24.8388 628.662 25.0571C627.736 25.2683 626.865 25.6774 626.107 26.2571C625.346 26.8283 624.681 27.5206 624.137 28.3071C623.047 29.8942 622.418 31.7604 622.322 33.6928C622.276 34.6567 622.386 35.6216 622.645 36.5499C622.897 37.4665 623.333 38.3202 623.926 39.0571C624.231 39.4265 624.581 39.7553 624.967 40.0356C625.359 40.3165 625.785 40.5446 626.234 40.7142Z" fill="#67C4FB"/>
<path d="M623.595 31.1071C624.205 29.2066 625.449 27.582 627.114 26.5142C628.304 25.6101 629.858 25.3607 631.265 25.8478C632.673 26.335 633.752 27.4958 634.151 28.9499C635.446 32.8254 634 37.0997 630.632 39.3499C629.44 40.2504 627.887 40.4968 626.48 40.0086C625.074 39.5204 623.995 38.3603 623.595 36.9071C622.931 35.0325 622.931 32.9817 623.595 31.1071Z" fill="url(#paint15_linear_22_46626)"/>
<path d="M627.093 26.5143C627.597 26.1679 628.15 25.9006 628.732 25.7214C629.328 25.5478 629.952 25.4945 630.569 25.5643C630.88 25.6015 631.185 25.6783 631.477 25.7929C631.768 25.9042 632.047 26.0479 632.307 26.2214C632.83 26.5774 633.279 27.0335 633.63 27.5643C634.326 28.63 634.738 29.8604 634.826 31.1357C634.916 32.3963 634.753 33.6621 634.348 34.8572C633.95 36.0557 633.316 37.1592 632.483 38.1C631.649 39.049 630.587 39.7627 629.401 40.1714C628.805 40.371 628.176 40.4511 627.55 40.4072C626.924 40.368 626.315 40.1769 625.777 39.85C625.246 39.524 624.784 39.0942 624.419 38.5857C624.066 38.0798 623.788 37.5239 623.595 36.9357C623.831 37.5008 624.144 38.0297 624.524 38.5072C624.902 38.9726 625.365 39.3585 625.889 39.6429C626.148 39.7835 626.422 39.8937 626.706 39.9714C626.989 40.0443 627.279 40.085 627.571 40.0929C628.156 40.1116 628.738 40.0171 629.288 39.8143C629.839 39.6081 630.361 39.3321 630.843 38.9929C631.323 38.6473 631.762 38.2471 632.152 37.8C632.541 37.3603 632.886 36.8817 633.18 36.3714C633.465 35.8503 633.701 35.3026 633.883 34.7357C634.075 34.1691 634.214 33.5856 634.299 32.9929C634.379 32.399 634.401 31.7983 634.362 31.2C634.323 30.6039 634.217 30.0143 634.045 29.4429C633.878 28.8749 633.641 28.3302 633.342 27.8214C633.025 27.3237 632.622 26.8881 632.152 26.5357C631.915 26.3632 631.66 26.2171 631.392 26.1C631.121 25.9844 630.838 25.9006 630.548 25.85C629.961 25.7512 629.361 25.7707 628.782 25.9072C628.193 26.0273 627.624 26.2317 627.093 26.5143Z" fill="#0C59AE"/>
<path d="M630.111 37.4428L629.633 37.25L629.57 37.2214L630.048 37.4143L630.111 37.4428Z" fill="#957978"/>
<path d="M632.251 33.1714C632.328 33.0386 632.374 32.8894 632.384 32.7357C632.389 32.6198 632.375 32.504 632.342 32.3928C632.343 32.369 632.343 32.3452 632.342 32.3214C632.298 32.2078 632.212 32.1158 632.103 32.0643L631.624 31.8785C631.731 31.9343 631.815 32.0249 631.864 32.1357C631.863 32.1595 631.863 32.1833 631.864 32.2071C631.896 32.3184 631.91 32.4341 631.906 32.55C631.895 32.7037 631.849 32.8528 631.772 32.9857L629.556 37.2214L630.034 37.4143L632.251 33.1714Z" fill="#0B64C5"/>
<path d="M631.343 32.2285L631.146 31.0714L631.413 30.9857L631.674 30.8928C631.902 30.8149 632.149 30.8149 632.377 30.8928L631.899 30.7071C631.671 30.626 631.423 30.626 631.195 30.7071L630.935 30.7928L630.667 30.8857L630.864 32.0428L631.343 32.2285Z" fill="#0B64C5"/>
<path d="M627.845 34.7214C627.823 34.6511 627.804 34.5796 627.789 34.5071C627.683 33.9229 627.78 33.3195 628.064 32.7999C628.283 32.216 628.783 31.7873 629.387 31.6642H629.471L629.724 33.0214C629.724 33.0214 629.724 33.1285 629.724 33.2214C629.793 33.4273 629.772 33.6529 629.668 33.8428C629.569 34.0435 629.408 34.2063 629.211 34.3071C629.06 34.3923 628.879 34.4054 628.718 34.3428L629.197 34.5356C629.354 34.6023 629.532 34.6023 629.689 34.5356C629.887 34.4322 630.048 34.267 630.147 34.0642C630.252 33.8746 630.272 33.6486 630.203 33.4428C630.203 33.3571 630.168 33.2642 630.168 33.2428L629.689 30.6571C629.693 30.6048 629.693 30.5522 629.689 30.4999C629.677 30.3708 629.631 30.2473 629.555 30.1428C629.493 30.0793 629.419 30.0284 629.337 29.9928L628.859 29.7999C628.94 29.8355 629.014 29.8864 629.077 29.9499C629.145 30.0325 629.197 30.1269 629.232 30.2285C629.236 30.2832 629.236 30.3381 629.232 30.3928L629.443 31.5428L629.077 31.3928L628.887 31.4642C628.287 31.5869 627.79 32.0127 627.571 32.5928C627.288 33.1124 627.191 33.7158 627.297 34.2999C627.311 34.3748 627.33 34.4487 627.353 34.5214C627.475 34.9233 627.766 35.25 628.148 35.4142H628.211L628.69 35.6071H628.627C628.252 35.441 627.967 35.1178 627.845 34.7214Z" fill="#0B64C5"/>
<path d="M625.066 35.05C624.965 34.7136 625.004 34.3503 625.171 34.0428L627.367 29.7571C627.559 29.3484 627.861 29.0039 628.24 28.7643C628.568 28.5482 628.965 28.4642 629.351 28.5286C629.457 28.5428 629.561 28.5691 629.661 28.6071L629.183 28.4214C629.084 28.3779 628.98 28.349 628.873 28.3357C628.486 28.2713 628.09 28.3553 627.761 28.5714C627.384 28.8129 627.082 29.1569 626.888 29.5643L624.693 33.85C624.525 34.1574 624.487 34.5207 624.587 34.8571C624.674 35.1278 624.876 35.3451 625.136 35.45L625.615 35.6428C625.355 35.5363 625.155 35.3196 625.066 35.05Z" fill="#0B64C5"/>
<path d="M631.125 32.8786C631.125 32.8786 631.125 32.8071 631.125 32.7L630.731 30.1429C630.709 30.007 630.676 29.8732 630.632 29.7429C630.557 29.5016 630.435 29.2781 630.273 29.0857C630.041 28.8 629.712 28.6117 629.351 28.5571C628.965 28.4927 628.568 28.5768 628.24 28.7929C627.861 29.0325 627.559 29.377 627.367 29.7857L625.171 34.0714C625.004 34.3788 624.965 34.7422 625.066 35.0786C625.155 35.3482 625.355 35.5648 625.615 35.6714H625.713L628.359 30.4714C628.437 30.3077 628.556 30.1674 628.704 30.0643C628.834 29.9752 628.992 29.9371 629.147 29.9571C629.301 29.9666 629.446 30.0326 629.556 30.1429C629.627 30.2226 629.68 30.3179 629.71 30.4214C629.714 30.4737 629.714 30.5263 629.71 30.5786L630.189 33.1643C630.189 33.1643 630.189 33.2786 630.224 33.3643C630.293 33.5701 630.273 33.7961 630.168 33.9857C630.069 34.1885 629.909 34.3537 629.71 34.4571C629.54 34.5461 629.338 34.5461 629.168 34.4571C629.032 34.379 628.929 34.2516 628.88 34.1C628.876 34.0596 628.876 34.0189 628.88 33.9786C628.84 33.7336 628.882 33.482 629 33.2643C629.1 33.0468 629.296 32.8905 629.527 32.8429L629.816 32.7357L629.556 31.5714L629.373 31.6357C628.769 31.7588 628.269 32.1875 628.05 32.7714C627.766 33.291 627.669 33.8944 627.775 34.4786C627.79 34.5511 627.809 34.6226 627.831 34.6929C627.945 35.0823 628.216 35.4044 628.577 35.5786C628.991 35.7526 629.461 35.7236 629.851 35.5C630.301 35.2589 630.669 34.8855 630.907 34.4286C631.192 33.9665 631.271 33.4033 631.125 32.8786Z" fill="#D4F7FF"/>
<path d="M631.237 36.8143L632.898 33.6214C633.066 33.3045 633.171 32.9576 633.208 32.6C633.236 32.2986 633.202 31.9946 633.109 31.7071C633.109 31.7071 633.109 31.6428 633.109 31.6143C633.001 31.3365 632.806 31.1029 632.553 30.95C632.29 30.8194 631.987 30.7989 631.709 30.8928L631.449 30.9857L631.181 31.0714L631.378 32.2285L631.512 32.1643L631.765 32.0714C631.875 32.0216 632 32.0216 632.11 32.0714C632.219 32.123 632.305 32.215 632.349 32.3285C632.35 32.3523 632.35 32.3762 632.349 32.4C632.382 32.5111 632.396 32.627 632.391 32.7428C632.381 32.8966 632.335 33.0457 632.258 33.1785L630.055 37.4214H630.119C630.586 37.5104 631.051 37.2579 631.237 36.8143Z" fill="#D4F7FF"/>
</g>
<g opacity="0.85">
<path d="M647.524 70.0058L647.576 70.0566C648.876 71.5097 649.317 73.5221 648.994 75.7816C648.994 75.7816 648.994 75.8324 648.994 75.8615C648.68 77.7079 648.025 79.4812 647.061 81.0924C646.219 82.5446 645.217 83.8995 644.071 85.1319C643.476 85.7712 642.837 86.396 642.154 86.999C641.58 87.5003 640.993 87.9726 640.398 88.4157C639.044 89.4154 637.586 90.2679 636.048 90.9585C634.365 91.7407 632.558 92.2321 630.707 92.4116C628.15 92.6005 625.939 91.9466 624.521 90.3773C624.508 90.3548 624.49 90.335 624.469 90.3192L620.568 85.9601L623.316 83.5481C623.725 81.9274 624.384 80.3787 625.27 78.9565C626.143 77.5283 627.17 76.1982 628.334 74.9897C628.848 74.4593 629.392 73.9362 629.965 73.4277C630.636 72.8399 631.337 72.287 632.066 71.7712C633.44 70.7915 634.918 69.9632 636.474 69.301C637.891 68.6926 639.387 68.2866 640.919 68.095L643.66 65.683L647.524 70.0058Z" fill="#003D97"/>
<path d="M643.623 65.6611L647.576 70.0202C648.876 71.4733 649.317 73.4857 648.993 75.7452L641.544 67.492L643.623 65.6611Z" fill="#05398C"/>
<path d="M622.963 83.8241L630.67 92.4043C628.114 92.5932 625.902 91.9393 624.484 90.37C624.471 90.3475 624.454 90.3277 624.433 90.3119L620.531 85.9528L622.963 83.8241Z" fill="#1D75E0"/>
<path d="M625.219 78.9492L636.041 90.9731C634.357 91.7552 632.551 92.2466 630.7 92.4261L623 83.8459L623.309 83.5771C623.718 81.9565 624.377 80.4078 625.263 78.9855L625.219 78.9492Z" fill="#1572CD"/>
<path d="M628.283 74.9751L640.376 88.4302C639.022 89.4299 637.564 90.2824 636.026 90.973L625.234 78.9637C626.106 77.5355 627.134 76.2054 628.297 74.9969L628.283 74.9751Z" fill="#0B64C5"/>
<path d="M632.022 71.7494L644.056 85.1391C643.461 85.7785 642.822 86.4033 642.139 87.0063C641.566 87.5076 640.978 87.9798 640.383 88.423L628.282 74.9824C628.797 74.452 629.34 73.9289 629.913 73.4204C630.584 72.8326 631.286 72.2797 632.015 71.7639L632.022 71.7494Z" fill="#0C59AE"/>
<path d="M636.438 69.2792L647.061 81.0924C646.219 82.5446 645.216 83.8994 644.071 85.1319L632.037 71.7421C633.411 70.7624 634.889 69.9341 636.445 69.272L636.438 69.2792Z" fill="#104D97"/>
<path d="M641.5 67.5283L648.986 75.8615C648.673 77.7078 648.018 79.4812 647.054 81.0924L636.43 69.2792C637.846 68.6708 639.343 68.2647 640.875 68.0732L641.5 67.5283Z" fill="#084694"/>
<ellipse cx="632.105" cy="75.8434" rx="15.3821" ry="9.14159" transform="rotate(-41.63 632.105 75.8434)" fill="url(#paint16_linear_22_46626)"/>
<path d="M643.674 65.7192C644.236 66.3203 644.659 67.034 644.916 67.8116C645.169 68.5935 645.295 69.41 645.291 70.2309C645.237 71.871 644.868 73.4859 644.203 74.9896C643.556 76.4967 642.719 77.9172 641.713 79.2179C639.725 81.8373 637.227 84.036 634.366 85.684C632.943 86.5191 631.42 87.1756 629.833 87.6383C628.244 88.1123 626.578 88.2825 624.925 88.1396C624.099 88.0505 623.292 87.8297 622.537 87.4857C621.79 87.1422 621.124 86.6471 620.583 86.0327C620.862 86.3288 621.175 86.5921 621.516 86.8173C621.848 87.0504 622.205 87.2454 622.581 87.3985C623.332 87.7073 624.129 87.8961 624.94 87.958C626.565 88.06 628.196 87.8553 629.745 87.3549C631.3 86.8746 632.792 86.2137 634.189 85.3861C635.589 84.5642 636.903 83.6078 638.113 82.5309C639.338 81.4662 640.455 80.2861 641.448 79.0073C642.441 77.7327 643.279 76.3478 643.946 74.8806C644.629 73.4175 645.025 71.8398 645.114 70.2309C645.148 69.4266 645.051 68.6221 644.828 67.8479C644.772 67.6558 644.705 67.4666 644.629 67.2813C644.554 67.0926 644.468 66.9082 644.372 66.7291C644.176 66.3691 643.942 66.0306 643.674 65.7192V65.7192Z" fill="#67C4FB"/>
<path d="M637.143 81.4556C634.569 83.8332 631.398 85.4841 627.959 86.2361C624.286 86.9045 622.574 85.6912 621.869 84.9066C621.163 84.122 620.149 82.2839 621.251 78.7675C623.747 72.1464 629.399 67.1797 636.342 65.5086C640.016 64.8402 641.735 66.0535 642.433 66.8381C643.131 67.6227 644.152 69.4536 643.057 72.9772C641.885 76.2738 639.843 79.2009 637.143 81.4556Z" fill="url(#paint17_linear_22_46626)"/>
<path d="M627.959 86.2362C626.999 86.473 626.008 86.566 625.02 86.5123C623.996 86.4535 623.01 86.1083 622.177 85.5169C621.76 85.2037 621.41 84.8109 621.149 84.3618C620.88 83.9107 620.687 83.4202 620.576 82.9087C620.373 81.9112 620.373 80.8839 620.576 79.8864C620.973 77.9237 621.757 76.0574 622.882 74.3939C625.108 71.0684 628.172 68.3741 631.772 66.5766C633.562 65.6783 635.51 65.1306 637.51 64.9637C638.538 64.8886 639.571 65.012 640.552 65.327C641.046 65.4945 641.51 65.7398 641.926 66.0535C642.348 66.3662 642.702 66.7589 642.969 67.2087C643.464 68.0954 643.694 69.1036 643.63 70.1147C643.574 71.0945 643.366 72.0599 643.013 72.9772C643.064 72.7375 643.123 72.505 643.167 72.2507C643.211 71.9964 643.263 71.7785 643.285 71.5242C643.351 71.0428 643.375 70.5567 643.358 70.0712C643.345 69.1298 643.07 68.2101 642.565 67.4121C642.033 66.6643 641.253 66.1245 640.361 65.8864C639.454 65.6451 638.51 65.5737 637.576 65.6757C635.676 65.9007 633.834 66.4748 632.147 67.3685C630.44 68.2439 628.853 69.3302 627.423 70.6015C625.974 71.855 624.695 73.2885 623.617 74.8662C622.52 76.4196 621.725 78.1614 621.273 80.0027C621.062 80.9054 621.023 81.839 621.156 82.7562C621.294 83.6634 621.746 84.4952 622.434 85.1101C623.177 85.7003 624.069 86.0773 625.013 86.1999C625.499 86.2763 625.991 86.3079 626.482 86.2943C626.725 86.2943 626.967 86.2943 627.217 86.2943L627.959 86.2362Z" fill="#0C59AE"/>
<path d="M630.972 71.4515L631.06 71.3934L631.148 71.3425H631.192L631.332 71.2771C631.442 71.2349 631.559 71.2104 631.677 71.2045C631.76 71.1974 631.843 71.1974 631.927 71.2045C632.103 71.2273 632.265 71.3125 632.382 71.4442L631.956 70.8703C631.835 70.7378 631.672 70.6506 631.493 70.6232C631.412 70.616 631.331 70.616 631.251 70.6232C631.132 70.6292 631.016 70.6537 630.905 70.6959L630.766 70.7613H630.722L630.648 70.8049L630.56 70.8703H630.523C630.497 70.8926 630.472 70.9169 630.45 70.9429L625.66 75.7307L626.086 76.3046L630.869 71.5096L630.972 71.4515Z" fill="#0B64C5"/>
<path d="M630.252 75.7017C630.252 75.7017 630.252 75.6435 630.252 75.6145C630.252 75.5854 630.252 75.6145 630.252 75.5636C630.256 75.5445 630.256 75.5247 630.252 75.5055V75.4546C630.248 75.4403 630.248 75.4254 630.252 75.4111C630.268 75.359 630.288 75.3081 630.31 75.2585L630.391 75.1204C630.421 75.0715 630.456 75.0253 630.494 74.9824L630.575 74.8952L630.67 74.808L630.766 74.7354L630.854 74.6845H630.92H631.016H631.118H631.383H631.743H631.846L631.89 73.1588L631.471 72.5922L631.427 74.1179H631.317H630.964H630.898H630.795H630.7H630.634L630.545 74.1614L630.457 74.2268L630.391 74.2922L630.31 74.3794L630.207 74.5174C630.176 74.5609 630.149 74.6071 630.127 74.6555L630.061 74.8153C630.065 74.832 630.065 74.8495 630.061 74.8662C630.065 74.8853 630.065 74.9051 630.061 74.9243C630.061 74.9243 630.061 74.9606 630.061 74.9824C630.061 74.9824 630.061 75.0042 630.061 74.9824C630.061 74.9824 630.061 74.9824 630.061 75.0333C630.057 75.0962 630.057 75.1592 630.061 75.2222C630.061 75.2222 630.061 75.2222 630.061 75.2803C630.061 75.3384 630.061 75.3602 630.061 75.4038V75.4692C630.057 75.503 630.057 75.5371 630.061 75.5709V75.6363C630.062 75.6556 630.062 75.675 630.061 75.6944L630.105 75.7525L630.523 76.3265C630.496 76.2894 630.472 76.2506 630.45 76.2102V76.1448C630.436 76.1117 630.423 76.0777 630.413 76.0431V75.9777C630.413 75.9341 630.413 75.8978 630.413 75.8542C630.413 75.8106 630.413 75.8542 630.413 75.7961C630.358 75.7677 630.304 75.7361 630.252 75.7017Z" fill="#0B64C5"/>
<path d="M635.115 74.2994L635.637 74.2631H635.703C635.935 74.2527 636.165 74.3028 636.371 74.4084C636.517 74.4862 636.642 74.5955 636.739 74.7281L636.32 74.1614C636.224 74.0267 636.098 73.915 635.953 73.8345C635.746 73.731 635.515 73.6834 635.284 73.6964H635.218H634.696L634.41 73.74L634.829 74.314L635.115 74.2994Z" fill="#0B64C5"/>
<path d="M631.398 78.5278H631.471L631.684 78.4842H631.736L631.993 78.4115H632.059L632.257 78.3316H632.323L632.573 78.2081H632.617L632.749 78.1282L632.808 78.0846L632.911 78.0192L633.058 77.903L633.161 77.8231L633.212 77.7795L633.367 77.6342L633.521 77.4743L633.565 77.4235L633.646 77.3363L633.734 77.22L633.778 77.1692C633.82 77.1194 633.857 77.0659 633.888 77.0094C633.919 76.9659 633.946 76.9197 633.969 76.8713L634.013 76.7914V76.7405C634.014 76.7139 634.014 76.6873 634.013 76.6606C634.016 76.6438 634.016 76.6266 634.013 76.6098V76.5662V76.479C634.016 76.4598 634.016 76.4401 634.013 76.4209V76.3264V76.1375V76.0939C634.017 76.0359 634.017 75.9776 634.013 75.9196C634.017 75.8518 634.017 75.7839 634.013 75.7162V75.658C634.013 75.5926 634.013 75.5273 634.013 75.4546C634.021 75.3628 634.021 75.2704 634.013 75.1785V71.7712C634.013 71.6912 634.013 71.6113 634.013 71.5387C634.017 71.4685 634.017 71.3982 634.013 71.328C634 71.26 633.978 71.194 633.947 71.1318C633.92 71.0668 633.888 71.0036 633.851 70.9429L633.785 70.8412L633.367 70.2745L633.433 70.3762C633.469 70.4345 633.501 70.4952 633.528 70.5579C633.528 70.6233 633.58 70.6887 633.594 70.754C633.617 70.8225 633.632 70.8931 633.638 70.9647C633.638 71.0446 633.638 71.1173 633.638 71.1972V74.6046C633.647 74.6964 633.647 74.7888 633.638 74.8807C633.638 74.9533 633.638 75.0187 633.638 75.0841V75.1422C633.642 75.21 633.642 75.2779 633.638 75.3456C633.642 75.4037 633.642 75.4619 633.638 75.52V75.5636V75.7525C633.638 75.7525 633.638 75.7525 633.638 75.7961V75.8905C633.643 75.9097 633.643 75.9295 633.638 75.9486V76.0358C633.643 76.0599 633.643 76.0844 633.638 76.1085C633.639 76.1254 633.639 76.1424 633.638 76.1593L633.602 76.2392V76.2901L633.55 76.3846V76.4281L633.462 76.5662C633.462 76.617 633.389 76.6679 633.352 76.7188L633.308 76.7696L633.22 76.8858L633.124 76.9876L633.08 77.0384L632.926 77.1983L632.713 77.3871C632.684 77.4176 632.652 77.4444 632.617 77.4671L632.47 77.5833C632.433 77.6033 632.399 77.6277 632.367 77.656L632.169 77.7722L631.919 77.8957H631.853L631.647 77.9829H631.589L631.331 78.0628H631.28L631.067 78.1064H630.994C630.905 78.1064 630.825 78.1064 630.736 78.1064C630 78.1683 629.278 77.8763 628.797 77.3218L628.709 77.2055L629.127 77.7795L629.216 77.8957C629.701 78.4444 630.42 78.7351 631.155 78.6803L631.398 78.5278Z" fill="#0B64C5"/>
<path d="M639.119 75.6581C639.116 75.617 639.116 75.5757 639.119 75.5346V75.4329C639.123 75.3918 639.123 75.3505 639.119 75.3094V75.2077C639.116 75.1666 639.116 75.1253 639.119 75.0842C639.116 75.0528 639.116 75.0211 639.119 74.9897C639.119 74.9461 639.119 74.9025 639.119 74.8589V74.7645C639.11 74.72 639.098 74.6763 639.083 74.6337V74.5538L639.024 74.4085V74.3358L638.928 74.1324L638.502 73.5585C638.539 73.6239 638.568 73.6965 638.598 73.7619C638.599 73.7861 638.599 73.8104 638.598 73.8345C638.618 73.8818 638.635 73.9303 638.649 73.9799C638.652 74.0088 638.652 74.0381 638.649 74.067C638.652 74.1106 638.652 74.1543 638.649 74.1978V74.285C638.649 74.3286 638.649 74.3722 638.649 74.4158C638.649 74.4594 638.649 74.4811 638.649 74.5102V74.6337V74.7354C638.653 74.7765 638.653 74.8178 638.649 74.8589V74.9607C638.646 75.0017 638.646 75.0431 638.649 75.0842C638.649 75.0842 638.649 75.1495 638.649 75.1859V75.3384L638.605 75.5564V75.629L638.561 75.7744V75.8397C638.561 75.8906 638.561 75.9342 638.509 75.9778C638.507 76.0043 638.507 76.0311 638.509 76.0577L638.443 76.1885L638.399 76.2611L638.318 76.3992C638.32 76.4185 638.32 76.4379 638.318 76.4573L638.194 76.6316L638.039 76.8205C637.979 76.8918 637.916 76.9597 637.848 77.024L632.889 81.8844L632.794 81.9643L632.742 82.0079L632.661 82.066H632.617H632.573L632.426 82.1459H632.375L632.191 82.2186L632.022 82.2622H631.971C631.907 82.2657 631.843 82.2657 631.78 82.2622C631.239 82.2904 630.719 82.0473 630.398 81.6156L630.817 82.1822C631.136 82.6178 631.656 82.864 632.198 82.8361H632.389H632.441H632.61L632.801 82.7562H632.845L632.992 82.6763H633.043L633.117 82.6181L633.168 82.5746H633.22L633.264 82.5237L638.223 77.6706C638.29 77.6063 638.354 77.5384 638.414 77.4671L638.561 77.2855C638.602 77.2352 638.639 77.1817 638.671 77.1257L638.708 77.0676L638.789 76.9295L638.833 76.8569C638.829 76.8328 638.829 76.8083 638.833 76.7842C638.829 76.765 638.829 76.7453 638.833 76.7261C638.83 76.6995 638.83 76.6727 638.833 76.6462L638.884 76.5081C638.885 76.4839 638.885 76.4597 638.884 76.4355C638.884 76.3992 638.884 76.3556 638.884 76.312V76.2466C638.884 76.1739 638.884 76.1013 638.928 76.0286C638.972 75.956 638.928 75.985 638.928 75.956C638.932 75.9295 638.932 75.9026 638.928 75.8761C638.928 75.8761 639.112 75.6872 639.119 75.6581Z" fill="#0B64C5"/>
<path d="M625.586 75.6798L626.012 76.2537L625.594 75.6798" fill="#9A7D7C"/>
<path d="M625.652 75.7671L626.078 76.341L626.012 76.2539L625.586 75.6799L625.652 75.7671Z" fill="#957978"/>
<path d="M638.186 73.2533L638.605 73.8272C638.649 73.8926 638.7 73.958 638.745 74.0307L638.318 73.4567C638.282 73.3913 638.23 73.3187 638.186 73.2533Z" fill="#B89695"/>
<path d="M638.318 73.4567L638.745 74.0307C638.761 74.0661 638.781 74.1001 638.803 74.1324L638.377 73.5584C638.36 73.523 638.341 73.489 638.318 73.4567Z" fill="#BD9A99"/>
<path d="M630.252 81.7608L630.67 82.3275L630.56 82.1895L630.141 81.6155L630.252 81.7608Z" fill="#957978"/>
<path d="M632.948 76.9513C633.653 76.3933 633.994 75.4988 633.837 74.6191C633.845 74.5273 633.845 74.4349 633.837 74.3431V70.9357C633.844 70.4964 633.678 70.0715 633.374 69.7515C633.071 69.4407 632.663 69.2496 632.228 69.2139C632.074 69.1994 631.919 69.1994 631.765 69.2139C631.439 69.2339 631.119 69.3076 630.817 69.4318C630.345 69.6142 629.918 69.8969 629.568 70.26L625.946 73.8926C625.404 74.3492 625.258 75.1174 625.594 75.738L625.66 75.8252L630.45 71.0374C630.601 70.8812 630.784 70.7575 630.986 70.6742C631.097 70.632 631.213 70.6075 631.331 70.6015C631.412 70.5942 631.493 70.5942 631.574 70.6015C631.752 70.6288 631.916 70.7161 632.037 70.8485C632.149 70.9879 632.202 71.1652 632.184 71.3425L632.125 74.6773C632.125 74.6773 632.125 74.8444 632.125 74.9751C632.176 75.2984 632.06 75.6254 631.816 75.847C631.574 76.0944 631.252 76.2488 630.905 76.2829C630.609 76.31 630.317 76.1988 630.115 75.9823C629.913 75.7657 629.825 75.4685 629.877 75.1786C629.92 74.8586 630.07 74.5621 630.303 74.3358C630.535 74.0951 630.865 73.9721 631.199 74.0016H631.552H631.633L631.677 72.4759H631.39C630.588 72.4558 629.82 72.7981 629.304 73.4059C628.771 73.9265 628.419 74.6004 628.297 75.3311C628.18 76.0116 628.362 76.7092 628.797 77.2491C629.278 77.8037 630 78.0957 630.736 78.0338C631.584 77.9559 632.371 77.5702 632.948 76.9513Z" fill="#D4F7FF"/>
<path d="M638.377 73.5584C638.089 73.0347 637.646 72.6111 637.106 72.3452C636.597 72.1014 636.033 71.9913 635.468 72.0255H635.343L634.829 72.0764L634.329 72.1272L634.41 73.7546L634.696 73.711H635.218H635.306C635.537 73.698 635.768 73.7456 635.975 73.8491C636.186 73.9684 636.355 74.1483 636.46 74.3649C636.568 74.5912 636.599 74.8462 636.548 75.0914C636.496 75.3485 636.359 75.5812 636.158 75.7525L630.163 81.6155L630.274 81.7608C630.594 82.1926 631.114 82.4357 631.655 82.4074C632.08 82.3775 632.481 82.1999 632.786 81.9061L637.745 77.0457C638.229 76.5858 638.557 75.9896 638.686 75.3384C638.786 74.7277 638.678 74.1012 638.377 73.5584Z" fill="#D4F7FF"/>
</g>
<g opacity="0.75">
<path d="M604.315 69.7907H604.388C606.183 69.1436 607.653 67.8202 608.482 66.1042C609.17 64.7421 609.575 63.2551 609.672 61.7327C609.76 60.4276 609.671 59.1165 609.409 57.8349C609.156 56.5972 608.757 55.3939 608.219 54.2503C607.669 53.0703 606.964 51.968 606.125 50.9717C605.185 49.7934 604.022 48.8107 602.703 48.0793C600.908 47.0665 598.773 46.8423 596.806 47.46H596.733L592.443 48.9172L592.34 51.9043C591.836 53.1652 591.552 54.5034 591.501 55.8604C591.451 57.1597 591.569 58.4599 591.852 59.7292C591.979 60.2911 592.138 60.8456 592.326 61.3903C592.546 62.0387 592.809 62.6716 593.114 63.2846C593.695 64.4607 594.431 65.5537 595.303 66.534C596.127 67.464 597.092 68.2582 598.164 68.8873L600.076 71.1896L604.315 69.7907Z" fill="#003D97"/>
<path d="M592.195 51.642L602.703 48.0793C600.908 47.0665 598.773 46.8423 596.806 47.46H596.733L592.443 48.9172L592.195 51.642Z" fill="#05398C"/>
<path d="M604.315 69.7907H604.388C606.183 69.1436 607.653 67.8202 608.482 66.1041L598.324 69.543L600.032 71.2478L604.315 69.7907Z" fill="#1D75E0"/>
<path d="M591.45 55.8969L606.125 50.8916C605.177 49.7422 604.015 48.7871 602.703 48.0793L592.195 51.6348L592.297 51.9335C591.792 53.1944 591.508 54.5326 591.457 55.8896L591.45 55.8969Z" fill="#084694"/>
<path d="M591.801 59.7729L608.22 54.1775C607.669 52.9975 606.964 51.8952 606.125 50.8989L591.465 55.8969C591.415 57.1962 591.533 58.4964 591.815 59.7656L591.801 59.7729Z" fill="#104D97"/>
<path d="M593.063 63.3429L609.409 57.7766C609.156 56.5389 608.757 55.3356 608.219 54.192L591.801 59.7874C591.928 60.3494 592.086 60.9039 592.275 61.4486C592.495 62.097 592.758 62.7299 593.063 63.3429Z" fill="#0C59AE"/>
<path d="M595.252 66.5923L609.672 61.6745C609.76 60.3693 609.671 59.0582 609.409 57.7766L593.063 63.3429C593.644 64.5191 594.38 65.612 595.252 66.5923Z" fill="#0B64C5"/>
<path d="M598.324 69.543L608.489 66.075C609.177 64.713 609.582 63.226 609.679 61.7036L595.252 66.6215C596.076 67.5515 597.041 68.3457 598.113 68.9748L598.324 69.543Z" fill="#1572CD"/>
<ellipse cx="596.184" cy="60.1004" rx="9.38277" ry="11.7902" transform="rotate(-18.84 596.184 60.1004)" fill="url(#paint18_linear_22_46626)"/>
<path d="M599.995 71.2261C600.647 70.9907 601.263 70.6671 601.827 70.2644C602.391 69.8617 602.901 69.3892 603.345 68.8582C604.226 67.7901 604.872 66.549 605.242 65.2154C605.619 63.8874 605.777 62.5068 605.709 61.1281C605.573 58.3604 604.661 55.6867 603.075 53.4125C602.281 52.2918 601.31 51.3076 600.2 50.4982C599.095 49.6627 597.823 49.0738 596.471 48.7715C595.796 48.6174 595.104 48.5537 594.413 48.5821C593.72 48.6108 593.033 48.7283 592.37 48.9318C593.696 48.4682 595.122 48.3675 596.5 48.6404C597.88 48.9206 599.183 49.4919 600.324 50.3161C601.456 51.1379 602.442 52.1426 603.243 53.2887C604.053 54.4361 604.696 55.6919 605.155 57.0189C605.62 58.3526 605.891 59.7464 605.957 61.1572C606.025 62.5605 605.853 63.965 605.447 65.3101C605.04 66.6494 604.359 67.8899 603.447 68.9529C602.522 70.0066 601.33 70.7918 599.995 71.2261Z" fill="#67C4FB"/>
<path d="M603.834 57.4706C602.946 54.7587 601.14 52.4402 598.726 50.9135C595.96 49.2305 593.749 49.5948 592.676 49.9591C591.603 50.3233 589.626 51.4162 588.466 54.4106C586.582 59.9568 588.68 66.0739 593.574 69.3026C596.339 70.9856 598.551 70.6286 599.623 70.2571C600.696 69.8855 602.673 68.7999 603.834 65.8128C604.808 63.1172 604.808 60.1662 603.834 57.4706Z" fill="url(#paint19_linear_22_46626)"/>
<path d="M598.747 50.8843C597.98 50.4562 597.158 50.135 596.303 49.9299C595.457 49.7421 594.582 49.7174 593.727 49.8571C593.3 49.9327 592.884 50.0574 592.486 50.2286C592.098 50.3972 591.728 50.6073 591.385 50.8552C590.694 51.3564 590.102 51.9815 589.64 52.6985C589.183 53.4197 588.825 54.199 588.575 55.0153C588.326 55.8282 588.169 56.6665 588.108 57.5143C588.052 58.3702 588.084 59.2295 588.203 60.0789C588.332 60.9425 588.545 61.7916 588.838 62.6144C589.121 63.4257 589.475 64.2107 589.896 64.9604C590.321 65.6809 590.815 66.3591 591.37 66.9858C591.94 67.6253 592.581 68.1973 593.282 68.6906C593.981 69.1829 594.741 69.5821 595.544 69.8782C596.349 70.165 597.2 70.2984 598.054 70.2716C598.478 70.261 598.899 70.2023 599.309 70.0968C599.722 69.9859 600.121 69.8295 600.499 69.6305C601.264 69.2224 601.941 68.6678 602.491 67.9985C603.04 67.3147 603.494 66.5599 603.841 65.7545C603.558 66.5962 603.152 67.3916 602.637 68.1151C602.107 68.8422 601.437 69.4564 600.667 69.9219C600.272 70.1506 599.853 70.3362 599.419 70.4756C598.981 70.6051 598.531 70.6881 598.076 70.7234C597.163 70.7814 596.246 70.6652 595.376 70.3809C593.649 69.7949 592.104 68.7735 590.888 67.4156C588.45 64.6866 587.221 61.0892 587.48 57.4415C587.609 55.6204 588.208 53.8635 589.217 52.3415C589.732 51.5863 590.385 50.936 591.144 50.4253C591.526 50.1745 591.934 49.9668 592.362 49.8061C592.788 49.6457 593.232 49.5357 593.683 49.4782C594.58 49.3776 595.487 49.4543 596.354 49.7041C597.206 49.9768 598.013 50.3746 598.747 50.8843Z" fill="#0C59AE"/>
<path d="M591.545 60.334V60.283C591.542 60.2515 591.542 60.2198 591.545 60.1883C591.542 60.1544 591.542 60.1202 591.545 60.0863C591.545 60.0863 591.545 60.0863 591.545 60.0426V59.8968C591.527 59.7834 591.527 59.6678 591.545 59.5544C591.565 59.4746 591.592 59.3966 591.625 59.3213C591.693 59.1593 591.818 59.0274 591.976 58.9497L591.319 59.1901C591.162 59.266 591.038 59.3952 590.969 59.5544C590.937 59.6302 590.91 59.7081 590.888 59.7876C590.87 59.9034 590.87 60.0214 590.888 60.1373V60.2757C590.887 60.2927 590.887 60.3097 590.888 60.3267V60.4068C590.885 60.4213 590.885 60.4362 590.888 60.4506C590.885 60.4821 590.885 60.5138 590.888 60.5453V60.589C590.903 60.622 590.92 60.6537 590.939 60.6837L594.26 66.4613L594.916 66.2136L591.611 60.4287C591.585 60.3997 591.563 60.3679 591.545 60.334Z" fill="#0B64C5"/>
<path d="M595.405 62.1262H595.332H595.281H595.23H595.186H595.15L595.019 62.0242C594.976 61.9891 594.937 61.9501 594.902 61.9077L594.8 61.7765L594.734 61.6745C594.734 61.6308 594.69 61.5944 594.676 61.558C594.66 61.5227 594.648 61.4861 594.639 61.4487V61.3612C594.636 61.3395 594.636 61.3174 594.639 61.2957C594.635 61.2642 594.635 61.2324 594.639 61.201C594.639 61.201 594.639 61.1354 594.639 61.1062C594.639 61.1062 594.639 61.0552 594.639 61.0261V60.9095C594.639 60.9095 594.683 60.6982 594.712 60.5744C594.741 60.4505 594.712 60.4942 594.712 60.4651L593.253 60.028L592.596 60.2684L594.055 60.7128V60.8148L593.982 61.1572V61.2665C593.982 61.2665 593.982 61.3175 593.982 61.3467C593.982 61.3831 593.982 61.4122 593.982 61.4487C593.979 61.4802 593.979 61.5119 593.982 61.5434C593.979 61.5675 593.979 61.5921 593.982 61.6162V61.711C593.978 61.7448 593.978 61.7791 593.982 61.813L594.026 61.8931L594.092 61.9951C594.122 62.0442 594.156 62.0905 594.194 62.1335L594.311 62.2428L594.442 62.3448H594.486H594.537H594.588H594.639L594.822 62.4031H594.88H594.997H595.172H595.245H595.405H595.478L596.135 62.1554H596.004H595.931H595.756H595.632H595.581C595.521 62.1528 595.462 62.143 595.405 62.1262Z" fill="#0B64C5"/>
<path d="M595.347 57.1793L595.449 56.6693C595.446 56.65 595.446 56.6303 595.449 56.611C595.494 56.3895 595.6 56.1851 595.756 56.0208C595.869 55.9023 596.009 55.8124 596.164 55.7585L595.508 55.999C595.352 56.0528 595.212 56.1427 595.099 56.2613C594.943 56.4282 594.837 56.635 594.792 56.8587C594.792 56.8587 594.792 56.8951 594.792 56.917L594.69 57.4197V57.6965L595.347 57.4561V57.1793Z" fill="#0B64C5"/>
<path d="M598.412 61.7984C598.412 61.7984 598.412 61.7474 598.412 61.7255C598.412 61.7037 598.412 61.5798 598.412 61.5069V61.4632C598.412 61.3758 598.412 61.2884 598.412 61.2009C598.412 61.1135 598.412 61.1572 598.412 61.1354V60.9168C598.412 60.9168 598.412 60.8731 598.412 60.8512C598.412 60.8294 598.412 60.6691 598.361 60.5817C598.358 60.5673 598.358 60.5523 598.361 60.5379L598.317 60.3849V60.3194L598.273 60.2028L598.208 60.0352L598.149 59.9187V59.8604L598.047 59.6782L597.938 59.4888L597.901 59.4305L597.835 59.3358L597.748 59.2192L597.711 59.1682C597.668 59.1172 597.631 59.0662 597.587 59.0225L597.485 58.9059H597.449L597.383 58.8477H597.339L597.274 58.7894H597.222H597.186L597.106 58.7457H597.062C597.036 58.7254 597.006 58.7106 596.974 58.7019C596.921 58.6738 596.865 58.6518 596.806 58.6364H596.763L596.595 58.5854L596.398 58.5344H596.347L596.15 58.4834L595.88 58.4178L592.486 57.2521L592.26 57.2084H592.049H592.005H591.808H591.611H591.501L590.845 57.4488H590.961L591.158 57.4051H591.195H591.392H591.436H591.647C591.724 57.4126 591.8 57.4273 591.874 57.4488L595.121 58.3522L595.391 58.4251L595.588 58.4688H595.639L595.836 58.5125L596.004 58.5635H596.048L596.215 58.6291H596.259L596.347 58.6728H596.391C596.42 58.6854 596.447 58.7026 596.471 58.7238L596.536 58.7602H596.58L596.646 58.8112H596.69L596.763 58.8841H596.799L596.901 59.0007L597.025 59.1537L597.062 59.2047L597.149 59.3212L597.222 59.4305C597.232 59.4515 597.244 59.4711 597.259 59.4888L597.368 59.6782C597.419 59.7657 597.456 59.8458 597.5 59.9259C597.514 59.9661 597.531 60.0051 597.551 60.0425L597.595 60.4287L597.638 60.5452L597.704 60.7565C597.7 60.7732 597.7 60.7908 597.704 60.8075C597.704 60.8949 597.704 60.9824 597.755 61.0771C597.806 61.1718 597.755 61.1208 597.755 61.1427V61.3539C597.755 61.3539 597.755 61.3977 597.755 61.4195C597.755 61.4414 597.755 61.5944 597.755 61.6818V61.7328C597.755 61.8057 597.755 61.8785 597.755 61.9514C597.752 61.9731 597.752 61.9952 597.755 62.0169L597.711 62.2719C597.572 62.9807 597.103 63.5811 596.449 63.8894L596.318 63.9404L596.974 63.6999L597.106 63.6417C597.76 63.3334 598.229 62.733 598.368 62.0242C598.39 61.9659 598.405 61.8858 598.412 61.7984Z" fill="#0B64C5"/>
<path d="M597.689 53.7622H597.573H597.478H597.361H597.259H597.142H597.04H596.595H596.449H596.369H596.15L595.493 54.0026L595.719 53.9662H596.383H596.485H596.602H596.704H596.821H596.916L597.033 54.0026L597.128 54.0463L597.266 54.1046L597.463 54.2066L597.522 54.2431L597.653 54.3232L597.711 54.3669L597.828 54.4543L597.894 54.5126L597.996 54.6073L598.062 54.6656L598.171 54.7822L598.215 54.8332C598.265 54.8832 598.311 54.9368 598.353 54.9935L598.492 55.1902C598.545 55.2652 598.594 55.343 598.638 55.4233L601.973 61.3976L602.024 61.5069V61.5725L602.06 61.6599C602.06 61.6599 602.06 61.6599 602.06 61.7182C602.06 61.7765 602.06 61.7182 602.06 61.7619L602.104 61.9222C602.104 61.9222 602.104 61.9222 602.104 61.9732C602.108 62.0387 602.108 62.1044 602.104 62.1699V62.3594C602.101 62.3762 602.101 62.3935 602.104 62.4103C602.108 62.4734 602.108 62.5367 602.104 62.5998C601.99 63.1193 601.619 63.545 601.119 63.7291L601.776 63.4886C602.274 63.3023 602.645 62.8776 602.761 62.3594C602.761 62.2938 602.761 62.2282 602.761 62.1699C602.757 62.1531 602.757 62.1357 602.761 62.1189V61.9222V61.7255C602.761 61.7255 602.761 61.7255 602.761 61.6818L602.717 61.5142V61.4705C602.714 61.4512 602.714 61.4315 602.717 61.4122L602.681 61.3248C602.681 61.3248 602.681 61.3248 602.681 61.2665V61.2082C602.678 61.1913 602.678 61.1741 602.681 61.1572L599.339 55.1975C599.295 55.1173 599.244 55.0445 599.193 54.9643L599.061 54.7749C599.018 54.7312 598.981 54.6802 598.937 54.6292L598.893 54.5782L598.784 54.4616L598.718 54.4106L598.667 54.3523L598.616 54.3086L598.55 54.2576L598.434 54.1702L598.375 54.1265L598.266 54.0609L598.208 54.0172L598.01 53.9152H597.952H597.872L597.689 53.7622Z" fill="#0B64C5"/>
<path d="M594.179 66.5196L594.836 66.2791L594.179 66.5268" fill="#9A7D7C"/>
<path d="M594.274 66.4831L594.931 66.2354L594.836 66.2791L594.179 66.5195L594.274 66.4831Z" fill="#957978"/>
<path d="M595.15 54.0099L595.807 53.7622L596.04 53.6894L595.384 53.9298L595.15 54.0099Z" fill="#B89695"/>
<path d="M595.405 53.9298L596.062 53.6894H596.172L595.515 53.9298H595.405Z" fill="#BD9A99"/>
<path d="M601.192 63.7291L601.849 63.4886L601.688 63.5542L601.032 63.7946L601.192 63.7291Z" fill="#957978"/>
<path d="M597.31 59.9186C596.962 59.1061 596.199 58.5475 595.318 58.4615L595.048 58.3886L591.801 57.5143C591.383 57.3881 590.932 57.4299 590.545 57.6309C590.173 57.8447 589.885 58.1788 589.728 58.578C589.665 58.7052 589.612 58.8367 589.568 58.9715C589.513 59.2848 589.513 59.6053 589.568 59.9186C589.617 60.4137 589.777 60.8916 590.035 61.3175L592.516 65.6889C592.805 66.3293 593.511 66.6724 594.194 66.5049H594.289L590.969 60.7273C590.86 60.5444 590.79 60.341 590.764 60.1299C590.746 60.014 590.746 59.896 590.764 59.7802C590.786 59.7007 590.812 59.6228 590.845 59.547C590.914 59.3878 591.038 59.2586 591.195 59.1828C591.358 59.1131 591.543 59.1131 591.706 59.1828L594.873 60.1153L595.157 60.2028C595.472 60.2478 595.744 60.4437 595.887 60.7273C596.056 61.0203 596.118 61.3628 596.062 61.6963C596.014 61.9841 595.832 62.2322 595.572 62.3656C595.312 62.499 595.004 62.5021 594.741 62.3739C594.432 62.2576 594.173 62.0357 594.012 61.7473C593.84 61.4667 593.807 61.1224 593.924 60.8148L593.997 60.4723V60.3703L592.538 59.9259L592.486 60.21C592.27 60.9543 592.399 61.756 592.837 62.3958C593.189 63.0404 593.742 63.5522 594.413 63.8529C595.036 64.1291 595.746 64.1291 596.369 63.8529C597.023 63.5446 597.492 62.9443 597.631 62.2355C597.804 61.4496 597.69 60.6282 597.31 59.9186Z" fill="#D4F7FF"/>
<path d="M595.493 53.8715C594.929 54.0137 594.421 54.3207 594.034 54.7531C593.672 55.1699 593.421 55.6711 593.304 56.2102V56.3341L593.216 56.8295L593.136 57.3177L594.712 57.6674V57.3905L594.814 56.8878C594.814 56.8878 594.814 56.8441 594.814 56.8295C594.859 56.6059 594.965 56.3991 595.121 56.2321C595.289 56.0626 595.506 55.9504 595.741 55.9115C595.989 55.8675 596.245 55.9033 596.471 56.0135C596.703 56.1335 596.89 56.3252 597.004 56.5599L601.061 63.7655L601.221 63.6999C601.699 63.5163 602.056 63.1108 602.177 62.6144C602.263 62.2048 602.198 61.778 601.995 61.4122L598.653 55.4598C598.339 54.8818 597.855 54.4139 597.266 54.1192C596.719 53.8442 596.095 53.7572 595.493 53.8715Z" fill="#D4F7FF"/>
</g>
<path d="M142.72 96H154.12V72L164.8 88.32H165.04L175.78 71.88V96H187.36V54H175.06L165.04 70.26L155.02 54H142.72V96Z" fill="white"/>
<path d="M194.81 96H210.77C225.89 96 234.71 87 234.71 74.88V74.76C234.71 62.64 226.01 54 211.01 54H194.81V96ZM206.45 85.68V64.32H211.19C218.15 64.32 222.77 68.22 222.77 74.94V75.06C222.77 81.84 218.15 85.68 211.19 85.68H206.45Z" fill="white"/>
<path d="M240.689 96H274.769V86.1H252.209V79.44H272.369V70.26H252.209V63.9H274.469V54H240.689V96Z" fill="white"/>
<path d="M277.648 96H290.728L298.828 83.34L306.868 96H320.248L305.848 74.52L319.648 54H306.568L299.068 65.82L291.628 54H278.248L292.048 74.64L277.648 96Z" fill="white"/>
<defs>
<linearGradient id="paint0_linear_22_46626" x1="846.918" y1="214.381" x2="846.918" y2="2.04389" gradientUnits="userSpaceOnUse">
<stop stop-color="#112458"/>
<stop offset="1" stop-color="#08276B"/>
</linearGradient>
<linearGradient id="paint1_linear_22_46626" x1="529.727" y1="84.672" x2="529.727" y2="23" gradientUnits="userSpaceOnUse">
<stop stop-color="#082566"/>
<stop offset="1" stop-color="#0A3799"/>
</linearGradient>
<linearGradient id="paint2_linear_22_46626" x1="437.175" y1="150.462" x2="599.825" y2="150.462" gradientUnits="userSpaceOnUse">
<stop stop-color="#FF914F"/>
<stop offset="0.440184" stop-color="#FF773A" stop-opacity="0.205372"/>
<stop offset="1" stop-color="#FF6930" stop-opacity="0.01"/>
</linearGradient>
<linearGradient id="paint3_linear_22_46626" x1="486.895" y1="215.685" x2="539.105" y2="215.685" gradientUnits="userSpaceOnUse">
<stop stop-color="#35FFE3"/>
<stop offset="1" stop-color="#35FFE3" stop-opacity="0.01"/>
</linearGradient>
<linearGradient id="paint4_linear_22_46626" x1="455.269" y1="215.322" x2="534.731" y2="215.322" gradientUnits="userSpaceOnUse">
<stop stop-color="#FF914F"/>
<stop offset="0.27" stop-color="#FF914F" stop-opacity="0.99"/>
<stop offset="0.4" stop-color="#FF8F4E" stop-opacity="0.96"/>
<stop offset="0.51" stop-color="#FF8D4C" stop-opacity="0.91"/>
<stop offset="0.6" stop-color="#FF8A4A" stop-opacity="0.83"/>
<stop offset="0.69" stop-color="#FF8647" stop-opacity="0.74"/>
<stop offset="0.76" stop-color="#FF8243" stop-opacity="0.62"/>
<stop offset="0.83" stop-color="#FF7C3F" stop-opacity="0.48"/>
<stop offset="0.9" stop-color="#FF753A" stop-opacity="0.31"/>
<stop offset="0.96" stop-color="#FF6E34" stop-opacity="0.13"/>
<stop offset="1" stop-color="#FF6930" stop-opacity="0.01"/>
</linearGradient>
<linearGradient id="paint5_linear_22_46626" x1="694.917" y1="215.756" x2="740.083" y2="215.756" gradientUnits="userSpaceOnUse">
<stop stop-color="#35FFE3" stop-opacity="0.01"/>
<stop offset="1" stop-color="#35FFE3"/>
</linearGradient>
<linearGradient id="paint6_linear_22_46626" x1="696.269" y1="215.307" x2="778.731" y2="215.307" gradientUnits="userSpaceOnUse">
<stop stop-color="#FF6930" stop-opacity="0.01"/>
<stop offset="0.04" stop-color="#FF6E34" stop-opacity="0.13"/>
<stop offset="0.1" stop-color="#FF753A" stop-opacity="0.31"/>
<stop offset="0.17" stop-color="#FF7C3F" stop-opacity="0.48"/>
<stop offset="0.24" stop-color="#FF8243" stop-opacity="0.62"/>
<stop offset="0.31" stop-color="#FF8647" stop-opacity="0.74"/>
<stop offset="0.4" stop-color="#FF8A4A" stop-opacity="0.83"/>
<stop offset="0.49" stop-color="#FF8D4C" stop-opacity="0.91"/>
<stop offset="0.6" stop-color="#FF8F4E" stop-opacity="0.96"/>
<stop offset="0.73" stop-color="#FF914F" stop-opacity="0.99"/>
<stop offset="1" stop-color="#FF914F"/>
</linearGradient>
<linearGradient id="paint7_linear_22_46626" x1="641.177" y1="95.4687" x2="788.823" y2="95.4687" gradientUnits="userSpaceOnUse">
<stop stop-color="#2BCBB4" stop-opacity="0.01"/>
<stop offset="0.756255" stop-color="#2BCBB4" stop-opacity="0.5"/>
<stop offset="1" stop-color="#2BCBB4"/>
</linearGradient>
<linearGradient id="paint8_linear_22_46626" x1="536" y1="199.482" x2="696.451" y2="199.482" gradientUnits="userSpaceOnUse">
<stop stop-color="#4443F4"/>
<stop stop-color="#1172C1"/>
<stop offset="0.99" stop-color="#09326D"/>
</linearGradient>
<linearGradient id="paint9_linear_22_46626" x1="663.004" y1="170" x2="663.004" y2="4" gradientUnits="userSpaceOnUse">
<stop stop-color="#00FFDA" stop-opacity="0.2"/>
<stop offset="1" stop-color="white" stop-opacity="0.01"/>
</linearGradient>
<linearGradient id="paint10_linear_22_46626" x1="617.739" y1="148.122" x2="648.223" y2="155.573" gradientUnits="userSpaceOnUse">
<stop stop-color="#4ABAFD"/>
<stop offset="1" stop-color="#116DDA"/>
</linearGradient>
<linearGradient id="paint11_linear_22_46626" x1="660.422" y1="118.5" x2="630.469" y2="113.2" gradientUnits="userSpaceOnUse">
<stop stop-color="#0A5ED0"/>
<stop offset="1" stop-color="#2CA2F9"/>
</linearGradient>
<linearGradient id="paint12_linear_22_46626" x1="613.305" y1="94.199" x2="579.977" y2="94.199" gradientUnits="userSpaceOnUse">
<stop stop-color="#4ABAFD"/>
<stop offset="1" stop-color="#116DDA"/>
</linearGradient>
<linearGradient id="paint13_linear_22_46626" x1="590.902" y1="90.3716" x2="579.157" y2="112.934" gradientUnits="userSpaceOnUse">
<stop stop-color="#2CA2F9"/>
<stop offset="1" stop-color="#0A5ED0"/>
</linearGradient>
<linearGradient id="paint14_linear_22_46626" x1="637.037" y1="26.4651" x2="620.612" y2="26.4651" gradientUnits="userSpaceOnUse">
<stop stop-color="#4ABAFD"/>
<stop offset="1" stop-color="#116DDA"/>
</linearGradient>
<linearGradient id="paint15_linear_22_46626" x1="626.064" y1="24.4956" x2="620.196" y2="35.5483" gradientUnits="userSpaceOnUse">
<stop stop-color="#2CA2F9"/>
<stop offset="1" stop-color="#0A5ED0"/>
</linearGradient>
<linearGradient id="paint16_linear_22_46626" x1="616.437" y1="73.5548" x2="620.931" y2="88.5002" gradientUnits="userSpaceOnUse">
<stop stop-color="#116DDA"/>
<stop offset="1" stop-color="#4ABAFD"/>
</linearGradient>
<linearGradient id="paint17_linear_22_46626" x1="619.644" y1="86.2391" x2="641.272" y2="85.5852" gradientUnits="userSpaceOnUse">
<stop stop-color="#0A5ED0"/>
<stop offset="1" stop-color="#2CA2F9"/>
</linearGradient>
<linearGradient id="paint18_linear_22_46626" x1="586.804" y1="48.3175" x2="586.804" y2="71.8907" gradientUnits="userSpaceOnUse">
<stop stop-color="#4ABAFD"/>
<stop offset="1" stop-color="#116DDA"/>
</linearGradient>
<linearGradient id="paint19_linear_22_46626" x1="586.406" y1="55.1976" x2="594.684" y2="71.1775" gradientUnits="userSpaceOnUse">
<stop stop-color="#2CA2F9"/>
<stop offset="1" stop-color="#0A5ED0"/>
</linearGradient>
</defs>
</svg>
