<svg width="860" height="219" viewBox="0 0 860 219" fill="none" xmlns="http://www.w3.org/2000/svg">
<rect width="860" height="219" rx="40" fill="url(#paint0_linear_690_53740)"/>
<path opacity="0.667528" fill-rule="evenodd" clip-rule="evenodd" d="M363.693 85C345.932 85 332.739 71.3835 332.739 54.1669V54C332.739 36.9576 345.676 23 364.212 23C375.6 23 382.412 26.767 388.011 32.247L379.561 41.9223C374.906 37.727 370.162 35.1576 364.125 35.1576C353.95 35.1576 346.619 43.5481 346.619 53.8258V54C346.619 64.2777 353.782 72.8715 364.125 72.8715C371.024 72.8715 375.249 70.1351 379.993 65.8527L388.442 74.2796C382.237 80.8846 375.337 85 363.693 85ZM98.166 44.8328V83.9693H111.388V24.0234H97.077L81.2088 49.3765L65.3406 24.0234H51V83.9693H64.0249V45.0941L80.836 70.4399H81.1795L98.166 44.8328ZM125.853 83.9693H149.396C168.4 83.9693 181.476 70.8682 181.476 54V53.8258C181.476 36.9576 168.4 24.0234 149.396 24.0234H125.853V83.9693ZM167.588 54C167.588 43.3812 160.279 35.9269 149.396 35.9269H139.163V72.1021H149.396C160.265 72.1021 167.588 64.8438 167.588 54.2032V54ZM193.295 24.0234V83.9693H239.255V72.24H206.488V59.6469H234.913V47.9176H206.488V35.76H238.824V24.0234H193.295ZM288.752 83.9693L275.216 63.3922L261.592 83.9693H246.498L267.541 53.4847L247.339 24.0234H262.863L275.537 43.4683L288.299 24.0234H303.393L283.234 53.3105L304.277 83.9693H288.752ZM312.303 70.2657V83.9693H326.278V70.2657H312.303ZM394.655 54.1669C394.655 71.2093 408.023 85 426.647 85C445.278 85 458.815 71.0424 458.807 54V53.8258C458.807 36.7907 445.432 23 426.815 23C408.199 23 394.655 36.9576 394.655 54V54.1669ZM444.92 54C444.92 43.7223 437.326 35.1285 426.647 35.1285C415.968 35.1285 408.542 43.5191 408.542 53.7968V53.971C408.542 64.2487 416.129 72.8424 426.815 72.8424C437.501 72.8424 444.927 64.4519 444.927 54.1742L444.92 54ZM517.778 44.8328V83.9693H531V24.0234H516.681L500.813 49.3765L484.945 24.0234H470.634V83.9693H483.659V45.0941L500.47 70.4399H500.813L517.778 44.8328Z" fill="url(#paint1_linear_690_53740)"/>
<path d="M439 148.291C439 148.291 468.607 88.8865 510.127 126.645C521.646 136.319 549.458 183.305 598 108" stroke="url(#paint2_linear_690_53740)" stroke-width="5" stroke-linecap="round" stroke-linejoin="round"/>
<path opacity="0.405831" d="M538 184L505.563 197.649H525.725L488 215" stroke="url(#paint3_linear_690_53740)" stroke-width="3" stroke-linecap="round" stroke-linejoin="round"/>
<path opacity="0.405831" d="M534 181L462.724 200.464H487.199L456 215" stroke="url(#paint4_linear_690_53740)" stroke-width="2" stroke-linecap="round" stroke-linejoin="round"/>
<path opacity="0.405831" d="M696 185L732.08 197.979H706.445L739 215" stroke="url(#paint5_linear_690_53740)" stroke-width="3" stroke-linecap="round" stroke-linejoin="round"/>
<path opacity="0.405831" d="M697 181L768.807 199.278L745.115 199.024L778 215" stroke="url(#paint6_linear_690_53740)" stroke-width="2" stroke-linecap="round" stroke-linejoin="round"/>
<path d="M643 92.5975C643 92.5975 676.031 45.5939 706.03 61.1599C736.028 76.7259 754.144 114.506 787 82.5232" stroke="url(#paint7_linear_690_53740)" stroke-width="5" stroke-linecap="round" stroke-linejoin="round"/>
<ellipse opacity="0.14" cx="616.5" cy="201.5" rx="85.5" ry="9.5" fill="#3EBFFF"/>
<path d="M678.81 192.001C664.11 190.171 641.544 189 616.211 189C590.879 189 568.32 190.171 553.62 192.001H536V196.996C536 201.417 571.913 205 616.211 205C660.51 205 696.43 201.417 696.43 196.996V192.001H678.81Z" fill="#3EBFFF"/>
<path d="M695.873 191.243L681.822 170H545.909L536.249 191.557C536.106 191.712 536.019 191.907 536 192.114C536 196.179 571.918 199.479 616.222 199.479C660.526 199.479 696.451 196.179 696.451 192.114C696.403 191.754 696.19 191.433 695.873 191.243Z" fill="url(#paint8_linear_690_53740)"/>
<mask id="mask0_690_53740" style="mask-type:luminance" maskUnits="userSpaceOnUse" x="536" y="170" width="161" height="30">
<path d="M695.873 191.243L681.822 170H545.909L536.249 191.557C536.106 191.712 536.019 191.907 536 192.114C536 196.179 571.918 199.479 616.222 199.479C660.526 199.479 696.451 196.179 696.451 192.114C696.403 191.754 696.19 191.433 695.873 191.243Z" fill="white"/>
</mask>
<g mask="url(#mask0_690_53740)">
<path d="M551.573 171.386L545.44 183.821" stroke="#3EB1FF"/>
<path d="M538.356 182.436L564.782 186.121L575.167 180.593L617.642 182.436" stroke="#3EB1FF"/>
<path d="M561.013 199.022L572.335 191.65L608.201 193.493V201.322" stroke="#3EB1FF"/>
<path d="M617.642 176.914V200.4" stroke="#3EB1FF"/>
<path d="M617.642 189.807L655.396 188.886L658.77 183.357L689.374 179.671" stroke="#3EB1FF"/>
<path d="M667.661 173.229L670.669 181.836" stroke="#3EB1FF"/>
<path d="M677.102 197.179L680.878 191.65L696.919 187.964" stroke="#3EB1FF"/>
</g>
<ellipse cx="615" cy="170.5" rx="68" ry="7.5" fill="#ABE5FF"/>
<circle cx="518.5" cy="109.5" r="3.5" fill="#0EAFFF"/>
<circle cx="684.5" cy="36.5" r="3.5" fill="#0EAFFF"/>
<circle cx="700" cy="26" r="6" fill="#38B3F1"/>
<circle cx="501" cy="94" r="6" fill="#0C81BB"/>
<circle cx="547" cy="11" r="3" fill="#0C81BB"/>
<circle cx="551.5" cy="20.5" r="1.5" fill="#0C81BB"/>
<circle cx="697.5" cy="149.5" r="2.5" fill="#0C81BB"/>
<circle cx="711" cy="135" r="4" fill="#0C81BB"/>
<rect x="564" y="4" width="99" height="166" fill="url(#paint9_linear_690_53740)"/>
<ellipse cx="613.5" cy="170.5" rx="49.5" ry="4.5" fill="#76D8F8"/>
<path d="M613.496 166C586.161 166 564 167.813 564 170.045C564 170.372 564.494 170.693 565.403 171C565.304 170.936 565.238 170.835 565.221 170.721C565.221 168.859 586.837 167.346 613.496 167.346C640.156 167.346 661.779 168.859 661.779 170.721C661.762 170.835 661.696 170.936 661.597 171C662.506 170.693 663 170.372 663 170.045C662.993 167.813 640.832 166 613.496 166Z" fill="#54B3E2"/>
<circle cx="638.5" cy="102.5" r="2.5" fill="#0EAFFF"/>
<circle cx="598" cy="141" r="4" fill="#0EAFFF"/>
<circle cx="585.5" cy="155.5" r="1.5" fill="#0EAFFF"/>
<path d="M617.203 120.761L617.114 120.82C614.719 122.448 613.381 125.181 613.063 128.554C612.855 131.287 613.161 134.035 613.965 136.659C614.655 139.008 615.609 141.273 616.811 143.412C617.432 144.517 618.119 145.593 618.881 146.713C619.524 147.629 620.196 148.494 620.891 149.322C622.463 151.202 624.237 152.908 626.184 154.411C628.309 156.086 630.712 157.39 633.287 158.264C636.872 159.412 640.25 159.252 642.815 157.537L642.911 157.471L650 152.659L646.94 148.297C646.922 145.862 646.531 143.443 645.779 141.123C645.043 138.799 644.052 136.562 642.823 134.449C642.283 133.519 641.692 132.588 641.056 131.673C640.307 130.61 639.502 129.586 638.646 128.605C637.04 126.743 635.228 125.063 633.243 123.596C631.438 122.248 629.446 121.159 627.329 120.362L624.269 116L617.203 120.761Z" fill="#056392"/>
<mask id="mask1_690_53740" style="mask-type:luminance" maskUnits="userSpaceOnUse" x="613" y="116" width="37" height="43">
<path d="M617.203 120.761L617.114 120.82C614.719 122.448 613.381 125.181 613.063 128.554C612.855 131.287 613.161 134.035 613.965 136.659C614.655 139.008 615.609 141.273 616.811 143.412C617.432 144.517 618.119 145.593 618.881 146.713C619.524 147.629 620.196 148.494 620.891 149.322C622.463 151.202 624.237 152.908 626.184 154.411C628.309 156.086 630.712 157.39 633.287 158.264C636.872 159.412 640.25 159.252 642.815 157.537L642.911 157.471L650 152.659L646.94 148.297C646.922 145.862 646.531 143.443 645.779 141.123C645.043 138.799 644.052 136.562 642.823 134.449C642.283 133.519 641.692 132.588 641.056 131.673C640.307 130.61 639.502 129.586 638.646 128.605C637.04 126.743 635.228 125.063 633.243 123.596C631.438 122.248 629.446 121.159 627.329 120.362L624.269 116L617.203 120.761Z" fill="white"/>
</mask>
<g mask="url(#mask1_690_53740)">
<path d="M647.286 149L633 158.282C636.647 159.402 640.083 159.246 642.692 157.573L642.789 157.509L650 152.815L647.286 149Z" fill="#52BEF4"/>
<path d="M616.261 121.963L616.17 122.023C613.704 123.702 612.327 126.521 612 130L626 120.479L623.558 117L616.261 121.963Z" fill="#056392"/>
<path d="M646.474 142L627 155.187C629.109 156.845 631.494 158.135 634.049 159L648 149.604L647.655 149.115C647.638 146.705 647.25 144.311 646.504 142.014C646.504 142.014 646.482 142 646.474 142Z" fill="#3BB4F1"/>
<path d="M642.353 134.5L620.33 150.5V150.916C621.907 152.984 623.358 154.347 625.312 156V156.433L646.115 142.776L645.791 141.349C645.052 138.793 643.818 137.324 642.585 135L642.353 134.5Z" fill="#26A9EB"/>
<path d="M637.984 129L617 144.02C617.596 145.138 618.256 146.227 618.987 147.359C619.604 148.286 620.25 149.161 620.917 150L642 134.914C641.482 133.972 640.914 133.031 640.304 132.104C639.585 131.029 638.813 129.993 637.991 129C637.991 129 637.991 129 637.984 129Z" fill="#1296D9"/>
<path d="M632.738 125.014L614 137.537C614.67 139.784 615.597 141.952 616.764 144L638 129.793C636.44 128.011 634.68 126.404 632.752 125L632.738 125.014Z" fill="#0784C3"/>
<path d="M626.485 120L613.062 129.585C612.857 132.423 613.159 135.275 613.952 138L633 124.415C631.218 123.015 629.253 121.884 627.164 121.057L626.485 120Z" fill="#0670A6"/>
</g>
<ellipse cx="637.223" cy="134.448" rx="13.3225" ry="22.3891" transform="rotate(-34.62 637.223 134.448)" fill="url(#paint10_linear_690_53740)"/>
<path d="M624.463 116.4C623.977 116.744 623.531 117.138 623.134 117.577C622.932 117.793 622.742 118.02 622.565 118.256C622.476 118.371 622.402 118.494 622.314 118.617C622.228 118.735 622.149 118.858 622.077 118.985C621.486 120.002 621.062 121.103 620.822 122.249C620.375 124.547 620.375 126.906 620.822 129.204C621.253 131.503 621.957 133.745 622.919 135.884C623.883 138.023 625.056 140.067 626.42 141.986C627.099 142.949 627.821 143.878 628.584 144.774C629.347 145.669 630.157 146.526 631.013 147.345C632.717 148.985 634.614 150.423 636.663 151.627C638.696 152.86 640.953 153.698 643.31 154.097C644.491 154.285 645.695 154.285 646.877 154.097C647.024 154.097 647.165 154.039 647.312 154.01C647.46 153.981 647.608 153.952 647.748 153.909C648.036 153.815 648.324 153.75 648.597 153.635C649.159 153.423 649.696 153.154 650.2 152.833C649.212 153.517 648.087 153.987 646.899 154.212C645.705 154.429 644.483 154.458 643.28 154.299C640.882 153.934 638.578 153.122 636.493 151.909C634.399 150.72 632.467 149.279 630.74 147.619C627.26 144.331 624.477 140.405 622.55 136.064C621.579 133.896 620.887 131.618 620.49 129.283C620.067 126.943 620.107 124.546 620.608 122.221C620.884 121.066 621.345 119.962 621.974 118.949C622.607 117.935 623.456 117.066 624.463 116.4V116.4Z" fill="#5AC3F8"/>
<path d="M628.223 140.722C631.303 145.314 635.211 148.856 639.228 150.712C644.021 152.931 646.799 151.792 648.03 150.919C649.261 150.047 651.283 147.777 650.967 142.379C650.7 137.868 648.858 132.855 645.777 128.27C642.697 123.686 638.789 120.136 634.772 118.288C629.979 116.069 627.193 117.208 625.97 118.081C624.746 118.953 622.716 121.223 623.033 126.614C623.292 131.132 625.135 136.138 628.223 140.722Z" fill="url(#paint11_linear_690_53740)"/>
<path d="M639.548 150.568C639.878 150.685 640.209 150.816 640.539 150.925L641.046 151.086C641.215 151.137 641.384 151.188 641.553 151.224L642.067 151.356L642.581 151.458C642.75 151.494 642.926 151.523 643.095 151.545L643.616 151.604C644.989 151.765 646.379 151.545 647.634 150.969C648.838 150.339 649.777 149.305 650.285 148.052C650.813 146.811 651.1 145.482 651.13 144.135C651.148 141.381 650.65 138.648 649.661 136.076C648.691 133.491 647.393 131.04 645.798 128.782C644.232 126.495 642.376 124.419 640.275 122.605C638.205 120.772 635.809 119.339 633.209 118.382C631.928 117.917 630.57 117.699 629.207 117.74C627.848 117.782 626.547 118.298 625.535 119.199C624.547 120.158 623.845 121.369 623.508 122.7C623.463 122.867 623.427 123.035 623.383 123.203C623.339 123.371 623.309 123.546 623.28 123.713C623.25 123.881 623.214 124.056 623.192 124.231L623.133 124.749C623.133 124.924 623.118 125.099 623.089 125.274V125.799C623.089 126.149 623.089 126.529 623.089 126.85C622.93 125.442 622.984 124.018 623.25 122.627C623.521 121.195 624.196 119.87 625.197 118.805C625.722 118.277 626.345 117.856 627.033 117.565C627.718 117.277 628.444 117.095 629.185 117.025C630.654 116.928 632.127 117.113 633.525 117.572C636.27 118.494 638.809 119.936 641.002 121.817C645.391 125.557 648.73 130.361 650.696 135.762C651.662 138.445 652.098 141.288 651.982 144.135C651.918 145.596 651.569 147.03 650.953 148.358C650.626 149.022 650.197 149.632 649.683 150.167C649.166 150.704 648.547 151.133 647.861 151.429C646.506 151.979 645.021 152.136 643.58 151.881C642.177 151.645 640.818 151.203 639.548 150.568Z" fill="#0670A6"/>
<path d="M648 136L647.129 136.879L647 137L647.879 136.121L648 136Z" fill="#957978"/>
<path fill-rule="evenodd" clip-rule="evenodd" d="M637.065 127.966L638 128.252L637.237 129L635 128.314L635.065 127.731L635.13 127.154C635.188 126.619 635.418 126.12 635.783 125.741L636.539 125C636.176 125.377 635.946 125.873 635.887 126.407L635.828 126.983L635.757 127.566L637.055 127.963L637.886 127.235C638.105 127.079 638.374 126.996 638.65 127H638.818C639.443 127.084 639.999 127.413 640.346 127.905L647 136.224L646.114 137L639.46 128.688C639.261 128.416 639 128.187 638.696 128.019C638.46 127.894 638.201 127.812 637.932 127.776H637.764C637.514 127.767 637.269 127.834 637.065 127.966ZM639.364 139.127C639.189 139.105 639.016 139.072 638.846 139.029C637.518 138.671 636.355 137.869 635.554 136.758C634.236 135.018 634.335 134.253 634.518 132.853V132.634L637.566 133.444C637.604 133.444 637.825 133.504 638.015 133.565C638.521 133.624 638.975 133.901 639.257 134.321C639.58 134.728 639.762 135.227 639.775 135.744C639.792 136.142 639.64 136.53 639.356 136.811L640.24 135.994C640.524 135.709 640.676 135.32 640.659 134.919C640.645 134.402 640.464 133.903 640.141 133.497C639.859 133.075 639.405 132.798 638.899 132.74L638.442 132.611L632.552 131.097C632.43 131.061 632.305 131.036 632.179 131.022C631.924 130.98 631.663 130.998 631.417 131.075C631.215 131.13 631.031 131.237 630.884 131.385L630.02 132.184C630.167 132.05 630.343 131.951 630.533 131.892C630.781 131.825 631.04 131.807 631.295 131.839C631.422 131.857 631.547 131.885 631.669 131.922L634.29 132.611L633.619 133.232L633.566 133.701C633.375 135.101 633.276 135.865 634.594 137.598C635.401 138.707 636.565 139.509 637.893 139.869C638.061 139.91 638.232 139.94 638.404 139.96C639.329 140.105 640.273 139.855 641.002 139.271L641.116 139.165L641.924 138.411C641.951 138.389 641.976 138.365 642 138.34L641.924 138.411C641.909 138.423 641.894 138.435 641.878 138.446C641.17 139.007 640.261 139.253 639.364 139.127ZM635.383 143.928C635.838 144.585 636.522 145.024 637.286 145.149C637.909 145.24 638.538 145.033 639 144.584L638.158 145.408C637.699 145.858 637.072 146.068 636.451 145.981C635.684 145.86 634.997 145.416 634.548 144.752L628.171 135.853C627.54 135.036 627.144 134.045 627.031 132.999C626.915 132.086 627.128 131.161 627.626 130.404C627.764 130.194 627.922 130 628.098 129.824L628.934 129C628.758 129.174 628.602 129.369 628.469 129.58C627.97 130.337 627.758 131.262 627.873 132.175C627.989 133.22 628.384 134.21 629.014 135.029L635.383 143.928Z" fill="#0670A6"/>
<path d="M638.633 130.104L638.224 129.983L632.44 128.238C632.128 128.144 631.807 128.078 631.483 128.042C630.898 127.961 630.303 127.997 629.732 128.148C628.89 128.359 628.155 128.864 627.665 129.568C627.135 130.317 626.91 131.233 627.033 132.136C627.156 133.171 627.576 134.151 628.244 134.962L635.008 143.77C635.491 144.421 636.218 144.856 637.029 144.979C637.69 145.069 638.359 144.864 638.849 144.42L639.027 144.254L630.72 133.542C630.457 133.22 630.284 132.838 630.218 132.431C630.159 132.069 630.235 131.699 630.434 131.389C630.608 131.099 630.881 130.879 631.205 130.769C631.455 130.693 631.719 130.675 631.977 130.716C632.105 130.731 632.231 130.756 632.355 130.792L638.317 132.303L638.78 132.431C639.292 132.489 639.752 132.766 640.037 133.187C640.364 133.592 640.548 134.09 640.561 134.607C640.584 135.054 640.386 135.484 640.029 135.763C639.73 135.979 639.355 136.069 638.988 136.012C638.892 136.001 638.796 135.983 638.703 135.959C638.179 135.792 637.722 135.467 637.399 135.03C637.049 134.607 636.921 134.048 637.052 133.519C637.052 133.436 637.052 132.983 637.114 132.809L634.376 132.129L634.322 132.59C634.136 133.987 634.036 134.75 635.371 136.488C636.181 137.597 637.358 138.398 638.703 138.754C638.875 138.797 639.05 138.83 639.227 138.852C640.162 138.996 641.116 138.743 641.849 138.157C642.646 137.459 643.068 136.438 642.991 135.392C642.925 134.205 642.489 133.066 641.742 132.129C641.059 131.04 639.923 130.299 638.633 130.104Z" fill="#D4F7FF"/>
<path d="M646.412 133.931L641.705 127.327C641.237 126.665 640.652 126.105 639.98 125.676C639.41 125.322 638.777 125.095 638.119 125.008H637.896C637.247 124.959 636.601 125.141 636.064 125.526C635.548 125.943 635.217 126.56 635.144 127.237L635.079 127.867L635 128.505L637.472 129.255V128.903L637.515 128.287C637.52 128.003 637.634 127.732 637.831 127.537C638.037 127.372 638.291 127.285 638.55 127.289H638.708C639.296 127.378 639.819 127.725 640.145 128.242L646.412 137L646.527 136.887C647.216 136.257 647.13 134.959 646.412 133.931Z" fill="#D4F7FF"/>
<g opacity="0.95">
<path d="M585.199 121.169H585.097C582.567 120.249 580.496 118.376 579.324 115.949C578.349 114.01 577.777 111.893 577.643 109.726C577.514 107.878 577.637 106.02 578.008 104.206C578.191 103.258 578.435 102.324 578.739 101.409C579.004 100.637 579.309 99.8791 579.653 99.1391C580.417 97.4707 581.4 95.9121 582.576 94.5046C583.93 92.8807 585.582 91.5313 587.443 90.5291C589.975 89.0979 592.986 88.7824 595.759 89.6579H595.854L601.905 91.7225L602.051 95.9616C602.761 97.7423 603.161 99.6317 603.235 101.548C603.314 103.387 603.149 105.229 602.745 107.024C602.567 107.822 602.345 108.609 602.08 109.382C601.766 110.297 601.395 111.192 600.969 112.061C600.161 113.725 599.128 115.27 597.9 116.652C596.743 117.972 595.381 119.097 593.866 119.983L591.177 123.249L585.199 121.169Z" fill="#003D97"/>
<path d="M602.277 95.5077L587.516 90.4632C590.048 89.0319 593.059 88.7165 595.832 89.5919H595.927L601.978 91.6566L602.277 95.5077Z" fill="#056392"/>
<path d="M585.199 121.169H585.097C582.567 120.249 580.496 118.376 579.324 115.949L593.654 120.854L591.25 123.27L585.199 121.169Z" fill="#52BEF4"/>
<path d="M603.307 101.518L582.627 94.4533C583.981 92.8294 585.633 91.48 587.494 90.4778L602.241 95.5222L602.102 95.9469C602.812 97.7276 603.212 99.617 603.286 101.533L603.307 101.518Z" fill="#0670A6"/>
<path d="M602.833 107.002L579.689 99.0952C580.453 97.4268 581.436 95.8682 582.612 94.4607L603.308 101.511C603.387 103.35 603.222 105.192 602.818 106.988L602.833 107.002Z" fill="#0784C3"/>
<path d="M601.049 112.047L578.016 104.169C578.198 103.222 578.442 102.287 578.746 101.372C579.011 100.6 579.316 99.8425 579.66 99.1025L602.796 107.01C602.619 107.807 602.396 108.594 602.131 109.367C601.817 110.283 601.446 111.178 601.02 112.047H601.049Z" fill="#1296D9"/>
<path d="M597.973 116.645L577.643 109.697C577.514 107.848 577.637 105.991 578.008 104.176L601.05 112.054C600.241 113.718 599.208 115.263 597.98 116.645H597.973Z" fill="#26A9EB"/>
<path d="M593.654 120.825L579.324 115.92C578.349 113.981 577.777 111.864 577.643 109.697L597.973 116.645C596.816 117.965 595.454 119.09 593.939 119.976L593.654 120.825Z" fill="#3BB4F1"/>
<ellipse cx="596.638" cy="107.426" rx="16.6676" ry="13.2295" transform="rotate(-71.16 596.638 107.426)" fill="url(#paint12_linear_690_53740)"/>
<path d="M591.286 123.212C589.404 122.59 587.723 121.472 586.419 119.976C585.118 118.479 584.149 116.722 583.577 114.822C583.008 112.924 582.761 110.944 582.846 108.964C582.931 106.971 583.296 104.999 583.928 103.107C584.576 101.229 585.486 99.4515 586.631 97.8285C587.77 96.2022 589.176 94.7813 590.789 93.626C592.399 92.4613 594.237 91.6527 596.183 91.2539C598.133 90.8624 600.153 91.0066 602.029 91.6712C600.153 91.0871 598.157 91.0063 596.241 91.4369C594.339 91.8684 592.548 92.6966 590.987 93.8676C589.42 95.0267 588.053 96.4338 586.938 98.0335C584.705 101.258 583.419 105.045 583.226 108.964C583.136 110.913 583.361 112.864 583.891 114.741C584.412 116.619 585.324 118.366 586.566 119.866C587.815 121.385 589.444 122.545 591.286 123.227V123.212Z" fill="#5AC3F8"/>
<path d="M585.828 103.727C587.075 99.8791 589.624 96.588 593.034 94.4213C596.921 92.0345 600.049 92.5543 601.562 93.0668C603.074 93.5793 605.859 95.0948 607.488 99.3632C610.148 107.202 607.201 115.853 600.312 120.427C596.417 122.814 593.297 122.301 591.784 121.781C590.271 121.262 587.48 119.753 585.857 115.485C584.48 111.689 584.47 107.53 585.828 103.727Z" fill="url(#paint13_linear_690_53740)"/>
<path d="M593.077 94.4387C594.114 93.7345 595.252 93.1938 596.453 92.8353C597.673 92.4755 598.953 92.3659 600.216 92.5132C600.853 92.5923 601.478 92.7446 602.08 92.9671C602.68 93.199 603.254 93.4961 603.79 93.853C604.861 94.5734 605.784 95.493 606.508 96.562C607.925 98.7084 608.766 101.185 608.949 103.752C609.319 108.911 607.587 114.001 604.148 117.86C602.435 119.779 600.258 121.223 597.827 122.055C596.6 122.458 595.307 122.619 594.019 122.531C593.377 122.488 592.742 122.37 592.127 122.18C591.513 121.992 590.925 121.731 590.373 121.404C589.285 120.743 588.338 119.872 587.589 118.841C586.86 117.82 586.291 116.695 585.901 115.502C586.384 116.645 587.024 117.714 587.801 118.68C588.575 119.627 589.529 120.411 590.607 120.986C591.135 121.274 591.697 121.495 592.28 121.645C592.861 121.797 593.456 121.883 594.056 121.901C595.257 121.934 596.454 121.743 597.586 121.338C598.719 120.924 599.793 120.363 600.779 119.668C601.766 118.968 602.668 118.154 603.468 117.245C604.272 116.345 604.979 115.363 605.58 114.316C606.171 113.26 606.66 112.149 607.042 111C607.437 109.851 607.72 108.667 607.889 107.464C608.059 106.251 608.104 105.024 608.021 103.803C607.944 102.595 607.726 101.401 607.371 100.245C607.012 99.0895 606.504 97.9866 605.858 96.9646C605.211 95.9508 604.381 95.0669 603.41 94.3582C602.924 94.0058 602.402 93.7063 601.853 93.465C601.296 93.2339 600.715 93.0645 600.121 92.9598C598.907 92.7615 597.666 92.8013 596.468 93.077C595.279 93.3701 594.138 93.8285 593.077 94.4387Z" fill="#0670A6"/>
<path d="M599.252 116.579L598.273 116.198L598.126 116.139L599.113 116.527L599.252 116.579Z" fill="#957978"/>
<path fill-rule="evenodd" clip-rule="evenodd" d="M589.109 109.689C588.763 110.313 588.686 111.05 588.897 111.732C589.066 112.282 589.478 112.725 590.015 112.933L589.028 112.552C588.495 112.336 588.085 111.893 587.91 111.344C587.704 110.665 587.78 109.93 588.122 109.308L592.624 100.684C593.021 99.8519 593.648 99.1509 594.429 98.6631C595.1 98.2251 595.911 98.0552 596.702 98.1872C596.922 98.2165 597.138 98.273 597.345 98.3556L598.27 98.7221C598.082 98.6504 597.887 98.601 597.688 98.5752C596.895 98.4435 596.082 98.6133 595.408 99.0511C594.629 99.5364 594.005 100.235 593.61 101.065L589.109 109.689ZM598.324 98.7436L598.27 98.7221C598.288 98.7291 598.306 98.7362 598.324 98.7436ZM594.597 111.08C594.553 110.934 594.517 110.787 594.48 110.634C594.264 109.449 594.463 108.226 595.043 107.171C595.927 105.472 596.57 105.26 597.754 104.879L597.937 104.813L598.455 107.566C598.455 107.566 598.499 107.786 598.521 107.969C598.667 108.385 598.625 108.845 598.404 109.228C598.202 109.635 597.874 109.966 597.469 110.172C597.159 110.341 596.791 110.367 596.46 110.246L597.44 110.634C597.771 110.755 598.138 110.729 598.448 110.56C598.857 110.354 599.188 110.02 599.391 109.609C599.616 109.23 599.659 108.77 599.508 108.357C599.508 108.209 599.465 108.057 599.445 107.984C599.44 107.967 599.436 107.954 599.435 107.947L598.455 102.704C598.436 102.595 598.41 102.488 598.375 102.382C598.309 102.175 598.202 101.983 598.061 101.819C597.935 101.685 597.78 101.582 597.608 101.518L596.669 101.147C596.656 101.141 596.642 101.135 596.629 101.13L596.669 101.147C596.824 101.212 596.963 101.311 597.074 101.438C597.218 101.599 597.328 101.789 597.396 101.994C597.429 102.102 597.453 102.212 597.469 102.324L597.907 104.652L597.177 104.359L596.782 104.491C595.548 104.744 594.527 105.607 594.071 106.783C593.494 107.839 593.298 109.062 593.515 110.246C593.543 110.397 593.582 110.546 593.632 110.692C593.87 111.475 594.424 112.123 595.16 112.479L595.284 112.53L596.263 112.918L596.139 112.867C595.397 112.514 594.838 111.866 594.597 111.08ZM601.379 103.693L601.773 106.036L600.794 105.648L600.392 103.298L600.933 103.115L601.466 102.939C601.958 102.762 602.495 102.762 602.986 102.939L603.973 103.327C603.481 103.151 602.944 103.151 602.453 103.327L601.919 103.51L601.379 103.693ZM603.907 107.046C603.886 107.358 603.794 107.662 603.637 107.932L599.12 116.505L598.134 116.117L602.665 107.522C602.819 107.251 602.912 106.948 602.935 106.636C602.948 106.401 602.919 106.165 602.847 105.941C602.835 105.893 602.818 105.846 602.796 105.802C602.702 105.57 602.525 105.382 602.299 105.274L603.279 105.655C603.5 105.766 603.674 105.953 603.768 106.182C603.791 106.225 603.81 106.269 603.827 106.314C603.898 106.551 603.926 106.799 603.907 107.046Z" fill="#0670A6"/>
<path d="M601.32 107.339C601.32 107.266 601.32 107.2 601.269 106.973L600.538 101.797C600.496 101.518 600.43 101.244 600.341 100.977C600.189 100.488 599.941 100.034 599.61 99.6442C599.129 99.0707 598.456 98.691 597.717 98.5752C596.925 98.4436 596.112 98.6133 595.437 99.0511C594.658 99.5364 594.035 100.235 593.64 101.065L589.109 109.696C588.763 110.32 588.686 111.058 588.897 111.739C589.066 112.29 589.478 112.732 590.015 112.94L590.212 113.02L595.657 102.478C595.827 102.147 596.078 101.864 596.387 101.658C596.657 101.48 596.979 101.4 597.301 101.431C597.604 101.466 597.886 101.606 598.097 101.826C598.239 101.991 598.346 102.182 598.412 102.39C598.446 102.495 598.473 102.603 598.492 102.712L599.471 107.954C599.471 107.954 599.522 108.181 599.544 108.364C599.695 108.778 599.652 109.237 599.427 109.616C599.224 110.027 598.894 110.361 598.485 110.568C598.169 110.748 597.788 110.77 597.454 110.626C597.121 110.482 596.875 110.189 596.789 109.836C596.762 109.757 596.74 109.676 596.723 109.594C596.651 109.108 596.738 108.612 596.972 108.181C597.18 107.741 597.584 107.426 598.061 107.332C598.127 107.332 598.507 107.156 598.653 107.112L598.178 104.718L597.79 104.85C596.607 105.23 595.963 105.443 595.079 107.141C594.5 108.196 594.301 109.42 594.517 110.604C594.553 110.758 594.59 110.905 594.633 111.051C594.871 111.834 595.425 112.482 596.161 112.837C597.014 113.19 597.981 113.131 598.784 112.676C599.701 112.178 600.445 111.412 600.918 110.48C601.494 109.539 601.641 108.395 601.32 107.339Z" fill="#D4F7FF"/>
<path d="M601.561 115.319L604.974 108.847C605.316 108.204 605.53 107.5 605.602 106.775C605.661 106.165 605.591 105.549 605.398 104.967L605.332 104.769C605.108 104.208 604.705 103.736 604.185 103.429C603.648 103.153 603.022 103.111 602.453 103.312L601.919 103.495L601.378 103.678L601.773 106.021L602.058 105.889L602.57 105.692C602.802 105.586 603.068 105.586 603.3 105.692C603.522 105.802 603.696 105.99 603.79 106.219C603.813 106.261 603.832 106.305 603.848 106.351C603.92 106.588 603.948 106.836 603.929 107.083C603.908 107.395 603.815 107.698 603.658 107.969L599.135 116.564L599.274 116.615C600.012 116.879 601.02 116.286 601.561 115.319Z" fill="#D4F7FF"/>
</g>
<g opacity="0.65">
<path d="M623.271 39.7071H623.222C621.987 39.2594 620.976 38.3355 620.407 37.1357C619.93 36.1798 619.652 35.1342 619.591 34.0642C619.528 33.1505 619.589 32.2323 619.774 31.3357C619.867 30.8664 619.989 30.4036 620.14 29.95C620.274 29.5642 620.421 29.1928 620.583 28.8285C620.949 28.0056 621.422 27.2368 621.991 26.5428C622.65 25.7398 623.455 25.0729 624.362 24.5785C625.596 23.872 627.064 23.7168 628.415 24.15H628.458L631.448 25.1428L631.519 27.2357C631.866 28.1142 632.061 29.0469 632.096 29.9928C632.136 30.902 632.056 31.8126 631.857 32.7C631.772 33.0942 631.663 33.483 631.533 33.8642C631.38 34.3158 631.199 34.7571 630.991 35.1857C630.595 36.0061 630.091 36.7679 629.492 37.45C628.929 38.1012 628.266 38.6559 627.529 39.0928L626.213 40.7071L623.271 39.7071Z" fill="#056392"/>
<path d="M631.589 27.0428L624.397 24.55C625.632 23.8435 627.099 23.6883 628.451 24.1214H628.493L631.448 25.1428L631.589 27.0428Z" fill="#056392"/>
<path d="M623.271 39.7072H623.222C621.987 39.2595 620.975 38.3355 620.407 37.1357L627.388 39.5572L626.213 40.75L623.271 39.7072Z" fill="#52BEF4"/>
<path d="M632.096 30.0071L622.026 26.5214C622.685 25.7184 623.49 25.0515 624.397 24.5571L631.582 27.0428L631.512 27.2571C631.859 28.1357 632.054 29.0684 632.089 30.0143L632.096 30.0071Z" fill="#0670A6"/>
<path d="M631.856 32.7143L620.597 28.8072C620.963 27.9843 621.436 27.2154 622.005 26.5215L632.075 30.0143C632.115 30.9235 632.034 31.8341 631.835 32.7215L631.856 32.7143Z" fill="#0784C3"/>
<path d="M630.963 35.2071L619.774 31.3143C619.867 30.845 619.989 30.3822 620.14 29.9286C620.274 29.5428 620.421 29.1714 620.583 28.8071L631.842 32.7143C631.757 33.1086 631.649 33.4973 631.519 33.8786C631.366 34.3301 631.185 34.7714 630.977 35.2L630.963 35.2071Z" fill="#1296D9"/>
<path d="M629.492 37.4714L619.591 34.0428C619.528 33.129 619.589 32.2108 619.774 31.3142L630.963 35.1999C630.567 36.0203 630.063 36.7821 629.464 37.4642L629.492 37.4714Z" fill="#26A9EB"/>
<path d="M627.388 39.5356L620.407 37.1142C619.93 36.1583 619.652 35.1126 619.591 34.0427L629.492 37.4713C628.929 38.1225 628.266 38.6773 627.529 39.1142L627.388 39.5356Z" fill="#3BB4F1"/>
<ellipse cx="628.828" cy="32.9184" rx="8.21591" ry="6.4491" transform="rotate(-71.16 628.828 32.9184)" fill="url(#paint14_linear_690_53740)"/>
<path d="M626.234 40.7143C625.315 40.4086 624.496 39.8557 623.862 39.1143C623.247 38.3693 622.79 37.5037 622.518 36.5715C622.243 35.6313 622.124 34.6512 622.166 33.6715C622.209 32.6986 622.387 31.7368 622.694 30.8143C623.007 29.8857 623.451 29.0076 624.01 28.2072C624.566 27.4059 625.251 26.7056 626.037 26.1357C626.819 25.5595 627.714 25.1601 628.662 24.9643C629.601 24.7752 630.574 24.8468 631.476 25.1715C630.565 24.8784 629.593 24.8389 628.662 25.0572C627.736 25.2684 626.865 25.6775 626.107 26.2572C625.346 26.8284 624.681 27.5207 624.137 28.3072C623.047 29.8944 622.418 31.7605 622.321 33.6929C622.276 34.6568 622.385 35.6217 622.645 36.55C622.896 37.4667 623.333 38.3204 623.926 39.0572C624.231 39.4267 624.581 39.7555 624.967 40.0357C625.359 40.3166 625.784 40.5447 626.234 40.7143Z" fill="#67C4FB"/>
<path d="M623.595 31.1072C624.205 29.2067 625.449 27.5821 627.114 26.5144C628.304 25.6102 629.858 25.3608 631.265 25.848C632.673 26.3351 633.752 27.4959 634.151 28.9501C635.446 32.8255 634 37.0998 630.632 39.3501C629.44 40.2506 627.887 40.4969 626.48 40.0087C625.074 39.5205 623.995 38.3604 623.595 36.9072C622.931 35.0326 622.931 32.9818 623.595 31.1072Z" fill="url(#paint15_linear_690_53740)"/>
<path d="M627.092 26.5142C627.597 26.1678 628.149 25.9005 628.732 25.7213C629.328 25.5477 629.952 25.4943 630.569 25.5642C630.88 25.6014 631.185 25.6782 631.476 25.7928C631.768 25.9041 632.046 26.0478 632.307 26.2213C632.83 26.5772 633.279 27.0334 633.63 27.5642C634.326 28.6299 634.738 29.8603 634.826 31.1356C634.915 32.3961 634.753 33.662 634.348 34.857C633.95 36.0556 633.315 37.1591 632.483 38.0999C631.649 39.0489 630.587 39.7626 629.401 40.1713C628.804 40.3709 628.176 40.451 627.55 40.407C626.923 40.3679 626.315 40.1768 625.776 39.8499C625.246 39.5239 624.784 39.0941 624.418 38.5856C624.065 38.0797 623.788 37.5237 623.595 36.9356C623.831 37.5007 624.144 38.0296 624.524 38.507C624.901 38.9725 625.365 39.3584 625.889 39.6428C626.148 39.7834 626.422 39.8936 626.705 39.9713C626.989 40.0442 627.279 40.0849 627.571 40.0928C628.155 40.1115 628.738 40.0169 629.288 39.8142C629.838 39.608 630.361 39.332 630.843 38.9928C631.323 38.6472 631.762 38.247 632.152 37.7999C632.541 37.3602 632.885 36.8816 633.179 36.3713C633.465 35.8502 633.701 35.3024 633.883 34.7356C634.074 34.1689 634.213 33.5855 634.298 32.9928C634.379 32.3989 634.4 31.7982 634.362 31.1999C634.323 30.6038 634.217 30.0142 634.045 29.4428C633.878 28.8747 633.641 28.3301 633.341 27.8213C633.024 27.3236 632.621 26.888 632.152 26.5356C631.915 26.363 631.66 26.2169 631.392 26.0999C631.121 25.9843 630.837 25.9004 630.548 25.8499C629.961 25.7511 629.361 25.7705 628.781 25.907C628.193 26.0272 627.624 26.2316 627.092 26.5142Z" fill="#0670A6"/>
<path d="M630.111 37.4427L629.633 37.2499L629.569 37.2213L630.048 37.4141L630.111 37.4427Z" fill="#957978"/>
<path fill-rule="evenodd" clip-rule="evenodd" d="M625.171 34.0427C625.003 34.3501 624.965 34.7135 625.066 35.0499C625.154 35.3195 625.355 35.5361 625.615 35.6427L625.136 35.4499C624.875 35.3449 624.674 35.1277 624.587 34.857C624.487 34.5206 624.525 34.1573 624.693 33.8499L626.888 29.5642C627.082 29.1568 627.384 28.8128 627.761 28.5713C628.09 28.3552 628.486 28.2712 628.873 28.3356C628.98 28.3489 629.084 28.3778 629.182 28.4213L629.661 28.607C629.561 28.569 629.457 28.5426 629.351 28.5284C628.965 28.464 628.568 28.5481 628.239 28.7642C627.861 29.0038 627.558 29.3483 627.367 29.757L625.171 34.0427ZM627.845 34.7212C627.822 34.651 627.804 34.5794 627.789 34.5069C627.683 33.9228 627.78 33.3194 628.064 32.7998C628.283 32.2159 628.783 31.7872 629.386 31.6641H629.471L629.724 33.0212V33.2212C629.793 33.4272 629.772 33.6528 629.668 33.8427C629.569 34.0434 629.408 34.2062 629.211 34.3069C629.06 34.3922 628.879 34.4053 628.718 34.3427L629.196 34.5355C629.354 34.6022 629.531 34.6022 629.689 34.5355C629.887 34.4321 630.048 34.2669 630.146 34.0641C630.252 33.8745 630.272 33.6485 630.203 33.4427C630.203 33.3855 630.187 33.3252 630.177 33.285L630.177 33.285C630.172 33.2649 630.168 33.2498 630.168 33.2427L629.689 30.6569C629.693 30.6046 629.693 30.5521 629.689 30.4998C629.677 30.3706 629.631 30.2472 629.555 30.1427C629.493 30.0792 629.419 30.0283 629.337 29.9927L628.859 29.7998C628.94 29.8354 629.014 29.8863 629.077 29.9498C629.145 30.0324 629.197 30.1268 629.232 30.2284C629.236 30.2831 629.236 30.338 629.232 30.3927L629.443 31.5427L629.077 31.3927L628.887 31.4641C628.287 31.5867 627.79 32.0126 627.571 32.5927C627.287 33.1123 627.19 33.7157 627.296 34.2998C627.311 34.3746 627.33 34.4486 627.353 34.5212C627.475 34.9232 627.766 35.2499 628.148 35.4141H628.211L628.438 35.5053C628.498 35.5437 628.561 35.5778 628.626 35.6069H628.69L628.438 35.5053C628.157 35.325 627.945 35.048 627.845 34.7212ZM631.146 31.0716L631.343 32.2288L630.864 32.043L630.667 30.8859L630.935 30.793L631.195 30.7073C631.423 30.6262 631.671 30.6262 631.899 30.7073L632.377 30.893C632.149 30.8152 631.902 30.8152 631.674 30.893L631.413 30.9859L631.146 31.0716ZM632.384 32.7356C632.373 32.8893 632.328 33.0384 632.251 33.1713L630.034 37.4141L629.555 37.2213L631.772 32.9856C631.849 32.8527 631.895 32.7036 631.906 32.5498C631.91 32.434 631.896 32.3182 631.864 32.207C631.862 32.1832 631.862 32.1594 631.864 32.1356C631.815 32.0248 631.73 31.9342 631.624 31.8784L632.103 32.0641C632.212 32.1157 632.298 32.2077 632.342 32.3213C632.343 32.3451 632.343 32.3689 632.342 32.3927C632.375 32.5038 632.389 32.6197 632.384 32.7356Z" fill="#0670A6"/>
<path d="M631.125 32.8784C631.125 32.8784 631.125 32.807 631.125 32.6999L630.731 30.1427C630.709 30.0069 630.676 29.8731 630.632 29.7427C630.557 29.5015 630.435 29.278 630.273 29.0856C630.041 28.7999 629.712 28.6116 629.351 28.557C628.965 28.4926 628.568 28.5766 628.239 28.7927C627.861 29.0324 627.558 29.3769 627.367 29.7856L625.171 34.0713C625.003 34.3787 624.965 34.7421 625.066 35.0784C625.154 35.3481 625.355 35.5647 625.615 35.6713H625.713L628.359 30.4713C628.437 30.3076 628.556 30.1672 628.704 30.0642C628.834 29.9751 628.992 29.937 629.147 29.957C629.301 29.9665 629.446 30.0325 629.555 30.1427C629.627 30.2225 629.68 30.3178 629.71 30.4213C629.714 30.4736 629.714 30.5261 629.71 30.5784L630.189 33.1642C630.189 33.1642 630.189 33.2784 630.224 33.3642C630.293 33.57 630.273 33.796 630.168 33.9856C630.069 34.1884 629.908 34.3536 629.71 34.457C629.54 34.546 629.338 34.546 629.168 34.457C629.031 34.3789 628.928 34.2514 628.88 34.0999C628.876 34.0595 628.876 34.0188 628.88 33.9784C628.84 33.7335 628.882 33.4819 628.999 33.2642C629.1 33.0467 629.295 32.8903 629.527 32.8427L629.816 32.7356L629.555 31.5713L629.372 31.6356C628.769 31.7587 628.269 32.1874 628.049 32.7713C627.766 33.2909 627.669 33.8943 627.775 34.4784C627.79 34.5509 627.808 34.6225 627.831 34.6927C627.945 35.0822 628.216 35.4042 628.577 35.5784C628.991 35.7525 629.461 35.7235 629.851 35.4999C630.301 35.2588 630.669 34.8854 630.906 34.4284C631.192 33.9663 631.271 33.4032 631.125 32.8784Z" fill="#D4F7FF"/>
<path d="M631.237 36.8143L632.898 33.6214C633.066 33.3045 633.171 32.9576 633.208 32.6C633.236 32.2986 633.202 31.9946 633.109 31.7071C633.109 31.7071 633.109 31.6428 633.109 31.6143C633.001 31.3365 632.806 31.1029 632.553 30.95C632.29 30.8194 631.987 30.7989 631.709 30.8928L631.449 30.9857L631.181 31.0714L631.378 32.2285L631.512 32.1643L631.765 32.0714C631.875 32.0216 632 32.0216 632.11 32.0714C632.219 32.123 632.305 32.215 632.349 32.3285C632.35 32.3523 632.35 32.3762 632.349 32.4C632.382 32.5111 632.396 32.627 632.391 32.7428C632.381 32.8966 632.335 33.0457 632.258 33.1785L630.055 37.4214H630.119C630.586 37.5104 631.051 37.2579 631.237 36.8143Z" fill="#D4F7FF"/>
</g>
<g opacity="0.85">
<path d="M647.524 70.0056L647.575 70.0565C648.876 71.5095 649.317 73.522 648.993 75.7815C648.993 75.7815 648.993 75.8323 648.993 75.8614C648.68 77.7077 648.025 79.4811 647.061 81.0923C646.219 82.5445 645.216 83.8993 644.071 85.1317C643.476 85.7711 642.837 86.3959 642.153 86.9989C641.58 87.5002 640.993 87.9724 640.398 88.4156C639.044 89.4153 637.586 90.2678 636.048 90.9584C634.365 91.7405 632.558 92.232 630.707 92.4115C628.15 92.6003 625.939 91.9465 624.521 90.3772C624.508 90.3547 624.49 90.3349 624.469 90.3191L620.568 85.96L623.316 83.5479C623.725 81.9273 624.384 80.3786 625.27 78.9563C626.143 77.5282 627.17 76.1981 628.334 74.9896C628.848 74.4592 629.392 73.9361 629.965 73.4275C630.636 72.8398 631.337 72.2869 632.066 71.7711C633.44 70.7914 634.918 69.9631 636.474 69.3009C637.891 68.6925 639.387 68.2864 640.919 68.0949L643.66 65.6829L647.524 70.0056Z" fill="#056392"/>
<path d="M643.623 65.6611L647.576 70.0202C648.876 71.4733 649.317 73.4857 648.993 75.7452L641.544 67.492L643.623 65.6611Z" fill="#056392"/>
<path d="M622.963 83.824L630.67 92.4042C628.114 92.593 625.902 91.9392 624.484 90.3699C624.471 90.3473 624.454 90.3276 624.433 90.3118L620.531 85.9527L622.963 83.824Z" fill="#52BEF4"/>
<path d="M625.219 78.949L636.041 90.9728C634.357 91.755 632.551 92.2464 630.7 92.4259L623 83.8457L623.309 83.5769C623.718 81.9563 624.377 80.4076 625.263 78.9853L625.219 78.949Z" fill="#3BB4F1"/>
<path d="M628.282 74.9751L640.375 88.4302C639.022 89.4299 637.564 90.2824 636.026 90.973L625.233 78.9637C626.106 77.5355 627.133 76.2054 628.297 74.9969L628.282 74.9751Z" fill="#26A9EB"/>
<path d="M632.022 71.7493L644.056 85.139C643.461 85.7783 642.822 86.4031 642.139 87.0061C641.566 87.5074 640.978 87.9797 640.383 88.4229L628.282 74.9823C628.797 74.4519 629.34 73.9288 629.913 73.4203C630.584 72.8325 631.286 72.2796 632.015 71.7638L632.022 71.7493Z" fill="#1296D9"/>
<path d="M636.438 69.279L647.061 81.0922C646.22 82.5444 645.217 83.8992 644.071 85.1316L632.037 71.7419C633.411 70.7622 634.889 69.9339 636.445 69.2717L636.438 69.279Z" fill="#0784C3"/>
<path d="M641.5 67.5281L648.986 75.8612C648.673 77.7076 648.018 79.4809 647.054 81.0922L636.43 69.279C637.846 68.6706 639.343 68.2645 640.875 68.073L641.5 67.5281Z" fill="#0670A6"/>
<ellipse cx="632.105" cy="75.8433" rx="15.3821" ry="9.14159" transform="rotate(-41.63 632.105 75.8433)" fill="url(#paint16_linear_690_53740)"/>
<path d="M643.674 65.7192C644.236 66.3203 644.659 67.034 644.916 67.8116C645.169 68.5935 645.296 69.41 645.291 70.2309C645.237 71.871 644.868 73.4859 644.203 74.9896C643.556 76.4967 642.719 77.9172 641.713 79.2179C639.726 81.8373 637.227 84.036 634.366 85.684C632.943 86.5191 631.42 87.1756 629.833 87.6383C628.244 88.1123 626.578 88.2825 624.925 88.1396C624.099 88.0505 623.292 87.8297 622.537 87.4857C621.79 87.1422 621.124 86.6471 620.583 86.0327C620.863 86.3288 621.176 86.5921 621.516 86.8173C621.848 87.0504 622.205 87.2454 622.581 87.3985C623.333 87.7073 624.129 87.8961 624.94 87.958C626.566 88.06 628.196 87.8553 629.745 87.3549C631.3 86.8746 632.792 86.2137 634.19 85.3861C635.589 84.5642 636.903 83.6078 638.113 82.5309C639.338 81.4662 640.455 80.2861 641.448 79.0073C642.441 77.7327 643.279 76.3478 643.946 74.8806C644.629 73.4175 645.025 71.8398 645.114 70.2309C645.148 69.4266 645.051 68.6221 644.828 67.8479C644.772 67.6558 644.705 67.4666 644.63 67.2813C644.554 67.0926 644.469 66.9082 644.372 66.7291C644.176 66.3691 643.942 66.0306 643.674 65.7192V65.7192Z" fill="#67C4FB"/>
<path d="M637.143 81.4555C634.57 83.8331 631.398 85.484 627.959 86.236C624.286 86.9044 622.574 85.6911 621.869 84.9065C621.163 84.1218 620.15 82.2837 621.252 78.7674C623.747 72.1463 629.4 67.1796 636.342 65.5085C640.016 64.8401 641.735 66.0533 642.433 66.838C643.131 67.6226 644.152 69.4534 643.057 72.9771C641.885 76.2737 639.843 79.2008 637.143 81.4555Z" fill="url(#paint17_linear_690_53740)"/>
<path d="M627.959 86.2359C626.999 86.4727 626.009 86.5658 625.021 86.512C623.997 86.4532 623.011 86.1081 622.177 85.5167C621.76 85.2034 621.41 84.8106 621.149 84.3615C620.881 83.9105 620.687 83.4199 620.576 82.9085C620.374 81.911 620.374 80.8837 620.576 79.8862C620.973 77.9234 621.757 76.0571 622.883 74.3937C625.108 71.0682 628.172 68.3739 631.772 66.5764C633.562 65.678 635.51 65.1303 637.51 64.9635C638.538 64.8884 639.571 65.0118 640.552 65.3268C641.046 65.4942 641.51 65.7396 641.926 66.0533C642.348 66.3659 642.702 66.7587 642.969 67.2084C643.465 68.0952 643.694 69.1033 643.63 70.1145C643.574 71.0943 643.366 72.0596 643.013 72.977C643.065 72.7372 643.123 72.5047 643.167 72.2505C643.212 71.9962 643.263 71.7782 643.285 71.5239C643.351 71.0425 643.376 70.5564 643.358 70.0709C643.345 69.1295 643.07 68.2098 642.565 67.4119C642.033 66.6641 641.253 66.1242 640.361 65.8862C639.454 65.6449 638.51 65.5734 637.576 65.6755C635.676 65.9005 633.834 66.4746 632.147 67.3683C630.44 68.2436 628.853 69.33 627.423 70.6013C625.974 71.8548 624.695 73.2882 623.617 74.8659C622.52 76.4193 621.726 78.1612 621.274 80.0024C621.063 80.9052 621.023 81.8388 621.156 82.7559C621.294 83.6631 621.746 84.495 622.434 85.1098C623.177 85.7 624.069 86.077 625.013 86.1996C625.499 86.276 625.991 86.3076 626.483 86.2941C626.725 86.2941 626.967 86.2941 627.217 86.2941L627.959 86.2359Z" fill="#0670A6"/>
<path fill-rule="evenodd" clip-rule="evenodd" d="M631.398 78.5279H631.471L631.684 78.4843H631.736L631.993 78.4117H632.059L632.257 78.3317H632.323L632.573 78.2082H632.617L632.749 78.1283L632.808 78.0847L632.911 78.0193L633.058 77.9031L633.161 77.8232L633.212 77.7796L633.367 77.6343L633.521 77.4745L633.565 77.4236L633.646 77.3364L633.734 77.2202L633.778 77.1693C633.82 77.1195 633.857 77.066 633.888 77.0095C633.919 76.966 633.946 76.9198 633.969 76.8714L634.013 76.7915V76.7407C634.014 76.714 634.014 76.6874 634.013 76.6608C634.016 76.6439 634.016 76.6267 634.013 76.6099V76.5663V76.4791C634.016 76.4599 634.016 76.4402 634.013 76.421V76.3266V76.1377V76.0941C634.017 76.036 634.017 75.9778 634.013 75.9197C634.017 75.8519 634.017 75.784 634.013 75.7163V75.6582V75.4547C634.021 75.3629 634.021 75.2705 634.013 75.1787V71.7713V71.5388C634.017 71.4686 634.017 71.3983 634.013 71.3281C634 71.2601 633.978 71.1941 633.947 71.1319C633.92 71.0669 633.888 71.0038 633.851 70.9431L633.785 70.8413L633.367 70.2747L633.433 70.3764C633.469 70.4346 633.501 70.4953 633.528 70.558C633.528 70.5961 633.546 70.6343 633.563 70.6724C633.576 70.6997 633.588 70.7269 633.594 70.7542C633.617 70.8226 633.632 70.8932 633.638 70.9649V71.1973V74.6047C633.647 74.6966 633.647 74.7889 633.638 74.8808V75.0842V75.1423C633.642 75.2101 633.642 75.278 633.638 75.3458C633.642 75.4038 633.642 75.4621 633.638 75.5201V75.5637V75.7526V75.7962V75.8906C633.643 75.9098 633.643 75.9296 633.638 75.9488V76.0359C633.643 76.06 633.643 76.0845 633.638 76.1086C633.639 76.1255 633.639 76.1425 633.638 76.1595L633.602 76.2394V76.2902L633.55 76.3847V76.4283L633.462 76.5663C633.462 76.6002 633.429 76.6341 633.397 76.668C633.38 76.685 633.364 76.7019 633.352 76.7189L633.308 76.7697L633.22 76.886L633.124 76.9877L633.08 77.0385L632.926 77.1984L632.713 77.3873C632.684 77.4177 632.652 77.4445 632.617 77.4672L632.47 77.5834C632.433 77.6034 632.399 77.6278 632.367 77.6561L632.169 77.7723L631.919 77.8958H631.853L631.647 77.983H631.589L631.331 78.0629H631.28L631.067 78.1065H630.994H630.736C630 78.1684 629.278 77.8765 628.797 77.3219L628.709 77.2056L629.127 77.7796L629.216 77.8958C629.701 78.4446 630.42 78.7352 631.155 78.6805L631.398 78.5279ZM630.972 71.4516L631.06 71.3935L631.148 71.3426H631.192L631.332 71.2772C631.442 71.2351 631.559 71.2105 631.677 71.2046C631.76 71.1976 631.843 71.1976 631.927 71.2046C632.103 71.2274 632.265 71.3126 632.382 71.4443L631.956 70.8704C631.835 70.7379 631.672 70.6507 631.493 70.6234C631.412 70.6161 631.331 70.6161 631.251 70.6234C631.132 70.6293 631.016 70.6538 630.905 70.696L630.766 70.7614H630.722L630.648 70.805L630.56 70.8704H630.523C630.497 70.8927 630.472 70.917 630.45 70.943L625.66 75.7308L626.086 76.3047L630.869 71.5097L630.972 71.4516ZM635.115 74.2992L635.637 74.2629H635.703C635.935 74.2524 636.165 74.3026 636.371 74.4082C636.512 74.4834 636.634 74.5882 636.729 74.715L636.32 74.1612C636.224 74.0264 636.098 73.9147 635.953 73.8342C635.746 73.7308 635.515 73.6832 635.284 73.6962H635.218H634.696L634.41 73.7398L634.829 74.3137L635.115 74.2992ZM630.252 75.6144V75.7015C630.304 75.736 630.358 75.7675 630.413 75.796V75.8541V75.9776V76.043C630.423 76.0776 630.436 76.1116 630.45 76.1447V76.2101C630.471 76.2498 630.496 76.2881 630.522 76.3247L630.105 75.7524L630.061 75.6943C630.062 75.6749 630.062 75.6555 630.061 75.6362V75.5708C630.057 75.5369 630.057 75.5029 630.061 75.4691V75.4037V75.2802V75.222C630.057 75.1591 630.057 75.0961 630.061 75.0331V74.9823V74.9242C630.065 74.905 630.065 74.8852 630.061 74.866C630.065 74.8494 630.065 74.8319 630.061 74.8152L630.127 74.6554C630.149 74.607 630.176 74.5607 630.207 74.5173L630.31 74.3793L630.391 74.2921L630.457 74.2267L630.545 74.1613L630.634 74.1177H630.7H630.795H630.898H630.964H631.317H631.427L631.471 72.592L631.89 73.1587L631.846 74.6844H631.743H631.383H631.118H631.016H630.92H630.854L630.766 74.7353L630.67 74.8079L630.575 74.8951L630.494 74.9823C630.456 75.0252 630.421 75.0714 630.391 75.1203L630.31 75.2584C630.288 75.308 630.268 75.3589 630.252 75.4109C630.248 75.4253 630.248 75.4402 630.252 75.4545V75.5054C630.256 75.5245 630.256 75.5443 630.252 75.5635V75.6144ZM639.119 75.5345C639.116 75.5756 639.116 75.6169 639.119 75.658C639.112 75.687 638.928 75.8759 638.928 75.8759C638.932 75.9024 638.932 75.9294 638.928 75.9559C638.928 75.9662 638.934 75.9692 638.939 75.972C638.948 75.9771 638.957 75.9816 638.928 76.0285C638.884 76.1012 638.884 76.1738 638.884 76.2465V76.3119V76.4354C638.885 76.4596 638.885 76.4838 638.884 76.508L638.833 76.6461C638.83 76.6726 638.83 76.6994 638.833 76.726C638.829 76.7451 638.829 76.7649 638.833 76.7841C638.829 76.8081 638.829 76.8327 638.833 76.8567L638.789 76.9294L638.708 77.0674L638.671 77.1256C638.639 77.1816 638.602 77.235 638.561 77.2854L638.414 77.467C638.354 77.5383 638.29 77.6062 638.223 77.6704L633.264 82.5236L633.22 82.5744H633.168L633.117 82.618L633.043 82.6761H632.992L632.845 82.7561H632.801L632.61 82.836H632.441H632.389H632.198C631.656 82.8639 631.136 82.6177 630.817 82.1821L630.398 81.6154C630.719 82.0472 631.239 82.2903 631.78 82.262C631.843 82.2656 631.907 82.2656 631.971 82.262H632.022L632.191 82.2184L632.375 82.1458H632.426L632.573 82.0659H632.617H632.661L632.742 82.0078L632.794 81.9642L632.889 81.8842L637.848 77.0238C637.916 76.9596 637.979 76.8917 638.039 76.8204L638.194 76.6315L638.318 76.4572C638.32 76.4378 638.32 76.4184 638.318 76.399L638.399 76.261L638.443 76.1883L638.509 76.0576C638.507 76.031 638.507 76.0042 638.509 75.9777C638.561 75.9341 638.561 75.8905 638.561 75.8396V75.7742L638.605 75.6289V75.5563L638.649 75.3383V75.1858V75.084C638.646 75.0429 638.646 75.0016 638.649 74.9605V74.8588C638.653 74.8177 638.653 74.7764 638.649 74.7353V74.6336V74.5101V74.4156V74.2849V74.1977C638.652 74.1542 638.652 74.1104 638.649 74.0669C638.652 74.0379 638.652 74.0087 638.649 73.9797C638.635 73.9302 638.618 73.8817 638.598 73.8344C638.599 73.8102 638.599 73.786 638.598 73.7618C638.591 73.7466 638.584 73.731 638.577 73.7152C638.554 73.6631 638.53 73.6086 638.502 73.5583L638.928 74.1323L639.024 74.3357V74.4084L639.083 74.5537V74.6336C639.098 74.6762 639.11 74.7199 639.119 74.7644V74.8588V74.9896C639.116 75.021 639.116 75.0527 639.119 75.084C639.116 75.1251 639.116 75.1665 639.119 75.2075V75.3093C639.123 75.3504 639.123 75.3917 639.119 75.4328V75.5345Z" fill="#0670A6"/>
<path d="M625.586 75.6798L626.012 76.2537L625.594 75.6798" fill="#9A7D7C"/>
<path d="M625.652 75.7668L626.078 76.3408L626.012 76.2536L625.586 75.6797L625.652 75.7668Z" fill="#957978"/>
<path d="M638.186 73.2532L638.605 73.8271C638.649 73.8925 638.7 73.9579 638.744 74.0305L638.318 73.4566C638.282 73.3912 638.23 73.3186 638.186 73.2532Z" fill="#B89695"/>
<path d="M638.318 73.4566L638.744 74.0305C638.761 74.0659 638.781 74.1 638.803 74.1322L638.377 73.5583C638.36 73.5229 638.341 73.4889 638.318 73.4566Z" fill="#BD9A99"/>
<path d="M630.251 81.7607L630.67 82.3274L630.56 82.1894L630.141 81.6154L630.251 81.7607Z" fill="#957978"/>
<path d="M632.948 76.9511C633.653 76.3932 633.994 75.4987 633.837 74.619C633.845 74.5272 633.845 74.4348 633.837 74.3429V70.9356C633.844 70.4963 633.678 70.0713 633.374 69.7514C633.071 69.4405 632.663 69.2495 632.228 69.2137C632.074 69.1993 631.919 69.1993 631.765 69.2137C631.439 69.2338 631.119 69.3075 630.817 69.4317C630.345 69.6141 629.918 69.8968 629.568 70.2599L625.946 73.8925C625.404 74.3491 625.258 75.1173 625.594 75.7379L625.66 75.825L630.45 71.0373C630.601 70.8811 630.784 70.7574 630.986 70.674C631.097 70.6319 631.213 70.6073 631.331 70.6014C631.412 70.5941 631.493 70.5941 631.574 70.6014C631.752 70.6287 631.916 70.7159 632.037 70.8484C632.149 70.9878 632.202 71.1651 632.184 71.3424L632.125 74.6771C632.125 74.6771 632.125 74.8442 632.125 74.975C632.176 75.2983 632.06 75.6253 631.816 75.8468C631.574 76.0942 631.252 76.2487 630.905 76.2827C630.609 76.3099 630.317 76.1987 630.115 75.9821C629.913 75.7656 629.825 75.4684 629.877 75.1784C629.92 74.8585 630.07 74.562 630.303 74.3357C630.535 74.095 630.865 73.9719 631.199 74.0015H631.552H631.633L631.677 72.4758H631.39C630.588 72.4557 629.82 72.798 629.304 73.4057C628.771 73.9264 628.419 74.6003 628.297 75.331C628.18 76.0115 628.362 76.709 628.797 77.249C629.278 77.8036 630 78.0956 630.736 78.0337C631.584 77.9558 632.371 77.5701 632.948 76.9511Z" fill="#D4F7FF"/>
<path d="M638.377 73.5583C638.089 73.0346 637.646 72.611 637.106 72.345C636.597 72.1013 636.033 71.9912 635.468 72.0254H635.343L634.829 72.0762L634.329 72.1271L634.41 73.7545L634.696 73.7109H635.218H635.306C635.537 73.6979 635.768 73.7455 635.975 73.8489C636.186 73.9683 636.355 74.1482 636.46 74.3648C636.568 74.5911 636.599 74.8461 636.548 75.0913C636.496 75.3484 636.359 75.5811 636.158 75.7524L630.163 81.6154L630.274 81.7607C630.594 82.1925 631.114 82.4355 631.655 82.4073C632.08 82.3774 632.481 82.1998 632.786 81.906L637.745 77.0456C638.229 76.5857 638.557 75.9895 638.686 75.3383C638.786 74.7275 638.678 74.101 638.377 73.5583Z" fill="#D4F7FF"/>
</g>
<g opacity="0.75">
<path d="M604.315 69.7907H604.388C606.183 69.1436 607.653 67.8202 608.482 66.1042C609.17 64.7421 609.575 63.2551 609.672 61.7327C609.76 60.4276 609.671 59.1165 609.409 57.8349C609.156 56.5972 608.757 55.3939 608.22 54.2503C607.669 53.0703 606.965 51.968 606.125 50.9717C605.185 49.7934 604.022 48.8107 602.703 48.0793C600.908 47.0665 598.773 46.8423 596.807 47.46H596.734L592.443 48.9172L592.341 51.9043C591.836 53.1652 591.552 54.5034 591.501 55.8604C591.451 57.1597 591.569 58.4599 591.852 59.7292C591.979 60.2911 592.138 60.8456 592.326 61.3903C592.546 62.0387 592.809 62.6716 593.114 63.2846C593.695 64.4607 594.431 65.5537 595.303 66.534C596.127 67.464 597.092 68.2582 598.164 68.8873L600.076 71.1896L604.315 69.7907Z" fill="#056392"/>
<path d="M592.195 51.642L602.703 48.0793C600.908 47.0665 598.773 46.8423 596.806 47.46H596.733L592.443 48.9172L592.195 51.642Z" fill="#056392"/>
<path d="M604.315 69.7908H604.388C606.183 69.1437 607.653 67.8203 608.482 66.1042L598.324 69.5431L600.032 71.248L604.315 69.7908Z" fill="#52BEF4"/>
<path d="M591.45 55.8969L606.125 50.8916C605.177 49.7422 604.015 48.7871 602.703 48.0793L592.195 51.6348L592.297 51.9335C591.792 53.1944 591.508 54.5326 591.457 55.8896L591.45 55.8969Z" fill="#0670A6"/>
<path d="M591.8 59.7729L608.219 54.1775C607.669 52.9975 606.964 51.8952 606.125 50.8989L591.465 55.8969C591.415 57.1962 591.533 58.4964 591.815 59.7656L591.8 59.7729Z" fill="#0784C3"/>
<path d="M593.063 63.343L609.409 57.7767C609.156 56.539 608.757 55.3357 608.219 54.1921L591.801 59.7876C591.928 60.3495 592.086 60.9041 592.275 61.4487C592.495 62.0971 592.758 62.73 593.063 63.343Z" fill="#1296D9"/>
<path d="M595.252 66.5923L609.672 61.6745C609.76 60.3693 609.671 59.0582 609.409 57.7766L593.063 63.3429C593.644 64.5191 594.38 65.612 595.252 66.5923Z" fill="#26A9EB"/>
<path d="M598.324 69.543L608.489 66.075C609.177 64.713 609.582 63.226 609.679 61.7036L595.252 66.6215C596.076 67.5515 597.041 68.3457 598.113 68.9748L598.324 69.543Z" fill="#3BB4F1"/>
<ellipse cx="596.184" cy="60.1003" rx="9.38277" ry="11.7902" transform="rotate(-18.84 596.184 60.1003)" fill="url(#paint18_linear_690_53740)"/>
<path d="M599.995 71.226C600.647 70.9906 601.263 70.667 601.827 70.2642C602.39 69.8616 602.9 69.3891 603.345 68.8581C604.226 67.79 604.872 66.5489 605.242 65.2152C605.619 63.8872 605.777 62.5067 605.709 61.128C605.573 58.3603 604.66 55.6866 603.075 53.4124C602.281 52.2917 601.31 51.3074 600.2 50.4981C599.095 49.6625 597.823 49.0737 596.471 48.7714C595.796 48.6172 595.104 48.5535 594.413 48.582C593.72 48.6107 593.033 48.7282 592.37 48.9317C593.696 48.468 595.122 48.3674 596.5 48.6402C597.88 48.9204 599.183 49.4918 600.324 50.316C601.455 51.1378 602.442 52.1425 603.243 53.2885C604.052 54.436 604.696 55.6918 605.154 57.0188C605.62 58.3525 605.89 59.7463 605.957 61.1571C606.025 62.5603 605.853 63.9649 605.446 65.31C605.04 66.6493 604.359 67.8898 603.447 68.9528C602.522 70.0065 601.33 70.7917 599.995 71.226Z" fill="#67C4FB"/>
<path d="M603.834 57.4705C602.946 54.7586 601.14 52.44 598.726 50.9134C595.96 49.2304 593.749 49.5947 592.676 49.9589C591.604 50.3232 589.626 51.4161 588.466 54.4105C586.582 59.9567 588.68 66.0737 593.574 69.3025C596.34 70.9855 598.551 70.6285 599.623 70.2569C600.696 69.8854 602.674 68.7998 603.834 65.8127C604.809 63.1171 604.809 60.1661 603.834 57.4705Z" fill="url(#paint19_linear_690_53740)"/>
<path d="M598.748 50.8843C597.98 50.4562 597.158 50.135 596.303 49.9299C595.457 49.7421 594.583 49.7174 593.727 49.8571C593.301 49.9327 592.884 50.0574 592.487 50.2286C592.098 50.3972 591.728 50.6073 591.385 50.8552C590.694 51.3564 590.102 51.9815 589.641 52.6985C589.183 53.4197 588.825 54.199 588.575 55.0153C588.326 55.8282 588.169 56.6665 588.108 57.5143C588.052 58.3702 588.084 59.2295 588.203 60.0789C588.332 60.9425 588.545 61.7916 588.838 62.6144C589.121 63.4257 589.475 64.2107 589.896 64.9604C590.322 65.6809 590.815 66.3591 591.37 66.9858C591.94 67.6253 592.581 68.1973 593.282 68.6906C593.981 69.1829 594.742 69.5821 595.544 69.8782C596.349 70.165 597.2 70.2984 598.054 70.2716C598.478 70.261 598.899 70.2023 599.31 70.0968C599.722 69.9859 600.121 69.8295 600.499 69.6305C601.264 69.2224 601.941 68.6678 602.491 67.9985C603.04 67.3147 603.495 66.5599 603.841 65.7545C603.558 66.5962 603.153 67.3916 602.637 68.1151C602.107 68.8422 601.437 69.4564 600.667 69.9219C600.272 70.1506 599.854 70.3362 599.419 70.4756C598.981 70.6051 598.531 70.6881 598.076 70.7234C597.163 70.7814 596.246 70.6652 595.376 70.3809C593.65 69.7949 592.104 68.7735 590.888 67.4156C588.45 64.6866 587.221 61.0892 587.481 57.4415C587.609 55.6204 588.208 53.8635 589.217 52.3415C589.732 51.5863 590.386 50.936 591.144 50.4253C591.526 50.1745 591.935 49.9668 592.362 49.8061C592.788 49.6457 593.232 49.5357 593.683 49.4782C594.58 49.3776 595.487 49.4543 596.354 49.7041C597.206 49.9768 598.013 50.3746 598.748 50.8843Z" fill="#0670A6"/>
<path fill-rule="evenodd" clip-rule="evenodd" d="M597.573 53.7622H597.69L597.872 53.9152H597.952H598.011L598.208 54.0172L598.266 54.0609L598.375 54.1265L598.434 54.1702L598.551 54.2576L598.616 54.3086L598.667 54.3523L598.718 54.4106L598.784 54.4616L598.894 54.5782L598.937 54.6292C598.953 54.6474 598.968 54.6656 598.982 54.6834C599.008 54.7156 599.033 54.7468 599.061 54.7749L599.193 54.9643C599.207 54.987 599.222 55.0092 599.236 55.031C599.272 55.0863 599.307 55.14 599.339 55.1975L602.681 61.1572C602.678 61.1741 602.678 61.1913 602.681 61.2082V61.2665V61.3248L602.717 61.4122C602.714 61.4315 602.714 61.4512 602.717 61.4705V61.5142L602.761 61.6818V61.7255V61.9222V62.1189C602.758 62.1357 602.758 62.1531 602.761 62.1699V62.3594C602.645 62.8776 602.274 63.3023 601.776 63.4886L601.119 63.7291C601.619 63.545 601.99 63.1193 602.104 62.5998C602.109 62.5367 602.109 62.4734 602.104 62.4103C602.101 62.3935 602.101 62.3762 602.104 62.3594V62.1699C602.108 62.1044 602.108 62.0387 602.104 61.9732V61.9222L602.061 61.7619V61.7182V61.6599L602.024 61.5725V61.5069L601.973 61.3976L598.638 55.4233C598.594 55.343 598.545 55.2652 598.492 55.1902L598.354 54.9935C598.311 54.9368 598.265 54.8832 598.215 54.8332L598.171 54.7822L598.062 54.6656L597.996 54.6073L597.894 54.5126L597.828 54.4543L597.711 54.3669L597.653 54.3232L597.522 54.2431L597.463 54.2066L597.266 54.1046L597.128 54.0463L597.033 54.0026L596.916 53.9662H596.821H596.704H596.602H596.485H596.383H595.719L595.493 54.0026L596.15 53.7622H596.369H596.449H596.595H597.04H597.142H597.259H597.361H597.478H597.573ZM595.449 56.669L595.347 57.179V57.4559L594.69 57.6963V57.4194L594.793 56.9167V56.8584C594.837 56.6348 594.943 56.428 595.099 56.261C595.213 56.1425 595.353 56.0526 595.508 55.9987L596.132 55.7702C595.99 55.825 595.861 55.9104 595.756 56.0206C595.6 56.1849 595.494 56.3893 595.449 56.6107C595.446 56.63 595.446 56.6497 595.449 56.669ZM596.164 55.7583C596.154 55.7621 596.143 55.7661 596.132 55.7702L596.164 55.7583ZM591.545 60.334V60.283C591.542 60.2515 591.542 60.2198 591.545 60.1883C591.542 60.1544 591.542 60.1202 591.545 60.0863V60.0426V59.8968C591.527 59.7834 591.527 59.6678 591.545 59.5544C591.565 59.4746 591.592 59.3966 591.626 59.3213C591.694 59.1593 591.818 59.0274 591.976 58.9497L591.319 59.1901C591.163 59.266 591.038 59.3952 590.969 59.5544C590.937 59.6302 590.91 59.7081 590.888 59.7876C590.87 59.9034 590.87 60.0214 590.888 60.1373V60.2757C590.888 60.2927 590.888 60.3097 590.888 60.3267V60.4068C590.885 60.4212 590.885 60.4362 590.888 60.4506C590.886 60.4821 590.886 60.5138 590.888 60.5453V60.589C590.903 60.622 590.92 60.6537 590.94 60.6837L594.26 66.4613L594.917 66.2136L591.611 60.4287C591.586 60.3997 591.563 60.3679 591.545 60.334ZM595.406 62.1261H595.333H595.281H595.23H595.187H595.15L595.019 62.0241C594.976 61.989 594.937 61.95 594.902 61.9075L594.8 61.7764L594.734 61.6744C594.734 61.647 594.717 61.6225 594.701 61.5991C594.691 61.5851 594.681 61.5715 594.676 61.5578C594.66 61.5226 594.648 61.486 594.639 61.4485V61.3611C594.636 61.3394 594.636 61.3173 594.639 61.2955C594.635 61.2641 594.635 61.2323 594.639 61.2008V61.1061V61.026V60.9094C594.639 60.9094 594.683 60.6981 594.712 60.5743C594.732 60.4887 594.725 60.4831 594.718 60.4782C594.715 60.476 594.712 60.474 594.712 60.465L593.253 60.0278L592.596 60.2683L594.056 60.7127V60.8147L593.983 61.1571V61.2664V61.3465V61.4485C593.979 61.48 593.979 61.5118 593.983 61.5433C593.979 61.5674 593.979 61.592 593.983 61.6161V61.7108C593.978 61.7447 593.978 61.779 593.983 61.8128L594.026 61.893L594.092 61.995C594.122 62.044 594.156 62.0904 594.194 62.1334L594.311 62.2427L594.442 62.3447H594.486H594.537H594.588H594.639L594.822 62.403H594.88H594.997H595.172H595.245H595.406H595.479L596.135 62.1553H596.004H595.931H595.756H595.632H595.581C595.521 62.1527 595.463 62.1429 595.406 62.1261ZM598.412 61.7985V61.7256V61.5071V61.4634V61.2011V61.1355V60.9169V60.8514C598.412 60.8295 598.412 60.6692 598.361 60.5818C598.358 60.5674 598.358 60.5525 598.361 60.5381L598.317 60.3851V60.3195L598.273 60.2029L598.208 60.0354L598.149 59.9188V59.8605L598.047 59.6784L597.938 59.4889L597.901 59.4306L597.836 59.3359L597.748 59.2194L597.711 59.1684C597.696 59.1502 597.681 59.132 597.667 59.1142L597.667 59.1142L597.667 59.1142C597.641 59.0819 597.616 59.0508 597.587 59.0226L597.485 58.9061H597.449L597.383 58.8478H597.339L597.274 58.7895H597.223H597.186L597.106 58.7458H597.062C597.036 58.7255 597.006 58.7107 596.974 58.7021C596.921 58.6739 596.865 58.6519 596.807 58.6365H596.763L596.595 58.5855L596.398 58.5345H596.347L596.15 58.4835L595.88 58.4179L592.487 57.2522L592.26 57.2085H592.049H592.005H591.808H591.611H591.501L590.845 57.4489H590.961L591.159 57.4052H591.195H591.392H591.436H591.647C591.724 57.4127 591.8 57.4274 591.874 57.4489L595.121 58.3524L595.391 58.4252L595.588 58.4689H595.639L595.836 58.5126L596.004 58.5636H596.048L596.216 58.6292H596.259L596.347 58.6729H596.391C596.42 58.6855 596.447 58.7028 596.471 58.7239L596.537 58.7604H596.58L596.646 58.8114H596.69L596.763 58.8842H596.799L596.901 59.0008L597.026 59.1538L597.062 59.2048L597.15 59.3214L597.223 59.4306C597.232 59.4516 597.244 59.4712 597.259 59.4889L597.369 59.6784C597.399 59.7307 597.424 59.7804 597.449 59.8291L597.449 59.8291L597.449 59.8291C597.466 59.8617 597.482 59.8939 597.5 59.9261C597.514 59.9662 597.531 60.0052 597.551 60.0426L597.595 60.4288L597.639 60.5454L597.704 60.7566C597.7 60.7734 597.7 60.7909 597.704 60.8076C597.704 60.8951 597.704 60.9825 597.755 61.0772C597.789 61.1404 597.778 61.1387 597.767 61.1371C597.761 61.1363 597.755 61.1355 597.755 61.1428V61.3541V61.4196V61.6819V61.7329V61.9515C597.752 61.9732 597.752 61.9954 597.755 62.0171L597.711 62.2721C597.572 62.9809 597.103 63.5812 596.449 63.8895L596.318 63.9405L596.974 63.7001L597.106 63.6418C597.76 63.3335 598.229 62.7331 598.368 62.0244C598.39 61.9661 598.405 61.8859 598.412 61.7985Z" fill="#0670A6"/>
<path d="M594.18 66.5194L594.836 66.279L594.18 66.5267" fill="#9A7D7C"/>
<path d="M594.274 66.4831L594.931 66.2354L594.836 66.2791L594.179 66.5195L594.274 66.4831Z" fill="#957978"/>
<path d="M595.15 54.0099L595.807 53.7622L596.04 53.6894L595.383 53.9298L595.15 54.0099Z" fill="#B89695"/>
<path d="M595.405 53.9298L596.062 53.6894H596.171L595.515 53.9298H595.405Z" fill="#BD9A99"/>
<path d="M601.192 63.7291L601.849 63.4886L601.688 63.5542L601.032 63.7946L601.192 63.7291Z" fill="#957978"/>
<path d="M597.31 59.9187C596.962 59.1062 596.199 58.5476 595.318 58.4616L595.048 58.3887L591.801 57.5145C591.383 57.3882 590.932 57.4301 590.545 57.631C590.173 57.8448 589.885 58.1789 589.728 58.5782C589.665 58.7053 589.612 58.8368 589.568 58.9716C589.513 59.2849 589.513 59.6054 589.568 59.9187C589.617 60.4139 589.777 60.8917 590.035 61.3176L592.516 65.689C592.805 66.3294 593.511 66.6725 594.194 66.505H594.289L590.969 60.7275C590.86 60.5446 590.79 60.3411 590.764 60.13C590.746 60.0142 590.746 59.8962 590.764 59.7803C590.786 59.7008 590.812 59.6229 590.845 59.5472C590.914 59.3879 591.038 59.2587 591.195 59.1829C591.358 59.1132 591.543 59.1132 591.706 59.1829L594.873 60.1155L595.157 60.2029C595.472 60.2479 595.744 60.4439 595.887 60.7275C596.056 61.0204 596.118 61.3629 596.062 61.6965C596.014 61.9843 595.832 62.2323 595.572 62.3657C595.312 62.4991 595.004 62.5022 594.741 62.374C594.432 62.2578 594.173 62.0358 594.012 61.7475C593.84 61.4668 593.807 61.1225 593.924 60.8149L593.997 60.4725V60.3705L592.538 59.926L592.486 60.2102C592.27 60.9544 592.399 61.7561 592.837 62.3959C593.189 63.0405 593.742 63.5523 594.413 63.853C595.036 64.1292 595.746 64.1292 596.369 63.853C597.023 63.5448 597.492 62.9444 597.631 62.2356C597.804 61.4498 597.69 60.6283 597.31 59.9187Z" fill="#D4F7FF"/>
<path d="M595.493 53.8715C594.929 54.0137 594.421 54.3207 594.034 54.7531C593.672 55.1699 593.421 55.6711 593.304 56.2102V56.3341L593.216 56.8295L593.136 57.3177L594.712 57.6674V57.3905L594.814 56.8878C594.814 56.8878 594.814 56.8441 594.814 56.8295C594.859 56.6059 594.965 56.3991 595.121 56.2321C595.289 56.0626 595.506 55.9504 595.741 55.9115C595.989 55.8675 596.245 55.9033 596.471 56.0135C596.703 56.1335 596.89 56.3252 597.004 56.5599L601.061 63.7655L601.221 63.6999C601.699 63.5163 602.056 63.1108 602.177 62.6144C602.263 62.2048 602.198 61.778 601.995 61.4122L598.653 55.4598C598.339 54.8818 597.855 54.4139 597.266 54.1192C596.719 53.8442 596.095 53.7572 595.493 53.8715Z" fill="#D4F7FF"/>
</g>
<path d="M142.72 96H154.12V72L164.8 88.32H165.04L175.78 71.88V96H187.36V54H175.06L165.04 70.26L155.02 54H142.72V96Z" fill="white"/>
<path d="M194.81 96H210.77C225.89 96 234.71 87 234.71 74.88V74.76C234.71 62.64 226.01 54 211.01 54H194.81V96ZM206.45 85.68V64.32H211.19C218.15 64.32 222.77 68.22 222.77 74.94V75.06C222.77 81.84 218.15 85.68 211.19 85.68H206.45Z" fill="white"/>
<path d="M240.689 96H274.769V86.1H252.209V79.44H272.369V70.26H252.209V63.9H274.469V54H240.689V96Z" fill="white"/>
<path d="M277.648 96H290.729L298.828 83.34L306.868 96H320.248L305.848 74.52L319.648 54H306.568L299.068 65.82L291.628 54H278.248L292.048 74.64L277.648 96Z" fill="white"/>
<defs>
<linearGradient id="paint0_linear_690_53740" x1="846.918" y1="214.381" x2="846.918" y2="2.04389" gradientUnits="userSpaceOnUse">
<stop stop-color="#113658"/>
<stop offset="1" stop-color="#136594"/>
</linearGradient>
<linearGradient id="paint1_linear_690_53740" x1="529.727" y1="99.9622" x2="529.727" y2="23" gradientUnits="userSpaceOnUse">
<stop stop-color="#135681"/>
<stop offset="0.0001" stop-color="#124C73"/>
<stop offset="1" stop-color="#2F84B5"/>
</linearGradient>
<linearGradient id="paint2_linear_690_53740" x1="437.175" y1="150.462" x2="599.825" y2="150.462" gradientUnits="userSpaceOnUse">
<stop stop-color="#FF914F"/>
<stop offset="0.440184" stop-color="#FF773A" stop-opacity="0.205372"/>
<stop offset="1" stop-color="#FF6930" stop-opacity="0.01"/>
</linearGradient>
<linearGradient id="paint3_linear_690_53740" x1="486.895" y1="215.685" x2="539.105" y2="215.685" gradientUnits="userSpaceOnUse">
<stop stop-color="#35FFE3"/>
<stop offset="1" stop-color="#35FFE3" stop-opacity="0.01"/>
</linearGradient>
<linearGradient id="paint4_linear_690_53740" x1="455.269" y1="215.322" x2="534.731" y2="215.322" gradientUnits="userSpaceOnUse">
<stop stop-color="#FF914F"/>
<stop offset="0.27" stop-color="#FF914F" stop-opacity="0.99"/>
<stop offset="0.4" stop-color="#FF8F4E" stop-opacity="0.96"/>
<stop offset="0.51" stop-color="#FF8D4C" stop-opacity="0.91"/>
<stop offset="0.6" stop-color="#FF8A4A" stop-opacity="0.83"/>
<stop offset="0.69" stop-color="#FF8647" stop-opacity="0.74"/>
<stop offset="0.76" stop-color="#FF8243" stop-opacity="0.62"/>
<stop offset="0.83" stop-color="#FF7C3F" stop-opacity="0.48"/>
<stop offset="0.9" stop-color="#FF753A" stop-opacity="0.31"/>
<stop offset="0.96" stop-color="#FF6E34" stop-opacity="0.13"/>
<stop offset="1" stop-color="#FF6930" stop-opacity="0.01"/>
</linearGradient>
<linearGradient id="paint5_linear_690_53740" x1="694.917" y1="215.756" x2="740.083" y2="215.756" gradientUnits="userSpaceOnUse">
<stop stop-color="#35FFE3" stop-opacity="0.01"/>
<stop offset="1" stop-color="#35FFE3"/>
</linearGradient>
<linearGradient id="paint6_linear_690_53740" x1="696.269" y1="215.307" x2="778.731" y2="215.307" gradientUnits="userSpaceOnUse">
<stop stop-color="#FF6930" stop-opacity="0.01"/>
<stop offset="0.04" stop-color="#FF6E34" stop-opacity="0.13"/>
<stop offset="0.1" stop-color="#FF753A" stop-opacity="0.31"/>
<stop offset="0.17" stop-color="#FF7C3F" stop-opacity="0.48"/>
<stop offset="0.24" stop-color="#FF8243" stop-opacity="0.62"/>
<stop offset="0.31" stop-color="#FF8647" stop-opacity="0.74"/>
<stop offset="0.4" stop-color="#FF8A4A" stop-opacity="0.83"/>
<stop offset="0.49" stop-color="#FF8D4C" stop-opacity="0.91"/>
<stop offset="0.6" stop-color="#FF8F4E" stop-opacity="0.96"/>
<stop offset="0.73" stop-color="#FF914F" stop-opacity="0.99"/>
<stop offset="1" stop-color="#FF914F"/>
</linearGradient>
<linearGradient id="paint7_linear_690_53740" x1="641.177" y1="95.4687" x2="788.823" y2="95.4687" gradientUnits="userSpaceOnUse">
<stop stop-color="#2BCBB4" stop-opacity="0.01"/>
<stop offset="0.756255" stop-color="#2BCBB4" stop-opacity="0.5"/>
<stop offset="1" stop-color="#2BCBB4"/>
</linearGradient>
<linearGradient id="paint8_linear_690_53740" x1="536" y1="199.482" x2="696.451" y2="199.482" gradientUnits="userSpaceOnUse">
<stop stop-color="#43B9F4"/>
<stop stop-color="#1172C1"/>
<stop offset="0.99" stop-color="#094C6D"/>
</linearGradient>
<linearGradient id="paint9_linear_690_53740" x1="663.004" y1="170" x2="663.004" y2="4" gradientUnits="userSpaceOnUse">
<stop stop-color="#4BBEFF" stop-opacity="0.2"/>
<stop offset="1" stop-color="white" stop-opacity="0.01"/>
</linearGradient>
<linearGradient id="paint10_linear_690_53740" x1="617.739" y1="148.122" x2="648.223" y2="155.573" gradientUnits="userSpaceOnUse">
<stop stop-color="#61C8FB"/>
<stop offset="1" stop-color="#1296D9"/>
</linearGradient>
<linearGradient id="paint11_linear_690_53740" x1="660.422" y1="118.5" x2="630.469" y2="113.2" gradientUnits="userSpaceOnUse">
<stop stop-color="#0784C3"/>
<stop offset="1" stop-color="#49B5EC"/>
</linearGradient>
<linearGradient id="paint12_linear_690_53740" x1="572.262" y1="115.505" x2="604.139" y2="132.004" gradientUnits="userSpaceOnUse">
<stop stop-color="#61C8FB"/>
<stop offset="1" stop-color="#1296D9"/>
</linearGradient>
<linearGradient id="paint13_linear_690_53740" x1="616.414" y1="93.901" x2="591.121" y2="89.4309" gradientUnits="userSpaceOnUse">
<stop stop-color="#0784C3"/>
<stop offset="1" stop-color="#49B5EC"/>
</linearGradient>
<linearGradient id="paint14_linear_690_53740" x1="621.99" y1="31.4029" x2="631.689" y2="44.0206" gradientUnits="userSpaceOnUse">
<stop stop-color="#61C8FB"/>
<stop offset="1" stop-color="#1296D9"/>
</linearGradient>
<linearGradient id="paint15_linear_690_53740" x1="638.499" y1="26.2312" x2="626.159" y2="24.0845" gradientUnits="userSpaceOnUse">
<stop stop-color="#0784C3"/>
<stop offset="1" stop-color="#49B5EC"/>
</linearGradient>
<linearGradient id="paint16_linear_690_53740" x1="609.61" y1="81.4262" x2="634.849" y2="98.8726" gradientUnits="userSpaceOnUse">
<stop stop-color="#1296D9"/>
<stop offset="0.765625" stop-color="#61C8FB"/>
</linearGradient>
<linearGradient id="paint17_linear_690_53740" x1="651.202" y1="66.2196" x2="627.429" y2="60.5485" gradientUnits="userSpaceOnUse">
<stop stop-color="#49B5EC"/>
<stop offset="1" stop-color="#0784C3"/>
</linearGradient>
<linearGradient id="paint18_linear_690_53740" x1="595.392" y1="71.5139" x2="590.494" y2="48.3206" gradientUnits="userSpaceOnUse">
<stop stop-color="#1296D9"/>
<stop offset="1" stop-color="#61C8FB"/>
</linearGradient>
<linearGradient id="paint19_linear_690_53740" x1="591.389" y1="52.0419" x2="600.607" y2="68.3837" gradientUnits="userSpaceOnUse">
<stop stop-color="#49B5EC"/>
<stop offset="1" stop-color="#0784C3"/>
</linearGradient>
</defs>
</svg>
