<svg width="356" height="125" viewBox="0 0 356 125" fill="none" xmlns="http://www.w3.org/2000/svg">
<rect y="15" width="343" height="110" rx="20" fill="url(#paint0_linear_22_51428)"/>
<mask id="mask0_22_51428" style="mask-type:luminance" maskUnits="userSpaceOnUse" x="0" y="15" width="343" height="110">
<rect y="15" width="343" height="110" rx="20" fill="white"/>
</mask>
<g mask="url(#mask0_22_51428)">
<path opacity="0.41" d="M211.562 100.654C212.001 100.469 212.506 100.675 212.691 101.114C212.865 101.527 212.693 101.999 212.306 102.207L212.231 102.243L197.525 108.43L204.842 108.431C205.739 108.431 206.025 109.614 205.275 110.038L205.202 110.076L183.521 120.048C183.089 120.247 182.577 120.057 182.378 119.625C182.19 119.217 182.347 118.74 182.727 118.519L182.801 118.481L200.903 110.155L193.254 110.155C192.342 110.155 192.069 108.94 192.844 108.534L192.92 108.498L211.562 100.654Z" fill="url(#paint1_linear_22_51428)"/>
<path opacity="0.41" d="M209.446 99.1697C209.753 99.0861 210.069 99.2666 210.152 99.5728C210.23 99.8571 210.08 100.15 209.813 100.257L209.749 100.279L172.921 110.335L182.7 110.336C183.293 110.336 183.486 111.111 183.002 111.4L182.943 111.431L165.013 119.785C164.725 119.919 164.383 119.795 164.249 119.507C164.125 119.24 164.223 118.926 164.468 118.775L164.527 118.743L180.106 111.484L168.634 111.485C167.988 111.485 167.846 110.599 168.417 110.378L168.483 110.356L209.446 99.1697Z" fill="url(#paint2_linear_22_51428)"/>
<path opacity="0.41" d="M301.89 101.731C302.042 101.31 302.488 101.079 302.914 101.187L302.993 101.212L323.729 108.671C324.611 108.988 324.416 110.266 323.52 110.341L323.437 110.344L312.213 110.344L327.813 118.5C328.21 118.708 328.378 119.182 328.213 119.588L328.178 119.664C327.97 120.061 327.497 120.229 327.09 120.063L327.014 120.028L308.305 110.246C307.53 109.841 307.786 108.692 308.624 108.623L308.704 108.62L318.493 108.62L302.409 102.834C301.988 102.682 301.757 102.236 301.866 101.811L301.89 101.731Z" fill="url(#paint3_linear_22_51428)"/>
<path opacity="0.41" d="M302.719 99.5824C302.792 99.2967 303.067 99.1161 303.352 99.1544L303.418 99.1672L344.686 109.672C345.321 109.834 345.226 110.742 344.609 110.801L344.538 110.803L333.482 110.684L350.079 118.747C350.344 118.876 350.465 119.182 350.37 119.454L350.345 119.516C350.216 119.781 349.91 119.902 349.638 119.807L349.576 119.781L330.677 110.6C330.146 110.342 330.307 109.562 330.868 109.511L330.934 109.508L339.754 109.602L303.134 100.281C302.849 100.208 302.668 99.9335 302.706 99.6483L302.719 99.5824Z" fill="url(#paint4_linear_22_51428)"/>
</g>
<g opacity="0.667528">
<path d="M17.7361 51H23.0561V39.8L28.0401 47.416H28.1521L33.1641 39.744V51H38.5681V31.4H32.8281L28.1521 38.988L23.4761 31.4H17.7361V51Z" fill="url(#paint5_linear_22_51428)"/>
<path d="M42.0447 51H49.4927C56.5487 51 60.6647 46.8 60.6647 41.144V41.088C60.6647 35.432 56.6047 31.4 49.6047 31.4H42.0447V51ZM47.4767 46.184V36.216H49.6887C52.9367 36.216 55.0927 38.036 55.0927 41.172V41.228C55.0927 44.392 52.9367 46.184 49.6887 46.184H47.4767Z" fill="url(#paint6_linear_22_51428)"/>
<path d="M63.4548 51H79.3588V46.38H68.8308V43.272H78.2388V38.988H68.8308V36.02H79.2188V31.4H63.4548V51Z" fill="url(#paint7_linear_22_51428)"/>
<path d="M80.7026 51H86.8066L90.5866 45.092L94.3386 51H100.583L93.8626 40.976L100.303 31.4H94.1986L90.6986 36.916L87.2266 31.4H80.9826L87.4226 41.032L80.7026 51Z" fill="url(#paint8_linear_22_51428)"/>
<path d="M102.106 51H107.65V45.54H102.106V51Z" fill="url(#paint9_linear_22_51428)"/>
<path d="M119.184 51.392C123.524 51.392 126.016 49.516 127.864 46.968L123.776 44.056C122.6 45.484 121.396 46.436 119.352 46.436C116.608 46.436 114.676 44.14 114.676 41.2V41.144C114.676 38.288 116.608 35.964 119.352 35.964C121.228 35.964 122.516 36.86 123.636 38.26L127.724 35.096C125.988 32.688 123.412 31.008 119.408 31.008C113.472 31.008 109.076 35.488 109.076 41.2V41.256C109.076 47.108 113.584 51.392 119.184 51.392Z" fill="url(#paint10_linear_22_51428)"/>
<path d="M139.51 51.392C145.558 51.392 150.094 46.828 150.094 41.2V41.144C150.094 35.516 145.614 31.008 139.566 31.008C133.518 31.008 128.982 35.572 128.982 41.2V41.256C128.982 46.884 133.462 51.392 139.51 51.392ZM139.566 46.492C136.598 46.492 134.554 44.028 134.554 41.2V41.144C134.554 38.316 136.542 35.908 139.51 35.908C142.506 35.908 144.55 38.372 144.55 41.2V41.256C144.55 44.084 142.562 46.492 139.566 46.492Z" fill="url(#paint11_linear_22_51428)"/>
<path d="M152.924 51H158.244V39.8L163.228 47.416H163.34L168.352 39.744V51H173.756V31.4H168.016L163.34 38.988L158.664 31.4H152.924V51Z" fill="url(#paint12_linear_22_51428)"/>
</g>
<path d="M244.867 61.7922C245.295 61.1275 246.182 60.936 246.846 61.3645C247.511 61.793 247.703 62.6792 247.274 63.3439C246.875 63.9624 246.478 64.5686 246.082 65.1626L245.488 66.0442C245.291 66.3351 245.093 66.6228 244.896 66.9076L244.307 67.7526C235.473 80.2907 227.247 86.6731 219.414 87.8557C212.708 88.8682 207.033 86.2105 201.197 80.7473L200.871 80.4391L200.424 79.9992L199.47 79.0354L196.425 75.9209L195.651 75.1419L195.285 74.7808L195.056 74.5606L194.821 74.3452C194.805 74.3314 194.79 74.3185 194.776 74.3068C188.302 68.4194 182.128 66.5409 176.197 67.9063C171.419 69.0063 166.927 72.1765 162.843 76.7973C161.005 78.8769 159.375 81.1109 157.975 83.3445C157.547 84.0277 157.168 84.6674 156.84 85.2504L156.63 85.6285L156.437 85.9846L156.282 86.284C155.929 86.9918 155.069 87.2796 154.361 86.9268C153.654 86.5741 153.366 85.7143 153.719 85.0065L153.857 84.7381L154.129 84.2326L154.196 84.11C154.579 83.4182 155.031 82.6497 155.549 81.8234C157.027 79.465 158.748 77.107 160.697 74.9008C165.142 69.8721 170.104 66.3704 175.555 65.1155C182.445 63.5293 189.563 65.6952 196.661 72.1509L196.772 72.2479L196.907 72.3715L197.243 72.6911L197.544 72.9861L198.247 73.6894L198.908 74.359L201.933 77.4539L202.628 78.1521L202.915 78.431C208.264 83.5085 213.239 85.8916 218.987 85.0239C223.471 84.3469 228.242 81.6326 233.324 76.5763L233.851 76.0449C235.963 73.8857 238.129 71.3237 240.35 68.3373L240.907 67.5818C242.208 65.7984 243.528 63.87 244.867 61.7922Z" fill="url(#paint13_linear_22_51428)"/>
<path d="M279.684 42.7887C280.043 42.4554 280.402 42.129 280.761 41.8096L281.301 41.336C281.66 41.0238 282.02 40.7188 282.38 40.4212L282.92 39.9803C289.943 34.3208 297.029 31.4939 303.858 32.807C305.484 33.1198 307.069 33.671 308.606 34.4684C308.875 34.6081 309.142 34.7499 309.407 34.8945L309.937 35.1872C310.288 35.385 310.639 35.588 310.989 35.7974L311.514 36.1163C311.69 36.2242 311.865 36.3339 312.041 36.4455L312.571 36.7857C312.926 37.0164 313.283 37.255 313.645 37.5025L314.191 37.8807C314.283 37.9449 314.375 38.0096 314.467 38.075L315.026 38.4747L315.596 38.8898C315.691 38.9603 315.788 39.0315 315.884 39.1033L316.471 39.5429L317.072 39.9998C317.173 40.0775 317.275 40.1559 317.377 40.235L318 40.7194L318.64 41.223L319.298 41.7467L324.612 46.0622L325.378 46.6722L325.957 47.1266L326.513 47.5572L327.05 47.9659L327.57 48.3546L328.076 48.7251C328.159 48.7855 328.242 48.8452 328.324 48.9042L328.814 49.2513C328.895 49.3079 328.976 49.3641 329.056 49.4197C337.93 55.5547 344.589 55.4535 353.325 46.9496C353.892 46.398 354.798 46.4102 355.35 46.9769C355.902 47.5436 355.889 48.4501 355.323 49.0018C345.542 58.5223 337.366 58.6466 327.427 51.7753L326.919 51.4192L326.402 51.0493C326.316 50.9864 326.228 50.9228 326.141 50.8585L325.608 50.4642C325.518 50.397 325.427 50.329 325.336 50.2601L324.78 49.8369L324.205 49.3919C324.107 49.3159 324.009 49.2388 323.909 49.1607L322.73 48.2234L318.518 44.796L317.851 44.2571L317.203 43.7393L316.5 43.1826L315.819 42.6504L315.157 42.1414C315.048 42.0584 314.941 41.9764 314.833 41.8953L314.199 41.4193C313.885 41.1865 313.578 40.9614 313.275 40.7435L312.676 40.3171C312.479 40.178 312.283 40.0418 312.088 39.9085L311.51 39.5169C310.265 38.6859 309.073 37.9664 307.853 37.3094L307.287 37.0105C305.995 36.34 304.672 35.8799 303.317 35.6194C297.438 34.4887 291.021 37.0916 284.531 42.3628L284.005 42.796C283.566 43.1618 283.127 43.5397 282.688 43.9294L282.161 44.4025C281.985 44.5621 281.809 44.7235 281.634 44.8868C279.35 47.0083 277.239 49.2855 275.356 51.5624C275.109 51.8609 274.872 52.1514 274.647 52.4327L274.212 52.9827C274.071 53.1618 273.936 53.3365 273.806 53.5066L273.417 54.0211L273.163 54.3659L273.017 54.5692C272.562 55.2163 271.669 55.3722 271.022 54.9175C270.375 54.4628 270.219 53.5697 270.674 52.9226L270.932 52.5644L271.12 52.3109L271.33 52.0308C271.461 51.8575 271.598 51.6792 271.739 51.4965L272.179 50.9348C272.482 50.5517 272.806 50.1516 273.149 49.7369C275.108 47.3693 277.302 45.002 279.684 42.7887Z" fill="url(#paint14_linear_22_51428)"/>
<ellipse opacity="0.14" cx="256.497" cy="115.619" rx="48.9951" ry="5.65263" fill="#FFCC3E"/>
<path d="M292.212 111.043C283.825 110.058 270.945 109.427 256.497 109.427C242.048 109.427 229.173 110.058 220.781 111.043H210.716V113.736C210.716 116.115 231.206 118.044 256.48 118.044C281.754 118.044 302.265 116.136 302.265 113.736V111.043H292.212Z" fill="#FFCC3E"/>
<path d="M301.935 110.534L293.919 98.1221H216.385L210.875 110.709C210.791 110.796 210.741 110.91 210.733 111.03C210.733 113.41 231.223 115.339 256.497 115.339C281.771 115.339 302.265 113.41 302.265 111.03C302.232 110.825 302.112 110.643 301.935 110.534Z" fill="url(#paint15_linear_22_51428)"/>
<mask id="mask1_22_51428" style="mask-type:luminance" maskUnits="userSpaceOnUse" x="210" y="98" width="93" height="18">
<path d="M301.935 110.534L293.919 98.1221H216.385L210.875 110.709C210.791 110.796 210.741 110.91 210.733 111.03C210.733 113.41 231.223 115.339 256.497 115.339C281.771 115.339 302.265 113.41 302.265 111.03C302.232 110.825 302.112 110.643 301.935 110.534Z" fill="white"/>
</mask>
<g mask="url(#mask1_22_51428)">
<path d="M219.359 98.8035L219.875 99.0521L216.372 106.32L215.856 106.072L219.359 98.8035Z" fill="#FFCC3E"/>
<path d="M227.098 107.248L233.009 104.024L257.319 105.104L257.294 105.676L233.143 104.602L227.206 107.841L212.036 105.674L212.118 105.107L227.098 107.248Z" fill="#FFCC3E"/>
<path d="M224.839 114.842L231.381 110.485L252.207 111.581V116.428H251.635L251.635 112.124L231.54 111.067L225.157 115.318L224.839 114.842Z" fill="#FFCC3E"/>
<path d="M258.02 102.159V115.89H257.02V102.159H258.02Z" fill="#FFCC3E"/>
<path d="M298.192 103.49L298.263 104.059L280.939 106.195L279.009 109.442L257.314 109.985L257.299 109.412L278.678 108.878L280.59 105.662L298.192 103.49Z" fill="#FFCC3E"/>
<path d="M286.112 99.9124L287.828 104.943L287.286 105.128L285.57 100.097L286.112 99.9124Z" fill="#FFCC3E"/>
<path d="M302.466 108.343L302.597 108.9L293.556 111.028L291.465 114.162L290.988 113.844L293.205 110.523L302.466 108.343Z" fill="#FFCC3E"/>
</g>
<ellipse cx="255.152" cy="98.1221" rx="38.7669" ry="4.037" fill="#FFE7AB"/>
<rect x="226.722" y="3" width="56.8562" height="94.9426" fill="url(#paint16_linear_22_51428)"/>
<ellipse cx="255.152" cy="98.122" rx="28.4302" ry="2.42136" fill="#E9A16D"/>
<path d="M255.152 95.6798C239.451 95.6798 226.722 96.7653 226.722 98.1054C226.722 98.3016 227.006 98.4936 227.524 98.6773C227.468 98.6365 227.432 98.5746 227.423 98.5062C227.423 97.3915 239.839 96.4897 255.152 96.4897C270.465 96.4897 282.881 97.3915 282.881 98.5062C282.871 98.5749 282.833 98.6366 282.777 98.6773C283.298 98.4936 283.578 98.3016 283.578 98.1054C283.578 96.782 270.854 95.6798 255.152 95.6798Z" fill="#C67A46"/>
<circle cx="200.396" cy="63.196" r="1.88282" fill="#B7810B"/>
<circle cx="296.418" cy="21.5112" r="2" fill="#B7810B"/>
<circle cx="305.147" cy="15.4742" r="3.49845" fill="#B7810B"/>
<circle cx="190.001" cy="55.4373" r="3.49845" fill="#604B0C"/>
<circle cx="216.511" cy="7.50263" r="1.61563" fill="#604B0C"/>
<circle cx="219.742" cy="13.4266" r="1.07709" fill="#604B0C"/>
<circle cx="304.204" cy="85.8775" r="1.34427" fill="#604B0C"/>
<circle cx="312.011" cy="77.5321" r="2.15418" fill="#604B0C"/>
<circle cx="270.288" cy="56.9043" r="1.50709" fill="#B7810B"/>
<circle cx="246.788" cy="81.2894" r="2.15418" fill="#B7810B"/>
<circle cx="239.077" cy="90.2256" r="1.07709" fill="#B7810B"/>
<path d="M258.3 67.9855V67.9855L258.245 68.0231C256.897 68.9541 256.158 70.528 255.962 72.4651C255.846 74.0293 256.019 75.6014 256.471 77.1032V77.1032C256.86 78.45 257.398 79.7494 258.074 80.9774V80.9774C258.431 81.6288 258.821 82.2614 259.243 82.8727C259.608 83.3988 259.986 83.8997 260.379 84.3757V84.3757C261.266 85.4554 262.268 86.4353 263.368 87.298V87.298C264.568 88.2602 265.925 89.0087 267.38 89.5106V89.5106C269.4 90.1702 271.312 90.0784 272.761 89.0931L272.815 89.0556V89.0556L276.819 86.2919L275.09 83.787C275.081 82.387 274.86 80.9965 274.435 79.6624V79.6624C274.02 78.3291 273.46 77.0453 272.765 75.8341V75.8341C272.462 75.2997 272.128 74.7695 271.763 74.2435C271.343 73.6312 270.89 73.0418 270.406 72.4776V72.4776C269.498 71.4081 268.473 70.4434 267.35 69.6012V69.6012C266.33 68.8295 265.205 68.2055 264.011 67.7476L262.282 65.2427L258.3 67.9855Z" fill="#977700"/>
<path d="M275.305 84.0876L267.394 89.5148V89.5148C269.414 90.1744 271.326 90.0826 272.775 89.0973L272.829 89.0598V89.0598L276.833 86.2961L275.305 84.0876Z" fill="#E0B41D"/>
<path d="M258.293 67.9855V67.9855L258.238 68.0231C256.89 68.9541 256.151 70.528 255.955 72.4651L263.636 67.1589L262.296 65.2218L258.293 67.9855Z" fill="#8C7005"/>
<path d="M274.457 79.6582L263.373 87.3105V87.3105C264.574 88.2728 265.931 89.0212 267.385 89.5231V89.5231L275.309 84.0876L275.117 83.8079C275.107 82.4079 274.886 81.0174 274.461 79.6832C274.461 79.6832 274.457 79.6623 274.457 79.6582Z" fill="#CDA115"/>
<path d="M272.783 75.8216L260.38 84.3882V84.3882C261.267 85.4679 262.27 86.4478 263.369 87.3105V87.3105L274.449 79.6623V79.6623C274.034 78.3291 273.474 77.0453 272.779 75.8341L272.783 75.8216Z" fill="#C59A0B"/>
<path d="M270.42 72.4609L258.071 80.9858V80.9858C258.428 81.6371 258.818 82.2698 259.24 82.8811C259.605 83.4071 259.983 83.9081 260.376 84.384V84.384L272.779 75.8216V75.8216C272.476 75.2872 272.142 74.757 271.777 74.231C271.357 73.6187 270.904 73.0292 270.42 72.4651V72.4609Z" fill="#AE890C"/>
<path d="M267.36 69.5803L256.464 77.0949V77.0949C256.853 78.4417 257.391 79.7411 258.067 80.9691V80.9691L270.416 72.4442V72.4442C269.508 71.3747 268.483 70.41 267.36 69.5678V69.5803Z" fill="#977910"/>
<path d="M263.636 67.1589L255.955 72.4651C255.839 74.0293 256.012 75.6014 256.464 77.1032V77.1032L267.36 69.5886V69.5886C266.34 68.8169 265.215 68.1929 264.02 67.7351L263.636 67.1589Z" fill="#947508"/>
<ellipse cx="269.225" cy="76.0245" rx="7.60866" ry="12.7867" transform="rotate(-34.804 269.225 76.0245)" fill="url(#paint17_linear_22_51428)"/>
<path d="M261.962 65.4056C261.554 65.708 261.192 66.0696 260.89 66.4786C260.839 66.5454 260.794 66.6205 260.748 66.6915C260.699 66.7599 260.655 66.831 260.614 66.9044C260.279 67.4906 260.04 68.126 259.904 68.7872C259.652 70.1154 259.652 71.4793 259.904 72.8075C260.146 74.1369 260.544 75.4331 261.09 76.6692C261.633 77.9067 262.296 79.0882 263.069 80.1968C263.453 80.7535 263.861 81.292 264.292 81.8125C264.709 82.3301 265.185 82.8228 265.665 83.2987C266.628 84.2457 267.699 85.0766 268.855 85.7743C270.007 86.4823 271.281 86.9667 272.612 87.2021C273.28 87.3086 273.961 87.3086 274.629 87.2021C274.712 87.1914 274.794 87.1747 274.875 87.152C274.958 87.137 275.04 87.1174 275.121 87.0936C275.612 86.9582 276.079 86.7499 276.507 86.4757C275.948 86.8688 275.312 87.1391 274.641 87.2689C273.967 87.3954 273.276 87.4138 272.596 87.3232C271.241 87.1091 269.939 86.6402 268.759 85.9413C267.575 85.2528 266.481 84.4198 265.503 83.4615C263.533 81.5512 261.963 79.2677 260.885 76.7443C260.335 75.4912 259.944 74.1743 259.721 72.8242C259.482 71.4729 259.504 70.0882 259.787 68.7455C259.942 68.0778 260.203 67.4393 260.56 66.8543C260.92 66.2777 261.398 65.784 261.962 65.4056V65.4056Z" fill="#FBD367"/>
<path d="M264.235 79.9095C266.026 82.4978 268.292 84.5017 270.618 85.5454C273.402 86.7979 275.014 86.1549 275.728 85.6623C276.442 85.1697 277.611 83.888 277.431 80.8446C277.277 78.298 276.208 75.4675 274.421 72.8792C272.634 70.2908 270.367 68.2869 268.038 67.2391C265.257 65.9866 263.642 66.6337 262.928 67.1264C262.214 67.619 261.045 68.8965 261.229 71.944C261.396 74.4906 262.448 77.3211 264.235 79.9095Z" fill="url(#paint18_linear_22_51428)"/>
<path d="M270.618 85.5454L271.186 85.7542L271.474 85.8418C271.568 85.8754 271.664 85.9033 271.762 85.9253L272.05 86.0005L272.346 86.0589C272.442 86.0589 272.538 86.0965 272.638 86.1048C272.739 86.1132 272.835 86.1341 272.935 86.1424C273.714 86.2338 274.503 86.1065 275.214 85.775C275.899 85.4141 276.435 84.8226 276.726 84.1051C277.022 83.3871 277.179 82.6192 277.189 81.8424C277.202 80.2728 276.919 78.7148 276.354 77.2502C275.804 75.7711 275.067 74.3682 274.162 73.0754C273.273 71.7676 272.217 70.5805 271.023 69.5435C269.848 68.4916 268.485 67.6701 267.007 67.1222C266.277 66.8558 265.504 66.7311 264.727 66.7548C263.955 66.7786 263.216 67.0743 262.64 67.5898C262.076 68.1369 261.677 68.8311 261.488 69.5936C261.463 69.6897 261.442 69.7857 261.417 69.8817C261.392 69.9777 261.375 70.0737 261.358 70.1739C261.342 70.2741 261.321 70.3701 261.308 70.4703L261.275 70.7668C261.275 70.8669 261.254 70.963 261.25 71.0632V71.3637C261.25 71.5641 261.25 71.7812 261.25 71.9691C261.159 71.1633 261.19 70.3485 261.342 69.5519C261.495 68.7332 261.877 67.9748 262.444 67.3643C262.742 67.0606 263.099 66.8193 263.492 66.6546C263.881 66.4894 264.294 66.3852 264.715 66.3457C265.548 66.2884 266.385 66.3933 267.178 66.6546C268.733 67.1764 270.172 67.9944 271.415 69.0634C273.912 71.202 275.811 73.9526 276.926 77.0456C277.488 78.5945 277.743 80.2378 277.677 81.8842C277.645 82.719 277.448 83.5391 277.097 84.2972C276.91 84.6769 276.667 85.026 276.375 85.3325C276.081 85.641 275.729 85.8879 275.34 86.0589C274.569 86.3719 273.725 86.4616 272.906 86.3178C272.109 86.1755 271.338 85.9152 270.618 85.5454Z" fill="#AE890C"/>
<path d="M275.022 77.6677L274.542 78.1185L274.471 78.1853L274.955 77.7303L275.022 77.6677V77.6677Z" fill="#788E95"/>
<path d="M271.315 72.8583C271.207 72.6982 271.064 72.5642 270.898 72.4659C270.768 72.3933 270.627 72.3451 270.48 72.324H270.388C270.237 72.3179 270.089 72.3669 269.971 72.4617V72.4617L269.486 72.9126V72.9126C269.605 72.8194 269.753 72.7706 269.904 72.7748H269.996C270.142 72.7958 270.283 72.8424 270.413 72.9126C270.58 73.011 270.722 73.145 270.831 73.305L274.471 78.177L274.955 77.7261L271.315 72.8583Z" fill="#C59A0B"/>
<path d="M269.745 73.3885L268.313 72.971L268.355 72.6162L268.397 72.2655C268.432 71.9392 268.58 71.6353 268.814 71.4055L268.33 71.8605C268.102 72.0846 267.955 72.3784 267.913 72.6955L267.871 73.0462L267.825 73.401L269.261 73.8185L269.745 73.3885Z" fill="#C59A0B"/>
<path d="M270.66 78.8157C270.564 78.8051 270.469 78.7884 270.376 78.7656C269.648 78.5669 269.01 78.1249 268.568 77.5132C267.85 76.5572 267.904 76.1355 268.004 75.3632V75.2379L269.674 75.6846L269.921 75.7556C270.198 75.7878 270.447 75.9405 270.601 76.1731C270.778 76.3972 270.878 76.6725 270.885 76.9579C270.894 77.1789 270.811 77.3938 270.655 77.5507L271.136 77.0957C271.294 76.9419 271.379 76.7277 271.369 76.5071C271.36 76.2213 271.259 75.9461 271.081 75.7222C270.929 75.4898 270.681 75.337 270.405 75.3047C270.296 75.2713 270.175 75.2421 270.154 75.2379L266.927 74.403C266.861 74.3822 266.792 74.3668 266.723 74.3571C266.583 74.3386 266.441 74.3486 266.305 74.3863C266.195 74.4199 266.093 74.4785 266.009 74.5574L265.571 75C265.651 74.9183 265.752 74.8593 265.863 74.8288C265.998 74.7893 266.141 74.7793 266.28 74.7996C266.349 74.8083 266.418 74.8222 266.485 74.8413L267.921 75.2212L267.554 75.5677L267.524 75.8224C267.42 76.5947 267.366 77.0164 268.088 77.9766C268.527 78.5895 269.164 79.032 269.891 79.229C269.985 79.2527 270.08 79.2709 270.175 79.2833C270.683 79.3618 271.2 79.2223 271.599 78.8992L271.662 78.8408L272.146 78.3899L272.079 78.4483C271.679 78.7653 271.163 78.8987 270.66 78.8157Z" fill="#C59A0B"/>
<path d="M269.491 82.2307C269.05 82.1645 268.655 81.9219 268.397 81.5585L264.736 76.6908C264.372 76.2443 264.146 75.7019 264.084 75.1294C264.018 74.6302 264.14 74.1241 264.427 73.71C264.506 73.596 264.595 73.4898 264.694 73.3927L264.214 73.8477C264.11 73.9417 264.019 74.0483 263.942 74.165C263.656 74.5791 263.534 75.0852 263.6 75.5845C263.667 76.1564 263.894 76.6977 264.256 77.1458L267.921 82.0136C268.182 82.3729 268.576 82.6132 269.015 82.6816C269.372 82.7326 269.732 82.6189 269.996 82.3726L270.476 81.9176C270.212 82.1655 269.85 82.2807 269.491 82.2307V82.2307Z" fill="#C59A0B"/>
<path d="M270.355 74.0105L270.134 73.9437L267.007 72.971C266.837 72.9209 266.664 72.8846 266.489 72.8625C266.172 72.8192 265.85 72.8405 265.541 72.9251C265.087 73.0421 264.689 73.3193 264.423 73.7058C264.136 74.1199 264.014 74.626 264.08 75.1252C264.142 75.6977 264.368 76.2401 264.731 76.6866L268.397 81.5543C268.655 81.9177 269.05 82.1603 269.491 82.2265C269.848 82.2751 270.209 82.1601 270.472 81.9134L270.572 81.8215L266.076 75.8934C265.935 75.7142 265.841 75.5036 265.8 75.2797C265.773 75.0794 265.816 74.876 265.921 74.7036C266.016 74.5433 266.164 74.4208 266.339 74.357C266.475 74.3193 266.616 74.3094 266.756 74.3278C266.826 74.3376 266.894 74.3529 266.961 74.3737L270.188 75.2087C270.209 75.2087 270.33 75.2421 270.438 75.2755C270.714 75.3077 270.962 75.4606 271.115 75.693C271.292 75.9169 271.393 76.1921 271.403 76.4778C271.419 76.699 271.334 76.9155 271.172 77.0665C271.009 77.2175 270.787 77.2866 270.568 77.2543C270.515 77.2472 270.464 77.236 270.413 77.2209C270.119 77.134 269.862 76.9519 269.683 76.7033C269.492 76.4702 269.421 76.1613 269.491 75.8683C269.491 75.8266 269.491 75.5719 269.528 75.4759L268.046 75.1002L268.017 75.359C267.917 76.1313 267.863 76.553 268.581 77.509C269.022 78.1207 269.66 78.5627 270.388 78.7614C270.482 78.7838 270.577 78.8006 270.672 78.8115C271.178 78.891 271.693 78.753 272.092 78.4316C272.524 78.0441 272.752 77.4783 272.709 76.8995C272.671 76.2451 272.435 75.6177 272.033 75.1002C271.66 74.5092 271.047 74.1111 270.355 74.0105V74.0105Z" fill="#FFF1D4"/>
<path d="M274.93 76.0228L272.192 72.3448C271.921 71.98 271.582 71.671 271.194 71.4347C270.863 71.2374 270.495 71.1109 270.113 71.0632H269.983C269.606 71.0359 269.231 71.1374 268.919 71.3512C268.618 71.5821 268.425 71.9261 268.384 72.3031L268.343 72.6538L268.301 73.0086L269.733 73.4261V73.2299L269.762 72.8834C269.762 72.7246 269.829 72.5733 269.946 72.4659C270.064 72.371 270.212 72.3221 270.363 72.3281H270.455C270.602 72.3493 270.743 72.3974 270.873 72.4701C271.039 72.5684 271.182 72.7024 271.29 72.8625L274.93 77.7344L274.997 77.6718C275.398 77.317 275.348 76.5906 274.93 76.0228Z" fill="#FFF1D4"/>
<g opacity="0.95">
<path d="M240.72 64.7962V64.7962H240.666C239.221 64.2735 238.038 63.2069 237.368 61.8238C236.812 60.7178 236.486 59.5107 236.408 58.2753V58.2753C236.338 57.2226 236.409 56.1652 236.621 55.1317V55.1317C236.725 54.5903 236.865 54.0562 237.038 53.5327C237.187 53.0914 237.361 52.6593 237.56 52.2386V52.2386C237.998 51.2881 238.56 50.3996 239.23 49.5959V49.5959C240.002 48.6679 240.946 47.8981 242.01 47.329V47.329C243.456 46.509 245.178 46.3289 246.761 46.8322H246.816V46.8322L250.272 48.0137L250.356 50.4267C250.759 51.4428 250.988 52.5197 251.032 53.612V53.612C251.077 54.6607 250.983 55.7108 250.752 56.7348V56.7348C250.652 57.1894 250.526 57.6382 250.377 58.079C250.197 58.6009 249.985 59.1112 249.742 59.607V59.607C249.279 60.5552 248.689 61.4358 247.989 62.2246V62.2246C247.325 62.9744 246.547 63.6153 245.684 64.1241L244.148 65.9819L240.72 64.7962Z" fill="#977700"/>
<path d="M250.481 50.1553L242.048 47.2622V47.2622C243.493 46.4422 245.215 46.2621 246.799 46.7654H246.853V46.7654L250.31 47.9469L250.481 50.1553Z" fill="#8C7005"/>
<path d="M240.721 64.7963V64.7963H240.666C239.221 64.2735 238.038 63.2069 237.368 61.8238L245.555 64.6167L244.181 65.9944L240.721 64.7963Z" fill="#E0B41D"/>
<path d="M251.078 53.5828L239.263 49.55V49.55C240.035 48.6219 240.979 47.8521 242.044 47.2831V47.2831L250.469 50.1595L250.389 50.3975C250.792 51.4136 251.021 52.4905 251.065 53.5828H251.078Z" fill="#947508"/>
<path d="M250.794 56.7097L237.577 52.1968V52.1968C238.015 51.2464 238.576 50.3579 239.247 49.5542V49.5542L251.057 53.5828V53.5828C251.102 54.6315 251.008 55.6816 250.778 56.7055L250.794 56.7097Z" fill="#977910"/>
<path d="M249.78 59.5862L236.621 55.0941V55.0941C236.725 54.5527 236.865 54.0186 237.038 53.4952C237.187 53.0539 237.361 52.6217 237.56 52.201V52.201L250.782 56.7139V56.7139C250.681 57.1686 250.556 57.6173 250.406 58.0582C250.226 58.58 250.014 59.0903 249.771 59.5862H249.78Z" fill="#AE890C"/>
<path d="M248.022 62.2079L236.408 58.246V58.246C236.338 57.1934 236.409 56.136 236.621 55.1024V55.1024L249.784 59.5945V59.5945C249.321 60.5426 248.731 61.4233 248.03 62.2121L248.022 62.2079Z" fill="#C59A0B"/>
<path d="M245.555 64.5875L237.368 61.7946C236.812 60.6885 236.486 59.4815 236.408 58.246V58.246L248.026 62.2121V62.2121C247.362 62.9618 246.585 63.6028 245.722 64.1116L245.555 64.5875Z" fill="#CDA115"/>
<ellipse cx="247.268" cy="56.9487" rx="9.50594" ry="7.55633" transform="rotate(-71.16 247.268 56.9487)" fill="url(#paint19_linear_22_51428)"/>
<path d="M244.202 65.9485C243.126 65.5974 242.165 64.9611 241.422 64.1074C240.684 63.2465 240.136 62.2392 239.814 61.1517C239.49 60.0696 239.349 58.9406 239.397 57.8119C239.485 55.537 240.235 53.3374 241.555 51.4829C242.209 50.5566 243.013 49.7466 243.935 49.0866C244.855 48.4229 245.905 47.9605 247.016 47.7298C248.131 47.5058 249.285 47.5895 250.356 47.9719C249.822 47.802 249.267 47.7051 248.707 47.6839C248.146 47.6631 247.584 47.715 247.037 47.8383C245.949 48.0823 244.926 48.5548 244.035 49.2244C243.14 49.8853 242.359 50.6876 241.722 51.5998C240.446 53.4335 239.71 55.5887 239.597 57.8202C239.544 58.9315 239.672 60.0442 239.977 61.1141C240.275 62.1851 240.795 63.1811 241.505 64.0364C241.861 64.465 242.27 64.8453 242.724 65.1678C243.179 65.4937 243.676 65.7563 244.202 65.9485V65.9485Z" fill="#FBD367"/>
<path d="M241.104 54.8519C241.811 52.6599 243.259 50.7823 245.2 49.5416C247.425 48.1848 249.208 48.4771 250.076 48.7735C250.944 49.0699 252.531 49.9257 253.462 52.3596C254.983 56.8312 253.302 61.7666 249.366 64.3788C247.141 65.7356 245.359 65.4433 244.49 65.1469C243.622 64.8505 242.035 63.9947 241.104 61.5608C240.324 59.3926 240.324 57.0202 241.104 54.8519V54.8519Z" fill="url(#paint20_linear_22_51428)"/>
<path d="M245.204 49.5416C245.798 49.1433 246.448 48.8351 247.133 48.6274C247.831 48.4267 248.561 48.3643 249.283 48.4437C249.647 48.4893 250.004 48.5775 250.347 48.7067C250.692 48.8374 251.021 49.0054 251.329 49.2077C251.939 49.6195 252.466 50.1437 252.882 50.7523C253.69 51.9766 254.171 53.3884 254.276 54.8519C254.491 57.7931 253.504 60.6959 251.541 62.8967C250.563 63.993 249.318 64.8172 247.926 65.2889C247.227 65.5179 246.49 65.6114 245.755 65.5644C245.389 65.5356 245.026 65.4684 244.674 65.364C244.323 65.2565 243.987 65.1065 243.672 64.9173C243.05 64.543 242.509 64.0475 242.081 63.4603C241.666 62.877 241.34 62.2355 241.113 61.5566C241.391 62.2067 241.757 62.8151 242.203 63.3643C242.645 63.9032 243.188 64.3512 243.801 64.6835C244.107 64.8434 244.429 64.9694 244.762 65.0593C245.093 65.1443 245.434 65.1919 245.776 65.2012C246.462 65.2214 247.146 65.1138 247.793 64.8839C248.439 64.6442 249.052 64.3229 249.617 63.9279C250.18 63.5285 250.695 63.0663 251.153 62.5502C251.611 62.036 252.015 61.4764 252.36 60.8803C253.042 59.6717 253.494 58.3466 253.691 56.9727C253.787 56.2883 253.813 55.5958 253.767 54.9062C253.721 54.2162 253.595 53.5338 253.391 52.8731C253.189 52.2142 252.899 51.5852 252.531 51.0028C252.161 50.4247 251.687 49.9207 251.132 49.5166C250.854 49.3154 250.555 49.1459 250.239 49.0114C249.923 48.8777 249.592 48.7811 249.254 48.7234C248.56 48.6089 247.852 48.6302 247.166 48.786C246.481 48.9477 245.821 49.2019 245.204 49.5416Z" fill="#AE890C"/>
<path d="M248.753 62.1703L248.189 61.9491L248.11 61.9157L248.673 62.1369L248.753 62.1703V62.1703Z" fill="#788E95"/>
<path d="M251.258 57.2357C251.347 57.083 251.4 56.9115 251.412 56.7348C251.423 56.594 251.407 56.4523 251.366 56.3173C251.366 56.2881 251.345 56.263 251.333 56.238C251.279 56.1072 251.18 56.0005 251.053 55.9374V55.9374L250.494 55.7161V55.7161C250.621 55.7799 250.721 55.8863 250.778 56.0167L250.807 56.096C250.85 56.2308 250.867 56.3724 250.857 56.5135C250.843 56.6912 250.79 56.8636 250.702 57.0187L248.114 61.9157L248.678 62.1369L251.258 57.2357Z" fill="#C59A0B"/>
<path d="M250.193 56.1503L249.963 54.8102L250.272 54.71L250.577 54.6056C250.858 54.507 251.164 54.507 251.445 54.6056L250.886 54.3844C250.605 54.2857 250.299 54.2857 250.018 54.3844L249.713 54.4888L249.404 54.5931L249.629 55.929L250.193 56.1503Z" fill="#C59A0B"/>
<path d="M246.114 59.0309C246.087 58.9474 246.065 58.8623 246.047 58.7762C245.924 58.102 246.038 57.4059 246.369 56.8057C246.874 55.8372 247.241 55.7161 247.918 55.499L248.022 55.4615L248.314 57.027C248.314 57.0479 248.344 57.1564 248.356 57.2608C248.442 57.4967 248.418 57.7589 248.289 57.9747C248.175 58.2087 247.987 58.3992 247.755 58.5174C247.577 58.6114 247.368 58.6265 247.179 58.5592L247.738 58.7804C247.928 58.8478 248.137 58.8326 248.314 58.7387C248.547 58.6204 248.734 58.43 248.849 58.1959C248.974 57.9777 249 57.7164 248.92 57.4779C248.92 57.3777 248.882 57.2691 248.878 57.2483L248.314 54.2591C248.307 54.1952 248.293 54.1322 248.273 54.0713C248.234 53.9541 248.171 53.8461 248.089 53.754C248.021 53.6746 247.933 53.6142 247.834 53.5787L247.275 53.3574C247.371 53.397 247.458 53.4568 247.529 53.5327C247.61 53.6275 247.673 53.7365 247.713 53.8542C247.732 53.9142 247.746 53.9756 247.755 54.0379L248.005 55.3696L247.588 55.2026L247.367 55.2778C246.69 55.4949 246.323 55.6159 245.818 56.5845C245.487 57.1864 245.375 57.884 245.501 58.5592C245.516 58.6443 245.538 58.7281 245.567 58.8096C245.698 59.2574 246.014 59.628 246.436 59.8283L246.511 59.8617L247.07 60.0788L246.999 60.0495C246.574 59.8496 246.253 59.4798 246.114 59.0309Z" fill="#C59A0B"/>
<path d="M242.833 59.4024C242.717 59.0145 242.762 58.596 242.958 58.2419L245.526 53.324C245.752 52.85 246.11 52.4513 246.557 52.1759C246.941 51.9233 247.406 51.8249 247.859 51.9004C247.983 51.921 248.105 51.9532 248.222 51.9964L247.663 51.7793C247.545 51.7328 247.421 51.6992 247.296 51.6791C246.842 51.6077 246.379 51.7058 245.993 51.9547C245.548 52.2314 245.192 52.6298 244.966 53.1027L242.394 58.0206C242.197 58.3761 242.153 58.7968 242.273 59.1854C242.373 59.4978 242.607 59.7491 242.912 59.87L243.472 60.0913C243.167 59.9684 242.932 59.7158 242.833 59.4024V59.4024Z" fill="#C59A0B"/>
<path d="M249.934 56.8976C249.927 56.8289 249.915 56.7606 249.901 56.693L249.483 53.7415C249.459 53.5813 249.421 53.4235 249.371 53.2697C249.282 52.9929 249.14 52.7362 248.953 52.5141C248.678 52.1867 248.294 51.9689 247.872 51.9004C247.418 51.8249 246.953 51.9233 246.569 52.1759C246.122 52.4513 245.764 52.85 245.538 53.324L242.971 58.2419C242.774 58.5961 242.729 59.0145 242.845 59.4025C242.945 59.7159 243.179 59.9685 243.484 60.0913L243.601 60.1372L246.711 54.1214C246.803 53.9351 246.939 53.7744 247.108 53.6538C247.262 53.5537 247.447 53.5095 247.63 53.5286C247.803 53.546 247.963 53.6262 248.081 53.754C248.163 53.8461 248.225 53.9541 248.264 54.0713C248.285 54.1322 248.299 54.1952 248.306 54.2591L248.87 57.2483C248.87 57.2692 248.895 57.3777 248.911 57.4779C248.991 57.7164 248.966 57.9777 248.84 58.196C248.726 58.43 248.538 58.6205 248.306 58.7387C248.107 58.8405 247.871 58.8405 247.671 58.7387C247.507 58.6517 247.386 58.5006 247.337 58.3212C247.321 58.2752 247.308 58.2276 247.3 58.1793C247.257 57.9037 247.307 57.6216 247.442 57.3777C247.559 57.1249 247.79 56.9433 248.064 56.8893C248.101 56.8893 248.319 56.7891 248.402 56.7682L248.131 55.3989L247.909 55.4782C247.233 55.6953 246.866 55.8163 246.361 56.7849C246.029 57.385 245.916 58.0811 246.039 58.7554C246.056 58.8415 246.079 58.9265 246.106 59.01C246.242 59.4566 246.558 59.826 246.978 60.0287C247.464 60.2371 248.02 60.203 248.477 59.9368C249.001 59.6524 249.426 59.2157 249.696 58.6844C250.027 58.1501 250.114 57.4999 249.934 56.8976Z" fill="#FFF1D4"/>
<path d="M250.068 61.4564L252.022 57.7659C252.215 57.4 252.337 57.0004 252.381 56.5887C252.415 56.2392 252.375 55.8864 252.264 55.5533C252.252 55.5162 252.238 55.4799 252.222 55.4448C252.098 55.1233 251.868 54.8538 251.571 54.6808C251.263 54.5221 250.903 54.498 250.577 54.614L250.272 54.7184L249.963 54.8186L250.193 56.1587L250.356 56.0793L250.648 55.9708C250.781 55.9111 250.933 55.9111 251.066 55.9708C251.192 56.0339 251.291 56.1406 251.345 56.2714C251.345 56.2964 251.366 56.3215 251.379 56.3507C251.42 56.4857 251.436 56.6274 251.425 56.7682C251.413 56.9449 251.36 57.1164 251.27 57.2691L248.686 62.1703L248.765 62.2037C249.187 62.3415 249.763 62.0158 250.068 61.4564Z" fill="#FFF1D4"/>
</g>
<g opacity="0.65">
<path d="M261.949 10.3269V10.3269H261.924C261.193 10.0626 260.594 9.52335 260.254 8.82402C259.972 8.26492 259.807 7.65402 259.77 7.02887V7.02887C259.739 6.49842 259.78 5.96625 259.891 5.44663V5.44663C259.946 5.17362 260.018 4.90448 260.108 4.6409C260.184 4.41782 260.272 4.19902 260.371 3.98547V3.98547C260.589 3.50379 260.87 3.05316 261.206 2.64537V2.64537C261.596 2.1748 262.074 1.78483 262.613 1.49731V1.49731C263.343 1.08123 264.213 0.988904 265.013 1.24264H265.043V1.24264L266.792 1.83964L266.834 3.05867C267.037 3.57303 267.152 4.11767 267.176 4.67013V4.67013C267.2 5.20014 267.152 5.73095 267.034 6.24819V6.24819C266.982 6.47677 266.918 6.7025 266.842 6.9245C266.752 7.19006 266.644 7.44945 266.521 7.70101V7.70101C266.287 8.18109 265.987 8.62646 265.631 9.02441V9.02441C265.294 9.40175 264.901 9.72553 264.467 9.98461L263.686 10.9239L261.949 10.3269Z" fill="#977700"/>
<path d="M266.884 2.94176L262.621 1.48476V1.48476C263.351 1.06868 264.221 0.976362 265.022 1.2301H265.051V1.2301L266.8 1.82709L266.884 2.94176Z" fill="#8C7005"/>
<path d="M261.949 10.3269V10.3269H261.924C261.193 10.0625 260.594 9.52333 260.254 8.82401L264.396 10.2351L263.698 10.9323L261.949 10.3269Z" fill="#E0B41D"/>
<path d="M267.188 4.66178L261.214 2.62032V2.62032C261.604 2.14975 262.082 1.75978 262.621 1.47226V1.47226L266.888 2.94178L266.846 3.06285C267.049 3.5772 267.165 4.12184 267.188 4.67431V4.66178Z" fill="#947508"/>
<path d="M267.047 6.244L260.367 3.9604V3.9604C260.585 3.47873 260.866 3.02809 261.202 2.6203V2.6203L267.176 4.65759V4.65759C267.2 5.1876 267.152 5.71841 267.034 6.23565L267.047 6.244Z" fill="#977910"/>
<path d="M266.533 7.69681L259.891 5.44661V5.44661C259.946 5.1736 260.018 4.90445 260.108 4.64088C260.184 4.4178 260.272 4.19899 260.371 3.98544V3.98544L267.051 6.26487V6.26487C266.998 6.49345 266.934 6.71918 266.859 6.94118C266.769 7.20673 266.661 7.46612 266.537 7.71768L266.533 7.69681Z" fill="#AE890C"/>
<path d="M265.644 9.0244L259.77 7.02051V7.02051C259.74 6.49283 259.781 5.96352 259.891 5.44662V5.44662L266.546 7.72187V7.72187C266.312 8.20195 266.012 8.64732 265.656 9.04527L265.644 9.0244Z" fill="#C59A0B"/>
<path d="M264.396 10.2267L260.254 8.81566C259.972 8.25656 259.807 7.64565 259.77 7.02051V7.02051L265.644 9.0244V9.0244C265.307 9.40173 264.914 9.72551 264.479 9.98459L264.396 10.2267Z" fill="#CDA115"/>
<ellipse cx="265.258" cy="6.36496" rx="4.80933" ry="3.81991" transform="rotate(-71.16 265.258 6.36496)" fill="url(#paint21_linear_22_51428)"/>
<path d="M263.711 10.9156C263.167 10.737 262.681 10.4154 262.304 9.9846C261.931 9.54856 261.654 9.0395 261.49 8.49004C261.327 7.94055 261.256 7.36774 261.281 6.79508C261.305 6.22631 261.41 5.6639 261.594 5.12518C261.781 4.58499 262.043 4.07352 262.371 3.60556C262.701 3.13619 263.109 2.72673 263.577 2.39488C264.04 2.05089 264.571 1.81029 265.134 1.68934C265.692 1.58222 266.269 1.62545 266.804 1.81459C266.534 1.72657 266.253 1.67738 265.969 1.66847C265.689 1.65835 265.409 1.6836 265.134 1.74361C264.595 1.87314 264.089 2.11341 263.648 2.44915C263.194 2.78333 262.798 3.18946 262.475 3.65148C262.155 4.11377 261.901 4.61815 261.719 5.15022C261.535 5.68891 261.428 6.25122 261.402 6.82013C261.376 7.38349 261.44 7.94744 261.594 8.49004C261.744 9.03293 262.008 9.53797 262.367 9.97208C262.548 10.1893 262.755 10.3828 262.984 10.5482C263.209 10.7019 263.454 10.8254 263.711 10.9156V10.9156Z" fill="#FBD367"/>
<path d="M262.145 5.30468C262.506 4.19235 263.244 3.24123 264.233 2.61613C264.94 2.08775 265.862 1.94254 266.697 2.22813C267.532 2.51373 268.172 3.19328 268.407 4.0439C268.801 5.13954 268.801 6.33817 268.407 7.43381C268.046 8.5446 267.308 9.49413 266.32 10.1182C265.614 10.6487 264.692 10.7957 263.856 10.5107C263.02 10.2258 262.38 9.54578 262.145 8.69459C261.751 7.59895 261.751 6.40032 262.145 5.30468V5.30468Z" fill="url(#paint22_linear_22_51428)"/>
<path d="M264.22 2.61614C264.52 2.41503 264.847 2.26021 265.193 2.15691C265.546 2.05404 265.917 2.02142 266.283 2.06089C266.466 2.08514 266.647 2.12995 266.821 2.19448C266.994 2.26088 267.159 2.34629 267.314 2.44915C267.624 2.6556 267.89 2.92083 268.099 3.22983C268.511 3.85245 268.754 4.57191 268.804 5.31721C268.86 6.05371 268.765 6.79383 268.524 7.49226C268.281 8.18826 267.9 8.82845 267.406 9.37508C266.91 9.92766 266.28 10.3432 265.577 10.5816C265.223 10.6982 264.85 10.745 264.479 10.7194C264.294 10.7066 264.11 10.673 263.932 10.6192C263.754 10.5648 263.583 10.4892 263.423 10.3937C263.109 10.203 262.837 9.95181 262.621 9.65479C262.41 9.36159 262.246 9.03776 262.133 8.6946C262.276 9.02866 262.466 9.34071 262.696 9.6214C262.919 9.89565 263.195 10.1227 263.506 10.2894C263.659 10.3702 263.82 10.4332 263.986 10.4772C264.154 10.5206 264.327 10.5458 264.5 10.5524C264.848 10.5609 265.195 10.5057 265.523 10.3896C265.85 10.2693 266.16 10.1065 266.445 9.90528C266.731 9.70324 266.992 9.46779 267.222 9.20392C267.45 8.9467 267.651 8.66694 267.823 8.36896C267.993 8.06331 268.133 7.74171 268.24 7.40877C268.354 7.07757 268.436 6.73656 268.487 6.39013C268.535 6.04441 268.547 5.6947 268.524 5.34643C268.5 4.99781 268.436 4.65316 268.332 4.31944C268.236 3.98639 268.096 3.66769 267.915 3.37177C267.729 3.078 267.488 2.82285 267.205 2.62031C267.066 2.51771 266.914 2.43221 266.754 2.36565C266.595 2.29622 266.429 2.24713 266.257 2.21953C265.91 2.16244 265.554 2.17236 265.21 2.24876C264.865 2.32767 264.533 2.45117 264.22 2.61614Z" fill="#AE890C"/>
<path d="M266.011 9.00354L265.727 8.89499L265.686 8.87829L265.969 8.98684L266.011 9.00354V9.00354Z" fill="#788E95"/>
<path d="M267.28 6.51121C267.325 6.43333 267.353 6.3463 267.36 6.25654C267.36 6.18755 267.352 6.11877 267.335 6.05198V6.01441C267.307 5.94774 267.257 5.89301 267.193 5.85994V5.85994L266.909 5.74722V5.74722C266.974 5.77736 267.024 5.83113 267.051 5.89751V5.93509C267.062 6.00284 267.062 6.0719 267.051 6.13965C267.046 6.22923 267.02 6.31643 266.976 6.39431L265.665 8.87412L265.953 8.98267L267.28 6.51121Z" fill="#C59A0B"/>
<path d="M266.742 5.96013L266.625 5.28382L266.783 5.22955L266.934 5.17945C267.077 5.12917 267.233 5.12917 267.376 5.17945L267.092 5.06673C266.949 5.01645 266.793 5.01645 266.65 5.06673L266.5 5.12101L266.341 5.1711L266.458 5.84741L266.742 5.96013Z" fill="#C59A0B"/>
<path d="M264.667 7.4171C264.653 7.37463 264.642 7.33142 264.634 7.28768C264.571 6.94627 264.628 6.59361 264.796 6.28991C264.925 5.94992 265.22 5.70051 265.577 5.6303H265.631L265.782 6.41933C265.782 6.41933 265.782 6.48613 265.782 6.53622C265.826 6.65664 265.812 6.79055 265.744 6.89943C265.686 7.01681 265.592 7.11312 265.477 7.17496C265.383 7.21393 265.278 7.21393 265.185 7.17496L265.469 7.28351C265.561 7.32659 265.668 7.32659 265.761 7.28351C265.877 7.22345 265.972 7.12861 266.032 7.01215C266.094 6.90119 266.106 6.76931 266.066 6.64894C266.066 6.59885 266.045 6.5404 266.045 6.53205L265.761 5.02078C265.756 4.9883 265.749 4.9562 265.74 4.92476C265.719 4.86591 265.686 4.81192 265.644 4.76612C265.611 4.72521 265.568 4.69356 265.519 4.67428L265.231 4.56573C265.282 4.58092 265.327 4.61154 265.36 4.6534C265.403 4.70013 265.436 4.75567 265.456 4.81622C265.465 4.84623 265.472 4.87695 265.477 4.90807L265.602 5.5802L265.385 5.49671L265.272 5.53428C264.917 5.60669 264.622 5.85532 264.492 6.19389C264.324 6.49923 264.266 6.85307 264.329 7.19584C264.329 7.23759 264.329 7.27933 264.362 7.32108C264.429 7.54869 264.59 7.73693 264.805 7.83875H264.838L265.122 7.95147H265.089C264.879 7.84133 264.725 7.64703 264.667 7.4171Z" fill="#C59A0B"/>
<path d="M263.018 7.60499C262.959 7.40833 262.981 7.19617 263.081 7.01634L264.379 4.51148C264.499 4.28009 264.679 4.08538 264.901 3.94789C265.096 3.82159 265.331 3.77248 265.56 3.81012C265.624 3.81845 265.685 3.8353 265.744 3.86022L265.46 3.7475C265.4 3.72641 265.339 3.70967 265.276 3.6974C265.047 3.66099 264.811 3.7116 264.617 3.83935C264.391 3.97916 264.21 4.18048 264.095 4.41964L262.797 6.9245C262.697 7.10274 262.675 7.31372 262.734 7.50897C262.785 7.66843 262.904 7.79693 263.06 7.85965L263.344 7.96819C263.185 7.90331 263.065 7.7695 263.018 7.60499Z" fill="#C59A0B"/>
<path d="M266.608 6.34002C266.608 6.34002 266.608 6.29827 266.608 6.23147L266.391 4.74108C266.378 4.66022 266.359 4.5806 266.333 4.50312C266.287 4.36254 266.215 4.23212 266.12 4.11904C265.98 3.95471 265.786 3.84527 265.573 3.81011C265.343 3.77247 265.108 3.82158 264.913 3.94788C264.689 4.08993 264.509 4.29064 264.391 4.52817L263.093 7.03303C262.994 7.21285 262.971 7.42502 263.03 7.62167C263.082 7.77985 263.201 7.90685 263.356 7.96818L263.414 7.99323L264.984 4.94982C265.03 4.85633 265.099 4.77594 265.185 4.71603C265.262 4.6651 265.355 4.64159 265.448 4.64924C265.536 4.65681 265.619 4.69875 265.677 4.76613C265.72 4.81193 265.752 4.86591 265.773 4.92477C265.783 4.9562 265.79 4.9883 265.794 5.02079L266.078 6.53206C266.078 6.53206 266.078 6.59885 266.099 6.64895C266.139 6.76932 266.127 6.90119 266.065 7.01216C266.005 7.12861 265.911 7.22346 265.794 7.28352C265.693 7.33552 265.573 7.33552 265.473 7.28352C265.389 7.24112 265.327 7.16534 265.301 7.07478C265.299 7.05118 265.299 7.0274 265.301 7.00381C265.276 6.86063 265.301 6.71302 265.372 6.58633C265.432 6.45923 265.548 6.36784 265.686 6.34002L265.857 6.2774L265.719 5.58856L265.606 5.62613C265.239 5.6862 264.932 5.93536 264.796 6.28157C264.628 6.58527 264.571 6.93793 264.633 7.27934C264.642 7.32308 264.653 7.36629 264.667 7.40876C264.728 7.64577 264.889 7.84416 265.109 7.95148C265.354 8.05779 265.635 8.04073 265.865 7.90556C266.131 7.76153 266.346 7.54023 266.483 7.27099C266.661 6.99468 266.707 6.65354 266.608 6.34002V6.34002Z" fill="#FFF1D4"/>
<path d="M266.679 8.64031L267.664 6.77419C267.763 6.58875 267.826 6.3861 267.848 6.1772C267.865 6.00108 267.845 5.8234 267.79 5.65535C267.788 5.63591 267.788 5.61635 267.79 5.59691C267.724 5.43533 267.607 5.3002 267.456 5.21283C267.301 5.13231 267.119 5.1202 266.955 5.17943L266.804 5.22953L266.646 5.2838L266.763 5.96011L266.842 5.92254L266.988 5.86409C267.054 5.83695 267.127 5.83695 267.193 5.86409C267.257 5.89716 267.307 5.95189 267.335 6.01856V6.05613C267.352 6.12292 267.36 6.1917 267.36 6.26069C267.353 6.35045 267.326 6.43748 267.28 6.51535L265.974 8.99099H266.011C266.289 9.04913 266.569 8.90208 266.679 8.64031V8.64031Z" fill="#FFF1D4"/>
</g>
<g opacity="0.85">
<path d="M274.546 32.4268V32.4268L274.575 32.4602C275.314 33.2951 275.565 34.4515 275.381 35.7457C275.381 35.7457 275.381 35.7749 275.381 35.7916C275.201 36.8533 274.829 37.8732 274.283 38.8016V38.8016C273.804 39.6363 273.232 40.4149 272.58 41.1228V41.1228C272.237 41.5001 271.873 41.8583 271.49 42.1957C271.165 42.488 270.831 42.7663 270.488 43.0307V43.0307C269.72 43.6054 268.892 44.094 268.017 44.4877V44.4877C267.06 44.9373 266.034 45.2197 264.982 45.3226V45.3226C263.525 45.4312 262.268 45.0596 261.467 44.1537C261.455 44.1446 261.445 44.1333 261.438 44.1203V44.1203L259.221 41.6154L260.778 40.2294C261.013 39.2978 261.388 38.4069 261.888 37.5868V37.5868C262.383 36.7664 262.965 36.0021 263.625 35.3074V35.3074C263.917 34.9984 264.226 34.6979 264.552 34.4098C264.933 34.0707 265.332 33.7516 265.746 33.4538V33.4538C266.525 32.8878 267.365 32.4116 268.251 32.0344V32.0344C269.049 31.6868 269.892 31.4535 270.756 31.3413L272.317 29.9511L274.546 32.4268Z" fill="#977700"/>
<path d="M272.33 29.9303L274.576 32.4602C275.314 33.2951 275.565 34.4515 275.381 35.7457L271.148 30.9823L272.33 29.9303Z" fill="#8C7005"/>
<path d="M260.586 40.3672L264.969 45.2976V45.2976C263.512 45.4061 262.256 45.0346 261.454 44.1287C261.442 44.1196 261.432 44.1082 261.425 44.0953V44.0953L259.208 41.5904L260.586 40.3672Z" fill="#E0B41D"/>
<path d="M261.872 37.5826L268.009 44.4877V44.4877C267.052 44.9373 266.026 45.2197 264.974 45.3226V45.3226L260.594 40.3964L260.77 40.2419C261.005 39.3103 261.379 38.4195 261.88 37.5993L261.872 37.5826Z" fill="#CDA115"/>
<path d="M263.613 35.2865L270.48 43.0098V43.0098C269.712 43.5845 268.883 44.0731 268.009 44.4668V44.4668L261.868 37.5826V37.5826C262.362 36.7622 262.945 35.9979 263.604 35.3032L263.613 35.2865Z" fill="#C59A0B"/>
<path d="M265.738 33.4329L272.572 41.127V41.127C272.228 41.5043 271.865 41.8625 271.482 42.1999C271.156 42.4921 270.822 42.7705 270.48 43.0349V43.0349L263.608 35.2907V35.2907C263.901 34.9817 264.21 34.6811 264.535 34.3931C264.916 34.054 265.315 33.7349 265.729 33.4371L265.738 33.4329Z" fill="#AE890C"/>
<path d="M268.247 32.0135L274.279 38.8017V38.8017C273.799 39.6363 273.228 40.4149 272.576 41.1228V41.1228L265.733 33.4329V33.4329C266.512 32.8669 267.352 32.3907 268.238 32.0135L268.247 32.0135Z" fill="#977910"/>
<path d="M271.123 31.0074L275.377 35.7916C275.197 36.8532 274.825 37.8732 274.279 38.8016V38.8016L268.242 32.0135V32.0135C269.041 31.6659 269.884 31.4326 270.747 31.3205L271.123 31.0074Z" fill="#947508"/>
<ellipse cx="265.793" cy="35.7953" rx="8.78371" ry="5.22681" transform="rotate(-41.63 265.793 35.7953)" fill="url(#paint23_linear_22_51428)"/>
<path d="M272.359 29.9637C272.683 30.3089 272.93 30.7186 273.085 31.166C273.23 31.615 273.3 32.0845 273.294 32.5562C273.262 33.5007 273.05 34.4304 272.668 35.2948C272.301 36.16 271.825 36.975 271.252 37.7204C270.125 39.2282 268.705 40.4933 267.078 41.4401C266.27 41.9204 265.404 42.2963 264.502 42.5589C263.598 42.8315 262.65 42.9293 261.709 42.847C261.241 42.7947 260.785 42.6693 260.356 42.4754C259.932 42.278 259.553 41.9936 259.246 41.6405C259.407 41.8083 259.585 41.9594 259.776 42.0914C259.868 42.1623 259.968 42.2124 260.068 42.275C260.168 42.3377 260.273 42.3794 260.381 42.4253C260.808 42.6033 261.26 42.7105 261.721 42.7426C262.645 42.8047 263.572 42.6885 264.452 42.4003C265.334 42.1217 266.182 41.7421 266.978 41.2689C268.562 40.3046 269.953 39.0547 271.081 37.5826C271.647 36.8493 272.125 36.052 272.505 35.2072C272.889 34.3786 273.113 33.4848 273.165 32.5729C273.187 32.1108 273.134 31.6482 273.006 31.2036C272.975 31.0916 272.937 30.9815 272.893 30.8738C272.85 30.7667 272.802 30.6622 272.747 30.5606C272.639 30.3484 272.509 30.1482 272.359 29.9637Z" fill="#FBD367"/>
<path d="M268.647 39.0104C267.178 40.3755 265.371 41.3238 263.412 41.7574C261.325 42.1415 260.352 41.4443 259.951 40.9934C259.551 40.5425 258.974 39.4863 259.596 37.4657C261.019 33.6618 264.231 30.8078 268.176 29.8426C270.263 29.4585 271.236 30.1557 271.637 30.6066C272.037 31.0575 272.613 32.1137 271.987 34.1343C271.33 36.0289 270.176 37.7126 268.647 39.0104V39.0104Z" fill="url(#paint24_linear_22_51428)"/>
<path d="M263.412 41.7574C262.867 41.8942 262.304 41.9463 261.742 41.9119C261.166 41.8752 260.612 41.677 260.143 41.3399C259.907 41.1589 259.709 40.9334 259.559 40.6761C259.407 40.4166 259.297 40.1348 259.233 39.8412C259.121 39.2664 259.121 38.6751 259.233 38.1003C259.463 36.973 259.91 35.9011 260.548 34.9442C261.807 33.0476 263.538 31.5111 265.571 30.4855C266.595 29.9609 267.713 29.6431 268.86 29.5504C269.444 29.5037 270.032 29.5732 270.589 29.7549C270.869 29.8523 271.133 29.9932 271.369 30.1724C271.609 30.3505 271.811 30.5748 271.962 30.832C272.241 31.3425 272.372 31.9211 272.338 32.5019C272.303 33.065 272.184 33.6195 271.983 34.1468C272.016 34.0132 272.05 33.8754 272.075 33.7293C272.1 33.5832 272.129 33.4538 272.142 33.3118C272.177 33.035 272.191 32.7559 272.183 32.4769C272.176 31.9367 272.018 31.4092 271.728 30.9531C271.427 30.5221 270.984 30.2104 270.476 30.0722C269.961 29.9325 269.424 29.8928 268.894 29.9553C267.814 30.0846 266.767 30.4145 265.809 30.928C263.871 31.954 262.213 33.4372 260.978 35.2489C260.358 36.1412 259.908 37.1404 259.651 38.1963C259.531 38.7165 259.508 39.2543 259.584 39.7827C259.661 40.3034 259.918 40.7807 260.31 41.1312C260.731 41.4708 261.236 41.6888 261.772 41.7616C262.048 41.8032 262.327 41.8214 262.607 41.8158C262.744 41.8158 262.882 41.8158 263.024 41.8158L263.412 41.7574Z" fill="#AE890C"/>
<path d="M265.153 33.2575H265.178L265.228 33.22V33.22L265.278 33.1907H265.303L265.383 33.1573C265.443 33.1303 265.508 33.1148 265.575 33.1114C265.622 33.1073 265.669 33.1073 265.717 33.1114C265.818 33.1236 265.912 33.1726 265.98 33.2492V33.2492L265.742 32.9194V32.9194C265.674 32.8428 265.58 32.7938 265.479 32.7816C265.431 32.7775 265.384 32.7775 265.337 32.7816C265.269 32.7849 265.203 32.8005 265.141 32.8275L265.065 32.8609H265.04L264.999 32.886V32.886H264.978L264.932 32.9236H264.907V32.9236L264.865 32.9653L262.143 35.7207L262.381 36.0463L265.103 33.2951L265.153 33.2575Z" fill="#C59A0B"/>
<path d="M264.736 35.704C264.734 35.6873 264.734 35.6705 264.736 35.6539C264.736 35.6539 264.736 35.6539 264.736 35.6246C264.737 35.6136 264.737 35.6023 264.736 35.5913C264.737 35.5816 264.737 35.5717 264.736 35.562C264.737 35.5538 264.737 35.5452 264.736 35.537L264.773 35.4451V35.4451C264.786 35.4173 264.801 35.3908 264.819 35.3658V35.3658L264.878 35.2907C264.891 35.2707 264.906 35.2525 264.923 35.2364L264.978 35.1863V35.1863L265.028 35.1487V35.1487L265.153 35.0778V35.0778H265.191V35.0778H265.245V35.0778H265.303H265.454H265.654H265.717L265.742 34.2011L265.504 33.8712L265.479 34.7479H265.416H265.216H265.065H265.007V34.7479H264.953V34.7479H264.915V34.7479L264.865 34.7772V34.7772L264.815 34.8147V34.8147V34.8147L264.777 34.8481C264.76 34.8643 264.744 34.8825 264.731 34.9024V34.9024C264.708 34.927 264.687 34.9535 264.669 34.9817V34.9817V34.9817L264.623 35.0611V35.0611L264.585 35.1487V35.1738C264.585 35.1738 264.585 35.1738 264.585 35.203C264.585 35.2322 264.585 35.203 264.585 35.2364C264.585 35.2698 264.585 35.2364 264.585 35.2656C264.583 35.2767 264.583 35.288 264.585 35.299C264.583 35.3352 264.583 35.3714 264.585 35.4076C264.585 35.4076 264.585 35.4076 264.585 35.441C264.583 35.4632 264.583 35.4855 264.585 35.5078V35.5453C264.585 35.5453 264.585 35.5871 264.585 35.6079L264.606 35.6455V35.6789C264.614 35.6894 264.621 35.7006 264.627 35.7123L264.869 36.0421C264.853 36.0199 264.839 35.9961 264.827 35.9712V35.9336C264.818 35.9151 264.811 35.8954 264.807 35.8751V35.8376C264.804 35.814 264.804 35.7902 264.807 35.7666C264.807 35.7666 264.807 35.7666 264.807 35.7332C264.782 35.7245 264.759 35.7147 264.736 35.704V35.704Z" fill="#C59A0B"/>
<path d="M267.495 34.8982L267.792 34.8732H267.829C267.961 34.8657 268.092 34.8931 268.209 34.9525C268.291 35 268.362 35.064 268.418 35.1404L268.18 34.8106C268.123 34.7331 268.051 34.669 267.967 34.6227C267.85 34.5625 267.718 34.5351 267.587 34.5434H267.554H267.253L267.094 34.5684L267.332 34.8941L267.495 34.8982Z" fill="#C59A0B"/>
<path d="M265.383 37.3279H265.424C265.466 37.3236 265.506 37.3152 265.546 37.3029H265.571L265.717 37.257H265.75L265.867 37.2111H265.905C265.95 37.186 266.001 37.1651 266.047 37.1359V37.1359L266.126 37.09L266.159 37.0649L266.218 37.0232L266.301 36.9606L266.355 36.9105L266.389 36.8854L266.477 36.8019L266.564 36.7101L266.589 36.6809L266.635 36.6308V36.6308L266.685 36.5681L266.71 36.5347C266.731 36.5055 266.756 36.4763 266.773 36.4471V36.4471L266.823 36.3678V36.3427L266.848 36.301V36.301V36.2717C266.846 36.2565 266.846 36.241 266.848 36.2258C266.848 36.2258 266.848 36.2258 266.848 36.1924V36.1674V36.1131C266.85 36.1034 266.85 36.0935 266.848 36.0839V36.0254V36.0254V35.9211V35.7875C266.85 35.7527 266.85 35.7178 266.848 35.6831V35.6831C266.85 35.6441 266.85 35.6051 266.848 35.5662V35.537C266.848 35.4994 266.848 35.4577 266.848 35.4159C266.853 35.3631 266.853 35.31 266.848 35.2573V33.2951C266.848 33.2492 266.848 33.2033 266.848 33.1574V33.1574C266.844 33.1163 266.835 33.0757 266.823 33.0363V33.0363L266.785 32.9236V32.9236C266.77 32.8875 266.752 32.8527 266.731 32.8192V32.8192L266.694 32.7649L266.451 32.4351L266.493 32.4936C266.493 32.527 266.531 32.5645 266.547 32.5979V32.5979L266.585 32.7065V32.7065C266.597 32.7459 266.606 32.7865 266.61 32.8275V32.8484C266.61 32.8902 266.61 32.9361 266.61 32.982V34.9358C266.61 35.036 266.61 35.0652 266.61 35.0986C266.61 35.132 266.61 35.1779 266.61 35.2155V35.2447C266.61 35.2865 266.61 35.3241 266.61 35.3616V35.3616C266.61 35.395 266.61 35.4284 266.61 35.4618V35.4952V35.5996C266.61 35.5996 266.61 35.5996 266.61 35.6246V35.6831C266.61 35.6831 266.61 35.6831 266.61 35.7165C266.612 35.7331 266.612 35.7499 266.61 35.7666V35.8083V35.8376C266.61 35.8376 266.61 35.8668 266.61 35.8835C266.611 35.8932 266.611 35.903 266.61 35.9127L266.585 35.9628V35.9878L266.535 36.0672L266.472 36.159L266.447 36.1882L266.393 36.2509C266.379 36.2722 266.362 36.2918 266.343 36.3093L266.318 36.3385L266.226 36.4345L266.109 36.5431L266.055 36.589L265.971 36.6516L265.913 36.6934L265.8 36.7644V36.7644L265.658 36.8395H265.621L265.504 36.8854H265.47L265.324 36.9313H265.295L265.174 36.9564H265.153H265.007C264.596 37.0048 264.187 36.858 263.901 36.5598L263.851 36.493L264.089 36.8228L264.139 36.8896C264.413 37.2081 264.822 37.3771 265.241 37.3446L265.383 37.3279Z" fill="#C59A0B"/>
<path d="M269.77 35.6747V35.6079C269.772 35.5871 269.772 35.5661 269.77 35.5453C269.772 35.5231 269.772 35.5007 269.77 35.4785C269.773 35.4591 269.773 35.4395 269.77 35.4201C269.773 35.3965 269.773 35.3727 269.77 35.3491C269.772 35.3297 269.772 35.3101 269.77 35.2907V35.2197V35.1654C269.772 35.1404 269.772 35.1153 269.77 35.0903C269.772 35.0736 269.772 35.0568 269.77 35.0402C269.762 35.0131 269.753 34.9866 269.741 34.9609C269.743 34.947 269.743 34.9329 269.741 34.9191C269.741 34.8774 269.708 34.8398 269.687 34.798L269.449 34.4682C269.449 34.51 269.486 34.5476 269.503 34.5893C269.505 34.6032 269.505 34.6172 269.503 34.631L269.532 34.7104C269.534 34.727 269.534 34.7438 269.532 34.7605C269.532 34.7855 269.532 34.8106 269.532 34.8356V34.8899V34.9609C269.534 34.9803 269.534 34.9999 269.532 35.0193C269.534 35.0429 269.534 35.0667 269.532 35.0903C269.534 35.1097 269.534 35.1293 269.532 35.1487C269.532 35.1487 269.532 35.1946 269.532 35.2197C269.534 35.2391 269.534 35.2587 269.532 35.2781V35.3449C269.53 35.3658 269.53 35.3867 269.532 35.4076V35.4952L269.507 35.6205V35.658L269.482 35.7415C269.481 35.7554 269.481 35.7694 269.482 35.7833C269.482 35.8083 269.461 35.8334 269.449 35.8626C269.45 35.8765 269.45 35.8905 269.449 35.9044C269.44 35.9301 269.428 35.9553 269.415 35.9795L269.39 36.0212L269.345 36.1006C269.336 36.1122 269.329 36.1248 269.324 36.1381L269.253 36.2383V36.2383L269.165 36.3469L269.056 36.4638L266.159 39.2525L266.105 39.3026H266.076L266.03 39.336C266.02 39.3379 266.01 39.3379 266.001 39.336H265.98C265.954 39.3557 265.926 39.3725 265.896 39.3861H265.867L265.763 39.4279V39.4279L265.667 39.4529H265.637H265.529C265.22 39.4666 264.924 39.3258 264.74 39.0772L264.982 39.407C265.163 39.6563 265.459 39.7963 265.767 39.7785C265.803 39.7826 265.839 39.7826 265.875 39.7785H265.905L266.001 39.7535V39.7535L266.105 39.7117H266.134L266.218 39.6616V39.6616V39.6616L266.243 39.6408L266.289 39.6074L266.318 39.5823L266.343 39.5614L266.372 39.5364L269.19 36.7477L269.299 36.6308V36.6308L269.382 36.5306V36.5306L269.445 36.4429V36.4429C269.45 36.4295 269.457 36.4169 269.466 36.4053C269.483 36.3804 269.499 36.3538 269.512 36.326L269.537 36.2843C269.535 36.2718 269.535 36.2592 269.537 36.2467C269.535 36.2342 269.535 36.2216 269.537 36.2091C269.537 36.2091 269.537 36.1799 269.537 36.1632C269.549 36.1389 269.561 36.1138 269.57 36.088C269.569 36.0741 269.569 36.0602 269.57 36.0463V36.0463V35.9753V35.9336L269.595 35.8125C269.595 35.8125 269.595 35.7833 269.595 35.7708C269.595 35.7582 269.595 35.7374 269.595 35.7207C269.595 35.704 269.766 35.6956 269.77 35.6747Z" fill="#C59A0B"/>
<path d="M262.08 35.6914L262.318 36.0213V36.0213L262.08 35.6914V35.6914" fill="#7C939A"/>
<path d="M262.118 35.7415L262.356 36.0713L262.318 36.0212L262.08 35.6914L262.118 35.7415V35.7415Z" fill="#788E95"/>
<path d="M269.305 34.3078L269.59 34.7028L269.68 34.8428L269.395 34.4478L269.305 34.3078" fill="#95B0B8"/>
<path d="M269.41 34.4478L269.695 34.8428L269.735 34.9078L269.45 34.5128L269.41 34.4478" fill="#99B5BD"/>
<path d="M264.727 39.1815L264.969 39.5114L264.907 39.432L264.669 39.1022L264.727 39.1815V39.1815Z" fill="#788E95"/>
<path d="M266.259 36.422C266.658 36.0999 266.85 35.5865 266.76 35.0819C266.76 35.0485 266.76 35.0193 266.76 34.9191V32.9653C266.765 32.7117 266.67 32.4663 266.497 32.2807C266.323 32.1051 266.092 31.9958 265.846 31.9717C265.759 31.9634 265.671 31.9634 265.583 31.9717C265.398 31.9846 265.216 32.0269 265.045 32.097C264.776 32.2038 264.534 32.3676 264.335 32.5771L262.277 34.6394C261.968 34.9032 261.885 35.3461 262.076 35.704L262.114 35.7541L264.836 32.9987C264.92 32.9093 265.022 32.8394 265.136 32.7941C265.198 32.7671 265.265 32.7515 265.333 32.7482C265.38 32.7441 265.427 32.7441 265.475 32.7482C265.576 32.7604 265.67 32.8094 265.738 32.886C265.801 32.9661 265.831 33.068 265.821 33.1699L265.792 35.0777C265.792 35.0777 265.792 35.1738 265.792 35.2489C265.822 35.4356 265.754 35.6248 265.612 35.7499C265.478 35.8946 265.295 35.984 265.099 36.0004V36.0004C264.932 36.0166 264.767 35.955 264.652 35.8334C264.54 35.7069 264.49 35.5372 264.514 35.37C264.538 35.1847 264.623 35.0127 264.756 34.8815C264.888 34.7437 265.076 34.6731 265.266 34.6895H265.466H265.529L265.554 33.8128H265.387C264.932 33.8042 264.497 34.0022 264.205 34.3513C263.9 34.6488 263.7 35.0368 263.633 35.4576C263.566 35.8474 263.669 36.2473 263.917 36.5556C264.191 36.8741 264.601 37.0431 265.019 37.0107C265.49 36.969 265.93 36.7602 266.259 36.422Z" fill="#FFF1D4"/>
<path d="M269.349 34.4682C269.182 34.1686 268.929 33.9258 268.622 33.771C268.334 33.6319 268.015 33.57 267.696 33.5915H267.625L267.332 33.6207L267.048 33.65L267.094 34.5893L267.253 34.5642H267.554H267.587C267.718 34.556 267.85 34.5834 267.967 34.6436C268.09 34.7112 268.188 34.8166 268.247 34.9441C268.306 35.0748 268.324 35.2206 268.297 35.3616C268.264 35.5083 268.187 35.6411 268.075 35.7415L264.669 39.1273L264.727 39.2066C264.912 39.4552 265.207 39.596 265.516 39.5823C265.759 39.5654 265.987 39.4617 266.159 39.2901L268.977 36.5013C269.255 36.2292 269.442 35.8777 269.512 35.4952C269.573 35.1443 269.515 34.7831 269.349 34.4682V34.4682Z" fill="#FFF1D4"/>
</g>
<g opacity="0.75">
<path d="M250.575 34.218V34.218H250.612C251.641 33.8481 252.483 33.0897 252.959 32.1056C253.352 31.3249 253.583 30.473 253.639 29.6007V29.6007C253.689 28.8515 253.639 28.0989 253.489 27.3631V27.3631C253.41 26.9784 253.307 26.5992 253.18 26.2275C253.072 25.9137 252.948 25.6057 252.808 25.3049V25.3049C252.494 24.6285 252.091 23.9968 251.61 23.4263V23.4263C251.061 22.7673 250.391 22.2202 249.635 21.8148V21.8148C248.607 21.2357 247.384 21.1087 246.258 21.4641H246.221V21.4641L243.762 22.2991L243.707 24.0149C243.417 24.7356 243.253 25.5011 243.223 26.2776V26.2776C243.19 27.0222 243.257 27.7679 243.423 28.4944V28.4944C243.496 28.8178 243.587 29.1369 243.695 29.4504C243.82 29.822 243.971 30.1846 244.146 30.5359V30.5359C244.475 31.21 244.897 31.8352 245.398 32.3937V32.3937C245.866 32.924 246.414 33.3776 247.022 33.7379L248.116 35.0613L250.575 34.218Z" fill="#977700"/>
<path d="M243.641 23.8229L249.631 21.7772V21.7772C248.603 21.1981 247.38 21.0711 246.254 21.4265H246.216V21.4265L243.758 22.2615L243.641 23.8229Z" fill="#8C7005"/>
<path d="M250.575 34.218V34.218H250.612C251.641 33.8481 252.483 33.0897 252.959 32.1056L247.139 34.0886L248.116 35.0697L250.575 34.218Z" fill="#E0B41D"/>
<path d="M243.215 26.2568L251.61 23.3929V23.3929C251.061 22.7339 250.391 22.1868 249.636 21.7814V21.7814L243.649 23.827L243.707 23.9982C243.417 24.7189 243.253 25.4844 243.223 26.2609L243.215 26.2568Z" fill="#947508"/>
<path d="M243.415 28.4777L252.808 25.2715V25.2715C252.494 24.5951 252.091 23.9634 251.61 23.3929V23.3929L243.219 26.2567V26.2567C243.186 27.0013 243.253 27.747 243.419 28.4735L243.415 28.4777Z" fill="#977910"/>
<path d="M244.137 30.5234L253.489 27.3297V27.3297C253.41 26.945 253.307 26.5658 253.18 26.1941C253.072 25.8803 252.948 25.5723 252.808 25.2715V25.2715L243.415 28.4736V28.4736C243.488 28.7969 243.579 29.1161 243.687 29.4296C243.812 29.8011 243.963 30.1638 244.137 30.515V30.5234Z" fill="#AE890C"/>
<path d="M245.386 32.3853L253.639 29.5632V29.5632C253.689 28.8139 253.639 28.0613 253.489 27.3255V27.3255L244.137 30.515V30.515C244.467 31.1891 244.889 31.8143 245.39 32.3728L245.386 32.3853Z" fill="#C59A0B"/>
<path d="M247.139 34.0761L252.959 32.0931C253.352 31.3124 253.583 30.4605 253.639 29.5882V29.5882L245.386 32.402V32.402C245.858 32.9305 246.41 33.3813 247.022 33.7379L247.139 34.0761Z" fill="#CDA115"/>
<ellipse cx="245.919" cy="28.6576" rx="5.36875" ry="6.75477" transform="rotate(-18.84 245.919 28.6576)" fill="url(#paint25_linear_22_51428)"/>
<path d="M248.103 35.0447C248.85 34.7663 249.511 34.297 250.02 33.6837C250.524 33.0721 250.894 32.3608 251.105 31.5963C251.319 30.8349 251.409 30.0442 251.372 29.2543C251.334 28.4664 251.185 27.6878 250.93 26.9414C250.671 26.2004 250.313 25.4982 249.865 24.854C249.409 24.2138 248.854 23.6501 248.22 23.1841C247.586 22.7093 246.859 22.3735 246.087 22.1989C245.7 22.1147 245.305 22.0782 244.91 22.0904C244.513 22.1062 244.12 22.175 243.741 22.2949C244.498 22.0256 245.315 21.9665 246.104 22.1237C246.893 22.2876 247.638 22.6163 248.291 23.0881C248.94 23.558 249.504 24.1338 249.961 24.7914C250.897 26.1097 251.43 27.672 251.493 29.2876C251.531 30.092 251.431 30.8968 251.197 31.6673C250.969 32.436 250.581 33.1475 250.057 33.7546C249.532 34.3504 248.858 34.7956 248.103 35.0447Z" fill="#FBD367"/>
<path d="M250.299 27.1585C249.791 25.6049 248.758 24.2765 247.377 23.4012C245.795 22.4368 244.53 22.6414 243.912 22.8543C243.294 23.0672 242.167 23.6893 241.507 25.4009C240.43 28.5802 241.63 32.0858 244.43 33.9383C246.008 34.9027 247.277 34.694 247.89 34.4852C248.504 34.2765 249.636 33.6503 250.295 31.9344C250.855 30.392 250.857 28.7019 250.299 27.1585Z" fill="url(#paint26_linear_22_51428)"/>
<path d="M247.39 23.3887C246.951 23.1425 246.48 22.9584 245.991 22.8418C245.507 22.7307 245.007 22.7151 244.517 22.7959C244.276 22.8366 244.041 22.9052 243.816 23.0004C243.593 23.0971 243.382 23.2174 243.186 23.3595C242.792 23.6471 242.455 24.0052 242.192 24.4157C241.931 24.8309 241.726 25.2786 241.582 25.7474C241.437 26.2154 241.348 26.6988 241.315 27.1877C241.283 27.6781 241.301 28.1706 241.37 28.6573C241.437 29.1445 241.552 29.6241 241.712 30.0892C241.871 30.5554 242.073 31.0055 242.317 31.4335C242.559 31.8607 242.846 32.261 243.173 32.6275C243.501 32.9981 243.872 33.3275 244.279 33.6085C244.679 33.8908 245.114 34.1183 245.573 34.2848C246.032 34.4502 246.518 34.528 247.005 34.5145C247.249 34.5072 247.492 34.4722 247.728 34.4101C247.965 34.3495 248.193 34.2598 248.408 34.1429C248.844 33.9078 249.229 33.5902 249.544 33.2078C249.862 32.8186 250.122 32.3855 250.316 31.9219C250.159 32.4055 249.928 32.8618 249.631 33.2745C249.326 33.6916 248.941 34.0447 248.5 34.3141C248.277 34.4462 248.038 34.5513 247.79 34.6272C247.54 34.7033 247.283 34.7509 247.022 34.7691C246.5 34.8038 245.975 34.7386 245.477 34.5771C244.49 34.2397 243.606 33.6547 242.91 32.8779C241.503 31.3202 240.792 29.2565 240.94 27.1627C241.011 26.1188 241.354 25.1116 241.933 24.2404C242.225 23.8105 242.596 23.4406 243.027 23.1507C243.46 22.8553 243.959 22.6691 244.48 22.608C244.991 22.5481 245.509 22.5921 246.004 22.7374C246.496 22.8839 246.963 23.1034 247.39 23.3887Z" fill="#AE890C"/>
<path d="M243.265 28.7992C243.267 28.7909 243.267 28.7824 243.265 28.7741L243.24 28.7157V28.6614C243.237 28.6518 243.237 28.6418 243.24 28.6322C243.238 28.6058 243.238 28.5793 243.24 28.5529C243.229 28.4865 243.229 28.4189 243.24 28.3525C243.24 28.3107 243.265 28.2648 243.282 28.2189C243.324 28.1273 243.396 28.0525 243.486 28.006V28.006L243.11 28.1479V28.1479C243.02 28.1924 242.949 28.268 242.91 28.3608C242.891 28.404 242.876 28.4487 242.864 28.4944C242.854 28.5594 242.854 28.6257 242.864 28.6906V28.7741C242.864 28.7741 242.864 28.7741 242.864 28.7992V28.8493V28.8493V28.8493L242.889 28.9077V28.9328V28.9328L242.914 28.9829L244.818 32.2935L245.194 32.1557L243.29 28.8451L243.265 28.7992Z" fill="#C59A0B"/>
<path d="M245.482 29.8304H245.44H245.411H245.381H245.356H245.335C245.31 29.8304 245.285 29.7928 245.26 29.7677V29.7677L245.198 29.7051V29.7051C245.176 29.6805 245.156 29.6539 245.139 29.6258L245.102 29.5674L245.068 29.5006V29.5006L245.043 29.4421V29.4421V29.3878V29.3878C245.045 29.374 245.045 29.3599 245.043 29.3461V29.1457V29.1457C245.043 29.1457 245.043 29.1081 245.043 29.0873V29.0873C245.041 29.072 245.041 29.0566 245.043 29.0413V29.0413V28.9787C245.043 28.9787 245.064 28.8576 245.081 28.7825C245.082 28.763 245.082 28.7435 245.081 28.7241L244.246 28.4694L243.87 28.6113L244.705 28.8618C244.705 28.8618 244.705 28.8994 244.705 28.9244C244.705 28.9495 244.672 29.0956 244.667 29.1165V29.1833V29.1833C244.666 29.1985 244.666 29.2139 244.667 29.2292V29.2292C244.665 29.2472 244.665 29.2654 244.667 29.2835V29.2835V29.3544C244.67 29.3683 244.67 29.3824 244.667 29.3962V29.3962V29.4505V29.4505L244.693 29.5089V29.5089V29.5298L244.718 29.5757L244.751 29.63V29.63L244.809 29.7051V29.7051V29.7051L244.872 29.7719V29.7719L244.947 29.8304V29.8304V29.8304H244.972H245.001H245.031V29.8304H245.06L245.16 29.8596H245.194H245.264H245.365H245.406H245.44H245.482L245.853 29.7218H245.778H245.74H245.64H245.569H245.536L245.482 29.8304Z" fill="#C59A0B"/>
<path d="M245.444 26.9915L245.503 26.7034C245.503 26.7034 245.503 26.6784 245.503 26.6701C245.531 26.5422 245.593 26.4241 245.682 26.3277C245.747 26.2598 245.827 26.2083 245.916 26.1774L245.54 26.3194C245.451 26.3502 245.371 26.4017 245.306 26.4697C245.218 26.5645 245.156 26.6812 245.127 26.8078C245.127 26.8078 245.127 26.8329 245.127 26.8412L245.068 27.1335V27.2921L245.444 27.1501V26.9915Z" fill="#C59A0B"/>
<path d="M247.202 29.6383C247.204 29.6245 247.204 29.6104 247.202 29.5966C247.204 29.5562 247.204 29.5158 247.202 29.4755C247.202 29.4755 247.202 29.4546 247.202 29.4463C247.202 29.4379 247.202 29.3461 247.202 29.296C247.202 29.2459 247.202 29.2709 247.202 29.2584V29.1373C247.202 29.1373 247.202 29.1123 247.202 29.0956C247.202 29.0789 247.181 28.9954 247.168 28.9453C247.156 28.8952 247.168 28.9453 247.168 28.9161L247.143 28.8326V28.795L247.118 28.7282C247.107 28.6952 247.093 28.6631 247.076 28.6322C247.069 28.6089 247.059 28.5865 247.047 28.5654C247.049 28.5529 247.049 28.5403 247.047 28.5278L246.993 28.4235C246.973 28.3858 246.951 28.3495 246.926 28.3149C246.921 28.3029 246.914 28.2917 246.905 28.2815L246.872 28.2272V28.2272C246.859 28.2034 246.844 28.181 246.826 28.1604L246.805 28.1312L246.734 28.0436V28.0436L246.671 27.9768V27.9768L246.634 27.9434V27.9434C246.634 27.9434 246.634 27.9434 246.613 27.9225L246.571 27.8933H246.546V27.8933V27.8933L246.5 27.864H246.471L246.421 27.839V27.839V27.839L246.321 27.8014H246.3L246.204 27.7722V27.7722L246.091 27.7471H246.062L245.945 27.7221L245.795 27.6803L243.791 27.0583L243.661 27.0333H243.641H243.52H243.499C243.46 27.0291 243.421 27.0291 243.382 27.0333V27.0333C243.342 27.0396 243.303 27.048 243.265 27.0583V27.0583H243.202L242.827 27.2003H242.889C242.927 27.1879 242.966 27.1795 243.006 27.1752V27.1752H243.123H243.144C243.184 27.1729 243.225 27.1729 243.265 27.1752H243.286L243.415 27.2003L245.273 27.7221C245.325 27.73 245.375 27.744 245.423 27.7638L245.54 27.7889H245.569L245.682 27.8181V27.8181L245.778 27.8473V27.8473C245.813 27.8562 245.846 27.8688 245.878 27.8849V27.8849L245.933 27.91H245.958L246.004 27.935L246.037 27.9601H246.066L246.104 27.9935V27.9935L246.15 28.031V28.031L246.212 28.0978C246.237 28.1229 246.258 28.1521 246.283 28.1813L246.304 28.2147L246.35 28.2773L246.396 28.3441C246.401 28.3562 246.408 28.3674 246.417 28.3775L246.479 28.4861C246.506 28.5321 246.529 28.5795 246.55 28.628C246.562 28.6481 246.572 28.669 246.58 28.6906C246.595 28.7233 246.609 28.7567 246.621 28.7908L246.646 28.8576L246.684 28.9787C246.684 28.9787 246.684 28.9787 246.684 29.0037C246.699 29.0544 246.71 29.106 246.717 29.1582C246.717 29.1582 246.717 29.1833 246.717 29.1958V29.321C246.717 29.321 246.717 29.3461 246.717 29.3586C246.717 29.3711 246.717 29.4588 246.717 29.5089C246.719 29.5171 246.719 29.5257 246.717 29.5339C246.717 29.5757 246.717 29.6174 246.717 29.6592C246.719 29.673 246.719 29.6871 246.717 29.7009C246.717 29.7469 246.717 29.797 246.697 29.8429C246.617 30.249 246.349 30.593 245.974 30.7697L245.899 30.8031L246.275 30.6611L246.35 30.6319C246.725 30.4564 246.992 30.1115 247.068 29.7051C247.114 29.6866 247.159 29.6643 247.202 29.6383V29.6383Z" fill="#C59A0B"/>
<path d="M246.784 25.0335L246.717 25.0127H246.663H246.596H246.538H246.467H246.413H246.029L245.903 25.0335L245.528 25.1755H245.653H245.699H245.782H245.949H246.02H246.074H246.145H246.204H246.271H246.325H246.392L246.446 25.1964C246.473 25.2072 246.5 25.2197 246.525 25.2339L246.638 25.2882L246.671 25.3132L246.747 25.3592L246.784 25.3884L246.851 25.4385L246.889 25.4677L246.947 25.5262L246.98 25.5554L247.047 25.6222L247.072 25.6514L247.147 25.7432V25.7432L247.227 25.856C247.256 25.9019 247.285 25.9436 247.31 25.9896L249.222 29.4045L249.251 29.4671C249.251 29.4671 249.251 29.4671 249.251 29.5005V29.5506V29.584C249.251 29.584 249.251 29.584 249.251 29.6091C249.26 29.6406 249.267 29.6727 249.272 29.7051C249.272 29.7051 249.272 29.7051 249.272 29.7302V29.8429V29.8429C249.274 29.8748 249.274 29.9069 249.272 29.9389V29.9806C249.274 30.0168 249.274 30.053 249.272 30.0892C249.204 30.3855 248.993 30.6282 248.709 30.7363L249.084 30.5943C249.392 30.5169 249.636 30.2839 249.727 29.9806C249.73 29.9445 249.73 29.9082 249.727 29.8721V29.8429C249.73 29.8109 249.73 29.7788 249.727 29.7469V29.7469V29.6341C249.727 29.6341 249.727 29.6341 249.727 29.6049C249.722 29.5739 249.715 29.5432 249.707 29.5131V29.5131V29.4797C249.707 29.4797 249.707 29.4463 249.707 29.4296C249.705 29.4171 249.705 29.4045 249.707 29.392V29.3628C249.705 29.3517 249.705 29.3405 249.707 29.3294L247.794 25.9186C247.769 25.8726 247.741 25.828 247.711 25.785V25.785L247.636 25.6806V25.6806C247.616 25.651 247.594 25.6231 247.569 25.5971V25.5971L247.544 25.5679C247.524 25.5436 247.502 25.5212 247.477 25.5011L247.444 25.4677L247.415 25.4385L247.381 25.4134C247.371 25.4013 247.36 25.3901 247.348 25.38L247.281 25.3299L247.248 25.3049V25.3049L247.185 25.2673H247.152L247.039 25.2089H247.001H246.96L246.784 25.0335Z" fill="#C59A0B"/>
<path d="M244.772 32.3477L245.148 32.2058V32.2058L244.772 32.3477V32.3477" fill="#7C939A"/>
<path d="M244.83 32.3227L245.206 32.1849L245.148 32.2058L244.772 32.3477L244.83 32.3227V32.3227Z" fill="#788E95"/>
<path d="M245.374 25.2984L245.824 25.1334L245.984 25.0784L245.534 25.2484L245.374 25.2984" fill="#95B0B8"/>
<path d="M245.534 25.2485L245.984 25.0785H246.059L245.609 25.2485H245.534" fill="#99B5BD"/>
<path d="M248.788 30.7488L249.164 30.6069L249.072 30.6444L248.696 30.7864L248.788 30.7488V30.7488Z" fill="#788E95"/>
<path d="M246.567 28.5654C246.37 28.0962 245.93 27.7747 245.423 27.7304C245.375 27.7106 245.324 27.6966 245.273 27.6887L243.415 27.1668C243.176 27.0976 242.918 27.123 242.697 27.2378C242.482 27.3563 242.317 27.5471 242.229 27.7764C242.194 27.8568 242.168 27.9408 242.15 28.0268C242.112 28.2052 242.104 28.3885 242.125 28.5696C242.159 28.8522 242.25 29.1249 242.392 29.3711L243.816 31.876C243.98 32.2427 244.381 32.4409 244.772 32.3477L244.83 32.3227L242.927 29.0121C242.866 28.9068 242.828 28.7903 242.814 28.6698C242.803 28.6048 242.803 28.5385 242.814 28.4735C242.825 28.4278 242.841 28.3831 242.86 28.34C242.899 28.2472 242.97 28.1715 243.06 28.127C243.154 28.0918 243.258 28.0918 243.352 28.127L245.164 28.6656C245.218 28.6784 245.271 28.6951 245.323 28.7157C245.502 28.7399 245.658 28.8507 245.74 29.0121C245.845 29.1756 245.889 29.3705 245.866 29.5632V29.5632C245.834 29.7232 245.733 29.861 245.59 29.9389C245.445 30.02 245.272 30.0352 245.114 29.9806C244.946 29.9077 244.807 29.7815 244.718 29.6216C244.619 29.4593 244.601 29.2607 244.668 29.0831C244.668 29.0831 244.688 28.962 244.705 28.891C244.722 28.8201 244.705 28.8451 244.705 28.8284L243.87 28.5779L243.862 28.7282C243.737 29.1546 243.811 29.6145 244.062 29.9806C244.263 30.3504 244.58 30.6438 244.964 30.8156C245.32 30.976 245.727 30.976 246.083 30.8156C246.441 30.6408 246.699 30.3116 246.784 29.9222C246.878 29.4586 246.801 28.9765 246.567 28.5654Z" fill="#FFF1D4"/>
<path d="M245.532 25.1171C245.202 25.1947 244.903 25.3709 244.676 25.6222C244.467 25.8599 244.323 26.1475 244.258 26.4572V26.524L244.208 26.812L244.162 27.0875L245.064 27.2921V27.1335L245.123 26.8412C245.123 26.8412 245.123 26.8412 245.123 26.8078C245.151 26.6812 245.213 26.5646 245.302 26.4697C245.398 26.3713 245.522 26.3055 245.657 26.2818C245.799 26.2604 245.945 26.2822 246.074 26.3444C246.2 26.411 246.302 26.5144 246.367 26.6408L248.688 30.7697L248.78 30.7321C249.064 30.6241 249.275 30.3813 249.343 30.085C249.39 29.8503 249.354 29.6064 249.239 29.3962L247.327 25.9812C247.147 25.6513 246.87 25.3846 246.534 25.2173C246.22 25.0747 245.868 25.0395 245.532 25.1171V25.1171Z" fill="#FFF1D4"/>
</g>
<path d="M64.488 60H69.048V50.4L73.32 56.928H73.416L77.712 50.352V60H82.344V43.2H77.424L73.416 49.704L69.408 43.2H64.488V60ZM85.3239 60H91.7079C97.7559 60 101.284 56.4 101.284 51.552V51.504C101.284 46.656 97.8039 43.2 91.8039 43.2H85.3239V60ZM89.9799 55.872V47.328H91.8759C94.6599 47.328 96.5079 48.888 96.5079 51.576V51.624C96.5079 54.336 94.6599 55.872 91.8759 55.872H89.9799ZM103.676 60H117.308V56.04H108.284V53.376H116.348V49.704H108.284V47.16H117.188V43.2H103.676V60ZM118.459 60H123.691L126.931 54.936L130.147 60H135.499L129.739 51.408L135.259 43.2H130.027L127.027 47.928L124.051 43.2H118.699L124.219 51.456L118.459 60Z" fill="white"/>
<path d="M64.488 60H69.048V50.4L73.32 56.928H73.416L77.712 50.352V60H82.344V43.2H77.424L73.416 49.704L69.408 43.2H64.488V60Z" fill="white"/>
<path d="M85.324 60H91.708C97.756 60 101.284 56.4 101.284 51.552V51.504C101.284 46.656 97.804 43.2 91.804 43.2H85.324V60ZM89.98 55.872V47.328H91.876C94.66 47.328 96.508 48.888 96.508 51.576V51.624C96.508 54.336 94.66 55.872 91.876 55.872H89.98Z" fill="white"/>
<path d="M103.676 60H117.308V56.04H108.284V53.376H116.348V49.704H108.284V47.16H117.188V43.2H103.676V60Z" fill="white"/>
<path d="M118.459 60H123.691L126.931 54.936L130.147 60H135.499L129.739 51.408L135.259 43.2H130.027L127.027 47.928L124.051 43.2H118.699L124.219 51.456L118.459 60Z" fill="white"/>
<defs>
<linearGradient id="paint0_linear_22_51428" x1="337.527" y1="122.516" x2="337.527" y2="16.0266" gradientUnits="userSpaceOnUse">
<stop stop-color="#111010"/>
<stop offset="1" stop-color="#2A2A2A"/>
</linearGradient>
<linearGradient id="paint1_linear_22_51428" x1="181.626" y1="120.558" x2="213.432" y2="120.558" gradientUnits="userSpaceOnUse">
<stop stop-color="#35FFE3"/>
<stop offset="1" stop-color="#35FFE3" stop-opacity="0.01"/>
</linearGradient>
<linearGradient id="paint2_linear_22_51428" x1="163.765" y1="120.035" x2="210.603" y2="120.035" gradientUnits="userSpaceOnUse">
<stop stop-color="#FF914F"/>
<stop offset="0.27" stop-color="#FF914F" stop-opacity="0.99"/>
<stop offset="0.4" stop-color="#FF8F4E" stop-opacity="0.96"/>
<stop offset="0.51" stop-color="#FF8D4C" stop-opacity="0.91"/>
<stop offset="0.6" stop-color="#FF8A4A" stop-opacity="0.83"/>
<stop offset="0.69" stop-color="#FF8647" stop-opacity="0.74"/>
<stop offset="0.76" stop-color="#FF8243" stop-opacity="0.62"/>
<stop offset="0.83" stop-color="#FF7C3F" stop-opacity="0.48"/>
<stop offset="0.9" stop-color="#FF753A" stop-opacity="0.31"/>
<stop offset="0.96" stop-color="#FF6E34" stop-opacity="0.13"/>
<stop offset="1" stop-color="#FF6930" stop-opacity="0.01"/>
</linearGradient>
<linearGradient id="paint3_linear_22_51428" x1="301.173" y1="120.604" x2="328.942" y2="120.604" gradientUnits="userSpaceOnUse">
<stop stop-color="#35FFE3" stop-opacity="0.01"/>
<stop offset="1" stop-color="#35FFE3"/>
</linearGradient>
<linearGradient id="paint4_linear_22_51428" x1="302.271" y1="120.026" x2="350.833" y2="120.026" gradientUnits="userSpaceOnUse">
<stop stop-color="#FF6930" stop-opacity="0.01"/>
<stop offset="0.04" stop-color="#FF6E34" stop-opacity="0.13"/>
<stop offset="0.1" stop-color="#FF753A" stop-opacity="0.31"/>
<stop offset="0.17" stop-color="#FF7C3F" stop-opacity="0.48"/>
<stop offset="0.24" stop-color="#FF8243" stop-opacity="0.62"/>
<stop offset="0.31" stop-color="#FF8647" stop-opacity="0.74"/>
<stop offset="0.4" stop-color="#FF8A4A" stop-opacity="0.83"/>
<stop offset="0.49" stop-color="#FF8D4C" stop-opacity="0.91"/>
<stop offset="0.6" stop-color="#FF8F4E" stop-opacity="0.96"/>
<stop offset="0.73" stop-color="#FF914F" stop-opacity="0.99"/>
<stop offset="1" stop-color="#FF914F"/>
</linearGradient>
<linearGradient id="paint5_linear_22_51428" x1="174.834" y1="55.836" x2="174.834" y2="25.2873" gradientUnits="userSpaceOnUse">
<stop offset="0.0105476" stop-color="#242323"/>
<stop offset="1" stop-color="#3D3D3D"/>
</linearGradient>
<linearGradient id="paint6_linear_22_51428" x1="174.834" y1="55.836" x2="174.834" y2="25.2873" gradientUnits="userSpaceOnUse">
<stop offset="0.0105476" stop-color="#242323"/>
<stop offset="1" stop-color="#3D3D3D"/>
</linearGradient>
<linearGradient id="paint7_linear_22_51428" x1="174.834" y1="55.836" x2="174.834" y2="25.2873" gradientUnits="userSpaceOnUse">
<stop offset="0.0105476" stop-color="#242323"/>
<stop offset="1" stop-color="#3D3D3D"/>
</linearGradient>
<linearGradient id="paint8_linear_22_51428" x1="174.834" y1="55.836" x2="174.834" y2="25.2873" gradientUnits="userSpaceOnUse">
<stop offset="0.0105476" stop-color="#242323"/>
<stop offset="1" stop-color="#3D3D3D"/>
</linearGradient>
<linearGradient id="paint9_linear_22_51428" x1="174.834" y1="55.836" x2="174.834" y2="25.2873" gradientUnits="userSpaceOnUse">
<stop offset="0.0105476" stop-color="#242323"/>
<stop offset="1" stop-color="#3D3D3D"/>
</linearGradient>
<linearGradient id="paint10_linear_22_51428" x1="174.834" y1="55.836" x2="174.834" y2="25.2873" gradientUnits="userSpaceOnUse">
<stop offset="0.0105476" stop-color="#242323"/>
<stop offset="1" stop-color="#3D3D3D"/>
</linearGradient>
<linearGradient id="paint11_linear_22_51428" x1="174.834" y1="55.836" x2="174.834" y2="25.2873" gradientUnits="userSpaceOnUse">
<stop offset="0.0105476" stop-color="#242323"/>
<stop offset="1" stop-color="#3D3D3D"/>
</linearGradient>
<linearGradient id="paint12_linear_22_51428" x1="174.834" y1="55.836" x2="174.834" y2="25.2873" gradientUnits="userSpaceOnUse">
<stop offset="0.0105476" stop-color="#242323"/>
<stop offset="1" stop-color="#3D3D3D"/>
</linearGradient>
<linearGradient id="paint13_linear_22_51428" x1="152.49" y1="88.3634" x2="248.581" y2="88.3634" gradientUnits="userSpaceOnUse">
<stop stop-color="#FF914F"/>
<stop offset="0.440184" stop-color="#FF773A" stop-opacity="0.205372"/>
<stop offset="1" stop-color="#FF6930" stop-opacity="0.01"/>
</linearGradient>
<linearGradient id="paint14_linear_22_51428" x1="269.333" y1="56.889" x2="356.836" y2="56.889" gradientUnits="userSpaceOnUse">
<stop stop-color="#2BCBB4" stop-opacity="0.01"/>
<stop offset="0.756255" stop-color="#2BCBB4" stop-opacity="0.5"/>
<stop offset="1" stop-color="#2BCBB4"/>
</linearGradient>
<linearGradient id="paint15_linear_22_51428" x1="210.733" y1="115.343" x2="302.265" y2="115.343" gradientUnits="userSpaceOnUse">
<stop stop-color="#F4ED43"/>
<stop stop-color="#C19511"/>
<stop offset="0.99" stop-color="#6D5809"/>
</linearGradient>
<linearGradient id="paint16_linear_22_51428" x1="283.58" y1="97.9426" x2="283.58" y2="3" gradientUnits="userSpaceOnUse">
<stop stop-color="#FF9500" stop-opacity="0.2"/>
<stop offset="1" stop-color="white" stop-opacity="0.01"/>
</linearGradient>
<linearGradient id="paint17_linear_22_51428" x1="258.094" y1="83.8415" x2="275.503" y2="88.0971" gradientUnits="userSpaceOnUse">
<stop stop-color="#FDCC4A"/>
<stop offset="1" stop-color="#DAAD11"/>
</linearGradient>
<linearGradient id="paint18_linear_22_51428" x1="283.508" y1="64.4604" x2="266.164" y2="61.3071" gradientUnits="userSpaceOnUse">
<stop stop-color="#D0A50A"/>
<stop offset="1" stop-color="#F9C42C"/>
</linearGradient>
<linearGradient id="paint19_linear_22_51428" x1="256.774" y1="49.3965" x2="237.762" y2="49.3965" gradientUnits="userSpaceOnUse">
<stop stop-color="#FDCC4A"/>
<stop offset="1" stop-color="#DAAD11"/>
</linearGradient>
<linearGradient id="paint20_linear_22_51428" x1="243.987" y1="47.2179" x2="237.284" y2="60.0868" gradientUnits="userSpaceOnUse">
<stop stop-color="#F9C42C"/>
<stop offset="1" stop-color="#D0A50A"/>
</linearGradient>
<linearGradient id="paint21_linear_22_51428" x1="270.063" y1="2.55088" x2="260.449" y2="2.55088" gradientUnits="userSpaceOnUse">
<stop stop-color="#FDCC4A"/>
<stop offset="1" stop-color="#DAAD11"/>
</linearGradient>
<linearGradient id="paint22_linear_22_51428" x1="263.602" y1="1.44566" x2="260.216" y2="7.95112" gradientUnits="userSpaceOnUse">
<stop stop-color="#F9C42C"/>
<stop offset="1" stop-color="#D0A50A"/>
</linearGradient>
<linearGradient id="paint23_linear_22_51428" x1="256.854" y1="34.4868" x2="259.427" y2="43.0302" gradientUnits="userSpaceOnUse">
<stop stop-color="#DAAD11"/>
<stop offset="1" stop-color="#FDCC4A"/>
</linearGradient>
<linearGradient id="paint24_linear_22_51428" x1="258.724" y1="41.7663" x2="271.008" y2="41.3987" gradientUnits="userSpaceOnUse">
<stop stop-color="#D0A50A"/>
<stop offset="1" stop-color="#F9C42C"/>
</linearGradient>
<linearGradient id="paint25_linear_22_51428" x1="240.552" y1="21.9028" x2="240.552" y2="35.4082" gradientUnits="userSpaceOnUse">
<stop stop-color="#FDCC4A"/>
<stop offset="1" stop-color="#DAAD11"/>
</linearGradient>
<linearGradient id="paint26_linear_22_51428" x1="240.324" y1="25.859" x2="245.078" y2="35.0114" gradientUnits="userSpaceOnUse">
<stop stop-color="#F9C42C"/>
<stop offset="1" stop-color="#D0A50A"/>
</linearGradient>
</defs>
</svg>
