<svg width="860" height="219" viewBox="0 0 860 219" fill="none" xmlns="http://www.w3.org/2000/svg">
<rect width="860" height="219" rx="40" fill="url(#paint0_linear_22_49382)"/>
<path opacity="0.667528" fill-rule="evenodd" clip-rule="evenodd" d="M363.693 85C345.932 85 332.739 71.3835 332.739 54.1669V54C332.739 36.9576 345.676 23 364.212 23C375.6 23 382.412 26.767 388.011 32.247L379.561 41.9223C374.906 37.727 370.162 35.1576 364.125 35.1576C353.95 35.1576 346.619 43.5481 346.619 53.8258V54C346.619 64.2777 353.782 72.8715 364.125 72.8715C371.024 72.8715 375.249 70.1351 379.993 65.8527L388.442 74.2796C382.237 80.8846 375.337 85 363.693 85ZM98.166 44.8328V83.9693H111.388V24.0234H97.077L81.2088 49.3765L65.3406 24.0234H51V83.9693H64.0249V45.0941L80.836 70.4399H81.1795L98.166 44.8328ZM125.853 83.9693H149.396C168.4 83.9693 181.476 70.8682 181.476 54V53.8258C181.476 36.9576 168.4 24.0234 149.396 24.0234H125.853V83.9693ZM167.588 54C167.588 43.3812 160.279 35.9269 149.396 35.9269H139.163V72.1021H149.396C160.265 72.1021 167.588 64.8438 167.588 54.2032V54ZM193.295 24.0234V83.9693H239.255V72.24H206.488V59.6469H234.913V47.9176H206.488V35.76H238.824V24.0234H193.295ZM288.752 83.9693L275.216 63.3922L261.592 83.9693H246.498L267.541 53.4847L247.339 24.0234H262.863L275.537 43.4683L288.299 24.0234H303.393L283.234 53.3105L304.277 83.9693H288.752ZM312.303 70.2657V83.9693H326.278V70.2657H312.303ZM394.655 54.1669C394.655 71.2093 408.023 85 426.647 85C445.278 85 458.815 71.0424 458.807 54V53.8258C458.807 36.7907 445.432 23 426.815 23C408.199 23 394.655 36.9576 394.655 54V54.1669ZM444.92 54C444.92 43.7223 437.326 35.1285 426.647 35.1285C415.968 35.1285 408.542 43.5191 408.542 53.7968V53.971C408.542 64.2487 416.129 72.8424 426.815 72.8424C437.501 72.8424 444.927 64.4519 444.927 54.1742L444.92 54ZM517.778 44.8328V83.9693H531V24.0234H516.681L500.813 49.3765L484.945 24.0234H470.634V83.9693H483.659V45.0941L500.47 70.4399H500.813L517.778 44.8328Z" fill="url(#paint1_linear_22_49382)"/>
<path d="M439 148.291C439 148.291 468.607 88.8865 510.127 126.645C521.646 136.319 549.458 183.305 598 108" stroke="url(#paint2_linear_22_49382)" stroke-width="5" stroke-linecap="round" stroke-linejoin="round"/>
<path opacity="0.405831" d="M538 184L505.563 197.649H525.725L488 215" stroke="url(#paint3_linear_22_49382)" stroke-width="3" stroke-linecap="round" stroke-linejoin="round"/>
<path opacity="0.405831" d="M534 181L462.724 200.464H487.199L456 215" stroke="url(#paint4_linear_22_49382)" stroke-width="2" stroke-linecap="round" stroke-linejoin="round"/>
<path opacity="0.405831" d="M696 185L732.08 197.979H706.445L739 215" stroke="url(#paint5_linear_22_49382)" stroke-width="3" stroke-linecap="round" stroke-linejoin="round"/>
<path opacity="0.405831" d="M697 181L768.807 199.278L745.115 199.024L778 215" stroke="url(#paint6_linear_22_49382)" stroke-width="2" stroke-linecap="round" stroke-linejoin="round"/>
<path d="M643 92.5975C643 92.5975 676.031 45.5939 706.03 61.1599C736.028 76.7259 754.144 114.506 787 82.5232" stroke="url(#paint7_linear_22_49382)" stroke-width="5" stroke-linecap="round" stroke-linejoin="round"/>
<ellipse opacity="0.14" cx="616.203" cy="200.621" rx="85.5406" ry="9.86894" fill="#FFCC3E"/>
<path d="M678.558 192.632C663.915 190.912 641.429 189.812 616.203 189.812C590.977 189.812 568.498 190.912 553.848 192.632H536.275V197.334C536.275 201.488 572.048 204.856 616.174 204.856C660.3 204.856 696.109 201.525 696.109 197.334V192.632H678.558Z" fill="#FFCC3E"/>
<path d="M695.533 191.743L681.539 170.074H546.173L536.552 192.049C536.406 192.202 536.318 192.4 536.304 192.61C536.304 196.765 572.077 200.132 616.203 200.132C660.329 200.132 696.109 196.765 696.109 192.61C696.053 192.251 695.843 191.934 695.533 191.743Z" fill="url(#paint8_linear_22_49382)"/>
<mask id="mask0_22_49382" style="mask-type:luminance" maskUnits="userSpaceOnUse" x="536" y="170" width="161" height="31">
<path d="M695.533 191.743L681.539 170.074H546.173L536.552 192.049C536.406 192.202 536.318 192.4 536.304 192.61C536.304 196.765 572.077 200.132 616.203 200.132C660.329 200.132 696.109 196.765 696.109 192.61C696.053 192.251 695.843 191.934 695.533 191.743Z" fill="white"/>
</mask>
<g mask="url(#mask0_22_49382)">
<path d="M551.364 171.263L552.265 171.697L546.149 184.387L545.249 183.953L551.364 171.263Z" fill="#FFCC3E"/>
<path d="M564.876 186.006L575.196 180.377L617.639 182.264L617.595 183.263L575.429 181.388L565.064 187.043L538.58 183.258L538.722 182.268L564.876 186.006Z" fill="#FFCC3E"/>
<path d="M560.932 199.264L572.353 191.658L608.714 193.572V202.035H607.714L607.714 194.52L572.631 192.674L561.487 200.097L560.932 199.264Z" fill="#FFCC3E"/>
<path d="M618.117 177.122V201.095H617.117V177.122H618.117Z" fill="#FFCC3E"/>
<path d="M689 179.446L689.122 180.439L658.876 184.169L655.508 189.838L617.629 190.785L617.604 189.786L654.93 188.852L658.268 183.237L689 179.446Z" fill="#FFCC3E"/>
<path d="M667.909 173.2L670.904 181.982L669.958 182.305L666.962 173.522L667.909 173.2Z" fill="#FFCC3E"/>
<path d="M696.461 187.918L696.69 188.892L680.905 192.607L677.254 198.078L676.422 197.522L680.292 191.724L696.461 187.918Z" fill="#FFCC3E"/>
</g>
<ellipse cx="613.856" cy="170.074" rx="67.6832" ry="7.0482" fill="#FFE7AB"/>
<circle cx="518.257" cy="109.096" r="3.28722" fill="#B7810B"/>
<circle cx="684.36" cy="36.1142" r="3.28722" fill="#B7810B"/>
<circle cx="699.397" cy="25.7787" r="6.10796" fill="#B7810B"/>
<circle cx="500.108" cy="93.8045" r="6.10796" fill="#604B0C"/>
<circle cx="546.391" cy="10.1152" r="2.82074" fill="#604B0C"/>
<circle cx="552.033" cy="20.4579" r="1.88049" fill="#604B0C"/>
<circle cx="697.749" cy="148.696" r="2.34697" fill="#604B0C"/>
<circle cx="711.379" cy="134.126" r="3.76099" fill="#604B0C"/>
<rect x="564.22" y="4" width="99.2652" height="165.76" fill="url(#paint9_linear_22_49382)"/>
<ellipse cx="613.856" cy="170.074" rx="49.6363" ry="4.22746" fill="#E9A16D"/>
<path d="M613.856 165.81C586.443 165.81 564.22 167.705 564.22 170.045C564.22 170.387 564.715 170.722 565.619 171.043C565.522 170.972 565.459 170.864 565.444 170.744C565.444 168.798 587.121 167.224 613.856 167.224C640.591 167.224 662.268 168.798 662.268 170.744C662.25 170.864 662.184 170.972 662.085 171.043C662.997 170.722 663.485 170.387 663.485 170.045C663.485 167.734 641.269 165.81 613.856 165.81Z" fill="#C67A46"/>
<circle cx="638.536" cy="101.603" r="2.63123" fill="#B7810B"/>
<circle cx="597.507" cy="140.686" r="3.76099" fill="#B7810B"/>
<circle cx="584.045" cy="154.542" r="1.88049" fill="#B7810B"/>
<path d="M617.605 119.204L617.51 119.27C615.156 120.895 613.866 123.643 613.523 127.025C613.321 129.756 613.622 132.501 614.412 135.123C615.092 137.474 616.03 139.743 617.211 141.887C617.834 143.024 618.516 144.128 619.252 145.196C619.889 146.114 620.549 146.989 621.235 147.82C622.784 149.705 624.534 151.416 626.453 152.922C628.549 154.602 630.919 155.909 633.458 156.785C636.985 157.937 640.324 157.776 642.853 156.056L642.948 155.99L649.938 151.165L646.92 146.792C646.903 144.348 646.517 141.92 645.776 139.591C645.051 137.263 644.073 135.022 642.86 132.907C642.331 131.974 641.747 131.048 641.111 130.13C640.376 129.061 639.586 128.032 638.742 127.047C637.156 125.18 635.366 123.495 633.407 122.025C631.625 120.678 629.662 119.588 627.576 118.789L624.558 114.416L617.605 119.204Z" fill="#977700"/>
<path d="M647.294 147.317L633.482 156.792C637.01 157.944 640.348 157.784 642.877 156.063L642.972 155.998L649.962 151.173L647.294 147.317Z" fill="#E0B41D"/>
<path d="M617.593 119.204L617.498 119.27C615.144 120.895 613.854 123.643 613.511 127.025L626.922 117.761L624.583 114.379L617.593 119.204Z" fill="#8C7005"/>
<path d="M645.815 139.583L626.463 152.944C628.559 154.624 630.928 155.93 633.467 156.807L647.301 147.317L646.966 146.828C646.949 144.384 646.563 141.956 645.822 139.627C645.822 139.627 645.815 139.591 645.815 139.583Z" fill="#CDA115"/>
<path d="M642.892 132.885L621.237 147.842C622.786 149.727 624.536 151.438 626.456 152.944L645.8 139.591C645.075 137.263 644.098 135.022 642.885 132.907L642.892 132.885Z" fill="#C59A0B"/>
<path d="M638.766 127.018L617.206 141.901C617.83 143.039 618.511 144.143 619.247 145.21C619.884 146.129 620.545 147.003 621.23 147.834L642.885 132.885C642.355 131.952 641.772 131.027 641.135 130.108C640.401 129.039 639.61 128.01 638.766 127.025V127.018Z" fill="#AE890C"/>
<path d="M633.424 121.989L614.4 135.108C615.08 137.46 616.018 139.728 617.199 141.872L638.759 126.989C637.173 125.121 635.383 123.437 633.424 121.967V121.989Z" fill="#977910"/>
<path d="M626.922 117.761L613.511 127.025C613.309 129.756 613.61 132.501 614.4 135.123L633.424 122.003C631.642 120.656 629.679 119.566 627.593 118.767L626.922 117.761Z" fill="#947508"/>
<ellipse cx="636.68" cy="133.239" rx="13.284" ry="22.3243" transform="rotate(-34.804 636.68 133.239)" fill="url(#paint10_linear_22_49382)"/>
<path d="M624 114.7C623.286 115.228 622.655 115.859 622.127 116.573C622.039 116.69 621.959 116.821 621.879 116.945C621.794 117.064 621.716 117.189 621.646 117.317C621.061 118.34 620.643 119.45 620.407 120.604C619.965 122.923 619.965 125.304 620.407 127.623C620.829 129.944 621.523 132.207 622.477 134.365C623.425 136.526 624.582 138.588 625.931 140.524C626.602 141.496 627.314 142.436 628.067 143.345C628.796 144.249 629.627 145.109 630.465 145.94C632.146 147.593 634.015 149.044 636.034 150.262C638.044 151.498 640.269 152.344 642.593 152.754C643.76 152.94 644.948 152.94 646.114 152.754C646.259 152.736 646.403 152.707 646.544 152.667C646.689 152.641 646.833 152.607 646.974 152.565C647.83 152.329 648.646 151.965 649.394 151.486C648.418 152.173 647.307 152.645 646.136 152.871C644.958 153.092 643.752 153.124 642.564 152.966C640.199 152.592 637.926 151.773 635.866 150.553C633.799 149.351 631.889 147.897 630.181 146.224C626.742 142.889 624.001 138.902 622.119 134.496C621.159 132.308 620.476 130.009 620.086 127.652C619.669 125.293 619.708 122.875 620.202 120.531C620.472 119.365 620.928 118.251 621.551 117.229C622.179 116.223 623.014 115.361 624 114.7V114.7Z" fill="#FBD367"/>
<path d="M627.967 140.022C631.094 144.541 635.052 148.04 639.111 149.862C643.973 152.049 646.786 150.926 648.033 150.066C649.279 149.206 651.32 146.968 651.007 141.655C650.737 137.209 648.871 132.267 645.751 127.748C642.632 123.229 638.674 119.731 634.607 117.901C629.753 115.714 626.932 116.844 625.686 117.704C624.439 118.564 622.398 120.795 622.719 126.115C623.011 130.562 624.847 135.503 627.967 140.022Z" fill="url(#paint11_linear_22_49382)"/>
<path d="M639.111 149.862L640.103 150.227L640.606 150.38C640.77 150.438 640.938 150.487 641.108 150.525L641.611 150.657L642.129 150.759C642.297 150.759 642.464 150.824 642.639 150.839C642.814 150.853 642.982 150.89 643.157 150.904C644.517 151.064 645.895 150.842 647.136 150.263C648.332 149.633 649.267 148.6 649.775 147.347C650.293 146.094 650.567 144.753 650.584 143.397C650.606 140.657 650.112 137.936 649.126 135.379C648.165 132.797 646.88 130.348 645.299 128.091C643.746 125.807 641.904 123.735 639.818 121.924C637.767 120.088 635.388 118.654 632.807 117.697C631.533 117.232 630.182 117.014 628.827 117.056C627.478 117.097 626.188 117.613 625.183 118.513C624.198 119.469 623.501 120.681 623.171 122.012C623.127 122.18 623.091 122.347 623.047 122.515C623.003 122.682 622.974 122.85 622.945 123.025C622.916 123.2 622.879 123.368 622.857 123.542L622.799 124.06C622.799 124.235 622.763 124.403 622.755 124.577V125.102C622.755 125.452 622.755 125.831 622.755 126.159C622.598 124.752 622.652 123.33 622.916 121.939C623.184 120.51 623.851 119.185 624.84 118.12C625.362 117.589 625.983 117.168 626.669 116.881C627.349 116.592 628.07 116.41 628.805 116.341C630.26 116.241 631.72 116.424 633.105 116.881C635.82 117.792 638.332 119.22 640.503 121.086C644.863 124.82 648.179 129.622 650.125 135.022C651.106 137.726 651.551 140.596 651.437 143.47C651.381 144.927 651.036 146.359 650.423 147.683C650.097 148.346 649.672 148.955 649.163 149.49C648.65 150.029 648.036 150.46 647.355 150.759C646.009 151.305 644.536 151.462 643.106 151.211C641.715 150.962 640.368 150.508 639.111 149.862Z" fill="#AE890C"/>
<path d="M646.801 136.108L645.963 136.895L645.839 137.012L646.684 136.218L646.801 136.108Z" fill="#788E95"/>
<path d="M640.329 127.712C640.139 127.432 639.89 127.198 639.6 127.027C639.374 126.9 639.127 126.816 638.871 126.779H638.71C638.446 126.768 638.188 126.854 637.982 127.019L637.136 127.806C637.344 127.644 637.601 127.559 637.865 127.566H638.025C638.281 127.602 638.527 127.684 638.754 127.806C639.045 127.978 639.294 128.212 639.483 128.492L645.839 136.998L646.684 136.21L640.329 127.712Z" fill="#C59A0B"/>
<path d="M637.588 128.637L635.088 127.908L635.161 127.289L635.234 126.677C635.296 126.107 635.553 125.576 635.963 125.175L635.117 125.97C634.719 126.361 634.462 126.874 634.388 127.427L634.315 128.04L634.235 128.659L636.743 129.388L637.588 128.637Z" fill="#C59A0B"/>
<path d="M639.184 138.113C639.017 138.094 638.852 138.065 638.689 138.025C637.418 137.678 636.304 136.907 635.533 135.839C634.279 134.169 634.374 133.433 634.549 132.085V131.866L637.464 132.646L637.894 132.77C638.378 132.826 638.813 133.093 639.082 133.499C639.391 133.89 639.565 134.371 639.578 134.869C639.594 135.255 639.449 135.63 639.177 135.904L640.015 135.11C640.292 134.841 640.44 134.467 640.423 134.082C640.407 133.583 640.231 133.103 639.92 132.712C639.654 132.306 639.222 132.039 638.74 131.983C638.55 131.925 638.339 131.874 638.302 131.866L632.668 130.409C632.551 130.372 632.432 130.345 632.311 130.328C632.067 130.296 631.819 130.314 631.582 130.379C631.389 130.438 631.212 130.54 631.065 130.678L630.299 131.451C630.44 131.308 630.616 131.205 630.81 131.152C631.046 131.083 631.295 131.066 631.538 131.101C631.659 131.116 631.779 131.14 631.896 131.174L634.403 131.837L633.761 132.442L633.71 132.887C633.528 134.235 633.433 134.971 634.694 136.648C635.46 137.718 636.573 138.49 637.843 138.834C638.006 138.876 638.172 138.907 638.339 138.929C639.225 139.066 640.127 138.823 640.824 138.258L640.934 138.156L641.779 137.369L641.662 137.471C640.964 138.025 640.064 138.258 639.184 138.113Z" fill="#C59A0B"/>
<path d="M637.143 144.075C636.374 143.959 635.684 143.536 635.234 142.901L628.842 134.403C628.207 133.623 627.812 132.676 627.704 131.677C627.589 130.805 627.802 129.922 628.302 129.199C628.44 129 628.596 128.814 628.769 128.645L627.93 129.439C627.75 129.603 627.591 129.789 627.457 129.993C626.956 130.716 626.743 131.6 626.859 132.471C626.975 133.47 627.372 134.415 628.003 135.197L634.403 143.696C634.859 144.323 635.546 144.743 636.312 144.862C636.936 144.951 637.566 144.753 638.025 144.323L638.864 143.528C638.402 143.961 637.77 144.162 637.143 144.075Z" fill="#C59A0B"/>
<path d="M638.652 129.723L638.266 129.607L632.807 127.908C632.511 127.821 632.209 127.758 631.903 127.719C631.35 127.643 630.787 127.681 630.248 127.828C629.454 128.033 628.761 128.517 628.295 129.191C627.794 129.914 627.581 130.798 627.697 131.669C627.805 132.669 628.2 133.616 628.834 134.395L635.234 142.894C635.685 143.528 636.374 143.952 637.143 144.068C637.768 144.153 638.397 143.952 638.856 143.521L639.031 143.361L631.181 133.011C630.936 132.698 630.771 132.33 630.7 131.939C630.653 131.59 630.728 131.234 630.912 130.933C631.077 130.653 631.335 130.44 631.64 130.328C631.878 130.262 632.125 130.245 632.369 130.277C632.49 130.294 632.61 130.321 632.726 130.357L638.361 131.815C638.397 131.815 638.608 131.874 638.798 131.932C639.28 131.988 639.712 132.255 639.979 132.661C640.289 133.052 640.465 133.532 640.482 134.031C640.51 134.417 640.362 134.795 640.078 135.059C639.795 135.322 639.407 135.443 639.024 135.387C638.933 135.374 638.843 135.355 638.754 135.328C638.241 135.177 637.792 134.859 637.479 134.425C637.145 134.018 637.021 133.478 637.143 132.967C637.143 132.894 637.143 132.449 637.209 132.282L634.622 131.626L634.571 132.078C634.396 133.426 634.301 134.162 635.554 135.831C636.326 136.899 637.44 137.671 638.711 138.018C638.874 138.057 639.039 138.086 639.206 138.105C640.089 138.244 640.989 138.003 641.684 137.442C642.439 136.766 642.837 135.778 642.763 134.767C642.696 133.625 642.285 132.529 641.582 131.626C640.93 130.594 639.86 129.899 638.652 129.723Z" fill="#FFF1D4"/>
<path d="M646.641 133.237L641.859 126.815C641.386 126.178 640.795 125.639 640.117 125.226C639.54 124.882 638.897 124.661 638.229 124.577H638.004C637.345 124.53 636.69 124.707 636.145 125.08C635.62 125.483 635.283 126.084 635.212 126.742L635.139 127.355L635.066 127.974L637.566 128.703V128.36L637.617 127.755C637.618 127.478 637.734 127.214 637.938 127.027C638.144 126.861 638.403 126.775 638.667 126.786H638.827C639.083 126.823 639.33 126.907 639.556 127.034C639.847 127.205 640.096 127.439 640.285 127.719L646.641 136.225L646.757 136.116C647.457 135.496 647.37 134.228 646.641 133.237Z" fill="#FFF1D4"/>
<g opacity="0.95">
<path d="M585.167 120.62H585.073C582.55 119.707 580.484 117.845 579.315 115.43C578.344 113.499 577.774 111.392 577.638 109.235C577.515 107.397 577.64 105.551 578.01 103.746C578.193 102.801 578.436 101.869 578.739 100.955C578.998 100.184 579.302 99.4298 579.65 98.6952C580.415 97.0359 581.395 95.4846 582.565 94.0815C583.913 92.4612 585.561 91.1172 587.42 90.1237C589.943 88.692 592.949 88.3776 595.714 89.2563H595.809L601.844 91.319L601.99 95.5319C602.694 97.3059 603.093 99.1862 603.171 101.093C603.249 102.924 603.085 104.757 602.682 106.545C602.507 107.339 602.288 108.122 602.026 108.892C601.712 109.803 601.342 110.694 600.918 111.56C600.11 113.215 599.08 114.753 597.857 116.13C596.698 117.439 595.34 118.558 593.834 119.446L591.151 122.69L585.167 120.62Z" fill="#977700"/>
<path d="M602.208 95.0581L587.485 90.0071C590.009 88.5753 593.015 88.261 595.78 89.1397H595.875L601.91 91.2024L602.208 95.0581Z" fill="#8C7005"/>
<path d="M585.167 120.62H585.073C582.55 119.707 580.484 117.845 579.315 115.43L593.608 120.306L591.21 122.712L585.167 120.62Z" fill="#E0B41D"/>
<path d="M603.251 101.042L582.624 94.0013C583.971 92.381 585.619 91.037 587.478 90.0435L602.187 95.0655L602.048 95.4809C602.752 97.2549 603.151 99.1352 603.229 101.042H603.251Z" fill="#947508"/>
<path d="M602.755 106.501L579.679 98.6224C580.444 96.963 581.424 95.4118 582.594 94.0086L603.214 101.042C603.293 102.873 603.129 104.706 602.726 106.494L602.755 106.501Z" fill="#977910"/>
<path d="M600.984 111.523L578.01 103.681C578.193 102.736 578.436 101.803 578.739 100.889C578.998 100.119 579.302 99.3642 579.65 98.6296L602.733 106.509C602.558 107.303 602.339 108.086 602.077 108.856C601.763 109.767 601.393 110.658 600.969 111.523H600.984Z" fill="#AE890C"/>
<path d="M597.915 116.101L577.638 109.184C577.515 107.346 577.64 105.5 578.01 103.695L600.991 111.538C600.183 113.193 599.153 114.731 597.93 116.108L597.915 116.101Z" fill="#C59A0B"/>
<path d="M593.608 120.255L579.315 115.379C578.344 113.448 577.774 111.341 577.638 109.184L597.923 116.108C596.763 117.417 595.406 118.536 593.899 119.424L593.608 120.255Z" fill="#CDA115"/>
<ellipse cx="596.598" cy="106.919" rx="16.5964" ry="13.1926" transform="rotate(-71.16 596.598 106.919)" fill="url(#paint12_linear_22_49382)"/>
<path d="M591.246 122.631C589.367 122.018 587.69 120.908 586.392 119.417C585.103 117.914 584.147 116.155 583.586 114.257C583.019 112.367 582.772 110.396 582.857 108.426C583.01 104.454 584.32 100.614 586.625 97.376C587.766 95.7588 589.171 94.3446 590.78 93.1923C592.386 92.0335 594.219 91.2263 596.159 90.8234C598.105 90.4324 600.121 90.5786 601.99 91.2462C601.057 90.9495 600.089 90.7803 599.111 90.7432C598.131 90.707 597.151 90.7977 596.195 91.0129C594.297 91.4389 592.51 92.2638 590.955 93.4328C589.392 94.5867 588.028 95.9875 586.917 97.5801C584.688 100.782 583.402 104.544 583.207 108.44C583.113 110.381 583.337 112.323 583.87 114.191C584.389 116.061 585.298 117.8 586.538 119.293C587.158 120.041 587.874 120.705 588.666 121.268C589.46 121.837 590.328 122.296 591.246 122.631Z" fill="#FBD367"/>
<path d="M585.838 103.258C587.072 99.4309 589.6 96.1528 592.988 93.9867C596.873 91.6179 599.985 92.1281 601.501 92.6456C603.018 93.1631 605.787 94.6573 607.413 98.9066C610.069 106.713 607.133 115.33 600.262 119.891C596.377 122.26 593.265 121.749 591.749 121.232C590.233 120.714 587.463 119.22 585.838 114.971C584.476 111.185 584.476 107.043 585.838 103.258Z" fill="url(#paint13_linear_22_49382)"/>
<path d="M592.995 93.9867C594.033 93.2912 595.168 92.7533 596.363 92.3905C597.581 92.0401 598.856 91.9311 600.117 92.0698C600.752 92.1494 601.376 92.3035 601.975 92.529C602.576 92.7572 603.151 93.0505 603.688 93.4036C604.755 94.1227 605.675 95.0379 606.399 96.1005C607.812 98.2379 608.65 100.703 608.834 103.258C609.21 108.393 607.487 113.461 604.06 117.303C602.352 119.217 600.177 120.656 597.748 121.48C596.526 121.88 595.24 122.043 593.958 121.961C593.318 121.911 592.685 121.793 592.07 121.611C591.457 121.423 590.87 121.161 590.321 120.831C589.234 120.178 588.29 119.313 587.544 118.287C586.819 117.269 586.249 116.149 585.853 114.964C586.337 116.099 586.978 117.161 587.755 118.12C588.528 119.061 589.476 119.843 590.546 120.423C591.08 120.702 591.642 120.922 592.223 121.079C592.802 121.227 593.396 121.31 593.994 121.327C595.192 121.362 596.386 121.174 597.515 120.773C598.643 120.354 599.713 119.793 600.7 119.104C601.682 118.406 602.582 117.599 603.382 116.698C604.181 115.801 604.887 114.824 605.488 113.783C606.68 111.673 607.469 109.359 607.813 106.961C607.981 105.766 608.025 104.557 607.945 103.353C607.865 102.148 607.645 100.957 607.289 99.8031C606.936 98.6527 606.431 97.5546 605.787 96.5378C605.142 95.5285 604.314 94.6485 603.345 93.943C602.86 93.5917 602.337 93.2958 601.786 93.0611C601.234 92.8276 600.656 92.6589 600.066 92.5581C598.855 92.3583 597.617 92.3954 596.421 92.6675C595.225 92.9497 594.072 93.3935 592.995 93.9867Z" fill="#AE890C"/>
<path d="M599.191 116.035L598.207 115.649L598.068 115.59L599.052 115.977L599.191 116.035Z" fill="#788E95"/>
<path d="M603.564 107.42C603.721 107.153 603.813 106.854 603.834 106.545C603.853 106.299 603.826 106.052 603.754 105.816C603.754 105.765 603.717 105.722 603.695 105.678C603.601 105.45 603.428 105.263 603.207 105.153L602.23 104.767C602.452 104.878 602.628 105.064 602.726 105.292L602.777 105.43C602.852 105.665 602.881 105.913 602.865 106.159C602.84 106.469 602.748 106.77 602.595 107.041L598.076 115.59L599.06 115.977L603.564 107.42Z" fill="#C59A0B"/>
<path d="M601.706 105.525L601.305 103.185L601.844 103.01L602.376 102.828C602.867 102.656 603.402 102.656 603.892 102.828L602.916 102.442C602.425 102.269 601.89 102.269 601.399 102.442L600.867 102.624L600.328 102.806L600.722 105.138L601.706 105.525Z" fill="#C59A0B"/>
<path d="M594.584 110.554C594.537 110.408 594.498 110.26 594.468 110.109C594.253 108.932 594.451 107.717 595.029 106.669C595.911 104.978 596.552 104.767 597.733 104.388L597.915 104.322L598.426 107.055C598.426 107.092 598.477 107.281 598.498 107.464C598.649 107.875 598.606 108.333 598.382 108.71C598.182 109.119 597.854 109.451 597.449 109.657C597.139 109.822 596.774 109.848 596.443 109.73L597.42 110.117C597.75 110.234 598.115 110.208 598.426 110.044C598.831 109.837 599.158 109.505 599.359 109.096C599.577 108.715 599.622 108.259 599.482 107.843C599.482 107.668 599.417 107.478 599.41 107.442L598.426 102.223C598.413 102.111 598.389 102.001 598.353 101.895C598.285 101.69 598.176 101.502 598.032 101.341C597.913 101.202 597.759 101.097 597.587 101.035L596.611 100.649C596.779 100.718 596.931 100.822 597.055 100.955C597.196 101.12 597.305 101.311 597.376 101.516C597.409 101.621 597.433 101.728 597.449 101.837L597.886 104.162L597.157 103.87L596.771 104.001C595.59 104.38 594.949 104.592 594.067 106.283C593.49 107.334 593.294 108.552 593.513 109.73C593.54 109.879 593.579 110.025 593.63 110.168C593.858 110.95 594.41 111.597 595.146 111.946L595.277 112.004L596.254 112.383L596.13 112.332C595.387 111.983 594.826 111.338 594.584 110.554Z" fill="#C59A0B"/>
<path d="M588.855 111.203C588.652 110.525 588.731 109.795 589.074 109.176L593.557 100.59C593.951 99.7627 594.576 99.0667 595.357 98.5859C596.027 98.1448 596.84 97.973 597.631 98.1049C597.847 98.1409 598.06 98.197 598.265 98.2725L597.289 97.8935C597.082 97.8122 596.867 97.7536 596.647 97.7186C595.856 97.5939 595.046 97.7651 594.373 98.1996C593.596 98.6827 592.974 99.3783 592.58 100.204L588.09 108.79C587.745 109.411 587.669 110.145 587.879 110.824C588.053 111.369 588.462 111.808 588.994 112.019L589.971 112.405C589.438 112.191 589.029 111.75 588.855 111.203Z" fill="#C59A0B"/>
<path d="M601.254 106.829C601.241 106.71 601.221 106.59 601.195 106.472L600.467 101.319C600.424 101.04 600.358 100.764 600.27 100.496C600.116 100.012 599.868 99.5641 599.541 99.1763C599.06 98.6047 598.39 98.2245 597.653 98.1049C596.862 97.973 596.049 98.1448 595.379 98.5859C594.598 99.0667 593.973 99.7627 593.579 100.59L589.096 109.176C588.753 109.795 588.674 110.525 588.877 111.203C589.051 111.75 589.46 112.191 589.993 112.405L590.197 112.486L595.627 101.982C595.786 101.657 596.024 101.377 596.319 101.166C596.589 100.991 596.911 100.914 597.23 100.947C597.532 100.978 597.812 101.118 598.017 101.341C598.161 101.502 598.27 101.69 598.338 101.895C598.374 102.001 598.399 102.111 598.411 102.223L599.395 107.442C599.395 107.478 599.439 107.668 599.468 107.843C599.608 108.259 599.562 108.715 599.344 109.096C599.144 109.505 598.817 109.837 598.411 110.044C598.063 110.222 597.651 110.222 597.303 110.044C597.016 109.892 596.805 109.628 596.72 109.315C596.691 109.235 596.669 109.152 596.655 109.067C596.579 108.586 596.666 108.094 596.902 107.668C597.107 107.226 597.511 106.909 597.988 106.815C598.054 106.815 598.433 106.64 598.579 106.604L598.105 104.213L597.719 104.351C596.538 104.73 595.896 104.942 595.015 106.633C594.436 107.68 594.238 108.896 594.453 110.073C594.484 110.223 594.522 110.372 594.57 110.518C594.807 111.297 595.359 111.942 596.093 112.296C596.942 112.66 597.912 112.6 598.71 112.136C599.624 111.639 600.367 110.877 600.838 109.949C601.416 109.016 601.567 107.881 601.254 106.829Z" fill="#FFF1D4"/>
<path d="M601.487 114.789L604.898 108.345C605.236 107.707 605.449 107.009 605.525 106.29C605.584 105.68 605.515 105.064 605.321 104.482C605.301 104.418 605.277 104.354 605.248 104.293C605.032 103.732 604.631 103.261 604.111 102.959C603.574 102.682 602.946 102.64 602.376 102.843L601.844 103.025L601.305 103.2L601.706 105.539L601.99 105.401L602.5 105.211C602.732 105.107 602.997 105.107 603.229 105.211C603.45 105.321 603.623 105.508 603.717 105.736C603.717 105.78 603.754 105.824 603.776 105.875C603.848 106.11 603.875 106.358 603.856 106.603C603.835 106.912 603.742 107.211 603.586 107.478L599.074 116.035L599.213 116.093C599.949 116.334 600.955 115.765 601.487 114.789Z" fill="#FFF1D4"/>
</g>
<g opacity="0.65">
<path d="M622.231 39.4888H622.187C620.911 39.0273 619.865 38.0859 619.271 36.8649C618.779 35.8888 618.491 34.8222 618.426 33.7307C618.372 32.8046 618.443 31.8755 618.637 30.9683C618.733 30.4917 618.86 30.0218 619.016 29.5616C619.149 29.1721 619.302 28.7901 619.476 28.4173C619.856 27.5763 620.346 26.7895 620.933 26.0776C621.614 25.256 622.448 24.5752 623.39 24.0732C624.663 23.3467 626.183 23.1856 627.581 23.6286H627.632L630.686 24.6709L630.759 26.7992C631.113 27.6972 631.315 28.6481 631.356 29.6126C631.398 30.538 631.315 31.4647 631.108 32.3678C631.017 32.7668 630.905 33.1609 630.773 33.5485C630.616 34.0122 630.428 34.465 630.212 34.9042C629.804 35.7424 629.281 36.52 628.659 37.2148C628.071 37.8736 627.385 38.4388 626.626 38.8912L625.263 40.5311L622.231 39.4888Z" fill="#977700"/>
<path d="M630.846 26.595L623.404 24.0513C624.678 23.3248 626.197 23.1636 627.595 23.6067H627.646L630.7 24.6489L630.846 26.595Z" fill="#8C7005"/>
<path d="M622.231 39.4888H622.187C620.911 39.0272 619.865 38.0858 619.271 36.8649L626.502 39.3285L625.285 40.5457L622.231 39.4888Z" fill="#E0B41D"/>
<path d="M631.378 29.598L620.948 26.0338C621.628 25.2123 622.463 24.5314 623.404 24.0294L630.853 26.5951L630.78 26.8064C631.135 27.7044 631.337 28.6553 631.378 29.6199V29.598Z" fill="#947508"/>
<path d="M631.13 32.3604L619.468 28.3735C619.849 27.5325 620.339 26.7458 620.926 26.0338L631.356 29.5907C631.398 30.5161 631.315 31.4428 631.108 32.3459L631.13 32.3604Z" fill="#977910"/>
<path d="M630.234 34.8969L618.637 30.9683C618.733 30.4916 618.86 30.0217 619.016 29.5616C619.149 29.1721 619.302 28.7901 619.476 28.4172L631.138 32.3969C631.046 32.796 630.934 33.1901 630.802 33.5777C630.645 34.0413 630.457 34.4942 630.241 34.9334L630.234 34.8969Z" fill="#AE890C"/>
<path d="M628.681 37.2147L618.426 33.7161C618.374 32.7948 618.445 31.8707 618.637 30.9683L630.256 34.9406C629.847 35.7788 629.325 36.5564 628.703 37.2511L628.681 37.2147Z" fill="#C59A0B"/>
<path d="M626.502 39.3139L619.272 36.8503C618.779 35.8741 618.491 34.8076 618.426 33.7161L628.681 37.2147C628.092 37.8735 627.407 38.4388 626.648 38.8911L626.502 39.3139Z" fill="#CDA115"/>
<ellipse cx="628.008" cy="32.5716" rx="8.39662" ry="6.66919" transform="rotate(-71.16 628.008 32.5716)" fill="url(#paint14_linear_22_49382)"/>
<path d="M625.307 40.5165C624.357 40.2047 623.508 39.6433 622.85 38.8911C622.2 38.1298 621.716 37.241 621.429 36.2817C621.144 35.3224 621.021 34.3223 621.064 33.3225C621.106 32.3295 621.29 31.3476 621.611 30.407C621.937 29.4639 622.394 28.5709 622.967 27.7539C623.543 26.9344 624.256 26.2196 625.073 25.6402C625.881 25.0396 626.808 24.6196 627.792 24.4084C628.766 24.2214 629.772 24.2968 630.707 24.6271C630.236 24.4734 629.745 24.3875 629.25 24.372C628.76 24.3543 628.27 24.3984 627.792 24.5032C626.851 24.7293 625.967 25.1488 625.197 25.7349C624.405 26.3184 623.713 27.0275 623.149 27.8341C622.591 28.6412 622.147 29.5218 621.83 30.4508C621.507 31.3912 621.321 32.373 621.276 33.3663C621.229 34.3498 621.343 35.3344 621.611 36.2817C621.873 37.2296 622.333 38.1113 622.96 38.8692C623.276 39.2484 623.638 39.5863 624.038 39.8751C624.431 40.1435 624.858 40.3591 625.307 40.5165Z" fill="#FBD367"/>
<path d="M622.573 30.7205C623.203 28.7784 624.492 27.1179 626.218 26.0265C627.452 25.104 629.062 24.8505 630.52 25.3491C631.978 25.8477 633.096 27.0342 633.506 28.5193C634.194 30.4321 634.194 32.5248 633.506 34.4377C632.875 36.377 631.586 38.0348 629.862 39.1244C628.63 40.0506 627.019 40.3072 625.56 39.8097C624.101 39.3122 622.983 38.125 622.573 36.6389C621.886 34.726 621.886 32.6333 622.573 30.7205Z" fill="url(#paint15_linear_22_49382)"/>
<path d="M626.196 26.0265C626.718 25.6754 627.291 25.4051 627.894 25.2248C628.511 25.0452 629.157 24.9882 629.796 25.0571C630.118 25.0994 630.433 25.1777 630.737 25.2903C631.039 25.4063 631.327 25.5554 631.597 25.735C632.138 26.0954 632.604 26.5585 632.967 27.098C633.687 28.185 634.112 29.4411 634.199 30.7423C634.296 32.0282 634.13 33.3204 633.71 34.5398C633.285 35.7549 632.621 36.8726 631.757 37.827C630.892 38.7917 629.792 39.5172 628.565 39.9334C627.947 40.1371 627.296 40.2188 626.648 40.1739C626.324 40.1517 626.004 40.0931 625.693 39.999C625.382 39.9042 625.083 39.772 624.804 39.6054C624.256 39.2724 623.781 38.8339 623.404 38.3153C623.036 37.8034 622.748 37.238 622.551 36.6389C622.801 37.2221 623.132 37.767 623.535 38.257C623.925 38.7358 624.405 39.1323 624.949 39.4232C625.215 39.5643 625.497 39.6744 625.788 39.7512C626.081 39.8269 626.381 39.8709 626.684 39.8824C627.292 39.8973 627.897 39.8009 628.47 39.5981C629.042 39.3881 629.583 39.1039 630.081 38.7526C630.58 38.3999 631.035 37.9888 631.436 37.5281C631.835 37.079 632.186 36.5906 632.486 36.0704C632.783 35.5367 633.027 34.9753 633.215 34.394C633.413 33.8157 633.557 33.2204 633.645 32.6155C633.729 32.0119 633.751 31.4014 633.71 30.7933C633.669 30.1847 633.556 29.583 633.375 29.0003C633.207 28.4188 632.962 27.8624 632.646 27.3458C632.321 26.8329 631.901 26.3874 631.407 26.0338C631.164 25.8547 630.899 25.7054 630.62 25.5892C630.343 25.468 630.051 25.3823 629.753 25.3341C629.145 25.2344 628.524 25.2517 627.923 25.3851C627.322 25.5229 626.741 25.7385 626.196 26.0265Z" fill="#AE890C"/>
<path d="M629.323 37.1783L628.827 36.9888L628.754 36.9596L629.25 37.1491L629.323 37.1783Z" fill="#788E95"/>
<path d="M631.538 32.8269C631.617 32.691 631.665 32.539 631.677 32.3823C631.678 32.2619 631.663 32.1418 631.633 32.0252V31.9596C631.585 31.8432 631.497 31.7476 631.385 31.6899L630.89 31.4931C631.003 31.5457 631.091 31.6396 631.138 31.7555V31.8211C631.157 31.9394 631.157 32.06 631.138 32.1782C631.129 32.3346 631.084 32.4869 631.006 32.6229L628.718 36.9524L629.221 37.1419L631.538 32.8269Z" fill="#C59A0B"/>
<path d="M630.598 31.8648L630.394 30.6841L630.671 30.5893L630.933 30.5018C631.183 30.414 631.456 30.414 631.706 30.5018L631.21 30.305C630.96 30.2173 630.688 30.2173 630.438 30.305L630.175 30.3998L629.898 30.4873L630.103 31.668L630.598 31.8648Z" fill="#C59A0B"/>
<path d="M626.976 34.4086C626.952 34.3344 626.932 34.259 626.917 34.1826C626.807 33.5865 626.908 32.9708 627.202 32.4406C627.426 31.847 627.942 31.4116 628.565 31.289H628.659L628.922 32.6666C628.922 32.6666 628.922 32.7832 628.922 32.8706C628.998 33.0809 628.974 33.3147 628.856 33.5048C628.754 33.7097 628.591 33.8778 628.39 33.9858C628.226 34.0538 628.043 34.0538 627.879 33.9858L628.375 34.1753C628.537 34.2505 628.724 34.2505 628.885 34.1753C629.089 34.0705 629.254 33.9049 629.359 33.7016C629.467 33.5078 629.488 33.2776 629.417 33.0674C629.417 32.98 629.381 32.8779 629.381 32.8634L628.885 30.2248C628.877 30.1681 628.865 30.1121 628.849 30.0572C628.812 29.9544 628.755 29.8602 628.681 29.7802C628.623 29.7088 628.548 29.6535 628.463 29.6199L627.96 29.4304C628.049 29.4569 628.128 29.5103 628.186 29.5834C628.261 29.665 628.318 29.762 628.353 29.8677C628.37 29.9201 628.382 29.9737 628.39 30.028L628.608 31.2015L628.229 31.0557L628.032 31.1213C627.412 31.2478 626.898 31.6818 626.669 32.273C626.376 32.806 626.276 33.4238 626.385 34.0223C626.385 34.0951 626.385 34.168 626.444 34.2409C626.561 34.6383 626.842 34.967 627.216 35.1447H627.274L627.77 35.3415H627.712C627.345 35.1492 627.077 34.81 626.976 34.4086Z" fill="#C59A0B"/>
<path d="M624.097 34.7365C623.994 34.3932 624.033 34.0228 624.206 33.7088L626.473 29.3356C626.682 28.9316 626.997 28.5916 627.384 28.3516C627.725 28.1311 628.135 28.0454 628.536 28.1111C628.646 28.1256 628.754 28.155 628.856 28.1985L628.361 28.0017C628.256 27.9649 628.149 27.9357 628.04 27.9143C627.639 27.8507 627.228 27.9391 626.888 28.1621C626.494 28.4062 626.178 28.7577 625.977 29.1752L623.71 33.5485C623.537 33.8597 623.497 34.228 623.601 34.5689C623.69 34.8473 623.899 35.0716 624.17 35.1811L624.665 35.3707C624.389 35.2574 624.179 35.0238 624.097 34.7365Z" fill="#C59A0B"/>
<path d="M630.365 32.5281C630.365 32.5281 630.365 32.4552 630.365 32.3386L629.986 29.7365C629.964 29.5953 629.93 29.4563 629.884 29.321C629.804 29.0756 629.678 28.8479 629.512 28.6505C629.267 28.3636 628.929 28.1725 628.557 28.1111C628.157 28.0454 627.746 28.1311 627.406 28.3516C627.015 28.5996 626.7 28.9501 626.495 29.3648L624.228 33.738C624.055 34.052 624.015 34.4224 624.118 34.7657C624.209 35.0419 624.417 35.2636 624.687 35.3707L624.789 35.4144L627.53 30.1009C627.61 29.9377 627.73 29.7973 627.879 29.6928C628.015 29.6038 628.177 29.5628 628.339 29.5761C628.494 29.5894 628.638 29.6626 628.739 29.7802C628.814 29.8602 628.871 29.9544 628.907 30.0572C628.923 30.1121 628.936 30.1681 628.944 30.2248L629.439 32.8634C629.439 32.8634 629.439 32.98 629.476 33.0674C629.546 33.2776 629.525 33.5078 629.417 33.7016C629.312 33.9049 629.147 34.0705 628.944 34.1753C628.767 34.2661 628.558 34.2661 628.382 34.1753C628.236 34.1013 628.127 33.969 628.083 33.8109C628.079 33.7697 628.079 33.7282 628.083 33.687C628.039 33.437 628.083 33.1793 628.207 32.9581C628.311 32.7362 628.514 32.5767 628.754 32.5281L629.053 32.4187L628.812 31.2161L628.616 31.2817C627.975 31.3866 627.438 31.8216 627.202 32.426C626.908 32.9563 626.807 33.572 626.917 34.168C626.932 34.2444 626.952 34.3198 626.976 34.394C627.082 34.8078 627.364 35.1541 627.748 35.3415C628.176 35.5271 628.666 35.4973 629.067 35.2613C629.531 35.0099 629.907 34.6235 630.146 34.1535C630.457 33.671 630.537 33.0754 630.365 32.5281Z" fill="#FFF1D4"/>
<path d="M630.489 36.5442L632.209 33.2861C632.382 32.9624 632.49 32.6086 632.53 32.2438C632.559 31.9364 632.524 31.6262 632.428 31.3328C632.425 31.2988 632.425 31.2647 632.428 31.2307C632.313 30.9486 632.108 30.7127 631.845 30.5601C631.574 30.4196 631.257 30.3984 630.97 30.5018L630.708 30.5893L630.431 30.6841L630.635 31.8648L630.773 31.7992L631.028 31.6972C631.143 31.6498 631.271 31.6498 631.385 31.6972C631.497 31.7549 631.585 31.8505 631.633 31.9669V32.0325C631.663 32.1491 631.678 32.2692 631.677 32.3896C631.665 32.5463 631.617 32.6983 631.538 32.8342L629.257 37.1564H629.323C629.808 37.258 630.297 37.0012 630.489 36.5442Z" fill="#FFF1D4"/>
</g>
<g opacity="0.85">
<path d="M645.97 69.3435L646.021 69.4018C647.311 70.8595 647.749 72.8785 647.428 75.138C647.428 75.138 647.428 75.189 647.428 75.2182C647.113 77.0716 646.463 78.8524 645.511 80.4734C644.673 81.9306 643.676 83.2899 642.537 84.5259C641.938 85.1846 641.303 85.81 640.635 86.3991C640.066 86.9093 639.483 87.3952 638.885 87.8568C637.545 88.8602 636.098 89.7132 634.57 90.4006C632.9 91.1857 631.108 91.6787 629.272 91.8584C626.728 92.0479 624.534 91.3992 623.134 89.8175C623.114 89.8016 623.096 89.7818 623.083 89.7592L619.213 85.386L621.932 82.9661C622.343 81.3396 622.996 79.7842 623.871 78.3523C624.734 76.92 625.751 75.5856 626.903 74.3727C627.413 73.8333 627.952 73.3085 628.521 72.8056C629.186 72.2136 629.882 71.6565 630.605 71.1365C631.965 70.1483 633.432 69.3169 634.979 68.6583C636.372 68.0515 637.845 67.6442 639.352 67.4484L642.078 65.0212L645.97 69.3435Z" fill="#977700"/>
<path d="M642.1 64.9848L646.021 69.4018C647.311 70.8595 647.748 72.8785 647.428 75.138L640.037 66.8216L642.1 64.9848Z" fill="#8C7005"/>
<path d="M621.596 83.2066L629.25 91.8146C626.706 92.0041 624.512 91.3554 623.113 89.7738C623.092 89.7579 623.074 89.7381 623.061 89.7154L619.191 85.3422L621.596 83.2066Z" fill="#E0B41D"/>
<path d="M623.841 78.345L634.556 90.4006C632.886 91.1856 631.094 91.6787 629.257 91.8583L621.611 83.2576L621.917 82.988C622.328 81.3614 622.982 79.8061 623.856 78.3742L623.841 78.345Z" fill="#CDA115"/>
<path d="M626.881 74.3362L638.871 87.8204C637.53 88.8237 636.083 89.6768 634.556 90.3642L623.834 78.345C624.698 76.9127 625.715 75.5784 626.866 74.3654L626.881 74.3362Z" fill="#C59A0B"/>
<path d="M630.591 71.1L642.522 84.5332C641.923 85.1919 641.288 85.8173 640.62 86.4064C640.052 86.9166 639.468 87.4025 638.871 87.8641L626.874 74.3435C627.384 73.8042 627.923 73.2794 628.492 72.7764C629.157 72.1845 629.853 71.6273 630.576 71.1073L630.591 71.1Z" fill="#AE890C"/>
<path d="M634.971 68.6219L645.504 80.4734C644.666 81.9306 643.669 83.2899 642.53 84.5259L630.583 71.1001C631.943 70.1118 633.41 69.2805 634.957 68.6219L634.971 68.6219Z" fill="#977910"/>
<path d="M639.993 66.8653L647.42 75.2182C647.105 77.0716 646.456 78.8524 645.503 80.4734L634.964 68.6219C636.358 68.0151 637.83 67.6078 639.337 67.412L639.993 66.8653Z" fill="#947508"/>
<ellipse cx="630.688" cy="75.2246" rx="15.3355" ry="9.12549" transform="rotate(-41.63 630.688 75.2246)" fill="url(#paint16_linear_22_49382)"/>
<path d="M642.151 65.0431C642.716 65.6458 643.149 66.3611 643.419 67.1422C643.671 67.9262 643.794 68.7459 643.783 69.5694C643.728 71.2184 643.357 72.8416 642.69 74.3508C642.049 75.8613 641.219 77.2842 640.219 78.5856C638.251 81.2181 635.772 83.4268 632.93 85.0798C631.52 85.9184 630.009 86.5747 628.433 87.0332C626.855 87.5092 625.2 87.6799 623.557 87.5361C622.741 87.4448 621.944 87.2259 621.196 86.8874C620.454 86.5428 619.794 86.0461 619.257 85.4297C619.538 85.7227 619.848 85.9864 620.183 86.2169C620.343 86.3408 620.518 86.4282 620.693 86.5376C620.868 86.6469 621.05 86.7198 621.239 86.8C621.984 87.1107 622.774 87.2978 623.579 87.3539C625.192 87.4624 626.81 87.2595 628.346 86.7562C629.887 86.2699 631.367 85.607 632.756 84.781C635.521 83.0974 637.951 80.9152 639.92 78.345C640.908 77.0647 641.743 75.6728 642.406 74.1977C643.077 72.7512 643.468 71.1906 643.557 69.5985C643.597 68.7918 643.504 67.9841 643.28 67.2078C643.226 67.0123 643.16 66.8201 643.084 66.632C643.009 66.4451 642.924 66.2626 642.829 66.0854C642.64 65.7148 642.413 65.3654 642.151 65.0431Z" fill="#FBD367"/>
<path d="M635.671 80.8378C633.105 83.2212 629.95 84.8768 626.531 85.6338C622.887 86.3043 621.188 85.0871 620.489 84.2999C619.789 83.5127 618.783 81.6687 619.869 78.1409C622.353 71.4997 627.96 66.5169 634.847 64.8317C638.492 64.1611 640.19 65.3784 640.89 66.1655C641.589 66.9527 642.595 68.7968 641.502 72.3245C640.354 75.6323 638.34 78.572 635.671 80.8378Z" fill="url(#paint17_linear_22_49382)"/>
<path d="M626.531 85.6338C625.579 85.8726 624.595 85.9635 623.615 85.9035C622.61 85.8395 621.642 85.4934 620.824 84.9049C620.411 84.5889 620.065 84.1952 619.803 83.746C619.539 83.2929 619.347 82.801 619.235 82.2883C619.038 81.2847 619.038 80.2524 619.235 79.2489C619.636 77.2808 620.416 75.4094 621.531 73.7386C623.729 70.4273 626.751 67.7447 630.299 65.9542C632.088 65.0382 634.04 64.4834 636.043 64.3215C637.062 64.2401 638.088 64.3614 639.06 64.6787C639.55 64.8486 640.01 65.0946 640.423 65.4076C640.842 65.7185 641.194 66.1101 641.458 66.5592C641.946 67.4504 642.173 68.4606 642.114 69.4747C642.054 70.4577 641.845 71.4259 641.495 72.3464C641.553 72.1132 641.611 71.8727 641.655 71.6176C641.699 71.3625 641.75 71.1365 641.772 70.8887C641.833 70.4053 641.857 69.918 641.845 69.4309C641.831 68.4878 641.556 67.5669 641.05 66.7706C640.523 66.0181 639.75 65.4739 638.863 65.2326C637.964 64.9886 637.026 64.9194 636.101 65.0285C634.216 65.2543 632.389 65.8303 630.715 66.7268C627.332 68.518 624.437 71.1075 622.282 74.2707C621.198 75.8284 620.413 77.573 619.964 79.4165C619.755 80.3247 619.715 81.2637 619.847 82.1862C619.981 83.0953 620.43 83.9286 621.115 84.5405C621.849 85.1333 622.732 85.514 623.666 85.6411C624.149 85.7138 624.637 85.7455 625.124 85.7358C625.365 85.7358 625.605 85.7358 625.853 85.7358L626.531 85.6338Z" fill="#AE890C"/>
<path d="M629.57 70.7939H629.614L629.702 70.7283L629.789 70.6773H629.833L629.971 70.6189C630.077 70.5718 630.191 70.5446 630.307 70.5388C630.389 70.5315 630.472 70.5315 630.554 70.5388C630.732 70.56 630.895 70.6456 631.014 70.7793L630.598 70.2035C630.48 70.0698 630.316 69.9842 630.139 69.963C630.056 69.9557 629.974 69.9557 629.891 69.963C629.773 69.9687 629.657 69.9959 629.548 70.0431L629.417 70.1014H629.374L629.301 70.1452H629.264L629.184 70.2108H629.14L629.067 70.2837L624.315 75.0942L624.731 75.6627L629.483 70.8595L629.57 70.7939Z" fill="#C59A0B"/>
<path d="M628.842 75.0651C628.838 75.0361 628.838 75.0067 628.842 74.9776C628.842 74.9776 628.842 74.9776 628.842 74.9266C628.844 74.9073 628.844 74.8877 628.842 74.8683C628.844 74.8514 628.844 74.8342 628.842 74.8173C628.845 74.8029 628.845 74.788 628.842 74.7736L628.907 74.6132C628.93 74.5647 628.956 74.5183 628.987 74.4747L629.089 74.3435C629.112 74.3088 629.139 74.2769 629.17 74.2488L629.264 74.1613L629.352 74.0957L629.57 73.9718H629.636H629.731H629.833H630.095H630.445H630.554L630.598 72.4412L630.183 71.8654L630.139 73.396H630.03H629.68H629.417H629.315H629.221H629.155L629.067 73.447L628.98 73.5126L628.914 73.5709C628.884 73.5991 628.857 73.6309 628.834 73.6657C628.794 73.7086 628.757 73.7549 628.725 73.8042L628.645 73.9426L628.579 74.0957V74.1394C628.579 74.1394 628.579 74.1394 628.579 74.1905C628.579 74.2415 628.579 74.1905 628.579 74.2488C628.579 74.3071 628.579 74.2488 628.579 74.2998C628.576 74.3191 628.576 74.3388 628.579 74.3581C628.576 74.4212 628.576 74.4845 628.579 74.5476C628.579 74.5476 628.579 74.5476 628.579 74.6059C628.576 74.6447 628.576 74.6837 628.579 74.7225V74.7881C628.579 74.7881 628.579 74.861 628.579 74.8975L628.616 74.9631V75.0214C628.629 75.0398 628.642 75.0593 628.652 75.0797L629.075 75.6555C629.046 75.6167 629.022 75.5752 629.002 75.5316V75.466C628.985 75.4337 628.973 75.3994 628.965 75.3639V75.2983C628.961 75.2571 628.961 75.2156 628.965 75.1744C628.965 75.1744 628.965 75.1744 628.965 75.1161C628.923 75.1009 628.882 75.0839 628.842 75.0651Z" fill="#C59A0B"/>
<path d="M633.659 73.6584L634.177 73.6147H634.242C634.472 73.6016 634.701 73.6494 634.906 73.7531C635.049 73.8361 635.173 73.9478 635.27 74.0811L634.855 73.5053C634.756 73.3701 634.629 73.2582 634.483 73.1773C634.278 73.0722 634.049 73.0244 633.82 73.0388H633.761H633.237L632.96 73.0826L633.375 73.6511L633.659 73.6584Z" fill="#C59A0B"/>
<path d="M629.971 77.9004H630.044C630.116 77.8929 630.187 77.8782 630.255 77.8567H630.299L630.554 77.7765H630.613L630.817 77.6963H630.882C630.962 77.6526 631.05 77.6162 631.13 77.5651L631.269 77.485L631.327 77.4412L631.429 77.3683L631.575 77.259L631.67 77.1716L631.728 77.1278L631.881 76.982L632.034 76.8217L632.078 76.7707L632.158 76.6832L632.245 76.5739L632.289 76.5156C632.325 76.4645 632.369 76.4135 632.398 76.3625L632.486 76.224V76.1803L632.53 76.1074V76.0564C632.526 76.0298 632.526 76.0028 632.53 75.9762C632.53 75.9762 632.53 75.9762 632.53 75.9179V75.8742V75.7794C632.533 75.7625 632.533 75.7452 632.53 75.7284V75.6263V75.4441V75.2109C632.533 75.1502 632.533 75.0893 632.53 75.0287C632.533 74.9607 632.533 74.8926 632.53 74.8246V74.7736C632.53 74.708 632.53 74.6351 632.53 74.5622C632.538 74.47 632.538 74.3774 632.53 74.2852V70.8595C632.53 70.7793 632.53 70.6992 632.53 70.619C632.522 70.5473 632.507 70.4765 632.486 70.4076L632.42 70.2108C632.393 70.1479 632.361 70.087 632.325 70.0286L632.26 69.9338L631.837 69.358L631.91 69.4601C631.91 69.5184 631.976 69.584 632.005 69.6423L632.07 69.8318C632.092 69.9006 632.107 69.9714 632.114 70.0432V70.0796C632.114 70.1525 632.114 70.2327 632.114 70.3129V73.724C632.114 73.8989 632.114 73.9499 632.114 74.0082C632.114 74.0666 632.114 74.1467 632.114 74.2123V74.2633C632.114 74.3362 632.114 74.4018 632.114 74.4674C632.114 74.5257 632.114 74.5841 632.114 74.6424V74.7007V74.8829C632.114 74.8829 632.114 74.8829 632.114 74.9266V75.0287C632.114 75.0287 632.114 75.0287 632.114 75.087C632.117 75.116 632.117 75.1454 632.114 75.1744V75.2473V75.2983C632.114 75.2983 632.114 75.3494 632.114 75.3785C632.117 75.3954 632.117 75.4126 632.114 75.4295L632.07 75.517V75.5607L631.983 75.6992L631.874 75.8596L631.83 75.9106L631.735 76.0199C631.71 76.0572 631.681 76.0914 631.648 76.122L631.604 76.173L631.444 76.3406L631.239 76.5301L631.145 76.6103L630.999 76.7197L630.897 76.7925L630.7 76.9164L630.452 77.0476H630.387L630.183 77.1278H630.124L629.869 77.208H629.818L629.607 77.2517H629.57H629.315C628.598 77.3363 627.884 77.08 627.384 76.5593L627.296 76.4427L627.712 77.0185L627.799 77.1351C628.277 77.6912 628.992 77.9863 629.723 77.9296L629.971 77.9004Z" fill="#C59A0B"/>
<path d="M637.632 75.0141V74.8975C637.635 74.8611 637.635 74.8245 637.632 74.7881C637.635 74.7494 637.635 74.7103 637.632 74.6715C637.636 74.6376 637.636 74.6034 637.632 74.5695C637.636 74.5283 637.636 74.4868 637.632 74.4456C637.635 74.4117 637.635 74.3775 637.632 74.3435V74.2196V74.1249C637.635 74.0812 637.635 74.0373 637.632 73.9937C637.635 73.9646 637.635 73.9353 637.632 73.9062C637.618 73.8589 637.601 73.8126 637.581 73.7677C637.585 73.7436 637.585 73.719 637.581 73.6948C637.581 73.6219 637.522 73.5564 637.486 73.4835L637.07 72.9077C637.07 72.9805 637.136 73.0461 637.165 73.119C637.168 73.1432 637.168 73.1677 637.165 73.1919L637.216 73.3304C637.219 73.3595 637.219 73.3888 637.216 73.4179C637.216 73.4616 637.216 73.5053 637.216 73.5491V73.6438V73.7677C637.22 73.8016 637.22 73.8358 637.216 73.8698C637.22 73.911 637.22 73.9524 637.216 73.9937C637.22 74.0276 637.22 74.0618 637.216 74.0957C637.216 74.0957 637.216 74.1759 637.216 74.2196C637.22 74.2536 637.22 74.2877 637.216 74.3217V74.4383C637.213 74.4746 637.213 74.5113 637.216 74.5476V74.7007L637.172 74.9193V74.9849L637.129 75.1307C637.126 75.1549 637.126 75.1794 637.129 75.2036C637.129 75.2473 637.092 75.2911 637.07 75.3421C637.073 75.3663 637.073 75.3908 637.07 75.415C637.054 75.46 637.035 75.5038 637.012 75.5462L636.968 75.6191L636.888 75.7575C636.873 75.7778 636.861 75.7998 636.852 75.8231L636.728 75.9981L636.575 76.1876L636.385 76.3917L631.327 81.2605L631.232 81.348H631.181L631.101 81.4063C631.084 81.4097 631.067 81.4097 631.05 81.4063H631.014C630.968 81.4407 630.919 81.4701 630.868 81.4938H630.817L630.634 81.5667L630.467 81.6104H630.416H630.226C629.687 81.6342 629.17 81.3884 628.849 80.9544L629.272 81.5302C629.588 81.9655 630.104 82.21 630.642 82.1789C630.705 82.1861 630.768 82.1861 630.831 82.1789H630.882L631.05 82.1352L631.232 82.0623H631.283L631.429 81.9748L631.473 81.9384L631.553 81.8801L631.604 81.8364L631.648 81.7999L631.699 81.7562L636.619 76.8873L636.808 76.6832L636.954 76.5083L637.063 76.3552C637.072 76.3319 637.085 76.3099 637.1 76.2896C637.131 76.2461 637.157 76.1997 637.18 76.1511L637.224 76.0783C637.221 76.0565 637.221 76.0345 637.224 76.0127C637.221 75.9909 637.221 75.9688 637.224 75.9471C637.224 75.9471 637.224 75.896 637.224 75.8669C637.246 75.8245 637.265 75.7807 637.282 75.7357C637.281 75.7114 637.281 75.6871 637.282 75.6628V75.5389V75.466L637.326 75.2546C637.326 75.2546 637.326 75.2036 637.326 75.1817C637.326 75.1599 637.326 75.1234 637.326 75.0943C637.326 75.0651 637.624 75.0505 637.632 75.0141Z" fill="#C59A0B"/>
<path d="M624.206 75.0432L624.621 75.619L624.206 75.0432Z" fill="#7C939A"/>
<path d="M624.271 75.1307L624.687 75.7065L624.621 75.619L624.206 75.0432L624.271 75.1307Z" fill="#788E95"/>
<path d="M636.706 72.6088L637.122 73.1846L637.253 73.3887L636.837 72.8128L636.706 72.6088Z" fill="#95B0B8"/>
<path d="M636.859 72.8128L637.275 73.3887L637.333 73.4834L636.917 72.9076L636.859 72.8128Z" fill="#99B5BD"/>
<path d="M628.827 81.1366L629.25 81.7124L629.14 81.5739L628.725 80.9981L628.827 81.1366Z" fill="#788E95"/>
<path d="M631.502 76.3188C632.198 75.7564 632.533 74.8601 632.377 73.9791C632.377 73.9208 632.377 73.8697 632.377 73.6948V70.2837C632.384 69.8409 632.219 69.4124 631.917 69.0883C631.613 68.7818 631.211 68.5911 630.78 68.549C630.628 68.5345 630.474 68.5345 630.321 68.549C629.998 68.5714 629.681 68.6452 629.381 68.7676C628.912 68.9542 628.489 69.2402 628.142 69.6058L624.548 73.2065C624.01 73.667 623.864 74.4403 624.199 75.0651L624.264 75.1526L629.016 70.342C629.163 70.1858 629.342 70.0639 629.541 69.9848C629.65 69.9376 629.766 69.9104 629.884 69.9047C629.966 69.8974 630.049 69.8974 630.132 69.9047C630.309 69.9259 630.472 70.0115 630.591 70.1452C630.702 70.2851 630.755 70.4629 630.737 70.6408L630.686 73.9718C630.686 73.9718 630.686 74.1394 630.686 74.2706C630.738 74.5966 630.62 74.9268 630.372 75.1453C630.138 75.3979 629.819 75.5539 629.476 75.5826C629.185 75.611 628.897 75.5034 628.696 75.291C628.5 75.0702 628.412 74.774 628.455 74.482C628.497 74.1584 628.646 73.8582 628.878 73.6292C629.108 73.3887 629.435 73.2654 629.767 73.2939H630.117H630.226L630.27 71.7633H629.979C629.184 71.7482 628.426 72.094 627.916 72.7035C627.383 73.2228 627.033 73.9004 626.917 74.6351C626.8 75.3156 626.98 76.0138 627.413 76.552C627.891 77.1081 628.606 77.4032 629.337 77.3465C630.158 77.2738 630.926 76.9092 631.502 76.3188Z" fill="#FFF1D4"/>
<path d="M636.896 72.9076C636.604 72.3845 636.162 71.9606 635.627 71.6904C635.124 71.4474 634.567 71.3394 634.009 71.377H633.885L633.375 71.428L632.879 71.479L632.96 73.119L633.237 73.0753H633.761H633.82C634.049 73.0608 634.278 73.1086 634.483 73.2138C634.698 73.3319 634.869 73.5158 634.971 73.7385C635.075 73.9666 635.106 74.2213 635.059 74.4674C635.003 74.7235 634.867 74.9554 634.672 75.1307L628.725 81.0419L628.827 81.1803C629.149 81.6143 629.665 81.8602 630.204 81.8363C630.628 81.8068 631.026 81.6257 631.327 81.3261L636.247 76.4572C636.732 75.9821 637.058 75.3685 637.18 74.7007C637.286 74.088 637.186 73.4573 636.896 72.9076Z" fill="#FFF1D4"/>
</g>
<g opacity="0.75">
<path d="M604.118 68.979H604.184C605.979 68.3333 607.45 67.0091 608.28 65.291C608.966 63.928 609.37 62.4405 609.468 60.9177C609.556 59.6096 609.468 58.2956 609.206 57.011C609.068 56.3394 608.888 55.6773 608.666 55.0284C608.479 54.4805 608.262 53.9428 608.018 53.4176C607.468 52.2367 606.765 51.1339 605.926 50.1377C604.968 48.9873 603.797 48.0321 602.478 47.3242C600.682 46.3131 598.547 46.0915 596.582 46.712H596.516L592.223 48.1697L592.128 51.1654C591.621 52.4237 591.335 53.7602 591.283 55.1159C591.225 56.4158 591.343 57.7177 591.633 58.9862C591.76 59.5508 591.918 60.108 592.106 60.6553C592.326 61.304 592.589 61.9372 592.894 62.5504C593.469 63.7273 594.205 64.8188 595.08 65.7939C595.897 66.7199 596.853 67.5118 597.916 68.1408L599.825 70.4514L604.118 68.979Z" fill="#977700"/>
<path d="M592.012 50.8301L602.471 47.2586C600.675 46.2475 598.54 46.0258 596.574 46.6464H596.509L592.216 48.1041L592.012 50.8301Z" fill="#8C7005"/>
<path d="M604.118 68.9791H604.184C605.979 68.3333 607.45 67.0091 608.28 65.291L598.12 68.7531L599.825 70.466L604.118 68.9791Z" fill="#E0B41D"/>
<path d="M591.268 55.0794L605.926 50.0793C604.968 48.9289 603.797 47.9737 602.478 47.2659L592.026 50.8373L592.128 51.1362C591.621 52.3945 591.335 53.731 591.283 55.0867L591.268 55.0794Z" fill="#947508"/>
<path d="M591.618 58.957L608.018 53.3593C607.468 52.1784 606.765 51.0755 605.926 50.0793L591.275 55.0794C591.218 56.3794 591.335 57.6812 591.625 58.9497L591.618 58.957Z" fill="#977910"/>
<path d="M592.879 62.5285L609.206 56.9526C609.068 56.2811 608.888 55.6189 608.666 54.9701C608.479 54.4221 608.262 53.8844 608.018 53.3593L591.618 58.9497C591.745 59.5143 591.904 60.0715 592.092 60.6188C592.311 61.2675 592.574 61.9007 592.879 62.5139V62.5285Z" fill="#AE890C"/>
<path d="M595.058 65.7793L609.468 60.8521C609.556 59.5439 609.468 58.23 609.206 56.9453L592.879 62.5139C593.455 63.6908 594.191 64.7823 595.066 65.7574L595.058 65.7793Z" fill="#C59A0B"/>
<path d="M598.12 68.7312L608.28 65.2691C608.966 63.9061 609.37 62.4186 609.468 60.8958L595.058 65.8084C595.882 66.731 596.847 67.5181 597.916 68.1408L598.12 68.7312Z" fill="#CDA115"/>
<ellipse cx="595.989" cy="59.271" rx="9.37331" ry="11.7932" transform="rotate(-18.84 595.989 59.271)" fill="url(#paint18_linear_22_49382)"/>
<path d="M599.803 70.4222C601.107 69.9362 602.26 69.1169 603.149 68.0461C604.03 66.9784 604.676 65.7365 605.044 64.4017C605.417 63.0724 605.575 61.6919 605.51 60.3127C605.444 58.9372 605.183 57.5778 604.738 56.2748C604.287 54.9811 603.662 53.755 602.879 52.6304C602.082 51.5125 601.113 50.5284 600.007 49.7149C598.901 48.8858 597.632 48.2997 596.283 47.9948C595.608 47.8477 594.918 47.7841 594.227 47.8053C593.534 47.8329 592.848 47.953 592.187 48.1624C593.509 47.6922 594.935 47.589 596.312 47.8636C597.689 48.1497 598.991 48.7235 600.131 49.5473C601.263 50.3676 602.249 51.373 603.047 52.5211C604.681 54.8226 605.611 57.5502 605.722 60.371C605.787 61.7753 605.612 63.1804 605.204 64.5256C604.807 65.8677 604.128 67.1099 603.214 68.17C602.297 69.2101 601.12 69.9874 599.803 70.4222Z" fill="#FBD367"/>
<path d="M603.637 56.6538C602.749 53.9413 600.946 51.6221 598.535 50.0939C595.773 48.4102 593.564 48.7674 592.485 49.1391C591.407 49.5108 589.439 50.5968 588.287 53.5852C586.407 59.1358 588.502 65.2564 593.389 68.4907C596.144 70.1744 598.36 69.8099 599.432 69.4455C600.503 69.0811 602.478 67.9878 603.63 64.9921C604.608 62.2991 604.61 59.3485 603.637 56.6538Z" fill="url(#paint19_linear_22_49382)"/>
<path d="M598.557 50.0721C597.791 49.6422 596.969 49.3208 596.115 49.1172C595.271 48.9233 594.397 48.8961 593.542 49.0371C593.122 49.1081 592.711 49.228 592.318 49.3942C591.929 49.5629 591.56 49.7731 591.217 50.021C590.53 50.5231 589.942 51.1484 589.482 51.8651C589.027 52.5899 588.669 53.3717 588.418 54.1902C588.165 55.0073 588.008 55.8512 587.952 56.7048C587.896 57.561 587.927 58.4207 588.047 59.2705C588.164 60.1212 588.365 60.9584 588.644 61.7705C588.921 62.5845 589.275 63.3703 589.701 64.1175C590.124 64.8634 590.625 65.5622 591.195 66.202C591.767 66.8491 592.416 67.4243 593.127 67.9149C593.824 68.4078 594.584 68.8049 595.386 69.0957C596.187 69.3843 597.035 69.5203 597.886 69.4965C598.312 69.4839 598.735 69.4228 599.147 69.3143C599.561 69.2086 599.96 69.0519 600.335 68.8478C601.096 68.4374 601.769 67.8828 602.318 67.2152C602.873 66.5358 603.327 65.7796 603.666 64.9702C603.392 65.8145 602.989 66.6112 602.471 67.3318C601.937 68.0598 601.266 68.6764 600.496 69.1467C600.106 69.3773 599.69 69.5608 599.257 69.6933C598.82 69.8263 598.37 69.9094 597.915 69.9412C597.003 70.0017 596.088 69.888 595.219 69.6059C593.495 69.0169 591.952 67.9955 590.736 66.6394C588.28 63.9198 587.037 60.3167 587.296 56.6611C587.421 54.8386 588.019 53.0802 589.03 51.559C589.539 50.8085 590.188 50.1627 590.94 49.6566C591.697 49.1408 592.567 48.8158 593.477 48.7091C594.37 48.6045 595.274 48.6814 596.137 48.935C596.996 49.1907 597.812 49.574 598.557 50.0721Z" fill="#AE890C"/>
<path d="M591.356 59.5182C591.359 59.5038 591.359 59.4889 591.356 59.4745L591.312 59.3724V59.2777C591.308 59.261 591.308 59.2434 591.312 59.2267C591.308 59.1806 591.308 59.1343 591.312 59.0882C591.294 58.9723 591.294 58.8542 591.312 58.7383C591.312 58.6654 591.356 58.5853 591.385 58.5051C591.46 58.3452 591.585 58.2146 591.742 58.1334L591.086 58.3812C590.928 58.4589 590.804 58.5909 590.736 58.7529C590.703 58.8282 590.676 58.9063 590.656 58.9861C590.638 59.0996 590.638 59.2153 590.656 59.3287V59.4745C590.656 59.4745 590.656 59.4745 590.656 59.5182V59.6057L590.7 59.7077V59.7515L590.743 59.8389L594.067 65.6189L594.723 65.3784L591.399 59.5984L591.356 59.5182Z" fill="#C59A0B"/>
<path d="M595.226 61.3185H595.153H595.102H595.051H595.007H594.971C594.927 61.3185 594.883 61.2529 594.84 61.2092L594.73 61.0998C594.692 61.0568 594.658 61.0105 594.628 60.9614L594.563 60.8593L594.504 60.7427L594.461 60.6407V60.5459C594.464 60.5217 594.464 60.4972 594.461 60.473V60.1232C594.461 60.1232 594.461 60.0576 594.461 60.0211C594.457 59.9945 594.457 59.9676 594.461 59.9409V59.8316C594.461 59.8316 594.497 59.6202 594.526 59.489C594.529 59.4551 594.529 59.421 594.526 59.387L593.069 58.9424L592.413 59.1902L593.87 59.6275C593.87 59.6275 593.87 59.6931 593.87 59.7369C593.87 59.7806 593.812 60.0357 593.805 60.0721V60.1888C593.802 60.2154 593.802 60.2423 593.805 60.2689C593.801 60.3004 593.801 60.3322 593.805 60.3637V60.4876C593.809 60.5117 593.809 60.5363 593.805 60.5605V60.6552L593.848 60.7573V60.7937L593.892 60.8739L593.951 60.9687L594.053 61.0998L594.162 61.2165L594.293 61.3185H594.337H594.388H594.439H594.49L594.665 61.3695H594.723H594.847H595.022H595.095H595.153H595.226L595.875 61.129H595.744H595.678H595.503H595.379H595.321L595.226 61.3185Z" fill="#C59A0B"/>
<path d="M595.16 56.3622L595.262 55.8593C595.262 55.8593 595.262 55.8156 595.262 55.801C595.313 55.5777 595.421 55.3716 595.576 55.2033C595.689 55.0847 595.829 54.9948 595.984 54.9409L595.328 55.1887C595.173 55.2426 595.033 55.3326 594.92 55.4511C594.765 55.6168 594.657 55.8205 594.606 56.0415C594.606 56.0415 594.606 56.0852 594.606 56.0998L594.504 56.61V56.887L595.16 56.6392V56.3622Z" fill="#C59A0B"/>
<path d="M598.229 60.9833C598.233 60.9591 598.233 60.9345 598.229 60.9104C598.233 60.84 598.233 60.7694 598.229 60.699C598.229 60.699 598.229 60.6626 598.229 60.648C598.229 60.6334 598.229 60.4731 598.229 60.3856C598.229 60.2981 598.229 60.3419 598.229 60.32V60.1086C598.229 60.1086 598.229 60.0649 598.229 60.0357C598.229 60.0066 598.192 59.8608 598.171 59.7734C598.149 59.6859 598.171 59.7734 598.171 59.7223L598.127 59.5766V59.511L598.083 59.3943C598.063 59.3366 598.039 59.2806 598.01 59.2267C597.998 59.186 597.981 59.1469 597.959 59.1101C597.962 59.0883 597.962 59.0663 597.959 59.0445L597.864 58.8623C597.83 58.7965 597.791 58.7332 597.748 58.6728C597.738 58.6518 597.726 58.6321 597.711 58.6144L597.653 58.5197C597.631 58.4781 597.604 58.439 597.573 58.4031L597.536 58.3521L597.413 58.199L597.303 58.0824L597.238 58.0241C597.238 58.0241 597.238 58.0241 597.201 57.9876L597.128 57.9366H597.085L597.004 57.8856H596.953L596.866 57.8418L596.691 57.7762H596.655L596.487 57.7252L596.29 57.6815H596.239L596.035 57.6378L595.773 57.5649L592.274 56.4788L592.048 56.4351H592.012H591.8H591.764C591.696 56.4279 591.628 56.4279 591.56 56.4351C591.491 56.4462 591.423 56.4608 591.356 56.4788H591.246L590.59 56.7267H590.7C590.766 56.7051 590.834 56.6905 590.904 56.6829H591.108H591.144C591.215 56.679 591.285 56.679 591.356 56.6829H591.392L591.618 56.7267L594.862 57.6378C594.952 57.6516 595.04 57.6761 595.124 57.7106L595.328 57.7544H595.379L595.576 57.8054L595.743 57.8564C595.804 57.8718 595.863 57.8938 595.918 57.922L596.013 57.9657H596.057L596.137 58.0095L596.195 58.0532H596.246L596.312 58.1115L596.392 58.1771L596.501 58.2937C596.545 58.3375 596.582 58.3885 596.625 58.4395L596.662 58.4978L596.742 58.6072L596.822 58.7238C596.832 58.7448 596.844 58.7644 596.859 58.7821L596.968 58.9716C597.014 59.052 597.055 59.1347 597.092 59.2194C597.112 59.2544 597.129 59.2909 597.143 59.3287C597.17 59.3857 597.195 59.4441 597.216 59.5037L597.26 59.6203L597.325 59.8317C597.325 59.8317 597.325 59.8317 597.325 59.8754C597.351 59.9638 597.37 60.0539 597.383 60.1451C597.383 60.1451 597.383 60.1888 597.383 60.2107V60.4293C597.383 60.4293 597.383 60.4731 597.383 60.4949C597.383 60.5168 597.383 60.6699 597.383 60.7573C597.387 60.7717 597.387 60.7867 597.383 60.8011C597.383 60.874 597.383 60.9468 597.383 61.0197C597.387 61.0439 597.387 61.0684 597.383 61.0926C597.383 61.1728 597.383 61.2603 597.347 61.3404C597.208 62.0495 596.74 62.6501 596.086 62.9585L595.955 63.0168L596.611 62.769L596.742 62.718C597.396 62.4116 597.862 61.8095 597.996 61.0999C598.077 61.0676 598.155 61.0286 598.229 60.9833Z" fill="#C59A0B"/>
<path d="M597.5 52.9438L597.383 52.9073H597.289H597.172H597.07H596.946H596.851H596.181L595.962 52.9438L595.306 53.1916H595.525H595.605H595.751H596.042H596.166H596.261H596.385H596.487H596.604H596.698H596.815L596.91 53.2281C596.957 53.2469 597.003 53.2688 597.048 53.2937L597.245 53.3884L597.303 53.4321L597.434 53.5123L597.5 53.5633L597.617 53.6508L597.682 53.7018L597.784 53.8039L597.843 53.8549L597.959 53.9715L598.003 54.0225L598.134 54.1829L598.273 54.3797C598.324 54.4598 598.375 54.5327 598.418 54.6129L601.757 60.5751L601.808 60.6844C601.808 60.6844 601.808 60.6844 601.808 60.7427V60.8302V60.8885C601.808 60.8885 601.808 60.8885 601.808 60.9322C601.823 60.9873 601.835 61.0433 601.844 61.0999C601.844 61.0999 601.844 61.0999 601.844 61.1436V61.3404C601.848 61.3962 601.848 61.4522 601.844 61.5081V61.5809C601.848 61.6441 601.848 61.7073 601.844 61.7704C601.725 62.2877 601.356 62.7116 600.86 62.9002L601.516 62.6524C602.053 62.5172 602.479 62.1105 602.639 61.5809C602.643 61.5178 602.643 61.4545 602.639 61.3914V61.3404C602.642 61.2846 602.642 61.2286 602.639 61.1728V60.976C602.639 60.976 602.639 60.976 602.639 60.925C602.63 60.8708 602.618 60.8172 602.602 60.7646V60.7063C602.602 60.7063 602.602 60.648 602.602 60.6188C602.599 60.597 602.599 60.575 602.602 60.5532V60.5022C602.6 60.4829 602.6 60.4632 602.602 60.4439L599.264 54.489C599.22 54.4087 599.171 54.3308 599.118 54.2558L598.987 54.0735C598.952 54.0218 598.913 53.9731 598.87 53.9278L598.827 53.8768C598.791 53.8343 598.752 53.7953 598.71 53.7601L598.652 53.7018L598.601 53.6508L598.542 53.6071C598.525 53.5858 598.505 53.5663 598.484 53.5488L598.367 53.4613L598.309 53.4176L598.2 53.352H598.141L597.945 53.2499H597.879H597.806L597.5 52.9438Z" fill="#C59A0B"/>
<path d="M593.987 65.7136L594.643 65.4658L593.987 65.7136Z" fill="#7C939A"/>
<path d="M594.089 65.6699L594.745 65.4294L594.643 65.4658L593.987 65.7137L594.089 65.6699Z" fill="#788E95"/>
<path d="M594.964 53.1916L595.62 52.9511L595.853 52.8709L595.197 53.1187L594.964 53.1916Z" fill="#95B0B8"/>
<path d="M595.197 53.1187L595.853 52.8709H595.962L595.306 53.1187H595.197Z" fill="#99B5BD"/>
<path d="M600.999 62.922L601.655 62.6742L601.494 62.7398L600.838 62.9876L600.999 62.922Z" fill="#788E95"/>
<path d="M597.121 59.1101C596.778 58.2909 596.009 57.7295 595.124 57.6523C595.04 57.6177 594.952 57.5933 594.862 57.5794L591.618 56.6683C591.2 56.5474 590.751 56.5917 590.364 56.7922C589.99 56.9991 589.7 57.3323 589.548 57.7325C589.487 57.873 589.44 58.0196 589.41 58.1698C589.343 58.4811 589.329 58.8012 589.366 59.1173C589.424 59.6107 589.583 60.087 589.832 60.5168L592.318 64.89C592.604 65.5302 593.305 65.8762 593.987 65.7136L594.089 65.6699L590.765 59.8899C590.66 59.7062 590.593 59.5028 590.568 59.2923C590.55 59.1788 590.55 59.0632 590.568 58.9497C590.589 58.8698 590.615 58.7918 590.649 58.7165C590.717 58.5544 590.841 58.4224 590.999 58.3447C591.163 58.2833 591.344 58.2833 591.509 58.3447L594.672 59.285C594.766 59.3073 594.859 59.3366 594.949 59.3724C595.262 59.4148 595.535 59.6082 595.678 59.8899C595.86 60.1755 595.938 60.5157 595.897 60.8521C595.842 61.1315 595.666 61.372 595.416 61.508C595.162 61.6496 594.859 61.6761 594.585 61.5809C594.291 61.4536 594.048 61.2333 593.892 60.9541C593.72 60.6708 593.688 60.3241 593.805 60.0139C593.805 60.0139 593.841 59.8025 593.87 59.6786C593.899 59.5547 593.87 59.5984 593.87 59.5692L592.413 59.1319L592.398 59.3943C592.18 60.1387 592.308 60.9417 592.748 61.5809C593.098 62.2265 593.652 62.7388 594.322 63.0387C594.943 63.3187 595.655 63.3187 596.276 63.0387C596.901 62.7335 597.352 62.1588 597.5 61.4789C597.665 60.6694 597.53 59.8277 597.121 59.1101Z" fill="#FFF1D4"/>
<path d="M595.313 53.0896C594.737 53.2251 594.216 53.5327 593.819 53.9715C593.455 54.3865 593.204 54.8887 593.09 55.4292V55.5459L593.003 56.0488L592.923 56.5298L594.497 56.887V56.61L594.599 56.0998C594.599 56.0998 594.599 56.0998 594.599 56.0415C594.65 55.8205 594.758 55.6168 594.913 55.4511C595.079 55.2793 595.296 55.1645 595.532 55.1231C595.781 55.0857 596.034 55.1238 596.261 55.2324C596.48 55.3486 596.658 55.5292 596.771 55.7499L600.824 62.9585L600.984 62.8929C601.48 62.7043 601.849 62.2804 601.968 61.7632C602.051 61.3533 601.986 60.9275 601.786 60.5605L598.448 54.5983C598.134 54.0223 597.65 53.5566 597.063 53.2645C596.515 53.0157 595.9 52.9542 595.313 53.0896Z" fill="#FFF1D4"/>
</g>
<path d="M142.72 96H154.12V72L164.8 88.32H165.04L175.78 71.88V96H187.36V54H175.06L165.04 70.26L155.02 54H142.72V96Z" fill="white"/>
<path d="M194.81 96H210.77C225.89 96 234.71 87 234.71 74.88V74.76C234.71 62.64 226.01 54 211.01 54H194.81V96ZM206.45 85.68V64.32H211.19C218.15 64.32 222.77 68.22 222.77 74.94V75.06C222.77 81.84 218.15 85.68 211.19 85.68H206.45Z" fill="white"/>
<path d="M240.689 96H274.769V86.1H252.209V79.44H272.369V70.26H252.209V63.9H274.469V54H240.689V96Z" fill="white"/>
<path d="M277.648 96H290.728L298.828 83.34L306.868 96H320.248L305.848 74.52L319.648 54H306.568L299.068 65.82L291.628 54H278.248L292.048 74.64L277.648 96Z" fill="white"/>
<defs>
<linearGradient id="paint0_linear_22_49382" x1="846.277" y1="214.055" x2="846.277" y2="2.04388" gradientUnits="userSpaceOnUse">
<stop stop-color="#111010"/>
<stop offset="1" stop-color="#2A2A2A"/>
</linearGradient>
<linearGradient id="paint1_linear_22_49382" x1="527.502" y1="84.672" x2="527.502" y2="23.5747" gradientUnits="userSpaceOnUse">
<stop offset="0.0105476" stop-color="#242323"/>
<stop offset="1" stop-color="#3D3D3D"/>
</linearGradient>
<linearGradient id="paint2_linear_22_49382" x1="437.175" y1="150.462" x2="599.825" y2="150.462" gradientUnits="userSpaceOnUse">
<stop stop-color="#FF914F"/>
<stop offset="0.440184" stop-color="#FF773A" stop-opacity="0.205372"/>
<stop offset="1" stop-color="#FF6930" stop-opacity="0.01"/>
</linearGradient>
<linearGradient id="paint3_linear_22_49382" x1="486.895" y1="215.685" x2="539.105" y2="215.685" gradientUnits="userSpaceOnUse">
<stop stop-color="#35FFE3"/>
<stop offset="1" stop-color="#35FFE3" stop-opacity="0.01"/>
</linearGradient>
<linearGradient id="paint4_linear_22_49382" x1="455.269" y1="215.322" x2="534.731" y2="215.322" gradientUnits="userSpaceOnUse">
<stop stop-color="#FF914F"/>
<stop offset="0.27" stop-color="#FF914F" stop-opacity="0.99"/>
<stop offset="0.4" stop-color="#FF8F4E" stop-opacity="0.96"/>
<stop offset="0.51" stop-color="#FF8D4C" stop-opacity="0.91"/>
<stop offset="0.6" stop-color="#FF8A4A" stop-opacity="0.83"/>
<stop offset="0.69" stop-color="#FF8647" stop-opacity="0.74"/>
<stop offset="0.76" stop-color="#FF8243" stop-opacity="0.62"/>
<stop offset="0.83" stop-color="#FF7C3F" stop-opacity="0.48"/>
<stop offset="0.9" stop-color="#FF753A" stop-opacity="0.31"/>
<stop offset="0.96" stop-color="#FF6E34" stop-opacity="0.13"/>
<stop offset="1" stop-color="#FF6930" stop-opacity="0.01"/>
</linearGradient>
<linearGradient id="paint5_linear_22_49382" x1="694.917" y1="215.756" x2="740.083" y2="215.756" gradientUnits="userSpaceOnUse">
<stop stop-color="#35FFE3" stop-opacity="0.01"/>
<stop offset="1" stop-color="#35FFE3"/>
</linearGradient>
<linearGradient id="paint6_linear_22_49382" x1="696.269" y1="215.307" x2="778.731" y2="215.307" gradientUnits="userSpaceOnUse">
<stop stop-color="#FF6930" stop-opacity="0.01"/>
<stop offset="0.04" stop-color="#FF6E34" stop-opacity="0.13"/>
<stop offset="0.1" stop-color="#FF753A" stop-opacity="0.31"/>
<stop offset="0.17" stop-color="#FF7C3F" stop-opacity="0.48"/>
<stop offset="0.24" stop-color="#FF8243" stop-opacity="0.62"/>
<stop offset="0.31" stop-color="#FF8647" stop-opacity="0.74"/>
<stop offset="0.4" stop-color="#FF8A4A" stop-opacity="0.83"/>
<stop offset="0.49" stop-color="#FF8D4C" stop-opacity="0.91"/>
<stop offset="0.6" stop-color="#FF8F4E" stop-opacity="0.96"/>
<stop offset="0.73" stop-color="#FF914F" stop-opacity="0.99"/>
<stop offset="1" stop-color="#FF914F"/>
</linearGradient>
<linearGradient id="paint7_linear_22_49382" x1="641.177" y1="95.4687" x2="788.823" y2="95.4687" gradientUnits="userSpaceOnUse">
<stop stop-color="#2BCBB4" stop-opacity="0.01"/>
<stop offset="0.756255" stop-color="#2BCBB4" stop-opacity="0.5"/>
<stop offset="1" stop-color="#2BCBB4"/>
</linearGradient>
<linearGradient id="paint8_linear_22_49382" x1="536.304" y1="200.14" x2="696.109" y2="200.14" gradientUnits="userSpaceOnUse">
<stop stop-color="#F4ED43"/>
<stop stop-color="#C19511"/>
<stop offset="0.99" stop-color="#6D5809"/>
</linearGradient>
<linearGradient id="paint9_linear_22_49382" x1="663.488" y1="169.76" x2="663.488" y2="4" gradientUnits="userSpaceOnUse">
<stop stop-color="#FF9500" stop-opacity="0.2"/>
<stop offset="1" stop-color="white" stop-opacity="0.01"/>
</linearGradient>
<linearGradient id="paint10_linear_22_49382" x1="617.245" y1="146.887" x2="647.64" y2="154.317" gradientUnits="userSpaceOnUse">
<stop stop-color="#FDCC4A"/>
<stop offset="1" stop-color="#DAAD11"/>
</linearGradient>
<linearGradient id="paint11_linear_22_49382" x1="661.617" y1="113.05" x2="631.335" y2="107.544" gradientUnits="userSpaceOnUse">
<stop stop-color="#D0A50A"/>
<stop offset="1" stop-color="#F9C42C"/>
</linearGradient>
<linearGradient id="paint12_linear_22_49382" x1="613.195" y1="93.7333" x2="580.002" y2="93.7333" gradientUnits="userSpaceOnUse">
<stop stop-color="#FDCC4A"/>
<stop offset="1" stop-color="#DAAD11"/>
</linearGradient>
<linearGradient id="paint13_linear_22_49382" x1="590.87" y1="89.9297" x2="579.168" y2="112.397" gradientUnits="userSpaceOnUse">
<stop stop-color="#F9C42C"/>
<stop offset="1" stop-color="#D0A50A"/>
</linearGradient>
<linearGradient id="paint14_linear_22_49382" x1="636.397" y1="25.9126" x2="619.611" y2="25.9126" gradientUnits="userSpaceOnUse">
<stop stop-color="#FDCC4A"/>
<stop offset="1" stop-color="#DAAD11"/>
</linearGradient>
<linearGradient id="paint15_linear_22_49382" x1="625.117" y1="23.983" x2="619.205" y2="35.3409" gradientUnits="userSpaceOnUse">
<stop stop-color="#F9C42C"/>
<stop offset="1" stop-color="#D0A50A"/>
</linearGradient>
<linearGradient id="paint16_linear_22_49382" x1="615.082" y1="72.9401" x2="619.573" y2="87.856" gradientUnits="userSpaceOnUse">
<stop stop-color="#DAAD11"/>
<stop offset="1" stop-color="#FDCC4A"/>
</linearGradient>
<linearGradient id="paint17_linear_22_49382" x1="618.346" y1="85.6494" x2="639.792" y2="85.0075" gradientUnits="userSpaceOnUse">
<stop stop-color="#D0A50A"/>
<stop offset="1" stop-color="#F9C42C"/>
</linearGradient>
<linearGradient id="paint18_linear_22_49382" x1="586.619" y1="47.4778" x2="586.619" y2="71.0569" gradientUnits="userSpaceOnUse">
<stop stop-color="#FDCC4A"/>
<stop offset="1" stop-color="#DAAD11"/>
</linearGradient>
<linearGradient id="paint19_linear_22_49382" x1="586.221" y1="54.385" x2="594.522" y2="70.3641" gradientUnits="userSpaceOnUse">
<stop stop-color="#F9C42C"/>
<stop offset="1" stop-color="#D0A50A"/>
</linearGradient>
</defs>
</svg>
