<svg width="860" height="220" viewBox="0 0 860 220" fill="none" xmlns="http://www.w3.org/2000/svg">
<rect y="0.5" width="860" height="219" rx="40" fill="url(#paint0_linear_137_40842)"/>
<path opacity="0.667528" fill-rule="evenodd" clip-rule="evenodd" d="M363.693 85.5C345.932 85.5 332.739 71.8835 332.739 54.6669V54.5C332.739 37.4576 345.676 23.5 364.212 23.5C375.6 23.5 382.412 27.267 388.011 32.747L379.561 42.4223C374.906 38.227 370.162 35.6576 364.125 35.6576C353.95 35.6576 346.619 44.0481 346.619 54.3258V54.5C346.619 64.7777 353.782 73.3715 364.125 73.3715C371.024 73.3715 375.249 70.6351 379.993 66.3527L388.442 74.7796C382.237 81.3846 375.337 85.5 363.693 85.5ZM98.166 45.3328V84.4693H111.388V24.5234H97.077L81.2088 49.8765L65.3406 24.5234H51V84.4693H64.0249V45.5941L80.836 70.9399H81.1795L98.166 45.3328ZM125.853 84.4693H149.396C168.4 84.4693 181.476 71.3682 181.476 54.5V54.3258C181.476 37.4576 168.4 24.5234 149.396 24.5234H125.853V84.4693ZM167.588 54.5C167.588 43.8812 160.279 36.4269 149.396 36.4269H139.163V72.6021H149.396C160.265 72.6021 167.588 65.3438 167.588 54.7032V54.5ZM193.295 24.5234V84.4693H239.255V72.74H206.488V60.1469H234.913V48.4176H206.488V36.26H238.824V24.5234H193.295ZM288.752 84.4693L275.216 63.8922L261.592 84.4693H246.498L267.541 53.9847L247.339 24.5234H262.863L275.537 43.9683L288.299 24.5234H303.393L283.234 53.8105L304.277 84.4693H288.752ZM312.303 70.7657V84.4693H326.278V70.7657H312.303ZM394.655 54.6669C394.655 71.7093 408.023 85.5 426.647 85.5C445.278 85.5 458.815 71.5424 458.807 54.5V54.3258C458.807 37.2907 445.432 23.5 426.815 23.5C408.199 23.5 394.655 37.4576 394.655 54.5V54.6669ZM444.92 54.5C444.92 44.2223 437.326 35.6285 426.647 35.6285C415.968 35.6285 408.542 44.0191 408.542 54.2968V54.471C408.542 64.7487 416.129 73.3424 426.815 73.3424C437.501 73.3424 444.927 64.9519 444.927 54.6742L444.92 54.5ZM517.778 45.3328V84.4693H531V24.5234H516.681L500.813 49.8765L484.945 24.5234H470.634V84.4693H483.659V45.5941L500.47 70.9399H500.813L517.778 45.3328Z" fill="url(#paint1_linear_137_40842)"/>
<path d="M439 148.791C439 148.791 468.607 89.3865 510.127 127.145C521.646 136.819 549.458 183.805 598 108.5" stroke="url(#paint2_linear_137_40842)" stroke-width="5" stroke-linecap="round" stroke-linejoin="round"/>
<path opacity="0.405831" d="M538 184.5L505.563 198.149H525.725L488 215.5" stroke="url(#paint3_linear_137_40842)" stroke-width="3" stroke-linecap="round" stroke-linejoin="round"/>
<path opacity="0.405831" d="M534 181.5L462.724 200.964H487.199L456 215.5" stroke="url(#paint4_linear_137_40842)" stroke-width="2" stroke-linecap="round" stroke-linejoin="round"/>
<path opacity="0.405831" d="M696 185.5L732.08 198.479H706.445L739 215.5" stroke="url(#paint5_linear_137_40842)" stroke-width="3" stroke-linecap="round" stroke-linejoin="round"/>
<path opacity="0.405831" d="M697 181.5L768.807 199.778L745.115 199.524L778 215.5" stroke="url(#paint6_linear_137_40842)" stroke-width="2" stroke-linecap="round" stroke-linejoin="round"/>
<path d="M643 93.0975C643 93.0975 676.031 46.0939 706.03 61.6599C736.028 77.2259 754.144 115.006 787 83.0232" stroke="url(#paint7_linear_137_40842)" stroke-width="5" stroke-linecap="round" stroke-linejoin="round"/>
<path opacity="0.14" d="M616.5 211.5C663.72 211.5 702 207.247 702 202C702 196.753 663.72 192.5 616.5 192.5C569.28 192.5 531 196.753 531 202C531 207.247 569.28 211.5 616.5 211.5Z" fill="#713EFF"/>
<path d="M678.81 192.5C664.11 190.67 641.54 189.5 616.21 189.5C590.88 189.5 568.32 190.67 553.62 192.5H536V197.5C536 201.92 571.91 205.5 616.21 205.5C660.51 205.5 696.43 201.92 696.43 197.5V192.5H678.81Z" fill="#713EFF"/>
<path d="M695.87 191.74L681.82 170.5H545.91L536.25 192.06C536.112 192.213 536.025 192.405 536 192.61C536 196.68 571.92 199.98 616.22 199.98C660.52 199.98 696.45 196.68 696.45 192.61C696.425 192.431 696.36 192.259 696.26 192.109C696.159 191.958 696.026 191.832 695.87 191.74Z" fill="url(#paint8_linear_137_40842)"/>
<mask id="mask0_137_40842" style="mask-type:alpha" maskUnits="userSpaceOnUse" x="536" y="170" width="161" height="30">
<path d="M695.87 191.74L681.82 170.5H545.91L536.25 192.06C536.112 192.213 536.025 192.405 536 192.61C536 196.68 571.92 199.98 616.22 199.98C660.52 199.98 696.45 196.68 696.45 192.61C696.425 192.431 696.36 192.259 696.26 192.109C696.159 191.958 696.026 191.832 695.87 191.74Z" fill="url(#paint9_linear_137_40842)"/>
</mask>
<g mask="url(#mask0_137_40842)">
<path d="M551.57 171.89L545.44 184.32" stroke="#713EFF"/>
<path d="M538.36 182.94L564.78 186.62L575.17 181.09L617.64 182.94" stroke="#713EFF"/>
<path d="M561 199.5L572.33 192.13L608.19 193.97V201.8" stroke="#713EFF"/>
<path d="M617.64 177.41V200.9" stroke="#713EFF"/>
<path d="M617.64 190.31L655.4 189.39L658.77 183.86L689.37 180.17" stroke="#713EFF"/>
<path d="M667.66 173.73L670.66 182.34" stroke="#713EFF"/>
<path d="M677.1 197.68L680.88 192.15L696.88 188.46" stroke="#713EFF"/>
</g>
<path d="M615 178.5C652.555 178.5 683 175.142 683 171C683 166.858 652.555 163.5 615 163.5C577.445 163.5 547 166.858 547 171C547 175.142 577.445 178.5 615 178.5Z" fill="#BCABFF"/>
<path d="M518.5 113.5C520.433 113.5 522 111.933 522 110C522 108.067 520.433 106.5 518.5 106.5C516.567 106.5 515 108.067 515 110C515 111.933 516.567 113.5 518.5 113.5Z" fill="#570EFF"/>
<path d="M684.5 40.5C686.433 40.5 688 38.933 688 37C688 35.067 686.433 33.5 684.5 33.5C682.567 33.5 681 35.067 681 37C681 38.933 682.567 40.5 684.5 40.5Z" fill="#570EFF"/>
<path d="M700 32.5C703.314 32.5 706 29.8137 706 26.5C706 23.1863 703.314 20.5 700 20.5C696.686 20.5 694 23.1863 694 26.5C694 29.8137 696.686 32.5 700 32.5Z" fill="#570EFF"/>
<path d="M501 100.5C504.314 100.5 507 97.8137 507 94.5C507 91.1863 504.314 88.5 501 88.5C497.686 88.5 495 91.1863 495 94.5C495 97.8137 497.686 100.5 501 100.5Z" fill="#4012A4"/>
<path d="M547 14.5C548.657 14.5 550 13.1569 550 11.5C550 9.84315 548.657 8.5 547 8.5C545.343 8.5 544 9.84315 544 11.5C544 13.1569 545.343 14.5 547 14.5Z" fill="#7710FF"/>
<path d="M551.5 22.5C552.328 22.5 553 21.8284 553 21C553 20.1716 552.328 19.5 551.5 19.5C550.672 19.5 550 20.1716 550 21C550 21.8284 550.672 22.5 551.5 22.5Z" fill="#7710FF"/>
<path d="M697.5 152.5C698.881 152.5 700 151.381 700 150C700 148.619 698.881 147.5 697.5 147.5C696.119 147.5 695 148.619 695 150C695 151.381 696.119 152.5 697.5 152.5Z" fill="#7710FF"/>
<path d="M711 139.5C713.209 139.5 715 137.709 715 135.5C715 133.291 713.209 131.5 711 131.5C708.791 131.5 707 133.291 707 135.5C707 137.709 708.791 139.5 711 139.5Z" fill="#7710FF"/>
<path d="M663 4.5H564V170.5H663V4.5Z" fill="url(#paint10_linear_137_40842)"/>
<path d="M613.5 175.5C640.838 175.5 663 173.485 663 171C663 168.515 640.838 166.5 613.5 166.5C586.162 166.5 564 168.515 564 171C564 173.485 586.162 175.5 613.5 175.5Z" fill="#789EFF"/>
<path d="M613.5 167.5C586.16 167.5 564 169.31 564 171.5C564 171.83 564.49 172.15 565.4 172.5C565.351 172.47 565.31 172.429 565.279 172.38C565.248 172.332 565.227 172.277 565.22 172.22C565.22 170.36 586.84 168.85 613.5 168.85C640.16 168.85 661.78 170.36 661.78 172.22C661.773 172.277 661.752 172.332 661.721 172.38C661.69 172.429 661.649 172.47 661.6 172.5C662.51 172.19 663 171.87 663 171.5C663 169.31 640.83 167.5 613.5 167.5Z" fill="#5A91FF"/>
<path d="M638.5 105.5C639.881 105.5 641 104.381 641 103C641 101.619 639.881 100.5 638.5 100.5C637.119 100.5 636 101.619 636 103C636 104.381 637.119 105.5 638.5 105.5Z" fill="#570EFF"/>
<path d="M598 145.5C600.209 145.5 602 143.709 602 141.5C602 139.291 600.209 137.5 598 137.5C595.791 137.5 594 139.291 594 141.5C594 143.709 595.791 145.5 598 145.5Z" fill="#570EFF"/>
<path d="M585.5 157.5C586.328 157.5 587 156.828 587 156C587 155.172 586.328 154.5 585.5 154.5C584.672 154.5 584 155.172 584 156C584 156.828 584.672 157.5 585.5 157.5Z" fill="#570EFF"/>
<path d="M617.2 121.26L617.11 121.32C614.72 122.95 613.38 125.68 613.11 129.05C612.902 131.786 613.207 134.536 614.01 137.16C614.703 139.51 615.659 141.774 616.86 143.91C617.48 145.02 618.17 146.09 618.93 147.21C619.57 148.13 620.25 148.99 620.93 149.82C622.504 151.703 624.278 153.409 626.22 154.91C628.352 156.591 630.757 157.894 633.33 158.76C636.91 159.91 640.33 159.76 642.86 158.04L642.95 157.97L650.04 153.16L646.98 148.8C646.96 146.362 646.569 143.941 645.82 141.62C645.067 139.294 644.061 137.057 642.82 134.95C642.28 134.02 641.69 133.09 641.06 132.17C640.43 131.25 639.5 130.09 638.65 129.11C637.042 127.244 635.227 125.566 633.24 124.11C631.433 122.756 629.443 121.666 627.33 120.87L624.27 116.5L617.2 121.26Z" fill="#5200E3"/>
<path d="M615.913 122.351L615.824 122.409C613.429 124.038 612.091 126.771 611.773 130.144C611.566 132.877 611.871 135.625 612.675 138.249C613.365 140.598 614.319 142.863 615.521 145.002C616.142 146.107 616.829 147.183 617.591 148.303C618.234 149.219 618.906 150.084 619.601 150.912C621.173 152.792 622.947 154.498 624.894 156.001C627.019 157.676 629.422 158.98 631.997 159.854C635.582 161.002 638.96 160.842 641.525 159.127L641.621 159.061L648.71 154.249L645.65 149.887C645.632 147.452 645.241 145.033 644.489 142.713C643.753 140.389 642.762 138.152 641.533 136.039C640.993 135.109 640.402 134.178 639.766 133.263C639.017 132.2 638.213 131.176 637.356 130.195C635.75 128.333 633.938 126.653 631.953 125.186C630.148 123.838 628.157 122.749 626.039 121.952L622.979 117.59L615.913 122.351Z" fill="#6616D6"/>
<mask id="mask1_137_40842" style="mask-type:luminance" maskUnits="userSpaceOnUse" x="611" y="117" width="38" height="44">
<path d="M615.913 122.351L615.824 122.409C613.429 124.038 612.091 126.771 611.773 130.144C611.566 132.877 611.871 135.625 612.675 138.249C613.365 140.598 614.319 142.863 615.521 145.002C616.142 146.107 616.829 147.183 617.591 148.303C618.234 149.219 618.906 150.084 619.601 150.912C621.173 152.792 622.947 154.498 624.894 156.001C627.019 157.676 629.422 158.98 631.997 159.854C635.582 161.002 638.96 160.842 641.525 159.127L641.621 159.061L648.71 154.249L645.65 149.887C645.632 147.452 645.241 145.033 644.489 142.713C643.753 140.389 642.762 138.152 641.533 136.039C640.993 135.109 640.402 134.178 639.766 133.263C639.017 132.2 638.213 131.176 637.356 130.195C635.75 128.333 633.938 126.653 631.953 125.186C630.148 123.838 628.157 122.749 626.039 121.952L622.979 117.59L615.913 122.351Z" fill="white"/>
</mask>
<g mask="url(#mask1_137_40842)">
<path d="M646.14 150.995L631.85 160.275C635.5 161.395 638.93 161.275 641.54 159.565L641.64 159.505L648.85 154.815L646.14 150.995Z" fill="#6C21FF"/>
<path d="M614.557 122.192L614.447 122.265C611.435 124.314 609.765 127.752 609.362 132.019L626.432 120.412L623.457 116.095L614.557 122.192Z" fill="#5507D8"/>
<path d="M643.995 143.995L624.525 157.185C626.642 158.846 629.026 160.134 631.575 160.995L645.525 151.595L645.175 151.115C645.165 148.697 644.777 146.294 644.025 143.995H643.995Z" fill="#611AFF"/>
<path d="M639.875 136.495L617.875 152.495V152.915C619.339 154.797 621.017 156.502 622.875 157.995V158.425L643.685 144.775L643.355 143.345C642.615 140.785 641.355 139.345 640.155 136.995L639.875 136.495Z" fill="#5D0FFF"/>
<path d="M635.525 130.995L614.525 145.995C615.125 147.115 615.785 148.205 616.525 149.335C617.135 150.265 617.785 151.135 618.455 151.975L639.525 136.905C639.005 135.965 638.435 135.025 637.825 134.095C637.114 133.022 636.346 131.988 635.525 130.995Z" fill="#5A11F7"/>
<path d="M630.265 126.995L611.525 139.535C612.201 141.785 613.127 143.952 614.285 145.995L635.525 131.785C633.96 129.998 632.199 128.391 630.275 126.995H630.265Z" fill="#5D17E3"/>
<path d="M624.015 121.995L610.585 131.575C610.401 134.415 610.719 137.266 611.525 139.995L630.525 126.415C628.755 125.013 626.787 123.881 624.685 123.055L624.015 121.995Z" fill="#550CE0"/>
</g>
<path d="M649.941 153.378C655.995 149.199 655.208 137.561 648.182 127.385C641.157 117.209 630.554 112.348 624.5 116.527C618.447 120.707 619.234 132.344 626.259 142.52C633.285 152.696 643.887 157.558 649.941 153.378Z" fill="url(#paint11_linear_137_40842)"/>
<path d="M624.46 116.9C623.976 117.244 623.53 117.64 623.13 118.08C622.927 118.293 622.74 118.52 622.57 118.76C622.48 118.87 622.4 118.99 622.31 119.12C622.22 119.25 622.15 119.36 622.08 119.49C621.487 120.502 621.061 121.603 620.82 122.75C620.364 125.061 620.364 127.439 620.82 129.75C621.254 132.052 621.958 134.294 622.92 136.43C623.886 138.575 625.058 140.622 626.42 142.54C627.1 143.54 627.82 144.43 628.58 145.32C629.34 146.21 630.16 147.08 631.01 147.9C632.722 149.54 634.618 150.977 636.66 152.18C638.702 153.414 640.958 154.251 643.31 154.65C644.492 154.84 645.698 154.84 646.88 154.65C647.026 154.633 647.17 154.603 647.31 154.56L647.75 154.46C648.038 154.382 648.322 154.288 648.6 154.18C649.16 153.97 649.696 153.702 650.2 153.38C649.211 154.07 648.086 154.541 646.9 154.76C645.706 154.98 644.484 155.01 643.28 154.85C640.888 154.483 638.585 153.672 636.49 152.46C634.404 151.273 632.472 149.832 630.74 148.17C627.276 144.897 624.492 140.972 622.55 136.62C621.582 134.452 620.889 132.171 620.49 129.83C620.07 127.491 620.111 125.093 620.61 122.77C620.896 121.613 621.365 120.509 622 119.5C622.641 118.484 623.49 117.615 624.49 116.95L624.46 116.9Z" fill="#8D68FF"/>
<path d="M628.22 141.22C630.922 145.48 634.722 148.935 639.22 151.22C644.01 153.44 646.79 152.3 648.02 151.43C649.25 150.56 651.27 148.29 650.96 142.89C650.489 137.815 648.7 132.951 645.77 128.78C643.066 124.521 639.267 121.067 634.77 118.78C629.98 116.56 627.19 117.7 625.97 118.57C624.75 119.44 622.72 121.71 623.03 127.1C623.488 132.181 625.278 137.052 628.22 141.22Z" fill="url(#paint12_linear_137_40842)"/>
<path d="M639.55 151.07L640.55 151.43L641.06 151.59C641.224 151.644 641.391 151.687 641.56 151.72L642.08 151.86L642.59 151.96L643.11 152.04L643.63 152.1C644.996 152.258 646.379 152.04 647.63 151.47C648.834 150.842 649.777 149.807 650.29 148.55C650.813 147.308 651.098 145.978 651.13 144.63C651.142 141.895 650.643 139.182 649.66 136.63C648.689 134.042 647.392 131.589 645.8 129.33C644.231 127.043 642.372 124.969 640.27 123.16C638.203 121.32 635.808 119.885 633.21 118.93C631.928 118.469 630.572 118.252 629.21 118.29C627.853 118.33 626.553 118.847 625.54 119.75C624.564 120.71 623.872 121.922 623.54 123.25C623.54 123.42 623.46 123.59 623.41 123.75C623.36 123.91 623.34 124.1 623.31 124.26C623.28 124.42 623.24 124.61 623.22 124.78L623.16 125.3C623.175 125.473 623.175 125.647 623.16 125.82V127.4C622.998 125.993 623.052 124.57 623.32 123.18C623.59 121.746 624.267 120.42 625.27 119.36C625.793 118.831 626.415 118.41 627.1 118.12C627.785 117.832 628.51 117.65 629.25 117.58C630.718 117.478 632.192 117.661 633.59 118.12C636.334 119.04 638.875 120.484 641.07 122.37C645.453 126.101 648.795 130.903 650.77 136.31C651.732 138.992 652.166 141.834 652.05 144.68C652 146.142 651.66 147.58 651.05 148.91C650.725 149.577 650.297 150.188 649.78 150.72C649.262 151.256 648.644 151.684 647.96 151.98C646.605 152.532 645.121 152.688 643.68 152.43C642.289 152.193 640.941 151.751 639.68 151.12L639.55 151.07Z" fill="#5A11F7"/>
<path d="M648 136.5L647.13 137.38L647 137.5L647.88 136.62L648 136.5Z" fill="#E1CCB5"/>
<path d="M640.35 128.4C640.17 128.153 639.942 127.946 639.678 127.791C639.415 127.636 639.123 127.537 638.82 127.5H638.65C638.377 127.495 638.11 127.579 637.89 127.74L637 128.5C637.221 128.341 637.488 128.26 637.76 128.27H637.93C638.2 128.299 638.461 128.381 638.7 128.51C638.997 128.678 639.256 128.906 639.46 129.18L646.11 137.49L647 136.71L640.35 128.4Z" fill="#5D0FFF"/>
<path d="M638 128.75L635.76 128.07L635.83 127.48L635.89 126.91C635.947 126.382 636.175 125.886 636.54 125.5L635.78 126.24C635.417 126.628 635.189 127.122 635.13 127.65L635.07 128.23L635 128.81L637.24 129.5L638 128.75Z" fill="#5D0FFF"/>
<path d="M639.36 139.63L638.85 139.53C637.522 139.174 636.357 138.372 635.55 137.26C635.07 136.744 634.727 136.115 634.552 135.432C634.378 134.749 634.377 134.033 634.55 133.35V133.13L637.55 133.94C637.7 133.972 637.847 134.016 637.99 134.07C638.241 134.095 638.483 134.176 638.699 134.305C638.915 134.435 639.1 134.611 639.24 134.82C639.559 135.226 639.738 135.724 639.75 136.24C639.76 136.437 639.728 136.634 639.658 136.818C639.587 137.002 639.479 137.17 639.34 137.31L640.22 136.49C640.361 136.351 640.471 136.184 640.543 135.999C640.615 135.815 640.648 135.618 640.64 135.42C640.627 134.902 640.444 134.404 640.12 134C639.981 133.79 639.798 133.614 639.584 133.483C639.37 133.351 639.13 133.268 638.88 133.24L638.42 133.11L632.53 131.6C632.409 131.564 632.285 131.537 632.16 131.52C631.91 131.465 631.65 131.465 631.4 131.52C631.196 131.579 631.01 131.689 630.86 131.84L629.98 132.65C630.13 132.507 630.312 132.401 630.51 132.34C630.761 132.291 631.019 132.291 631.27 132.34L631.65 132.42L634.27 133.11L633.6 133.73L633.55 134.2C633.37 134.881 633.368 135.597 633.543 136.28C633.718 136.963 634.064 137.589 634.55 138.1C635.361 139.208 636.525 140.009 637.85 140.37L638.36 140.46C638.818 140.53 639.284 140.504 639.732 140.386C640.179 140.267 640.597 140.057 640.96 139.77L641.08 139.66L641.96 138.84L641.84 138.95C641.487 139.226 641.082 139.429 640.649 139.546C640.216 139.662 639.764 139.691 639.32 139.63H639.36Z" fill="#5D0FFF"/>
<path d="M637.29 145.65C636.906 145.585 636.539 145.443 636.211 145.234C635.883 145.024 635.601 144.751 635.38 144.43L629 135.5C628.369 134.671 627.975 133.686 627.86 132.65C627.746 131.74 627.959 130.818 628.46 130.05C628.591 129.84 628.745 129.645 628.92 129.47L628.09 130.29C627.911 130.464 627.754 130.659 627.62 130.87C627.116 131.637 626.903 132.559 627.02 133.47C627.129 134.507 627.523 135.494 628.16 136.32L634.54 145.22C634.754 145.546 635.034 145.823 635.361 146.035C635.688 146.246 636.055 146.388 636.44 146.45C636.75 146.495 637.066 146.468 637.363 146.369C637.66 146.27 637.929 146.102 638.15 145.88L638.99 145.05C638.773 145.276 638.507 145.448 638.211 145.552C637.916 145.657 637.601 145.69 637.29 145.65Z" fill="#5D0FFF"/>
<path d="M638.63 130.6L638.22 130.48L632.44 128.74C632.114 128.64 631.779 128.573 631.44 128.54C630.855 128.462 630.261 128.499 629.69 128.65C628.851 128.856 628.115 129.361 627.62 130.07C627.092 130.816 626.867 131.734 626.99 132.64C627.122 133.675 627.541 134.652 628.2 135.46L634.97 144.27C635.452 144.92 636.17 145.355 636.97 145.48C637.296 145.523 637.627 145.496 637.941 145.399C638.255 145.302 638.545 145.139 638.79 144.92L638.97 144.75L630.66 134.04C630.396 133.722 630.224 133.338 630.16 132.93C630.113 132.582 630.187 132.229 630.37 131.93C630.549 131.638 630.825 131.419 631.15 131.31C631.403 131.25 631.667 131.25 631.92 131.31C632.045 131.324 632.169 131.347 632.29 131.38L638.29 132.89L638.75 133.02C639.002 133.05 639.245 133.134 639.462 133.265C639.679 133.396 639.866 133.571 640.01 133.78C640.334 134.183 640.517 134.682 640.53 135.2C640.526 135.39 640.482 135.577 640.401 135.748C640.32 135.92 640.203 136.072 640.058 136.195C639.913 136.318 639.744 136.408 639.562 136.461C639.379 136.514 639.188 136.527 639 136.5H638.71C638.19 136.334 637.735 136.009 637.41 135.57C637.238 135.363 637.116 135.119 637.055 134.857C636.995 134.594 636.996 134.322 637.06 134.06C637.054 133.822 637.074 133.584 637.12 133.35L634.39 132.67L634.33 133.13C634.159 133.816 634.166 134.534 634.35 135.216C634.534 135.898 634.888 136.523 635.38 137.03C636.197 138.144 637.373 138.942 638.71 139.29C638.883 139.339 639.061 139.372 639.24 139.39C639.701 139.463 640.171 139.439 640.622 139.32C641.073 139.201 641.495 138.99 641.86 138.7C642.253 138.359 642.56 137.931 642.758 137.45C642.956 136.969 643.039 136.449 643 135.93C642.935 134.739 642.497 133.599 641.75 132.67C641.405 132.134 640.949 131.678 640.412 131.333C639.876 130.987 639.271 130.762 638.64 130.67L638.63 130.6Z" fill="#DBD4FF"/>
<path d="M646.41 134.43L641.71 127.83C641.244 127.175 640.657 126.615 639.98 126.18C639.415 125.825 638.781 125.597 638.12 125.51H637.9C637.244 125.459 636.592 125.644 636.06 126.03C635.542 126.458 635.212 127.072 635.14 127.74L635.08 128.37L635 129L637.47 129.75V129.4V128.79C637.475 128.508 637.589 128.239 637.79 128.04C637.994 127.876 638.248 127.787 638.51 127.79H638.67C638.964 127.836 639.245 127.944 639.494 128.108C639.742 128.272 639.952 128.487 640.11 128.74L646.37 137.5L646.49 137.39C647.22 136.76 647.13 135.5 646.41 134.43Z" fill="#DBD4FF"/>
<g opacity="0.95">
<path d="M585.2 121.67H585.1C582.577 120.76 580.505 118.907 579.32 116.5C578.351 114.559 577.78 112.445 577.64 110.28C577.513 108.432 577.637 106.575 578.01 104.76C578.187 103.811 578.431 102.875 578.74 101.96C579.003 101.188 579.307 100.43 579.65 99.69C580.417 98.0205 581.402 96.4603 582.58 95.05C583.928 93.4171 585.578 92.0591 587.44 91.05C588.693 90.3414 590.078 89.8985 591.509 89.7488C592.941 89.5992 594.388 89.7459 595.76 90.18H595.85L601.9 92.24L602.05 96.48C602.759 98.2628 603.162 100.153 603.24 102.07C603.314 103.907 603.146 105.747 602.74 107.54C602.57 108.34 602.35 109.128 602.08 109.9C601.77 110.817 601.4 111.713 600.97 112.58C600.161 114.243 599.128 115.787 597.9 117.17C596.753 118.487 595.403 119.611 593.9 120.5L591.21 123.77L585.2 121.67Z" fill="#5200E3"/>
<path d="M602.28 96.01L587.52 90.96C588.772 90.2539 590.155 89.8124 591.585 89.6628C593.014 89.5131 594.459 89.6585 595.83 90.09H595.93L601.93 92.16L602.28 96.01Z" fill="#5507D8"/>
<path d="M585.2 121.67H585.1C582.577 120.76 580.505 118.907 579.32 116.5L593.65 121.4L591.25 123.82L585.2 121.67Z" fill="#6C21FF"/>
<path d="M603.31 102.02L582.63 94.95C583.978 93.3171 585.628 91.9591 587.49 90.95L602.24 95.95L602.1 96.38C602.808 98.1596 603.21 100.046 603.29 101.96L603.31 102.02Z" fill="#550CE0"/>
<path d="M602.83 107.5L579.69 99.6C580.454 97.9308 581.435 96.3705 582.61 94.96L603.31 102.01C603.388 103.85 603.223 105.693 602.82 107.49L602.83 107.5Z" fill="#5D17E3"/>
<path d="M601.05 112.55L578.05 104.67C578.229 103.721 578.472 102.785 578.78 101.87C579.043 101.098 579.347 100.34 579.69 99.6L602.8 107.5C602.621 108.299 602.397 109.087 602.13 109.86C601.819 110.777 601.448 111.672 601.02 112.54L601.05 112.55Z" fill="#5A11F7"/>
<path d="M598 117.14L577.64 110.2C577.513 108.352 577.637 106.495 578.01 104.68L601.01 112.55C600.204 114.215 599.171 115.759 597.94 117.14H598Z" fill="#5D0FFF"/>
<path d="M593.65 121.32L579.32 116.42C578.351 114.479 577.78 112.364 577.64 110.2L598 117.14C596.853 118.459 595.503 119.587 594 120.48L593.65 121.32Z" fill="#611AFF"/>
<path d="M609.162 112.198C612.135 103.485 608.939 94.5084 602.024 92.1488C595.109 89.7893 587.093 94.9401 584.12 103.653C581.147 112.367 584.342 121.343 591.258 123.703C598.173 126.062 606.189 120.911 609.162 112.198Z" fill="url(#paint13_linear_137_40842)"/>
<path d="M591.29 123.71C589.407 123.098 587.725 121.989 586.42 120.5C585.118 119.001 584.15 117.242 583.58 115.34C583.009 113.442 582.762 111.46 582.85 109.48C582.999 105.481 584.313 101.613 586.63 98.3499C587.768 96.7238 589.175 95.3035 590.79 94.15C592.397 92.9832 594.235 92.1719 596.18 91.7699C598.132 91.3824 600.153 91.5275 602.03 92.19C600.153 91.6095 598.157 91.5302 596.24 91.96C594.344 92.3867 592.558 93.2078 591 94.37C589.449 95.5294 588.098 96.9346 587 98.5299C584.738 101.76 583.432 105.562 583.23 109.5C583.139 111.45 583.361 113.401 583.89 115.28C584.411 117.16 585.324 118.909 586.57 120.41C587.819 121.927 589.447 123.087 591.29 123.77V123.71Z" fill="#8D68FF"/>
<path d="M585.87 104.24C587.122 100.398 589.671 97.1098 593.08 94.94C596.96 92.55 600.08 93.07 601.6 93.58C603.12 94.09 605.9 95.58 607.53 99.88C608.824 103.691 608.822 107.822 607.523 111.632C606.224 115.441 603.702 118.714 600.35 120.94C596.46 123.33 593.35 122.82 591.83 122.3C590.31 121.78 587.52 120.3 585.9 116C584.53 112.2 584.53 108.04 585.9 104.24H585.87Z" fill="url(#paint14_linear_137_40842)"/>
<path d="M593.08 94.94C594.111 94.2303 595.248 93.6901 596.45 93.34C597.672 92.9809 598.954 92.8687 600.22 93.01C600.856 93.0883 601.481 93.2427 602.08 93.47C602.679 93.7028 603.252 93.9978 603.79 94.35C604.861 95.0722 605.784 95.992 606.51 97.06C607.947 99.2012 608.805 101.678 609 104.25C609.184 106.803 608.853 109.368 608.029 111.791C607.205 114.215 605.903 116.448 604.2 118.36C602.485 120.275 600.31 121.721 597.88 122.56C596.652 122.961 595.358 123.121 594.07 123.03C592.782 122.945 591.531 122.557 590.42 121.9C589.334 121.237 588.39 120.367 587.64 119.34C586.91 118.319 586.34 117.193 585.95 116C586.432 117.143 587.072 118.214 587.85 119.18C588.608 120.127 589.546 120.916 590.61 121.5C591.138 121.785 591.698 122.003 592.28 122.15C592.861 122.306 593.458 122.394 594.06 122.41C595.261 122.439 596.457 122.249 597.59 121.85C598.72 121.43 599.791 120.869 600.78 120.18C601.766 119.478 602.668 118.667 603.47 117.76C604.271 116.857 604.977 115.875 605.58 114.83C606.157 113.767 606.632 112.652 607 111.5C607.398 110.351 607.683 109.165 607.85 107.96C608.025 106.748 608.075 105.522 608 104.3C607.923 103.092 607.705 101.897 607.35 100.74C606.99 99.6022 606.49 98.5137 605.86 97.5C605.21 96.4902 604.379 95.6089 603.41 94.9C602.92 94.5502 602.398 94.2488 601.85 94C601.294 93.7687 600.714 93.601 600.12 93.5C598.907 93.2997 597.667 93.3405 596.47 93.62C595.283 93.8982 594.142 94.3425 593.08 94.94Z" fill="#5A11F7"/>
<path d="M599.25 117.08L598.25 116.7L598.11 116.64L599.11 117.03H599.25V117.08Z" fill="#E1CCB5"/>
<path d="M603.64 108.43C603.794 108.16 603.886 107.86 603.91 107.55C603.928 107.3 603.901 107.05 603.83 106.81L603.77 106.68C603.671 106.453 603.498 106.266 603.28 106.15L602.28 105.77C602.503 105.883 602.68 106.071 602.78 106.3C602.784 106.347 602.784 106.393 602.78 106.44C602.851 106.666 602.879 106.904 602.86 107.14C602.84 107.45 602.747 107.752 602.59 108.02L598.06 116.62L599.06 117L603.64 108.43Z" fill="#5D0FFF"/>
<path d="M601.77 106.5L601.38 104.15L601.92 103.97L602.45 103.79C602.941 103.61 603.479 103.61 603.97 103.79L602.97 103.4C602.479 103.22 601.941 103.22 601.45 103.4L600.91 103.57L600.37 103.76L600.77 106.11L601.77 106.5Z" fill="#5D0FFF"/>
<path d="M594.6 111.58C594.6 111.43 594.52 111.29 594.48 111.13C594.261 109.947 594.459 108.724 595.04 107.67C595.262 107.091 595.627 106.577 596.101 106.177C596.575 105.776 597.142 105.502 597.75 105.38L597.94 105.31L598.46 108.07C598.46 108.07 598.46 108.29 598.52 108.47C598.593 108.676 598.62 108.896 598.599 109.113C598.579 109.331 598.511 109.541 598.4 109.73C598.202 110.137 597.875 110.467 597.47 110.67C597.318 110.753 597.151 110.803 596.978 110.817C596.806 110.83 596.633 110.808 596.47 110.75L597.47 111.13C597.632 111.189 597.805 111.214 597.977 111.201C598.15 111.189 598.318 111.141 598.47 111.06C598.886 110.841 599.217 110.489 599.41 110.06C599.522 109.874 599.592 109.665 599.612 109.449C599.633 109.232 599.605 109.014 599.53 108.81C599.525 108.67 599.498 108.532 599.45 108.4L598.45 103.15C598.45 103.05 598.45 102.94 598.37 102.83C598.299 102.625 598.191 102.435 598.05 102.27C597.924 102.138 597.77 102.035 597.6 101.97L596.6 101.58C596.772 101.641 596.924 101.748 597.04 101.89C597.187 102.048 597.3 102.236 597.37 102.44C597.37 102.55 597.37 102.66 597.44 102.77L597.88 105.1L597.15 104.81L596.75 104.94C596.143 105.066 595.578 105.341 595.104 105.741C594.631 106.141 594.265 106.653 594.04 107.23C593.463 108.289 593.266 109.513 593.48 110.7C593.509 110.849 593.549 110.996 593.6 111.14C593.721 111.526 593.919 111.884 594.182 112.191C594.445 112.499 594.767 112.75 595.13 112.93H595.25L596.25 113.32H596.13C595.77 113.149 595.449 112.906 595.186 112.607C594.923 112.308 594.724 111.958 594.6 111.58Z" fill="#5D0FFF"/>
<path d="M588.9 112.23C588.8 111.899 588.767 111.552 588.803 111.209C588.839 110.865 588.943 110.533 589.11 110.23L593.61 101.6C594.012 100.779 594.636 100.086 595.41 99.6C596.082 99.1589 596.898 98.9908 597.69 99.13C597.907 99.1524 598.119 99.2063 598.32 99.29L597.32 98.91C597.112 98.8243 596.893 98.7671 596.67 98.74C595.881 98.6054 595.07 98.7733 594.4 99.21C593.621 99.6942 592.994 100.387 592.59 101.21L588.09 109.84C587.924 110.143 587.821 110.476 587.785 110.819C587.748 111.162 587.781 111.509 587.88 111.84C587.965 112.112 588.11 112.362 588.303 112.571C588.497 112.781 588.735 112.944 589 113.05L590 113.43C589.737 113.326 589.501 113.164 589.308 112.956C589.116 112.748 588.973 112.5 588.89 112.23H588.9Z" fill="#5D0FFF"/>
<path d="M601.32 107.84C601.335 107.717 601.335 107.593 601.32 107.47L600.59 102.3C600.549 102.021 600.482 101.746 600.39 101.48C600.239 100.989 599.991 100.533 599.66 100.14C599.18 99.5679 598.508 99.1909 597.77 99.08C596.978 98.9408 596.162 99.1089 595.49 99.55C594.716 100.036 594.092 100.729 593.69 101.55L589.16 110.19C588.993 110.493 588.889 110.825 588.853 111.169C588.817 111.512 588.85 111.859 588.95 112.19C589.033 112.46 589.176 112.708 589.368 112.916C589.561 113.124 589.797 113.286 590.06 113.39L590.26 113.47L595.71 102.93C595.878 102.598 596.129 102.315 596.44 102.11C596.708 101.931 597.029 101.85 597.35 101.88C597.654 101.919 597.936 102.06 598.15 102.28C598.293 102.442 598.399 102.633 598.46 102.84C598.497 102.944 598.524 103.051 598.54 103.16L599.54 108.4C599.54 108.4 599.54 108.63 599.61 108.81C599.687 109.015 599.716 109.234 599.697 109.452C599.678 109.67 599.611 109.881 599.5 110.07C599.292 110.476 598.964 110.808 598.56 111.02C598.405 111.111 598.23 111.164 598.05 111.175C597.871 111.186 597.691 111.155 597.526 111.084C597.36 111.013 597.214 110.904 597.098 110.766C596.983 110.628 596.901 110.465 596.86 110.29C596.831 110.208 596.807 110.125 596.79 110.04C596.721 109.555 596.809 109.061 597.04 108.63C597.143 108.414 597.296 108.224 597.485 108.077C597.674 107.929 597.895 107.828 598.13 107.78C598.33 107.717 598.527 107.644 598.72 107.56L598.25 105.17L597.86 105.3C597.251 105.421 596.683 105.694 596.209 106.095C595.735 106.495 595.37 107.01 595.15 107.59C594.569 108.644 594.371 109.867 594.59 111.05C594.59 111.21 594.66 111.35 594.7 111.5C594.821 111.886 595.019 112.244 595.282 112.551C595.545 112.859 595.867 113.11 596.23 113.29C596.65 113.464 597.104 113.539 597.558 113.512C598.012 113.484 598.454 113.353 598.85 113.13C599.77 112.631 600.516 111.863 600.99 110.93C601.273 110.464 601.455 109.943 601.524 109.403C601.593 108.862 601.547 108.312 601.39 107.79L601.32 107.84Z" fill="#DBD4FF"/>
<path d="M601.56 115.82L604.97 109.35C605.316 108.709 605.53 108.005 605.6 107.28C605.659 106.669 605.591 106.053 605.4 105.47L605.33 105.27C605.108 104.707 604.703 104.235 604.18 103.93C603.915 103.792 603.625 103.71 603.327 103.69C603.03 103.669 602.731 103.71 602.45 103.81L601.92 104L601.38 104.18L601.77 106.52L602.06 106.39L602.57 106.19C602.685 106.141 602.809 106.115 602.935 106.115C603.06 106.115 603.185 106.141 603.3 106.19C603.524 106.299 603.698 106.488 603.79 106.72L603.85 106.85C603.929 107.119 603.953 107.401 603.92 107.679C603.888 107.958 603.799 108.227 603.66 108.47L599.13 117.06H599.27C600 117.38 601 116.79 601.56 115.82Z" fill="#DBD4FF"/>
</g>
<g opacity="0.65">
<path d="M623.27 40.21H623.22C621.981 39.7575 620.971 38.8338 620.41 37.64C619.93 36.6799 619.651 35.6318 619.59 34.56C619.53 33.6494 619.59 32.7347 619.77 31.84C619.867 31.3701 619.991 30.9061 620.14 30.45C620.27 30.06 620.42 29.69 620.58 29.33C620.952 28.5082 621.429 27.7384 622 27.04C622.654 26.2273 623.459 25.5482 624.37 25.04C624.98 24.6902 625.656 24.4714 626.355 24.3973C627.054 24.3233 627.761 24.3957 628.43 24.61L631.43 25.61L631.5 27.71C631.859 28.5987 632.062 29.5425 632.1 30.5C632.14 31.41 632.06 32.3213 631.86 33.21C631.77 33.602 631.66 33.9892 631.53 34.37C631.381 34.8254 631.201 35.2698 630.99 35.7C630.598 36.5195 630.093 37.2802 629.49 37.96C628.92 38.6154 628.244 39.1699 627.49 39.6L626.17 41.22L623.27 40.21Z" fill="#5200E3"/>
<path d="M631.59 27.5L624.4 25.01C625.001 24.6652 625.666 24.449 626.355 24.375C627.043 24.3009 627.74 24.3708 628.4 24.58L631.4 25.58L631.59 27.5Z" fill="#5507D8"/>
<path d="M623.27 40.21H623.22C621.981 39.7575 620.971 38.8338 620.41 37.64L627.41 40.06L626.23 41.25L623.27 40.21Z" fill="#6C21FF"/>
<path d="M632.1 30.5L622 27.02C622.65 26.2028 623.455 25.5229 624.37 25.02L631.58 27.5L631.51 27.72C631.856 28.5976 632.052 29.5273 632.09 30.47L632.1 30.5Z" fill="#550CE0"/>
<path d="M631.86 33.21L620.6 29.31C620.96 28.4861 621.431 27.7156 622 27.02L632.07 30.5C632.119 31.4096 632.041 32.3216 631.84 33.21H631.86Z" fill="#5D17E3"/>
<path d="M631 35.71L619.81 31.81C619.907 31.3434 620.031 30.8827 620.18 30.43C620.31 30.04 620.46 29.67 620.62 29.31L631.88 33.21C631.799 33.6066 631.692 33.9975 631.56 34.38C631.399 34.8303 631.212 35.271 631 35.7V35.71Z" fill="#5A11F7"/>
<path d="M629.49 37.97L619.59 34.5C619.53 33.5861 619.591 32.6682 619.77 31.77L631 35.7C630.608 36.5195 630.103 37.2802 629.5 37.96L629.49 37.97Z" fill="#5D0FFF"/>
<path d="M627.39 40.04L620.39 37.61C619.909 36.6539 619.63 35.6088 619.57 34.54L629.47 37.97C628.901 38.6254 628.224 39.1799 627.47 39.61L627.39 40.04Z" fill="#611AFF"/>
<path d="M634.932 35.502C636.398 31.2054 634.854 26.7898 631.482 25.6395C628.111 24.4892 624.189 27.0397 622.723 31.3362C621.257 35.6328 622.802 40.0484 626.173 41.1987C629.545 42.3491 633.466 39.7985 634.932 35.502Z" fill="url(#paint15_linear_137_40842)"/>
<path d="M626.23 41.21C625.308 40.9039 624.489 40.3504 623.86 39.61C623.246 38.863 622.79 37.9988 622.52 37.07C622.239 36.1303 622.121 35.1496 622.17 34.17C622.213 33.1975 622.388 32.2354 622.69 31.31C623.008 30.3867 623.452 29.5118 624.01 28.71C624.557 27.9135 625.233 27.2139 626.01 26.64C626.8 26.0718 627.704 25.6828 628.66 25.5C629.602 25.3192 630.575 25.3917 631.48 25.71C630.567 25.4192 629.593 25.3811 628.66 25.6C627.734 25.8132 626.865 26.2224 626.11 26.8C625.339 27.3534 624.663 28.0289 624.11 28.8C623.018 30.3907 622.388 32.2529 622.29 34.18C622.249 35.1448 622.36 36.1099 622.62 37.04C622.867 37.9569 623.303 38.8119 623.9 39.55C624.188 39.926 624.524 40.2622 624.9 40.55C625.29 40.8257 625.713 41.0508 626.16 41.22L626.23 41.21Z" fill="#8D68FF"/>
<path d="M623.6 31.61C624.203 29.7169 625.443 28.0913 627.11 27.01C627.694 26.5667 628.378 26.2744 629.102 26.1593C629.826 26.0442 630.568 26.1097 631.26 26.35C631.958 26.5927 632.585 27.0019 633.089 27.5421C633.593 28.0823 633.957 28.7372 634.15 29.45C634.784 31.3297 634.783 33.3657 634.147 35.2448C633.511 37.1239 632.276 38.7419 630.63 39.85C630.046 40.2933 629.362 40.5856 628.638 40.7007C627.914 40.8159 627.173 40.7503 626.48 40.51C625.784 40.2675 625.157 39.8582 624.655 39.3178C624.153 38.7775 623.791 38.1225 623.6 37.41C622.93 35.5347 622.93 33.4853 623.6 31.61Z" fill="url(#paint16_linear_137_40842)"/>
<path d="M627.09 27.01C627.596 26.6694 628.148 26.4033 628.73 26.22C629.327 26.0473 629.952 25.993 630.57 26.06C630.881 26.1023 631.186 26.1795 631.48 26.29C631.771 26.4031 632.05 26.5473 632.31 26.72C632.831 27.0791 633.279 27.5339 633.63 28.06C634.329 29.1313 634.742 30.3638 634.83 31.64C634.917 32.8995 634.753 34.1637 634.35 35.36C633.955 36.5564 633.318 37.6591 632.48 38.6C631.652 39.5476 630.59 40.2614 629.4 40.67C628.805 40.8692 628.176 40.9507 627.55 40.91C626.923 40.8709 626.315 40.6786 625.78 40.35C625.249 40.0222 624.787 39.5942 624.42 39.09C624.07 38.5816 623.794 38.026 623.6 37.44C623.832 38.0037 624.142 38.5322 624.52 39.01C624.9 39.4712 625.365 39.8548 625.89 40.14C626.15 40.2806 626.425 40.3914 626.71 40.47C626.992 40.54 627.28 40.5803 627.57 40.59C628.156 40.6128 628.741 40.5176 629.29 40.31C629.841 40.107 630.362 39.8313 630.84 39.49C631.323 39.1473 631.763 38.7478 632.15 38.3C632.532 37.8589 632.867 37.3797 633.15 36.87C633.432 36.349 633.667 35.8035 633.85 35.24C634.05 34.6741 634.201 34.0919 634.3 33.5C634.38 32.9069 634.4 32.3072 634.36 31.71C634.324 31.1126 634.217 30.5218 634.04 29.95C633.878 29.382 633.642 28.8375 633.34 28.33C633.024 27.8347 632.621 27.4009 632.15 27.05C631.914 26.8748 631.659 26.7272 631.39 26.61C631.122 26.4921 630.839 26.4081 630.55 26.36C629.962 26.2598 629.36 26.2802 628.78 26.42C628.191 26.5385 627.622 26.7406 627.09 27.02V27.01Z" fill="#5A11F7"/>
<path d="M630.11 37.94L629.63 37.75H629.57L630.05 37.94H630.11Z" fill="#E1CCB5"/>
<path d="M632.25 33.67C632.327 33.5393 632.372 33.3917 632.38 33.24C632.401 33.1242 632.401 33.0058 632.38 32.89V32.82C632.334 32.707 632.249 32.6145 632.14 32.56L631.66 32.38C631.716 32.4044 631.766 32.4401 631.807 32.4848C631.849 32.5296 631.88 32.5824 631.9 32.64V32.71C631.919 32.8225 631.919 32.9375 631.9 33.05C631.888 33.2056 631.84 33.3563 631.76 33.49L629.55 37.72L630.02 37.91L632.25 33.67Z" fill="#5D0FFF"/>
<path d="M631.34 32.73L631.15 31.57L631.41 31.49L631.67 31.39C631.9 31.31 632.15 31.31 632.38 31.39L631.9 31.21C631.674 31.1299 631.427 31.1299 631.2 31.21L630.93 31.29L630.67 31.39L630.86 32.54L631.34 32.73Z" fill="#5D0FFF"/>
<path d="M627.85 35.22C627.821 35.153 627.801 35.0824 627.79 35.01C627.682 34.4259 627.777 33.8225 628.06 33.3C628.169 33.014 628.347 32.7597 628.58 32.5606C628.812 32.3614 629.091 32.2237 629.39 32.16H629.47L629.72 33.5201V33.72C629.754 33.8214 629.767 33.9286 629.759 34.0352C629.75 34.1417 629.72 34.2455 629.67 34.34C629.574 34.5441 629.412 34.7097 629.21 34.81C629.134 34.8472 629.05 34.8665 628.965 34.8665C628.88 34.8665 628.796 34.8472 628.72 34.81L629.2 35.01C629.358 35.07 629.532 35.07 629.69 35.01C629.89 34.903 630.052 34.7348 630.15 34.5301C630.192 34.432 630.213 34.3266 630.213 34.22C630.213 34.1135 630.192 34.0081 630.15 33.91C630.155 33.8435 630.155 33.7766 630.15 33.71L629.67 31.13V31C629.658 30.8693 629.61 30.7445 629.53 30.64C629.469 30.579 629.398 30.5284 629.32 30.49L628.84 30.3C628.919 30.3407 628.993 30.3911 629.06 30.4501C629.129 30.5318 629.18 30.6272 629.21 30.73C629.22 30.7829 629.22 30.8372 629.21 30.89L629.42 32.0401L629.06 31.89L628.87 31.96C628.573 32.0234 628.297 32.16 628.066 32.3573C627.836 32.5547 627.658 32.8066 627.55 33.09C627.268 33.6127 627.173 34.2159 627.28 34.8C627.275 34.8733 627.275 34.9468 627.28 35.0201C627.342 35.2171 627.445 35.3985 627.583 35.5521C627.721 35.7056 627.891 35.8277 628.08 35.91H628.14L628.62 36.1101H628.56C628.373 36.0271 628.207 35.9045 628.072 35.7508C627.937 35.5972 627.838 35.4161 627.78 35.22H627.85Z" fill="#5D0FFF"/>
<path d="M625.07 35.55C625.018 35.3853 625 35.2117 625.017 35.0397C625.034 34.8678 625.086 34.7011 625.17 34.55L627.37 30.27C627.558 29.8601 627.86 29.513 628.24 29.27C628.568 29.056 628.964 28.9738 629.35 29.04C629.457 29.0513 629.561 29.0782 629.66 29.12L629.18 28.93C629.081 28.8882 628.977 28.8613 628.87 28.85C628.484 28.7848 628.088 28.8669 627.76 29.08C627.381 29.3243 627.079 29.671 626.89 30.08L624.69 34.37C624.608 34.5219 624.557 34.6885 624.54 34.8601C624.523 35.0317 624.54 35.205 624.59 35.37C624.631 35.5037 624.702 35.6263 624.797 35.7285C624.892 35.8307 625.01 35.9099 625.14 35.96L625.62 36.15C625.489 36.1012 625.371 36.0225 625.275 35.9201C625.18 35.8177 625.109 35.6944 625.07 35.56V35.55Z" fill="#5D0FFF"/>
<path d="M631.12 33.38V33.2L630.73 30.64C630.711 30.5036 630.677 30.3695 630.63 30.24C630.556 30.0008 630.434 29.7795 630.27 29.59C630.043 29.3018 629.713 29.1121 629.35 29.06C628.964 28.9938 628.568 29.076 628.24 29.29C627.86 29.533 627.558 29.8801 627.37 30.29L625.17 34.57C625.086 34.7211 625.034 34.8878 625.017 35.0597C625 35.2317 625.018 35.4053 625.07 35.57C625.111 35.7037 625.182 35.8263 625.277 35.9285C625.372 36.0307 625.49 36.1099 625.62 36.16H625.71L628.36 30.96C628.442 30.8002 628.558 30.6602 628.7 30.55C628.834 30.4668 628.993 30.4316 629.15 30.45C629.304 30.4587 629.45 30.5226 629.56 30.63C629.629 30.7117 629.68 30.8072 629.71 30.91V31.07L630.19 33.65C630.18 33.7163 630.18 33.7837 630.19 33.85C630.224 33.953 630.238 34.0619 630.229 34.1701C630.22 34.2783 630.19 34.3837 630.14 34.48C630.038 34.6799 629.878 34.8439 629.68 34.95C629.597 34.9947 629.504 35.018 629.41 35.018C629.316 35.018 629.223 34.9947 629.14 34.95C629.003 34.8696 628.899 34.7415 628.85 34.59V34.5C628.809 34.2534 628.851 33.9999 628.97 33.78C629.021 33.6747 629.095 33.5823 629.187 33.5096C629.279 33.4369 629.386 33.3858 629.5 33.36L629.79 33.26L629.53 32.09L629.34 32.16C629.043 32.2217 628.765 32.3576 628.535 32.5552C628.304 32.7528 628.127 33.0056 628.02 33.29C627.738 33.8128 627.64 34.4147 627.74 35L627.8 35.21C627.858 35.4014 627.955 35.5789 628.084 35.7318C628.213 35.8848 628.371 36.0101 628.55 36.1C628.754 36.1834 628.974 36.2195 629.194 36.2057C629.414 36.1918 629.628 36.1283 629.82 36.02C630.273 35.7787 630.643 35.4056 630.88 34.95C631.017 34.719 631.107 34.4627 631.143 34.1964C631.179 33.9301 631.161 33.6592 631.09 33.4L631.12 33.38Z" fill="#DBD4FF"/>
<path d="M631.24 37.31L632.9 34.12C633.065 33.809 633.17 33.4698 633.21 33.12C633.237 32.8196 633.203 32.5168 633.11 32.23V32.13C633.001 31.8541 632.805 31.622 632.55 31.47C632.289 31.3404 631.987 31.3189 631.71 31.41L631.45 31.51L631.18 31.59L631.38 32.75L631.51 32.68L631.76 32.59C631.815 32.5655 631.875 32.5528 631.935 32.5528C631.995 32.5528 632.055 32.5655 632.11 32.59C632.218 32.6453 632.304 32.7375 632.35 32.85V32.92C632.369 33.0325 632.369 33.1475 632.35 33.26C632.344 33.4152 632.299 33.5663 632.22 33.7L630.01 37.94H630.08C630.309 37.9846 630.545 37.9481 630.75 37.8367C630.954 37.7254 631.114 37.5462 631.2 37.33L631.24 37.31Z" fill="#DBD4FF"/>
</g>
<g opacity="0.85">
<path d="M647.52 70.5H647.58C648.237 71.2938 648.707 72.2262 648.953 73.2272C649.199 74.2282 649.215 75.2719 649 76.28V76.36C648.687 78.2081 648.033 79.9818 647.07 81.59C646.224 83.0319 645.217 84.3737 644.07 85.59C643.466 86.2618 642.825 86.8995 642.15 87.5C641.58 88 640.99 88.5 640.4 88.92C639.046 89.933 637.588 90.7979 636.05 91.5C634.364 92.2808 632.559 92.7711 630.71 92.95C629.594 93.1155 628.455 93.0212 627.381 92.6743C626.307 92.3274 625.328 91.7373 624.52 90.95C624.516 90.9372 624.51 90.9252 624.501 90.9149C624.492 90.9046 624.482 90.8961 624.47 90.89L620.57 86.5L623.32 84.09C623.742 82.4645 624.417 80.9156 625.32 79.5C626.191 78.059 627.217 76.7177 628.38 75.5C628.9 74.97 629.44 74.5 630.01 73.94C630.58 73.38 631.39 72.8 632.12 72.28C633.492 71.299 634.968 70.4708 636.52 69.81C637.939 69.2024 639.437 68.7984 640.97 68.61L643.71 66.19L647.52 70.5Z" fill="#5200E3"/>
<path d="M643.62 66.16L647.62 70.52C648.262 71.3122 648.719 72.2377 648.958 73.229C649.196 74.2203 649.211 75.2524 649 76.25L641.55 67.99L643.62 66.16Z" fill="#5507D8"/>
<path d="M623 84.32L630.71 92.9C629.594 93.0655 628.455 92.9712 627.381 92.6243C626.307 92.2774 625.328 91.6873 624.52 90.9V90.84L620.53 86.5L623 84.32Z" fill="#6C21FF"/>
<path d="M625.22 79.5L636 91.5C634.317 92.2885 632.51 92.7823 630.66 92.96L623 84.35L623.31 84.08C623.722 82.4627 624.38 80.918 625.26 79.5H625.22Z" fill="#611AFF"/>
<path d="M628.28 75.5L640.38 88.95C639.014 89.9522 637.546 90.807 636 91.5L625.2 79.5C626.077 78.0602 627.106 76.7191 628.27 75.5H628.28Z" fill="#5D0FFF"/>
<path d="M632 72.25L644 85.64C643.4 86.28 642.76 86.9 642.08 87.51C641.4 88.12 640.92 88.51 640.32 88.92L628.28 75.5C628.8 74.97 629.34 74.5 629.91 73.94C630.48 73.38 631.29 72.8 632.01 72.28L632 72.25Z" fill="#5A11F7"/>
<path d="M636.44 69.78L647.06 81.59C646.214 83.0319 645.207 84.3737 644.06 85.59L632 72.24C633.375 71.2572 634.854 70.4288 636.41 69.77L636.44 69.78Z" fill="#5D17E3"/>
<path d="M641.5 68.03L649 76.36C648.684 78.2087 648.026 79.9823 647.06 81.59L636.43 69.78C637.845 69.1693 639.34 68.7619 640.87 68.57L641.5 68.03Z" fill="#550CE0"/>
<path d="M638.172 83.1806C644.521 77.5378 646.949 69.9047 643.596 66.1317C640.242 62.3586 632.377 63.8744 626.028 69.5172C619.679 75.16 617.251 82.793 620.604 86.5661C623.958 90.3391 631.823 88.8234 638.172 83.1806Z" fill="url(#paint17_linear_137_40842)"/>
<path d="M643.67 66.22C644.235 66.8162 644.662 67.5298 644.92 68.31C645.168 69.0927 645.292 69.9091 645.29 70.73C645.241 72.3759 644.871 73.9964 644.2 75.5C643.556 77.0118 642.719 78.4336 641.71 79.73C639.723 82.3558 637.227 84.5531 634.37 86.19C632.946 87.0439 631.421 87.7158 629.83 88.19C628.242 88.6601 626.58 88.8297 624.93 88.69C624.104 88.6012 623.297 88.3818 622.54 88.04C621.777 87.7006 621.096 87.2029 620.54 86.58C621.109 87.1649 621.789 87.6306 622.54 87.95C623.292 88.2605 624.089 88.4496 624.9 88.51C626.523 88.6121 628.152 88.4086 629.7 87.91C631.254 87.4135 632.747 86.7425 634.15 85.91C635.546 85.0857 636.859 84.1279 638.07 83.05C639.314 81.9843 640.446 80.7948 641.45 79.5C642.439 78.224 643.278 76.8382 643.95 75.37C644.628 73.9078 645.022 72.3296 645.11 70.72C645.147 69.9167 645.053 69.1127 644.83 68.34C644.77 68.15 644.71 67.96 644.63 67.77C644.553 67.5821 644.467 67.3984 644.37 67.22C644.175 66.8611 643.941 66.5256 643.67 66.22Z" fill="#8D68FF"/>
<path d="M637.14 81.96C634.567 84.3305 631.414 85.9794 628 86.74C624.33 87.4 622.61 86.19 621.91 85.41C621.21 84.63 620.19 82.78 621.29 79.27C622.534 75.9973 624.559 73.0784 627.189 70.7673C629.819 68.4562 632.975 66.823 636.38 66.01C640.06 65.34 641.78 66.55 642.47 67.34C643.16 68.13 644.19 69.95 643.1 73.48C641.903 76.7866 639.846 79.714 637.14 81.96Z" fill="url(#paint18_linear_137_40842)"/>
<path d="M628 86.74C627.039 86.975 626.048 87.066 625.06 87.01C624.038 86.9494 623.054 86.6029 622.22 86.01C621.814 85.6927 621.474 85.2985 621.22 84.85C620.952 84.4012 620.759 83.9113 620.65 83.4C620.443 82.4107 620.443 81.3893 620.65 80.4C621.045 78.4325 621.827 76.563 622.95 74.9C625.185 71.5693 628.249 68.8777 631.84 67.09C633.613 66.2083 635.537 65.6688 637.51 65.5C638.524 65.4316 639.543 65.5572 640.51 65.87C641.006 66.033 641.472 66.2762 641.89 66.59C642.293 66.9106 642.632 67.3041 642.89 67.75C643.38 68.6347 643.609 69.6403 643.55 70.65C643.514 71.6227 643.329 72.584 643 73.5C643.05 73.26 643.11 73.02 643.16 72.77C643.21 72.52 643.25 72.3 643.28 72.04C643.338 71.559 643.362 71.0744 643.35 70.59C643.336 69.6476 643.063 68.7273 642.56 67.93C642.024 67.1805 641.242 66.6426 640.35 66.41C639.445 66.1659 638.502 66.0947 637.57 66.2C635.67 66.4172 633.828 66.9905 632.14 67.89C628.725 69.6539 625.796 72.2293 623.61 75.39C622.52 76.9335 621.726 78.6663 621.27 80.5C621.059 81.4047 621.021 82.3414 621.16 83.26C621.297 84.1673 621.746 84.9985 622.43 85.61C623.173 86.1986 624.061 86.5753 625 86.7C625.486 86.7798 625.978 86.8099 626.47 86.79H627.21L628 86.74Z" fill="#5A11F7"/>
<path d="M631 71.95L631.09 71.89H631.18L631.32 71.83C631.433 71.7881 631.55 71.7612 631.67 71.75H631.92C632.092 71.7787 632.25 71.863 632.37 71.99L631.95 71.42C631.825 71.2873 631.66 71.1995 631.48 71.17H631.24C631.12 71.1775 631.001 71.2045 630.89 71.25L630.76 71.31H630.71H630.64L630.55 71.38L630.48 71.45L625.69 76.24L626.12 76.81L630.9 72.02L631 71.95Z" fill="#5D0FFF"/>
<path d="M635.12 74.8H635.64H635.7C635.933 74.79 636.164 74.8418 636.37 74.95C636.515 75.0286 636.641 75.1378 636.74 75.27L636.32 74.7C636.219 74.5674 636.093 74.4554 635.95 74.37C635.742 74.2668 635.511 74.2219 635.28 74.24H634.7H634.41L634.83 74.81L635.12 74.8Z" fill="#5D0FFF"/>
<path d="M631.4 79.03H631.47H631.68H631.74L631.99 78.96H632.06L632.26 78.88H632.32L632.57 78.76H632.62L632.75 78.68H632.81L632.91 78.62L633.06 78.5L633.16 78.42H633.21L633.37 78.27L633.52 78.11L633.6 78.03L633.68 77.91H633.73C633.772 77.8608 633.809 77.8071 633.84 77.75C633.872 77.7069 633.899 77.6599 633.92 77.61V77.53V77.4V77.27C633.925 77.2609 633.928 77.2506 633.928 77.24C633.928 77.2295 633.925 77.2191 633.92 77.21V77.12V76.88C633.93 76.8238 633.93 76.7662 633.92 76.71C633.93 76.6437 633.93 76.5763 633.92 76.51V76.24C633.93 76.1503 633.93 76.0597 633.92 75.97V72.04C633.93 71.9704 633.93 71.8997 633.92 71.83C633.911 71.7606 633.89 71.6931 633.86 71.63C633.831 71.5647 633.797 71.5012 633.76 71.44L633.7 71.34L633.28 70.77L633.34 70.88C633.379 70.9364 633.413 70.9967 633.44 71.06C633.44 71.12 633.49 71.19 633.5 71.25C633.509 71.3197 633.509 71.3903 633.5 71.46V75.1C633.51 75.1931 633.51 75.287 633.5 75.38V75.85V76.66V76.74V76.79V76.88V76.93L633.41 77.07C633.41 77.12 633.34 77.17 633.3 77.22L633.21 77.34L633.11 77.44V77.49L632.96 77.65L632.74 77.84L632.65 77.92L632.5 78.03C632.462 78.051 632.429 78.078 632.4 78.11L632.2 78.22L631.95 78.35H631.88L631.68 78.43H631.62L631.36 78.51H631.31H631.1H630.77C630.407 78.5413 630.042 78.486 629.705 78.3487C629.368 78.2114 629.068 77.9959 628.83 77.72L628.74 77.61L629.16 78.18L629.25 78.3C629.49 78.5702 629.789 78.7811 630.123 78.9165C630.458 79.0518 630.82 79.1078 631.18 79.08L631.4 79.03Z" fill="#5D0FFF"/>
<path d="M639.12 76.16V75.26C639.123 75.2167 639.123 75.1733 639.12 75.13V75.05L639.06 74.91V74.84L638.97 74.63L638.54 74.06C638.577 74.1246 638.611 74.1914 638.64 74.26V74.33C638.64 74.33 638.64 74.43 638.69 74.48V75.84L638.64 76.06V76.13V76.27V76.34C638.644 76.3656 638.641 76.3918 638.632 76.4162C638.624 76.4405 638.609 76.4625 638.59 76.48V76.56L638.52 76.69V76.76L638.44 76.9V76.96L638.31 77.13L638.16 77.32C638.102 77.3914 638.038 77.4583 637.97 77.52L632.97 82.38L632.87 82.46V82.51L632.79 82.57H632.7L632.56 82.65H632.5L632.32 82.72H632.15H631.91C631.645 82.7353 631.38 82.6849 631.14 82.5733C630.899 82.4616 630.689 82.2922 630.53 82.08L630.95 82.64C631.109 82.8545 631.317 83.0269 631.558 83.1419C631.798 83.257 632.064 83.3113 632.33 83.3H632.74L632.93 83.22L633.07 83.14L633.15 83.08V83.03H633.2L638.2 78.18C638.268 78.1183 638.332 78.0514 638.39 77.98L638.54 77.8L638.65 77.64V77.58L638.73 77.44V77.37V77.16V77.02V76.95V76.76C638.721 76.6831 638.739 76.6055 638.78 76.54C638.78 76.47 638.78 76.54 638.78 76.47V76.39C638.9 76.3235 639.014 76.2465 639.12 76.16Z" fill="#5D0FFF"/>
<path d="M625.65 76.27L626.08 76.84L626.01 76.75L625.59 76.18L625.65 76.27Z" fill="#E1CCB5"/>
<path d="M638.19 73.75L638.6 74.33C638.652 74.3926 638.699 74.4595 638.74 74.53L638.32 73.96L638.19 73.75Z" fill="#E8D2BB"/>
<path d="M638.32 73.96L638.74 74.53L638.8 74.63L638.38 74.06L638.32 73.96Z" fill="#FFE8CE"/>
<path d="M630.25 82.26L630.67 82.83L630.56 82.69L630.14 82.12L630.25 82.26Z" fill="#E1CCB5"/>
<path d="M633 77.5C633.343 77.2269 633.607 76.8666 633.764 76.4567C633.92 76.0469 633.964 75.6025 633.89 75.17C633.9 75.0769 633.9 74.9831 633.89 74.89V71.49C633.894 71.0473 633.726 70.6203 633.42 70.3C633.116 69.9906 632.712 69.7992 632.28 69.76H631.81C631.487 69.7833 631.17 69.8576 630.87 69.98C630.398 70.1633 629.972 70.4465 629.62 70.81L626 74.39C625.736 74.6096 625.556 74.9137 625.49 75.2509C625.425 75.588 625.478 75.9374 625.64 76.24L625.71 76.33L630.45 71.5C630.602 71.3403 630.786 71.2143 630.99 71.13C631.1 71.0913 631.214 71.0678 631.33 71.06H631.57C631.75 71.0895 631.915 71.1773 632.04 71.31C632.149 71.4485 632.2 71.6246 632.18 71.8L632.12 75.14V75.5C632.143 75.6584 632.128 75.8202 632.076 75.9716C632.024 76.123 631.936 76.2596 631.82 76.37C631.572 76.6146 631.247 76.7664 630.9 76.8C630.756 76.8143 630.61 76.7946 630.474 76.7426C630.339 76.6905 630.218 76.6074 630.12 76.5C630.017 76.397 629.941 76.2699 629.899 76.1303C629.857 75.9907 629.851 75.8428 629.88 75.7C629.92 75.3802 630.068 75.0838 630.3 74.86C630.416 74.7412 630.557 74.6491 630.712 74.5904C630.868 74.5317 631.034 74.5076 631.2 74.52H631.63L631.68 73H631.39C630.994 72.9898 630.601 73.068 630.24 73.2289C629.878 73.3897 629.557 73.6293 629.3 73.93C628.771 74.4474 628.421 75.12 628.3 75.85C628.24 76.1872 628.254 76.5332 628.34 76.8646C628.427 77.1959 628.583 77.5048 628.8 77.77C629.038 78.0447 629.338 78.2587 629.676 78.3943C630.013 78.53 630.378 78.5833 630.74 78.55C631.598 78.4957 632.405 78.121 633 77.5Z" fill="#DBD4FF"/>
<path d="M638.38 74.06C638.094 73.5336 637.65 73.1103 637.11 72.85C636.601 72.6009 636.035 72.4905 635.47 72.53H635.34H634.83H634.33L634.41 74.15H634.7H635.31C635.541 74.1413 635.771 74.1894 635.98 74.29C636.186 74.4103 636.352 74.5874 636.46 74.8C636.57 75.0325 636.6 75.2946 636.545 75.5458C636.491 75.797 636.356 76.0234 636.16 76.19L630.16 82.06L630.27 82.2C630.429 82.4133 630.638 82.5842 630.879 82.6976C631.119 82.8109 631.384 82.8633 631.65 82.85C632.076 82.8192 632.479 82.6426 632.79 82.35L637.79 77.49C638.277 77.0327 638.609 76.4349 638.74 75.78C638.839 75.1687 638.73 74.5417 638.43 74L638.38 74.06Z" fill="#DBD4FF"/>
</g>
<g opacity="0.75">
<path d="M604.32 70.29H604.39C606.182 69.6404 607.65 68.3163 608.48 66.6C609.169 65.2391 609.574 63.7523 609.67 62.23C609.758 60.9242 609.671 59.6125 609.41 58.33C609.159 57.0931 608.759 55.8911 608.22 54.75C607.667 53.5694 606.961 52.4666 606.12 51.47C605.181 50.2912 604.019 49.3091 602.7 48.58C601.813 48.0789 600.833 47.7653 599.819 47.6587C598.806 47.552 597.782 47.6546 596.81 47.96H596.73L592.44 49.42L592.34 52.42C591.833 53.6955 591.549 55.0485 591.5 56.42C591.451 57.7197 591.569 59.0202 591.85 60.29C592.139 61.516 592.561 62.7065 593.11 63.84C593.695 65.0145 594.431 66.1071 595.3 67.09C596.125 68.0201 597.09 68.8163 598.16 69.45L600.08 71.75L604.32 70.29Z" fill="#5200E3"/>
<path d="M592.2 52.14L602.7 48.58C601.813 48.0789 600.832 47.7653 599.819 47.6587C598.806 47.552 597.782 47.6546 596.81 47.96H596.73L592.44 49.42L592.2 52.14Z" fill="#5507D8"/>
<path d="M604.32 70.29H604.39C606.182 69.6404 607.65 68.3163 608.48 66.6L598.32 70.04L600 71.75L604.32 70.29Z" fill="#6C21FF"/>
<path d="M591.45 56.4L606.12 51.4C605.173 50.2502 604.012 49.2958 602.7 48.59L592.2 52.13L592.3 52.43C591.787 53.7037 591.503 55.0577 591.46 56.43L591.45 56.4Z" fill="#550CE0"/>
<path d="M591.8 60.27L608.22 54.68C607.667 53.4994 606.961 52.3966 606.12 51.4L591.46 56.4C591.41 57.7002 591.531 59.0014 591.82 60.27H591.8Z" fill="#5D17E3"/>
<path d="M593.06 63.84L609.41 58.28C609.159 57.0399 608.759 55.8346 608.22 54.69L591.8 60.29C591.93 60.85 592.09 61.4 592.27 61.95C592.492 62.5965 592.756 63.2279 593.06 63.84Z" fill="#5A11F7"/>
<path d="M595.25 67.09L609.67 62.17C609.759 60.8676 609.671 59.5591 609.41 58.28L593.06 63.84C593.641 65.0169 594.377 66.11 595.25 67.09Z" fill="#5D0FFF"/>
<path d="M598.32 70.04L608.49 66.58C609.178 65.215 609.582 63.7252 609.68 62.2L595.25 67.12C596.071 68.0605 597.036 68.8639 598.11 69.5L598.32 70.04Z" fill="#611AFF"/>
<path d="M599.983 71.7591C604.886 70.0862 607.156 63.7343 605.053 57.5717C602.95 51.4091 597.271 47.7695 592.368 49.4424C587.465 51.1153 585.195 57.4672 587.298 63.6298C589.401 69.7924 595.08 73.432 599.983 71.7591Z" fill="url(#paint19_linear_137_40842)"/>
<path d="M600 71.73C600.657 71.484 601.276 71.1474 601.84 70.73C602.402 70.3277 602.913 69.8575 603.36 69.33C604.237 68.2619 604.881 67.022 605.25 65.69C605.631 64.3618 605.789 62.9799 605.72 61.6C605.582 58.8299 604.667 56.1547 603.08 53.88C602.288 52.7601 601.319 51.7771 600.21 50.97C599.107 50.1302 597.834 49.5399 596.48 49.24C595.805 49.0868 595.112 49.0229 594.42 49.05C593.742 49.0844 593.07 49.2019 592.42 49.4C593.747 48.9426 595.172 48.8426 596.55 49.11C597.929 49.389 599.232 49.962 600.37 50.79C601.508 51.6157 602.495 52.6304 603.29 53.79C604.915 56.1067 605.854 58.8342 606 61.66C606.061 63.062 605.889 64.4644 605.49 65.81C605.082 67.1483 604.401 68.3877 603.49 69.45C602.554 70.511 601.348 71.2989 600 71.73Z" fill="#8D68FF"/>
<path d="M603.83 57.97C602.945 55.2568 601.141 52.937 598.73 51.41C597.874 50.7736 596.876 50.3549 595.822 50.1899C594.768 50.025 593.69 50.1187 592.68 50.4632C591.67 50.8076 590.76 51.3923 590.026 52.167C589.293 52.9417 588.759 53.883 588.47 54.91C587.553 57.6064 587.556 60.531 588.479 63.2255C589.401 65.92 591.192 68.2323 593.57 69.8C594.436 70.4149 595.431 70.8245 596.48 70.9977C597.528 71.171 598.602 71.1034 599.62 70.8C600.608 70.4177 601.499 69.82 602.227 69.0502C602.956 68.2804 603.503 67.358 603.83 66.35C604.81 63.6563 604.81 60.7037 603.83 58.01V57.97Z" fill="url(#paint20_linear_137_40842)"/>
<path d="M598.75 51.38C597.983 50.9367 597.158 50.6002 596.3 50.38C595.456 50.192 594.583 50.1682 593.73 50.31C593.303 50.3815 592.886 50.5057 592.49 50.68C592.099 50.8506 591.727 51.0618 591.38 51.31C590.69 51.8086 590.099 52.4329 589.64 53.15C589.177 53.8804 588.817 54.6712 588.57 55.5C588.327 56.311 588.173 57.1459 588.11 57.99C588.05 58.8475 588.08 59.7089 588.2 60.56C588.328 61.4227 588.542 62.2703 588.84 63.09C589.118 63.9245 589.473 64.7313 589.9 65.5C590.326 66.2111 590.819 66.8807 591.37 67.5C591.938 68.139 592.579 68.7095 593.28 69.2C593.98 69.6901 594.74 70.0899 595.54 70.39C596.346 70.6733 597.196 70.8056 598.05 70.78C598.475 70.7691 598.897 70.7121 599.31 70.61C599.723 70.4979 600.122 70.3403 600.5 70.14C601.267 69.7323 601.946 69.1785 602.5 68.51C603.048 67.8234 603.502 67.0667 603.85 66.26C603.57 67.1021 603.165 67.8976 602.65 68.62C601.861 69.7377 600.732 70.5693 599.43 70.99C598.994 71.1191 598.544 71.1996 598.09 71.23C597.176 71.2944 596.259 71.1789 595.39 70.89C593.66 70.2928 592.114 69.2595 590.9 67.89C589.69 66.5371 588.764 64.9546 588.179 63.2366C587.593 61.5187 587.359 59.7004 587.49 57.89C587.621 56.0684 588.22 54.3116 589.23 52.79C589.742 52.0364 590.394 51.388 591.15 50.88C591.531 50.6263 591.94 50.4182 592.37 50.26C592.796 50.101 593.239 49.9903 593.69 49.93C594.586 49.8272 595.493 49.9019 596.36 50.15C597.213 50.4249 598.021 50.8224 598.76 51.33L598.75 51.38Z" fill="#5A11F7"/>
<path d="M591.54 60.8301V60.6901V60.4001C591.53 60.2836 591.53 60.1665 591.54 60.0501L591.62 59.8201C591.707 59.6738 591.841 59.5611 592 59.5001L591.34 59.7401C591.186 59.8169 591.062 59.9439 590.99 60.1001C590.959 60.1785 590.932 60.2586 590.91 60.3401C590.889 60.4558 590.889 60.5743 590.91 60.6901V60.9601C590.9 60.9926 590.9 61.0275 590.91 61.0601C590.907 61.09 590.907 61.1202 590.91 61.1501L594.23 66.9301L594.89 66.6801L591.58 60.9001C591.566 60.8774 591.552 60.854 591.54 60.8301Z" fill="#5D0FFF"/>
<path d="M595.4 62.6301H595.15L595 62.5001L594.88 62.3901L594.78 62.2601L594.71 62.1501C594.71 62.1501 594.71 62.0701 594.71 62.0401C594.706 62.0035 594.706 61.9666 594.71 61.9301V61.8401V61.8001C594.7 61.7675 594.7 61.7326 594.71 61.7001V61.6101V61.5001V61.3801C594.71 61.3801 594.71 61.1701 594.78 61.0401C594.85 60.9101 594.78 60.9601 594.78 60.9401L593.25 60.5001L592.6 60.7401L594.05 61.1801V61.2801L593.98 61.6301V61.7401V61.8201V61.9201V62.0101V62.0901V62.1801V62.2801V62.3601L594.04 62.4601L594.14 62.6001L594.26 62.7101L594.39 62.8101H594.59L594.77 62.8701H595.43L596.08 62.6301H595.53H595.35H595.4Z" fill="#5D0FFF"/>
<path d="M595.35 57.68L595.45 57.17V57.11C595.494 56.8875 595.602 56.6825 595.76 56.52C595.87 56.4023 596.008 56.3131 596.16 56.26L595.51 56.5C595.353 56.5488 595.211 56.6386 595.1 56.76C594.943 56.9275 594.836 57.1352 594.79 57.36V57.42L594.69 57.92V58.2L595.35 57.96V57.68Z" fill="#5D0FFF"/>
<path d="M598.41 62.3V61.35C598.428 61.261 598.428 61.1691 598.41 61.08V60.92V60.86V60.74L598.35 60.58L598.29 60.46V60.4L598.19 60.22L598.08 60.03V59.97L598.02 59.88L597.93 59.76L597.81 59.61L597.71 59.5L597.64 59.44L597.57 59.38H597.49H597.41C597.38 59.3728 597.35 59.3728 597.32 59.38C597.271 59.3498 597.217 59.3294 597.16 59.32H597L596.8 59.26H596.75L596.55 59.21L596.28 59.15L592.89 57.98H592.66H591.5L590.85 58.22H591L591.2 58.17H591.69L591.91 58.22L595.16 59.12L595.43 59.19H595.63H595.83L595.99 59.24L596.15 59.31H596.2H596.29H596.37H596.44L596.51 59.36L596.58 59.43L596.68 59.55L596.8 59.7V59.75L596.89 59.87L596.96 59.98C596.957 59.9999 596.957 60.0201 596.96 60.04L597.07 60.23L597.2 60.48C597.196 60.5166 597.196 60.5535 597.2 60.59V60.98V61.1L597.26 61.31V61.36C597.253 61.454 597.274 61.5479 597.32 61.63C597.32 61.72 597.32 61.63 597.32 61.69V62.5C597.315 62.5111 597.313 62.523 597.313 62.535C597.313 62.5471 597.315 62.559 597.32 62.57L597.27 62.82C597.2 63.1695 597.05 63.4979 596.832 63.7791C596.613 64.0603 596.332 64.2866 596.01 64.44H595.88L596.53 64.2L596.67 64.14C597.076 64.047 597.448 63.8451 597.748 63.5561C598.047 63.2672 598.262 62.9021 598.37 62.5C598.39 62.4349 598.403 62.3679 598.41 62.3Z" fill="#5D0FFF"/>
<path d="M597.69 54.26H596.15L595.49 54.5H595.72H596.92H597.03H597.13L597.27 54.55L597.46 54.66H597.52L597.65 54.74H597.71L597.83 54.82L597.89 54.88L598 54.98L598.06 55.04L598.17 55.15L598.31 55.31L598.45 55.51L598.6 55.74L601.93 61.74V61.85V61.91V62V62.1V62.26C601.94 62.3263 601.94 62.3937 601.93 62.46V62.7C601.94 62.763 601.94 62.8271 601.93 62.89C601.872 63.1476 601.751 63.3863 601.576 63.584C601.401 63.7816 601.179 63.9316 600.93 64.02L601.59 63.78C601.838 63.69 602.059 63.5395 602.234 63.3421C602.408 63.1447 602.531 62.9068 602.59 62.65V61.97V61.8C602.585 61.7909 602.582 61.7805 602.582 61.77C602.582 61.7595 602.585 61.7491 602.59 61.74V61.65V61.49L599.25 55.49L599.1 55.25L598.97 55.06L598.85 54.92V54.87L598.74 54.75L598.68 54.7V54.64L598.61 54.59L598.49 54.5H598.44L598.33 54.43H598.27L598.07 54.33H597.93L597.69 54.26Z" fill="#5D0FFF"/>
<path d="M594.18 67.02L594.84 66.78L594.18 67.03" fill="#E6D1B9"/>
<path d="M594.27 66.98L594.93 66.7401H594.84L594.18 66.98H594.27Z" fill="#E1CCB5"/>
<path d="M595.15 54.5001L595.81 54.2501L596.04 54.1801L595.38 54.4201L595.15 54.5001Z" fill="#E8D2BB"/>
<path d="M595.4 54.43L596.06 54.19H596.17L595.51 54.43H595.4Z" fill="#FFE8CE"/>
<path d="M601.19 64.23L601.85 63.9901L601.69 64.05L601.03 64.2901L601.19 64.23Z" fill="#E1CCB5"/>
<path d="M597.31 60.42C597.137 60.0203 596.861 59.6742 596.509 59.4174C596.157 59.1607 595.743 59.0028 595.31 58.96L595.04 58.89L591.79 58.01C591.37 57.8884 590.92 57.9313 590.53 58.13C590.158 58.3426 589.871 58.6786 589.72 59.08C589.654 59.2044 589.6 59.3351 589.56 59.47C589.493 59.8 589.493 60.14 589.56 60.47C589.611 60.9657 589.772 61.4438 590.03 61.87L592.51 66.24C592.648 66.5503 592.892 66.8017 593.197 66.95C593.503 67.0982 593.851 67.1336 594.18 67.05H594.28L591 61.23C590.892 61.0454 590.821 60.8417 590.79 60.63C590.78 60.5136 590.78 60.3964 590.79 60.28C590.814 60.2011 590.844 60.1242 590.88 60.05C590.946 59.8871 591.071 59.755 591.23 59.68C591.311 59.6456 591.397 59.6279 591.485 59.6279C591.573 59.6279 591.659 59.6456 591.74 59.68L594.9 60.62L595.19 60.7C595.345 60.725 595.491 60.7859 595.618 60.878C595.745 60.9701 595.848 61.0906 595.92 61.23C596.098 61.531 596.158 61.8871 596.09 62.23C596.061 62.3703 596.002 62.5027 595.918 62.6182C595.833 62.7338 595.725 62.8299 595.6 62.9C595.471 62.9643 595.329 62.9977 595.185 62.9977C595.041 62.9977 594.899 62.9643 594.77 62.9C594.459 62.7895 594.199 62.5689 594.04 62.28C593.957 62.1396 593.906 61.9825 593.89 61.8201C593.875 61.6576 593.895 61.4937 593.95 61.34L594.03 61V60.9L592.57 60.46L592.52 60.74C592.412 61.1081 592.387 61.4957 592.448 61.8745C592.508 62.2534 592.653 62.614 592.87 62.93C593.221 63.5718 593.772 64.081 594.44 64.38C594.754 64.5245 595.095 64.5993 595.44 64.5993C595.785 64.5993 596.126 64.5245 596.44 64.38C596.76 64.2276 597.041 64.0028 597.26 63.7234C597.478 63.444 597.629 63.1176 597.7 62.77C597.872 61.9832 597.759 61.1608 597.38 60.45L597.31 60.42Z" fill="#DBD4FF"/>
<path d="M595.49 54.37C594.927 54.5127 594.419 54.819 594.03 55.25C593.67 55.6693 593.42 56.1708 593.3 56.71V56.83L593.22 57.33L593.14 57.82L594.71 58.17V57.89L594.81 57.39V57.33C594.858 57.1059 594.965 56.8987 595.12 56.73C595.289 56.5623 595.505 56.4506 595.74 56.41C595.993 56.3602 596.255 56.3973 596.483 56.5153C596.712 56.6334 596.894 56.8253 597 57.06L601.06 64.27L601.22 64.2C601.464 64.1161 601.684 63.9724 601.858 63.782C602.033 63.5917 602.157 63.3607 602.22 63.11C602.303 62.7002 602.235 62.2742 602.03 61.91L598.69 55.96C598.379 55.382 597.897 54.9141 597.31 54.62C596.76 54.3433 596.135 54.2555 595.53 54.37H595.49Z" fill="#DBD4FF"/>
</g>
<path d="M142.72 96.5H154.12V72.5L164.8 88.82H165.04L175.78 72.38V96.5H187.36V54.5H175.06L165.04 70.76L155.02 54.5H142.72V96.5Z" fill="white"/>
<path d="M194.81 96.5H210.77C225.89 96.5 234.71 87.5 234.71 75.38V75.26C234.71 63.14 226.01 54.5 211.01 54.5H194.81V96.5ZM206.45 86.18V64.82H211.19C218.15 64.82 222.77 68.72 222.77 75.44V75.56C222.77 82.34 218.15 86.18 211.19 86.18H206.45Z" fill="white"/>
<path d="M240.689 96.5H274.769V86.6H252.209V79.94H272.369V70.76H252.209V64.4H274.469V54.5H240.689V96.5Z" fill="white"/>
<path d="M277.648 96.5H290.728L298.828 83.84L306.868 96.5H320.248L305.848 75.02L319.648 54.5H306.568L299.068 66.32L291.628 54.5H278.248L292.048 75.14L277.648 96.5Z" fill="white"/>
<defs>
<linearGradient id="paint0_linear_137_40842" x1="846.918" y1="214.881" x2="846.918" y2="2.54389" gradientUnits="userSpaceOnUse">
<stop stop-color="#1D1254"/>
<stop offset="1" stop-color="#2F1499"/>
</linearGradient>
<linearGradient id="paint1_linear_137_40842" x1="529.727" y1="85.172" x2="529.727" y2="23.5" gradientUnits="userSpaceOnUse">
<stop stop-color="#2D1886"/>
<stop offset="1" stop-color="#4724AA"/>
</linearGradient>
<linearGradient id="paint2_linear_137_40842" x1="437.175" y1="150.962" x2="599.825" y2="150.962" gradientUnits="userSpaceOnUse">
<stop stop-color="#FF914F"/>
<stop offset="0.440184" stop-color="#FF773A" stop-opacity="0.205372"/>
<stop offset="1" stop-color="#FF6930" stop-opacity="0.01"/>
</linearGradient>
<linearGradient id="paint3_linear_137_40842" x1="486.895" y1="216.185" x2="539.105" y2="216.185" gradientUnits="userSpaceOnUse">
<stop stop-color="#35FFE3"/>
<stop offset="1" stop-color="#35FFE3" stop-opacity="0.01"/>
</linearGradient>
<linearGradient id="paint4_linear_137_40842" x1="455.269" y1="215.822" x2="534.731" y2="215.822" gradientUnits="userSpaceOnUse">
<stop stop-color="#FF914F"/>
<stop offset="0.27" stop-color="#FF914F" stop-opacity="0.99"/>
<stop offset="0.4" stop-color="#FF8F4E" stop-opacity="0.96"/>
<stop offset="0.51" stop-color="#FF8D4C" stop-opacity="0.91"/>
<stop offset="0.6" stop-color="#FF8A4A" stop-opacity="0.83"/>
<stop offset="0.69" stop-color="#FF8647" stop-opacity="0.74"/>
<stop offset="0.76" stop-color="#FF8243" stop-opacity="0.62"/>
<stop offset="0.83" stop-color="#FF7C3F" stop-opacity="0.48"/>
<stop offset="0.9" stop-color="#FF753A" stop-opacity="0.31"/>
<stop offset="0.96" stop-color="#FF6E34" stop-opacity="0.13"/>
<stop offset="1" stop-color="#FF6930" stop-opacity="0.01"/>
</linearGradient>
<linearGradient id="paint5_linear_137_40842" x1="694.917" y1="216.256" x2="740.083" y2="216.256" gradientUnits="userSpaceOnUse">
<stop stop-color="#35FFE3" stop-opacity="0.01"/>
<stop offset="1" stop-color="#35FFE3"/>
</linearGradient>
<linearGradient id="paint6_linear_137_40842" x1="696.269" y1="215.807" x2="778.731" y2="215.807" gradientUnits="userSpaceOnUse">
<stop stop-color="#FF6930" stop-opacity="0.01"/>
<stop offset="0.04" stop-color="#FF6E34" stop-opacity="0.13"/>
<stop offset="0.1" stop-color="#FF753A" stop-opacity="0.31"/>
<stop offset="0.17" stop-color="#FF7C3F" stop-opacity="0.48"/>
<stop offset="0.24" stop-color="#FF8243" stop-opacity="0.62"/>
<stop offset="0.31" stop-color="#FF8647" stop-opacity="0.74"/>
<stop offset="0.4" stop-color="#FF8A4A" stop-opacity="0.83"/>
<stop offset="0.49" stop-color="#FF8D4C" stop-opacity="0.91"/>
<stop offset="0.6" stop-color="#FF8F4E" stop-opacity="0.96"/>
<stop offset="0.73" stop-color="#FF914F" stop-opacity="0.99"/>
<stop offset="1" stop-color="#FF914F"/>
</linearGradient>
<linearGradient id="paint7_linear_137_40842" x1="641.177" y1="95.9687" x2="788.823" y2="95.9687" gradientUnits="userSpaceOnUse">
<stop stop-color="#2BCBB4" stop-opacity="0.01"/>
<stop offset="0.756255" stop-color="#2BCBB4" stop-opacity="0.5"/>
<stop offset="1" stop-color="#2BCBB4"/>
</linearGradient>
<linearGradient id="paint8_linear_137_40842" x1="536" y1="185.24" x2="696.45" y2="185.24" gradientUnits="userSpaceOnUse">
<stop stop-color="#5717FF"/>
<stop offset="0.99" stop-color="#4C0FB9"/>
</linearGradient>
<linearGradient id="paint9_linear_137_40842" x1="536" y1="185.24" x2="696.45" y2="185.24" gradientUnits="userSpaceOnUse">
<stop stop-color="#5717FF"/>
<stop offset="0.99" stop-color="#4C0FB9"/>
</linearGradient>
<linearGradient id="paint10_linear_137_40842" x1="613.5" y1="170.5" x2="613.5" y2="4.5" gradientUnits="userSpaceOnUse">
<stop stop-color="#000DFF" stop-opacity="0.2"/>
<stop offset="1" stop-color="white" stop-opacity="0.01"/>
</linearGradient>
<linearGradient id="paint11_linear_137_40842" x1="622.568" y1="140.536" x2="651.884" y2="129.35" gradientUnits="userSpaceOnUse">
<stop stop-color="#764AFF"/>
<stop offset="1" stop-color="#6314FF"/>
</linearGradient>
<linearGradient id="paint12_linear_137_40842" x1="656.97" y1="138.53" x2="627.01" y2="133.23" gradientUnits="userSpaceOnUse">
<stop stop-color="#620CFF"/>
<stop offset="1" stop-color="#652DFF"/>
</linearGradient>
<linearGradient id="paint13_linear_137_40842" x1="602.015" y1="92.1456" x2="591.251" y2="123.69" gradientUnits="userSpaceOnUse">
<stop stop-color="#764AFF"/>
<stop offset="1" stop-color="#6314FF"/>
</linearGradient>
<linearGradient id="paint14_linear_137_40842" x1="602.44" y1="96.88" x2="590.69" y2="119.44" gradientUnits="userSpaceOnUse">
<stop stop-color="#652DFF"/>
<stop offset="1" stop-color="#620CFF"/>
</linearGradient>
<linearGradient id="paint15_linear_137_40842" x1="631.482" y1="25.6395" x2="626.177" y2="41.1893" gradientUnits="userSpaceOnUse">
<stop stop-color="#764AFF"/>
<stop offset="1" stop-color="#6314FF"/>
</linearGradient>
<linearGradient id="paint16_linear_137_40842" x1="631.74" y1="28.01" x2="625.87" y2="39.06" gradientUnits="userSpaceOnUse">
<stop stop-color="#652DFF"/>
<stop offset="1" stop-color="#620CFF"/>
</linearGradient>
<linearGradient id="paint17_linear_137_40842" x1="626.4" y1="72.8257" x2="639.688" y2="81.0173" gradientUnits="userSpaceOnUse">
<stop stop-color="#6314FF"/>
<stop offset="1" stop-color="#764AFF"/>
</linearGradient>
<linearGradient id="paint18_linear_137_40842" x1="619.34" y1="76.76" x2="640.97" y2="76.1" gradientUnits="userSpaceOnUse">
<stop stop-color="#620CFF"/>
<stop offset="1" stop-color="#652DFF"/>
</linearGradient>
<linearGradient id="paint19_linear_137_40842" x1="592.368" y1="49.4424" x2="599.983" y2="71.7591" gradientUnits="userSpaceOnUse">
<stop stop-color="#764AFF"/>
<stop offset="1" stop-color="#6314FF"/>
</linearGradient>
<linearGradient id="paint20_linear_137_40842" x1="592.1" y1="52.75" x2="600.38" y2="68.73" gradientUnits="userSpaceOnUse">
<stop stop-color="#652DFF"/>
<stop offset="1" stop-color="#620CFF"/>
</linearGradient>
</defs>
</svg>
