<?xml version="1.0" encoding="UTF-8"?>
<svg width="24px" height="24px" viewBox="0 0 24 24" version="1.1" xmlns="http://www.w3.org/2000/svg" xmlns:xlink="http://www.w3.org/1999/xlink">
    <title>申请邀请计划</title>
    <g id="组件/弹窗/导航" stroke="none" stroke-width="1" fill="none" fill-rule="evenodd">
        <g id="H5更多-Light" transform="translate(-32.000000, -562.000000)">
            <g id="编组-4" transform="translate(16.000000, 348.000000)">
                <g id="编组-17备份-8" transform="translate(16.000000, 202.000000)">
                    <g id="申请邀请计划" transform="translate(0.000000, 12.000000)">
                        <g id="编组" transform="translate(2.833407, 1.000000)">
                            <path d="M12.5078675,10.583829 C14.040631,9.52318249 15.046305,7.78993094 15.046305,5.82062088 C15.046305,2.603111 12.3882214,0 9.09310328,0 C5.80121881,0 3.13990159,2.603111 3.13990159,5.80445248 C3.13990159,7.78993094 4.16174393,9.55228559 5.71067581,10.5967637 C2.59987732,12.0228158 0,15.7253774 0,18.3414231 C0,23.2048752 18.3349587,23.2048752 18.3349587,18.4287324 C18.3381894,15.3729065 15.6639375,11.9646096 12.5078675,10.583829 Z" id="路径" stroke="#90979E" stroke-width="2"></path>
                            <path d="M7.80227758,7.2546987 L10.5432609,7.2546987 C10.6455627,7.2546987 10.7337539,7.34288992 10.723171,7.44519174 C10.6279244,8.21774688 9.97178172,8.81744721 9.17453304,8.81744721 C8.37728437,8.81744721 7.717614,8.21774688 7.62589513,7.44519174 C7.60825688,7.34288992 7.69997576,7.2546987 7.80227758,7.2546987 L7.80227758,7.2546987 Z" id="路径" fill="#90979E"></path>
                            <line x1="6.66659279" y1="16.1603371" x2="11.6665928" y2="16.1603371" id="直线-11" stroke="#90979E" stroke-width="2" stroke-linecap="round"></line>
                            <line x1="6.66659279" y1="16.1603371" x2="11.6665928" y2="16.1603371" id="直线-11" stroke="#90979E" stroke-width="2" stroke-linecap="round" transform="translate(9.166593, 16.160337) rotate(90.000000) translate(-9.166593, -16.160337) "></line>
                        </g>
                    </g>
                </g>
            </g>
        </g>
    </g>
</svg>