<?xml version="1.0" encoding="UTF-8"?>
<svg width="24px" height="25px" viewBox="0 0 24 25" version="1.1" xmlns="http://www.w3.org/2000/svg" xmlns:xlink="http://www.w3.org/1999/xlink">
    <title>邀请返佣</title>
    <g id="组件/弹窗/导航" stroke="none" stroke-width="1" fill="none" fill-rule="evenodd">
        <g id="弹窗" transform="translate(-311.000000, -530.000000)">
            <g id="编组-10" transform="translate(281.000000, 306.000000)">
                <g id="编组-8备份-4" transform="translate(0.000000, 212.000000)">
                    <g id="编组-7" transform="translate(30.000000, 8.000000)">
                        <g id="邀请返佣" transform="translate(0.000000, 4.500000)">
                            <rect id="矩形备份-2" x="0" y="0" width="24" height="24"></rect>
                            <g id="编组-13" transform="translate(0.450000, 0.865605)" stroke="#90979E" stroke-width="2">
                                <rect id="矩形" x="1" y="6.35031847" width="20.9299363" height="5.88216561" rx="2.9410828"></rect>
                                <path d="M19.4551771,12.1893782 L19.4551771,19.1893782 C19.4551771,20.2939477 18.5597466,21.1893782 17.4551771,21.1893782 L5.2125803,21.1893782 C4.1080108,21.1893782 3.2125803,20.2939477 3.2125803,19.1893782 L3.2125803,12.1893782 L3.2125803,12.1893782" id="路径"></path>
                                <g id="编组-11" transform="translate(5.020701, 0.000000)">
                                    <path d="M9,1 C9.75939153,1 10.4468915,1.30780423 10.9445436,1.80545635 C11.4421958,2.30310847 11.75,2.99060847 11.75,3.75 C11.75,4.50939153 11.4421958,5.19689153 10.9445436,5.69454365 C10.4468915,6.19219577 9.75939153,6.5 9,6.5 L9,6.5 L6.25,6.5 L6.25,3.75 C6.25,2.99060847 6.55780423,2.30310847 7.05545635,1.80545635 C7.55310847,1.30780423 8.24060847,1 9,1 Z" id="矩形"></path>
                                    <path d="M3.75,1 C4.50939153,1 5.19689153,1.30780423 5.69454365,1.80545635 C6.19219577,2.30310847 6.5,2.99060847 6.5,3.75 C6.5,4.50939153 6.19219577,5.19689153 5.69454365,5.69454365 C5.19689153,6.19219577 4.50939153,6.5 3.75,6.5 L3.75,6.5 L1,6.5 L1,3.75 C1,2.99060847 1.30780423,2.30310847 1.80545635,1.80545635 C2.30310847,1.30780423 2.99060847,1 3.75,1 Z" id="矩形备份" transform="translate(3.750000, 3.750000) scale(-1, 1) translate(-3.750000, -3.750000) "></path>
                                </g>
                                <line x1="11.4649682" y1="5.85902919" x2="11.4649682" y2="21.3343949" id="直线-4"></line>
                            </g>
                        </g>
                    </g>
                </g>
            </g>
        </g>
    </g>
</svg>