<?xml version="1.0" encoding="UTF-8"?>
<svg width="172px" height="43px" viewBox="0 0 172 43" version="1.1" xmlns="http://www.w3.org/2000/svg" xmlns:xlink="http://www.w3.org/1999/xlink">
    <title>iToken</title>
    <g id="组件/弹窗/导航" stroke="none" stroke-width="1" fill="none" fill-rule="evenodd">
        <g id="合作伙伴" transform="translate(-3051.000000, -1497.000000)">
            <g id="编组-2备份-4" transform="translate(1920.000000, 903.000000)">
                <g id="编组-8" transform="translate(360.000000, 100.000000)">
                    <g id="编组-7" transform="translate(0.000000, 411.000000)">
                        <g id="iToken" transform="translate(771.000000, 83.000000)">
                            <rect id="矩形" x="0" y="0" width="172" height="43"></rect>
                            <g id="colour_01" transform="translate(0.000000, 5.000000)">
                                <path d="M20.6097493,20.032881 L11.402624,20.032881 C10.4310613,20.033408 9.49943467,20.4241707 8.81243733,21.1193173 C8.12544,21.8144 7.739264,22.75712 7.738752,23.74016 L7.738752,28.2830933 C7.739264,29.2661333 8.12544,30.2088533 8.81243733,30.9038933 C9.49943467,31.5991467 10.4310613,31.9899733 11.402624,31.9904 L18.1038933,31.9904 C18.104832,31.5982933 17.997888,31.2136533 17.7950507,30.87936 C17.5922133,30.54528 17.3014827,30.2747733 16.9553707,30.0983467 L17.9045547,28.2062933 C18.597248,28.5610667 19.1788373,29.1037867 19.584448,29.7736533 C19.9900587,30.44352 20.203712,31.2142933 20.2016,32 L20.600256,32 C21.57184,31.9995733 22.5034667,31.6087467 23.1904,30.9134933 C23.8775467,30.2184533 24.26368,29.2757333 24.2641242,28.2926933 L24.2641242,23.73056 C24.2656,23.2445867 24.1719467,22.7630933 23.9886933,22.3138133 C23.8056533,21.8647467 23.5364267,21.4564267 23.1968,21.112832 C22.8571733,20.7691947 22.45376,20.4968747 22.0098133,20.3115307 C21.5658667,20.126208 21.0900267,20.0315093 20.6097493,20.032881 Z M11.5450027,26.40064 C11.3193813,26.40064 11.0959787,26.3556267 10.887552,26.2683733 C10.679104,26.1809067 10.4897067,26.0529067 10.330176,25.8914133 C10.1706453,25.7301333 10.044096,25.5383467 9.95776,25.3275733 C9.87140267,25.1165867 9.82696533,24.8904533 9.82696533,24.6621867 C9.82696533,24.43392 9.87140267,24.2077867 9.95776,23.9970133 C10.044096,23.7860267 10.1706453,23.5944533 10.330176,23.43296 C10.4897067,23.27168 10.679104,23.1434667 10.887552,23.0562133 C11.0959787,22.9687467 11.3193813,22.9237333 11.5450027,22.9237333 C11.770624,22.9237333 11.9940267,22.9687467 12.2024747,23.0562133 C12.4109013,23.1434667 12.6002987,23.27168 12.7598293,23.43296 C12.91936,23.5944533 13.0459093,23.7860267 13.1322667,23.9970133 C13.2186027,24.2077867 13.26304,24.43392 13.26304,24.6621867 C13.2617813,25.1229867 13.0798293,25.5643733 12.7571627,25.88928 C12.4344747,26.2144 11.9974827,26.3965867 11.5421653,26.3957333 L11.5450027,26.40064 Z M20.4673707,26.40064 C20.2417493,26.40064 20.0183467,26.3556267 19.8098987,26.2683733 C19.601472,26.1809067 19.4120747,26.0529067 19.252544,25.8914133 C19.0930133,25.7301333 18.966464,25.5383467 18.8801067,25.3275733 C18.7937707,25.1165867 18.7493333,24.8904533 18.7493333,24.6621867 C18.7493333,24.43392 18.7937707,24.2077867 18.8801067,23.9970133 C18.966464,23.7860267 19.0930133,23.5944533 19.252544,23.43296 C19.4120747,23.27168 19.601472,23.1434667 19.8098987,23.0562133 C20.0183467,22.9687467 20.2417493,22.9237333 20.4673707,22.9237333 C20.692992,22.9237333 20.9163947,22.9687467 21.1248213,23.0562133 C21.3332693,23.1434667 21.52256,23.27168 21.6821333,23.43296 C21.8417067,23.5944533 21.9682133,23.7860267 22.0546133,23.9970133 C22.1410133,24.2077867 22.1853867,24.43392 22.1853867,24.6621867 C22.1841067,25.1229867 22.0021333,25.5643733 21.6795733,25.88928 C21.3568,26.2144 20.9198507,26.3965867 20.464512,26.3957333 L20.4673707,26.40064 Z" id="形状" fill="#1FB75C"></path>
                                <path d="M32.0000175,20.8473813 C32.0000175,21.90272 31.8999467,22.9572267 31.6981333,23.9927467 C31.6981333,25.8875733 29.7376,28.23808 28.4264533,29.3954133 C26.81792,30.8151467 24.8192,31.70368 22.6980267,31.9424 C26.1162667,30.8334933 28.6645333,27.5357867 28.6645333,23.7642667 C28.6656,22.48832 28.3842133,21.2282667 27.84064,20.076928 C27.2970667,18.9255893 26.5053867,17.912192 25.5236267,17.1112533 C25.6836267,17.3208107 25.77024,17.578304 25.7696,17.8431147 C25.77024,18.1478187 25.6558933,18.4412587 25.4496,18.6633387 C25.3386667,18.784576 25.2042667,18.8813013 25.05472,18.9474133 C24.90496,19.0135467 24.7434667,19.047616 24.5802667,19.0475093 C24.4241067,19.0476373 24.26944,19.0166187 24.1250133,18.9562453 C23.9808,18.895872 23.8498133,18.8073173 23.7393067,18.6956587 C23.6288,18.5839787 23.54112,18.4513707 23.4813867,18.3054293 C23.4216533,18.1594667 23.3909333,18.0030293 23.3909333,17.8450347 C23.3909333,17.8104533 23.3909333,17.7749333 23.3956267,17.741312 L23.3719467,17.734592 C23.3312,17.040192 23.2066133,16.353472 23.0007467,15.6898133 C22.9457067,15.513728 22.8855467,15.3408427 22.82048,15.1711787 C22.1659733,13.4636373 20.9885013,12.0129707 19.4602667,11.03168 C18.107584,10.1616 16.5373867,9.70075733 14.9345493,9.70338133 C14.6326827,9.70318933 14.3310293,9.71953067 14.030912,9.75236267 C14.537472,10.016768 14.9858347,10.3822507 15.3489707,10.8267947 C15.7121067,11.2713173 15.9825067,11.7856853 16.143808,12.3388373 C16.1637333,12.4060587 16.1808213,12.4733013 16.1969707,12.5414827 C16.598016,14.2223573 15.9277013,16.0283307 14.5347627,17.0253867 C12.847552,18.2330667 10.4461867,17.9939413 9.024704,16.459648 C8.607168,16.0089813 8.29117867,15.472064 8.098496,14.8859307 C7.69582933,15.0587947 7.30624,15.2613547 6.93288533,15.491968 C5.261184,16.5259307 3.97230933,18.0879573 3.26523733,19.9368747 C2.872256,20.9666773 2.67050667,22.0610133 2.67008,23.1650133 C2.66653867,27.2896 5.561792,31.584 9.81367467,31.9837867 C7.50728533,31.8357333 5.31400533,30.9201067 3.57553067,29.3794133 C1.10118187,27.18656 0,24.10112 0,20.8473813 C-0.00363863466,18.6538667 0.4368256,16.456256 1.29756373,14.4421973 C2.66702933,11.2366933 5.020032,8.562496 8.00832,6.81533867 C7.63029333,7.05800533 7.31899733,7.39336533 7.10327467,7.79029333 C6.887552,8.1872 6.77442133,8.632832 6.77437867,9.085824 C6.77418667,9.48708267 6.86276267,9.88328533 7.03355733,10.2454187 C7.20437333,10.607552 7.45309867,10.9264 7.761536,11.178624 C7.945984,11.3314773 8.15042133,11.4578347 8.36900267,11.5541547 C8.69813333,11.7006933 9.05352533,11.7771947 9.41312,11.7789013 L9.44064,11.7789013 C9.81909333,11.7789867 10.193216,11.6973013 10.5379627,11.5392853 C10.8827093,11.3812693 11.1901227,11.1505707 11.4396373,10.8626347 C11.5877547,10.6929707 11.7137493,10.5047893 11.8145707,10.3026987 C11.845888,10.2892587 11.8772053,10.2767573 11.9094827,10.2652373 C12.087744,9.94871467 12.2462507,9.62120533 12.384064,9.28462933 C12.838464,8.180224 13.071424,6.99547733 13.0693973,5.79918933 C13.0693973,5.50722133 13.0557867,5.219072 13.0285653,4.934784 C12.8606293,3.12893867 12.1598293,1.41591893 11.0172373,0.0182943359 C11.233664,0.00548846927 11.451968,-0.000594560062 11.672192,0 C13.6770133,-0.00140275633 15.648192,0.5215232 17.394432,1.51808 C19.140672,2.51464533 20.602688,3.95099733 21.6386133,5.68778667 C22.59776,7.288128 23.16352,9.097984 23.28832,10.9653973 L23.3301333,10.9721173 C23.45536,12.080576 24.4106667,12.9429333 25.5131733,12.9429547 C27.42848,12.9487573 28.4149333,10.514816 27.0641067,9.14632533 C28.6272,10.6568747 29.8705067,12.472896 30.7189333,14.4842667 C31.56736,16.4956587 32.0032,18.6604587 32.0000175,20.8473813 Z" id="路径" fill="#1FB75C" fill-rule="nonzero"></path>
                                <path d="M42.5493333,13.0939307 C41.9803733,13.0939307 41.5575467,12.981504 41.2808533,12.7566293 C41.01952,12.531776 40.8887467,12.226624 40.8887467,11.841152 C40.8887467,11.6965973 40.9041067,11.5359787 40.9348267,11.3593173 C40.9655467,11.1826347 40.99648,11.022016 41.0272,10.8774613 C41.07328,10.668672 41.1424,10.4598827 41.2347733,10.2510933 C41.3269333,10.0422827 41.4577067,9.85757867 41.6266667,9.69696 C41.79584,9.53636267 42.0110933,9.407872 42.2724267,9.31150933 C42.5339733,9.19908267 42.8567467,9.142848 43.2411733,9.142848 C43.8101333,9.142848 44.22528,9.255296 44.4866133,9.48014933 C44.7633067,9.70500267 44.90176,10.0101547 44.90176,10.3956267 C44.90176,10.5401813 44.8864,10.7008 44.85568,10.8774613 C44.8247467,11.054144 44.7940267,11.2147627 44.7633067,11.3593173 C44.7172267,11.5681067 44.6481067,11.776896 44.5557333,11.9857067 C44.4635733,12.194496 44.3328,12.3792 44.1636267,12.5398187 C43.9946667,12.700416 43.7794133,12.8369493 43.5178667,12.949376 C43.2565333,13.0457387 42.93376,13.0939307 42.5493333,13.0939307 Z M40.7042133,27.1394133 C40.0738133,27.1394133 39.5665067,26.9627733 39.18208,26.6094933 C38.8130133,26.256 38.62848,25.7902933 38.62848,25.21216 C38.62848,25.05152 38.6517333,24.8507733 38.6978133,24.60992 L40.6350933,14.4912427 L43.8638933,14.4912427 L41.9496533,24.4411733 L43.3102933,24.4411733 L42.8029867,27.1394133 L40.7042133,27.1394133 Z" id="形状" fill="#FFFFFF" fill-rule="nonzero"></path>
                                <polygon id="路径" fill="#FFFFFF" fill-rule="nonzero" points="53.5099733 13.4071253 50.8808533 27.1394133 47.53664 27.1394133 50.16576 13.4071253 45.9223467 13.4071253 46.5218133 10.3233493 58.35328 10.3233493 57.7536 13.4071253"></polygon>
                                <path d="M60.51904,27.42848 C59.0276267,27.42848 57.8513067,26.97088 56.9902933,26.0552533 C56.12928,25.12384 55.6987733,23.82272 55.6987733,22.1525333 C55.6987733,21.0121173 55.8525867,19.9601067 56.16,18.996416 C56.4829867,18.0166827 56.9211733,17.1734827 57.4747733,16.4667733 C58.02816,15.7600853 58.6816,15.2059733 59.4350933,14.8044373 C60.2037333,14.4029227 61.0417067,14.2021547 61.9490133,14.2021547 C63.4404267,14.2021547 64.6165333,14.6679253 65.4775467,15.5994667 C66.33856,16.5149653 66.7690667,17.8078933 66.7690667,19.478272 C66.7690667,20.6186027 66.6075733,21.67872 66.2848,22.6583467 C65.9771733,23.6219733 65.5466667,24.4571733 64.99328,25.1639467 C64.43968,25.87072 63.77856,26.4247467 63.00992,26.82624 C62.2410667,27.2277333 61.4107733,27.42848 60.51904,27.42848 Z M60.63424,24.7061333 C61.89504,24.7061333 62.7022933,23.7826133 63.056,21.9355733 L63.4941867,19.6709973 C63.5095467,19.5906987 63.5249067,19.4862933 63.5402667,19.3578027 C63.5556267,19.229312 63.5633067,19.0847573 63.5633067,18.9241387 C63.5633067,18.3138133 63.4171733,17.8319787 63.12512,17.4786347 C62.8330667,17.1092267 62.40256,16.9245227 61.8336,16.9245227 C60.5728,16.9245227 59.7655467,17.8480427 59.4120533,19.6950827 L58.9738667,21.95968 C58.9585067,22.0401067 58.9431467,22.1444267 58.9275733,22.2728533 C58.9122133,22.4014933 58.9045333,22.54592 58.9045333,22.70656 C58.9045333,23.3169067 59.0506667,23.80672 59.34272,24.1762133 C59.6349867,24.5294933 60.0654933,24.7061333 60.63424,24.7061333 Z" id="形状" fill="#FFFFFF" fill-rule="nonzero"></path>
                                <path d="M70.7127467,9.31150933 L73.9415467,9.31150933 L71.9351467,19.7914667 L72.0964267,19.7914667 L73.7570133,17.6231893 L76.66304,14.4912427 L80.4221867,14.4912427 L75.50976,19.6228053 L77.1703467,24.4411733 L78.57728,24.4411733 L78.02368,27.1394133 L76.2939733,27.1394133 C75.1562667,27.1394133 74.3950933,26.50496 74.0106667,25.2362667 L72.9960533,21.9355733 L71.1739733,23.7184 L70.5282133,27.1394133 L67.2994133,27.1394133 L70.7127467,9.31150933 Z" id="路径" fill="#FFFFFF" fill-rule="nonzero"></path>
                                <path d="M84.6013867,27.42848 C82.87936,27.42848 81.59552,26.9467733 80.7498667,25.9831467 C79.9042133,25.0033067 79.4813867,23.6701867 79.4813867,21.9837867 C79.4813867,20.971968 79.6352,20.000256 79.9426133,19.0686933 C80.2500267,18.121088 80.6884267,17.2939307 81.2571733,16.5872427 C81.8261333,15.8644907 82.5179733,15.286272 83.3329067,14.8526293 C84.14784,14.4189653 85.0549333,14.2021547 86.0544,14.2021547 C86.5156267,14.2021547 86.9998933,14.258368 87.5074133,14.3707947 C88.01472,14.4832213 88.4759467,14.6759467 88.8910933,14.948992 C89.3216,15.2059733 89.6753067,15.5593173 89.952,16.0090453 C90.2440533,16.458752 90.3901867,17.028928 90.3901867,17.719552 C90.3901867,18.3780693 90.2440533,18.9723307 89.952,19.5023573 C89.6599467,20.01632 89.2061867,20.4660267 88.59136,20.8514987 C87.97632,21.2209067 87.1844267,21.51808 86.21568,21.7429333 C85.2471467,21.9517867 84.0861867,22.0802133 82.7332267,22.1284267 C82.7025067,22.2728533 82.6871467,22.38528 82.6871467,22.4657067 C82.6871467,22.54592 82.6871467,22.61824 82.6871467,22.6824533 C82.6871467,23.2928 82.84096,23.7826133 83.1483733,24.1521067 C83.47136,24.5213867 84.0324267,24.7061333 84.832,24.7061333 C85.3546667,24.7061333 85.8391467,24.5937067 86.2850133,24.3688533 C86.74624,24.128 87.2458667,23.6541867 87.7841067,22.9474133 L89.7674667,24.5858133 C89.0141867,25.6296533 88.2222933,26.3684267 87.392,26.8021333 C86.5770667,27.21984 85.6469333,27.42848 84.6013867,27.42848 Z M85.8698667,16.779968 C85.1780267,16.779968 84.5860267,17.0208853 84.09408,17.50272 C83.61728,17.968512 83.3098667,18.6109653 83.1714133,19.43008 L83.0792533,19.984192 C83.9402667,19.936 84.6397867,19.8557013 85.1780267,19.7432747 C85.7314133,19.630848 86.16192,19.4943147 86.4695467,19.3337173 C86.77696,19.1570347 86.9845333,18.9643093 87.0922667,18.7554987 C87.1997867,18.5467093 87.2535467,18.3138133 87.2535467,18.0568533 C87.2535467,17.783808 87.2074667,17.566976 87.1153067,17.4063573 C87.0229333,17.229696 86.9077333,17.1012053 86.76928,17.0208853 C86.6308267,16.9245227 86.4772267,16.860288 86.3080533,16.82816 C86.15424,16.796032 86.0081067,16.779968 85.8698667,16.779968 Z" id="形状" fill="#FFFFFF" fill-rule="nonzero"></path>
                                <path d="M90.4512,27.1394133 L92.87296,14.4912427 L96.10176,14.4912427 L95.54816,17.430464 L95.6866133,17.430464 C96.14784,16.4186027 96.69376,15.6315947 97.32416,15.0694613 C97.9543467,14.4912427 98.74624,14.2021547 99.6996267,14.2021547 C100.63744,14.2021547 101.35232,14.4912427 101.84448,15.0694613 C102.351787,15.6315947 102.60544,16.4346667 102.60544,17.4786347 C102.60544,17.783808 102.5824,18.0809387 102.53632,18.3700267 C102.5056,18.643072 102.45952,18.9402027 102.397867,19.26144 L101.406293,24.4411733 L102.62848,24.4411733 L102.121173,27.1394133 L100.0224,27.1394133 C99.40736,27.1394133 98.9307733,26.9787733 98.5924267,26.6577067 C98.2542933,26.3204267 98.08512,25.87072 98.08512,25.3085867 C98.08512,25.1639467 98.0928,25.03552 98.10816,24.9230933 C98.12352,24.7944533 98.13888,24.69824 98.15424,24.6338133 L99.0999467,19.6228053 C99.1460267,19.397952 99.1844267,19.18112 99.2151467,18.9723307 C99.24608,18.7474773 99.26144,18.5145813 99.26144,18.273664 C99.26144,17.904256 99.1690667,17.6071253 98.9845333,17.382272 C98.8,17.1413547 98.4849067,17.0208853 98.03904,17.0208853 C97.6392533,17.0208853 97.2778667,17.133312 96.9550933,17.3581867 C96.6321067,17.58304 96.3400533,17.8560853 96.07872,18.1773013 C95.8018133,18.5145813 95.56352,18.892032 95.3636267,19.3096107 C95.1637333,19.7111467 95.0178133,20.152832 94.92544,20.6346667 L93.68,27.1394133 L90.4512,27.1394133 Z" id="路径" fill="#FFFFFF" fill-rule="nonzero"></path>
                            </g>
                        </g>
                    </g>
                </g>
            </g>
        </g>
    </g>
</svg>