<svg width="180" height="44" viewBox="0 0 180 44" fill="none" xmlns="http://www.w3.org/2000/svg">
<path fill-rule="evenodd" clip-rule="evenodd" d="M31.6981 29.9927C31.8999 28.9572 32 27.9027 32 26.8474C32.0032 24.6605 31.5674 22.4957 30.7189 20.4843C29.8705 18.4729 28.6272 16.6569 27.0641 15.1463C28.4149 16.5148 27.4285 18.9488 25.5132 18.943C24.4107 18.9429 23.4554 18.0806 23.3301 16.9721L23.2883 16.9654C23.1635 15.098 22.5978 13.2881 21.6386 11.6878C20.6027 9.951 19.1407 8.51465 17.3944 7.51808C15.6482 6.52152 13.677 5.9986 11.6722 6.00005C11.452 5.99941 11.2337 6.00549 11.0172 6.01829C12.1598 7.41592 12.8606 9.12894 13.0286 10.9348C13.0558 11.2191 13.0694 11.5072 13.0694 11.7992C13.0714 12.9955 12.8385 14.1802 12.3841 15.2846C12.2463 15.6212 12.0877 15.9487 11.9095 16.2652C11.8772 16.2768 11.8459 16.2893 11.8146 16.3027C11.7137 16.5048 11.5878 16.693 11.4396 16.8626C11.1901 17.1506 10.8827 17.3813 10.538 17.5393C10.1932 17.6973 9.81909 17.779 9.44064 17.7789H9.41312C9.05353 17.7772 8.69813 17.7007 8.369 17.5542C8.15042 17.4578 7.94598 17.3315 7.76154 17.1786C7.4531 16.9264 7.20437 16.6076 7.03356 16.2454C6.86276 15.8833 6.77419 15.4871 6.77438 15.0858C6.77442 14.6328 6.88755 14.1872 7.10327 13.7903C7.319 13.3934 7.63029 13.058 8.00832 12.8153C5.02003 14.5625 2.66703 17.2367 1.29756 20.4422C0.436826 22.4563 -0.00363863 24.6539 2.26387e-05 26.8474C2.26387e-05 30.1011 1.10118 33.1866 3.57553 35.3794C5.31401 36.9201 7.50729 37.8357 9.81367 37.9838C5.56179 37.584 2.66654 33.2896 2.67008 29.165C2.67051 28.061 2.87226 26.9667 3.26524 25.9369C3.97231 24.088 5.26118 22.5259 6.93289 21.492C7.30624 21.2614 7.69583 21.0588 8.0985 20.8859C8.29118 21.4721 8.60717 22.009 9.0247 22.4596C10.4462 23.9939 12.8476 24.2331 14.5348 23.0254C15.9277 22.0283 16.598 20.2224 16.197 18.5415C16.1808 18.4733 16.1637 18.4061 16.1438 18.3388C15.9825 17.7857 15.7121 17.2713 15.349 16.8268C14.9858 16.3823 14.5375 16.0168 14.0309 15.7524C14.331 15.7195 14.6327 15.7032 14.9345 15.7034C16.5374 15.7008 18.1076 16.1616 19.4603 17.0317C20.9885 18.013 22.166 19.4636 22.8205 21.1712C22.8855 21.3408 22.9457 21.5137 23.0007 21.6898C23.2066 22.3535 23.3312 23.0402 23.3719 23.7346L23.3956 23.7413C23.3909 23.7749 23.3909 23.8104 23.3909 23.845V23.845C23.3909 24.003 23.4217 24.1595 23.4814 24.3054C23.5411 24.4514 23.6288 24.584 23.7393 24.6957C23.8498 24.8073 23.9808 24.8959 24.125 24.9562C24.2694 25.0166 24.4241 25.0476 24.5803 25.0475C24.7435 25.0476 24.905 25.0135 25.0547 24.9474C25.2043 24.8813 25.3387 24.7846 25.4496 24.6633C25.6559 24.4413 25.7702 24.1478 25.7696 23.8431C25.7702 23.5783 25.6836 23.3208 25.5236 23.1113C26.5054 23.9122 27.2971 24.9256 27.8406 26.0769C28.3842 27.2283 28.6656 28.4883 28.6645 29.7643C28.6645 33.5358 26.1163 36.8335 22.698 37.9424C24.8192 37.7037 26.8179 36.8151 28.4265 35.3954C29.7376 34.2381 31.6981 31.8876 31.6981 29.9927ZM11.4022 26.033H20.6093C21.0896 26.0316 21.5654 26.1263 22.0093 26.3116C22.4533 26.497 22.8567 26.7693 23.1963 27.1129C23.536 27.4565 23.8052 27.8648 23.9882 28.3139C24.1715 28.7632 24.2651 29.2447 24.2636 29.7307V34.2928C24.2632 35.2758 23.8771 36.2185 23.1899 36.9136C22.503 37.6088 21.5714 37.9997 20.5998 38.0001H20.2011C20.2032 37.2144 19.9896 36.4436 19.584 35.7737C19.1784 35.1039 18.5968 34.5612 17.9041 34.2064L16.9549 36.0984C17.301 36.2749 17.5917 36.5454 17.7946 36.8795C17.9974 37.2137 18.1044 37.5984 18.1034 37.9905H11.4022C10.4306 37.9901 9.49896 37.5992 8.81197 36.904C8.12497 36.2089 7.73879 35.2662 7.73828 34.2832V29.7403C7.73879 28.7572 8.12497 27.8145 8.81197 27.1194C9.49896 26.4243 10.4306 26.0335 11.4022 26.033ZM10.8868 32.2685C11.0952 32.3557 11.3186 32.4007 11.5442 32.4007L11.5414 32.3958C11.9967 32.3967 12.4337 32.2145 12.7564 31.8894C13.079 31.5645 13.261 31.1231 13.2622 30.6623C13.2622 30.434 13.2178 30.2079 13.1315 29.9971C13.0451 29.7861 12.9186 29.5945 12.759 29.4331C12.5995 29.2718 12.4101 29.1436 12.2017 29.0563C11.9932 28.9688 11.7698 28.9238 11.5442 28.9238C11.3186 28.9238 11.0952 28.9688 10.8868 29.0563C10.6783 29.1436 10.4889 29.2718 10.3294 29.4331C10.1699 29.5945 10.0433 29.7861 9.95697 29.9971C9.87061 30.2079 9.82617 30.434 9.82617 30.6623C9.82617 30.8905 9.87061 31.1167 9.95697 31.3277C10.0433 31.5384 10.1699 31.7302 10.3294 31.8915C10.4889 32.053 10.6783 32.181 10.8868 32.2685ZM19.8094 32.2685C20.0179 32.3557 20.2413 32.4007 20.4669 32.4007L20.464 32.3958C20.9194 32.3967 21.3563 32.2145 21.6791 31.8894C22.0017 31.5645 22.1836 31.1231 22.1849 30.6623C22.1849 30.434 22.1405 30.2079 22.0541 29.9971C21.9677 29.7861 21.8412 29.5945 21.6817 29.4331C21.5221 29.2718 21.3328 29.1436 21.1243 29.0563C20.9159 28.9688 20.6925 28.9238 20.4669 28.9238C20.2413 28.9238 20.0179 28.9688 19.8094 29.0563C19.601 29.1436 19.4116 29.2718 19.2521 29.4331C19.0925 29.5945 18.966 29.7861 18.8796 29.9971C18.7933 30.2079 18.7489 30.434 18.7489 30.6623C18.7489 30.8905 18.7933 31.1167 18.8796 31.3277C18.966 31.5384 19.0925 31.7302 19.2521 31.8915C19.4116 32.053 19.601 32.181 19.8094 32.2685Z" fill="#1FB75C"/>
<path fill-rule="evenodd" clip-rule="evenodd" d="M42.9213 16.8085C42.3524 16.8085 41.9295 16.6961 41.6528 16.4712C41.3915 16.2464 41.2607 15.9412 41.2607 15.5557C41.2607 15.4112 41.2761 15.2506 41.3068 15.0739C41.3375 14.8972 41.3685 14.7366 41.3992 14.592C41.4453 14.3832 41.5144 14.1745 41.6068 13.9657C41.6989 13.7569 41.8297 13.5722 41.9987 13.4115C42.1678 13.2509 42.3831 13.1224 42.6444 13.0261C42.906 12.9137 43.2287 12.8574 43.6132 12.8574C44.1821 12.8574 44.5973 12.9699 44.8586 13.1947C45.1353 13.4196 45.2738 13.7247 45.2738 14.1102C45.2738 14.2548 45.2584 14.4154 45.2277 14.592C45.1967 14.7687 45.166 14.9293 45.1353 15.0739C45.0892 15.2827 45.0201 15.4915 44.9277 15.7003C44.8356 15.9091 44.7048 16.0938 44.5356 16.2544C44.3667 16.415 44.1514 16.5515 43.8899 16.6639C43.6285 16.7603 43.3058 16.8085 42.9213 16.8085ZM41.0757 30.854C40.4453 30.854 39.938 30.6773 39.5536 30.3241C39.1845 29.9706 39 29.5049 39 28.9267C39 28.7661 39.0233 28.5653 39.0693 28.3245L41.0066 18.2058H44.2354L42.3212 28.1557H43.6818L43.1745 30.854H41.0757ZM51.2515 30.8542L53.8806 17.1219H58.1242L58.7239 14.0381H46.8924L46.293 17.1219H50.5364L47.9073 30.8542H51.2515ZM57.3618 29.7701C58.2228 30.6857 59.3992 31.1433 60.8906 31.1433C61.7823 31.1433 62.6126 30.9426 63.3815 30.5411C64.1501 30.1396 64.8112 29.5856 65.3648 28.8788C65.9182 28.172 66.3487 27.3368 66.6563 26.3732C66.9791 25.3936 67.1406 24.3334 67.1406 23.1931C67.1406 21.5227 66.7101 20.2298 65.8491 19.3143C64.9881 18.3828 63.812 17.917 62.3206 17.917C61.4132 17.917 60.5753 18.1178 59.8066 18.5193C59.0531 18.9208 58.3997 19.4749 57.8463 20.1816C57.2927 20.8883 56.8545 21.7315 56.5315 22.7113C56.2241 23.6749 56.0703 24.727 56.0703 25.8674C56.0703 27.5376 56.5008 28.8387 57.3618 29.7701ZM63.4278 25.6507C63.0741 27.4977 62.2669 28.4213 61.0061 28.4213C60.4373 28.4213 60.0068 28.2446 59.7146 27.8913C59.4225 27.5218 59.2764 27.032 59.2764 26.4217C59.2764 26.261 59.284 26.1166 59.2994 25.988C59.315 25.8596 59.3303 25.7552 59.3457 25.6748L59.7839 23.4102C60.1374 21.5632 60.9446 20.6396 62.2054 20.6396C62.7744 20.6396 63.2049 20.8244 63.497 21.1938C63.789 21.5471 63.9351 22.0289 63.9351 22.6393C63.9351 22.7999 63.9275 22.9444 63.9121 23.0729C63.8967 23.2014 63.8814 23.3058 63.866 23.3861L63.4278 25.6507ZM74.313 13.0264H71.0842L67.6709 30.8543H70.8997L71.5455 27.4333L73.3675 25.6504L74.3822 28.9511C74.7666 30.2198 75.5278 30.8543 76.6655 30.8543H78.3952L78.9488 28.156H77.5418L75.8812 23.3377L80.7937 18.2061H77.0345L74.1285 21.338L72.4679 23.5063H72.3066L74.313 13.0264ZM81.121 29.698C81.9667 30.6616 83.2505 31.1433 84.9725 31.1433C86.0181 31.1433 86.9482 30.9347 87.7632 30.517C88.5934 30.0833 89.3853 29.3445 90.1386 28.3007L88.1553 26.6623C87.617 27.369 87.1174 27.8428 86.6562 28.0837C86.2103 28.3085 85.7258 28.421 85.2032 28.421C84.4036 28.421 83.8425 28.2362 83.5195 27.8669C83.2121 27.4975 83.0583 27.0076 83.0583 26.3973V26.1805C83.0583 26.1001 83.0737 25.9877 83.1044 25.8433C84.4573 25.7951 85.6183 25.6666 86.5868 25.4578C87.5556 25.2329 88.3475 24.9357 88.9625 24.5663C89.5773 24.1809 90.0311 23.7312 90.3232 23.2172C90.6152 22.6872 90.7613 22.0929 90.7613 21.4344C90.7613 20.7438 90.6152 20.1736 90.3232 19.7239C90.0465 19.2742 89.6928 18.9208 89.2622 18.6638C88.8471 18.3908 88.3859 18.1981 87.8786 18.0856C87.371 17.9732 86.8868 17.917 86.4256 17.917C85.4261 17.917 84.519 18.1338 83.7041 18.5675C82.8891 19.0011 82.1973 19.5793 81.6283 20.3021C81.0596 21.0088 80.6212 21.8359 80.3138 22.7835C80.0064 23.7151 79.8525 24.6868 79.8525 25.6986C79.8525 27.385 80.2754 28.7181 81.121 29.698ZM84.4652 21.2176C84.9572 20.7357 85.5492 20.4948 86.241 20.4948C86.3793 20.4948 86.5254 20.5109 86.6792 20.543C86.8484 20.5751 87.002 20.6394 87.1404 20.7357C87.2789 20.816 87.3941 20.9445 87.4865 21.1212C87.5786 21.2818 87.6247 21.4986 87.6247 21.7717C87.6247 22.0287 87.5709 22.2615 87.4634 22.4703C87.3557 22.6791 87.1481 22.8719 86.8407 23.0486C86.5331 23.2092 86.1026 23.3457 85.5492 23.4581C85.0109 23.5705 84.3114 23.6508 83.4504 23.699L83.5426 23.1449C83.681 22.3258 83.9884 21.6833 84.4652 21.2176ZM93.244 18.2061L90.8223 30.8543H94.0511L95.2965 24.3495C95.3889 23.8677 95.5348 23.426 95.7347 23.0244C95.9346 22.6069 96.1729 22.2294 96.4498 21.8921C96.7111 21.5709 97.0032 21.2979 97.3262 21.073C97.6489 20.8481 98.0103 20.7357 98.4101 20.7357C98.856 20.7357 99.1711 20.8562 99.3556 21.0971C99.5401 21.322 99.6325 21.6191 99.6325 21.9885C99.6325 22.2294 99.6171 22.4623 99.5862 22.6872C99.5555 22.896 99.5171 23.1128 99.471 23.3376L98.5253 28.3487C98.5099 28.4131 98.4946 28.5093 98.4792 28.6379C98.4639 28.7504 98.4562 28.8788 98.4562 29.0234C98.4562 29.5856 98.6254 30.0353 98.9635 30.3725C99.3018 30.6936 99.7784 30.8543 100.393 30.8543H102.492L103 28.156H101.777L102.769 22.9763C102.831 22.655 102.877 22.3579 102.907 22.0849C102.953 21.7958 102.977 21.4986 102.977 21.1935C102.977 20.1495 102.723 19.3464 102.216 18.7843C101.723 18.2061 101.009 17.917 100.071 17.917C99.1173 17.917 98.3254 18.2061 97.6952 18.7843C97.0648 19.3464 96.5189 20.1334 96.0577 21.1453H95.9192L96.4728 18.2061H93.244Z" fill="white"/>
</svg>
