<svg width="180" height="44" viewBox="0 0 180 44" fill="none" xmlns="http://www.w3.org/2000/svg">
<path d="M20.6982 7.00306C20.6982 6.70309 20.7982 6.50311 21.0982 6.40312L25.1978 4.10333C25.6978 3.80336 26.1977 4.20332 26.1977 4.70327V34.1006C26.1977 34.4005 26.0977 34.6005 25.7978 34.7005L21.6982 36.9003C21.1982 37.1003 20.6982 36.8003 20.6982 36.3004V7.00306Z" fill="#2B8DFF"/>
<path opacity="0.5" d="M0 36.3005C0 36.8005 0.599945 37.2005 0.999908 36.9005L5.09953 34.7007C5.29951 34.6007 5.49949 34.3007 5.49949 34.1007V13.1027C5.49949 12.6027 4.89955 12.2028 4.49959 12.5027L0.399963 14.7025C0.0999908 14.8025 0 15.1025 0 15.3025V36.3005Z" fill="#2B8DFF"/>
<path d="M18.998 18.9019H14.1985C13.9985 18.9019 13.7985 19.0018 13.6985 19.1018L6.2992 26.7011C5.99923 27.0011 5.99923 27.4011 6.2992 27.701L13.6985 35.3003C13.7985 35.4003 13.9985 35.5003 14.1985 35.5003H18.998C19.598 35.5003 19.8979 34.7004 19.498 34.3004L13.0986 27.701C12.7986 27.4011 12.7986 27.0011 13.0986 26.7011L19.498 20.1017C19.8979 19.7018 19.598 18.9019 18.998 18.9019Z" fill="#2B8DFF"/>
<path fill-rule="evenodd" clip-rule="evenodd" d="M45.0962 21.4022C45.3962 21.7021 45.7962 21.9021 46.2961 21.9021C46.7961 21.9021 47.1961 21.7021 47.496 21.4022C47.796 21.1022 47.996 20.7022 47.996 20.2023C47.996 19.7023 47.796 19.3024 47.496 19.0024C47.1961 18.7024 46.7961 18.5024 46.2961 18.5024C45.7962 18.5024 45.3962 18.7024 45.0962 19.0024C44.7963 19.3024 44.6963 19.7023 44.6963 20.2023C44.6963 20.7022 44.7963 21.1022 45.0962 21.4022ZM44.9963 35.2009C45.0963 35.3009 45.0963 35.3009 45.1962 35.3009V35.4009H47.296C47.396 35.4009 47.496 35.3009 47.496 35.3009C47.596 35.2009 47.596 35.2009 47.596 35.1009V23.802C47.596 23.702 47.596 23.602 47.496 23.602C47.396 23.502 47.396 23.502 47.296 23.502H45.1962C45.0963 23.502 45.0963 23.502 44.9963 23.602C44.8963 23.702 44.8963 23.702 44.8963 23.802V35.0009C44.8963 35.0509 44.9213 35.0759 44.9463 35.1009C44.9713 35.1259 44.9963 35.1509 44.9963 35.2009ZM32.4965 35.2009C32.5965 35.3009 32.5965 35.3009 32.6965 35.3009H34.7963C34.8963 35.3009 34.9962 35.2009 34.9962 35.2009C35.0962 35.1009 35.0962 35.1009 35.0962 35.0009V30.1014V30.0014L36.4961 28.1016H36.5961C36.6961 28.1016 36.6961 28.2016 36.6961 28.2016L40.2958 35.1009C40.2958 35.2009 40.3957 35.3009 40.5957 35.3009H42.8955C42.9955 35.3009 43.0955 35.2009 43.0955 35.1009V35.0009L38.3959 26.2017V26.0018L42.6955 19.5024V19.3024C42.6955 19.2024 42.5955 19.2024 42.4956 19.2024H40.1958C40.0958 19.2024 39.9958 19.3024 39.8958 19.4024L39.8958 19.4024L35.1962 26.2017H35.0962V26.1018V19.5024V19.5024C35.0962 19.4024 35.0962 19.3024 34.9962 19.3024C34.8963 19.2024 34.8963 19.2024 34.7963 19.2024H32.6965C32.5965 19.2024 32.5965 19.2024 32.4965 19.3024L32.4965 19.3024C32.439 19.3599 32.4145 19.3843 32.4042 19.4137C32.3965 19.4354 32.3965 19.4599 32.3965 19.5024V35.0009C32.3965 35.0509 32.4215 35.0759 32.4465 35.1009C32.4715 35.1259 32.4965 35.1509 32.4965 35.2009ZM55.5952 23.4016C56.6951 23.4016 57.595 23.8016 58.195 24.5015C58.7949 25.2014 59.0949 26.2014 59.0949 27.4012V35.1005C59.0949 35.143 59.0949 35.1675 59.0872 35.1892C59.0768 35.2186 59.0524 35.243 58.9949 35.3005C58.9949 35.3005 58.8949 35.4005 58.7949 35.4005H56.6951C56.5951 35.4005 56.5951 35.4005 56.4951 35.3005C56.4951 35.2505 56.4701 35.2255 56.4451 35.2005C56.4201 35.1755 56.3951 35.1505 56.3951 35.1005V27.8012C56.3951 27.2013 56.1951 26.7013 55.8952 26.3013C55.5952 25.9014 55.1952 25.7014 54.5953 25.7014C53.9953 25.7014 53.5954 25.9014 53.2954 26.3013C52.9954 26.7013 52.7955 27.2013 52.7955 27.8012V35.1005C52.7955 35.2005 52.7955 35.2005 52.6955 35.3005C52.6955 35.3005 52.5955 35.4005 52.4955 35.4005H50.3957C50.2957 35.4005 50.2957 35.4005 50.1957 35.3005C50.1957 35.2505 50.1707 35.2255 50.1457 35.2005C50.1207 35.1755 50.0957 35.1505 50.0957 35.1005V23.8016C50.0957 23.7016 50.0957 23.7016 50.1957 23.6016C50.2957 23.5016 50.2957 23.5016 50.3957 23.5016H52.4955C52.538 23.5016 52.5624 23.5016 52.5841 23.5093C52.6135 23.5197 52.638 23.5441 52.6955 23.6016C52.7955 23.6016 52.7955 23.7016 52.7955 23.8016V24.4015V24.5015H52.8954C53.6954 23.7016 54.4953 23.4016 55.5952 23.4016ZM67.8016 23.7129C67.7939 23.7346 67.7939 23.7591 67.7939 23.8016H67.8939V24.3015V24.4015H67.7939C67.194 23.7016 66.3941 23.4016 65.2942 23.4016C64.2943 23.4016 63.3943 23.7016 62.7944 24.3015C62.1945 24.9015 61.7945 25.8014 61.5945 26.8013C61.4945 27.2013 61.3945 28.1012 61.3945 29.4011V29.4011C61.3945 30.601 61.3945 31.4009 61.4945 31.9008C61.6945 33.0007 62.0945 33.8007 62.7944 34.4006C63.4943 35.0005 64.2943 35.3005 65.2942 35.3005C66.2941 35.3005 67.094 35.0005 67.6939 34.3006H67.7939V34.4006V34.6006C67.7939 35.7005 67.594 36.4004 67.094 36.9004C66.594 37.4003 65.7941 37.6003 64.5942 37.6003H63.8943C63.6943 37.6003 63.5943 37.7003 63.5943 37.9003L63.4943 39.7001C63.4943 39.9001 63.5943 40.0001 63.7943 40.0001H64.7942C66.5941 40.0001 67.9939 39.6001 68.9938 38.7002C69.9937 37.8003 70.4937 36.5004 70.4937 34.7006V23.8016C70.4937 23.7016 70.4937 23.6016 70.3937 23.6016C70.2937 23.5016 70.2937 23.5016 70.1937 23.5016H68.0939C68.0514 23.5016 68.027 23.5016 68.0053 23.5093C67.9759 23.5197 67.9514 23.5441 67.8939 23.6016C67.8364 23.6591 67.812 23.6835 67.8016 23.7129ZM67.7411 30.4774V30.4775V30.4775V30.4776V30.4777C67.7171 30.8011 67.6939 31.1125 67.6939 31.4009C67.6939 31.9008 67.494 32.3008 67.094 32.6008C66.794 32.9007 66.3941 33.1007 65.8941 33.1007C65.4942 33.1007 64.9942 32.9007 64.6942 32.6008C64.3943 32.3008 64.1943 31.9008 64.0943 31.4009C63.9943 30.8009 63.9943 30.201 63.9943 29.4011C63.9943 28.6011 63.9943 27.9012 64.0943 27.3013C64.1943 26.8013 64.3943 26.4013 64.6942 26.1014C64.9942 25.8014 65.3942 25.6014 65.8941 25.6014C66.3941 25.6014 66.794 25.8014 67.094 26.1014C67.394 26.4013 67.594 26.8013 67.6939 27.3013C67.7939 27.8012 67.7939 28.5011 67.7939 29.4011C67.7939 29.7645 67.767 30.128 67.7411 30.4774ZM73.3937 35.3009C73.2937 35.3009 73.2937 35.3009 73.1937 35.2009C73.1937 35.1509 73.1687 35.1259 73.1437 35.1009C73.1187 35.0759 73.0938 35.0509 73.0938 35.0009V19.5024C73.0938 19.4599 73.0938 19.4354 73.1014 19.4137C73.1118 19.3843 73.1362 19.3599 73.1937 19.3024C73.2937 19.2024 73.2937 19.2024 73.3937 19.2024H78.1933C79.6931 19.2024 80.893 19.6024 81.793 20.4023C82.6929 21.2022 83.1928 22.3021 83.1928 23.702V30.7013C83.1928 32.1012 82.6929 33.2011 81.793 34.001C80.893 34.801 79.6931 35.2009 78.1933 35.2009H73.3937V35.3009ZM75.6935 32.9011C75.6935 33.0011 75.6935 33.0011 75.7935 33.0011H78.0933C78.7932 33.0011 79.2932 32.8011 79.6931 32.3012C80.0931 31.8012 80.2931 31.2013 80.2931 30.4014V24.002C80.2931 23.202 80.0931 22.6021 79.6931 22.1021C79.2932 21.6022 78.7932 21.4022 78.0933 21.4022H75.7935C75.6935 21.4022 75.6935 21.4022 75.6935 21.5022V32.9011ZM91.8913 23.9016C91.1914 23.6016 90.4915 23.4016 89.5915 23.4016C88.3917 23.4016 87.2918 23.7016 86.5918 24.3015C85.6919 24.9015 85.2919 25.7014 85.1919 26.7013C85.1301 26.7631 85.1447 26.7867 85.1649 26.8193C85.1774 26.8395 85.1919 26.8631 85.1919 26.9013C85.2919 27.0013 85.2919 27.0013 85.3919 27.0013L87.5917 27.1013C87.6917 27.1013 87.8917 27.0013 87.8917 26.8013C87.8917 26.5013 88.0917 26.2014 88.3917 26.0014C88.6916 25.8014 89.0916 25.7014 89.4916 25.7014C90.0915 25.7014 90.4915 25.9014 90.7914 26.2014C91.0914 26.5013 91.2914 26.9013 91.2914 27.5012V28.1012C91.2914 28.2012 91.2914 28.2012 91.1914 28.2012H89.3916C87.9917 28.2012 86.7918 28.5011 85.9919 29.1011C85.192 29.701 84.792 30.7009 84.792 32.0008C84.792 33.3007 85.192 34.1006 85.8919 34.7006C86.5918 35.2005 87.4917 35.5005 88.4916 35.5005C89.6915 35.5005 90.6914 35.1005 91.2914 34.4006H91.3914V34.5006V35.1005C91.3914 35.1505 91.4164 35.1755 91.4414 35.2005C91.4664 35.2255 91.4914 35.2505 91.4914 35.3005L91.4914 35.3005L91.4914 35.3006C91.5489 35.358 91.5733 35.3825 91.6027 35.3928C91.6244 35.4005 91.6489 35.4005 91.6913 35.4005H93.7912C93.8912 35.4005 93.9911 35.3005 93.9911 35.3005C94.0911 35.2005 94.0911 35.2005 94.0911 35.1005V27.3013C94.0911 26.6013 93.8912 25.9014 93.4912 25.3014C93.0912 24.7015 92.5913 24.2015 91.8913 23.9016ZM90.6914 32.9007C90.1915 33.2007 89.6915 33.4007 89.0916 33.4007C88.6916 33.4007 88.2917 33.2007 87.9917 33.0007C87.6917 32.8007 87.5917 32.4008 87.5917 31.9008C87.5917 31.3009 87.7917 30.9009 88.1917 30.6009C88.5916 30.301 89.0916 30.201 89.7915 30.201H91.2914C91.3414 30.201 91.3664 30.201 91.3789 30.2135C91.3914 30.226 91.3914 30.251 91.3914 30.3009V30.301V31.5009C91.3914 32.1008 91.0914 32.5008 90.6914 32.9007ZM101.69 25.5015C101.69 25.5015 101.59 25.6015 101.49 25.6015H99.5906C99.4906 25.6015 99.4906 25.6015 99.4906 25.7015V31.5009C99.4906 32.1009 99.5906 32.5008 99.7906 32.7008C99.9906 32.9008 100.391 33.0008 100.89 33.0008H101.29C101.39 33.0008 101.39 33.0008 101.49 33.1008C101.59 33.1008 101.59 33.2008 101.59 33.3008V35.1006C101.59 35.3006 101.49 35.4006 101.29 35.4006H100.291C99.1907 35.4006 98.2907 35.2006 97.6908 34.8006C97.0908 34.4007 96.7909 33.6007 96.7909 32.5008V25.7015C96.7909 25.6015 96.7909 25.6015 96.6909 25.6015H95.591C95.5485 25.6015 95.5241 25.6015 95.5023 25.5938C95.4729 25.5834 95.4485 25.559 95.391 25.5015C95.391 25.4515 95.366 25.4265 95.341 25.4015C95.316 25.3765 95.291 25.3515 95.291 25.3015V23.8016C95.291 23.7592 95.291 23.7347 95.2987 23.713C95.3091 23.6836 95.3335 23.6592 95.391 23.6017C95.491 23.5017 95.491 23.5017 95.591 23.5017H96.6909C96.7909 23.5017 96.7909 23.5017 96.7909 23.4017V20.8019C96.7909 20.7594 96.7909 20.735 96.7986 20.7133C96.8089 20.6839 96.8334 20.6594 96.8909 20.6019C96.9909 20.502 96.9909 20.502 97.0908 20.502H99.0907C99.1907 20.502 99.1907 20.502 99.2906 20.6019C99.3906 20.6019 99.3906 20.7019 99.3906 20.8019V23.4017C99.3906 23.5017 99.3906 23.5017 99.4906 23.5017H101.39C101.49 23.5017 101.49 23.5017 101.59 23.6017C101.69 23.6017 101.69 23.7017 101.69 23.8016V25.3015H101.79C101.79 25.4015 101.79 25.4015 101.69 25.5015ZM110.29 23.9016C109.69 23.6016 108.89 23.4016 107.99 23.4016C106.79 23.4016 105.79 23.7016 104.99 24.3015C104.09 24.9015 103.69 25.7014 103.59 26.7013C103.529 26.7631 103.543 26.7867 103.563 26.8193C103.576 26.8395 103.59 26.8631 103.59 26.9013C103.69 27.0013 103.69 27.0013 103.79 27.0013L105.99 27.1013C106.09 27.1013 106.29 27.0013 106.29 26.8013C106.29 26.5013 106.49 26.2014 106.79 26.0014C107.09 25.8014 107.49 25.7014 107.89 25.7014C108.49 25.7014 108.89 25.9014 109.19 26.2014C109.49 26.5013 109.69 26.9013 109.69 27.5012V28.1012C109.69 28.2012 109.69 28.2012 109.59 28.2012H107.79C106.39 28.2012 105.19 28.5011 104.39 29.1011C103.59 29.701 103.19 30.7009 103.19 32.0008C103.19 33.3007 103.59 34.1006 104.29 34.7006C104.99 35.2005 105.89 35.5005 106.89 35.5005C108.09 35.5005 109.09 35.1005 109.69 34.4006H109.79V34.5006V35.1005C109.79 35.1505 109.815 35.1755 109.84 35.2005C109.865 35.2255 109.89 35.2505 109.89 35.3005C109.947 35.358 109.972 35.3825 110.001 35.3928C110.023 35.4005 110.047 35.4005 110.09 35.4005H112.19C112.29 35.4005 112.39 35.3005 112.39 35.3005C112.447 35.243 112.472 35.2186 112.482 35.1892C112.49 35.1675 112.49 35.143 112.49 35.1005V27.3013C112.49 26.6013 112.29 25.9014 111.89 25.3014C111.49 24.7015 110.99 24.2015 110.29 23.9016ZM109.19 32.9007C108.69 33.2007 108.19 33.4007 107.59 33.4007C107.09 33.4007 106.69 33.2007 106.49 33.0007C106.19 32.8007 106.09 32.4008 106.09 31.9008C106.09 31.3009 106.29 30.9009 106.69 30.6009C107.09 30.301 107.59 30.201 108.29 30.201H109.79C109.84 30.201 109.865 30.201 109.877 30.2135C109.89 30.226 109.89 30.251 109.89 30.301V31.5009C109.89 32.1008 109.59 32.5008 109.19 32.9007Z" fill="#272C33"/>
</svg>
