<svg width="180" height="44" viewBox="0 0 180 44" fill="none" xmlns="http://www.w3.org/2000/svg">
<path d="M20.6982 7.00306C20.6982 6.70309 20.7982 6.50311 21.0982 6.40312L25.1978 4.10333C25.6978 3.80336 26.1977 4.20332 26.1977 4.70327V34.1006C26.1977 34.4005 26.0977 34.6005 25.7978 34.7005L21.6982 36.9003C21.1982 37.1003 20.6982 36.8003 20.6982 36.3004V7.00306Z" fill="#2B8DFF"/>
<path opacity="0.5" d="M0 36.3005C0 36.8005 0.599945 37.2005 0.999908 36.9005L5.09953 34.7007C5.29951 34.6007 5.49949 34.3007 5.49949 34.1007V13.1027C5.49949 12.6027 4.89955 12.2028 4.49959 12.5027L0.399963 14.7025C0.0999908 14.8025 0 15.1025 0 15.3025V36.3005Z" fill="#2B8DFF"/>
<path d="M18.998 18.9019H14.1985C13.9985 18.9019 13.7985 19.0018 13.6985 19.1018L6.2992 26.7011C5.99923 27.0011 5.99923 27.4011 6.2992 27.701L13.6985 35.3003C13.7985 35.4003 13.9985 35.5003 14.1985 35.5003H18.998C19.598 35.5003 19.8979 34.7004 19.498 34.3004L13.0986 27.701C12.7986 27.4011 12.7986 27.0011 13.0986 26.7011L19.498 20.1017C19.8979 19.7018 19.598 18.9019 18.998 18.9019Z" fill="#2B8DFF"/>
<path fill-rule="evenodd" clip-rule="evenodd" d="M45.0962 21.4022C45.3962 21.7021 45.7962 21.9021 46.2961 21.9021C46.7961 21.9021 47.1961 21.7021 47.496 21.4022C47.796 21.1022 47.996 20.7022 47.996 20.2023C47.996 19.7023 47.796 19.3024 47.496 19.0024C47.1961 18.7024 46.7961 18.5024 46.2961 18.5024C45.7962 18.5024 45.3962 18.7024 45.0962 19.0024C44.7963 19.3024 44.6963 19.7023 44.6963 20.2023C44.6963 20.7022 44.7963 21.1022 45.0962 21.4022ZM44.9963 35.2009C45.0963 35.3009 45.0963 35.3009 45.1962 35.3009V35.4009H47.296C47.396 35.4009 47.496 35.3009 47.496 35.3009C47.596 35.2009 47.596 35.2009 47.596 35.1009V23.802C47.596 23.702 47.596 23.602 47.496 23.602C47.396 23.502 47.396 23.502 47.296 23.502H45.1962C45.0963 23.502 45.0963 23.502 44.9963 23.602C44.8963 23.702 44.8963 23.702 44.8963 23.802V35.0009C44.8963 35.0509 44.9213 35.0759 44.9463 35.1009C44.9713 35.1259 44.9963 35.1509 44.9963 35.2009ZM32.4965 35.2007C32.5965 35.3007 32.5965 35.3007 32.6965 35.3007H34.7963C34.8963 35.3007 34.9962 35.2007 34.9962 35.2007C35.0962 35.1007 35.0962 35.1007 35.0962 35.0007V30.1011V30.0012L36.4961 28.1013H36.5961C36.6961 28.1013 36.6961 28.2013 36.6961 28.2013L40.2958 35.1007C40.2958 35.2007 40.3957 35.3007 40.5957 35.3007H42.8955C42.9955 35.3007 43.0955 35.2007 43.0955 35.1007V35.0007L38.3959 26.2015V26.0015L42.6955 19.5021V19.3021C42.6955 19.2021 42.5955 19.2021 42.4956 19.2021H40.1958C40.0958 19.2021 39.9958 19.3021 39.8958 19.4021L39.8958 19.4021L35.1962 26.2015H35.0962V26.1015V19.5021V19.5021C35.0962 19.4021 35.0962 19.3021 34.9962 19.3021C34.8963 19.2021 34.8963 19.2021 34.7963 19.2021H32.6965C32.5965 19.2021 32.5965 19.2021 32.4965 19.3021L32.4965 19.3021C32.439 19.3596 32.4145 19.3841 32.4042 19.4135C32.3965 19.4352 32.3965 19.4596 32.3965 19.5021V35.0007C32.3965 35.0507 32.4215 35.0757 32.4465 35.1007C32.4715 35.1257 32.4965 35.1507 32.4965 35.2007ZM55.5952 23.4014C56.6951 23.4014 57.595 23.8013 58.195 24.5013C58.7949 25.2012 59.0949 26.2011 59.0949 27.401V35.1003C59.0949 35.1428 59.0949 35.1672 59.0872 35.1889C59.0768 35.2183 59.0524 35.2428 58.9949 35.3003C58.9949 35.3003 58.8949 35.4003 58.7949 35.4003H56.6951C56.5951 35.4003 56.5951 35.4003 56.4951 35.3003C56.4951 35.2503 56.4701 35.2253 56.4451 35.2003C56.4201 35.1753 56.3951 35.1503 56.3951 35.1003V27.801C56.3951 27.201 56.1951 26.7011 55.8952 26.3011C55.5952 25.9011 55.1952 25.7012 54.5953 25.7012C53.9953 25.7012 53.5954 25.9011 53.2954 26.3011C52.9954 26.7011 52.7955 27.201 52.7955 27.801V35.1003C52.7955 35.2003 52.7955 35.2003 52.6955 35.3003C52.6955 35.3003 52.5955 35.4003 52.4955 35.4003H50.3957C50.2957 35.4003 50.2957 35.4003 50.1957 35.3003C50.1957 35.2503 50.1707 35.2253 50.1457 35.2003C50.1207 35.1753 50.0957 35.1503 50.0957 35.1003V23.8013C50.0957 23.7013 50.0957 23.7013 50.1957 23.6013C50.2957 23.5014 50.2957 23.5014 50.3957 23.5014H52.4955C52.538 23.5014 52.5624 23.5014 52.5841 23.509C52.6135 23.5194 52.638 23.5438 52.6955 23.6013C52.7955 23.6013 52.7955 23.7013 52.7955 23.8013V24.4013V24.5013H52.8954C53.6954 23.7013 54.4953 23.4014 55.5952 23.4014ZM67.8016 23.7127C67.7939 23.7344 67.7939 23.7588 67.7939 23.8013H67.8939V24.3013V24.4013H67.7939C67.194 23.7013 66.3941 23.4014 65.2942 23.4014C64.2943 23.4014 63.3943 23.7013 62.7944 24.3013C62.1945 24.9012 61.7945 25.8011 61.5945 26.8011C61.4945 27.201 61.3945 28.1009 61.3945 29.4008V29.4009C61.3945 30.6007 61.3945 31.4006 61.4945 31.9006C61.6945 33.0005 62.0945 33.8004 62.7944 34.4004C63.4943 35.0003 64.2943 35.3003 65.2942 35.3003C66.2941 35.3003 67.094 35.0003 67.6939 34.3004H67.7939V34.4004V34.6003C67.7939 35.7002 67.594 36.4002 67.094 36.9001C66.594 37.4001 65.7941 37.6001 64.5942 37.6001H63.8943C63.6943 37.6001 63.5943 37.7001 63.5943 37.9L63.4943 39.6999C63.4943 39.8998 63.5943 39.9998 63.7943 39.9998H64.7942C66.5941 39.9998 67.9939 39.5999 68.9938 38.7C69.9937 37.8 70.4937 36.5002 70.4937 34.7003V23.8013C70.4937 23.7013 70.4937 23.6013 70.3937 23.6013C70.2937 23.5014 70.2937 23.5014 70.1937 23.5014H68.0939C68.0514 23.5014 68.027 23.5014 68.0053 23.509C67.9759 23.5194 67.9514 23.5438 67.8939 23.6013C67.8364 23.6588 67.812 23.6833 67.8016 23.7127ZM67.7411 30.4772V30.4772V30.4773V30.4773V30.4774C67.7171 30.8008 67.6939 31.1123 67.6939 31.4006C67.6939 31.9006 67.494 32.3005 67.094 32.6005C66.794 32.9005 66.3941 33.1005 65.8941 33.1005C65.4942 33.1005 64.9942 32.9005 64.6942 32.6005C64.3943 32.3005 64.1943 31.9006 64.0943 31.4006C63.9943 30.8007 63.9943 30.2007 63.9943 29.4008C63.9943 28.6009 63.9943 27.901 64.0943 27.301C64.1943 26.8011 64.3943 26.4011 64.6942 26.1011C64.9942 25.8011 65.3942 25.6012 65.8941 25.6012C66.3941 25.6012 66.794 25.8011 67.094 26.1011C67.394 26.4011 67.594 26.8011 67.6939 27.301C67.7939 27.801 67.7939 28.5009 67.7939 29.4008C67.7939 29.7643 67.767 30.1277 67.7411 30.4772ZM73.3937 35.3007C73.2937 35.3007 73.2937 35.3007 73.1937 35.2007C73.1937 35.1507 73.1687 35.1257 73.1437 35.1007C73.1187 35.0757 73.0938 35.0507 73.0938 35.0007V19.5021C73.0938 19.4596 73.0938 19.4352 73.1014 19.4135C73.1118 19.3841 73.1362 19.3596 73.1937 19.3021C73.2937 19.2021 73.2937 19.2021 73.3937 19.2021H78.1933C79.6931 19.2021 80.893 19.6021 81.793 20.402C82.6929 21.202 83.1928 22.3019 83.1928 23.7017V30.7011C83.1928 32.101 82.6929 33.2009 81.793 34.0008C80.893 34.8007 79.6931 35.2007 78.1933 35.2007H73.3937V35.3007ZM75.6935 32.9009C75.6935 33.0009 75.6935 33.0009 75.7935 33.0009H78.0933C78.7932 33.0009 79.2932 32.8009 79.6931 32.3009C80.0931 31.801 80.2931 31.201 80.2931 30.4011V24.0017C80.2931 23.2018 80.0931 22.6018 79.6931 22.1019C79.2932 21.6019 78.7932 21.4019 78.0933 21.4019H75.7935C75.6935 21.4019 75.6935 21.4019 75.6935 21.5019V32.9009ZM91.8913 23.9013C91.1914 23.6013 90.4915 23.4014 89.5915 23.4014C88.3917 23.4014 87.2918 23.7013 86.5918 24.3013C85.6919 24.9012 85.2919 25.7012 85.1919 26.7011C85.1301 26.7629 85.1447 26.7865 85.1649 26.8191C85.1774 26.8392 85.1919 26.8629 85.1919 26.901C85.2919 27.001 85.2919 27.001 85.3919 27.001L87.5917 27.101C87.6917 27.101 87.8917 27.001 87.8917 26.8011C87.8917 26.5011 88.0917 26.2011 88.3917 26.0011C88.6916 25.8011 89.0916 25.7012 89.4916 25.7012C90.0915 25.7012 90.4915 25.9011 90.7914 26.2011C91.0914 26.5011 91.2914 26.901 91.2914 27.501V28.1009C91.2914 28.2009 91.2914 28.2009 91.1914 28.2009H89.3916C87.9917 28.2009 86.7918 28.5009 85.9919 29.1008C85.192 29.7008 84.792 30.7007 84.792 32.0006C84.792 33.3005 85.192 34.1004 85.8919 34.7003C86.5918 35.2003 87.4917 35.5003 88.4916 35.5003C89.6915 35.5003 90.6914 35.1003 91.2914 34.4004H91.3914V34.5003V35.1003C91.3914 35.1503 91.4164 35.1753 91.4414 35.2003C91.4664 35.2253 91.4914 35.2503 91.4914 35.3003L91.4914 35.3003L91.4914 35.3003C91.5489 35.3578 91.5733 35.3822 91.6027 35.3926C91.6244 35.4003 91.6489 35.4003 91.6913 35.4003H93.7912C93.8912 35.4003 93.9911 35.3003 93.9911 35.3003C94.0911 35.2003 94.0911 35.2003 94.0911 35.1003V27.301C94.0911 26.6011 93.8912 25.9011 93.4912 25.3012C93.0912 24.7012 92.5913 24.2013 91.8913 23.9013ZM90.6914 32.9005C90.1915 33.2005 89.6915 33.4004 89.0916 33.4004C88.6916 33.4004 88.2917 33.2005 87.9917 33.0005C87.6917 32.8005 87.5917 32.4005 87.5917 31.9006C87.5917 31.3006 87.7917 30.9007 88.1917 30.6007C88.5916 30.3007 89.0916 30.2007 89.7915 30.2007H91.2914C91.3414 30.2007 91.3664 30.2007 91.3789 30.2132C91.3914 30.2257 91.3914 30.2507 91.3914 30.3007V30.3007V31.5006C91.3914 32.1006 91.0914 32.5005 90.6914 32.9005ZM101.69 25.5015C101.69 25.5015 101.59 25.6015 101.49 25.6015H99.5906C99.4906 25.6015 99.4906 25.6015 99.4906 25.7015V31.5009C99.4906 32.1009 99.5906 32.5008 99.7906 32.7008C99.9906 32.9008 100.391 33.0008 100.89 33.0008H101.29C101.39 33.0008 101.39 33.0008 101.49 33.1008C101.59 33.1008 101.59 33.2008 101.59 33.3008V35.1006C101.59 35.3006 101.49 35.4006 101.29 35.4006H100.291C99.1907 35.4006 98.2907 35.2006 97.6908 34.8006C97.0908 34.4007 96.7909 33.6007 96.7909 32.5008V25.7015C96.7909 25.6015 96.7909 25.6015 96.6909 25.6015H95.591C95.5485 25.6015 95.5241 25.6015 95.5023 25.5938C95.4729 25.5834 95.4485 25.559 95.391 25.5015C95.391 25.4515 95.366 25.4265 95.341 25.4015C95.316 25.3765 95.291 25.3515 95.291 25.3015V23.8016C95.291 23.7592 95.291 23.7347 95.2987 23.713C95.3091 23.6836 95.3335 23.6592 95.391 23.6017C95.491 23.5017 95.491 23.5017 95.591 23.5017H96.6909C96.7909 23.5017 96.7909 23.5017 96.7909 23.4017V20.8019C96.7909 20.7594 96.7909 20.735 96.7986 20.7133C96.8089 20.6839 96.8334 20.6594 96.8909 20.6019C96.9909 20.502 96.9909 20.502 97.0908 20.502H99.0907C99.1907 20.502 99.1907 20.502 99.2906 20.6019C99.3906 20.6019 99.3906 20.7019 99.3906 20.8019V23.4017C99.3906 23.5017 99.3906 23.5017 99.4906 23.5017H101.39C101.49 23.5017 101.49 23.5017 101.59 23.6017C101.69 23.6017 101.69 23.7017 101.69 23.8016V25.3015H101.79C101.79 25.4015 101.79 25.4015 101.69 25.5015ZM110.29 23.9013C109.69 23.6013 108.89 23.4014 107.99 23.4014C106.79 23.4014 105.79 23.7013 104.99 24.3013C104.09 24.9012 103.69 25.7012 103.59 26.7011C103.529 26.7629 103.543 26.7865 103.563 26.8191C103.576 26.8392 103.59 26.8629 103.59 26.901C103.69 27.001 103.69 27.001 103.79 27.001L105.99 27.101C106.09 27.101 106.29 27.001 106.29 26.8011C106.29 26.5011 106.49 26.2011 106.79 26.0011C107.09 25.8011 107.49 25.7012 107.89 25.7012C108.49 25.7012 108.89 25.9011 109.19 26.2011C109.49 26.5011 109.69 26.901 109.69 27.501V28.1009C109.69 28.2009 109.69 28.2009 109.59 28.2009H107.79C106.39 28.2009 105.19 28.5009 104.39 29.1008C103.59 29.7008 103.19 30.7007 103.19 32.0006C103.19 33.3005 103.59 34.1004 104.29 34.7003C104.99 35.2003 105.89 35.5003 106.89 35.5003C108.09 35.5003 109.09 35.1003 109.69 34.4004H109.79V34.5003V35.1003C109.79 35.1503 109.815 35.1753 109.84 35.2003C109.865 35.2253 109.89 35.2503 109.89 35.3003C109.947 35.3578 109.972 35.3822 110.001 35.3926C110.023 35.4003 110.047 35.4003 110.09 35.4003H112.19C112.29 35.4003 112.39 35.3003 112.39 35.3003C112.447 35.2428 112.472 35.2183 112.482 35.1889C112.49 35.1672 112.49 35.1428 112.49 35.1003V27.301C112.49 26.6011 112.29 25.9011 111.89 25.3012C111.49 24.7012 110.99 24.2013 110.29 23.9013ZM109.19 32.9005C108.69 33.2005 108.19 33.4004 107.59 33.4004C107.09 33.4004 106.69 33.2005 106.49 33.0005C106.19 32.8005 106.09 32.4005 106.09 31.9006C106.09 31.3006 106.29 30.9007 106.69 30.6007C107.09 30.3007 107.59 30.2007 108.29 30.2007H109.79C109.84 30.2007 109.865 30.2007 109.877 30.2132C109.89 30.2257 109.89 30.2507 109.89 30.3007V31.5006C109.89 32.1006 109.59 32.5005 109.19 32.9005Z" fill="white"/>
</svg>
