<?xml version="1.0" encoding="UTF-8"?>
<svg width="24px" height="24px" viewBox="0 0 24 24" version="1.1" xmlns="http://www.w3.org/2000/svg" xmlns:xlink="http://www.w3.org/1999/xlink">
    <title>夜间</title>
    <g id="组件/弹窗/导航" stroke="none" stroke-width="1" fill="none" fill-rule="evenodd">
        <g id="H5语言-Light" transform="translate(-301.000000, -98.000000)">
            <g id="编组-4" transform="translate(0.000000, 88.000000)">
                <g id="夜间" transform="translate(301.000000, 10.000000)">
                    <rect id="矩形" x="0" y="0" width="24" height="24"></rect>
                    <path d="M11.9821134,20.4022358 C7.58424275,20.4022358 3.97785467,17.0283737 3.6,12.7311153 C3.62235826,12.3152515 3.95996806,11.9843492 4.38030343,11.9843492 C4.62177269,11.9843492 4.83864786,12.0916689 4.98174075,12.2615917 C4.9862124,12.2682992 4.99291988,12.2638275 4.99291988,12.2459409 C5.92302369,13.2341762 7.23992547,13.8535001 8.70662763,13.8535001 C11.5483631,13.8535001 13.8512643,11.5505989 13.8512643,8.70886345 C13.8512643,7.23098217 13.2252329,5.91184456 12.2280543,4.97950492 C12.2302901,4.9772691 12.2392334,4.9772691 12.2347618,4.97279744 C12.0782539,4.82746873 11.9798776,4.62177269 11.9798776,4.38924674 C11.9798776,3.96443971 12.3130157,3.62682992 12.7333511,3.6 C17.0283737,3.98232632 20.4,7.58647857 20.4,11.9843492 C20.4,16.6348682 16.6326324,20.4022358 11.9821134,20.4022358 Z" id="路径" fill="#000000" fill-rule="nonzero" transform="translate(12.000000, 12.001118) scale(-1, 1) translate(-12.000000, -12.001118) "></path>
                </g>
            </g>
        </g>
    </g>
</svg>