<?xml version="1.0" encoding="UTF-8"?>
<svg width="85px" height="85px" viewBox="0 0 85 85" version="1.1" xmlns="http://www.w3.org/2000/svg" xmlns:xlink="http://www.w3.org/1999/xlink">
    <title>MDX1</title>
    <g id="锁仓" stroke="none" stroke-width="1" fill="none" fill-rule="evenodd">
        <g id="HECO锁仓-Light" transform="translate(-435.000000, -414.000000)">
            <g id="编组-23" transform="translate(360.000000, 370.000000)">
                <g id="编组-7" transform="translate(75.000000, 42.000000)">
                    <g id="MDX1" transform="translate(0.000000, 2.000000)">
                        <circle id="椭圆形" fill="#1C255F" cx="42.5" cy="42.5" r="42.5"></circle>
                        <g id="编组-2" transform="translate(17.000000, 23.375000)">
                            <path d="M0.00629126952,33.8848558 C0.00629126952,37.3218407 3.08911746,40.0714286 6.83850067,40.0714286 L7.50505769,40.0714286 L7.33841843,11.5826429 C7.33841843,10.5897362 7.58837731,9.74958431 8.08829508,8.9858099 C8.58821284,8.22203548 9.33808948,7.68739339 10.337925,7.22912874 C11.3377605,6.84724153 12.337596,6.69448665 13.2541119,6.84724153 C14.1706278,7 15.0871437,7.38188363 15.8370204,8.0692806 L28.0016859,18.0747254 C28.0850055,18.1511029 28.5849233,18.5329901 29.0015214,18.9148773 C30.2513158,19.907784 30.9178728,20.4424261 30.9178728,22.0463524 C30.9178728,23.4211463 30.3346354,24.6431854 29.3347999,25.5597147 C28.3349644,26.476244 27.0018504,27.0108861 25.5020971,27.0108861 C24.0023438,27.0108861 22.6692298,26.476244 21.6693943,25.5597147 C20.6695587,24.6431854 20.0863213,23.4211463 20.0863213,22.0463524 C20.0863213,20.3660487 20.836198,19.7550291 22.169312,18.685745 C22.3359513,18.5329901 23.3357868,17.6928382 23.7523849,17.3873285 L18.1699699,12.804682 L17.1701344,13.6448338 C14.1706278,16.088912 12.5875549,17.3873285 12.5875549,22.1227298 C12.5875549,25.4069598 14.0039886,28.3093026 16.3369381,30.4478709 C18.6698877,32.5864393 21.9193531,33.8848558 25.4187775,33.8848558 C29.0015214,33.8848558 32.1676672,32.5864393 34.5006168,30.4478709 C36.8335663,28.3093026 38.25,25.3305824 38.25,22.1227298 C38.25,17.4637059 36.5836075,16.088912 33.6674205,13.8739661 C33.5007813,13.7212113 33.334142,13.5684564 32.7509046,13.1101917 L20.836198,2.95199202 C19.0031662,1.42444319 16.7535363,0.431536452 14.4205867,0.126026686 C12.0876372,-0.17948308 9.67136799,0.0496492446 7.33841843,1.04255598 C5.00546888,1.95908528 3.17243709,3.48663411 1.92264269,5.31969271 C0.672848284,7.1527513 -0.0770283573,9.29131966 0.00629126952,11.5826429 L0.00629126952,33.8848558 L0.00629126952,33.8848558 Z" id="路径" fill="#FFFFFF"></path>
                            <path d="M33.6136364,9.35891325 L35.1038961,8.06012529 C35.849026,7.37253166 36.7597403,6.9905352 37.6704545,6.83773662 C38.5811688,6.68493804 39.5746753,6.83773662 40.5681818,7.21973308 C41.4788961,7.60172954 42.224026,8.21292387 42.8035714,8.97691679 C43.3003247,9.74090971 43.6314935,10.5813019 43.5487013,11.5744927 L43.3831169,40.0714286 L44.0454545,40.0714286 C47.7711039,40.0714286 50.7516234,37.3210541 50.8344156,33.8830859 L51,11.5744927 C51,9.28251396 50.3376623,7.0669345 49.0957792,5.30975078 C47.8538961,3.47616778 45.9496753,2.02458123 43.7142857,1.03139044 C41.3961039,0.114598938 38.9951299,-0.19099823 36.6769481,0.114598938 C34.3587662,0.420196105 32.1233766,1.4133869 30.3019481,2.94137274 L28.8116883,4.2401607 L27.3214286,5.53894866 L32.8685065,10.1229062 L33.6136364,9.35891325 Z" id="路径" fill="#4CA9DC"></path>
                        </g>
                    </g>
                </g>
            </g>
        </g>
    </g>
</svg>