<?xml version="1.0" encoding="UTF-8"?>
<svg width="30px" height="30px" viewBox="0 0 30 30" version="1.1" xmlns="http://www.w3.org/2000/svg" xmlns:xlink="http://www.w3.org/1999/xlink">
    <title>锁仓中</title>
    <g id="锁仓" stroke="none" stroke-width="1" fill="none" fill-rule="evenodd">
        <g id="HECO锁仓-Light" transform="translate(-480.000000, -1273.000000)">
            <g id="编组-23" transform="translate(360.000000, 370.000000)">
                <g id="编组-19备份-2" transform="translate(0.000000, 494.000000)">
                    <g id="编组-18" transform="translate(75.000000, 252.000000)">
                        <g id="编组-16" transform="translate(0.000000, 52.000000)">
                            <g id="编组-14" transform="translate(0.000000, 80.000000)">
                                <g id="锁仓中" transform="translate(45.000000, 25.000000)">
                                    <rect id="矩形" x="0" y="0" width="30" height="30"></rect>
                                    <g id="编组-6" transform="translate(6.666667, 5.000000)">
                                        <path d="M3.33333333,8.16666667 L3.33333333,5 C3.33333333,2.23857625 5.57190958,0 8.33333333,0 C11.0947571,0 13.3333333,2.23857625 13.3333333,5 L13.3333333,8.16666667" id="路径" stroke="#2C72F4" stroke-width="2.17573222" stroke-linecap="round"></path>
                                        <path d="M13.3193863,8.16666667 C15.1680382,8.16666667 16.6666667,9.66529512 16.6666667,11.513947 L16.6666667,18.1527197 C16.6666667,20.0013715 15.1680382,21.5 13.3193863,21.5 L3.34728033,21.5 C1.49862845,21.5 1.49145012e-15,20.0013715 0,18.1527197 L0,11.513947 C2.17694649e-16,9.66529512 1.49862845,8.16666667 3.34728033,8.16666667 L13.3193863,8.16666667 Z M8.35557125,11.5772954 C7.38327241,11.5772954 6.55,12.4066906 6.55,13.4431299 C6.55,14.0650378 6.82772054,14.5489163 7.24435675,14.894433 C7.31381458,14.894433 7.38316163,14.9636692 7.38316163,15.032684 L7.38316163,16.4148615 C7.38316163,17.8661646 7.79990861,18.0044156 8.35546047,18.0044156 C8.91101233,18.0044156 9.32764854,17.7970391 9.32764854,16.4148615 L9.32764854,15.032684 C9.32775931,15.032684 9.39721714,14.9636692 9.46667498,14.9636692 C9.8832004,14.6180418 10.2306003,14.1343848 10.1610317,13.4431299 C10.1610317,12.4068013 9.32787009,11.5772954 8.35557125,11.5772954 Z" id="形状结合" fill="#2C72F4"></path>
                                    </g>
                                </g>
                            </g>
                        </g>
                    </g>
                </g>
            </g>
        </g>
    </g>
</svg>