<svg width="48" height="48" viewBox="0 0 48 48" fill="none" xmlns="http://www.w3.org/2000/svg">
<path d="M0 0H48V18C48 34.5685 34.5685 48 18 48H0V0Z" fill="#0572FF" fill-opacity="0.16"/>
<mask id="mask0_112_50209" style="mask-type:luminance" maskUnits="userSpaceOnUse" x="8" y="8" width="32" height="32">
<rect x="8" y="7.99997" width="32.0002" height="32.0001" fill="white"/>
</mask>
<g mask="url(#mask0_112_50209)">
<path d="M23.7693 9.35663C28.2174 9.35663 31.8444 12.9391 31.9165 17.3702L31.9176 17.5048V22.3149H28.4254V17.5048C28.4254 14.9631 26.3782 12.8905 23.8462 12.8493L23.7693 12.8487C21.2276 12.8487 19.155 14.8959 19.1138 17.4279L19.1132 17.5048V22.3149H15.6211V17.5048C15.6211 13.0118 19.2763 9.35663 23.7693 9.35663Z" fill="#3794F7" fill-opacity="0.8"/>
<path d="M13.2388 23.4245C13.2388 21.4408 14.8469 19.8327 16.8306 19.8327H30.5995C32.5833 19.8327 34.1914 21.4408 34.1914 23.4245V33.1524C34.1914 35.6321 32.1812 37.6422 29.7016 37.6422H17.7286C15.2489 37.6422 13.2388 35.6321 13.2388 33.1524V23.4245Z" fill="#2C72F4"/>
<path d="M25.4579 32.1546C25.4761 32.3189 25.4233 32.4837 25.313 32.6071C25.2027 32.7304 25.0447 32.8009 24.8793 32.8009H22.5512C22.3858 32.8009 22.2278 32.7304 22.1175 32.6071C22.0073 32.4838 21.9544 32.3189 21.9726 32.1546L22.3398 28.853C21.7436 28.4193 21.3872 27.7333 21.3872 26.9807C21.3872 25.6968 22.4313 24.6527 23.7153 24.6527C24.9993 24.6527 26.0434 25.6968 26.0434 26.9807C26.0434 27.7333 25.687 28.4193 25.0908 28.853L25.4579 32.1546Z" fill="white"/>
</g>
</svg>
