<?xml version="1.0" encoding="UTF-8"?>
<svg width="56px" height="56px" viewBox="0 0 56 56" version="1.1" xmlns="http://www.w3.org/2000/svg" xmlns:xlink="http://www.w3.org/1999/xlink">
    <title>单挖备份</title>
    <defs>
        <rect id="lock-1" x="0" y="0" width="37.3333333" height="37.3333333"></rect>
    </defs>
    <g id="ETH" stroke="none" stroke-width="1" fill="none" fill-rule="evenodd">
        <g id="ETH董事会-列表-Dark" transform="translate(-360.000000, -870.000000)">
            <g id="编组-4" transform="translate(360.000000, 400.000000)">
                <g id="单挖备份" transform="translate(0.000000, 470.000000)">
                    <path d="M40,0 L56,0 L56,0 L56,16 C56,38.09139 38.09139,56 16,56 L0,56 L0,56 L0,40 C-2.705415e-15,17.90861 17.90861,4.05812251e-15 40,0 Z" id="矩形" fill-opacity="0.16" fill="#0572FF"></path>
                    <g id="solid" transform="translate(9.333333, 9.333333)">
                        <mask id="lock-2" fill="white">
                            <use xlink:href="#lock-1"></use>
                        </mask>
                        <g id="蒙版"></g>
                        <g id="编组-20" mask="url(#lock-2)">
                            <g transform="translate(5.833333, 2.333333)">
                                <path d="M11.7274306,0 C16.6809368,0 20.7199808,3.98956852 20.8002664,8.9242324 L20.8014844,9.07405382 L20.8014844,14.4307896 L16.9125955,14.4307896 L16.9125955,9.07405382 C16.9125955,6.24358194 14.6327825,3.93546423 11.8130407,3.88958493 L11.7274306,3.88888889 C8.89695868,3.88888889 6.58884097,6.16870188 6.54296166,8.98844363 L6.54226562,9.07405382 L6.54226562,14.4307896 L2.65337674,14.4307896 L2.65337674,9.07405382 C2.65337674,4.07057292 6.72388889,0 11.7274306,0 Z" id="路径" fill-opacity="0.8" fill="#3794F7" fill-rule="nonzero"></path>
                                <path d="M4,11.6666667 L19.3333333,11.6666667 C21.5424723,11.6666667 23.3333333,13.4575277 23.3333333,15.6666667 L23.3333333,26.5 C23.3333333,29.2614237 21.0947571,31.5 18.3333333,31.5 L5,31.5 C2.23857625,31.5 -5.50001544e-16,29.2614237 0,26.5 L0,15.6666667 C-2.705415e-16,13.4575277 1.790861,11.6666667 4,11.6666667 Z" id="矩形" fill="#2C72F4" fill-rule="evenodd"></path>
                                <path d="M13.6073437,25.3885503 C13.6275781,25.5714497 13.5687587,25.7550174 13.4459549,25.8924045 C13.323151,26.0297309 13.1471788,26.1082378 12.9630035,26.1082378 L10.3703906,26.1082378 C10.1862153,26.1082378 10.0102431,26.0297309 9.88743924,25.8924045 C9.76463542,25.7550781 9.70575521,25.5715104 9.72605035,25.3885503 L10.1349306,21.7117274 C9.47096354,21.228776 9.07411458,20.4647917 9.07411458,19.6267361 C9.07411458,18.196901 10.2368316,17.0341233 11.6667274,17.0341233 C13.0966233,17.0341233 14.2593403,18.1968403 14.2593403,19.6267361 C14.2593403,20.4647917 13.8624913,21.228776 13.1985243,21.7117274 L13.6073437,25.3885503 Z" id="路径" fill="#FFFFFF" fill-rule="nonzero"></path>
                            </g>
                        </g>
                    </g>
                </g>
            </g>
        </g>
    </g>
</svg>