<?xml version="1.0" encoding="UTF-8"?>
<svg width="172px" height="43px" viewBox="0 0 172 43" version="1.1" xmlns="http://www.w3.org/2000/svg" xmlns:xlink="http://www.w3.org/1999/xlink">
    <title>灵踪</title>
    <defs>
        <filter color-interpolation-filters="auto" id="filter-1">
            <feColorMatrix in="SourceGraphic" type="matrix" values="0 0 0 0 0.000000 0 0 0 0 0.490943 0 0 0 0 0.524570 0 0 0 1.000000 0"></feColorMatrix>
        </filter>
    </defs>
    <g id="HECO" stroke="none" stroke-width="1" fill="none" fill-rule="evenodd">
        <g id="合作伙伴" transform="translate(-2535.000000, -1147.000000)">
            <g id="编组-2备份-4" transform="translate(1920.000000, 903.000000)">
                <g id="编组-8" transform="translate(360.000000, 100.000000)">
                    <g id="灵踪" transform="translate(255.000000, 144.000000)">
                        <rect id="矩形" x="0" y="0" width="172" height="43"></rect>
                        <g filter="url(#filter-1)" id="编组">
                            <g transform="translate(0.000000, 1.000000)">
                                <path d="M106.4696,14.3635271 L108.716069,9.42065138 L111.66461,9.42065138 L121.773922,9.42065138 L124.020592,14.3635271 L121.112296,14.3635271 L119.747995,11.3658875 L110.762119,11.3658875 L109.377896,14.3635271 L106.4696,14.3635271 Z M123.699639,25.9204469 L106.830597,25.9204469 L106.830597,23.6548616 L113.871035,23.6548616 L113.871035,21.6182696 L107.572712,21.6182696 L107.572712,19.3524831 L113.871035,19.3524831 L113.871035,17.6133008 L107.111305,17.6133008 L107.111305,15.3477155 L123.398808,15.3477155 L123.398808,17.6133008 L116.6592,17.6133008 L116.6592,19.3524831 L122.957725,19.3524831 L122.957725,21.6182696 L116.6592,21.6182696 L116.6592,23.6548616 L123.699639,23.6548616 L123.699639,25.9204469 Z M98.5860314,15.5537693 L98.5860314,14.1119966 L99.6692222,14.1119966 L99.6692222,13.6771507 C99.6692222,13.4789447 99.6088549,13.3111235 99.4887239,13.1736873 C99.3681905,13.036251 99.2212967,12.9676335 99.0474389,12.9676335 L87.4534938,12.9676335 L87.4534938,14.1119966 L88.556807,14.1119966 L88.556807,15.5537693 L98.5860314,15.5537693 Z M98.5860314,17.8191533 L88.556807,17.8191533 L88.556807,19.3754227 C89.3991323,19.7722372 90.2315976,20.1457096 91.0540016,20.4966449 C91.8764056,20.8475803 92.7088709,21.1757772 93.5513974,21.4806322 C94.3939239,21.1757772 95.2330295,20.8475803 96.0685131,20.4966449 C96.9043992,20.1457096 97.7437061,19.7722372 98.5860314,19.3754227 L98.5860314,17.8191533 Z M101.374196,14.9128696 L101.374196,15.5537693 L102.457387,15.5537693 L102.457387,17.8191533 L101.374196,17.8191533 L101.374196,18.0022675 L101.374196,20.6111416 C100.72887,21.0079561 100.083946,21.3776053 99.4386191,21.7210953 C98.7932925,22.0645853 98.1346851,22.3885566 97.4627969,22.6936127 C98.2918413,22.907313 99.1208858,23.090226 99.9499302,23.2429553 C100.779176,23.3956846 101.614861,23.50998 102.457387,23.5862441 L102.457387,25.9204469 C99.3551109,25.6610687 96.3928868,25.0813412 93.5713186,24.1812646 C92.1406132,24.6388488 90.6863647,25.0125225 89.2085728,25.3024868 C87.730781,25.5924511 86.2232079,25.7985049 84.6854512,25.9204469 L84.6854512,23.5862441 C85.5279777,23.50998 86.3602417,23.3956846 87.1826457,23.2429553 C88.0050498,23.090226 88.837515,22.907313 89.6800415,22.6936127 C88.9980921,22.3885566 88.3360639,22.0645853 87.6941581,21.7210953 C87.0522523,21.3776053 86.4105478,21.0079561 85.768642,20.6111416 L85.768642,17.8191533 L84.6854512,17.8191533 L84.6854512,15.5537693 L85.768642,15.5537693 L85.768642,14.9128696 L84.6854512,14.9128696 L84.6854512,10.7022495 L92.1070088,10.7022495 L91.6055576,9.42065138 L94.6545094,9.42065138 L95.1358381,10.7022495 L100.250962,10.7022495 C100.545152,10.7022495 100.826061,10.7670437 101.093488,10.8966322 C101.360714,11.0264219 101.594738,11.2057129 101.795359,11.4343037 C101.99598,11.6632971 102.156557,11.9303218 102.276688,12.2355792 C102.397221,12.5404342 102.457387,12.8684299 102.457387,13.2193652 L102.457387,14.9128696 L101.374196,14.9128696 Z M65.669546,14.1347349 L66.6456855,14.1347349 C66.8197446,14.1347349 66.9700592,14.0661174 67.0903914,13.9288824 C67.2141444,13.7916474 67.2741092,13.6161797 67.2741092,13.4024794 L67.2741092,11.7775925 L65.669546,11.7775925 L65.669546,14.1347349 Z M69.3002375,25.2109297 L63.0419581,25.9204469 L63.0419581,23.9065933 L63.4027534,23.8609153 L63.4027534,16.6751927 L65.4087592,16.6751927 L65.4087592,23.6321232 L65.8301231,23.5862441 L65.8301231,15.9654743 L63.2826224,15.9654743 L63.2826224,9.87823562 L69.6612341,9.87823562 L69.6612341,13.4483586 C69.6612341,13.9977011 69.5207794,14.4894935 69.2398702,14.9243394 C68.9591622,15.3589841 68.5979644,15.6604182 68.1568806,15.8282393 L68.1568806,17.9565896 L69.4807358,17.9565896 L69.4807358,20.2221749 L68.1568806,20.2221749 L68.1568806,23.311774 L69.3002375,23.1741365 L69.3002375,25.2109297 Z M78.5471015,10.2215244 C78.8412915,10.2215244 79.1222007,10.2863187 79.3896279,10.4161084 C79.6572564,10.5458981 79.8910791,10.725189 80.0914986,10.9539812 C80.2923205,11.1825721 80.4492755,11.449798 80.5629673,11.7548542 C80.6768603,12.0599103 80.7334044,12.3804608 80.7334044,12.7159018 L80.7334044,13.7000903 L78.4867342,13.7000903 L78.4867342,12.6014052 C78.4867342,12.4034004 78.4267693,12.2355792 78.3064371,12.098143 C78.1863062,11.960908 78.0323695,11.8920892 77.8452308,11.8920892 L72.2689008,11.8920892 L72.2689008,13.7000903 L70.0222306,13.7000903 L70.0222306,10.2215244 L73.9336301,10.2215244 L73.6327997,9.44359096 L76.6415066,9.44359096 L76.942337,10.2215244 L78.5471015,10.2215244 Z M80.7334044,25.2795472 L79.7105808,20.8399337 L77.4437882,20.8399337 L78.4468917,25.2795472 L80.7334044,25.2795472 Z M72.1483674,25.2795472 L73.1713922,20.8399337 L70.8848795,20.8399337 L70.0222306,25.2795472 L72.1483674,25.2795472 Z M80.7334044,19.8332082 L76.6817515,19.8332082 L76.6817515,23.7920966 C76.6817515,24.0820609 76.6316466,24.3567322 76.5314369,24.6159092 C76.4310259,24.8752874 76.2972117,25.1002563 76.1299942,25.291017 C75.962978,25.4817777 75.7623573,25.634507 75.5281321,25.7488025 C75.2943094,25.8630979 75.0502242,25.9204469 74.7960778,25.9204469 L72.3089445,25.9204469 L73.05106,24.3414392 L73.3118468,24.3414392 C73.4857046,24.3414392 73.6362205,24.2728217 73.7631931,24.1353854 C73.8899644,23.9981504 73.9537525,23.8303292 73.9537525,23.6321232 L73.9537525,19.8332082 L70.0222306,19.8332082 L70.0222306,17.7505358 L80.7334044,17.7505358 L80.7334044,19.8332082 Z M70.4232708,16.5834344 L80.3321629,16.5834344 L80.3321629,14.5237017 L70.4232708,14.5237017 L70.4232708,16.5834344 Z M41.398465,25.9204469 L46.0719012,25.9204469 L50.5249967,22.167411 L54.5766496,25.9204469 L59.009824,25.9204469 L54.4565187,21.6868871 L57.324771,21.6868871 L58.9293342,18.9178384 L55.84054,18.9178384 L54.3158628,21.5496521 L53.9150239,21.1834237 L51.7083973,21.1834237 L52.0492714,20.8628733 L52.0492714,18.2081201 L58.3477957,18.2081201 L58.3477957,16.4005215 L58.3477957,15.9429372 L58.3477957,11.9379684 C58.3477957,11.5870331 58.2910505,11.2588361 58.1771575,10.9539812 C58.0636669,10.6487238 57.9067119,10.381699 57.70589,10.1529069 C57.5052693,9.92411478 57.2714465,9.74502508 57.0038181,9.61503413 C56.7363909,9.48544563 56.4488413,9.42065138 56.1413704,9.42065138 L42.060292,9.42065138 L42.060292,11.6862367 L54.9378474,11.6862367 C55.111504,11.6862367 55.2585991,11.7548542 55.3793337,11.8920892 C55.4994646,12.0295255 55.5596307,12.1973466 55.5596307,12.3957538 L55.5596307,12.9446939 L42.060292,12.9446939 L42.060292,14.7070171 L55.5596307,14.7070171 L55.5596307,15.9429372 L42.060292,15.9429372 L42.060292,18.2081201 L48.4391048,18.2081201 L48.4391048,19.8788861 L41.398465,25.9204469 Z M46.1318661,21.6868871 L43.0432731,21.6868871 L41.4584298,18.9178384 L44.5474253,18.9178384 L46.1318661,21.6868871 Z" id="Fill-1" fill="#00494E"></path>
                                <path d="M115.501114,32.5421174 L115.501114,33.613436 L111.91771,33.613436 L111.91771,36.089502 L110.648185,36.089502 L110.648185,32.9562372 C110.654222,32.0557581 110.738133,31.4645609 110.90032,31.1824443 C111.104361,30.7862335 111.400161,30.5041169 111.787115,30.3360946 C112.174271,30.167871 112.718985,30.0839604 113.42146,30.0839604 L115.501114,30.0839604 L115.501114,31.1554802 L113.583244,31.1554802 C112.989029,31.1673525 112.60791,31.2154451 112.439887,31.2995569 C112.103843,31.4375968 111.929582,31.7436591 111.91771,32.2177437 L111.91771,32.5421174 L115.501114,32.5421174 Z M105.966298,31.0564778 C105.377918,31.0564778 104.957761,31.2482447 104.705627,31.6325832 C104.501585,31.93281 104.399565,32.4159497 104.399565,33.0824049 C104.399565,33.7844768 104.525732,34.3006173 104.777867,34.6308265 C105.029799,34.954999 105.429029,35.1171858 105.975353,35.1171858 C106.503567,35.1171858 106.892131,34.9521818 107.141247,34.6217714 C107.390363,34.2915622 107.514921,33.7814584 107.514921,33.0912588 C107.514921,32.461024 107.4129,31.9807014 107.208858,31.6504922 C106.974633,31.2605194 106.560513,31.0623133 105.966298,31.0564778 L105.966298,31.0564778 Z M105.957243,30.0479412 C106.557495,30.0479412 107.085709,30.149962 107.541885,30.3542047 C108.076135,30.6003022 108.451218,31.0114036 108.667333,31.5877102 C108.835355,32.0376479 108.919467,32.5658619 108.919467,33.1723522 C108.919467,33.7844768 108.817446,34.3157091 108.613404,34.7660493 C108.355234,35.3000988 107.959224,35.6753823 107.424772,35.8914972 C107.028762,36.0474461 106.572386,36.1255212 106.056245,36.1255212 C105.377918,36.1255212 104.78994,35.9995547 104.291507,35.7474206 C103.871351,35.5373423 103.550197,35.2071331 103.328045,34.7569942 C103.106094,34.3068552 102.995019,33.7605311 102.995019,33.1180216 C102.995019,31.9716463 103.280153,31.1554802 103.850423,30.6691209 C104.330545,30.2610379 105.033019,30.053978 105.957243,30.0479412 L105.957243,30.0479412 Z M98.565265,31.0564778 C97.9770861,31.0564778 97.5567284,31.2482447 97.3045943,31.6325832 C97.1005527,31.93281 96.998532,32.4159497 96.998532,33.0824049 C96.998532,33.7844768 97.1246997,34.3006173 97.3768338,34.6308265 C97.6287667,34.954999 98.0279959,35.1171858 98.5741189,35.1171858 C99.1025341,35.1171858 99.4910984,34.9521818 99.7402142,34.6217714 C99.9893299,34.2915622 100.113687,33.7814584 100.113687,33.0912588 C100.113687,32.461024 100.011867,31.9807014 99.8078256,31.6504922 C99.5736004,31.2605194 99.1594806,31.0623133 98.565265,31.0564778 L98.565265,31.0564778 Z M98.5562099,30.0479412 C99.156261,30.0479412 99.6846762,30.149962 100.140852,30.3542047 C100.675103,30.6003022 101.050386,31.0114036 101.2663,31.5877102 C101.434322,32.0376479 101.518434,32.5658619 101.518434,33.1723522 C101.518434,33.7844768 101.416413,34.3157091 101.212372,34.7660493 C100.954201,35.3000988 100.558191,35.6753823 100.023739,35.8914972 C99.6277297,36.0474461 99.1715541,36.1255212 98.6552123,36.1255212 C97.9770861,36.1255212 97.3887061,35.9995547 96.8906757,35.7474206 C96.470318,35.5373423 96.1491639,35.2071331 95.9270122,34.7569942 C95.7050617,34.3068552 95.5937846,33.7605311 95.5937846,33.1180216 C95.5937846,31.9716463 95.8791208,31.1554802 96.4493907,30.6691209 C96.929512,30.2610379 97.6319863,30.053978 98.5562099,30.0479412 L98.5562099,30.0479412 Z M89.8675424,32.739921 L91.6592443,32.739921 C91.9594711,32.739921 92.1725677,32.695048 92.2987354,32.6048994 C92.4905022,32.4728962 92.5866875,32.2418907 92.5866875,31.9116814 C92.5866875,31.5456543 92.4426108,31.3116303 92.1546587,31.2094084 C92.0524367,31.1733892 91.8874327,31.1554802 91.6592443,31.1554802 L89.8675424,31.1554802 L89.8675424,32.739921 Z M89.8675424,33.811642 L89.8675424,36.089502 L88.5891639,36.089502 L88.5891639,30.0839604 L91.5242227,30.0839604 C92.3645357,30.0839604 92.9498975,30.1918167 93.2801067,30.4081329 C93.5080939,30.5520083 93.6837628,30.742769 93.8067109,30.9796101 C93.9298602,31.2170549 93.9914349,31.4766343 93.9914349,31.7583485 C93.9914349,32.3288196 93.8473582,32.7701047 93.5590037,33.0824049 C93.3791091,33.2683362 93.1420667,33.4093945 92.8478767,33.5053785 C93.0819007,33.5894903 93.2589781,33.6780291 93.3791091,33.7709947 C93.4990388,33.8639604 93.6070963,34.0005917 93.7030803,34.1806876 C93.7751186,34.3247642 93.8276382,34.4628041 93.8608402,34.5948073 C93.893841,34.7268105 93.9191953,34.9219982 93.9373055,35.1799678 C93.9733247,35.6121978 94.0214173,35.9154429 94.0813821,36.089502 L92.6496707,36.089502 C92.6076148,35.9512609 92.5627418,35.6661259 92.5148503,35.2340972 C92.4846667,34.8857778 92.423092,34.618753 92.3301264,34.4328217 C92.2371607,34.2468904 92.097511,34.0995941 91.9115797,33.9917379 C91.6773545,33.8655702 91.3380902,33.8056053 90.893988,33.811642 L89.8675424,33.811642 Z M82.7997373,32.920218 L84.537511,32.920218 C84.84961,32.920218 85.0687434,32.8721254 85.1947098,32.7759402 C85.3808424,32.626028 85.4738081,32.3648388 85.4738081,31.9927749 C85.4738081,31.5905273 85.3327498,31.3323565 85.0506332,31.2184635 C84.9486124,31.1764076 84.7864256,31.1554802 84.5644751,31.1554802 L82.7997373,31.1554802 L82.7997373,32.920218 Z M82.7997373,33.9917379 L82.7997373,36.089502 L81.5213588,36.089502 L81.5213588,30.0839604 L84.5194008,30.0839604 C85.065725,30.0839604 85.4558991,30.1229979 85.689923,30.2008718 C86.0861339,30.3330762 86.3982329,30.6063389 86.6262201,31.0204587 C86.7942424,31.3323565 86.8783542,31.6716208 86.8783542,32.0376479 C86.8783542,32.3439114 86.8228163,32.6334733 86.7117404,32.906736 C86.6006646,33.1795963 86.4463255,33.4033578 86.2481195,33.5774169 C86.0680237,33.7333658 85.8774642,33.8414233 85.676441,33.9015893 C85.4752166,33.9617554 85.2007466,33.9917379 84.8524272,33.9917379 L82.7997373,33.9917379 Z M76.3710208,33.4601031 L74.1470889,30.0839604 L75.6417836,30.0839604 L77.0191645,32.4338587 L78.4687849,30.0839604 L79.9904437,30.0839604 L77.6496005,33.5053785 L77.6496005,36.089502 L76.3710208,36.089502 L76.3710208,33.4601031 Z M68.6906886,32.739921 L70.4823905,32.739921 C70.7828185,32.739921 70.9957139,32.695048 71.1218816,32.6048994 C71.3138497,32.4728962 71.4098337,32.2418907 71.4098337,31.9116814 C71.4098337,31.5456543 71.265757,31.3116303 70.9778049,31.2094084 C70.875583,31.1733892 70.7107802,31.1554802 70.4823905,31.1554802 L68.6906886,31.1554802 L68.6906886,32.739921 Z M68.6906886,33.811642 L68.6906886,36.089502 L67.4125114,36.089502 L67.4125114,30.0839604 L70.347369,30.0839604 C71.187682,30.0839604 71.7730437,30.1918167 72.1032529,30.4081329 C72.3312401,30.5520083 72.506909,30.742769 72.6298571,30.9796101 C72.7530064,31.2170549 72.8145811,31.4766343 72.8145811,31.7583485 C72.8145811,32.3288196 72.6705044,32.7701047 72.3823511,33.0824049 C72.2022553,33.2683362 71.965213,33.4093945 71.6710229,33.5053785 C71.9052481,33.5894903 72.0823256,33.6780291 72.2022553,33.7709947 C72.322185,33.8639604 72.4302425,34.0005917 72.5264278,34.1806876 C72.5982649,34.3247642 72.6507844,34.4628041 72.6839865,34.5948073 C72.7169873,34.7268105 72.7423415,34.9219982 72.7604517,35.1799678 C72.7964709,35.6121978 72.8445635,35.9154429 72.9045284,36.089502 L71.4728169,36.089502 C71.4309622,35.9512609 71.3860892,35.6661259 71.3379966,35.2340972 C71.3080141,34.8857778 71.2464395,34.618753 71.1532726,34.4328217 C71.0603069,34.2468904 70.9208584,34.0995941 70.7345247,33.9917379 C70.5005007,33.8655702 70.1612364,33.8056053 69.7171342,33.811642 L68.6906886,33.811642 Z M64.0178561,36.089502 L65.2962346,36.089502 L65.2962346,30.0839604 L64.0178561,30.0839604 L64.0178561,36.089502 Z M59.254875,31.5333796 L58.3994702,33.631345 L60.1102798,33.631345 L59.254875,31.5333796 Z M56.0314617,36.089502 L58.5165828,30.0839604 L59.9843134,30.0839604 L62.4694345,36.089502 L60.9747398,36.089502 L60.3893781,34.7028648 L58.1113168,34.7028648 L57.5261564,36.089502 L56.0314617,36.089502 Z M54.7709921,32.5421174 L54.7709921,33.613436 L51.1875884,33.613436 L51.1875884,36.089502 L49.9180638,36.089502 L49.9180638,32.9562372 C49.9241005,32.0557581 50.0080111,31.4645609 50.1701979,31.1824443 C50.3742394,30.7862335 50.669838,30.5041169 51.0569938,30.3360946 C51.4443507,30.167871 51.9888639,30.0839604 52.6913382,30.0839604 L54.7709921,30.0839604 L54.7709921,31.1554802 L52.8531226,31.1554802 C52.258907,31.1673525 51.877788,31.2154451 51.7097656,31.2995569 C51.3735197,31.4375968 51.1996618,31.7436591 51.1875884,32.2177437 L51.1875884,32.5421174 L54.7709921,32.5421174 Z" id="Fill-3" fill="#00494E"></path>
                                <path d="M9.94665166,32.5950797 C9.91586433,32.7655167 9.92391331,32.7737669 10.0683924,32.8689461 C12.1138382,34.2205702 14.7325723,35.7251249 18.0417073,38.0261257 C27.5785355,31.3957824 31.3818775,31.3744526 32.250362,22.5885937 L33.5925286,10.9535988 L33.5969555,10.915165 L33.5985653,10.9024878 C33.6277428,10.6483414 33.6549081,10.4078783 33.6808414,10.1790862 C33.68972,9.23272793 33.3506569,8.46545937 32.6063279,7.90706171 C32.0662417,8.61134704 31.3355959,9.10495045 30.190428,9.80621741 C28.0027165,11.1455669 25.2173686,12.0677782 21.9289598,12.6849334 C19.412649,13.157207 18.0795374,14.3812549 17.7503343,15.9743483 C17.7092846,16.1747678 17.6871499,16.2401657 17.9497477,16.2385559 C18.8290983,16.2327204 21.2371504,14.5971687 21.2371504,14.5971687 L19.4927363,16.5420023 C18.8105856,16.4536648 17.8606053,16.4335424 17.6167214,16.760532 C16.7208704,17.9666709 16.3916673,19.0311479 16.9703887,19.8684425 C17.4965904,18.388236 19.0182492,17.9582195 21.0707378,18.0888141 C22.9437344,18.370327 24.5326021,17.9976595 25.8548475,17.008038 C24.9517525,23.6874801 14.0037376,17.9201881 10.4120837,30.6621183 C10.4054432,30.6812346 10.3994065,30.6999485 10.3951808,30.717455 L10.3879367,30.7446203 C10.3583567,30.8518729 10.3299841,30.9635524 10.3014102,31.0736222 C10.1529067,31.6265867 10.0816732,31.8503483 9.94665166,32.5950797 L9.94665166,32.5950797 Z M6.40490135,29.8397143 L6.40832216,29.8433363 L6.40993196,29.8453485 L6.41134053,29.8469583 L6.41295032,29.8491718 L6.47593355,29.9222162 L6.5761433,30.035908 L6.66166366,30.1302823 L6.72686036,30.2007108 L6.72686036,30.2011132 C6.98181165,30.473571 7.25507435,30.7359676 7.54684971,30.9933336 C8.29500195,26.9581811 9.7307379,22.0422695 11.8085809,17.8765224 C13.9041315,13.6753598 16.6558749,10.2316058 20.0215539,9.20375162 C21.1021289,8.87394486 22.1267634,8.69244047 23.1171898,8.51717403 C25.1316471,8.16100688 27.0028326,7.82959033 28.8464503,6.32302339 L18.9836386,2.57220095 C18.3521965,2.33234148 17.731218,2.33234148 17.0997759,2.57220095 C12.9002231,4.16931885 8.70026785,5.76643676 4.50071504,7.36335344 C3.03439298,7.91148865 2.38604803,8.88098771 2.40274965,10.1921658 C2.87945021,14.3245096 3.35635199,18.4564511 3.83285132,22.5885937 C4.12784626,25.5721476 4.76190428,27.5447502 5.8432841,29.1086661 L5.84429022,29.1104771 L5.8456988,29.1122881 L5.84690614,29.1140991 L5.84831471,29.1159102 L5.84952206,29.11752 L5.8507294,29.119331 L5.91733467,29.2143089 L5.91874325,29.2161199 L5.91974937,29.2181321 L5.92115794,29.2195407 L5.92236528,29.221553 L5.92377385,29.2231628 L5.98997668,29.3145186 L5.99118402,29.3163296 L5.99259259,29.3181407 L5.99379994,29.3199517 L5.99520851,29.3217627 L5.99661708,29.3235737 L5.99782443,29.3251835 L5.999233,29.3271958 L6.06422847,29.4147284 L6.06563704,29.4165394 L6.06684439,29.417948 L6.06825296,29.4199602 L6.06946031,29.4217712 L6.07086888,29.4235822 L6.07227745,29.4253933 L6.07348479,29.4268018 L6.07489336,29.4288141 L6.15457822,29.5324446 L6.15598679,29.5342556 L6.15739536,29.5360667 L6.15880393,29.5376765 L6.1602125,29.5396887 L6.16162107,29.5414997 L6.16282842,29.5431095 L6.16564556,29.5465303 L6.16705413,29.5483413 L6.23708021,29.6362764 L6.23848879,29.6380874 L6.24130593,29.6417095 L6.2427145,29.6433193 L6.24412307,29.6451303 L6.31274058,29.7294433 L6.31435038,29.7314555 L6.31596017,29.7332666 L6.31756997,29.7352788 L6.31877731,29.7368886 L6.32058833,29.7389008 L6.32179568,29.7407119 L6.3236067,29.7427241 L6.32501527,29.7443339 L6.32662506,29.7463461 L6.40188298,29.8360922 L6.40349278,29.837702 L6.40490135,29.8397143 Z M19.926576,0.360543783 C24.0951403,1.94639312 28.2624972,3.5366694 32.4336774,5.11648201 C34.7042933,5.97611256 36.1148762,7.76157649 36.0828815,10.2233556 L36.0814729,10.3459012 L36.0673872,10.4676419 C35.5916928,14.5909307 35.0703204,18.7093901 34.6401027,22.8375083 C34.3324306,25.7934944 33.6669816,28.6150627 31.8074671,31.0035961 C30.4286776,32.7745718 28.5886819,34.0644201 26.7213197,35.2695529 C24.2738275,36.8491643 21.8114448,38.3313831 19.4132526,39.9987283 L18.0417073,40.9525319 L16.6701619,39.9987283 C14.2719697,38.3313831 11.809587,36.8491643 9.36209484,35.2695529 C7.49473259,34.0644201 5.65453563,32.7745718 4.27594741,31.0035961 C2.41643291,28.6150627 1.75098388,25.7934944 1.44331181,22.8375083 C1.01309408,18.7093901 0.491721712,14.5909307 0.0160272776,10.4676419 L0.00194157103,10.3459012 L0.000533000368,10.2233556 C-0.0314616761,7.76157649 1.37912123,5.97631378 3.64973713,5.11648201 C7.82071609,3.5366694 11.9882742,1.94639312 16.1568385,0.360543783 C17.4199239,-0.120181261 18.6634906,-0.120181261 19.926576,0.360543783 L19.926576,0.360543783 Z" id="Fill-5" fill="#00494E"></path>
                            </g>
                        </g>
                    </g>
                </g>
            </g>
        </g>
    </g>
</svg>