<svg width="180" height="44" viewBox="0 0 180 44" fill="none" xmlns="http://www.w3.org/2000/svg">
<path fill-rule="evenodd" clip-rule="evenodd" d="M10.068 34.8689C9.92351 34.7737 9.91546 34.7654 9.94625 34.595C10.063 33.9508 10.1321 33.6964 10.2448 33.2815C10.2623 33.2168 10.281 33.1482 10.301 33.0735C10.3069 33.0506 10.3129 33.0277 10.3188 33.0047C10.3414 32.9172 10.3641 32.8295 10.3875 32.7445L10.3948 32.7174C10.399 32.6999 10.405 32.6812 10.4117 32.662C12.4767 25.3361 16.9735 24.1286 20.5947 23.1563C23.2719 22.4374 25.4706 21.8471 25.8544 19.008C24.5322 19.9976 22.9433 20.3702 21.0703 20.0887C19.0178 19.9581 17.4962 20.3882 16.97 21.8684C16.3913 21.0311 16.7205 19.9666 17.6163 18.7605C17.8602 18.4335 18.8102 18.4536 19.4923 18.5419L21.2367 16.5971C21.2367 16.5971 18.8287 18.2326 17.9493 18.2385C17.6951 18.24 17.7078 18.1788 17.7461 17.993C17.7473 17.9869 17.7486 17.9807 17.7499 17.9743C18.0791 16.3812 19.4122 15.1571 21.9286 14.6849C25.217 14.0677 28.0023 13.1455 30.19 11.8061C31.3352 11.1049 32.0658 10.6113 32.6059 9.90698C33.3503 10.4654 33.6893 11.2326 33.6803 12.179C33.6545 12.4078 33.6273 12.6483 33.5982 12.9024L33.5965 12.9151L33.5921 12.9535L32.25 24.5885C31.5744 31.4223 29.1233 32.9536 23.5796 36.4168C21.9961 37.406 20.1602 38.5529 18.0413 40.026C15.9227 38.5529 14.0871 37.4062 12.5038 36.4171C11.614 35.8612 10.8039 35.3552 10.068 34.8689ZM6.40832 31.8433L6.4049 31.8397L6.40349 31.8377L6.40188 31.8361L6.32663 31.7463L6.32502 31.7443L6.32361 31.7427L6.3218 31.7407L6.32059 31.7389L6.31878 31.7369L6.31757 31.7353L6.31596 31.7333L6.31435 31.7315L6.31274 31.7294L6.24412 31.6451L6.24271 31.6433L6.24131 31.6417L6.23849 31.6381L6.23708 31.6363L6.16705 31.5483L6.16565 31.5465L6.16283 31.5431L6.16162 31.5415L6.16021 31.5397L6.1588 31.5377L6.1574 31.5361L6.15599 31.5343L6.15458 31.5324L6.07489 31.4288L6.07348 31.4268L6.07228 31.4254L6.07087 31.4236L6.06946 31.4218L6.06825 31.42L6.06684 31.4179L6.06564 31.4165L6.06423 31.4147L5.99923 31.3272L5.99782 31.3252L5.99662 31.3236L5.99521 31.3218L5.9938 31.32L5.99259 31.3181L5.99118 31.3163L5.98998 31.3145L5.92377 31.2232L5.92237 31.2216L5.92116 31.2195L5.91975 31.2181L5.91874 31.2161L5.91733 31.2143L5.85073 31.1193L5.84952 31.1175L5.84831 31.1159L5.84691 31.1141L5.8457 31.1123L5.84429 31.1105L5.84328 31.1087C4.7619 29.5448 4.12785 27.5721 3.83285 24.5886C3.53161 21.9763 3.23021 19.364 2.9288 16.7517C2.75344 15.2319 2.57808 13.7121 2.40275 12.1922C2.38605 10.881 3.03439 9.91149 4.50072 9.36335C8.70027 7.76644 12.9002 6.16932 17.0998 4.5722C17.7312 4.33234 18.3522 4.33234 18.9836 4.5722L28.8465 8.32302C27.0028 9.82959 25.1316 10.161 23.1172 10.5172C22.1268 10.6924 21.1021 10.8739 20.0216 11.2038C16.6559 12.2316 13.9041 15.6754 11.8086 19.8765C9.73074 24.0423 8.295 28.9582 7.54685 32.9933C7.25507 32.736 6.98181 32.4736 6.72686 32.2011V32.2007L6.66166 32.1303L6.57614 32.0359L6.47593 31.9222L6.41295 31.8492L6.41134 31.847L6.40993 31.8454L6.40832 31.8433ZM23.5625 3.74459C22.3506 3.28311 21.1386 2.82164 19.9266 2.36054C18.6635 1.87982 17.4199 1.87982 16.1568 2.36054C14.9473 2.82069 13.7379 3.2812 12.5284 3.74172C9.56951 4.86837 6.61049 5.99506 3.64974 7.11648C1.37912 7.97631 -0.0314617 9.76158 0.000533 12.2234L0.00194157 12.3459L0.0160273 12.4676C0.174822 13.8441 0.338707 15.22 0.502593 16.5958C0.82965 19.3416 1.15671 22.0874 1.44331 24.8375C1.75098 27.7935 2.41643 30.6151 4.27595 33.0036C5.65454 34.7746 7.49473 36.0644 9.36209 37.2696C10.1483 37.777 10.9361 38.2744 11.7228 38.7711C13.385 39.8206 15.0424 40.867 16.6702 41.9987L18.0417 42.9525L19.4133 41.9987C21.0411 40.867 22.6984 39.8206 24.3606 38.7711C25.1473 38.2744 25.9351 37.777 26.7213 37.2696C28.5887 36.0644 30.4287 34.7746 31.8075 33.0036C33.667 30.6151 34.3324 27.7935 34.6401 24.8375C34.9267 22.0875 35.2538 19.3417 35.5808 16.596C35.7447 15.22 35.9086 13.8441 36.0674 12.4676L36.0815 12.3459L36.0829 12.2234C36.1149 9.76158 34.7043 7.97611 32.4337 7.11648C29.4753 5.99601 26.5188 4.87028 23.5625 3.74459ZM108.716 11.4207H111.665H121.774L124.021 16.3635H121.112L119.748 13.3659H110.762L109.378 16.3635H106.47L108.716 11.4207ZM123.699 27.9204H106.83V25.6548H113.871V23.6182H107.572V21.3524H113.871V19.6132H107.111V17.3477H123.398V19.6132H116.659V21.3524H122.957V23.6182H116.659V25.6548H123.699V27.9204ZM98.5857 17.5537V16.1119H99.6689V15.677C99.6689 15.4788 99.6085 15.311 99.4884 15.1736C99.3678 15.0361 99.2209 14.9675 99.0471 14.9675H87.4531V16.1119H88.5564V17.5537H98.5857ZM98.586 19.8192H88.5568V21.3754C89.3991 21.7722 90.2316 22.1457 91.054 22.4966C91.8764 22.8476 92.7088 23.1758 93.5514 23.4806C94.3939 23.1758 95.233 22.8476 96.0685 22.4966C96.9044 22.1457 97.7437 21.7722 98.586 21.3754V19.8192ZM101.374 16.9129V17.5538H102.457V19.8192H101.374V20.0023V22.6111C100.729 23.008 100.084 23.3776 99.4386 23.7211C98.7933 24.0646 98.1347 24.3886 97.4628 24.6936C98.2918 24.9073 99.1209 25.0902 99.9499 25.243C100.779 25.3957 101.615 25.51 102.457 25.5862V27.9205C99.3551 27.6611 96.3929 27.0813 93.5713 26.1813C92.1406 26.6389 90.6863 27.0125 89.2085 27.3025C87.7308 27.5925 86.2232 27.7985 84.6854 27.9205V25.5862C85.528 25.51 86.3602 25.3957 87.1826 25.243C88.005 25.0902 88.8375 24.9073 89.68 24.6936C88.9981 24.3886 88.336 24.0646 87.6941 23.7211C87.0522 23.3776 86.4105 23.008 85.7686 22.6111V19.8192H84.6854V17.5538H85.7686V16.9129H84.6854V12.7023H92.107L91.6055 11.4207H94.6545L95.1358 12.7023H100.251C100.545 12.7023 100.826 12.767 101.093 12.8966C101.361 13.0264 101.595 13.2057 101.795 13.4343C101.996 13.6633 102.157 13.9303 102.277 14.2356C102.397 14.5404 102.457 14.8684 102.457 15.2194V16.9129H101.374ZM65.6699 16.1347H66.6461C66.8201 16.1347 66.9704 16.0661 67.0908 15.9289C67.2145 15.7916 67.2745 15.6162 67.2745 15.4025V13.7776H65.6699V16.1347ZM69.3002 27.2109L63.0419 27.9205V25.9066L63.4027 25.8609V18.6752H65.4087V25.6321L65.8301 25.5862V17.9655H63.2826V11.8782H69.6612V15.4484C69.6612 15.9977 69.5208 16.4895 69.2398 16.9243C68.9591 17.359 68.5979 17.6604 68.1569 17.8282V19.9566H69.4807V22.2222H68.1569V25.3118L69.3002 25.1741V27.2109ZM78.5473 12.2215C78.8415 12.2215 79.1224 12.2863 79.3899 12.4161C79.6575 12.5459 79.8913 12.7252 80.0917 12.954C80.2925 13.1826 80.4495 13.4498 80.5632 13.7549C80.6771 14.0599 80.7336 14.3805 80.7336 14.7159V15.7001H78.487V14.6014C78.487 14.4034 78.427 14.2356 78.3067 14.0982C78.1865 13.9609 78.0326 13.8921 77.8455 13.8921H72.2691V15.7001H70.0225V12.2215H73.9339L73.633 11.4436H76.6417L76.9426 12.2215H78.5473ZM80.733 27.2795L79.7102 22.8398H77.4434L78.4465 27.2795H80.733ZM72.1486 27.2795L73.1716 22.8398H70.8851L70.0225 27.2795H72.1486ZM80.7336 21.8332H76.682V25.792C76.682 26.082 76.6319 26.3567 76.5317 26.6159C76.4313 26.8752 76.2974 27.1002 76.1302 27.291C75.9632 27.4817 75.7626 27.6345 75.5284 27.7488C75.2945 27.8631 75.0505 27.9204 74.7963 27.9204H72.3092L73.0513 26.3414H73.3121C73.4859 26.3414 73.6365 26.2728 73.7634 26.1353C73.8902 25.9981 73.954 25.8303 73.954 25.6321V21.8332H70.0225V19.7505H80.7336V21.8332ZM70.4229 18.5834H80.3317V16.5237H70.4229V18.5834ZM41.3984 27.9205H46.0719L50.525 24.1674L54.5766 27.9205H59.0098L54.4565 23.6869H57.3247L58.9293 20.9178H55.8405L54.3158 23.5497L53.915 23.1834H51.7084L52.0492 22.8629V20.2081H58.3478V18.4005V17.9429V13.938C58.3478 13.587 58.291 13.2588 58.1771 12.954C58.0636 12.6487 57.9067 12.3817 57.7059 12.1529C57.5052 11.9241 57.2714 11.745 57.0038 11.615C56.7364 11.4854 56.4488 11.4207 56.1413 11.4207H42.0603V13.6862H54.9378C55.1115 13.6862 55.2586 13.7549 55.3793 13.8921C55.4994 14.0295 55.5596 14.1973 55.5596 14.3958V14.9447H42.0603V16.707H55.5596V17.9429H42.0603V20.2081H48.4391V21.8789L41.3984 27.9205ZM46.1314 23.6868H43.0429L41.458 20.9177H44.547L46.1314 23.6868ZM115.501 34.5421V35.6135H111.918V38.0895H110.648V34.9563C110.654 34.0558 110.738 33.4646 110.901 33.1825C111.105 32.7863 111.4 32.5041 111.787 32.3361C112.175 32.1679 112.719 32.084 113.422 32.084H115.501V33.1555H113.583C112.989 33.1674 112.608 33.2155 112.44 33.2996C112.104 33.4376 111.93 33.7437 111.918 34.2178V34.5421H115.501ZM105.966 33.0564C105.378 33.0564 104.958 33.2482 104.706 33.6325C104.501 33.9327 104.399 34.4159 104.399 35.0823C104.399 35.7844 104.526 36.3005 104.778 36.6307C105.03 36.9549 105.429 37.1171 105.975 37.1171C106.503 37.1171 106.892 36.9521 107.141 36.6217C107.39 36.2915 107.515 35.7814 107.515 35.0912C107.515 34.4609 107.413 33.9806 107.209 33.6504C106.975 33.2604 106.56 33.0622 105.966 33.0564ZM105.957 32.0479C106.557 32.0479 107.086 32.1499 107.542 32.3541C108.076 32.6002 108.451 33.0113 108.667 33.5876C108.835 34.0376 108.919 34.5658 108.919 35.1723C108.919 35.7844 108.817 36.3156 108.613 36.766C108.355 37.3 107.959 37.6753 107.425 37.8914C107.029 38.0474 106.572 38.1254 106.056 38.1254C105.378 38.1254 104.79 37.9995 104.291 37.7473C103.871 37.5373 103.55 37.207 103.328 36.7569C103.106 36.3068 102.995 35.7604 102.995 35.1179C102.995 33.9716 103.28 33.1554 103.85 32.669C104.33 32.2609 105.033 32.0539 105.957 32.0479ZM98.5648 33.0564C97.9766 33.0564 97.5562 33.2482 97.3041 33.6325C97.1001 33.9327 96.998 34.4159 96.998 35.0823C96.998 35.7844 97.1242 36.3005 97.3764 36.6307C97.6283 36.9549 98.0275 37.1171 98.5736 37.1171C99.1021 37.1171 99.4906 36.9521 99.7397 36.6217C99.9888 36.2915 100.113 35.7814 100.113 35.0912C100.113 34.4609 100.011 33.9806 99.8073 33.6504C99.5731 33.2604 99.159 33.0622 98.5648 33.0564ZM98.5561 32.0479C99.1562 32.0479 99.6846 32.1499 100.141 32.3541C100.675 32.6002 101.05 33.0113 101.266 33.5876C101.434 34.0376 101.518 34.5658 101.518 35.1723C101.518 35.7844 101.416 36.3156 101.212 36.766C100.954 37.3 100.558 37.6753 100.024 37.8914C99.6276 38.0474 99.1715 38.1254 98.6551 38.1254C97.977 38.1254 97.3886 37.9995 96.8906 37.7473C96.4702 37.5373 96.1491 37.207 95.9269 36.7569C95.705 36.3068 95.5937 35.7604 95.5937 35.1179C95.5937 33.9716 95.879 33.1554 96.4493 32.669C96.9294 32.2609 97.6319 32.0539 98.5561 32.0479ZM89.8672 34.7397H91.6589C91.9591 34.7397 92.1722 34.6948 92.2984 34.6047C92.4902 34.4727 92.5863 34.2417 92.5863 33.9115C92.5863 33.5454 92.4423 33.3114 92.1543 33.2092C92.0521 33.1732 91.8871 33.1553 91.6589 33.1553H89.8672V34.7397ZM89.8674 35.8116V38.0894H88.5891V32.0839H91.5241C92.3644 32.0839 92.9498 32.1917 93.28 32.408C93.508 32.5519 93.6837 32.7427 93.8066 32.9795C93.9298 33.217 93.9913 33.4765 93.9913 33.7583C93.9913 34.3287 93.8473 34.77 93.5589 35.0823C93.379 35.2682 93.142 35.4093 92.8478 35.5053C93.0818 35.5894 93.2589 35.6779 93.379 35.7709C93.4989 35.8639 93.607 36.0005 93.703 36.1806C93.775 36.3247 93.8275 36.4627 93.8607 36.5947C93.8937 36.7267 93.9191 36.9219 93.9372 37.1799C93.9732 37.6121 94.0213 37.9154 94.0813 38.0894H92.6496C92.6075 37.9512 92.5626 37.666 92.5148 37.234C92.4846 36.8857 92.423 36.6187 92.33 36.4327C92.2371 36.2468 92.0974 36.0995 91.9115 35.9916C91.6773 35.8655 91.338 35.8055 90.8939 35.8116H89.8674ZM82.7996 34.9201H84.5374C84.8495 34.9201 85.0686 34.872 85.1946 34.7759C85.3807 34.6259 85.4737 34.3647 85.4737 33.9927C85.4737 33.5904 85.3327 33.3323 85.0505 33.2184C84.9485 33.1763 84.7863 33.1554 84.5644 33.1554H82.7996V34.9201ZM82.7996 35.9916V38.0894H81.5213V32.0839H84.5193C85.0656 32.0839 85.4558 32.1229 85.6898 32.2008C86.086 32.333 86.3981 32.6062 86.6261 33.0204C86.7941 33.3323 86.8783 33.6715 86.8783 34.0376C86.8783 34.3438 86.8227 34.6334 86.7116 34.9066C86.6006 35.1795 86.4462 35.4033 86.248 35.5773C86.0679 35.7333 85.8774 35.8413 85.6763 35.9015C85.4751 35.9617 85.2007 35.9916 84.8523 35.9916H82.7996ZM76.3714 35.4601L74.1475 32.084H75.6422L77.0195 34.4339L78.4692 32.084H79.9908L77.65 35.5054V38.0895H76.3714V35.4601ZM68.6906 34.7398H70.4823C70.7827 34.7398 70.9956 34.695 71.1218 34.6048C71.3138 34.4728 71.4097 34.2418 71.4097 33.9116C71.4097 33.5456 71.2657 33.3115 70.9777 33.2093C70.8755 33.1733 70.7107 33.1554 70.4823 33.1554H68.6906V34.7398ZM68.6903 35.8117V38.0895H67.4121V32.084H70.347C71.1873 32.084 71.7726 32.1918 72.1029 32.4082C72.3308 32.552 72.5065 32.7428 72.6295 32.9796C72.7526 33.2171 72.8142 33.4767 72.8142 33.7584C72.8142 34.3288 72.6701 34.7701 72.382 35.0824C72.2019 35.2684 71.9648 35.4094 71.6706 35.5054C71.9048 35.5895 72.0819 35.6781 72.2019 35.771C72.3218 35.864 72.4298 36.0006 72.526 36.1807C72.5979 36.3248 72.6504 36.4628 72.6836 36.5948C72.7166 36.7268 72.7419 36.922 72.76 37.18C72.7961 37.6122 72.8442 37.9155 72.9041 38.0895H71.4724C71.4306 37.9513 71.3857 37.6661 71.3376 37.2341C71.3076 36.8858 71.246 36.6188 71.1529 36.4328C71.0599 36.2469 70.9205 36.0996 70.7341 35.9918C70.5001 35.8656 70.1608 35.8056 69.7167 35.8117H68.6903ZM64.0178 38.0894H65.2961V32.0839H64.0178V38.0894ZM59.2548 33.5333L58.3994 35.6313H60.1102L59.2548 33.5333ZM56.0314 38.0894L58.5165 32.0839H59.9842L62.4693 38.0894H60.9746L60.3893 36.7028H58.1112L57.5261 38.0894H56.0314ZM54.7709 34.542V35.6133H51.1875V38.0894H49.918V34.9561C49.924 34.0557 50.0079 33.4645 50.1701 33.1824C50.3741 32.7861 50.6697 32.504 51.0569 32.336C51.4443 32.1678 51.9888 32.0839 52.6912 32.0839H54.7709V33.1554H52.853C52.2588 33.1673 51.8777 33.2154 51.7097 33.2995C51.3734 33.4375 51.1996 33.7436 51.1875 34.2177V34.542H54.7709Z" fill="#055451"/>
</svg>
