<?xml version="1.0" encoding="UTF-8"?>
<svg width="24px" height="24px" viewBox="0 0 24 24" version="1.1" xmlns="http://www.w3.org/2000/svg" xmlns:xlink="http://www.w3.org/1999/xlink">
    <title>Medium icon</title>
    <g id="HECO" stroke="none" stroke-width="1" fill="none" fill-rule="evenodd" fill-opacity="0.64">
        <g id="HECO首页-Light" transform="translate(-404.000000, -4425.000000)" fill="#3F4143" fill-rule="nonzero">
            <g id="底部-Light" transform="translate(0.000000, 4275.000000)">
                <g id="编组" transform="translate(360.000000, 80.000000)">
                    <g id="编组-82" transform="translate(0.000000, 70.000000)">
                        <g id="Medium-icon" transform="translate(44.001639, 0.000000)">
                            <path d="M12.0004469,0 C18.6281107,0 24.0008938,5.372583 24.0008938,12 C24.0008938,18.627417 18.6281107,24 12.0004469,24 C5.37278309,24 0,18.627417 0,12 C0.00257550631,5.37365007 5.37385019,0.0025754104 12.0004469,0 Z M6.30046187,8.448 L6.30046187,15.1286667 C6.3421022,15.3697466 6.26528336,15.6160407 6.09356898,15.792 L4.48829566,17.718 L4.48829566,17.972 L9.04061354,17.972 L9.04061354,17.718 L7.43534025,15.792 C7.26282588,15.6160624 7.1813629,15.3716006 7.21429505,15.1286667 L7.21429505,9.35066667 L11.2099565,17.9713333 L11.6736122,17.9713333 L15.1058779,9.35066667 L15.1058779,16.222 C15.1058779,16.4053333 15.1058779,16.4406667 14.9845727,16.5606667 L13.7479327,17.746 L13.7479327,18 L19.7458052,18 L19.7458052,17.746 L18.5543177,16.5893333 C18.4494245,16.5098715 18.3975551,16.3795407 18.4195341,16.2506667 L18.4195341,7.74933333 C18.3975551,7.62045931 18.4494245,7.49012849 18.5543177,7.41066666 L19.7727619,6.25399999 L19.7727619,6 L15.5486422,6 L12.5348798,13.4286667 L9.11204888,6 L4.68103628,6 L4.68103628,6.25399999 L6.10839516,7.95400001 C6.248566,8.07886281 6.32015806,8.26235538 6.30113581,8.448 L6.30046187,8.448 Z"></path>
                        </g>
                    </g>
                </g>
            </g>
        </g>
    </g>
</svg>