<?xml version="1.0" encoding="UTF-8"?>
<svg width="16px" height="16px" viewBox="0 0 16 16" version="1.1" xmlns="http://www.w3.org/2000/svg" xmlns:xlink="http://www.w3.org/1999/xlink">
    <title>MetaMask</title>
    <defs>
        <rect id="metamask-1" x="0" y="0" width="16" height="16"></rect>
    </defs>
    <g id="BSC" stroke="none" stroke-width="1" fill="none" fill-rule="evenodd">
        <g id="BSC董事会-列表-Dark" transform="translate(-1330.000000, -1364.000000)">
            <g id="编组-4" transform="translate(360.000000, 400.000000)">
                <g id="编组-42备份-3" transform="translate(0.000000, 778.000000)">
                    <g id="编组-7" transform="translate(0.000000, 134.000000)">
                        <g id="编组-16" transform="translate(849.000000, 45.000000)">
                            <g id="MetaMask" transform="translate(121.000000, 7.000000)">
                                <mask id="metamask-2" fill="white">
                                    <use xlink:href="#metamask-1"></use>
                                </mask>
                                <g id="蒙版"></g>
                                <g id="编组-4" mask="url(#metamask-2)" fill-rule="nonzero" stroke-linecap="round" stroke-linejoin="round" stroke-width="0.25">
                                    <g transform="translate(0.444444, 0.888889)" id="路径">
                                        <polygon stroke="#E17726" fill="#E17726" points="14.2036889 2.80708241e-13 8.36631111 4.31924444 9.45182222 1.77377333"></polygon>
                                        <polygon stroke="#E27625" fill="#E27625" points="0.73904 -2.92287456e-13 6.52444444 4.35955556 5.49093333 1.77376889"></polygon>
                                        <polygon stroke="#E27625" fill="#E27625" points="12.1018667 10.0148444 10.5487111 12.3875556 13.8744444 13.3032444 14.8271556 10.0667111"></polygon>
                                        <polygon stroke="#E27625" fill="#E27625" points="0.121204444 10.0667111 1.06811111 13.3032444 4.38808889 12.3875556 2.84068444 10.0148444"></polygon>
                                        <polygon stroke="#E27625" fill="#E27625" points="4.20906667 6.00662222 3.28526667 7.40031111 6.57635556 7.55004444 6.46666667 4.00826667"></polygon>
                                        <polygon stroke="#E27625" fill="#E27625" points="10.7334667 6.00666667 8.44128889 3.96799111 8.36622222 7.55008889 11.6572889 7.40035556"></polygon>
                                        <polygon stroke="#E27625" fill="#E27625" points="4.38813333 12.3875556 6.38008889 11.4258222 4.66528889 10.0897333"></polygon>
                                        <polygon stroke="#E27625" fill="#E27625" points="8.56262222 11.4258222 10.5488 12.3875556 10.2774222 10.0897333"></polygon>
                                        <polygon stroke="#D5BFB2" fill="#D5BFB2" points="10.5488 12.3876444 8.56262222 11.4259111 8.72426667 12.7159111 8.70693333 13.2630222"></polygon>
                                        <polygon stroke="#D5BFB2" fill="#D5BFB2" points="4.38813333 12.3876444 6.23577778 13.2630222 6.22422222 12.7159111 6.38008889 11.4259111"></polygon>
                                        <polygon stroke="#233447" fill="#233447" points="6.27035556 9.23742222 4.61902222 8.75368889 5.78533333 8.21808889"></polygon>
                                        <polygon stroke="#233447" fill="#233447" points="8.67231111 9.23742222 9.15733333 8.21808889 10.3294222 8.75368889"></polygon>
                                        <polygon stroke="#CC6228" fill="#CC6228" points="4.38808889 12.3875556 4.6768 10.0148444 2.84071111 10.0667111"></polygon>
                                        <polygon stroke="#CC6228" fill="#CC6228" points="10.2658222 10.0148444 10.5487556 12.3875556 12.1019111 10.0667111"></polygon>
                                        <polygon stroke="#CC6228" fill="#CC6228" points="11.6572889 7.40026667 8.36622222 7.55 8.67222222 9.23742222 9.15724444 8.21804444 10.3293333 8.75364444"></polygon>
                                        <polygon stroke="#CC6228" fill="#CC6228" points="4.61902222 8.75364444 5.78533333 8.21804444 6.27035556 9.23742222 6.57635556 7.55 3.28526667 7.40026667"></polygon>
                                        <polygon stroke="#E27525" fill="#E27525" points="3.28537333 7.40026667 4.66533333 10.0897333 4.61911111 8.75364444"></polygon>
                                        <polygon stroke="#E27525" fill="#E27525" points="10.3294222 8.75364444 10.2774667 10.0897333 11.6574222 7.40026667"></polygon>
                                        <polygon stroke="#E27525" fill="#E27525" points="6.57653333 7.55 6.27048889 9.23742222 6.65733333 11.23 6.74395556 8.60391111"></polygon>
                                        <polygon stroke="#E27525" fill="#E27525" points="8.36631111 7.55 8.20462222 8.59817778 8.28546667 11.23 8.67231111 9.23742222"></polygon>
                                        <polygon stroke="#F5841F" fill="#F5841F" points="8.67231111 9.23746667 8.28546667 11.2300444 8.56262222 11.4258667 10.2774667 10.0897778 10.3294222 8.75368889"></polygon>
                                        <polygon stroke="#F5841F" fill="#F5841F" points="4.61902222 8.75368889 4.66524444 10.0897778 6.38004444 11.4258667 6.6572 11.2300444 6.27035556 9.23746667"></polygon>
                                        <polygon stroke="#C0AC9D" fill="#C0AC9D" points="8.70697778 13.2629778 8.72426667 12.7158667 8.57417778 12.5891556 6.36857778 12.5891556 6.22422222 12.7158667 6.23577778 13.2629778 4.38813333 12.3876 5.0348 12.9174222 6.34546667 13.8216 8.59146667 13.8216 9.90791111 12.9174222 10.5488 12.3876"></polygon>
                                        <polygon stroke="#161616" fill="#161616" points="8.56257778 11.4258222 8.28542222 11.2300444 6.6572 11.2300444 6.38008889 11.4258222 6.22417778 12.7158667 6.36853333 12.5891556 8.57413333 12.5891556 8.72426667 12.7158667"></polygon>
                                        <polygon stroke="#763E1A" fill="#763E1A" points="14.4519111 4.60142222 14.9427111 2.21721333 14.2036444 -2.16145346e-13 8.56262222 4.17528889 10.7335556 6.00662222 13.7994667 6.89928889 14.4750222 6.11031111 14.1805778 5.8972 14.6482222 5.47106667 14.2902667 5.19462222 14.7579556 4.83755556"></polygon>
                                        <polygon stroke="#763E1A" fill="#763E1A" points="3.78956126e-14 2.21721333 0.496551111 4.60142222 0.178991111 4.83755556 0.652444444 5.19462222 0.294466667 5.47106667 0.762146667 5.8972 0.46768 6.11031111 1.14322222 6.89928889 4.20915556 6.00662222 6.38008889 4.17528889 0.739053333 -2.16145346e-13"></polygon>
                                        <polygon stroke="#F5841F" fill="#F5841F" points="13.7995111 6.89924444 10.7336 6.00662222 11.6574222 7.40031111 10.2774667 10.0897333 12.102 10.0667111 14.8272444 10.0667111"></polygon>
                                        <polygon stroke="#F5841F" fill="#F5841F" points="4.20906667 6.00662222 1.14317333 6.89924444 0.121204444 10.0667111 2.84068444 10.0667111 4.6652 10.0897333 3.28527111 7.40031111"></polygon>
                                        <polygon stroke="#F5841F" fill="#F5841F" points="8.36626667 7.55004444 8.56257778 4.17524444 9.45173333 1.77376444 5.49088889 1.77376444 6.38004444 4.17524444 6.57635556 7.55004444 6.65142222 8.60968889 6.6572 11.2300444 8.28542222 11.2300444 8.2912 8.60968889"></polygon>
                                    </g>
                                </g>
                            </g>
                        </g>
                    </g>
                </g>
            </g>
        </g>
    </g>
</svg>