<?xml version="1.0" encoding="UTF-8"?>
<svg width="24px" height="24px" viewBox="0 0 24 24" version="1.1" xmlns="http://www.w3.org/2000/svg" xmlns:xlink="http://www.w3.org/1999/xlink">
    <title>矿池-Dark</title>
    <defs>
        <rect id="mining_pool_dark-1" x="0" y="0" width="24" height="24"></rect>
        <polygon id="mining_pool_dark-3" points="0 24 24 24 24 0 0 0"></polygon>
        <polygon id="mining_pool_dark-5" points="4.39789859e-13 0 7 0 7 7.00069776 4.39789859e-13 7.00069776"></polygon>
    </defs>
    <g id="组件/弹窗/导航" stroke="none" stroke-width="1" fill="none" fill-rule="evenodd">
        <g id="H5导航" transform="translate(-798.000000, -159.000000)">
            <g id="HECO-Dark默认" transform="translate(622.000000, 152.000000)">
                <g id="矿池-Dark" transform="translate(150.000000, 0.000000)">
                    <g id="锤子+币-+-星星-蒙版" transform="translate(26.000000, 7.000000)">
                        <mask id="mining_pool_dark-2" fill="white">
                            <use xlink:href="#mining_pool_dark-1"></use>
                        </mask>
                        <g id="蒙版"></g>
                        <g id="锤子+币" mask="url(#mining_pool_dark-2)">
                            <mask id="mining_pool_dark-4" fill="white">
                                <use xlink:href="#mining_pool_dark-3"></use>
                            </mask>
                            <g id="蒙版"></g>
                            <g id="编组-44" mask="url(#mining_pool_dark-4)" fill="#3C424D">
                                <g transform="translate(0.232706, -0.017523)" id="形状结合">
                                    <path d="M16.2672937,9.01752308 C17.3028585,9.01752308 18.2903062,9.2267281 19.1857037,9.60538919 C21.8781723,10.7455566 23.7672937,13.4108285 23.7672937,16.5175231 C23.7672937,20.6597825 20.4095531,24.0175231 16.2672937,24.0175231 C12.1250343,24.0175231 8.76729369,20.6597825 8.76729369,16.5175231 C8.76729369,14.8166863 9.33423929,13.2476486 10.2882142,11.9882344 C11.6585071,10.182795 13.8258711,9.01752308 16.2672937,9.01752308 Z M5.96170584,0.010596339 L5.97727989,0.0129928302 L8.51783001,0.424441111 C9.06113384,0.51243049 9.43120696,1.02291057 9.34586603,1.5666367 L9.30732654,1.81735326 C11.9788025,2.22089373 13.5022504,2.45483837 13.8776701,2.51918716 C15.5952795,2.81164057 17.3038939,3.93162735 18.5338143,5.27869744 C19.001819,5.79127951 19.4617655,6.53306852 19.9136537,7.50406447 C19.9539854,7.59072734 19.9686314,7.68713475 19.9558567,7.78186546 C19.9189504,8.0555438 19.6671717,8.24748542 19.3934966,8.21055532 C18.7332664,8.12152127 18.2100494,8.05096385 17.8238455,7.99888308 C15.4838822,7.68333186 12.3869982,7.26637893 8.53319358,6.74802427 L6.78303115,17.8950302 C6.59709766,19.079654 5.48604142,19.8892525 4.30141759,19.703319 L4.28772827,19.7011256 C3.09075808,19.5054149 2.27153625,18.3864497 2.44654699,17.1862782 L4.0575604,6.14619055 C3.30509396,6.0450307 2.53050048,5.94090657 1.73377998,5.83381817 C0.694694747,5.69415317 -0.0512819746,4.77955871 0.00275754657,3.74894857 L0.0159745013,3.60100048 L0.153612582,2.51147895 L0.159923875,2.46576726 C0.323607069,1.37340467 1.34183336,0.620561267 2.43419906,0.784223747 C3.26345849,0.908482701 4.048008,1.02613675 4.78784758,1.13718589 L4.8278758,0.855835621 C4.90756793,0.309330719 5.41520093,-0.0690957977 5.96170584,0.010596339 Z"></path>
                                </g>
                            </g>
                        </g>
                        <g id="星星" mask="url(#mining_pool_dark-2)">
                            <g transform="translate(13.100000, 13.000000)">
                                <mask id="mining_pool_dark-6" fill="white">
                                    <use xlink:href="#mining_pool_dark-5"></use>
                                </mask>
                                <g id="蒙版" stroke="none" fill="none"></g>
                                <path d="M3.40990732,5.9398072 L2.05944083,6.64978945 C1.71724962,6.82969002 1.29401061,6.69812746 1.11411004,6.35593625 C1.04247269,6.21967391 1.01775242,6.06359626 1.04377621,5.91186592 L1.30169236,4.40809937 L1.30169236,4.40809937 L0.209142015,3.34312599 C-0.0676964893,3.07327514 -0.0733611038,2.63009586 0.196489745,2.35325736 C0.303945768,2.24301881 0.444745456,2.17127779 0.597091377,2.14914063 L2.10695882,1.92974405 L2.10695882,1.92974405 L2.78219207,0.561572048 C2.95328767,0.214894486 3.37302576,0.0725571867 3.71970332,0.243652792 C3.85775214,0.311783959 3.96949141,0.423523224 4.03762258,0.561572048 L4.71285583,1.92974405 L4.71285583,1.92974405 L6.22272327,2.14914063 C6.60530467,2.20473296 6.87038169,2.55994296 6.81478936,2.94252436 C6.7926522,3.09487028 6.72091118,3.23566997 6.61067263,3.34312599 L5.51812229,4.40809937 L5.51812229,4.40809937 L5.77603844,5.91186592 C5.84139114,6.29290143 5.58547966,6.65477058 5.20444415,6.72012328 C5.05271381,6.74614708 4.89663615,6.7214268 4.76037382,6.64978945 L3.40990732,5.9398072 L3.40990732,5.9398072 Z" id="星形" stroke="none" fill="#1C2026" fill-rule="nonzero" mask="url(#mining_pool_dark-6)"></path>
                            </g>
                        </g>
                    </g>
                </g>
            </g>
        </g>
    </g>
</svg>