<?xml version="1.0" encoding="UTF-8"?>
<svg width="36px" height="36px" viewBox="0 0 36 36" version="1.1" xmlns="http://www.w3.org/2000/svg" xmlns:xlink="http://www.w3.org/1999/xlink">
    <title>更多</title>
    <g id="BSC" stroke="none" stroke-width="1" fill="none" fill-rule="evenodd">
        <g id="BSC流动性挖矿-列表-Dark" transform="translate(-1788.000000, -20.000000)">
            <g id="编组-10" transform="translate(50.000000, 19.000000)">
                <g id="更多" transform="translate(1738.000000, 1.000000)">
                    <rect id="矩形" x="0" y="0" width="36" height="36"></rect>
                    <path d="M18,36 C8.0588745,36 0,27.9411255 0,18 C0,8.0588745 8.0588745,0 18,0 C27.9411255,0 36,8.0588745 36,18 C36,27.9411255 27.9411255,36 18,36 Z" id="路径" fill-opacity="0.1" fill="#EBEBF5" fill-rule="nonzero"></path>
                    <g id="编组-2" transform="translate(6.500000, 16.000000)" fill="#FFFFFF" fill-rule="nonzero">
                        <g id="编组-70">
                            <path d="M20.5,5 C19.1192881,5 18,3.88071187 18,2.5 C18,1.11928813 19.1192881,0 20.5,0 C21.8807119,0 23,1.11928813 23,2.5 C23,3.88071187 21.8807119,5 20.5,5 Z" id="路径"></path>
                            <path d="M11.5,5 C10.1192881,5 9,3.88071187 9,2.5 C9,1.11928813 10.1192881,0 11.5,0 C12.8807119,0 14,1.11928813 14,2.5 C14,3.88071187 12.8807119,5 11.5,5 Z" id="路径"></path>
                            <path d="M2.5,5 C1.11928813,5 0,3.88071187 0,2.5 C0,1.11928813 1.11928813,0 2.5,0 C3.88071187,0 5,1.11928813 5,2.5 C5,3.88071187 3.88071187,5 2.5,5 Z" id="路径"></path>
                        </g>
                    </g>
                </g>
            </g>
        </g>
    </g>
</svg>