<svg width="24" height="24" viewBox="0 0 24 24" fill="none" xmlns="http://www.w3.org/2000/svg">
<path d="M6.91797 16.6326L6.95299 16.5553C7.0475 16.359 7.1691 16.1773 7.31647 16.0081C7.47442 15.8257 7.68921 15.7153 7.90597 15.6037L7.941 15.5858C8.13728 15.486 8.34876 15.4252 8.56354 15.377C8.76048 15.3327 8.95081 15.2792 9.13189 15.1979C9.45875 15.0595 9.73985 14.8315 9.94278 14.5403C10.0531 14.3777 10.1424 14.2079 10.2005 14.0275C10.2203 13.9647 10.2375 13.9012 10.2514 13.8365C10.2686 13.7512 10.2825 13.6653 10.293 13.5787C10.3182 13.3633 10.332 13.1452 10.3446 12.9284C10.3519 12.7976 10.3479 12.6674 10.3492 12.5372C10.3492 12.4447 10.3426 12.3528 10.3505 12.2623C10.3624 12.1268 10.3089 12.0026 10.2825 11.8737C10.2759 11.838 10.2659 11.803 10.2547 11.7514C10.2283 11.8268 10.2051 11.8876 10.1847 11.9497L10.1054 12.1902C10.1007 12.2035 10.0789 12.2127 10.0644 12.2233L10.0558 12.2101C10.0498 12.1995 10.0439 12.1896 10.0439 12.1797L10.0948 11.7409L10.1014 11.6966C10.112 11.612 10.1225 11.5261 10.1371 11.4415L10.1913 11.1593L10.26 10.8064L10.2957 10.5995L10.3234 10.433L10.369 10.2149C10.371 10.2043 10.371 10.1931 10.371 10.1812L10.3697 10.1283L10.332 10.1508C10.3076 10.1653 10.2858 10.1785 10.2613 10.1832L10.2091 10.1944C10.108 10.2142 10.0062 10.2347 9.90511 10.2407C9.6306 10.2594 9.35503 10.2564 9.081 10.2314C8.95147 10.2175 8.82062 10.2004 8.70497 10.1501C8.65189 10.1275 8.60279 10.0965 8.55958 10.0583C8.52985 10.0317 8.50119 10.0039 8.47366 9.975C8.40572 9.90272 8.34279 9.82588 8.28531 9.74502C8.11283 9.50512 8.01634 9.23482 7.93505 8.95858C7.86236 8.7134 7.92316 8.49332 8.04476 8.27458C8.16371 8.06177 8.27342 7.84501 8.39039 7.63089C8.50406 7.42602 8.66267 7.25948 8.90719 7.17819C9.0055 7.14069 9.10995 7.12187 9.21516 7.12268C9.36055 7.13061 9.50595 7.16431 9.64275 7.22181C9.82647 7.30111 9.93617 7.44254 10.0538 7.57868L10.225 7.76901L10.3657 7.66525C10.4748 7.58595 10.5818 7.50664 10.6916 7.42932C11.0758 7.15301 11.4889 6.91903 11.9234 6.73144C12.1481 6.63759 12.3794 6.55631 12.6154 6.4889C12.8391 6.42421 13.0704 6.38933 13.3033 6.38514L13.4461 6.38448C13.5954 6.38382 13.7448 6.38316 13.8922 6.36862C14.0409 6.3554 14.1895 6.31971 14.3303 6.27279C14.5206 6.21001 14.7024 6.1274 14.8888 6.05404C14.8973 6.05074 14.9079 6.05272 14.9185 6.0547L14.933 6.05735L14.9297 6.09039C14.9277 6.10163 14.9244 6.1122 14.9178 6.11815C14.8816 6.14657 14.8446 6.17389 14.8068 6.2001L14.6845 6.28733C14.6513 6.30805 14.6203 6.33219 14.592 6.35937L15.2245 6.21265L15.2397 6.23909L15.083 6.3402L15.2694 6.30914C15.2866 6.30584 15.3051 6.3098 15.3223 6.31046L15.3124 6.32368C15.3064 6.33424 15.2988 6.34383 15.2899 6.3521C15.2704 6.37037 15.2481 6.38532 15.2238 6.39638C15.1683 6.41951 15.1663 6.44396 15.2027 6.48758C15.36 6.67593 15.5146 6.86824 15.6692 7.05857C15.7023 7.09954 15.7307 7.13391 15.7135 7.19735C15.6765 7.33415 15.6474 7.47426 15.6157 7.6137L15.5959 7.76769L15.6362 7.73795C15.8087 7.59388 16.0069 7.50862 16.2429 7.4736C16.4213 7.4465 16.5865 7.4584 16.7438 7.52845C16.7967 7.55356 16.8416 7.58991 16.8747 7.63419C16.9963 7.78817 17.0663 7.96132 17.0782 8.14967C17.0905 8.32182 17.071 8.49476 17.0207 8.65986C16.9776 8.79801 16.9117 8.928 16.8258 9.04449C16.703 9.21161 16.5563 9.3597 16.3903 9.48397C16.2416 9.59632 16.1081 9.72585 15.964 9.84415C15.8774 9.91684 15.7895 9.98822 15.693 10.0503C15.625 10.0926 15.5543 10.1296 15.4769 10.1587C15.4327 10.1752 15.4227 10.1924 15.434 10.2367C15.4406 10.2572 15.4439 10.279 15.4459 10.3008L15.4505 10.396C15.4571 10.5235 15.4571 10.6524 15.4723 10.7793C15.4802 10.8414 15.5146 10.9015 15.5404 10.961C15.5972 11.0958 15.6646 11.2267 15.7274 11.3589C15.8053 11.5113 15.8649 11.6723 15.9052 11.8387C15.9323 11.9655 15.9448 12.0911 15.9409 12.2173C15.9365 12.3399 15.9156 12.4613 15.8787 12.5782C15.8673 12.6133 15.8539 12.6477 15.8384 12.6813C15.8232 12.7143 15.8087 12.7474 15.7955 12.7811C15.7908 12.7963 15.7941 12.8214 15.8054 12.832C15.9243 12.9443 15.9171 12.984 15.7684 13.0633C15.7684 13.1293 15.7776 13.1935 15.7664 13.2529C15.7581 13.2919 15.738 13.3275 15.7089 13.3547C15.662 13.3952 15.6083 13.4272 15.5503 13.4492C15.3843 13.5145 15.2102 13.557 15.0328 13.5754C14.789 13.6085 14.5451 13.6197 14.3012 13.6124L14.0699 13.6032L13.8922 13.5953L13.0317 13.5649C12.9768 13.5635 12.9213 13.5583 12.8486 13.5536L12.8671 13.7869C12.8751 13.8827 12.8823 13.9772 12.8949 14.0717C12.9154 14.2277 12.9735 14.3758 13.0509 14.5159C13.185 14.7577 13.3879 14.9421 13.6589 15.0584C13.8968 15.1609 14.142 15.2514 14.3832 15.3492C14.6085 15.4384 14.8306 15.5356 15.007 15.6935C15.1491 15.8211 15.2502 15.9764 15.3117 16.1495L15.3699 16.3214C15.4056 16.4291 15.4386 16.5381 15.4683 16.6485C15.4981 16.7608 15.508 16.8765 15.5298 16.9908L15.5761 17.1977L15.5827 17.232C14.4138 17.7021 13.1661 17.945 11.9062 17.9478H11.815C10.0756 17.9425 8.37519 17.4858 6.91797 16.6326Z" fill="#90979E"/>
<path d="M10.5002 1.58982C11.4284 1.05392 12.572 1.05392 13.5002 1.58982L20.2657 5.49587C21.1939 6.03177 21.7657 7.02215 21.7657 8.09395V15.9061C21.7657 16.9778 21.1939 17.9682 20.2657 18.5041L13.5002 22.4102C12.572 22.9461 11.4284 22.9461 10.5002 22.4102L3.73476 18.5041C2.80656 17.9682 2.23476 16.9778 2.23476 15.9061V8.09395C2.23476 7.02215 2.80656 6.03177 3.73476 5.49587L10.5002 1.58982Z" stroke="#90979E" stroke-width="2"/>
</svg>
