<svg width="291" height="198" viewBox="0 0 291 198" fill="none" xmlns="http://www.w3.org/2000/svg">
<g clip-path="url(#clip0_86_44076)">
<rect width="291" height="200" transform="translate(0 -2)" fill="#FAECB0"/>
<circle cx="145.98" cy="99.9612" r="28" fill="#2CBE82"/>
<path fill-rule="evenodd" clip-rule="evenodd" d="M167.235 102.171C167.31 101.444 167.348 100.707 167.348 99.9607C167.348 88.1593 157.781 78.5923 145.98 78.5923C134.178 78.5923 124.611 88.1593 124.611 99.9607C124.611 100.707 124.65 101.445 124.724 102.172C125.83 91.4089 134.925 83.0137 145.98 83.0137C157.035 83.0137 166.129 91.4085 167.235 102.171Z" fill="black"/>
<path d="M136.769 92.9613L141.19 99.5929L132.348 102.54L141.19 105.119L136.769 111.382L143.401 106.961L145.611 116.172L148.559 106.961L155.559 111.382L150.769 105.119L159.611 102.54L150.769 99.5929L154.822 92.9613L149.296 97.3824L145.611 88.1719L143.401 97.3824L136.769 92.9613Z" fill="white"/>
<path d="M145.961 -29C74.7377 -29 17 28.7377 17 99.9608C17 116.066 19.9523 131.482 25.3453 145.697" stroke="#F46B3D"/>
<path d="M145.96 228.922C217.183 228.922 274.921 171.184 274.921 99.961C274.921 80.158 270.457 61.3976 262.481 44.6309" stroke="#2BC080"/>
<path d="M230.333 145.61C223.087 159.504 212.593 171.434 199.858 180.393" stroke="#F46B3D"/>
<path d="M145.96 -2C199.819 -2 243.48 41.6611 243.48 95.5197C243.48 111.764 239.508 127.081 232.482 140.552" stroke="white"/>
<path d="M48.749 99.9644C49.4012 72.0866 66.6327 27.7823 107.184 9.79889" stroke="#0063FF"/>
<path d="M145.961 197.481C119.216 197.481 94.9853 186.714 77.3672 169.279" stroke="white" stroke-dasharray="2 2"/>
<path d="M77.3676 169.279C62.4387 154.505 52.2575 134.943 49.3172 113.086C48.9651 110.468 48.7919 106.271 48.6878 104.168" stroke="white"/>
<path d="M205.529 79.2742C207.779 85.7542 209.002 92.7148 209.002 99.9609C209.002 134.777 180.777 163.001 145.961 163.001C137.284 163.001 129.016 161.248 121.492 158.077" stroke="#2BC080"/>
<path d="M106.953 50.4348C92.3161 61.979 82.9204 79.8725 82.9204 99.9605C82.9204 110.913 85.7134 121.213 90.626 130.187" stroke="#0063FF"/>
<path d="M121.492 158.077C108.325 152.526 97.4383 142.631 90.6265 130.188" stroke="#0063FF" stroke-dasharray="2 2"/>
<path d="M106.952 50.4353C117.683 41.9712 131.232 36.9204 145.96 36.9204C152.111 36.9204 158.056 37.8013 163.676 39.4437" stroke="#F46B3D" stroke-dasharray="2 2"/>
<path d="M205.529 79.2745C198.878 60.1197 183.248 45.1638 163.677 39.4441" stroke="#F46B3D"/>
<circle cx="108.051" cy="10.5094" r="3.37975" fill="#0063FF"/>
<circle cx="200.552" cy="178.888" r="3.38159" fill="#F46B3D"/>
<circle cx="108" cy="52" r="15" fill="#F46B3D"/>
<circle cx="107.999" cy="52.0001" r="10.5556" fill="white"/>
<path fill-rule="evenodd" clip-rule="evenodd" d="M98.4224 47.5538C100.1 43.9458 103.757 41.4443 107.999 41.4443C112.24 41.4443 115.897 43.946 117.575 47.5543C115.467 50.5773 111.964 52.5553 107.999 52.5553C104.034 52.5553 100.53 50.5771 98.4224 47.5538Z" fill="#0063FF"/>
<path fill-rule="evenodd" clip-rule="evenodd" d="M98.7559 57.1023C100.889 54.3368 104.236 52.5554 107.999 52.5554C111.762 52.5554 115.108 54.3367 117.242 57.1019C115.443 60.3537 111.978 62.5556 107.999 62.5556C104.02 62.5556 100.555 60.3539 98.7559 57.1023Z" fill="#6D93FE"/>
<circle cx="49" cy="98" r="15" fill="#0063FF"/>
<circle cx="48.9999" cy="98.0004" r="10.5556" fill="white"/>
<circle cx="52.8883" cy="98.5558" r="6.66667" fill="#F46B3D"/>
<circle cx="45.111" cy="98.5558" r="6.66667" fill="#FFD200"/>
<path fill-rule="evenodd" clip-rule="evenodd" d="M49.0001 103.971C50.6824 102.761 51.7779 100.786 51.7779 98.5555C51.7779 96.3248 50.6824 94.3501 49.0001 93.1399C47.3177 94.3501 46.2222 96.3248 46.2222 98.5555C46.2222 100.786 47.3177 102.761 49.0001 103.971Z" fill="black"/>
<circle cx="29" cy="150" r="15" fill="#F46C3D"/>
<circle cx="28.9994" cy="149.999" r="10.5556" fill="#FFD200"/>
<path fill-rule="evenodd" clip-rule="evenodd" d="M39.0182 153.333C39.3667 152.285 39.5554 151.164 39.5554 149.999C39.5554 148.835 39.3668 147.714 39.0185 146.667H18.9813C18.6329 147.714 18.4443 148.835 18.4443 149.999C18.4443 151.164 18.6331 152.285 18.9816 153.333H39.0182Z" fill="#0063FF"/>
<path fill-rule="evenodd" clip-rule="evenodd" d="M25.667 160.019V139.982C26.7146 139.633 27.8352 139.445 28.9998 139.445C30.1648 139.445 31.2857 139.633 32.3337 139.982L32.3337 160.018C31.2857 160.367 30.1648 160.556 28.9998 160.556C27.8352 160.556 26.7146 160.367 25.667 160.019Z" fill="#0063FF"/>
<path fill-rule="evenodd" clip-rule="evenodd" d="M32.3337 146.667L32.3337 153.333H25.667V146.667H32.3337Z" fill="black"/>
<circle cx="123" cy="158" r="15" fill="#2BC080"/>
<circle cx="122.999" cy="158" r="10.5556" fill="#F46B3D"/>
<rect x="114.936" y="158" width="11.4038" height="11.4038" transform="rotate(-45 114.936 158)" fill="#FFD200"/>
<circle cx="123" cy="158.008" r="2.5" fill="black"/>
<circle cx="206" cy="83" r="15" fill="#0063FF"/>
<circle cx="206" cy="83.0004" r="10.5556" fill="#F46B3D"/>
<circle cx="206.002" cy="83.0082" r="5.11366" fill="#FFD200"/>
<circle cx="230" cy="147" r="15" fill="#F46B3D"/>
<circle cx="230.001" cy="147.001" r="10.5556" fill="#0063FF"/>
<path d="M240.557 147.001C240.557 148.387 240.284 149.759 239.753 151.04C239.223 152.321 238.445 153.484 237.465 154.465C236.485 155.445 235.321 156.222 234.041 156.753C232.76 157.283 231.388 157.556 230.001 157.556V147.001H240.557Z" fill="#2BC080"/>
<path d="M219.446 147.001C219.446 144.201 220.558 141.516 222.537 139.537C224.517 137.557 227.202 136.445 230.001 136.445V147.001L219.446 147.001Z" fill="#2BC080"/>
<circle cx="266.049" cy="50.1489" r="15" fill="#2BC080"/>
<circle cx="266.05" cy="50.1493" r="10.5556" fill="white"/>
<path fill-rule="evenodd" clip-rule="evenodd" d="M256.438 45.7801C258.1 42.1309 261.778 39.594 266.05 39.594C270.321 39.594 273.999 42.1309 275.661 45.7801C273.999 49.4293 270.321 51.9661 266.05 51.9661C261.778 51.9661 258.1 49.4293 256.438 45.7801Z" fill="#0063FF"/>
<path fill-rule="evenodd" clip-rule="evenodd" d="M262.73 60.1722V44.3926H269.581V60.0996C268.477 60.4915 267.288 60.7048 266.05 60.7048C264.89 60.7048 263.774 60.5177 262.73 60.1722Z" fill="#6D93FE"/>
<path fill-rule="evenodd" clip-rule="evenodd" d="M269.581 51.3607C268.477 51.7526 267.288 51.9659 266.05 51.9659C264.89 51.9659 263.774 51.7789 262.73 51.4334V44.3926H269.581V51.3607Z" fill="black"/>
</g>
<defs>
<clipPath id="clip0_86_44076">
<rect width="291" height="200" fill="white" transform="translate(0 -2)"/>
</clipPath>
</defs>
</svg>
