<svg width="291" height="198" viewBox="0 0 291 198" fill="none" xmlns="http://www.w3.org/2000/svg">
<rect width="291" height="200" transform="translate(0 -2)" fill="#B9C9C8"/>
<rect x="43.439" y="15" width="56.4199" height="43.0843" fill="#F46C3F"/>
<circle cx="51.6453" cy="85.7813" r="11.284" stroke="black" stroke-dasharray="2 2"/>
<line x1="55.7485" y1="86.3071" x2="84.4714" y2="86.3071" stroke="black"/>
<rect x="47.542" y="81.678" width="9.23235" height="9.23235" fill="#FFD200"/>
<rect x="84.4717" y="42.9189" width="123.098" height="109.318" fill="white"/>
<path d="M84.4717 42.9189H207.57V53.024H84.4717V42.9189Z" fill="black"/>
<circle cx="90.9343" cy="48.2383" r="1.55929" fill="#F46C3F"/>
<circle cx="97.1721" cy="48.2383" r="1.55929" fill="#FFD103"/>
<circle cx="103.409" cy="48.2383" r="1.55929" fill="#2CBE82"/>
<rect x="101.926" y="60.373" width="17.4542" height="3.67457" rx="1.83728" fill="#FFD103"/>
<rect x="108.356" y="68.6406" width="23.8847" height="3.67457" rx="1.83728" fill="#F46C3F"/>
<rect x="118.461" y="77.8271" width="18.3728" height="3.67457" rx="1.83728" fill="#2CBE82"/>
<rect x="108.356" y="87.0134" width="16.5356" height="3.67457" rx="1.83728" fill="#2CBE82"/>
<rect x="109.275" y="96.2" width="23.8847" height="3.67457" rx="1.83728" fill="#FFD103"/>
<rect x="135.916" y="68.6406" width="23.8847" height="3.67457" rx="1.83728" fill="#FFD103"/>
<rect x="140.509" y="77.8271" width="19.2915" height="3.67457" rx="1.83728" fill="#F46C3F"/>
<rect x="127.647" y="87.0134" width="11.0237" height="3.67457" rx="1.83728" fill="#FFD103"/>
<rect x="136.834" y="96.2" width="24.8033" height="3.67457" rx="1.83728" fill="#F46C3F"/>
<rect x="142.346" y="87.0134" width="6.43049" height="3.67457" rx="1.83728" fill="#2CBE82"/>
<rect x="118.461" y="105.386" width="13.7796" height="3.67457" rx="1.83728" fill="#F46C3F"/>
<rect x="118.461" y="113.654" width="22.0474" height="3.67457" rx="1.83728" fill="#FFD103"/>
<rect x="136.834" y="105.386" width="22.0474" height="3.67457" rx="1.83728" fill="#2CBE82"/>
<rect x="146.021" y="113.654" width="13.7796" height="3.67457" rx="1.83728" fill="#F46C3F"/>
<rect x="163.475" y="105.386" width="15.6169" height="3.67457" rx="1.83728" fill="#FFD103"/>
<rect x="109.275" y="122.841" width="22.0474" height="3.67457" rx="1.83728" fill="#D9D9D9"/>
<rect x="109.275" y="122.841" width="22.0474" height="3.67457" rx="1.83728" fill="#F46C3F"/>
<rect x="104.682" y="132.027" width="12.861" height="3.67457" rx="1.83728" fill="#2CBE82"/>
<rect x="123.973" y="132.027" width="32.1525" height="3.67457" rx="1.83728" fill="#FFD103"/>
<rect x="135.916" y="122.841" width="33.9897" height="3.67457" rx="1.83728" fill="#2CBE82"/>
<rect x="174.499" y="122.841" width="14.6983" height="3.67457" rx="1.83728" fill="#FFD103"/>
<rect x="163.475" y="68.6406" width="10.1051" height="3.67457" rx="1.83728" fill="#2CBE82"/>
<rect x="123.054" y="60.373" width="43.1762" height="3.67457" rx="1.83728" fill="#2CBE82"/>
<rect x="169.905" y="60.373" width="13.7796" height="3.67457" rx="1.83728" fill="#F46C3F"/>
<path d="M265.015 79.1135C265.015 82.817 264.102 86.3073 262.489 89.3717C260.88 92.4288 258.574 95.062 255.783 97.0601" stroke="black" stroke-dasharray="2 2"/>
<path d="M265.015 79.1137C265.015 66.933 255.141 57.0586 242.96 57.0586C230.78 57.0586 220.905 66.933 220.905 79.1137C220.905 91.2943 230.78 101.169 242.96 101.169C247.743 101.169 252.17 99.6465 255.783 97.0602" stroke="black"/>
<path d="M242.96 57.0586C233.293 57.0586 225.079 63.2776 222.1 71.9329" stroke="#2CBE82" stroke-width="6"/>
<path fill-rule="evenodd" clip-rule="evenodd" d="M245.968 80.1257C248.124 79.1685 249.628 77.0086 249.628 74.4974C249.628 71.0982 246.872 68.3425 243.473 68.3425C240.074 68.3425 237.318 71.0982 237.318 74.4974C237.318 77.0086 238.822 79.1685 240.978 80.1257L236.805 90.3976H250.141L245.968 80.1257Z" fill="black"/>
<circle cx="262.964" cy="69.3682" r="3.07745" fill="#FFD103"/>
<circle cx="228.086" cy="95.0137" r="3.07745" fill="#0061FF"/>
<path d="M242.96 101.169V135.021" stroke="black"/>
<circle cx="68.9931" cy="153.394" r="27.6059" fill="#0062FF"/>
<path fill-rule="evenodd" clip-rule="evenodd" d="M89.9492 155.573C90.0229 154.857 90.0606 154.129 90.0606 153.394C90.0606 141.758 80.6283 132.326 68.993 132.326C57.3576 132.326 47.9253 141.758 47.9253 153.394C47.9253 154.13 47.963 154.857 48.0367 155.573C49.1272 144.962 58.0935 136.685 68.993 136.685C79.8923 136.685 88.8585 144.962 89.9492 155.573Z" fill="black"/>
<path d="M59.912 146.424L64.2709 152.962L55.5532 155.868L64.2709 158.411L59.912 164.586L66.4503 160.227L68.6297 169.308L71.5356 160.227L78.4371 164.586L73.715 158.411L82.4326 155.868L73.715 152.962L77.7106 146.424L72.2621 150.783L68.6297 141.702L66.4503 150.783L59.912 146.424Z" fill="white"/>
<path d="M67.0327 120.659C48.9033 120.659 34.2065 135.356 34.2065 153.485C34.2065 159.677 35.921 165.469 38.901 170.411" stroke="black"/>
<path d="M27.0259 148.356C29.0775 131.43 43.7743 115.53 61.9036 115.53" stroke="black"/>
<rect x="193.208" y="133.995" width="62.5748" height="43.0202" fill="#2CBE82"/>
<path fill-rule="evenodd" clip-rule="evenodd" d="M229.526 145.678C229.821 144.532 229.131 143.363 227.984 143.068C226.837 142.773 225.668 143.464 225.373 144.611L220.009 165.471C219.714 166.618 220.405 167.787 221.552 168.082C222.699 168.376 223.867 167.686 224.162 166.539L229.526 145.678ZM233.247 149.278C232.751 150.329 233.279 151.551 234.426 152.005L243.727 155.691L234.38 159.626C233.244 160.105 232.746 161.336 233.268 162.378C233.79 163.419 235.134 163.875 236.27 163.397L248.693 158.166C251.067 157.167 251.029 154.064 248.631 153.114L236.223 148.197C235.076 147.742 233.743 148.226 233.247 149.278ZM216.299 149.278C216.769 150.329 216.269 151.551 215.182 152.005L206.371 155.691L215.226 159.626C216.302 160.105 216.774 161.337 216.279 162.378C215.785 163.419 214.511 163.875 213.435 163.397L201.666 158.166C199.417 157.167 199.453 154.064 201.725 153.114L213.479 148.197C214.566 147.742 215.829 148.226 216.299 149.278Z" fill="white"/>
<path fill-rule="evenodd" clip-rule="evenodd" d="M141.917 32.1101C148.718 22.9434 159.303 17.0518 171.192 17.0518C183.481 17.0518 194.376 23.346 201.14 33.0453C194.339 42.2121 183.754 48.1037 171.865 48.1037C159.576 48.1037 148.68 41.8094 141.917 32.1101Z" fill="#FFD100"/>
<circle cx="171.488" cy="32.8227" r="9.85685" fill="black"/>
<line x1="26" y1="26.8098" x2="67.0327" y2="26.8098" stroke="black"/>
<line x1="26" y1="37.0679" x2="67.0327" y2="37.0679" stroke="black"/>
<line x1="26" y1="46.3003" x2="67.0327" y2="46.3003" stroke="black"/>
<circle cx="50.1065" cy="26.797" r="2.56454" fill="#FFD103"/>
<circle cx="34.7193" cy="37.055" r="2.56454" fill="white"/>
<circle cx="57.2872" cy="46.2874" r="2.56454" fill="#0062FF"/>
</svg>
