<svg width="291" height="198" viewBox="0 0 291 198" fill="none" xmlns="http://www.w3.org/2000/svg">
<g clip-path="url(#clip0_86_44079)">
<rect width="291" height="200" transform="translate(0 -2)" fill="#0062FF"/>
<path d="M95.7598 79.7962C95.7598 76.056 98.7918 73.0239 102.532 73.0239H188.903C191.378 73.0239 193.384 75.03 193.384 77.5046V86.5685H102.532C98.7918 86.5685 95.7598 83.5365 95.7598 79.7962Z" fill="black"/>
<path d="M208.876 149.338C207.507 147.411 204.935 146.798 202.853 147.901L193.01 153.116L195.265 147.504C195.157 147.173 195.01 146.85 194.823 146.539C193.536 144.4 190.81 143.655 188.627 144.845L179.85 149.629L182.006 143.401C181.862 143.063 181.677 142.735 181.45 142.424C180.027 140.478 177.408 139.869 175.282 140.99L149.893 154.377L138.103 170.194L165.282 181.507L205.899 160.484L207.331 156.245L209.329 150.124C209.206 149.854 209.055 149.59 208.876 149.338Z" fill="black"/>
<path d="M180.716 159.63L193.009 153.116C195.063 152.028 195.961 149.627 195.265 147.503L179.294 156.034L177.809 157.914L180.716 159.63Z" fill="black"/>
<path d="M207.331 156.245C209.522 155.02 210.334 152.327 209.329 150.124L179.169 166.373L168.001 165.879L159.875 165.211L138.567 168.031L147.894 172.582C160.76 174.141 180.973 174.409 192.304 168.077L208.658 158.548L207.331 156.245Z" fill="black"/>
<path d="M171.138 154.376L179.849 149.629C182.107 148.399 182.971 145.667 182.005 143.402L162.093 154.376L167.175 156.609L171.138 154.376Z" fill="black"/>
<circle cx="126.711" cy="78.3323" r="16" fill="#FFD100"/>
<path fill-rule="evenodd" clip-rule="evenodd" d="M138.856 79.5957C138.899 79.1803 138.921 78.7586 138.921 78.3319C138.921 71.5882 133.454 66.1213 126.711 66.1213C119.967 66.1213 114.5 71.5882 114.5 78.3319C114.5 78.7583 114.522 79.1796 114.565 79.5948C115.197 73.4449 120.393 68.6481 126.71 68.6481C133.028 68.6481 138.224 73.4454 138.856 79.5957Z" fill="black"/>
<path d="M121.448 74.3325L123.975 78.122L118.922 79.8062L123.975 81.2799L121.448 84.8589L125.238 82.3325L126.501 87.5957L128.185 82.3325L132.185 84.8589L129.448 81.2799L134.501 79.8062L129.448 78.122L131.764 74.3325L128.606 76.8589L126.501 71.5957L125.238 76.8589L121.448 74.3325Z" fill="white"/>
<path fill-rule="evenodd" clip-rule="evenodd" d="M95.7598 80.2285H95.7736C95.9859 83.5993 98.664 86.3008 102.025 86.5498V86.5684H193.966C196.728 86.5684 198.966 88.807 198.966 91.5684V156.389C198.966 159.132 196.757 161.362 194.014 161.388L100.807 162.27C98.0275 162.296 95.76 160.05 95.76 157.27V86.5686H95.7598V80.2285Z" fill="white"/>
<path d="M148.363 110.15L161.476 117.72V132.861L148.363 140.431L135.251 132.861V117.72L148.363 110.15Z" fill="#F46C3D"/>
<path d="M148.363 117.168L155.397 121.229V129.352L148.363 133.413L141.329 129.352V121.229L148.363 117.168Z" fill="#FFD100"/>
<path d="M95.7114 137.972H117.59L147.611 153.981L178.071 137.972H198.921" stroke="#DDE8E2" stroke-width="6"/>
<path d="M95.7114 113.101H117.59L147.611 97.0918L178.071 113.101H198.921" stroke="#DDE8E2" stroke-width="6"/>
<path d="M198.971 110.15H200.891C202.534 110.15 203.866 111.481 203.866 113.124C203.866 114.767 202.534 116.099 200.891 116.099H198.971V110.15Z" fill="black"/>
<path fill-rule="evenodd" clip-rule="evenodd" d="M184.425 123.164C184.332 123.832 184.284 124.515 184.284 125.209V126.913C184.284 131.892 188.321 135.929 193.3 135.929H198.971V123.164H184.425Z" fill="black"/>
<path fill-rule="evenodd" clip-rule="evenodd" d="M200.521 116.099V116.099H200.892C202.523 116.099 203.847 114.787 203.867 113.161V116.099H200.521ZM203.867 112.939V113.088C203.866 113.038 203.864 112.988 203.861 112.939H203.867ZM192.557 116.099C187.988 116.099 184.284 119.803 184.284 124.372C184.284 128.941 187.988 132.645 192.557 132.645H200.602C202.405 132.645 203.866 131.184 203.866 129.381V116.099H192.557Z" fill="#2BBF7F"/>
<circle cx="192.651" cy="124.403" r="3.09854" fill="black"/>
<circle cx="126.71" cy="35.5798" r="16" fill="black"/>
<circle cx="126.71" cy="33.033" r="16" fill="#FFD100"/>
<path fill-rule="evenodd" clip-rule="evenodd" d="M138.856 34.297C138.899 33.8814 138.921 33.4597 138.921 33.0328C138.921 26.2891 133.454 20.8223 126.711 20.8223C119.967 20.8223 114.5 26.2891 114.5 33.0328C114.5 33.4591 114.522 33.8803 114.564 34.2953C115.197 28.1457 120.394 23.349 126.71 23.349C133.028 23.349 138.225 28.1465 138.856 34.297Z" fill="black"/>
<path d="M121.447 29.0342L123.973 32.8237L118.92 34.5079L123.973 35.9816L121.447 39.5605L125.236 37.0342L126.499 42.2974L128.184 37.0342L132.184 39.5605L129.447 35.9816L134.499 34.5079L129.447 32.8237L131.763 29.0342L128.605 31.5605L126.499 26.2974L125.236 31.5605L121.447 29.0342Z" fill="white"/>
<circle cx="170.215" cy="49.6672" r="16" fill="black"/>
<circle cx="170.215" cy="47.1204" r="16" fill="#FFD100"/>
<path fill-rule="evenodd" clip-rule="evenodd" d="M182.361 48.3844C182.404 47.9688 182.426 47.5471 182.426 47.1202C182.426 40.3765 176.959 34.9097 170.215 34.9097C163.472 34.9097 158.005 40.3765 158.005 47.1202C158.005 47.5465 158.027 47.9677 158.069 48.3827C158.702 42.2331 163.898 37.4364 170.215 37.4364C176.533 37.4364 181.729 42.2339 182.361 48.3844Z" fill="black"/>
<path d="M164.952 43.1216L167.478 46.9111L162.425 48.5953L167.478 50.069L164.952 53.6479L168.741 51.1216L170.004 56.3848L171.688 51.1216L175.688 53.6479L172.952 50.069L178.004 48.5953L172.952 46.9111L175.267 43.1216L172.11 45.6479L170.004 40.3848L168.741 45.6479L164.952 43.1216Z" fill="white"/>
<path d="M56.2764 45.1606L62.814 35.5798L67.8861 45.8369L56.2764 45.1606Z" fill="white"/>
<circle cx="38.8364" cy="59.29" r="5.29785" fill="#F46C3D"/>
<rect x="56.2764" y="70.2612" width="9.46826" height="9.46826" transform="rotate(-16.0357 56.2764 70.2612)" fill="#2BBF7F"/>
<path d="M228.319 46.514L229.943 35.0294L239.03 41.9839L228.319 46.514Z" fill="#2BBF7F"/>
<circle cx="213.5" cy="22.1945" r="4.17053" fill="#FFD200"/>
<rect x="232.443" y="7.81274" width="17.713" height="6.59531" transform="rotate(17.2919 232.443 7.81274)" fill="#F46C3D"/>
<path d="M99.7967 162.398C107.784 157.042 120.484 154.291 124.433 153.882C128.383 153.473 144.427 152.76 149.171 152.76C153.916 152.76 170.926 152.56 174.199 153.473C177.472 154.387 179.415 155.673 179.415 158.727C179.415 161.78 178.239 162.706 174.853 163.938C171.467 165.171 142.9 166.974 142.9 166.974C142.9 166.974 155.667 170.169 164.839 168.602C174.011 167.035 179.415 165.776 191.527 160.856L210.649 152.76C212.833 151.603 215.493 152.089 217.137 153.882C217.257 154.013 219.103 157.731 218.368 160.856C217.632 163.981 194.652 176.85 194.652 176.85C182.012 183.774 163.503 188.868 149.171 187.582L121.355 186.531C118.023 189.227 102.651 197.453 93.2307 203.71H30.5503C55.6138 189.179 91.8099 167.754 99.7967 162.398Z" fill="#F0C69E"/>
<path d="M217.608 154.602C216.886 153.518 216.95 153.76 216.83 153.629C217.175 154.851 216.431 157.541 213.332 160.699C210.233 163.858 190.575 173.533 190.575 173.533C177.935 180.457 161.607 184.699 147.275 183.413L118.084 181.753L89.2778 199.683C92.281 199.683 99.0649 199.683 99.7706 199.683L119.859 187.214L148.497 188.622C162.829 189.908 179.157 185.667 191.796 178.742C191.796 178.742 212.697 167.628 216.192 164.036C219.688 160.445 219.219 157.491 217.608 154.602Z" fill="#E4AD81"/>
<path d="M238.633 163.563L260.51 175.066" stroke="black"/>
<circle cx="260.626" cy="175.097" r="2.6377" transform="rotate(90.1034 260.626 175.097)" fill="#FFFEFF"/>
<circle cx="238.633" cy="163.562" r="2.6377" transform="rotate(90.1034 238.633 163.562)" fill="#F46B3D"/>
<path d="M81.1121 126.062L37.6278 140.049L17.918 113.85" stroke="black"/>
<circle cx="2.6377" cy="2.6377" r="2.6377" transform="matrix(-0.996462 -0.0840478 -0.0840478 0.996462 40.0386 137.762)" fill="#FFFEFF"/>
<circle cx="2.6377" cy="2.6377" r="2.6377" transform="matrix(-0.996462 -0.0840478 -0.0840478 0.996462 83.0186 123.332)" fill="#F46B3D"/>
<circle cx="2.6377" cy="2.6377" r="2.6377" transform="matrix(-0.996462 -0.0840478 -0.0840478 0.996462 20.7681 111.443)" fill="#FFD100"/>
<circle cx="2.6377" cy="2.6377" r="2.6377" transform="matrix(-0.86772 0.497054 0.497054 0.86772 276.76 71.3547)" fill="#FFFEFF"/>
<path d="M275.783 74.9547L247.012 78.2871L220.216 110.635" stroke="black"/>
<circle cx="2.6377" cy="2.6377" r="2.6377" transform="matrix(-0.86772 0.497054 0.497054 0.86772 248.494 74.3987)" fill="#F46B3D"/>
<circle cx="2.6377" cy="2.6377" r="2.6377" transform="matrix(-0.86772 0.497054 0.497054 0.86772 221.969 107.295)" fill="#FFD100"/>
</g>
<defs>
<clipPath id="clip0_86_44079">
<rect width="291" height="200" fill="white" transform="translate(0 -2)"/>
</clipPath>
</defs>
</svg>
