<svg width="291" height="198" viewBox="0 0 291 198" fill="none" xmlns="http://www.w3.org/2000/svg">
<rect width="291" height="200" transform="translate(0 -2)" fill="#2CBE82"/>
<rect x="73.082" y="40.3464" width="149.457" height="120.989" stroke="black" stroke-dasharray="4 6"/>
<rect x="89.668" y="75.2458" width="116.979" height="73.0137" fill="white"/>
<rect x="196.739" y="100.841" width="46.2605" height="70.2803" fill="#F46C3F"/>
<circle cx="219.869" cy="164.317" r="3.12571" fill="black"/>
<rect x="202.967" y="107.068" width="33.8057" height="50.7086" fill="white"/>
<rect x="143.361" y="125.75" width="69.0882" height="10.9913" rx="5.49565" fill="black"/>
<circle cx="160.634" cy="131.246" r="2.35528" fill="white"/>
<circle cx="169.269" cy="131.246" r="2.35528" fill="white"/>
<circle cx="177.905" cy="131.246" r="2.35528" fill="white"/>
<circle cx="186.542" cy="131.246" r="2.35528" fill="white"/>
<circle cx="195.178" cy="131.246" r="2.35528" fill="white"/>
<path d="M89.668 63.2822H206.647V75.246H89.668V63.2822Z" fill="black"/>
<path fill-rule="evenodd" clip-rule="evenodd" d="M72.4987 10.989C64.1774 10.989 57.4316 17.7348 57.4316 26.056V44.788C57.4316 53.1093 64.1774 59.855 72.4987 59.855C80.8199 59.855 87.5657 53.1093 87.5657 44.788V26.056C87.5657 17.7347 80.8199 10.989 72.4987 10.989ZM72.0918 16.6904C66.6942 16.6904 62.3186 21.066 62.3186 26.4636V44.3811C62.3186 49.7787 66.6942 54.1543 72.0918 54.1543C77.4894 54.1543 81.865 49.7787 81.865 44.3811V26.4636C81.865 21.066 77.4894 16.6904 72.0918 16.6904Z" fill="black"/>
<rect x="51.7305" y="33.793" width="41.5361" height="35.0207" fill="#F46C3F"/>
<path fill-rule="evenodd" clip-rule="evenodd" d="M74.7099 52.6464C76.4752 51.8629 77.7063 50.0946 77.7063 48.0389C77.7063 45.2561 75.4505 43.0002 72.6677 43.0002C69.885 43.0002 67.6291 45.2561 67.6291 48.0389C67.6291 50.0945 68.8601 51.8626 70.6251 52.6463L67.209 61.0552H78.126L74.7099 52.6464Z" fill="black"/>
<path d="M207.654 11.4501C200.08 17.3707 190.036 20.2896 185.133 21.1704C184.645 21.258 184.285 21.677 184.285 22.1723V42.9854C184.285 44.7744 184.657 49.1782 186.143 52.4811C188.483 57.229 195.432 66.3118 204.928 69.6146C208.231 70.4404 208.85 70.9358 212.153 69.6146C215.456 68.2935 225.777 63.4218 230.319 52.4811C232.177 48.559 232.658 44.9121 232.589 42.9854V22.1537C232.589 21.6666 232.232 21.2499 231.753 21.1629C218.525 18.7614 213.511 14.5953 208.842 11.4024C208.48 11.1545 208 11.1796 207.654 11.4501Z" fill="#0064FF"/>
<circle cx="207.953" cy="40.6965" r="12.7986" fill="#FDFFFF"/>
<path fill-rule="evenodd" clip-rule="evenodd" d="M215.441 36.3543L206.566 47.5643L201.142 43.2245L203.205 40.6454L206.037 42.9113L212.851 34.3042L215.441 36.3543Z" fill="black"/>
<circle cx="150.48" cy="80.3797" r="33.8057" fill="#FFD100"/>
<path fill-rule="evenodd" clip-rule="evenodd" d="M176.143 83.0475C176.233 82.1704 176.279 81.2803 176.279 80.3794C176.279 66.131 164.728 54.5803 150.48 54.5803C136.231 54.5803 124.681 66.131 124.681 80.3794C124.681 81.2809 124.727 82.1716 124.817 83.0492C126.152 70.0544 137.132 59.9182 150.48 59.9182C163.827 59.9182 174.807 70.0535 176.143 83.0475Z" fill="black"/>
<path d="M139.359 71.929L144.697 79.9357L134.021 83.4942L144.697 86.6078L139.359 94.1696L147.366 88.8319L150.035 99.9522L153.593 88.8319L162.045 94.1696L156.262 86.6078L166.938 83.4942L156.262 79.9357L161.155 71.929L154.483 77.2668L150.035 66.1465L147.366 77.2668L139.359 71.929Z" fill="white"/>
<circle cx="97.1015" cy="69.7041" r="1.77925" fill="#F46C3F"/>
<circle cx="104.219" cy="69.7041" r="1.77925" fill="#FFD103"/>
<circle cx="111.336" cy="69.7041" r="1.77925" fill="#2CBE82"/>
<path d="M44.4326 174.048C44.4326 174.849 45.0727 175.478 45.8552 175.478H92.2175C93.0127 175.478 93.6399 174.849 93.6399 174.048V158.798H44.4326V174.048Z" fill="#0061FF"/>
<path d="M44.4326 140.449C60.8351 140.449 77.2375 140.449 93.6399 140.449V157.13H44.4326V140.449Z" fill="#0061FF"/>
<path d="M44.4326 123.531C44.4326 122.73 45.0727 122.101 45.8552 122.101H92.2175C93.0127 122.101 93.6399 122.73 93.6399 123.531V138.781H44.4326V123.531Z" fill="#0061FF"/>
<path d="M53.6928 169.282C53.6928 170.072 53.0569 170.712 52.2702 170.712C51.4834 170.712 50.8477 170.072 50.8477 169.282V165.231C50.8477 164.441 51.4834 163.802 52.2702 163.802C53.0569 163.802 53.6928 164.441 53.6928 165.231V169.282ZM59.4128 169.282C59.4128 170.072 58.7768 170.712 57.9902 170.712C57.2049 170.712 56.5676 170.072 56.5676 169.282V165.231C56.5676 164.441 57.2049 163.802 57.9902 163.802C58.7768 163.802 59.4128 164.441 59.4128 165.231V169.282ZM85.8052 168.567H66.8512C66.0646 168.567 65.4288 167.928 65.4288 167.137C65.4288 166.347 66.0646 165.707 66.8512 165.707H85.8052C86.5918 165.707 87.2278 166.347 87.2278 167.137C87.2278 167.928 86.5918 168.567 85.8052 168.567Z" fill="black"/>
<path d="M53.6928 150.933C53.6928 151.724 53.0569 152.363 52.2702 152.363C51.4834 152.363 50.8477 151.724 50.8477 150.933V146.883C50.8477 146.092 51.4834 145.453 52.2702 145.453C53.0569 145.453 53.6928 146.093 53.6928 146.883V150.933ZM59.4128 150.933C59.4128 151.724 58.7768 152.363 57.9902 152.363C57.2049 152.363 56.5676 151.724 56.5676 150.933V146.883C56.5676 146.092 57.2049 145.453 57.9902 145.453C58.7768 145.453 59.4128 146.093 59.4128 146.883V150.933ZM85.8052 150.218H66.8512C66.0646 150.218 65.4288 149.579 65.4288 148.789C65.4288 147.998 66.0646 147.359 66.8512 147.359H85.8052C86.5918 147.359 87.2278 147.998 87.2278 148.789C87.2278 149.579 86.5918 150.218 85.8052 150.218Z" fill="black"/>
<path d="M53.6928 132.585C53.6928 133.376 53.0569 134.015 52.2702 134.015C51.4834 134.015 50.8477 133.376 50.8477 132.585V128.535C50.8477 127.744 51.4834 127.105 52.2702 127.105C53.0569 127.105 53.6928 127.744 53.6928 128.535V132.585ZM59.4128 132.585C59.4128 133.376 58.7768 134.015 57.9902 134.015C57.2049 134.015 56.5676 133.376 56.5676 132.585V128.535C56.5676 127.744 57.2049 127.105 57.9902 127.105C58.7768 127.105 59.4128 127.744 59.4128 128.535V132.585ZM85.8052 131.87H66.8512C66.0646 131.87 65.4288 131.231 65.4288 130.44C65.4288 129.65 66.0646 129.011 66.8512 129.011H85.8052C86.5918 129.011 87.2278 129.65 87.2278 130.44C87.2278 131.231 86.5918 131.87 85.8052 131.87Z" fill="black"/>
<path d="M116.362 175.618H186.987" stroke="black"/>
<path d="M150.457 185.36H186.987" stroke="black"/>
</svg>
