<?xml version="1.0" encoding="UTF-8"?>
<svg width="36px" height="36px" viewBox="0 0 36 36" version="1.1" xmlns="http://www.w3.org/2000/svg" xmlns:xlink="http://www.w3.org/1999/xlink">
    <title>公告-Dark</title>
    <g id="组件/弹窗/导航" stroke="none" stroke-width="1" fill="none" fill-rule="evenodd">
        <g id="H5更多-Dark" transform="translate(-41.000000, -256.000000)" fill-rule="nonzero">
            <g id="编组-5" transform="translate(16.000000, 240.000000)">
                <g id="编组-11备份-2" transform="translate(0.000000, 16.000000)">
                    <g id="公告-Dark" transform="translate(25.000000, 0.000000)">
                        <path d="M0,18 C0,27.9411255 8.0588745,36 18,36 C27.9411255,36 36,27.9411255 36,18 C36,8.0588745 27.9411255,0 18,0 C8.0588745,0 0,8.0588745 0,18 Z" id="路径" fill-opacity="0.1" fill="#FFCB7C"></path>
                        <path d="M21.1563884,7.63543441 C20.5626813,7.26382675 19.8183096,7.22819606 19.1918228,7.54139693 L10.6998296,11.7505963 L7.26132879,11.7505963 C6.1471891,11.7505963 5.239523,12.6582624 5.239523,13.772402 L5.239523,21.7614991 C5.239523,22.8756388 6.1471891,23.7833049 7.26132879,23.7833049 L10.7039182,23.7833049 L19.2061329,27.9168654 C19.4882453,28.053833 19.7908007,28.1212947 20.0913118,28.1212947 C20.4633731,28.1212947 20.8333901,28.0170358 21.1625213,27.8126065 C21.7546581,27.4449527 22.1137203,26.7964741 22.1110878,26.0994889 L22.1110878,9.35264055 C22.1110878,8.64940375 21.7553663,8.00749574 21.1563884,7.63543441 Z M12.2902896,20.3591141 C12.2902896,21.0929848 11.6953699,21.6879046 10.9614991,21.6879046 C10.2276284,21.6879046 9.63270869,21.0929848 9.63270869,20.3591141 L9.63270869,15.2770017 C9.63270869,14.543131 10.2276284,13.9482112 10.9614991,13.9482112 C11.6953699,13.9482112 12.2902896,14.543131 12.2902896,15.2770017 L12.2902896,20.3591141 Z M24.3986371,12.3025554 C23.9488927,12.3025554 23.511414,12.0756388 23.2620102,11.6626917 C22.8817717,11.0350937 23.0800681,10.2173765 23.7076661,9.83713799 L26.4388416,8.17717206 C27.0664395,7.79693356 27.8841567,7.99522998 28.2643952,8.62282794 C28.6446337,9.25042589 28.4463373,10.0681431 27.8187394,10.4483816 L25.0875639,12.1083475 C24.8729131,12.2391823 24.6337308,12.3025554 24.3986371,12.3025554 L24.3986371,12.3025554 Z M28.5587734,19.0487223 L25.4473595,19.0487223 C24.7134887,19.0487223 24.118569,18.4538026 24.118569,17.7199319 C24.118569,16.9860612 24.7134887,16.3911414 25.4473595,16.3911414 L28.5587734,16.3911414 C29.2926441,16.3911414 29.8875639,16.9860612 29.8875639,17.7199319 C29.8875639,18.4538026 29.2926441,19.0487223 28.5587734,19.0487223 Z M27.1277683,27.5468541 C26.8886094,27.5472665 26.6538965,27.4822256 26.449063,27.3587734 L23.7178876,25.7335605 C23.086201,25.3594549 22.8797274,24.5437819 23.2558773,23.9120954 C23.6312925,23.2815473 24.4467752,23.0747021 25.0773424,23.4500852 L27.8085179,25.0752981 C28.4402044,25.4494037 28.646678,26.2650767 28.2705281,26.8967632 C28.0319041,27.3008379 27.59704,27.5482203 27.1277683,27.5468541 L27.1277683,27.5468541 Z" id="形状" fill="#FF9826"></path>
                        <path d="M22.1110733,21.3301533 L22.1110733,9.35264055 C22.1110733,8.64735945 21.753322,8.00545145 21.1543441,7.63543441 C20.560637,7.26382675 19.8162653,7.22819606 19.1897785,7.54139693 L10.6998296,11.7505963 L7.26132879,11.7505963 C6.1471891,11.7505963 5.239523,12.6582624 5.239523,13.772402 L5.239523,21.7614991 C5.239523,22.8756388 6.1471891,23.7833049 7.26132879,23.7833049 L10.7039182,23.7833049 L15.9311755,26.3243612 C18.4316802,25.2938302 20.5787391,23.5587111 22.1110733,21.3301533 Z M12.2902896,20.3591141 C12.2902896,21.0929848 11.6953699,21.6879046 10.9614991,21.6879046 C10.2276284,21.6879046 9.63270869,21.0929848 9.63270869,20.3591141 L9.63270869,15.2770017 C9.63270869,14.543131 10.2276284,13.9482112 10.9614991,13.9482112 C11.6953699,13.9482112 12.2902896,14.543131 12.2902896,15.2770017 L12.2902896,20.3591141 Z M24.0306644,9.64088586 L23.7076661,9.83713799 C23.0800681,10.2173765 22.8817717,11.0350937 23.2620102,11.6626917 C23.5031973,12.0597848 23.9340361,12.3023253 24.3986371,12.3025554 C24.4354344,12.3025554 24.4722317,12.2984668 24.5110733,12.2943782 C24.4354344,11.3826235 24.2739353,10.4954003 24.0306644,9.64088586 L24.0306644,9.64088586 Z" id="形状" fill="#FCAA28"></path>
                        <path d="M20.7536627,8.50017036 C20.7536627,8.13833049 20.7352641,7.78262351 20.7086882,7.42896082 C20.2077325,7.26734907 19.6634761,7.30769152 19.1918228,7.54139693 L10.6998296,11.7505963 L7.26132879,11.7505963 C6.1471891,11.7505963 5.239523,12.6582624 5.239523,13.772402 L5.239523,21.7614991 C5.239523,21.9638842 5.27018739,22.158092 5.3253833,22.3420784 C5.82010221,22.39523 6.3229983,22.4238501 6.83202726,22.4238501 C14.5206133,22.4218058 20.7536627,16.1887564 20.7536627,8.50017036 Z M9.63270869,15.2770017 C9.63270869,14.543131 10.2276284,13.9482112 10.9614991,13.9482112 C11.6953699,13.9482112 12.2902896,14.543131 12.2902896,15.2770017 L12.2902896,20.3591141 C12.2902896,21.0929848 11.6953699,21.6879046 10.9614991,21.6879046 C10.2276284,21.6879046 9.63270869,21.0929848 9.63270869,20.3591141 L9.63270869,15.2770017 Z" id="形状" fill="#FCB94C"></path>
                        <path d="M9.63270869,15.9863714 L9.63270869,15.2770017 C9.63270869,14.543131 10.2276284,13.9482112 10.9614991,13.9482112 C11.3846678,13.9482112 11.762862,14.148552 12.0061329,14.4572402 C13.7887564,13.0344123 15.2156729,11.1843271 16.1274276,9.06030664 L10.6998296,11.7505963 L7.26132879,11.7505963 C6.1471891,11.7505963 5.239523,12.6582624 5.239523,13.772402 L5.239523,17.3621806 C6.77048219,17.1521668 8.25543424,16.6871259 9.63270869,15.9863714 L9.63270869,15.9863714 Z" id="路径" fill="#FFC966"></path>
                    </g>
                </g>
            </g>
        </g>
    </g>
</svg>