<?xml version="1.0" encoding="UTF-8"?>
<svg width="172px" height="43px" viewBox="0 0 172 43" version="1.1" xmlns="http://www.w3.org/2000/svg" xmlns:xlink="http://www.w3.org/1999/xlink">
    <title>PolyNetwork</title>
    <g id="HECO" stroke="none" stroke-width="1" fill="none" fill-rule="evenodd">
        <g id="合作伙伴" transform="translate(-2794.000000, -1580.000000)">
            <g id="编组-2备份-4" transform="translate(1920.000000, 903.000000)">
                <g id="编组-8" transform="translate(360.000000, 100.000000)">
                    <g id="编组-7" transform="translate(0.000000, 411.000000)">
                        <g id="PolyNetwork" transform="translate(514.000000, 166.000000)">
                            <rect id="矩形" x="0" y="0" width="172" height="43"></rect>
                            <g transform="translate(0.000000, 3.685714)">
                                <polygon id="Fill-1" fill="#282BDB" points="11.377332 33.3984749 14.8361563 35.3958282 15.4903577 35.7728986 15.4903577 27.5847554 11.377332 25.2103317"></polygon>
                                <polygon id="Fill-2" fill="#282BDB" points="0 26.8296094 7.09110668 30.9242554 7.09110668 13.0376768 0 8.94360518"></polygon>
                                <polygon id="Fill-3" fill="#3581E6" points="23.8882877 13.0371886 23.8882877 22.7361982 15.4902141 27.5855595 15.4902141 35.7734156 30.9796816 26.8291212 30.9796816 8.9442657"></polygon>
                                <polygon id="Fill-4" fill="#3EC7EB" points="15.4898121 0 0.00063180118 8.94429442 7.09202567 13.0372173 15.4903864 8.18785609 23.8881728 13.0372173 30.9798539 8.94429442 15.4906736 0"></polygon>
                                <g transform="translate(39.414303, 11.488607)" fill="#FFFFFF" id="形状结合">
                                    <path d="M30.6370658,4.05920411 L32.9778892,9.94956548 L35.3941338,4.05920411 L38.1882745,4.05920411 L32.6007829,16.7074688 L29.7122669,16.7074688 L31.4864435,12.8001734 L27.6731286,4.05920411 L30.6370658,4.05920411 Z M57.3860667,3.81363089 C58.6824437,3.81363089 59.711095,4.23535818 60.4724155,5.07881275 C61.233341,5.92226732 61.6143961,7.06740696 61.6143961,8.51462654 L61.6143961,9.21316171 L55.5735871,9.21316171 C55.6612495,9.95592298 55.9044929,10.4937437 56.3005533,10.8274137 C56.6970085,11.1606888 57.2601013,11.3273264 57.9898317,11.3273264 C58.4680262,11.3273264 58.9430617,11.249141 59.4153331,11.0915856 C59.8868147,10.9344251 60.3180191,10.7113203 60.7085512,10.4214815 L61.4639484,12.3279415 C61.0106311,12.6805656 60.4597794,12.9573735 59.8121832,13.1583652 C59.1634024,13.3601467 58.5122523,13.4612349 57.8575483,13.4612349 C56.2969994,13.4612349 55.0669615,13.0300306 54.1670397,12.167622 C53.266723,11.3060031 52.8177493,10.1316427 52.8177493,8.64651503 C52.8177493,7.7031569 53.0128179,6.86562546 53.4025603,6.13628997 C53.7923026,5.40616474 54.3340721,4.83635905 55.0258944,4.42766266 C55.7177167,4.0185714 56.5050989,3.81363089 57.3860667,3.81363089 Z M16.7485359,3.81374935 C17.7298021,3.81374935 18.5918159,4.00921284 19.334972,4.39895519 C20.0777332,4.7894873 20.6499082,5.34586721 21.0526814,6.06967444 C21.4550598,6.79348166 21.6568413,7.64641325 21.6568413,8.62807434 C21.6568413,9.60934054 21.4550598,10.462667 21.0526814,11.1860794 C20.6499082,11.9098866 20.0777332,12.4698204 19.334972,12.8658807 C18.5918159,13.262336 17.7298021,13.4609585 16.7485359,13.4609585 C15.7672697,13.4609585 14.9044662,13.262336 14.161705,12.8658807 C13.4197335,12.4698204 12.8467688,11.9098866 12.4443904,11.1860794 C12.0408274,10.462667 11.8406254,9.60934054 11.8406254,8.62807434 C11.8406254,7.64641325 12.0408274,6.79348166 12.4443904,6.06967444 C12.8467688,5.34586721 13.4197335,4.7894873 14.161705,4.39895519 C14.9044662,4.00921284 15.7672697,3.81374935 16.7485359,3.81374935 Z M67.2305163,1.32168858 L67.2305163,4.0408029 L69.5527805,4.0408029 L69.5527805,6.17352676 L67.2305163,6.17352676 L67.2305163,9.70411072 C67.2305163,10.8113423 67.7470137,11.3653529 68.7784291,11.3653529 C69.0682679,11.3653529 69.3703479,11.3463989 69.6850638,11.3084908 L69.5338264,13.3855372 C69.1681715,13.4356864 68.8040961,13.4609585 68.438836,13.4609585 C67.0291296,13.4609585 66.0004783,13.1525605 65.3524873,12.5353698 C64.7041013,11.9193636 64.3803032,10.9815337 64.3803032,9.72266988 L64.3803032,6.17352676 L62.6246857,6.17352676 L62.6246857,4.0408029 L64.3803032,4.0408029 L64.3803032,1.32168858 L67.2305163,1.32168858 Z M92.2900808,3.81374935 C93.271347,3.81374935 94.1333607,4.00921284 94.8757271,4.39895519 C95.6184884,4.7894873 96.1906633,5.34586721 96.5942263,6.06967444 C96.9966047,6.79348166 97.1979913,7.64641325 97.1979913,8.62807434 C97.1979913,9.60934054 96.9966047,10.462667 96.5942263,11.1860794 C96.1906633,11.9098866 95.6184884,12.4698204 94.8757271,12.8658807 C94.1333607,13.262336 93.271347,13.4609585 92.2900808,13.4609585 C91.3080248,13.4609585 90.4460111,13.262336 89.7032498,12.8658807 C88.9608834,12.4698204 88.3879187,11.9098866 87.9851455,11.1860794 C87.5823722,10.462667 87.3813805,9.60934054 87.3813805,8.62807434 C87.3813805,7.64641325 87.5823722,6.79348166 87.9851455,6.06967444 C88.3879187,5.34586721 88.9608834,4.7894873 89.7032498,4.39895519 C90.4460111,4.00921284 91.3080248,3.81374935 92.2900808,3.81374935 Z M6.11623029,0 C7.56305499,0 8.69003034,0.365654932 9.49557684,1.09538529 C10.3007285,1.82590541 10.7035017,2.84507968 10.7035017,4.15369787 C10.7035017,5.46271094 10.3007285,6.48228009 9.49557684,7.21201046 C8.69003034,7.94213569 7.56305499,8.30700087 6.11623029,8.30700087 L2.94458837,8.30700087 L2.94458837,13.3096816 L0,13.3096816 L0,0 L6.11623029,0 Z M26.4144621,0.000315900589 L26.4144621,13.3096026 L23.5638542,13.3096026 L23.5638542,0.000315900589 L26.4144621,0.000315900589 Z M73.4393054,4.04072393 L75.6292863,9.91173638 L77.8188722,4.04072393 L79.7450761,4.04072393 L81.9536161,9.96820361 L84.1246429,4.04072393 L86.8998295,4.04072393 L83.1429818,13.3096421 L80.7267371,13.3096421 L78.687204,8.08030271 L76.7057175,13.3096421 L74.308032,13.3096421 L70.5318354,4.04072393 L73.4393054,4.04072393 Z M105.539978,3.79491378 L105.71017,6.15469118 L104.105789,6.32488263 C103.312484,6.40030389 102.752945,6.62380356 102.425988,6.99498675 C102.097846,7.36577507 101.934368,7.86015949 101.934368,8.47695539 L101.934368,13.3094447 L99.0841548,13.3094447 L99.0841548,4.04052649 L101.820644,4.04052649 L101.820644,5.60699854 C102.286597,4.53728017 103.249699,3.9524692 104.709949,3.85138101 L105.539978,3.79491378 Z M109.846335,0.000197437868 L109.846335,8.0047235 L113.2628,4.05912514 L116.661495,4.05912514 L112.771969,8.47699488 L116.887364,13.3094841 L113.395083,13.3094841 L109.846335,9.17553006 L109.846335,13.3094841 L106.995332,13.3094841 L106.995332,0.000197437868 L109.846335,0.000197437868 Z M41.6092805,0.000197437868 L48.2356902,8.43908681 L48.2356902,0.000197437868 L50.9919229,0.000197437868 L50.9919229,13.3094841 L48.8023369,13.3094841 L42.1755323,4.83308158 L42.1755323,13.3094841 L39.4382537,13.3094841 L39.4382537,0.000197437868 L41.6092805,0.000197437868 Z M16.7485359,5.96621699 C15.3637067,5.96621699 14.6718844,6.8531079 14.6718844,8.62807434 C14.6718844,10.402251 15.3637067,11.2895368 16.7485359,11.2895368 C18.1325754,11.2895368 18.8247925,10.402251 18.8247925,8.62807434 C18.8247925,7.73407567 18.645519,7.06752542 18.2873667,6.6268441 C17.9280297,6.18616278 17.415481,5.96621699 16.7485359,5.96621699 Z M92.2900808,5.96621699 C90.9048567,5.96621699 90.2126395,6.8531079 90.2126395,8.62807434 C90.2126395,10.402251 90.9048567,11.2895368 92.2900808,11.2895368 C93.6741202,11.2895368 94.3663374,10.402251 94.3663374,8.62807434 C94.3663374,7.73407567 94.1870638,7.06752542 93.8281218,6.6268441 C93.4695746,6.18616278 92.9562361,5.96621699 92.2900808,5.96621699 Z M57.461488,5.77734793 C56.9201133,5.77734793 56.4893039,5.9503035 56.1686648,6.29660952 C55.847236,6.64252067 55.6494032,7.1432231 55.5735871,7.79713732 L59.2175004,7.79713732 C59.1791974,7.1301922 59.012165,6.62672564 58.7167979,6.28713251 C58.421036,5.9471445 58.0028626,5.77734793 57.461488,5.77734793 Z M5.73872908,2.24723782 L2.94458837,2.24723782 L2.94458837,6.07911197 L5.73872908,6.07911197 C7.2112207,6.07911197 7.94726908,5.44415178 7.94726908,4.17265191 C7.94726908,3.51873769 7.76444161,3.03383029 7.39997131,2.71871945 C7.03431637,2.40439836 6.48149034,2.24723782 5.73872908,2.24723782 Z"></path>
                                </g>
                            </g>
                        </g>
                    </g>
                </g>
            </g>
        </g>
    </g>
</svg>