<svg width="180" height="44" viewBox="0 0 180 44" fill="none" xmlns="http://www.w3.org/2000/svg">
<path fill-rule="evenodd" clip-rule="evenodd" d="M11.377 37.3986L14.8358 39.3959L15.49 39.773V31.5849L11.377 29.2104V37.3986Z" fill="#282BDB"/>
<path fill-rule="evenodd" clip-rule="evenodd" d="M0 30.8294L7.09111 34.924V17.0374L0 12.9434V30.8294Z" fill="#282BDB"/>
<path fill-rule="evenodd" clip-rule="evenodd" d="M23.8883 17.0373V26.7363L15.4902 31.5856V39.7735L30.9797 30.8292V12.9443L23.8883 17.0373Z" fill="#3581E6"/>
<path fill-rule="evenodd" clip-rule="evenodd" d="M15.4902 4L0.000976562 12.9443L7.09237 17.0372L15.4907 12.1879L23.8885 17.0372L30.9802 12.9443L15.491 4H15.4902Z" fill="#3EC7EB"/>
<path fill-rule="evenodd" clip-rule="evenodd" d="M45.1525 21.568C46.625 21.568 47.3611 20.933 47.3611 19.6615C47.3611 19.0076 47.1783 18.5227 46.8138 18.2076C46.4481 17.8932 45.8953 17.7361 45.1525 17.7361H42.3584V21.568H45.1525ZM39.4141 15.4888H45.5303C46.9771 15.4888 48.1041 15.8544 48.9096 16.5842C49.7148 17.3147 50.1176 18.3338 50.1176 19.6425C50.1176 20.9515 49.7148 21.971 48.9096 22.7008C48.1041 23.4309 46.9771 23.7958 45.5303 23.7958H42.3587V28.7985H39.4141V15.4888ZM58.2389 24.1168C58.2389 23.2228 58.0596 22.5563 57.7014 22.1156C57.3421 21.6749 56.8295 21.455 56.1626 21.455C54.7778 21.455 54.0859 22.3419 54.0859 24.1168C54.0859 25.891 54.7778 26.7783 56.1626 26.7783C57.5466 26.7783 58.2389 25.891 58.2389 24.1168ZM53.5758 28.3547C52.8338 27.9586 52.2608 27.3987 51.8585 26.6748C51.4549 25.9514 51.2547 25.0981 51.2547 24.1168C51.2547 23.1352 51.4549 22.2823 51.8585 21.5584C52.2608 20.8346 52.8338 20.2783 53.5758 19.8877C54.3185 19.498 55.1813 19.3025 56.1626 19.3025C57.1439 19.3025 58.0059 19.498 58.749 19.8877C59.4918 20.2783 60.064 20.8346 60.4667 21.5584C60.8691 22.2823 61.0709 23.1352 61.0709 24.1168C61.0709 25.0981 60.8691 25.9514 60.4667 26.6748C60.064 27.3987 59.4918 27.9586 58.749 28.3547C58.0059 28.7511 57.1439 28.9497 56.1626 28.9497C55.1813 28.9497 54.3185 28.7511 53.5758 28.3547ZM65.8281 28.7983H62.9775V15.489H65.8281V28.7983ZM74.8079 19.5479H77.6021L72.0146 32.1961H69.1261L70.9002 28.2888L67.0869 19.5479H70.0509L72.3917 25.4382L74.8079 19.5479ZM94.9873 23.286C95.0631 22.6321 95.2609 22.1314 95.5824 21.7855C95.903 21.4392 96.3338 21.2662 96.8752 21.2662C97.4166 21.2662 97.8347 21.436 98.1305 21.776C98.4259 22.1156 98.5929 22.6191 98.6312 23.286H94.9873ZM94.9873 24.702H101.028V24.0035C101.028 22.5563 100.647 21.4111 99.8861 20.5677C99.1248 19.7242 98.0961 19.3025 96.7998 19.3025C95.9188 19.3025 95.1314 19.5074 94.4396 19.9165C93.7478 20.3252 93.206 20.895 92.8163 21.6251C92.4265 22.3545 92.2314 23.192 92.2314 24.1354C92.2314 25.6205 92.6804 26.7949 93.5807 27.6565C94.4807 28.5189 95.7107 28.9501 97.2712 28.9501C97.9259 28.9501 98.5771 28.849 99.2259 28.6472C99.8735 28.4462 100.424 28.1694 100.878 27.8168L100.122 25.9103C99.7317 26.2002 99.3005 26.4233 98.829 26.5804C98.3568 26.738 97.8817 26.8162 97.4035 26.8162C96.6738 26.8162 96.1107 26.6495 95.7142 26.3163C95.3182 25.9826 95.0749 25.4448 94.9873 24.702ZM109.099 26.7973L108.948 28.8744C108.583 28.9245 108.218 28.9498 107.853 28.9498C106.444 28.9498 105.415 28.6414 104.767 28.0242C104.118 27.4082 103.795 26.4704 103.795 25.2115V21.6624H102.039V19.5297H103.795V16.8105H106.645V19.5297H108.967V21.6624H106.645V25.193C106.645 26.3002 107.161 26.8542 108.193 26.8542C108.483 26.8542 108.785 26.8353 109.099 26.7973ZM126.314 19.5295H123.539L121.368 25.457L119.16 19.5295H117.233L115.044 25.4006L112.854 19.5295H109.946L113.722 28.7985H116.12L118.102 23.5691L120.141 28.7985H122.557L126.314 19.5295ZM133.781 24.1168C133.781 23.2228 133.602 22.5563 133.243 22.1156C132.884 21.6749 132.371 21.455 131.705 21.455C130.319 21.455 129.627 22.3418 129.627 24.1168C129.627 25.891 130.319 26.7783 131.705 26.7783C133.089 26.7783 133.781 25.891 133.781 24.1168ZM129.118 28.3546C128.375 27.9586 127.802 27.3986 127.4 26.6748C126.997 25.9514 126.796 25.0981 126.796 24.1168C126.796 23.1352 126.997 22.2822 127.4 21.5584C127.802 20.8346 128.375 20.2782 129.118 19.8877C129.861 19.498 130.723 19.3025 131.705 19.3025C132.686 19.3025 133.548 19.498 134.29 19.8877C135.033 20.2782 135.605 20.8346 136.009 21.5584C136.411 22.2822 136.613 23.1352 136.613 24.1168C136.613 25.0981 136.411 25.9514 136.009 26.6748C135.605 27.3986 135.033 27.9586 134.29 28.3546C133.548 28.7511 132.686 28.9497 131.705 28.9497C130.723 28.9497 129.861 28.7511 129.118 28.3546ZM143.52 21.8137L145.124 21.6435L144.954 19.2837L144.124 19.3402C142.664 19.4412 141.701 20.026 141.235 21.0958V19.5293H138.498V28.7982H141.348V23.9657C141.348 23.3489 141.512 22.8545 141.84 22.4838C142.167 22.1126 142.727 21.8891 143.52 21.8137ZM156.301 28.7983H152.809L149.26 24.6643V28.7983H146.409V15.489H149.26V23.4935L152.677 19.5479H156.076L152.186 23.9658L156.301 28.7983ZM90.406 15.489H87.6498V23.9279L81.0233 15.489H78.8523V28.7983H81.5896V20.3219L88.2164 28.7983H90.406V15.489Z" fill="black"/>
</svg>
