<?xml version="1.0" encoding="UTF-8"?>
<svg width="24px" height="24px" viewBox="0 0 24 24" version="1.1" xmlns="http://www.w3.org/2000/svg" xmlns:xlink="http://www.w3.org/1999/xlink">
    <title>流动性</title>
    <defs>
        <rect id="pool_app-1" x="0" y="0" width="24" height="24"></rect>
    </defs>
    <g id="组件/弹窗/导航" stroke="none" stroke-width="1" fill="none" fill-rule="evenodd">
        <g id="H5更多-Light" transform="translate(-32.000000, -418.000000)">
            <g id="编组-4" transform="translate(16.000000, 348.000000)">
                <g id="编组-17备份-3" transform="translate(16.000000, 58.000000)">
                    <g id="流动性" transform="translate(0.000000, 12.000000)">
                        <mask id="pool_app-2" fill="white">
                            <use xlink:href="#pool_app-1"></use>
                        </mask>
                        <g id="蒙版"></g>
                        <g id="编组" mask="url(#pool_app-2)" stroke="#90979E" stroke-linecap="round" stroke-width="2">
                            <g transform="translate(11.996621, 11.996621) rotate(-45.000000) translate(-11.996621, -11.996621) translate(-1.503379, 5.001400)">
                                <line x1="15" y1="7" x2="17" y2="7" id="直线-14"></line>
                                <path d="M19,3.41211754 L23.5,3.41211754 C25.4329966,3.41211754 27,4.97912092 27,6.91211754 C27,8.84511417 25.4329966,10.4121175 23.5,10.4121175 L19,10.4121175 C18.4477153,10.4121175 18,9.96440229 18,9.41211754 L18,4.41211754 C18,3.85983279 18.4477153,3.41211754 19,3.41211754 Z" id="矩形"></path>
                                <line x1="7" y1="7" x2="10" y2="7" id="直线-10"></line>
                                <path d="M14.2861363,12.8958738 C14.3383652,13.4456834 13.9349963,13.933732 13.3851867,13.9859609 C13.3537522,13.988947 13.322194,13.9904425 13.290618,13.9904425 L9.85936589,13.9904425 C4.95682155,13.9904425 3.20752432,12.2334165 1.2404131,9.43957941 L0.353386269,8.15293416 C-0.122027684,7.46333935 -0.117377583,6.550546 0.365037607,5.86583072 L1.81618029,3.8061535 C3.56141824,1.5016858 5.37564016,0.0646027746 9.70003208,0.0211682434 L13.2570144,0 C13.8092895,-0.00309068844 14.25964,0.441973727 14.2629004,0.994248853 C14.2630977,1.02767995 14.2616185,1.06109992 14.2584682,1.09438285 L14.2861363,12.8958738 Z" id="路径"></path>
                            </g>
                        </g>
                    </g>
                </g>
            </g>
        </g>
    </g>
</svg>