<?xml version="1.0" encoding="UTF-8"?>
<svg width="24px" height="24px" viewBox="0 0 24 24" version="1.1" xmlns="http://www.w3.org/2000/svg" xmlns:xlink="http://www.w3.org/1999/xlink">
    <title>头像icon</title>
    <defs>
        <circle id="path-1" cx="12" cy="12" r="12"></circle>
    </defs>
    <g id="组件/弹窗/导航" stroke="none" stroke-width="1" fill="none" fill-rule="evenodd">
        <g id="H5更多-Light" transform="translate(-16.000000, -139.000000)">
            <g id="编组-6" transform="translate(16.000000, 133.000000)">
                <g id="头像icon" transform="translate(0.000000, 6.000000)">
                    <mask id="mask-2" fill="white">
                        <use xlink:href="#path-1"></use>
                    </mask>
                    <use id="蒙版" fill="#DCDCDC" xlink:href="#path-1"></use>
                    <g id="编组" mask="url(#mask-2)">
                        <g transform="translate(1.000000, 6.000000)">
                            <path d="M10.680617,0.241953707 C7.84107776,0.241953707 6.36534043,1.84601651 5.93673507,3.57020449 C5.62698183,4.81620643 5.77096463,4.87098684 5.5232312,5.29830959 C5.15491649,5.93371479 4.58803461,6.51819737 4.91513727,7.87654958 C5.23192251,9.19211018 6.90962772,10.75807 10.8256373,10.75807 C14.7415893,10.75807 16.623568,9.41799773 17.052231,8.05323567 C17.5461992,6.48050987 16.4879429,5.50805385 16.3663241,5.15741178 C16.2447053,4.80676972 16.364422,4.35143358 15.8049756,3.09919985 C15.2455868,1.84690677 13.6714017,0.241953707 10.680617,0.241953707" id="Fill-1" stroke="none" fill="#000000" fill-rule="evenodd"></path>
                            <path d="M10.665896,0 C7.69568855,0 6.1520522,1.67789468 5.70373423,3.48143412 C5.37974409,4.78476853 5.53035541,4.84204165 5.27120941,5.28900939 C4.88594876,5.95361498 4.29301395,6.56504262 4.63516045,7.9858908 C4.96647078,9.36204813 6.72141256,11 10.8175448,11 C14.9137347,11 16.8824027,9.59826265 17.3307207,8.17070789 C17.8473988,6.52563397 16.740495,5.5083684 16.6132852,5.14158304 C16.4860754,4.77485702 16.6112678,4.2985702 16.0261143,2.98864789 C15.4409608,1.67884429 13.7942655,0 10.665896,0" id="Fill-3" stroke="none" fill="#A09F9F" fill-rule="evenodd"></path>
                            <path d="M4.24666624,8.05606075 C3.92382889,6.7153356 4.37952468,5.99387234 4.7456491,5.4141378 C4.80392237,5.32196666 4.86127341,5.23116057 4.91453206,5.13940488 C5.02802371,4.94360796 5.04007031,4.86211989 5.0800143,4.59183824 C5.11425201,4.3610246 5.16583913,4.011985 5.31575878,3.40898511 C5.42221844,2.98083144 5.57599992,2.58490504 5.77272263,2.22346121 C3.31020159,1.25100518 0.895117645,2.72087677 0.177566808,5.14985054 C-0.586787087,7.73705244 1.18648398,10.538984 4.15219554,10.6649255 C4.88692287,10.6960845 5.55945746,10.5451565 6.14512973,10.3156485 C5.03914809,9.69608989 4.44073755,8.86209831 4.24666624,8.05606075" id="Fill-5" stroke="none" fill="#A09F9F" fill-rule="evenodd"></path>
                            <path d="M9.24827628,5.43085087 C9.19034885,5.7607203 8.9164472,5.98589565 8.63649344,5.93378601 C8.35659731,5.88167638 8.17658998,5.57198608 8.23451741,5.24211665 C8.29244485,4.91224722 8.56628885,4.68707187 8.84624262,4.7391815 C9.12619638,4.79129114 9.30620371,5.10092209 9.24827628,5.43085087" id="Fill-7" stroke="none" fill="#DCDCDC" fill-rule="evenodd"></path>
                            <path d="M12.4922009,5.43085087 C12.5501283,5.7607203 12.82403,5.98589565 13.1039837,5.93378601 C13.3838799,5.88167638 13.5638872,5.57198608 13.5059598,5.24211665 C13.4480323,4.91224722 13.1741883,4.68707187 12.8942346,4.7391815 C12.6142808,4.79129114 12.4342735,5.10092209 12.4922009,5.43085087" id="Fill-9" stroke="none" fill="#DCDCDC" fill-rule="evenodd"></path>
                            <path d="M12.0247525,6.32582885 C11.5078438,6.32582885 11.5223689,4.62737132 11.4756235,3.80198554 C11.4517032,3.37875796 10.282376,3.40053955 10.2933275,3.8197313 C10.3144234,4.62208913 10.1740143,6.33375418 9.72442824,6.32582885" id="Stroke-11" stroke="#DCDCDC" stroke-width="0.5" fill="none" stroke-linecap="round" stroke-linejoin="round"></path>
                            <path d="M21.8224368,5.14980306 C21.0907643,2.67311158 18.5941209,1.19516834 16.0818572,2.28531618 C16.2025537,2.47381299 16.3083217,2.6681855 16.3970285,2.86665318 C16.8215991,3.81720891 16.8894981,4.35884051 16.9343991,4.71713877 C16.9514603,4.8534666 16.9650055,4.9611282 16.993537,5.04344718 C17.0081773,5.08570465 17.0859903,5.20304036 17.1485865,5.29728877 C17.5034136,5.83209507 18.1637863,6.82769774 17.7137392,8.26059404 C17.5871058,8.66382055 17.161613,9.58446369 15.8308959,10.306105 C16.4221592,10.5408951 17.1029939,10.6965118 17.8478081,10.6649374 C20.813462,10.5389365 22.5867907,7.73712366 21.8224368,5.14980306" id="Fill-13" stroke="none" fill="#A09F9F" fill-rule="evenodd"></path>
                        </g>
                    </g>
                </g>
            </g>
        </g>
    </g>
</svg>