<svg width="180" height="44" viewBox="0 0 180 44" fill="none" xmlns="http://www.w3.org/2000/svg">
<path fill-rule="evenodd" clip-rule="evenodd" d="M71.9751 19.5926L72.0304 31.495H75.178L75.1504 19.5926H79.6786V16.8587H75.1504V16.3892C75.1504 15.4503 75.537 14.7875 76.3101 14.4009C77.1016 13.9958 78.2613 13.9958 79.7891 14.4009L79.8167 11.9707C77.4605 11.3815 75.5646 11.5288 74.1288 12.4125C72.693 13.2962 71.9751 14.6126 71.9751 16.3616V16.8587V19.5926ZM47.8226 31.7161C45.4849 31.7161 42.9078 30.9244 40.0914 29.3411V25.9167C42.7422 27.7025 45.3284 28.5955 47.8502 28.5955C49.0099 28.5955 49.9302 28.3837 50.6113 27.9603C51.3108 27.5185 51.6606 26.9109 51.6606 26.1377C51.6606 25.4381 51.3384 24.8857 50.6942 24.4807C50.0499 24.0573 49.0559 23.6798 47.7121 23.3485C45.3007 22.7225 43.6625 22.1886 42.7974 21.7468C40.8829 20.771 39.9258 19.3074 39.9258 17.3559C39.9258 15.6804 40.6345 14.3549 42.0519 13.3792C43.4692 12.4034 45.2179 11.9155 47.298 11.9155C49.8382 11.9155 52.1299 12.6519 54.1732 14.1248V17.5492C51.8354 15.8553 49.5437 15.0085 47.298 15.0085C46.1199 15.0085 45.1443 15.2294 44.3712 15.6713C43.5981 16.1132 43.2115 16.7298 43.2115 17.5215C43.2115 18.0002 43.4324 18.4144 43.8742 18.7642C44.316 19.0956 44.7946 19.3533 45.31 19.5375C45.8438 19.7031 46.6353 19.9149 47.6846 20.1727C48.789 20.4488 49.7001 20.7158 50.4181 20.9735C51.1544 21.2312 51.8998 21.5903 52.6545 22.0505C53.4093 22.4924 53.9707 23.0539 54.3389 23.7351C54.7254 24.4163 54.9187 25.2264 54.9187 26.1653C54.9187 27.9143 54.2468 29.2766 52.903 30.2524C51.5778 31.2282 49.8843 31.7161 47.8226 31.7161ZM61.5666 31.7157C60.9224 31.7157 60.2965 31.642 59.6891 31.4948C59.1 31.3475 58.5294 31.1173 57.9771 30.8044C57.425 30.473 56.9739 30.0035 56.6242 29.396C56.2745 28.77 56.0996 28.0428 56.0996 27.2143C56.0812 25.7231 56.5966 24.5908 57.6458 23.8176C58.6951 23.0259 60.1952 22.6301 62.1464 22.6301H66.5919V21.7464C66.5919 20.9363 66.2605 20.3288 65.5978 19.9237C64.9352 19.5003 64.0793 19.2886 63.03 19.2886C61.0236 19.2886 59.8548 19.9514 59.5234 21.2769L56.4862 21.3322C56.523 19.8777 57.1581 18.7271 58.3914 17.8802C59.6431 17.0333 61.1709 16.6099 62.9748 16.6099C64.7972 16.6099 66.3525 17.0517 67.6411 17.9354C68.948 18.8191 69.6015 19.9606 69.6015 21.3598V31.4948H66.5919V29.2855C66.1685 29.8746 65.5242 30.427 64.6591 30.9424C63.8124 31.458 62.7815 31.7157 61.5666 31.7157ZM61.8151 29.0922C63.03 29.0922 64.1253 28.678 65.1008 27.8495C66.0949 27.021 66.5919 26.0452 66.5919 24.9222H62.6987C61.5022 24.9222 60.6095 25.1523 60.0204 25.6126C59.4498 26.0545 59.2013 26.616 59.2749 27.2972C59.3301 27.9231 59.6063 28.3834 60.1032 28.678C60.6002 28.9541 61.1709 29.0922 61.8151 29.0922ZM88.0267 31.7157C85.9287 31.7157 84.1525 30.9793 82.698 29.5064C81.2437 28.0152 80.5166 26.2294 80.5166 24.149C80.5166 22.0502 81.2529 20.2735 82.7252 18.8191C84.1978 17.3463 85.965 16.6099 88.0267 16.6099C89.8491 16.6099 91.4504 17.2082 92.8315 18.4049C94.2298 19.5832 95.0862 21.0652 95.3989 22.851C95.5828 23.7163 95.5919 24.5448 95.4269 25.3365H83.6641C83.848 26.4227 84.3455 27.2879 85.1557 27.9323C85.965 28.5583 86.922 28.8713 88.0267 28.8713C89.7204 28.8713 91.0734 28.2729 92.0857 27.0762H94.9344C94.9344 27.0762 94.6052 29.0111 92.0857 30.6663C90.797 31.3659 89.444 31.7157 88.0267 31.7157ZM83.6641 22.8786H92.3068C92.1228 21.9029 91.6344 21.0836 90.8432 20.4209C90.0702 19.7581 89.1223 19.4267 87.9994 19.4267C86.8766 19.4267 85.9188 19.7672 85.1276 20.4484C84.3364 21.1112 83.848 21.9213 83.6641 22.8786ZM116.606 31.4948C117.214 31.642 117.839 31.7157 118.484 31.7157C119.699 31.7157 120.729 31.458 121.576 30.9424C122.441 30.427 123.085 29.8746 123.509 29.2855V31.4948H126.519V21.3598C126.519 19.9606 125.865 18.8191 124.558 17.9354C123.269 17.0517 121.714 16.6099 119.892 16.6099C118.088 16.6099 116.56 17.0333 115.308 17.8802C114.076 18.7271 113.44 19.8777 113.403 21.3322L116.441 21.2769C116.772 19.9514 117.941 19.2886 119.947 19.2886C120.997 19.2886 121.852 19.5003 122.515 19.9237C123.178 20.3288 123.509 20.9363 123.509 21.7464V22.6301H119.064C117.112 22.6301 115.613 23.0259 114.563 23.8176C113.514 24.5908 112.998 25.7231 113.017 27.2143C113.017 28.0428 113.192 28.77 113.542 29.396C113.891 30.0035 114.342 30.473 114.894 30.8044C115.447 31.1173 116.018 31.3475 116.606 31.4948ZM122.018 27.8495C121.043 28.678 119.947 29.0922 118.733 29.0922C118.088 29.0922 117.517 28.9541 117.021 28.678C116.523 28.3834 116.247 27.9231 116.192 27.2972C116.118 26.616 116.367 26.0545 116.938 25.6126C117.527 25.1523 118.419 24.9222 119.616 24.9222H123.509C123.509 26.0452 123.012 27.021 122.018 27.8495ZM128.824 31.4951V12.4126H132V31.4951H128.824ZM105.666 12.4126H97.2715V31.4951H100.557V25.3092L105.666 25.2815C107.544 25.2631 109.09 24.6464 110.304 23.4313C111.537 22.1978 112.154 20.6789 112.154 18.8747C112.154 17.0889 111.537 15.57 110.304 14.3181C109.071 13.0478 107.525 12.4126 105.666 12.4126ZM100.557 22.3543L105.445 22.3266C106.512 22.3266 107.369 21.9861 108.013 21.3049C108.656 20.6053 108.979 19.7584 108.979 18.7642C108.979 17.7885 108.656 16.9784 108.013 16.3341C107.387 15.6897 106.53 15.3675 105.445 15.3675L100.557 15.3951V22.3543Z" fill="#0D0B33"/>
<path d="M12.8596 7C11.9669 7 11.1107 7.35465 10.4794 7.98593L0.56336 17.9022C0.187782 18.2778 -3.07485e-06 18.7701 0 19.2623C3.075e-06 19.7545 0.187795 20.2468 0.563371 20.6224L7.06166 27.1207V15.6163C7.06166 14.7578 7.75221 14.0618 8.61077 14.0618C12.238 14.0618 21.0671 14.0618 22.2714 14.0618L29.333 7.0001L12.8596 7Z" fill="#4A21EF"/>
<path d="M7.06167 29.2719H20.7169C21.5754 29.2719 22.2714 28.5758 22.2714 27.7173V16.2129L28.7697 22.7113C29.1453 23.0869 29.3331 23.5791 29.3331 24.0713C29.3331 24.5636 29.1453 25.0559 28.7697 25.4314L18.8537 35.3477C18.2224 35.979 17.3662 36.3337 16.4735 36.3337L0 36.3336L7.06167 29.2719Z" fill="#4A21EF"/>
</svg>
