<svg width="48" height="48" viewBox="0 0 48 48" fill="none" xmlns="http://www.w3.org/2000/svg">
<path d="M0 0H48V18C48 34.5685 34.5685 48 18 48H0V0Z" fill="#03AD90" fill-opacity="0.16"/>
<mask id="mask0_112_50198" style="mask-type:luminance" maskUnits="userSpaceOnUse" x="8" y="8" width="32" height="32">
<rect x="8" y="8" width="32.0001" height="32" fill="white"/>
</mask>
<g mask="url(#mask0_112_50198)">
<path d="M25.776 9.35709C22.6851 10.0141 20.1587 11.8842 18.5806 14.3584C25.329 13.5742 31.7133 18.0506 33.1537 24.8272C33.5745 26.807 33.5162 28.7741 33.0815 30.6249C37.6552 28.4014 40.3224 23.2789 39.2188 18.0869C37.9194 11.9735 31.8895 8.05764 25.776 9.35709Z" fill="#04C19E" fill-opacity="0.6"/>
<path d="M17.7563 16.5142C11.6428 17.8137 7.72695 23.8436 9.02598 29.9551C10.325 36.0665 16.3554 39.9844 22.4688 38.6849C28.5823 37.3855 32.4981 31.3556 31.1987 25.2421C29.8992 19.1287 23.8678 15.2152 17.7563 16.5142Z" fill="#03AD90"/>
<path fill-rule="evenodd" clip-rule="evenodd" d="M21.3932 20.5219C19.2247 19.5643 18.1446 22.2735 19.9563 23.8024L14.0913 30.4407C13.3928 31.2312 13.4495 32.4339 14.2192 33.1553C15.0134 33.8997 16.2633 33.85 16.9959 33.0447L22.8174 26.6456L27.0596 31.2998C27.257 31.5179 27.5939 31.5347 27.812 31.3372C27.9315 31.229 27.9936 31.0726 27.9863 30.9115C27.812 27.0973 26.4679 25.1919 25.4527 23.9292C25.5832 23.777 25.7229 23.6124 25.8719 23.4352C26.5658 22.6102 26.484 21.3844 25.6866 20.659C24.9006 19.944 23.6866 19.991 22.9583 20.7646C22.9583 20.7646 22.7197 21.0483 22.5571 21.1907C22.2103 20.9294 21.8158 20.7085 21.3932 20.5219Z" fill="white"/>
</g>
</svg>
