<?xml version="1.0" encoding="UTF-8"?>
<svg width="56px" height="56px" viewBox="0 0 56 56" version="1.1" xmlns="http://www.w3.org/2000/svg" xmlns:xlink="http://www.w3.org/1999/xlink">
    <title>单挖</title>
    <defs>
        <rect id="single_dig-1" x="0" y="0" width="37.3333333" height="37.3333333"></rect>
    </defs>
    <g id="ETH" stroke="none" stroke-width="1" fill="none" fill-rule="evenodd">
        <g id="ETH董事会-列表-Dark" transform="translate(-360.000000, -716.000000)">
            <g id="编组-4" transform="translate(360.000000, 400.000000)">
                <g id="单挖" transform="translate(0.000000, 316.000000)">
                    <path d="M40,0 L56,0 L56,0 L56,16 C56,38.09139 38.09139,56 16,56 L0,56 L0,56 L0,40 C-2.705415e-15,17.90861 17.90861,4.05812251e-15 40,0 Z" id="矩形" fill-opacity="0.16" fill="#03AD90"></path>
                    <g id="solid" transform="translate(9.845354, 9.309238)">
                        <mask id="single_dig-2" fill="white">
                            <use xlink:href="#single_dig-1"></use>
                        </mask>
                        <g id="蒙版"></g>
                        <g mask="url(#single_dig-2)" id="编组-17">
                            <g transform="translate(-3.500000, -1.166667)">
                                <g transform="translate(21.654646, 19.857429) rotate(-12.000000) translate(-21.654646, -19.857429) translate(2.987979, 3.524096)">
                                    <path d="M24.1103333,0 C20.4236667,0 17.087,1.52133333 14.686,3.962 C22.5773333,4.704 28.777,11.361 28.777,19.4436667 C28.777,21.805 28.2333333,24.0356667 27.2883333,26.0423333 C33.047,24.6143333 37.3333333,19.4156667 37.3333333,13.223 C37.3333333,5.93133333 31.402,0 24.1103333,0 Z" id="路径" fill-opacity="0.6" fill="#04C19E" fill-rule="nonzero"></path>
                                    <path d="M13.223,6.223 C5.93133333,6.223 0,12.1543333 0,19.4436667 C0,26.733 5.93133333,32.6666667 13.223,32.6666667 C20.5146667,32.6666667 26.446,26.7353333 26.446,19.4436667 C26.446,12.152 20.5123333,6.223 13.223,6.223 Z" id="路径" fill="#03AD90" fill-rule="nonzero"></path>
                                    <path d="M13.2614661,15.0779928 L13.2614661,15.0779928 L13.2614661,15.0779928 L6.31868455,22.665181 C5.46901877,23.5937101 5.51155198,25.0295131 6.41469177,25.9061183 C7.2970012,26.7625051 8.70649298,26.7414906 9.56287979,25.8591812 C9.5705658,25.8512625 9.57819284,25.8432868 9.58576026,25.8352548 L16.5410406,18.452899 L16.5410406,18.452899 L21.3947708,23.9683473 C21.6206398,24.2267677 22.0132339,24.2531561 22.2716545,24.0272872 C22.4132939,23.9034892 22.488929,23.7222735 22.4836233,23.5342341 C22.3579848,19.0814243 20.8288674,16.8314884 19.6704589,15.3379143 C19.8257077,15.1630337 19.9920442,14.9737828 20.1694686,14.7701614 C20.9956847,13.8219524 20.9251854,12.3903936 20.0098008,11.5279526 C19.1075743,10.6779087 17.6904919,10.70801 16.8251757,11.5955996 C16.6357523,11.8129906 16.4768653,11.9759673 16.3485148,12.0845299 C16.1768428,11.950412 15.9973642,11.8227043 15.8100791,11.7014069 C14.8270092,11.0647554 13.5139565,11.3455404 12.8772731,12.3285897 C12.3043453,13.2131992 12.4679941,14.3843197 13.2614661,15.0779928 Z" id="路径" fill="#FFFFFF" transform="translate(13.638540, 18.729975) rotate(11.000000) translate(-13.638540, -18.729975) "></path>
                                </g>
                            </g>
                        </g>
                    </g>
                </g>
            </g>
        </g>
    </g>
</svg>