<?xml version="1.0" encoding="UTF-8"?>
<svg width="24px" height="24px" viewBox="0 0 24 24" version="1.1" xmlns="http://www.w3.org/2000/svg" xmlns:xlink="http://www.w3.org/1999/xlink">
    <title>兑换-Light</title>
    <defs>
        <polygon id="swap_light-1" points="0 24 24 24 24 0 0 0"></polygon>
    </defs>
    <g id="组件/弹窗/导航" stroke="none" stroke-width="1" fill="none" fill-rule="evenodd">
        <g id="H5导航" transform="translate(-271.000000, -159.000000)">
            <g id="HECO-Light默认" transform="translate(170.000000, 152.000000)">
                <g id="2兑换" transform="translate(75.000000, 0.000000)">
                    <g id="编组" transform="translate(26.000000, 7.000000)">
                        <mask id="swap_light-2" fill="white">
                            <use xlink:href="#swap_light-1"></use>
                        </mask>
                        <g id="蒙版"></g>
                        <g mask="url(#swap_light-2)" id="编组-43">
                            <g transform="translate(0.002649, -0.030180)">
                                <path d="M14.9973515,5.992455 C19.9679142,5.992455 23.9973515,10.0218923 23.9973515,14.992455 C23.9973515,19.9630177 19.9679142,23.992455 14.9973515,23.992455 C10.0267887,23.992455 5.99735149,19.9630177 5.99735149,14.992455 C5.99735149,10.0218923 10.0267887,5.992455 14.9973515,5.992455 Z M3.71460706,15.0790197 C3.34035231,16.9184612 3.77902843,18.2925876 4.79041684,19.3514567 C5.17211972,19.751079 5.61285121,20.078294 6.07148071,20.3346743 L6.20102009,20.4051146 L6.42354842,20.5162035 C6.45616572,20.5314552 6.48641111,20.5450911 6.5140798,20.5571348 L6.64753308,20.6104782 C7.16901823,20.7923345 7.44434187,21.3625053 7.26248564,21.8839904 C7.08062941,22.4054756 6.51045857,22.6807992 5.98897342,22.498943 C5.24813897,22.2405936 4.25280863,21.68419 3.34414908,20.7328725 C2.76414941,20.1256441 2.31237183,19.4362295 2.01162884,18.667355 L1.93900865,18.4709405 L1.8667993,18.5986922 C1.59123722,19.0773194 0.97984602,19.2419362 0.50121883,18.9663741 C0.0225916402,18.690812 -0.142025159,18.0794208 0.133536917,17.6007936 L0.50953574,16.9345241 C0.795972007,16.4204855 1.08821504,15.8831426 1.36864412,15.3498734 L1.84052583,14.4318923 C2.36362605,13.3872622 3.94753493,13.934192 3.71460706,15.0790197 Z M13.7365081,4.1000523 L13.5745143,4.11875112 C11.3943164,4.39996856 9.41420419,5.31870034 7.82769342,6.68167391 C7.68806286,6.79119498 7.55199588,6.90568776 7.41923951,7.02429912 C6.64306796,7.71777068 6.00805111,8.52701879 5.53354346,9.41132987 C4.89604683,10.4826464 4.43609796,11.6712789 4.19362177,12.9370386 C1.26169462,11.6757274 -0.422378583,8.68264304 0.134383704,5.63656077 C0.712823211,2.47188103 3.55106214,0.119480739 6.9311942,0.0032039093 L6.9312451,0.00465970056 C9.96448196,-0.101130067 12.6167641,1.60440884 13.7365081,4.1000523 Z M18.2295263,0.879364902 C18.7910405,1.11805225 19.309184,1.43027526 19.7764324,1.81869929 L19.8607924,1.89252898 L19.8611436,1.74283376 C19.861607,1.19054921 20.3096978,0.743209782 20.8619823,0.743673189 C21.4142669,0.744136596 21.8616063,1.19222735 21.8611429,1.74451191 L21.8674014,2.54242438 L21.8715445,2.81775637 C21.8812912,3.40120512 21.8969904,3.98328366 21.9197015,4.54187246 L21.958285,5.3435926 C22.0240736,6.50972101 20.3786066,6.82340567 20.0107613,5.71486003 C19.4931347,4.1549305 18.6093609,3.21401666 17.4471234,2.71997504 C16.6252386,2.37060988 15.7643631,2.27878309 15.0330765,2.3351879 L14.7100698,2.37121348 C14.167136,2.47241292 13.6449628,2.11431646 13.5437633,1.57138266 C13.4425639,1.02844885 13.8006604,0.50627568 14.3435942,0.40507624 L14.4629047,0.385905222 L14.5450351,0.374929339 C15.6433318,0.23694488 16.9413148,0.331774519 18.2295263,0.879364902 Z" id="形状结合" fill="#A1AAB3"></path>
                                <path d="M14.2340665,12.2214437 L14.2042797,12.2568184 L12.1564419,14.7851757 C11.9195517,15.07694 11.9505411,15.5026705 12.2271853,15.757048 L12.2606954,15.7849754 L14.790706,17.8329821 C15.08485,18.0712956 15.5093109,18.0377827 15.7606365,17.7640946 L15.7904233,17.7287199 L17.8382611,15.2003626 C18.0751512,14.9085983 18.0441619,14.4828678 17.7675176,14.2284903 L17.7340076,14.1987011 L15.2039969,12.1506944 C14.9125636,11.9149657 14.4882138,11.9459189 14.2340665,12.2214437 L14.2340665,12.2214437 Z" id="路径" fill="#FFFFFF"></path>
                            </g>
                        </g>
                    </g>
                </g>
            </g>
        </g>
    </g>
</svg>