<?xml version="1.0" encoding="UTF-8"?>
<svg width="24px" height="24px" viewBox="0 0 24 24" version="1.1" xmlns="http://www.w3.org/2000/svg" xmlns:xlink="http://www.w3.org/1999/xlink">
    <title>Telegram icon</title>
    <defs>
        <filter color-interpolation-filters="auto" id="telegram_dark-1">
            <feColorMatrix in="SourceGraphic" type="matrix" values="0 0 0 0 0.903137 0 0 0 0 0.931961 0 0 0 0 0.960784 0 0 0 0.800000 0"></feColorMatrix>
        </filter>
    </defs>
    <g id="组件/弹窗/导航" stroke="none" stroke-width="1" fill="none" fill-rule="evenodd" fill-opacity="0.8">
        <g id="组件" transform="translate(-540.000000, -6483.000000)">
            <g id="编组-3" transform="translate(90.000000, 5442.000000)">
                <g id="底部-Dark备份" transform="translate(2.000000, 891.000000)">
                    <g id="编组" transform="translate(360.000000, 80.000000)">
                        <g id="Telegram-icon" transform="translate(0.000000, 70.000000)" filter="url(#telegram_dark-1)">
                            <g transform="translate(88.003277, 0.000000)">
                                <path d="M12.0004469,0 C5.37116777,0 0,5.37096774 0,12 C0,18.6290323 5.37116777,24 12.0004469,24 C18.629726,24 24.0008938,18.6290323 24.0008938,12 C24.0008938,5.37096774 18.629726,0 12.0004469,0 Z M18.0850163,8.22096774 L16.0945886,17.5016129 C15.9478741,18.1596774 15.5517447,18.3193548 14.9991198,18.0096774 L11.9670187,15.7983871 L10.5047634,17.1919355 C10.3433774,17.3516129 10.2064438,17.4870968 9.8934527,17.4870968 L10.1086341,14.433871 L15.7278022,9.41129032 C15.9723265,9.1983871 15.6740069,9.07741935 15.3512348,9.29032258 L8.40674502,13.616129 L5.41376774,12.6919355 C4.76333313,12.4887097 4.74866167,12.0483871 5.55070134,11.7387097 L17.2438528,7.27741935 C17.7866967,7.08387097 18.2610738,7.40806452 18.0850163,8.22096774 Z" fill="#E6EEF5" fill-rule="nonzero"></path>
                            </g>
                        </g>
                    </g>
                </g>
            </g>
        </g>
    </g>
</svg>