<?xml version="1.0" encoding="UTF-8"?>
<svg width="16px" height="17px" viewBox="0 0 16 17" version="1.1" xmlns="http://www.w3.org/2000/svg" xmlns:xlink="http://www.w3.org/1999/xlink">
    <title>问号-Dark</title>
    <g id="HECO" stroke="none" stroke-width="1" fill="none" fill-rule="evenodd" fill-opacity="0.6">
        <g id="HECO首页-Dark" transform="translate(-941.000000, -569.000000)" fill="#E6EEF5" fill-rule="nonzero">
            <g id="编组-56" transform="translate(360.000000, 517.000000)">
                <g id="编组-7" transform="translate(495.000000, 0.000000)">
                    <g id="形状结合" transform="translate(86.000000, 52.500000)">
                        <path d="M8,0 C12.4185089,0 16,3.58149111 16,8 C16,12.4185089 12.4185089,16 8,16 C3.58149111,16 0,12.4185089 0,8 C0,3.58149111 3.58149111,0 8,0 Z M8,10.4999967 C7.610996,10.5185065 7.32399788,10.6920026 7.13900565,11.0204851 C6.95399584,11.349495 6.95399584,11.677995 7.13900565,12.0070049 C7.32399788,12.335505 7.610996,12.4999967 8,12.4999967 C8.29650788,12.4999967 8.53701185,12.4040069 8.72200408,12.2124932 C8.90699632,12.0205049 9.0000022,11.7830068 9.0000022,11.4999967 C9.0000022,11.216991 8.90750608,10.9839929 8.72200408,10.8014968 C8.53699427,10.6185085 8.29650788,10.5184889 8,10.4999967 Z M8.05350783,3.60249697 C6.50698401,3.58799502 5.49049353,4.3349952 5.25000714,5.7375014 C5.19097198,6.14030512 5.46405305,6.51665379 5.86530096,6.5854731 C6.26654887,6.6542924 6.64943113,6.39045009 6.72799383,5.9909956 C6.83750558,5.35600326 7.19300566,5.09451101 8.03949806,5.10199929 C8.96799242,5.11050711 9.27949445,5.52549158 9.29250227,5.95800145 C9.29572107,6.03237377 9.27580504,6.10591509 9.2354964,6.16849955 C9.13199637,6.35449374 8.9074885,6.57051137 8.51050403,6.80500361 C8.1179844,7.03650758 7.81599214,7.32450765 7.6039999,7.65750773 C7.27449787,8.17500786 7.20251543,8.68700603 7.25850177,9.20749444 C7.26699201,9.28599836 7.26600763,9.27599641 7.26600763,9.23351007 C7.26470624,9.50232326 7.40736961,9.7512756 7.63995419,9.88605928 C7.87253877,10.020843 8.159471,10.020843 8.39205558,9.88605928 C8.62464016,9.7512756 8.76730353,9.50232326 8.76600214,9.23351007 C8.76600214,9.17601201 8.74599823,9.01100611 8.74849432,9.03450807 C8.72799822,8.82650606 8.755508,8.64149625 8.86950217,8.46300793 C8.95250609,8.33250789 9.08100222,8.21000591 9.27300812,8.09650393 C10.4019986,7.42950181 10.8149968,6.68649187 10.7914948,5.91349363 C10.7565143,4.75549921 9.90350046,3.61900284 8.05350783,3.60249697 Z"></path>
                    </g>
                </g>
            </g>
        </g>
    </g>
</svg>