<?xml version="1.0" encoding="UTF-8"?>
<svg width="14px" height="14px" viewBox="0 0 14 14" version="1.1" xmlns="http://www.w3.org/2000/svg" xmlns:xlink="http://www.w3.org/1999/xlink">
    <title>问号-Light</title>
    <g id="H5-HECO" stroke="none" stroke-width="1" fill="none" fill-rule="evenodd">
        <g id="H5流动性挖矿-列表-Light" transform="translate(-325.000000, -503.000000)" fill="#FFFFFF" fill-rule="nonzero">
            <g id="编组-20备份" transform="translate(268.000000, 498.000000)">
                <g id="形状结合" transform="translate(57.000000, 5.000000)">
                    <path d="M7,0 C10.8661953,0 14,3.13380472 14,7 C14,10.8661953 10.8661953,14 7,14 C3.13380472,14 0,10.8661953 0,7 C0,3.13380472 3.13380472,0 7,0 Z M7,9.18749712 C6.6596215,9.20369316 6.40849815,9.35550228 6.24662994,9.64292447 C6.08474636,9.93080809 6.08474636,10.2182457 6.24662994,10.5061293 C6.40849815,10.7935668 6.6596215,10.937501 7,10.937501 C7.2594444,10.937501 7.46988537,10.8535061 7.63175357,10.6859316 C7.79362178,10.5179418 7.87500192,10.3101309 7.87500192,10.062499 C7.87500192,9.81486714 7.79406782,9.6109938 7.63175357,9.45130968 C7.46986999,9.2911949 7.2594444,9.20367778 7,9.18749712 Z M7.04681935,3.15218485 C5.69361101,3.13949564 4.80418184,3.7931208 4.59375625,5.02031373 C4.54210049,5.37276698 4.78104642,5.70207207 5.13213834,5.76228896 C5.48323026,5.82250585 5.81825224,5.59164383 5.8869946,5.24212115 C5.98281738,4.68650285 6.29387995,4.45769713 7.0345608,4.46424938 C7.84699337,4.47169372 8.11955765,4.83480514 8.13093949,5.21325127 C8.13375594,5.27832705 8.11632941,5.3426757 8.08105935,5.39743711 C7.99049682,5.56018202 7.79405244,5.74919745 7.44669103,5.95437816 C7.10323635,6.15694413 6.83899312,6.40894419 6.65349992,6.70031926 C6.36518564,7.15313187 6.302201,7.60113027 6.35118905,8.05655763 C6.35564642,8.09777219 6.3571193,8.1111074 6.35758441,8.10715132 L6.35775668,8.07932131 L6.35775668,8.07932131 C6.35661796,8.31453285 6.48144841,8.53236615 6.68495992,8.65030187 C6.88847143,8.76823759 7.13953713,8.76823759 7.34304863,8.65030187 C7.54656014,8.53236615 7.67139059,8.31453285 7.67025187,8.07932131 C7.67025187,8.02901051 7.65274845,7.88463034 7.65493253,7.90519456 C7.63699845,7.7231928 7.6610695,7.56130922 7.76081439,7.40513193 C7.83344283,7.29094441 7.94587694,7.18375517 8.11388211,7.08444094 C9.1017488,6.50081409 9.46312218,5.85068038 9.44255797,5.17430693 C9.41195005,4.16106181 8.66556291,3.16662748 7.04681935,3.15218485 Z"></path>
                </g>
            </g>
        </g>
    </g>
</svg>