<?xml version="1.0" encoding="UTF-8"?>
<svg width="172px" height="43px" viewBox="0 0 172 43" version="1.1" xmlns="http://www.w3.org/2000/svg" xmlns:xlink="http://www.w3.org/1999/xlink">
    <title>TokenPocket</title>
    <g id="HECO" stroke="none" stroke-width="1" fill="none" fill-rule="evenodd">
        <g id="合作伙伴" transform="translate(-2537.000000, -1497.000000)">
            <g id="编组-2备份-4" transform="translate(1920.000000, 903.000000)">
                <g id="编组-8" transform="translate(360.000000, 100.000000)">
                    <g id="编组-7" transform="translate(0.000000, 411.000000)">
                        <g id="TokenPocket" transform="translate(257.000000, 83.000000)">
                            <rect id="矩形" x="0" y="0" width="172" height="43"></rect>
                            <g id="编组" transform="translate(0.000000, 9.828571)">
                                <polygon id="Fill-1" fill="#29AEFF" points="0 1.55694981 0 9.47411798 4.20365928 9.47411798 4.21465368 23.6738867 12.0878442 23.6738867 12.0878442 1.55694981"></polygon>
                                <path d="M8.41817303,0 L8.41817303,22.1171395 L15.2622877,22.1171395 L15.2622877,16.3072982 C15.2622877,16.3072982 26.8162038,17.6937921 26.8162038,7.8566017 C26.8162038,-0.0439749166 16.8688695,0 16.8688695,0 L8.41817303,0 Z" id="Fill-2" fill="#2761E7"></path>
                                <path d="M127.523518,5.82639559 C130.699101,4.07188907 134.695666,5.22370251 136.450372,8.39908544 C136.600696,8.67154669 136.728231,8.95000489 136.836576,9.23246105 L136.836576,9.23246105 L133.875884,9.23246105 C132.717274,7.6592622 130.546179,7.1483224 128.790073,8.11862827 C126.880446,9.17369097 126.187799,11.5770671 127.243061,13.4866946 C128.298124,15.3963221 130.7015,16.0889694 132.610928,15.0337068 C133.065696,14.7826346 133.449101,14.4532024 133.758343,14.0739955 L133.758343,14.0739955 L136.774807,14.0739955 C136.226886,15.4089157 135.238989,16.5737225 133.877483,17.3259394 C130.7021,19.0806458 126.705335,17.9288324 124.950829,14.7532496 C123.196322,11.5776667 124.347936,7.581102 127.523518,5.82639559 Z M53.9178623,5.00703285 C57.5458147,5.00703285 60.486917,7.94813509 60.486917,11.5762874 C60.486917,15.2042399 57.5458147,18.1453421 53.9178623,18.1453421 C50.2899098,18.1453421 47.3488076,15.2042399 47.3488076,11.5762874 C47.3488076,7.94813509 50.2899098,5.00703285 53.9178623,5.00703285 Z M116.527958,5.00703285 C120.15591,5.00703285 123.097013,7.94813509 123.097013,11.5762874 C123.097013,15.2042399 120.15591,18.1453421 116.527958,18.1453421 C112.900006,18.1453421 109.958903,15.2042399 109.958903,11.5762874 C109.958903,7.94813509 112.900006,5.00703285 116.527958,5.00703285 Z M46.8425454,5.05115038 L46.8425454,8.22013657 L44.1797014,8.22013657 L44.1797014,17.6831175 L41.0107152,17.6831175 L41.0107152,8.22013657 L38.4138377,8.22013657 L38.4138377,5.05115038 L46.8425454,5.05115038 Z M168.314286,5.05115038 L168.314286,8.22013657 L165.651442,8.22013657 L165.651442,17.6831175 L162.482456,17.6831175 L162.482456,8.22013657 L159.885578,8.22013657 L159.885578,5.05115038 L168.314286,5.05115038 Z M85.757188,5.05117037 L90.9763302,12.8256112 L90.941348,5.05117037 L93.7507173,5.05117037 L93.7507173,17.6831375 L90.9007687,17.6831375 L85.7951687,10.4154386 L85.7951687,17.6831375 L83.1213303,17.6831375 L83.1213303,5.05117037 L85.757188,5.05117037 Z M82.02239,5.00717278 L82.02239,7.63643382 L76.783258,7.63643382 L76.783258,10.2403078 L82.02239,10.2403078 L82.02239,12.3898132 L76.783258,12.3898132 L76.783258,14.993887 L82.02239,14.993887 L82.02239,17.6831175 L73.6140719,17.6831175 L73.6140719,5.00717278 L82.02239,5.00717278 Z M158.783299,5.00717278 L158.783299,7.63643382 L153.543968,7.63643382 L153.543968,10.2403078 L158.783299,10.2403078 L158.783299,12.3898132 L153.543968,12.3898132 L153.543968,14.993887 L158.783299,14.993887 L158.783299,17.6831175 L150.374981,17.6831175 L150.374981,5.00717278 L158.783299,5.00717278 Z M64.9324331,5.05115038 L64.9324331,10.9049693 L69.4439356,5.05115038 L72.5689442,5.05115038 L67.8673385,11.5762275 L72.5689442,17.6831175 L69.4439356,17.6831175 L64.9324331,11.9834201 L64.9324331,17.6831175 L61.763247,17.6831175 L61.763247,5.05115038 L64.9324331,5.05115038 Z M141.340982,5.05115038 L141.340982,10.9049693 L145.852484,5.05115038 L148.977493,5.05115038 L144.276087,11.5762275 L148.977493,17.6831175 L145.852484,17.6831175 L141.340982,11.9834201 L141.340982,17.6831175 L138.171996,17.6831175 L138.171996,5.05115038 L141.340982,5.05115038 Z M104.127093,5.05117037 C106.740162,5.05117037 108.858684,7.16949162 108.858684,9.78256091 C108.858684,12.3958301 106.740162,14.5141513 104.127093,14.5141513 L104.127093,14.5141513 L102.311418,14.5141513 L102.311418,17.6831375 L99.1424316,17.6831375 L99.1424316,5.05117037 Z M53.9178623,7.62589919 C51.7361733,7.62589919 49.967474,9.39459848 49.967474,11.5762874 C49.967474,13.7577765 51.7361733,15.5264758 53.9178623,15.5264758 C56.0995512,15.5264758 57.8682505,13.7577765 57.8682505,11.5762874 C57.8682505,9.39459848 56.0995512,7.62589919 53.9178623,7.62589919 Z M116.527958,7.62589919 C114.346469,7.62589919 112.57777,9.39459848 112.57777,11.5762874 C112.57777,13.7577765 114.346469,15.5264758 116.527958,15.5264758 C118.709647,15.5264758 120.478346,13.7577765 120.478346,11.5762874 C120.478346,9.39459848 118.709647,7.62589919 116.527958,7.62589919 Z M104.108702,7.67543396 L102.311418,7.67543396 L102.311418,11.9636502 L104.108702,11.9636502 C105.292899,11.9636502 106.253011,11.003739 106.253011,9.81954207 C106.253011,8.63554503 105.292899,7.67543396 104.108702,7.67543396 L104.108702,7.67543396 Z" id="形状结合" fill="#FFFFFF"></path>
                            </g>
                        </g>
                    </g>
                </g>
            </g>
        </g>
    </g>
</svg>