<svg width="180" height="44" viewBox="0 0 180 44" fill="none" xmlns="http://www.w3.org/2000/svg">
<path fill-rule="evenodd" clip-rule="evenodd" d="M0 11.5571V19.4743H4.20366L4.21465 33.6741H12.0878V11.5571H0Z" fill="#29AEFF"/>
<path fill-rule="evenodd" clip-rule="evenodd" d="M8.41797 10V32.1171H15.2621V26.3073C15.2621 26.3073 26.816 27.6938 26.816 17.8566C26.816 9.95603 16.8687 10 16.8687 10H8.41797Z" fill="#2761E7"/>
<path fill-rule="evenodd" clip-rule="evenodd" d="M133.876 19.2324C132.718 17.6592 130.547 17.1483 128.791 18.1186C126.881 19.1737 126.188 21.577 127.244 23.4867C128.299 25.3963 130.702 26.0889 132.611 25.0337C133.066 24.7826 133.45 24.4532 133.759 24.074H136.775C136.227 25.4089 135.24 26.5737 133.878 27.3259C130.703 29.0806 126.706 27.9288 124.951 24.7532C123.197 21.5776 124.349 17.5811 127.524 15.8264C130.7 14.0718 134.696 15.2237 136.451 18.399C136.601 18.6715 136.729 18.95 136.837 19.2324H133.876ZM73.6143 15.0511V18.1761V19.7607V22.9296V24.514V27.683H76.7834H82.0226V24.9938H76.7834V22.3897H82.0226V20.2402H76.7834V17.6363H82.0226V15.0071H73.6143V15.0511ZM38.4141 18.22H41.0109V27.683H44.1799V18.22H46.8428V15.051H38.4141V18.22ZM168.314 15.051H159.886V18.22H162.483V27.683H165.652V18.22H168.314V15.051ZM85.757 15.051L90.9761 22.8255L90.9411 15.051H93.7505V27.683H90.9005L85.7949 20.4153V27.683H83.1211V15.051H85.757ZM150.375 18.1761V15.0511V15.0071H158.783V17.6363H153.544V20.2402H158.783V22.3897H153.544V24.9938H158.783V27.683H153.544H150.375V24.514V22.9296V19.7607V18.1761ZM53.9182 25.5266C51.7365 25.5266 49.9678 23.7579 49.9678 21.5764C49.9678 19.3947 51.7365 17.626 53.9182 17.626C56.0998 17.626 57.8685 19.3947 57.8685 21.5764C57.8685 23.7579 56.0998 25.5266 53.9182 25.5266ZM53.9177 15.0071C50.2897 15.0071 47.3486 17.9482 47.3486 21.5763C47.3486 25.2043 50.2897 28.1454 53.9177 28.1454C57.5456 28.1454 60.4867 25.2043 60.4867 21.5763C60.4867 17.9482 57.5456 15.0071 53.9177 15.0071ZM112.578 21.5764C112.578 23.7579 114.347 25.5266 116.528 25.5266C118.71 25.5266 120.479 23.7579 120.479 21.5764C120.479 19.3947 118.71 17.626 116.528 17.626C114.347 17.626 112.578 19.3947 112.578 21.5764ZM109.959 21.5763C109.959 17.9482 112.9 15.0071 116.528 15.0071C120.156 15.0071 123.097 17.9482 123.097 21.5763C123.097 25.2043 120.156 28.1454 116.528 28.1454C112.9 28.1454 109.959 25.2043 109.959 21.5763ZM69.4444 15.051L64.9329 20.9048V15.051H61.7637V27.683H64.9329V21.9833L69.4444 27.683H72.5694L67.8678 21.5761L72.5694 15.051H69.4444ZM141.341 20.9048L145.852 15.051H148.977L144.276 21.5761L148.977 27.683H145.852L141.341 21.9833V27.683H138.172V15.051H141.341V20.9048ZM104.109 21.9635H102.312V17.6753H104.109C105.293 17.6753 106.253 18.6354 106.253 19.8194C106.253 21.0036 105.293 21.9635 104.109 21.9635ZM104.127 15.051H102.312H99.1426V17.9665V21.6723V24.514V27.683H102.312V24.514H104.127C106.74 24.514 108.859 22.3957 108.859 19.7824C108.859 17.1693 106.74 15.051 104.127 15.051Z" fill="white"/>
</svg>
