<?xml version="1.0" encoding="UTF-8"?>
<svg width="24px" height="24px" viewBox="0 0 24 24" version="1.1" xmlns="http://www.w3.org/2000/svg" xmlns:xlink="http://www.w3.org/1999/xlink">
    <title>Twitter icon</title>
    <defs>
        <filter color-interpolation-filters="auto" id="twitter_dark-1">
            <feColorMatrix in="SourceGraphic" type="matrix" values="0 0 0 0 0.903137 0 0 0 0 0.931961 0 0 0 0 0.960784 0 0 0 0.800000 0"></feColorMatrix>
        </filter>
    </defs>
    <g id="组件/弹窗/导航" stroke="none" stroke-width="1" fill="none" fill-rule="evenodd" fill-opacity="0.8">
        <g id="组件" transform="translate(-584.000000, -6483.000000)">
            <g id="编组-3" transform="translate(90.000000, 5442.000000)">
                <g id="底部-Dark备份" transform="translate(2.000000, 891.000000)">
                    <g id="编组" transform="translate(360.000000, 80.000000)">
                        <g id="Twitter-icon" transform="translate(0.000000, 70.000000)" filter="url(#twitter_dark-1)">
                            <g transform="translate(132.004916, 0.000000)">
                                <path d="M12.0004469,0 C5.37278309,0 0,5.372583 0,12 C0,18.627417 5.37278309,24 12.0004469,24 C18.6281107,24 24.0008938,18.627417 24.0008938,12 C24.0008938,8.81740212 22.7365646,5.76515517 20.4860443,3.51471863 C18.2355239,1.26428208 15.1831633,0 12.0004469,0 Z M18.4610316,9.15254238 C18.5657722,13.0759322 15.8384109,18.3640678 9.57451657,18.3640678 C7.85759339,18.3640678 6.05030585,17.8779661 4.90432124,16.940339 C6.51261105,17.1725259 8.14652906,16.7393069 9.42254012,15.7423729 C8.11667314,15.6529292 6.99274485,14.7956713 6.57195473,13.5681356 C6.85742402,13.6291526 7.54953301,13.7186441 7.92742042,13.5681356 C7.12851717,13.2549153 5.46293739,12.5349153 5.5163345,10.4237288 C5.93735036,10.7654237 6.79786566,10.7979661 6.79786569,10.7979661 C6.11602539,10.4054237 4.82422553,8.45898305 5.97637135,6.75050848 C6.50418147,7.32 8.90705241,9.89694916 12.3018778,9.89898305 C11.97328,9.06711865 12.455908,6.15457627 15.3147083,6.15457627 C16.4586391,6.15457627 17.097351,6.56135592 17.5738177,7.12881356 C18.2712991,6.93462904 18.9513536,6.68360254 19.6070162,6.37830509 C19.6070162,6.37830509 19.3318156,7.28949152 18.2515505,8.10101695 C18.6417604,8.00135595 19.8206047,7.74101695 19.9849036,7.57627118 C19.6023273,8.20791317 19.0815941,8.74655208 18.4610316,9.15254238 Z" fill="#E6EEF5" fill-rule="nonzero"></path>
                            </g>
                        </g>
                    </g>
                </g>
            </g>
        </g>
    </g>
</svg>