<?xml version="1.0" encoding="UTF-8"?>
<svg width="24px" height="24px" viewBox="0 0 24 24" version="1.1" xmlns="http://www.w3.org/2000/svg" xmlns:xlink="http://www.w3.org/1999/xlink">
    <title>钱包-Light</title>
    <defs>
        <filter color-interpolation-filters="auto" id="filter-1">
            <feColorMatrix in="SourceGraphic" type="matrix" values="0 0 0 0 0.000000 0 0 0 0 0.000000 0 0 0 0 0.000000 0 0 0 1.000000 0"></feColorMatrix>
        </filter>
        <rect id="path-2" x="0" y="0" width="16" height="16"></rect>
    </defs>
    <g id="H5-HECO" stroke="none" stroke-width="1" fill="none" fill-rule="evenodd">
        <g id="H5首页-Light" transform="translate(-303.000000, -98.000000)">
            <g id="H5-HECO导航-Light" transform="translate(0.000000, 88.000000)">
                <g id="钱包-Light" transform="translate(303.000000, 10.000000)">
                    <circle id="椭圆形" fill-opacity="0.1" fill="#3C3C43" fill-rule="nonzero" cx="12" cy="12" r="12"></circle>
                    <g filter="url(#filter-1)" id="形状结合">
                        <g transform="translate(4.000000, 4.000000)">
                            <mask id="mask-3" fill="white">
                                <use xlink:href="#path-2"></use>
                            </mask>
                            <g id="蒙版"></g>
                            <path d="M4.33281495,1.68796381 C3.94847265,2.21517249 3.64975567,2.81555036 3.45863319,3.46590506 L3.23749578,3.46666667 C2.85752387,3.46666667 2.54949578,3.77469476 2.54949578,4.15466667 C2.54949578,4.50540997 2.81195758,4.79485203 3.15119452,4.83730617 L3.23749578,4.84266667 L11.7152355,4.84316297 L11.7152577,4.84477646 C12.9342659,5.04867186 13.9196594,5.9422009 14.257023,7.11067483 L11.36,7.11111111 C10.0345166,7.11111111 8.96,8.18562771 8.96,9.51111111 C8.96,10.7892558 9.95913597,11.8340398 11.2189818,11.907037 L11.36,11.9111111 L14.3816,11.9104889 L14.3822222,12.2666667 C14.3822222,14.0339779 12.9495334,15.4666667 11.1822222,15.4666667 L3.36,15.4666667 C1.5926888,15.4666667 0.16,14.0339779 0.16,12.2666667 L0.16,8 C0.16,7.93828955 0.1617468,7.87698708 0.165193653,7.81613936 C0.161762224,7.75529905 0.16,7.69372834 0.16,7.63174603 L0.16,4.88888889 C0.16,3.12157769 1.5926888,1.68888889 3.36,1.68888889 L4.33281495,1.68796381 Z M15.1822222,7.91111111 C15.62405,7.91111111 15.9822222,8.26928331 15.9822222,8.71111111 L15.9822222,10.3111111 C15.9822222,10.7529389 15.62405,11.1111111 15.1822222,11.1111111 L11.36,11.1111111 C10.4763444,11.1111111 9.76,10.3947667 9.76,9.51111111 C9.76,8.62745551 10.4763444,7.91111111 11.36,7.91111111 L15.1822222,7.91111111 Z M11.36,8.91111111 C11.0286292,8.91111111 10.76,9.17974026 10.76,9.51111111 C10.76,9.84248196 11.0286292,10.1111111 11.36,10.1111111 C11.6913708,10.1111111 11.96,9.84248196 11.96,9.51111111 C11.96,9.17974026 11.6913708,8.91111111 11.36,8.91111111 Z M8.60408898,0.8 C10.581146,0.8 12.2264905,2.10848362 12.5755475,3.83677035 L12.6044444,4 L4.60444444,3.9953536 C4.88206616,2.18915873 6.5669954,0.8 8.60408898,0.8 Z" fill="#03AD90" mask="url(#mask-3)"></path>
                        </g>
                    </g>
                </g>
            </g>
        </g>
    </g>
</svg>