<?xml version="1.0" encoding="UTF-8"?>
<svg width="24px" height="24px" viewBox="0 0 24 24" version="1.1" xmlns="http://www.w3.org/2000/svg" xmlns:xlink="http://www.w3.org/1999/xlink">
    <title>Weibo</title>
    <defs>
        <filter color-interpolation-filters="auto" id="weibo_dark-1">
            <feColorMatrix in="SourceGraphic" type="matrix" values="0 0 0 0 0.903137 0 0 0 0 0.931961 0 0 0 0 0.960784 0 0 0 0.800000 0"></feColorMatrix>
        </filter>
    </defs>
    <g id="组件/弹窗/导航" stroke="none" stroke-width="1" fill="none" fill-rule="evenodd" fill-opacity="0.8">
        <g id="组件" transform="translate(-672.000000, -6483.000000)">
            <g id="编组-3" transform="translate(90.000000, 5442.000000)">
                <g id="底部-Dark备份" transform="translate(2.000000, 891.000000)">
                    <g id="编组" transform="translate(360.000000, 80.000000)">
                        <g id="Weibo" transform="translate(0.000000, 70.000000)" filter="url(#weibo_dark-1)">
                            <g transform="translate(220.003650, 0.000000)">
                                <path d="M11.9981751,0 C18.6274699,0 23.9963503,5.36969697 23.9963503,12 C23.9963503,18.630303 18.6274699,24 11.9981751,24 C5.36888039,24 0,18.630303 0,12 C0,5.36969697 5.36888039,0 11.9981751,0 Z M9.99901739,6.98522122 C9.68254079,7.01159329 9.32738371,7.09422577 8.92827155,7.23136053 C8.44828204,7.39662549 7.96125971,7.63924851 7.46720457,7.96098774 C6.97314943,8.28272697 6.54414782,8.61853131 6.18195793,8.96840074 C5.81800983,9.31827018 5.4857094,9.65759079 5.18329843,9.98636257 C4.88088745,10.3151344 4.64880461,10.5823713 4.48353349,10.7898316 L4.25672526,11.1186034 C3.804867,11.7093377 3.46729196,12.2983139 3.24927474,12.8890482 C3.02949933,13.4780244 2.92576533,13.9245914 2.93983096,14.225233 L2.93983096,14.6577349 C3.02246651,15.3152785 3.2246599,15.9060128 3.54641111,16.4281797 C3.86816232,16.9503467 4.25320886,17.3722998 4.6980343,17.694039 C5.14285975,18.0157782 5.66856255,18.2900477 6.2716263,18.5168475 C6.87469005,18.7436473 7.45489715,18.9071541 8.01048941,19.0108843 C8.56608167,19.1146144 9.15332158,19.1849399 9.77045096,19.2271352 C10.7849343,19.3097677 11.8380981,19.2306515 12.9281842,18.9915447 C14.0182702,18.7506799 15.0345118,18.3357593 15.9733924,17.7467831 C16.9140312,17.1560488 17.5751156,16.4510355 17.9584039,15.6264689 C18.192245,15.1464972 18.3118028,14.6928976 18.3188356,14.2674283 C18.3258684,13.8419589 18.2537821,13.4956058 18.1025766,13.2283688 C17.9513711,12.9611318 17.7562106,12.7237832 17.5153367,12.5180811 C17.2744628,12.312379 17.0494128,12.1611791 16.8366702,12.0644815 C16.6239276,11.9677839 16.4357998,11.9062491 16.2705287,11.8798771 L16.2740451,11.8816352 C16.0683353,11.841198 15.9347119,11.7779051 15.8731748,11.6970307 C15.8116377,11.6143982 15.8010884,11.5387983 15.8415271,11.4702309 L15.9030642,11.3682589 C15.9171299,11.3541938 15.9311955,11.3348543 15.9452611,11.3067241 C15.9593267,11.2785939 15.987458,11.2205754 16.0278967,11.1309103 C16.0683353,11.0412453 16.099983,10.9533384 16.1210814,10.8636734 C16.1421799,10.7740083 16.1597619,10.6650038 16.1720693,10.5349016 C16.1843768,10.4047994 16.1808604,10.2817297 16.1615201,10.1639345 C16.1421799,10.0478974 16.099983,9.91955333 16.0384459,9.78417671 C15.9769088,9.64704196 15.8907568,9.52397231 15.7817482,9.41320962 C15.590104,9.2215726 15.338681,9.09674481 15.0309954,9.04224253 C14.7215516,8.98774026 14.413866,8.98422398 14.1044222,9.03169371 C13.7949784,9.07916343 13.5048749,9.14069825 13.2305951,9.21629818 C12.9563154,9.29189811 12.7295072,9.36398176 12.5519287,9.43254914 L12.2846817,9.55561879 C12.1475419,9.59605596 12.0332587,9.62418617 11.9453485,9.63825127 C11.8556801,9.65231637 11.7871102,9.6488001 11.7396387,9.62770244 C11.6921672,9.60660479 11.6534867,9.58726527 11.6271137,9.56616762 C11.6007406,9.54506996 11.5901914,9.49760024 11.595466,9.42200031 C11.6007406,9.34640038 11.6095317,9.28134928 11.6165645,9.22684701 C11.6235973,9.17234473 11.6411793,9.08619598 11.6675524,8.97015888 C11.6939254,8.85412178 11.7150239,8.76094047 11.7290895,8.6923731 C11.7290895,8.52710814 11.7185403,8.37415014 11.6974418,8.22998284 C11.6763434,8.08581553 11.6323883,7.92406685 11.5638184,7.74649492 C11.4952484,7.568923 11.3950309,7.42475569 11.2649238,7.31399301 C11.1348168,7.20323032 10.9695456,7.11532343 10.7708687,7.04675605 C10.5721917,6.97818867 10.315494,6.95709102 9.99901739,6.98522122 Z M13.7861874,12.0240444 C14.8147364,12.5866485 15.3298899,13.3549547 15.3298899,14.3289631 C15.3298899,15.3170366 14.8059453,16.2048962 13.7562979,16.9943001 C12.7048923,17.783704 11.4530516,18.2109315 9.99901739,18.281257 C8.51685197,18.3498244 7.25973658,18.0614898 6.22415481,17.4162532 C5.18857304,16.7710166 4.67166125,15.9552406 4.67166125,14.9671672 C4.67166125,13.9931588 5.18681483,13.1527689 6.21536379,12.4459974 C7.24391275,11.739226 8.50630275,11.3524357 10.0007756,11.2838683 C11.4952484,11.2153009 12.7576384,11.4614402 13.7861874,12.0240444 Z M9.40298646,12.5813741 C9.0056325,12.6218112 8.64871722,12.7149925 8.33224062,12.8591598 C8.01576402,13.0033272 7.76961555,13.1685921 7.59203701,13.3531966 C7.41445847,13.5378011 7.26325299,13.7364706 7.13842055,13.9492053 C7.01534631,14.16194 6.92919435,14.3711584 6.88172286,14.5768605 C6.83425137,14.7825627 6.80260371,14.9706834 6.78853808,15.1429809 C6.77447245,15.3135203 6.76743964,15.4471388 6.76743964,15.5438364 L6.78853808,15.7091013 L6.78853808,15.7917338 C6.78853808,15.832171 6.80260371,15.9148035 6.83073496,16.0378731 C6.85886622,16.1609428 6.89578849,16.2752217 6.94325998,16.3771937 C6.99073147,16.4809239 7.06985062,16.5934447 7.17885922,16.7165143 C7.28786783,16.839584 7.41973308,16.9433141 7.56918037,17.0259466 C8.47465509,17.4654811 9.3185927,17.5990995 10.1009932,17.426802 C10.8833937,17.2545045 11.5145887,16.8606816 11.9945782,16.2435752 C12.1862224,16.0097429 12.3145712,15.7231664 12.3743501,15.3785714 C12.4358872,15.0357345 12.4218216,14.6893814 12.3321532,14.3395119 C12.2424849,13.9896425 12.0895212,13.6714195 11.8697458,13.3830849 C11.6499703,13.0947503 11.3247027,12.8714668 10.8921847,12.7149925 C10.4614249,12.5567601 9.96385333,12.5110486 9.40298646,12.5813741 Z M8.95991922,14.7702557 C9.07596064,14.7913534 9.17617823,14.824758 9.25881378,14.8722277 C9.34144934,14.9196974 9.41353568,14.9741997 9.4750728,15.0374927 C9.53660991,15.0990275 9.5823232,15.1711111 9.60869625,15.2537436 C9.6350693,15.3363761 9.64913493,15.424283 9.65089313,15.5209806 C9.65089313,15.6721804 9.60693805,15.8163477 9.51726968,15.9534825 C9.42760131,16.0906173 9.30804348,16.2066544 9.15683799,16.3033519 C9.0056325,16.4000495 8.84036139,16.4545518 8.66102465,16.470375 C8.57838909,16.4844401 8.49926994,16.4879564 8.4254254,16.4809239 C8.34982265,16.4738913 8.28125272,16.4598262 8.21971561,16.4387286 C8.15817849,16.4176309 8.09488317,16.393017 8.03510425,16.3666449 C7.97356714,16.3402728 7.92257924,16.3015938 7.88038236,16.2541241 C7.83818548,16.2048962 7.80126321,16.1574265 7.76785735,16.1099568 C7.73445148,16.062487 7.70632023,16.0079848 7.68522179,15.9446918 C7.66412335,15.883157 7.65357413,15.8163477 7.65357413,15.7495385 C7.65357413,15.5983387 7.69401281,15.4506551 7.77664836,15.3064878 C7.85928392,15.1623205 7.97180893,15.0392508 8.11598161,14.9355207 C8.26015428,14.8317905 8.42190899,14.773772 8.59948753,14.7597069 C8.72256176,14.7456418 8.84211959,14.7491581 8.95991922,14.7702557 Z M10.3365924,14.2709446 C10.4385682,14.2850097 10.5106546,14.3395119 10.5528514,14.4362095 C10.5932901,14.4907118 10.6108722,14.5522466 10.6038393,14.620814 C10.5968065,14.6893814 10.5757081,14.7544325 10.5423022,14.8159673 C10.5106546,14.875744 10.4649413,14.9337625 10.410437,14.9882648 C10.3137358,15.0568322 10.2152764,15.0884787 10.1115424,15.0814461 C10.0095666,15.0744136 9.93748028,15.0304601 9.8952834,14.9478276 L9.85308652,14.8651952 C9.83902089,14.837065 9.83198808,14.8106929 9.83198808,14.7825627 L9.83198808,14.7016883 C9.83198808,14.6612512 9.83902089,14.6260884 9.85308652,14.5997163 L9.8952834,14.5170839 C9.90934902,14.4889537 9.92868926,14.4696141 9.95682051,14.455549 L10.0183576,14.3729166 C10.1273662,14.2902841 10.2346166,14.2568795 10.3365924,14.2709446 Z M14.9378106,4.96863709 C14.923745,4.96863709 14.9096793,4.97566964 14.8956137,4.98973474 L14.8745153,5.03193005 L14.8534168,5.0530277 C14.7022113,5.09346488 14.5791371,5.17961363 14.4824359,5.30971583 C14.3857347,5.43981804 14.3382633,5.58046907 14.3382633,5.73166892 C14.3382633,5.93737105 14.4068332,6.10966856 14.543973,6.24504518 C14.6811129,6.38217993 14.846384,6.45074731 15.0380282,6.45074731 L15.0995653,6.45074731 C15.1136309,6.45074731 15.1435204,6.44371476 15.1927501,6.42964966 C15.2419798,6.41558455 15.2929677,6.40503573 15.347472,6.39800318 C15.4019763,6.39097062 15.459997,6.37690552 15.5232923,6.35580787 C15.5848294,6.33471021 15.6410919,6.3153707 15.6885634,6.29427304 C15.7360349,6.27317539 15.8292197,6.26262656 15.9663596,6.26262656 C16.1034994,6.26262656 16.2722869,6.27317539 16.4709639,6.29427304 C16.6696409,6.3153707 16.8894163,6.36635669 17.1302902,6.44898917 C17.371164,6.53162165 17.6102797,6.63359365 17.8511535,6.75842144 C18.0920274,6.88324923 18.3311431,7.0537886 18.5720169,7.2717977 C18.8128908,7.49156493 19.022117,7.74473678 19.1996955,8.03307139 C19.5566108,8.84181482 19.6251807,9.62418617 19.4054053,10.3784273 L19.402768,10.399525 L19.402768,10.399525 L19.3948561,10.4206226 C19.3878233,10.4346877 19.377274,10.4680923 19.3632084,10.5225946 C19.3491428,10.5770969 19.3350772,10.6280829 19.3210115,10.6773108 C19.3069459,10.7247805 19.2928803,10.7880734 19.2788147,10.8619152 C19.264749,10.9375152 19.2577162,11.0025663 19.2577162,11.0570685 C19.2577162,11.1801382 19.2911221,11.2838683 19.359692,11.3665008 C19.4282619,11.4491333 19.5144139,11.5071518 19.6163897,11.5423146 C19.7183655,11.5774773 19.8396815,11.5933006 19.9768214,11.5933006 C20.3601097,11.5933006 20.5869179,11.3594682 20.6554879,10.8935617 C20.820759,10.3590878 20.9121856,9.84746968 20.933284,9.36046549 C20.9543824,8.8734613 20.9192184,8.44447566 20.8313082,8.0752667 C20.7416398,7.70429961 20.6080164,7.35794645 20.4304379,7.03620722 C20.2528593,6.71446799 20.0471495,6.44019848 19.8133085,6.2133987 C19.5794674,5.98659891 19.3192533,5.78089678 19.030908,5.59629231 C18.7425626,5.41168783 18.4647665,5.26400425 18.1975196,5.15324156 C17.9302727,5.04423702 17.6524766,4.95457198 17.3658894,4.88600461 C16.7628257,4.74886985 15.9522939,4.77524192 14.9378106,4.96863709 Z M15.5373579,7.517937 C15.4406568,7.517937 15.3597794,7.54255093 15.2912095,7.59002065 C15.2226395,7.63749037 15.1646188,7.6990252 15.1153891,7.77462513 C15.0661594,7.85022506 15.0433028,7.92934126 15.0433028,8.0102156 C15.0433028,8.14735036 15.0907743,8.26338746 15.1874755,8.36008504 C15.2841767,8.45502448 15.4002181,8.50425234 15.5373579,8.50425234 C16.6081038,8.2563549 17.1830363,8.60094993 17.2656718,9.532763 C17.2938031,9.76659533 17.2797375,9.98460443 17.2234749,10.1920647 C17.2234749,10.3291995 17.2709464,10.4452366 17.3676476,10.5419341 C17.4608324,10.6386317 17.5768738,10.6861014 17.7157719,10.6878596 C17.7984074,10.6878596 17.8740102,10.6667619 17.9425801,10.6263248 C18.01115,10.5858876 18.0656543,10.5331434 18.1078512,10.4716086 C18.1482899,10.4100738 18.1764212,10.3450227 18.1904868,10.2764553 C18.2045524,10.2623902 18.2115852,10.2430507 18.2115852,10.2149205 C18.3768563,8.65017779 17.8282969,7.75880189 16.5659069,7.53903465 C16.194926,7.47046728 15.8520763,7.46343472 15.5373579,7.517937 Z" id="形状结合" fill="#E6EEF5" fill-rule="nonzero"></path>
                            </g>
                        </g>
                    </g>
                </g>
            </g>
        </g>
    </g>
</svg>