<?xml version="1.0" encoding="UTF-8"?>
<svg width="226px" height="152px" viewBox="0 0 226 152" version="1.1" xmlns="http://www.w3.org/2000/svg" xmlns:xlink="http://www.w3.org/1999/xlink">
    <title>欢迎-Dark</title>
    <defs>
        <rect id="welcome_dark-1" x="0" y="0" width="226" height="152"></rect>
        <linearGradient x1="50.0008762%" y1="42.0708604%" x2="50.0008762%" y2="0.77524814%" id="linearGradient-3">
            <stop stop-color="#0F1114" offset="0%"></stop>
            <stop stop-color="#1E2229" offset="99%"></stop>
        </linearGradient>
        <linearGradient x1="50%" y1="100%" x2="50%" y2="-6.10873845e-14%" id="linearGradient-4">
            <stop stop-color="#0F1114" offset="0%"></stop>
            <stop stop-color="#1E2229" offset="100%"></stop>
        </linearGradient>
        <linearGradient x1="50%" y1="55.890623%" x2="49.9983164%" y2="40.8715107%" id="linearGradient-5">
            <stop stop-color="#1A1E24" offset="0%"></stop>
            <stop stop-color="#2B313B" offset="100%"></stop>
        </linearGradient>
    </defs>
    <g id="组件/弹窗/导航" stroke="none" stroke-width="1" fill="none" fill-rule="evenodd">
        <g id="H5更多-Dark" transform="translate(-149.000000, -88.000000)">
            <g id="欢迎-Dark" transform="translate(149.000000, 88.000000)">
                <mask id="welcome_dark-2" fill="white">
                    <use xlink:href="#welcome_dark-1"></use>
                </mask>
                <g id="蒙版"></g>
                <g mask="url(#welcome_dark-2)">
                    <g transform="translate(-26.000000, 33.000000)">
                        <path d="M251.898017,0 C251.898017,0 187.450425,4.51133144 149.150142,59.1997167 C110.849858,113.888102 251.898017,62.2379603 251.898017,62.2379603 L251.898017,0 Z" id="路径" fill="url(#linearGradient-3)" fill-rule="nonzero"></path>
                        <path d="M251.898017,28.2648725 C251.898017,28.2648725 212.40085,30.7507082 199.787535,32.776204 C187.174221,34.8016997 155.042493,37.1954674 125.120397,59.5679887 C100.906516,77.6133144 69.2351275,110.481586 43.5481586,116.834278 C24.8583569,121.437677 0,130 0,130 L251.805949,130 L251.898017,28.2648725 Z" id="路径" fill="url(#linearGradient-4)" fill-rule="nonzero"></path>
                        <g id="编组-10" stroke-width="1" fill="none" fill-rule="evenodd" transform="translate(140.984091, 21.529685)">
                            <path d="M56.6575525,84.1643657 L56.6575525,84.1643657 C51.4008186,83.8721508 47.3683453,79.387053 47.6348896,74.1289549 L49.4762493,38.4065753 C49.7684643,33.1498414 54.2535621,29.1173681 59.5116601,29.3839124 L59.5116601,29.3839124 C64.768394,29.6761273 68.8008673,34.1612251 68.534323,39.4193232 L66.6929632,75.1417028 C66.4007483,80.3984367 61.9156505,84.4309099 56.6575525,84.1643657 Z" id="路径" fill="#89B9CC" fill-rule="nonzero"></path>
                            <path d="M59.7878641,84.3485017 L59.7878641,84.3485017 C55.0679314,84.047638 51.440011,80.0528492 51.5938131,75.3258388 L53.6193088,37.8541674 C53.9201725,33.1342347 57.9149613,29.5063143 62.6419717,29.6601164 L62.6419717,29.6601164 C67.3619044,29.96098 70.9898248,33.9557688 70.8360227,38.6827793 L68.810527,76.1544507 C68.7278658,78.4472144 67.7236346,80.6096461 66.0252406,82.1520651 C64.3268467,83.6944841 62.077969,84.4864063 59.7878641,84.3485017 L59.7878641,84.3485017 Z" id="路径" fill="#6993B2" fill-rule="nonzero"></path>
                            <path d="M46.9805458,77.3694832 C42.0575429,79.145756 40.8218584,87.4788133 41.4663343,93.6473685 L43.3076941,108.378247 L59.3275241,108.378247 C59.3275241,108.378247 58.4989122,88.9519011 56.2892805,84.6247056 C54.8289144,81.764822 53.219999,77.8350272 50.986766,76.788054 C49.8409679,76.2508866 48.5919975,76.788054 46.9805458,77.3694832 Z" id="路径" fill="#272E38" fill-rule="nonzero"></path>
                            <path d="M28.208544,59.4901447 C28.0728297,60.0850925 27.8226683,60.6479558 27.4720001,61.1473685 C27.4720001,61.1473685 24.4337564,66.0269719 12.004578,43.8385866 C11.728374,43.3782467 11.544238,43.0099747 11.268034,42.5496348 C11.160534,42.3264433 11.0374732,42.1110869 10.8997621,41.9051589 C9.70287824,39.7875951 8.50599439,37.3938274 7.12497456,34.8159237 C6.48049864,33.5269719 5.83602272,32.2380201 5.28361479,31.0411362 C5.09947881,30.5807963 4.82327484,30.0283883 4.63913887,29.5680484 C4.44690263,29.2171646 4.2925856,28.8468037 4.17879892,28.4632325 C2.88002661,25.4776003 1.8029849,22.4003383 0.956419319,19.2564337 C0.283115612,17.0817422 -0.0279289338,14.811117 0.0357394323,12.5354705 C0.106347703,12.0766139 0.375880406,11.6723148 0.772283342,11.4306546 C2.33743915,10.2337708 6.20429467,10.1417028 10.4394222,15.2054422 C11.7632803,16.7919023 12.9058637,18.5212177 13.8459377,20.3612495 C14.2946804,21.214202 14.7863396,22.0438769 15.3190256,22.8470852 C15.5070977,23.102581 15.661794,23.3810344 15.7793655,23.6756971 C16.0555695,24.1360371 16.3317734,24.504309 16.6079774,24.964649 C17.8969292,26.8980767 19.3700171,29.1997764 20.8431049,31.3173402 L21.3955128,32.1459521 C21.7637848,32.606292 22.0399887,33.066632 22.4082607,33.5269719 C24.124295,36.0387556 26.0002219,38.4374818 28.024408,40.708275 C30.6023117,43.2861787 29.4054278,55.0708813 28.208544,59.4901447 Z" id="路径" fill="#2B343F" fill-rule="nonzero"></path>
                            <path d="M10.4394222,15.2054422 C10.1542576,16.803993 9.34432967,18.2618634 8.13772244,19.3485017 C6.0201587,21.3739974 2.79777909,20.1771135 0.956419319,19.2564337 C0.283115612,17.0817422 -0.0279289338,14.811117 0.0357394323,12.5354705 C0.106347703,12.0766139 0.375880406,11.6723148 0.772283342,11.4306546 C2.33743915,10.3258388 6.20429467,10.2337708 10.4394222,15.2054422 Z" id="路径" fill="#485668" fill-rule="nonzero"></path>
                            <path d="M0.127807421,12.6275385 C-0.148396545,14.8371702 0.680215353,21.9264053 7.21704255,34.8159237 C23.6972125,67.2238558 27.4720001,61.1473685 27.4720001,61.1473685 C27.748204,60.9632325 27.93234,60.4108246 28.208544,59.4901447 C26.2751162,57.9249889 16.5159094,50.6516178 7.5853145,30.7649322 C3.07398306,20.8215895 1.41675926,15.0213062 0.772283342,11.5227226 C0.391883861,11.7655366 0.151925555,12.1768937 0.127807421,12.6275385 L0.127807421,12.6275385 Z" id="路径" fill="#000000" fill-rule="nonzero" opacity="0.23"></path>
                            <path d="M55.5527366,32.422156 C55.0003287,33.3428359 53.2510369,35.9207396 52.606561,37.1176235 C51.6858811,38.7748473 51.6858811,43.9306546 52.238289,46.5085583 C52.7906969,49.086462 54.2637848,49.9150739 54.2637848,49.9150739 C54.5399887,52.0326376 52.7906969,76.4306546 52.7906969,76.4306546 C52.7906969,76.4306546 52.146221,76.8909946 47.0824816,77.9037424 C42.0187423,78.9164903 41.0980624,88.2153572 41.5584023,93.5553005 C33.5484873,94.6601164 32.4436714,84.6247056 30.0499037,80.4816461 C27.656136,76.3385866 25.0782324,78.5482184 25.0782324,78.5482184 C25.0782324,67.3159237 22.9606686,67.1317878 22.8686006,52.8612495 C22.7765326,38.5907113 27.2878641,36.0128076 27.2878641,36.0128076 C28.2355685,35.3760977 29.3729534,35.0836273 30.5102437,35.1841957 C31.3760683,35.1991054 32.2388171,35.2915428 33.0881474,35.4603997 C38.3304033,36.461263 43.7442262,35.0401345 47.8190256,31.5935441 C49.0159094,31.9618161 53.9875808,32.1459521 55.5527366,32.422156 Z" id="路径" fill="#343E4C" fill-rule="nonzero"></path>
                            <path d="M0.21987541,10.7861787 C-0.0379974788,11.7479384 -0.0695109664,12.75637 0.127807421,13.7323543 C0.365316739,14.666497 0.841163915,15.5230219 1.50882725,16.21819 C2.26221895,17.010811 3.21695823,17.5836545 4.27086691,17.8754138 C5.44970673,18.1620433 6.69032342,17.7721352 7.49324651,16.862666 C8.12948723,15.9864726 8.33275568,14.8684961 8.04565445,13.8244223 C7.67738249,11.8909946 6.84877059,11.2465186 6.38843065,10.2337708 C6.38843065,9.40515887 6.66463462,6.91932318 6.66463462,6.09071128 C6.66463462,5.26209938 6.66463462,4.52555548 6.0201587,3.97314754 C4.91534283,3.14453565 4.17879892,4.70969145 3.99466295,5.44623536 C3.90259496,5.99864329 3.90259496,6.09071128 3.81052697,6.55105123 C3.81052697,6.55105123 3.71845898,-0.354047924 1.69296323,0.0142240306 C-0.332532522,0.382495985 1.41675926,6.82725519 1.32469127,8.20827502 C1.04848731,8.76068295 0.680215353,9.68136284 0.496079376,10.1417028 C0.420940472,10.3633952 0.328591337,10.5788765 0.21987541,10.7861787 L0.21987541,10.7861787 Z" id="路径" fill="#91A0B5" fill-rule="nonzero"></path>
                            <path d="M52.238289,39.0510512 C52.238289,39.0510512 45.7935298,40.4320711 47.1745496,57.9249889 C48.5555695,75.4179068 60.064068,62.6204563 62.0895638,60.2266886 C64.1150595,57.8329209 66.9691672,55.5312212 64.3912635,53.3215895 C61.8133598,51.1119577 52.238289,39.0510512 52.238289,39.0510512 Z" id="路径" fill="#455260" fill-rule="nonzero"></path>
                            <path d="M16.6079774,24.964649 C14.9507536,27.2663487 11.1759661,31.3173402 5.37568278,30.9490682 C5.1915468,30.4887283 4.91534283,29.9363203 4.73120685,29.4759804 C9.17282957,29.5042297 13.3284263,27.2879114 15.7793655,23.5836291 C16.0555695,24.1360371 16.3317734,24.504309 16.6079774,24.964649 Z" id="路径" fill="#485668" fill-rule="nonzero"></path>
                            <path d="M22.4082607,33.6190399 C21.9343801,35.8083684 20.9572089,37.8572758 19.554153,39.6034592 C17.1603853,42.0892949 15.1348896,42.9179068 11.91251,43.8385866 C11.636306,43.3782467 11.45217,43.0099747 11.1759661,42.5496348 C13.3855978,41.9051589 16.5159094,40.524139 17.8969292,38.9589832 C19.6938689,37.1079776 20.9100162,34.7716947 21.3955128,32.2380201 C21.7626888,32.675909 22.100986,33.1372233 22.4082607,33.6190399 L22.4082607,33.6190399 Z" id="路径" fill="#485668" fill-rule="nonzero"></path>
                            <path d="M56.3813485,32.69836 C56.2524527,32.7021919 56.1250049,32.67033 56.0130765,32.606292 C56.1972125,32.606292 56.2892805,32.606292 56.3813485,32.69836 L56.3813485,32.69836 Z" id="路径"></path>
                            <path d="M54.5399887,30.0283883 C56.0130765,31.5014762 56.0130765,32.790428 54.4479207,34.0793798 C53.8955128,34.5397198 52.054153,35.9207396 52.054153,35.9207396 C42.8473542,41.9972269 33.9167593,38.7748473 28.4847479,33.066632 C27.4720001,32.0538841 28.024408,30.5807963 29.0371559,29.5680484 C30.7864476,27.9108246 36.310527,26.1615328 42.2028782,26.3456688 C46.0697338,26.5298048 51.3176091,26.8980767 54.5399887,30.0283883 Z" id="路径" fill="#CFDAE5" fill-rule="nonzero"></path>
                            <path d="M27.564068,43.8385866 C27.748204,43.9306546 33.8246913,46.6006263 33.8246913,46.6006263 L33.5484873,49.270598 L27.4720001,46.4164903 L27.4720001,43.8385866 L27.564068,43.8385866 Z" id="路径" fill="#21A3FF" fill-rule="nonzero"></path>
                            <rect id="矩形" fill="#21A3FF" fill-rule="nonzero" x="37.8756828" y="46.8768303" width="7.08923513" height="2.30169972"></rect>
                            <circle id="椭圆形" fill="#91A0B5" fill-rule="nonzero" cx="33.8246913" cy="60.3187566" r="4.97167139"></circle>
                            <circle id="椭圆形" fill-opacity="0.7" fill="#708399" fill-rule="nonzero" cx="41.8346063" cy="21.6502014" r="17.4929178"></circle>
                            <path d="M40.2694505,7.93207106 C38.2446236,8.7796546 36.3771134,9.96241106 34.7453712,11.4306546 C33.9635064,12.1855183 33.2257422,12.9847629 32.5357394,13.8244223 C32.2207686,14.2713679 31.8827279,14.7016015 31.5229916,15.1133742 C31.183143,15.5957505 30.8141859,16.0569469 30.4181757,16.494394 C30.4125812,15.9000131 30.5059237,15.3088435 30.6943797,14.7451022 C30.8530697,14.172474 31.0689828,13.6172689 31.3388556,13.0878784 C31.8836875,11.9995455 32.5985093,11.0050109 33.4564193,10.1417028 C34.3844558,9.32679266 35.442562,8.67325642 36.5867309,8.20827502 C37.7693229,7.79715883 39.0387657,7.70195062 40.2694505,7.93207106 L40.2694505,7.93207106 Z" id="路径" fill="#FFFFFF" fill-rule="nonzero"></path>
                            <path d="M29.3430917,33.8708177 C30.1906026,34.5839643 31.0175922,35.3638714 31.9833315,36.0128076 C37.2312069,38.8669152 43.1235581,40.708275 52.330357,35.6445356 C53.5358418,34.7454363 54.6190806,33.6931472 55.5527366,32.514224 L55.6448046,37.0255555 C55.6448046,37.0255555 49.4762493,43.1020427 40.4535865,42.3654988 C31.4309236,41.6289549 27.93234,36.6572835 27.93234,36.6572835 C27.93234,36.6572835 28.024408,33.2507679 28.024408,32.3300881 C28.300612,32.69836 29.3430917,33.8708177 29.3430917,33.8708177 Z" id="路径" fill="#91A0B5" fill-rule="nonzero"></path>
                            <path d="M77.004578,65.9349039 C76.820442,66.3952439 76.728374,66.7635158 76.544238,67.2238558 C74.0584023,73.116207 68.442255,78.2720144 61.7212918,78.6402864 C49.5683173,79.3768303 57.1178924,73.8527509 57.1178924,73.8527509 C63.5626516,70.4462354 64.8516035,66.7635158 65.0357394,64.3697481 L65.0357394,62.9887283 C64.971444,62.6861299 64.9405696,62.3773865 64.9436714,62.0680484 C64.6674675,60.5028926 62.7340397,58.1091249 60.616476,55.8994932 C60.2101664,55.4471189 59.7798984,55.0168509 59.3275241,54.6105413 C56.7496205,52.0326376 54.2637848,49.9150739 54.2637848,49.9150739 C47.9110935,41.9972269 54.2637848,36.1048756 54.3558527,36.0128076 C55.7368726,34.8159237 57.4861644,33.7111079 59.4195921,33.8952439 C60.962308,34.0661659 62.3800006,34.8244666 63.3785156,36.0128076 C65.3977803,38.3387373 66.9596156,41.025094 67.9819151,43.9306546 C68.1097594,44.4115624 68.2952394,44.8752624 68.534323,45.3116745 C68.8756862,45.7636779 69.2446616,46.1941492 69.6391389,46.6006263 C69.9153428,46.8768303 70.1915468,47.2451022 70.5598188,47.6133742 C71.5725666,48.71819 73.0456544,50.4674818 75.2552862,53.0453855 C78.1093938,56.7281051 78.4776658,61.5156405 77.004578,65.9349039 Z" id="路径" fill="#343E4C" fill-rule="nonzero"></path>
                            <path d="M70.4677508,47.7054422 C67.7057111,47.7975101 62.6419717,48.994394 60.524408,55.9915611 C60.1180984,55.5391868 59.6878304,55.1089189 59.2354561,54.7026093 C60.248204,51.7564337 62.9181757,46.8768303 69.5470709,46.6926943 C69.8726611,47.0127945 70.1800374,47.3509084 70.4677508,47.7054422 L70.4677508,47.7054422 Z" id="路径" fill="#485668" fill-rule="nonzero"></path>
                            <path d="M77.004578,65.9349039 C76.820442,66.3952439 76.728374,66.7635158 76.544238,67.2238558 C74.9790822,65.290428 71.5725666,62.6204563 65.0357394,64.3697481 L65.0357394,62.9887283 C67.3107376,62.539754 69.6451454,62.4775031 71.9408386,62.8045923 C73.8473043,63.4441256 75.5802682,64.5154124 77.004578,65.9349039 L77.004578,65.9349039 Z" id="路径" fill="#485668" fill-rule="nonzero"></path>
                            <g id="编组-7" transform="translate(44.777049, 52.676804)">
                                <path d="M22.0079818,10.8643317 C22.0083956,16.9302866 17.1176354,21.8619408 11.0518912,21.9124904 C7.7612111,21.9122483 4.64735922,20.4230148 2.5816362,17.8614989 L2.5816362,17.8614989 C2.39750023,17.6773629 2.30543224,17.4932269 2.12129626,17.3090909 C2.02771944,17.1344169 1.90289677,16.9783886 1.75302431,16.848751 L1.75302431,16.848751 C1.68188707,16.6836788 1.58899592,16.5288602 1.47682034,16.3884111 C1.3161592,16.1306599 1.19220932,15.8517727 1.10854838,15.5597992 C0.91397306,15.114205 0.759904685,14.6519999 0.648208441,14.1787793 C0.556140453,13.9025754 0.464072464,13.5343034 0.372004475,13.2580994 L0.372004475,13.1660315 C0.372004475,13.0739635 0.279936487,12.8898275 0.279936487,12.7977595 L0.279936487,12.6136235 C0.203660428,12.2505784 0.172734754,11.8794703 0.187868498,11.5088077 L0.187868498,11.0484677 C0.187657871,4.98251288 5.07821494,0.050858698 11.1439591,0.000309078014 L12.8011829,0.000309078014 C12.9300788,-0.00352283909 13.0575266,0.0283391089 13.1694549,0.0923770667 L13.2615229,0.0923770667 C13.4456589,0.0923770667 13.5377269,0.184445055 13.7218628,0.184445055 C13.9059988,0.184445055 14.1822028,0.276513044 14.3663388,0.368581033 C14.5504747,0.460649021 14.6425427,0.460649021 14.8266787,0.55271701 C14.9651253,0.575771548 15.0934391,0.639928442 15.1949507,0.736852987 C15.3790866,0.828920976 15.4711546,0.828920976 15.6552906,0.920988965 C15.8394266,1.01305695 15.8394266,1.01305695 15.9314946,1.01305695 C16.0235625,1.01305695 16.1156305,1.10512494 16.2076985,1.19719293 C16.4117811,1.287017 16.5986986,1.41162872 16.7601065,1.56546489 C16.9442424,1.65753287 17.1283784,1.84166885 17.3125144,1.93373684 C17.4966504,2.02580483 17.6807863,2.20994081 17.8649223,2.30200879 C18.0607822,2.40619632 18.2210747,2.56648885 18.3252623,2.76234874 C18.5093982,2.94648472 18.6935342,3.0385527 18.7856022,3.22268868 L19.2459422,3.68302862 C19.4300781,3.8671646 19.5221461,4.05130058 19.6142141,4.14336857 C19.7062821,4.23543656 19.8904181,4.51164052 19.9824861,4.6957765 C21.316312,6.47395897 22.0280685,8.64158096 22.0079818,10.8643317 L22.0079818,10.8643317 Z" id="路径" fill="#21A3FF" fill-rule="nonzero"></path>
                                <circle id="椭圆形" fill="#0080ED" fill-rule="nonzero" cx="11.0518912" cy="10.8643317" r="8.00991501"></circle>
                                <path d="M4.88333592,12.7056915 C4.88840953,8.28404087 8.47160029,4.70085011 12.8932509,4.6957765 C14.570844,4.70400283 16.2070659,5.21732732 17.5887184,6.16886432 C16.1049237,4.08446669 13.7025389,2.8489545 11.1439591,2.85439869 C6.7223085,2.85949034 3.13911775,6.4426811 3.1340261,10.8643317 C3.12858191,13.4229115 4.3640941,15.8252963 6.44849173,17.3090909 C5.42073319,15.9960296 4.86893294,14.3730877 4.88333592,12.7056915 L4.88333592,12.7056915 Z" id="路径" fill="#0077CC" fill-rule="nonzero"></path>
                                <path d="M13.8139308,9.75951588 L13.6297948,9.5753799 L11.1439591,7.36574817 C10.7649848,7.00787981 10.2806467,6.78185536 9.76293932,6.72127225 C8.76153244,6.55380903 7.75439461,6.98543953 7.18503564,7.82608811 C6.87229918,8.21353097 6.73847001,8.71539039 6.81676368,9.20710794 L6.81676368,13.9946434 C6.82876434,14.3487754 6.98105977,14.6836089 7.24009845,14.9253784 C7.49913714,15.1671478 7.84366601,15.2960169 8.19778351,15.2835952 L8.38191949,15.2835952 L8.38191949,9.20710794 C8.40098998,9.01147081 8.46392958,8.82265202 8.56605547,8.65470001 C8.67499082,8.48480595 8.83673247,8.35541263 9.02639541,8.28642806 C9.23239305,8.21090633 9.45196751,8.17953855 9.67087133,8.19436007 C9.88480383,8.20785635 10.0841227,8.3075158 10.2232793,8.47056404 L12.8011829,10.5881278 L12.9853189,10.7722638 C13.2229213,10.8972333 13.3665538,11.14859 13.3535909,11.4167397 C13.3682854,11.709805 13.2285879,11.9892 12.9853189,12.1532836 C12.7576881,12.3533684 12.4588625,12.4529769 12.156707,12.4294875 C11.8590311,12.422732 11.5702892,12.3264847 11.3280951,12.1532836 C11.1172582,11.9626828 10.9858017,11.6997697 10.9598232,11.4167397 C10.9598232,11.0484677 11.1439591,10.9563997 11.4201631,10.6801958 C11.5485602,10.5958977 11.6715577,10.5036495 11.7884351,10.4039918 L10.5915512,9.39124392 L10.4074152,9.5753799 C9.7754606,9.96426311 9.41866913,10.677846 9.48673535,11.4167397 C9.476242,12.0772927 9.74345653,12.7119273 10.2232793,13.1660315 C10.7479871,13.6527698 11.4411448,13.9168299 12.156707,13.9025754 C12.868568,13.8963934 13.5545928,13.6350506 14.0901348,13.1660315 C14.5548373,12.7016068 14.8192235,12.0736896 14.8267235,11.4167397 C14.8315503,10.7167341 14.4390795,10.0745091 13.8139308,9.75951588 L13.8139308,9.75951588 Z" id="路径" fill="#0077CC"></path>
                                <path d="M17.2204464,7.9181561 C16.9275033,7.49372482 16.5089351,7.17174929 16.0235625,6.99747622 C15.5281276,6.7955623 14.987175,6.73192082 14.4584067,6.81334024 C13.9467368,6.89440172 13.4681782,7.11772907 13.0773869,7.45781616 L12.709115,7.73402013 L12.340843,8.01022409 L13.5377269,9.02297197 L13.7218628,8.83883599 L14.0901348,8.56263202 C14.2742708,8.37849605 14.4584067,8.37849605 14.6425427,8.28642806 C14.8614465,8.27160654 15.081021,8.30297432 15.2870186,8.37849605 C15.4766816,8.44748062 15.6384232,8.57687394 15.7473586,8.746768 C15.8494845,8.91472001 15.9124241,9.1035388 15.9314946,9.29917593 L15.9314946,15.3756632 L16.1156305,15.3756632 C16.4832717,15.4060472 16.8475226,15.2860712 17.125144,15.0431525 C17.4027654,14.8002337 17.5700315,14.4551323 17.5887184,14.0867113 L17.5887184,9.29917593 C17.6094629,8.81207412 17.4809768,8.33025124 17.2204464,7.9181561 L17.2204464,7.9181561 Z" id="路径" fill="#0077CC"></path>
                                <path d="M12.524979,9.39124392 L12.340843,9.20710794 L9.85500731,6.99747622 C9.47603301,6.63960786 8.9916949,6.41358341 8.47398748,6.3530003 C7.4725806,6.18553708 6.46544276,6.61716758 5.8960838,7.45781616 C5.58334734,7.84525902 5.44951817,8.34711843 5.52781184,8.83883599 L5.52781184,13.6263714 C5.5398125,13.9805034 5.69210793,14.315337 5.95114661,14.5571064 C6.2101853,14.7988758 6.55471417,14.927745 6.90883167,14.9153232 L7.09296765,14.9153232 L7.09296765,8.83883599 C7.11203814,8.64319886 7.17497774,8.45438006 7.27710363,8.28642806 C7.38603897,8.116534 7.54778063,7.98714067 7.73744357,7.9181561 C7.94344121,7.84263438 8.16301567,7.8112666 8.38191949,7.82608811 C8.59585199,7.8395844 8.7951709,7.93924385 8.93432742,8.10229208 L11.5122311,10.2198558 L11.6963671,10.4039918 C11.9339695,10.5289613 12.0776019,10.780318 12.064639,11.0484677 C12.0793336,11.341533 11.939636,11.6209281 11.6963671,11.7850116 C11.4687363,11.9850964 11.1699107,12.0847049 10.8677552,12.0612156 C10.5700792,12.05446 10.2813374,11.9582127 10.0391433,11.7850116 C9.8283064,11.5944108 9.69684985,11.3314977 9.67087133,11.0484677 C9.67087133,10.6801958 9.85500731,10.5881278 10.1312113,10.3119238 C10.2596084,10.2276257 10.3826059,10.1353776 10.4994832,10.0357198 L9.30259938,9.02297197 L9.1184634,9.20710794 C8.48650875,9.59599115 8.12971729,10.3095741 8.19778351,11.0484677 C8.18729016,11.7090208 8.45450469,12.3436553 8.93432742,12.7977595 C9.45903522,13.2844979 10.1521929,13.548558 10.8677552,13.5343034 C11.5796161,13.5281215 12.265641,13.2667787 12.8011829,12.7977595 C13.2658855,12.3333348 13.5302716,11.7054176 13.5377269,11.0484677 C13.5300513,10.3520062 13.1412501,9.71578594 12.524979,9.39124392 Z" id="路径" fill="#FFFFFF"></path>
                                <path d="M15.8394266,7.54988415 C15.5464834,7.12545286 15.1279153,6.80347734 14.6425427,6.62920426 C14.1471078,6.42729034 13.6061552,6.36364886 13.0773869,6.44506828 C12.565717,6.52612976 12.0871584,6.74945712 11.6963671,7.08954421 L11.3280951,7.36574817 L10.9598232,7.64195214 L12.156707,8.65470001 L12.340843,8.47056404 L12.709115,8.19436007 C12.8932509,8.01022409 13.0773869,8.01022409 13.2615229,7.9181561 C13.4804267,7.90333459 13.7000012,7.93470237 13.9059988,8.01022409 C14.0956618,8.07920866 14.2574034,8.20860198 14.3663388,8.37849605 C14.4684646,8.54644805 14.5314042,8.73526684 14.5504747,8.93090398 L14.5504747,15.0073912 L14.7346107,15.0073912 C15.1022518,15.0377752 15.4665027,14.9177993 15.7441242,14.6748805 C16.0217456,14.4319618 16.1890117,14.0868603 16.2076985,13.7184394 L16.2076985,8.93090398 C16.2859922,8.43918642 16.152163,7.93732701 15.8394266,7.54988415 Z" id="路径" fill="#74CDFF"></path>
                                <path d="M20.166622,4.60370851 C16.4839025,1.10512494 10.4074152,0.000309078014 4.60713195,4.41957253 C0.372004475,9.94365185 1.10854838,15.7439351 4.14679201,19.5187227 C3.35545429,18.897771 2.67122257,18.1513364 2.12129626,17.3090909 C2.02771944,17.1344169 1.90289677,16.9783886 1.75302431,16.848751 L1.75302431,16.848751 C1.68188707,16.6836788 1.58899592,16.5288602 1.47682034,16.3884111 C1.29268436,16.1122071 1.20061637,15.8360031 1.0164804,15.5597992 L0.464072464,14.1787793 C0.372004475,13.9025754 0.279936487,13.5343034 0.187868498,13.2580994 L0.187868498,13.1660315 C0.187868498,13.0739635 0.0958005094,12.8898275 0.0958005094,12.7977595 L0.0958005094,12.6136235 C0.019524451,12.2505784 -0.0114012231,11.8794703 0.00373252069,11.5088077 L0.00373252069,11.0484677 C0.00373252069,4.94673819 4.95016163,0.000309078014 11.0518912,0.000309078014 L12.709115,0.000309078014 C12.8380108,-0.00352283909 12.9654586,0.0283391089 13.0773869,0.0923770667 L13.1694549,0.0923770667 C13.3535909,0.0923770667 13.4456589,0.184445055 13.6297948,0.184445055 C13.8139308,0.184445055 14.0901348,0.276513044 14.2742708,0.368581033 C14.4584067,0.460649021 14.5504747,0.460649021 14.7346107,0.55271701 C14.8730573,0.575771548 15.0013711,0.639928442 15.1028827,0.736852987 C15.2870186,0.828920976 15.3790866,0.828920976 15.5632226,0.920988965 C15.7473586,1.01305695 15.7473586,1.01305695 15.8394266,1.01305695 C15.9314946,1.01305695 16.0235625,1.10512494 16.1156305,1.19719293 C16.3197131,1.287017 16.5066307,1.41162872 16.6680385,1.56546489 C16.8521744,1.65753287 17.0363104,1.84166885 17.2204464,1.93373684 C17.4045824,2.02580483 17.5887184,2.20994081 17.7728543,2.30200879 C17.9687142,2.40619632 18.1290067,2.56648885 18.2331943,2.76234874 L18.6935342,3.22268868 L19.1538742,3.68302862 C19.3380101,3.8671646 19.4300781,4.05130058 19.6142141,4.14336857 C19.7983501,4.23543656 19.9824861,4.41957253 20.166622,4.60370851 Z" id="路径" fill="#54B8FF" fill-rule="nonzero"></path>
                            </g>
                            <path d="M52.330357,71.7351872 C52.0244515,70.925679 51.7782776,70.0948423 51.5938131,69.2493515 C51.5938131,68.4207396 51.5017451,66.7635158 53.1589689,69.5255555 C54.8161927,72.2875951 55.0923967,73.208275 58.0385723,74.0368869 C60.9847479,74.8654988 60.708544,79.6530342 54.8161927,78.3640824 C48.9238414,77.0751305 46.9904137,72.5637991 46.7142097,70.9065753 C46.4380057,69.2493515 45.9776658,67.1317878 48.2793655,69.9858954 C50.5810652,72.8400031 52.054153,71.7351872 52.330357,71.7351872 Z" id="路径" fill="#91A0B5" fill-rule="nonzero"></path>
                            <path d="M43.3076941,108.470315 L28.208544,108.470315 C23.4210086,80.6657821 25.0964673,78.4097299 25.0964673,78.4097299 C25.0964673,78.4097299 27.674371,76.2921662 30.0681387,80.3431577 C31.2650226,82.2765854 32.0936345,85.775169 33.5667223,88.5372087 C35.1318781,91.5754523 37.5454593,93.7973636 41.5584023,93.5553005 L43.3076941,108.470315 Z" id="路径" fill="#272E38" fill-rule="nonzero"></path>
                            <circle id="椭圆形" fill="#91A0B5" fill-rule="nonzero" cx="59.9720001" cy="46.3244223" r="2.30169972"></circle>
                            <path d="M43.3076941,108.470315 L36.034323,108.470315 C35.666051,103.774847 34.3041918,93.9495027 33.4755799,88.4254234 C34.8529066,91.0495175 37.5074108,94.1997764 41.5584023,93.5553005 L43.3076941,108.470315 Z" id="路径" fill="#1E242B" fill-rule="nonzero"></path>
                            <path d="M36.034323,19.6247056 C36.034323,19.6247056 33.7326233,25.0567169 35.2977791,29.5680484 C35.5739831,29.9363203 36.4946629,30.4887283 36.7708669,31.5014762 C37.0470709,32.514224 37.4153428,33.8031759 37.4153428,33.8031759 C37.4153428,33.8031759 43.860102,34.6317878 46.0697338,30.4887283 C44.6887139,28.7394365 47.4507536,25.5170569 47.6348896,25.1487849 C47.8190256,24.780513 47.4507536,17.7833458 41.5584023,17.8754138 C37.3232748,18.0595498 36.034323,19.6247056 36.034323,19.6247056 Z" id="路径" fill="#EAD3D1" fill-rule="nonzero"></path>
                            <path d="M35.758119,17.9674818 C35.758119,17.9674818 35.0215751,20.9136575 39.2567026,21.6502014 C40.4358079,21.7815944 41.6293829,21.6559549 42.7552862,21.2819294 C42.7552862,21.2819294 45.1490539,20.1771135 45.7014618,22.0184733 C45.8706603,22.4819152 45.8373931,22.9951185 45.609779,23.4328379 C45.3821649,23.8705573 44.9811418,24.1925276 44.504578,24.320173 C45.7935298,24.2281051 45.9776658,24.2281051 46.2538697,24.596377 C46.5300737,24.964649 46.7142097,26.4377368 44.7807819,28.2790966 C45.176412,29.0833456 45.6383491,29.8532408 46.1618018,30.5807963 C48.2832467,29.7250716 49.9516489,28.0233013 50.7652012,25.8853288 C51.8700171,22.4788133 51.5017451,18.1516178 48.8317734,16.402326 C48.8317734,16.402326 49.4762493,16.494394 49.7524533,16.126122 C50.0286573,15.7578501 48.7397054,15.8499181 48.4635015,16.126122 C48.6086733,15.837731 48.7021566,15.52612 48.7397054,15.2054422 C48.7397054,14.7451022 48.1872975,15.2975101 48.1872975,16.0340541 C47.4980931,14.9506711 46.4040167,14.188133 45.1490539,13.9164903 C42.5711502,13.3640824 37.3232748,12.9958104 35.758119,17.9674818 Z" id="路径" fill="#685776" fill-rule="nonzero"></path>
                        </g>
                        <g id="编组-11" stroke-width="1" fill="none" fill-rule="evenodd" transform="translate(107.046742, 81.844347)">
                            <path d="M31.2110482,24.4941795 C29.7733567,23.923563 28.2460311,23.6118639 26.6997167,23.5734997 C24.7823252,23.4556028 22.8629572,23.7702533 21.0835694,24.4941795 C15.8356941,26.5196753 6.35269122,29.005511 0.828611898,22.5607518 L0,3.04233819 C0,3.04233819 4.51133144,7.55366963 13.0736544,3.87095008 C16.9203914,2.12442522 21.0940602,1.21437712 25.3186969,1.20097841 C26.8568791,1.23640498 28.379654,1.51609832 29.8300283,2.02959031 C30.1983003,6.90919371 31.2110482,24.4941795 31.2110482,24.4941795 Z" id="路径" fill="#3E4959" fill-rule="nonzero"></path>
                            <path d="M31.2110482,24.4941795 C29.7733567,23.923563 28.2460311,23.6118639 26.6997167,23.5734997 L25.2266289,1.20097841 C26.7648112,1.23640498 28.287586,1.51609832 29.7379603,2.02959031 C30.1983003,6.90919371 31.2110482,24.4941795 31.2110482,24.4941795 Z" id="路径" fill="#313B4B" fill-rule="nonzero"></path>
                            <path d="M34.9858357,48.1556526 L31.5793201,48.1556526 L28.2648725,1.84545433 C28.2008383,0.908757928 28.8952513,0.0918013776 29.8300283,0.00409456072 L29.8300283,0.00409456072 C30.7667247,-0.0599397102 31.5836813,0.634473358 31.6713881,1.56925037 L34.9858357,48.1556526 Z" id="路径" fill="#28313F" fill-rule="nonzero"></path>
                        </g>
                        <g id="编组-6" stroke-width="1" fill="none" fill-rule="evenodd" transform="translate(221.143503, 19.242210)">
                            <path d="M34.2148538,25.7790368 C13.1312844,27.8966006 -5.00610936,21.6359773 1.25451387,17.7691218 L1.34658186,17.7691218 C7.5151371,13.9022663 8.80408894,3.49858357 8.80408894,3.49858357 L43.8819926,3.49858357 C44.0661286,10.9560907 48.3012561,14.5467422 51.0632957,16.9405099 L51.1553637,17.0325779 C51.6884801,17.4458616 52.1816682,17.9082254 52.6284516,18.4135977 C53.7332674,19.6104816 54.1936074,23.7535411 34.2148538,25.7790368 Z" id="路径" fill="url(#linearGradient-5)" fill-rule="nonzero"></path>
                            <ellipse id="椭圆形" fill="#323842" fill-rule="nonzero" cx="26.2970068" cy="3.49858357" rx="17.5849858" ry="3.49858357"></ellipse>
                            <ellipse id="椭圆形" fill="#20252C" fill-rule="nonzero" cx="26.2970068" cy="3.49858357" rx="15.4674221" ry="2.30169972"></ellipse>
                            <path d="M34.2148538,25.7790368 C13.1312844,27.8966006 -5.00610936,21.6359773 1.25451387,17.7691218 L1.34658186,17.7691218 C1.84888721,18.6755925 2.66871456,19.3642475 3.64828158,19.7025496 C7.42306911,21.2677054 16.261596,23.4773371 25.2842589,23.2932011 C34.3069218,23.1090652 45.0788765,21.5439093 48.3933241,20.0708215 C51.5236357,18.6898017 51.6157037,17.4929178 51.1553637,17.0325779 C51.6884801,17.4458616 52.1816682,17.9082254 52.6284516,18.4135977 C53.7332674,19.6104816 54.1936074,23.7535411 34.2148538,25.7790368 Z" id="路径" fill="#20252C" fill-rule="nonzero"></path>
                        </g>
                    </g>
                </g>
            </g>
        </g>
    </g>
</svg>