<svg width="180" height="44" viewBox="0 0 180 44" fill="none" xmlns="http://www.w3.org/2000/svg">
<path d="M47.5844 15.2388L44.1965 25.8566L40.9766 15.2388H37.3086L42.1443 30.1703H45.9568L48.8375 20.5374L51.8244 30.1703H55.6605L60.4549 15.2388H56.8252L53.6083 25.8094L50.1791 15.2388H47.5844Z" fill="#1853EF"/>
<path d="M68.9 18.0365C66.6414 18.0365 65.4944 19.7702 65.4826 19.7879L65.1258 20.3423V15.2383H61.7939V30.1698H65.1642V23.3439C65.1642 22.0672 66.261 20.9909 67.5584 20.9909C69.4543 20.9909 69.6725 22.2323 69.6725 23.164V30.1698H73.1253V21.9227C73.1253 19.7437 71.2677 18.0365 68.9 18.0365Z" fill="#1853EF"/>
<path fill-rule="evenodd" clip-rule="evenodd" d="M80.4194 30.4678C77.0374 30.4678 74.8525 28.0382 74.8525 24.2817C74.8525 20.8378 77.4414 18.0366 80.6229 18.0366C82.1414 18.0366 83.023 18.5703 84.0314 19.4873L84.3558 19.7822V18.2784H87.6464V30.167H84.2939V28.6515L83.9548 29.0318C83.943 29.0466 82.6456 30.4678 80.4194 30.4678ZM81.2391 27.5163C83.082 27.5163 84.4737 26.1452 84.4737 24.323C84.4737 22.4477 83.1616 21.0884 81.3571 21.0884C79.5526 21.0884 78.2434 22.4064 78.2434 24.2227C78.2434 26.1305 79.5054 27.5163 81.2391 27.5163Z" fill="#1853EF"/>
<path d="M93.7822 15.2383H90.4297V18.2783H89.2119V21.2681H90.4297V30.1698H93.7822V21.2887H95.7607V18.2783H93.7822V15.2383Z" fill="#1853EF"/>
<path d="M99.538 21.5631C99.538 20.9882 99.9891 20.6284 100.711 20.6284C101.623 20.6284 102.121 21.2329 102.316 21.5336L104.792 20.4427C104.052 18.9301 102.66 18.0337 101.033 18.0337C98.3792 18.0337 96.5275 19.5994 96.5275 21.8403C96.5275 24.4115 98.5472 25.0572 100.172 25.5791C101.166 25.8975 102.027 26.1747 102.027 26.8794C102.027 27.5635 101.245 27.932 100.514 27.932C99.5674 27.932 98.9571 27.2303 98.7271 26.9089L96.2031 28.1797C97.0995 29.7366 98.4617 30.4619 100.476 30.4619C102.752 30.4619 105.202 29.2471 105.202 26.5757C105.202 24.0458 103.085 23.3559 101.384 22.8015C100.349 22.4713 99.538 22.2059 99.538 21.5631Z" fill="#1853EF"/>
<path d="M96.1504 21.5724C96.1474 21.6078 96.1474 21.6431 96.1445 21.6785H96.1504V21.5724Z" fill="#1853EF"/>
<path d="M106.329 22.843C106.329 27.2482 109.693 30.5683 114.155 30.5683C115.664 30.5683 116.623 30.1496 117.82 29.6159V26.0806C116.885 26.6732 115.815 27.1774 114.414 27.1774C111.846 27.1774 109.979 25.3729 109.979 22.8843C109.979 20.033 111.642 18.1902 114.214 18.1902C115.915 18.1902 116.941 18.6354 117.858 19.3224V15.6809C116.584 15.0146 115.632 14.7993 114.013 14.7993C109.564 14.7964 106.329 18.1813 106.329 22.843Z" fill="#1853EF"/>
<path fill-rule="evenodd" clip-rule="evenodd" d="M119.158 24.2817C119.158 20.7228 121.962 18.0366 125.683 18.0366C129.348 18.0366 132.111 20.6962 132.108 24.2227C132.108 27.9704 129.434 30.5887 125.604 30.5887C122.11 30.5887 119.158 27.6991 119.158 24.2817ZM122.49 24.3436C122.49 26.1187 123.846 27.4573 125.645 27.4573C127.591 27.4573 128.8 26.1953 128.797 24.1638C128.797 22.4447 127.45 21.1503 125.663 21.1503C123.826 21.1503 122.49 22.4919 122.49 24.3436Z" fill="#1853EF"/>
<path d="M135.487 12.8975C134.357 12.8975 133.44 13.8233 133.44 14.9644C133.44 16.1114 134.322 17.0107 135.445 17.0107C136.607 17.0107 137.551 16.076 137.551 14.9261C137.554 13.8056 136.625 12.8975 135.487 12.8975Z" fill="#1853EF"/>
<rect x="133.801" y="18.2788" width="3.33189" height="11.8916" fill="#1853EF"/>
<path d="M146.644 18.0371C144.377 18.0371 143.239 19.7709 143.227 19.7886L142.87 20.3458V18.2789H139.538V30.1705H142.908V23.3445C142.908 22.0678 144.005 20.9916 145.303 20.9916C147.198 20.9916 147.417 22.2329 147.417 23.1647V30.1705H150.869V21.9233C150.869 19.7443 149.012 18.0371 146.644 18.0371Z" fill="#1853EF"/>
<path d="M23.1787 30.851C20.8759 32.9828 17.8801 34.1593 14.7429 34.1593C7.89627 34.1593 2.32642 28.5894 2.32642 21.7429C2.32642 14.8963 7.89627 9.32642 14.7429 9.32642C17.8801 9.32642 20.8759 10.5 23.1787 12.6347C23.6505 13.0711 24.3876 13.0446 24.824 12.5728C25.2604 12.101 25.2339 11.3639 24.7621 10.9275C22.0288 8.39467 18.4699 7 14.7429 7C6.61365 7 0 13.6136 0 21.7429C0 29.8721 6.61365 36.4857 14.7429 36.4857C18.4699 36.4857 22.0288 35.091 24.7621 32.5582C25.2339 32.1218 25.2604 31.3847 24.824 30.9129C24.3876 30.4411 23.6505 30.4146 23.1787 30.851Z" fill="#1853EF"/>
<path d="M31.0838 15.9255C30.6297 15.4714 29.8926 15.4714 29.4385 15.9255L22.9339 22.4301L19.0949 18.5881C18.6408 18.134 17.9037 18.134 17.4496 18.5881L10.9421 25.0926L7.10305 21.2536C6.64897 20.7995 5.91183 20.7995 5.45775 21.2536C5.00367 21.7077 5.00367 22.4448 5.45775 22.8989L10.1224 27.5635C10.3494 27.7906 10.6472 27.9056 10.945 27.9056C11.2428 27.9056 11.5407 27.7906 11.7677 27.5635L18.2722 21.059L22.1142 24.901C22.3413 25.128 22.6391 25.243 22.9369 25.243C23.2347 25.243 23.5325 25.128 23.7595 24.901L31.0867 17.5738C31.5408 17.1167 31.5408 16.3796 31.0838 15.9255Z" fill="#1853EF"/>
</svg>
