<?xml version="1.0" encoding="UTF-8"?>
<svg width="172px" height="43px" viewBox="0 0 172 43" version="1.1" xmlns="http://www.w3.org/2000/svg" xmlns:xlink="http://www.w3.org/1999/xlink">
    <title>safepal</title>
    <g id="HECO" stroke="none" stroke-width="1" fill="none" fill-rule="evenodd">
        <g id="合作伙伴" transform="translate(-2537.000000, -1663.000000)">
            <g id="编组-2备份-4" transform="translate(1920.000000, 903.000000)">
                <g id="编组-8" transform="translate(360.000000, 100.000000)">
                    <g id="编组-7" transform="translate(0.000000, 411.000000)">
                        <g id="safepal" transform="translate(257.000000, 249.000000)">
                            <rect id="矩形" x="0" y="0" width="172" height="43"></rect>
                            <g id="WhatsCion-LOGO" transform="translate(0.000000, 7.371429)" fill="#1853EF" fill-rule="nonzero">
                                <g id="编组" transform="translate(37.308274, 5.897143)">
                                    <polygon id="路径" points="10.2757714 2.34116571 6.88786286 12.9589714 3.66802286 2.34116571 0 2.34116571 4.83565714 17.2727314 8.64816 17.2727314 11.5289143 7.63974857 14.5158171 17.2727314 18.3519086 17.2727314 23.1462857 2.34116571 19.5165943 2.34116571 16.2997029 12.9117943 12.8705143 2.34116571"></polygon>
                                    <path d="M31.5909943,5.13936 C29.3323886,5.13936 28.1853943,6.87312 28.1736,6.89081143 L27.8168229,7.44514286 L27.8168229,2.34116571 L24.4849371,2.34116571 L24.4849371,17.2727314 L27.8551543,17.2727314 L27.8551543,10.4467886 C27.8551543,9.17005714 28.9520229,8.09382857 30.2493943,8.09382857 C32.1453257,8.09382857 32.36352,9.33517714 32.36352,10.2669257 L32.36352,17.2727314 L35.8162971,17.2727314 L35.8162971,9.02557714 C35.8162971,6.84658286 33.9586971,5.13936 31.5909943,5.13936 Z" id="路径"></path>
                                    <path d="M37.54416,11.3844343 C37.54416,15.1409143 39.7290514,17.5705371 43.1110629,17.5705371 C45.3372343,17.5705371 46.6346057,16.1493257 46.6464,16.1345829 L46.9854857,15.7542171 L46.9854857,17.2697829 L50.3380114,17.2697829 L50.3380114,5.38114286 L47.0474057,5.38114286 L47.0474057,6.88491429 L46.7230629,6.59005714 C45.7146514,5.67305143 44.8330286,5.13936 43.3145143,5.13936 C40.1330057,5.13936 37.54416,7.94050286 37.54416,11.3844343 Z M47.1653486,11.4257143 C47.1653486,13.2479314 45.7736229,14.6190171 43.9307657,14.6190171 C42.1970057,14.6190171 40.9350171,13.2331886 40.9350171,11.3254629 C40.9350171,9.50914286 42.2441829,8.19113143 44.0487086,8.19113143 C45.8532343,8.19113143 47.1653486,9.55042286 47.1653486,11.4257143 Z" id="形状"></path>
                                    <polygon id="路径" points="56.4739886 2.34116571 53.1214629 2.34116571 53.1214629 5.38114286 51.9037029 5.38114286 51.9037029 8.37099429 53.1214629 8.37099429 53.1214629 17.2727314 56.4739886 17.2727314 56.4739886 8.39163429 58.45248 8.39163429 58.45248 5.38114286 56.4739886 5.38114286"></polygon>
                                    <path d="M62.2296,8.66585143 C62.2296,8.09088 62.6807314,7.73115429 63.4031314,7.73115429 C64.31424,7.73115429 64.8125486,8.33561143 65.0071543,8.63636571 L67.4839543,7.54539429 C66.7438629,6.03277714 65.3521371,5.13641143 63.7245257,5.13641143 C61.0708114,5.13641143 59.2191086,6.70210286 59.2191086,8.94301714 C59.2191086,11.5141714 61.23888,12.1599086 62.8635429,12.6818057 C63.8572114,13.0002514 64.7181943,13.2774171 64.7181943,13.9821257 C64.7181943,14.6661943 63.9368229,15.0347657 63.2055771,15.0347657 C62.2590857,15.0347657 61.6487314,14.3330057 61.4187429,14.0116114 L58.8947657,15.2824457 C59.7911314,16.8392914 61.1533714,17.56464 63.1672457,17.56464 C65.4435429,17.56464 67.8938057,16.3498286 67.8938057,13.6784229 C67.8938057,11.1485486 65.7767314,10.4585829 64.0754057,9.90425143 C63.0404571,9.57401143 62.2296,9.30864 62.2296,8.66585143 Z" id="路径"></path>
                                    <path d="M58.8416914,8.67469714 C58.8387429,8.71008 58.8387429,8.74546286 58.8357943,8.78084571 L58.8416914,8.78084571 L58.8416914,8.67469714 Z" id="路径"></path>
                                    <path d="M69.02016,9.94553143 C69.02016,14.3506971 72.38448,17.6707886 76.8456686,17.6707886 C78.3553371,17.6707886 79.3136229,17.2520914 80.5107429,16.7184 L80.5107429,13.1830629 C79.5760457,13.7757257 78.5057143,14.2799314 77.1051429,14.2799314 C74.5369371,14.2799314 72.6704914,12.4754057 72.6704914,9.98681143 C72.6704914,7.13554286 74.3334857,5.29268571 76.90464,5.29268571 C78.6059657,5.29268571 79.6320686,5.73792 80.5490743,6.42493714 L80.5490743,2.78345143 C79.2752914,2.11707429 78.3229029,1.90182665 76.7041371,1.90182665 C72.2547429,1.89888 69.02016,5.28384 69.02016,9.94553143 Z" id="路径"></path>
                                    <path d="M88.3745829,5.13936 C84.6534857,5.13936 81.8493943,7.82550857 81.8493943,11.3844343 C81.8493943,14.8018286 84.8009143,17.6914286 88.2949714,17.6914286 C92.1251657,17.6914286 94.7995224,15.0730971 94.7995224,11.3254629 C94.8024686,7.79897143 92.0396571,5.13936 88.3745829,5.13936 Z M88.3362514,14.5600457 C86.5376229,14.5600457 85.18128,13.2213943 85.18128,11.4463543 C85.18128,9.59465143 86.5169829,8.25305143 88.3539429,8.25305143 C90.1407771,8.25305143 91.4882797,9.54747429 91.4882797,11.2664914 C91.4912229,13.2980571 90.2823086,14.5600457 88.3362514,14.5600457 Z" id="形状"></path>
                                    <path d="M98.1785829,0 C97.04928,0 96.1322743,0.925851429 96.1322743,2.06694857 C96.1322743,3.21394286 97.0138971,4.11325714 98.1373029,4.11325714 C99.29904,4.11325714 100.24259,3.17856 100.24259,2.02861714 C100.245531,0.90816 99.3167314,0 98.1785829,0 Z" id="路径"></path>
                                    <rect id="矩形" x="96.492" y="5.38114286" width="3.33188571" height="11.8915886"></rect>
                                    <path d="M109.335977,5.13936 C107.068526,5.13936 105.930377,6.87312 105.918583,6.89081143 L105.561806,7.44809143 L105.561806,5.38114286 L102.22992,5.38114286 L102.22992,17.2727314 L105.600137,17.2727314 L105.600137,10.4467886 C105.600137,9.17005714 106.697006,8.09382857 107.994377,8.09382857 C109.890309,8.09382857 110.108503,9.33517714 110.108503,10.2669257 L110.108503,17.2727314 L113.56128,17.2727314 L113.56128,9.02557714 C113.56128,6.84658286 111.70368,5.13936 109.335977,5.13936 Z" id="路径"></path>
                                </g>
                                <g id="编组">
                                    <path d="M23.17872,23.8509943 C20.8758857,25.9828114 17.8801371,27.1592914 14.7428571,27.1592914 C7.89627429,27.1592914 2.32642286,21.58944 2.32642286,14.7428571 C2.32642286,7.89627429 7.89627429,2.32642286 14.7428571,2.32642286 C17.8801371,2.32642286 20.8758857,3.49995429 23.17872,5.63472 C23.6504914,6.07110857 24.3876343,6.04457143 24.8240229,5.5728 C25.2604114,5.10102857 25.2338743,4.36388571 24.7621029,3.92749714 C22.0287771,1.39467429 18.4698514,0 14.7428571,0 C6.61364571,0 0,6.61364571 0,14.7428571 C0,22.8720686 6.61364571,29.4857143 14.7428571,29.4857143 C18.4698514,29.4857143 22.0287771,28.09104 24.7621029,25.5582171 C25.2338743,25.1218286 25.2604114,24.3846857 24.8240229,23.9129143 C24.3876343,23.4411429 23.6504914,23.4146057 23.17872,23.8509943 Z" id="路径"></path>
                                    <path d="M31.08384,8.92532571 C30.62976,8.47124571 29.8926171,8.47124571 29.4385371,8.92532571 L22.9339886,15.4298743 L19.0949486,11.5878857 C18.6408686,11.1338057 17.9037257,11.1338057 17.4496457,11.5878857 L10.9421486,18.0924343 L7.10310857,14.2533943 C6.64902857,13.7993143 5.91188571,13.7993143 5.45780571,14.2533943 C5.00372571,14.7074743 5.00372571,15.4446171 5.45780571,15.8986971 L10.1224457,20.5633371 C10.3494857,20.7903771 10.6472914,20.9053714 10.9450971,20.9053714 C11.2429029,20.9053714 11.5407086,20.7903771 11.7677486,20.5633371 L18.2722971,14.0587886 L22.1142857,17.9007771 C22.3413257,18.1278171 22.6391314,18.2428114 22.9369371,18.2428114 C23.2347429,18.2428114 23.5325486,18.1278171 23.7595886,17.9007771 L31.0867886,10.5735771 C31.5408686,10.1165486 31.5408686,9.37940571 31.08384,8.92532571 Z" id="路径"></path>
                                </g>
                            </g>
                        </g>
                    </g>
                </g>
            </g>
        </g>
    </g>
</svg>