<?xml version="1.0" encoding="UTF-8"?>
<svg width="10px" height="10px" viewBox="0 0 10 10" version="1.1" xmlns="http://www.w3.org/2000/svg" xmlns:xlink="http://www.w3.org/1999/xlink">
    <title>指向icon</title>
    <g id="介绍页" stroke="none" stroke-width="1" fill="none" fill-rule="evenodd">
        <g id="BSC介绍页" transform="translate(-1349.000000, -555.000000)" fill="#FFCA13" fill-rule="nonzero">
            <g id="编组-5" transform="translate(530.000000, 508.000000)">
                <g id="编组-4" transform="translate(733.000000, 46.000000)">
                    <g id="编组-12" transform="translate(86.000000, 1.000000)">
                        <path d="M2.75535515,0.288083113 L9.10113364,0.333557339 C9.4674498,0.336182382 9.77088338,0.601095333 9.83379064,0.949374893 L9.84575923,1.08353808 L9.84575923,7.3964926 C9.84575923,7.81070617 9.5099728,8.1464926 9.09575923,8.1464926 C8.7275694,8.1464926 8.42134668,7.88117986 8.35784274,7.53130605 L8.34575923,7.3964926 L8.3450082,1.82741644 L2.74460634,1.7880446 C2.37642596,1.7854062 2.0721123,1.51790591 2.01111714,1.16758603 L2,1.03268945 C2.0026384,0.66450907 2.27013869,0.360195408 2.62045857,0.29920025 L2.75535515,0.288083113 Z" id="路径" transform="translate(5.922880, 4.217288) rotate(-360.000000) translate(-5.922880, -4.217288) "></path>
                        <path d="M5.12488959,-1 C5.49307846,-0.999156081 5.79869371,-0.733143814 5.86139745,-0.383125707 L5.87317265,-0.248284981 L5.8487695,10.4254808 C5.84781842,10.8396933 5.51126504,11.174711 5.09705256,11.1737659 C4.72886369,11.172922 4.42324844,10.9069097 4.3605447,10.5568916 L4.3487695,10.4220509 L4.37317657,-0.251714934 C4.37412373,-0.665927414 4.71067711,-1.00094515 5.12488959,-1 Z" id="路径" transform="translate(5.110971, 5.086883) rotate(-315.000000) translate(-5.110971, -5.086883) "></path>
                    </g>
                </g>
            </g>
        </g>
    </g>
</svg>