<?xml version="1.0" encoding="UTF-8"?>
<svg width="9px" height="9px" viewBox="0 0 9 9" version="1.1" xmlns="http://www.w3.org/2000/svg" xmlns:xlink="http://www.w3.org/1999/xlink">
    <title>指向icon</title>
    <g id="介绍页" stroke="none" stroke-width="1" fill="none" fill-rule="evenodd">
        <g id="BSC介绍页H5" transform="translate(-335.000000, -441.000000)" fill="#EDB802" fill-rule="nonzero">
            <g id="编组-5备份-3" transform="translate(16.000000, 357.000000)">
                <g id="编组-4" transform="translate(252.000000, 79.000000)">
                    <g id="编组-12" transform="translate(67.000000, 5.000000)">
                        <path d="M2.12946263,0.073402594 L7.41761137,0.111297782 C7.72287483,0.113485318 7.97573615,0.334246111 8.02815887,0.624479078 L8.03813269,0.736281735 L8.03813269,5.99707717 C8.03813269,6.34225514 7.75831066,6.62207717 7.41313269,6.62207717 C7.10630783,6.62207717 6.85112223,6.40098322 6.79820228,6.10942171 L6.78813269,5.99707717 L6.78750684,1.35618037 L2.12050528,1.3233705 C1.8136883,1.32117183 1.56009358,1.09825493 1.50926428,0.806321688 L1.5,0.693907875 C1.50219867,0.387090892 1.72511557,0.133496173 2.01704881,0.0826668752 L2.12946263,0.073402594 Z" id="路径" transform="translate(4.769066, 3.347740) rotate(-360.000000) translate(-4.769066, -3.347740) "></path>
                        <path d="M4.10407466,-1 C4.41089872,-0.999296734 4.66557809,-0.777619845 4.71783121,-0.485938089 L4.72764388,-0.373570817 L4.70730465,8.52123402 C4.70651535,8.86641108 4.4260542,9.14559253 4.08087713,9.14480491 C3.77405308,9.14410164 3.5193737,8.92242475 3.46712059,8.630743 L3.45730792,8.51837572 L3.47764715,-0.376429112 C3.47843644,-0.721606178 3.75889759,-1.00078763 4.10407466,-1 Z" id="路径" transform="translate(4.092476, 4.072402) rotate(-315.000000) translate(-4.092476, -4.072402) "></path>
                    </g>
                </g>
            </g>
        </g>
    </g>
</svg>