<?xml version="1.0" encoding="UTF-8"?>
<svg width="12px" height="12px" viewBox="0 0 12 12" version="1.1" xmlns="http://www.w3.org/2000/svg" xmlns:xlink="http://www.w3.org/1999/xlink">
    <title>指向icon</title>
    <g id="介绍页" stroke="none" stroke-width="1" fill="none" fill-rule="evenodd">
        <g id="HECO介绍页" transform="translate(-1348.000000, -554.000000)" fill="#03AD90" fill-rule="nonzero">
            <g id="编组-5" transform="translate(530.000000, 508.000000)">
                <g id="编组-4" transform="translate(733.000000, 46.000000)">
                    <g id="编组-12" transform="translate(85.000000, 0.000000)">
                        <path d="M3.75535515,1.28808311 L10.1011336,1.33355734 C10.4674498,1.33618238 10.7708834,1.60109533 10.8337906,1.94937489 L10.8457592,2.08353808 L10.8457592,8.3964926 C10.8457592,8.81070617 10.5099728,9.1464926 10.0957592,9.1464926 C9.7275694,9.1464926 9.42134668,8.88117986 9.35784274,8.53130605 L9.34575923,8.3964926 L9.3450082,2.82741644 L3.74460634,2.7880446 C3.37642596,2.7854062 3.0721123,2.51790591 3.01111714,2.16758603 L3,2.03268945 C3.0026384,1.66450907 3.27013869,1.36019541 3.62045857,1.29920025 L3.75535515,1.28808311 Z" id="路径" transform="translate(6.922880, 5.217288) rotate(-360.000000) translate(-6.922880, -5.217288) "></path>
                        <path d="M6.12488959,-6.14619466e-13 C6.49307846,0.000843919356 6.79869371,0.266856186 6.86139745,0.616874293 L6.87317265,0.751715019 L6.8487695,11.4254808 C6.84781842,11.8396933 6.51126504,12.174711 6.09705256,12.1737659 C5.72886369,12.172922 5.42324844,11.9069097 5.3605447,11.5568916 L5.3487695,11.4220509 L5.37317657,0.748285066 C5.37412373,0.334072586 5.71067711,-0.000945152069 6.12488959,-6.14619466e-13 Z" id="路径" transform="translate(6.110971, 6.086883) rotate(-315.000000) translate(-6.110971, -6.086883) "></path>
                    </g>
                </g>
            </g>
        </g>
    </g>
</svg>