<?xml version="1.0" encoding="UTF-8"?>
<svg width="14px" height="14px" viewBox="0 0 14 14" version="1.1" xmlns="http://www.w3.org/2000/svg" xmlns:xlink="http://www.w3.org/1999/xlink">
    <title>指向icon</title>
    <g id="PC" stroke="none" stroke-width="1" fill="none" fill-rule="evenodd">
        <g id="获奖" transform="translate(-475.000000, -1151.000000)">
            <g id="编组-21" transform="translate(360.000000, 942.000000)">
                <g id="编组-18" transform="translate(0.000000, 61.000000)">
                    <g id="数据备份-2" transform="translate(2.000000, 123.000000)">
                        <g id="编组-12" transform="translate(0.000000, 15.000000)">
                            <g id="编组-9备份-4" transform="translate(0.000000, 10.000000)">
                                <g id="指向icon" transform="translate(113.000000, 0.000000)">
                                    <rect id="矩形" x="0" y="0" width="14" height="14"></rect>
                                    <g id="编组-12" transform="translate(2.362510, 2.286631)" fill="#006CED" fill-rule="nonzero">
                                        <path d="M2.50499814,0.202210905 L8.42772473,0.244653516 C8.76961981,0.247103556 9.05282449,0.494355645 9.11153793,0.819416567 L9.12270862,0.944635543 L9.12270862,6.83672643 C9.12270862,7.22332575 8.80930794,7.53672643 8.42270862,7.53672643 C8.07906477,7.53672643 7.7932569,7.2891012 7.73398655,6.96255231 L7.72270862,6.83672643 L7.72200766,1.63892201 L2.49496591,1.60217496 C2.15133089,1.59971245 1.86730481,1.35004552 1.81037599,1.02308029 L1.8,0.89717682 C1.80246251,0.553541799 2.05212944,0.269515714 2.37909467,0.2125869 L2.50499814,0.202210905 Z" id="路径" transform="translate(5.461354, 3.869469) rotate(-360.000000) translate(-5.461354, -3.869469) "></path>
                                        <path d="M4.71656362,-1 C5.06020656,-0.999212342 5.34544746,-0.750934226 5.40397095,-0.42425066 L5.41496114,-0.298399315 L5.39218121,9.6637821 C5.39129719,10.0503804 5.0771807,10.3630636 4.69058239,10.3621815 C4.34693944,10.3613938 4.06169855,10.1131157 4.00317506,9.78643215 L3.99218487,9.66058081 L4.0149648,-0.301600605 C4.01584882,-0.688198919 4.3299653,-1.00088214 4.71656362,-1 Z" id="路径" transform="translate(4.703573, 4.681091) rotate(-315.000000) translate(-4.703573, -4.681091) "></path>
                                    </g>
                                </g>
                            </g>
                        </g>
                    </g>
                </g>
            </g>
        </g>
    </g>
</svg>