<?xml version="1.0" encoding="UTF-8"?>
<svg width="18px" height="18px" viewBox="0 0 18 18" version="1.1" xmlns="http://www.w3.org/2000/svg" xmlns:xlink="http://www.w3.org/1999/xlink">
    <title>Fx icon</title>
    <g id="子页" stroke="none" stroke-width="1" fill="none" fill-rule="evenodd">
        <g id="子页备份" transform="translate(-15.000000, -595.000000)">
            <g id="编组-8" transform="translate(14.000000, 205.000000)">
                <g id="编组-10" transform="translate(1.000000, 389.000000)">
                    <g id="Fx-icon" transform="translate(0.000000, 1.000000)">
                        <rect id="矩形" x="0" y="0" width="18" height="18"></rect>
                        <path d="M6.93263646,1.95058006 C7.32587513,1.25109865 8.06589432,0.818181818 8.86833491,0.818181818 C9.6707755,0.818181818 10.4107947,1.25109865 10.8040334,1.95058006 L17.4525921,13.7687619 C17.839389,14.4563945 17.832294,15.2976244 17.4339541,15.9786352 C17.0356141,16.659646 16.3058489,17.0780745 15.5168937,17.0780745 L2.22088479,17.0780745 C1.43192955,17.0780745 0.702164358,16.659646 0.303824394,15.9786352 C-0.0945155706,15.2976244 -0.101610495,14.4563945 0.285186344,13.7687619 L6.93263646,1.95058006 Z" id="形状" fill="#F44A53" fill-rule="nonzero"></path>
                        <path d="M8.74742313,11.6731848 C9.22177139,11.6576409 9.66689349,11.9018307 9.90866864,12.3102333 C10.1504438,12.7186359 10.1504438,13.2263389 9.90866864,13.6347415 C9.66689349,14.0431441 9.22177139,14.2873339 8.74742313,14.27179 C8.04640366,14.2488183 7.49,13.6738832 7.49,12.9724874 C7.49,12.2710917 8.04640366,11.6961565 8.74742313,11.6731848 Z M8.76130756,5 C9.21959726,5 9.61166613,5.31209751 9.72674874,5.77206887 L9.74829341,5.88076634 L9.75487229,5.99356473 L9.75487229,9.84878175 C9.75330824,10.3676516 9.35274315,10.7979492 8.83531218,10.8365955 C8.3523766,10.8726654 7.91943398,10.556226 7.79698981,10.071383 L7.77559923,9.96497753 L7.76774283,9.84750545 L7.76774283,5.99356473 C7.76774283,5.44453757 8.2122804,5 8.76130756,5 Z" id="形状" fill="#FFFFFF" fill-rule="nonzero"></path>
                    </g>
                </g>
            </g>
        </g>
    </g>
</svg>