<?xml version="1.0" encoding="UTF-8"?>
<svg width="14px" height="15px" viewBox="0 0 14 15" version="1.1" xmlns="http://www.w3.org/2000/svg" xmlns:xlink="http://www.w3.org/1999/xlink">
    <title>问号icon</title>
    <g id="H5" stroke="none" stroke-width="1" fill="none" fill-rule="evenodd" fill-opacity="0.3">
        <g id="上一期" transform="translate(-231.000000, -1505.000000)" fill="#FFFFFF" fill-rule="nonzero">
            <g id="编组-2" transform="translate(0.000000, 1442.095575)">
                <g id="问号icon" transform="translate(231.000000, 63.000000)">
                    <path d="M6.99952797,0 C3.13397814,0 0,3.13408228 0,7.00023944 C0,10.8663829 3.13397814,14 6.99952797,14 C10.865543,14 14,10.8663829 14,7.00023944 C14,3.13409597 10.865543,0 6.99951429,0 L6.99952797,0 Z M6.99952797,12.7758663 C3.81045278,12.7758663 1.22502343,10.1894206 1.22502343,7.00023944 C1.22502343,3.81011419 3.81045278,1.22506414 6.99952797,1.22506414 C10.1886032,1.22506414 12.7749766,3.8101142 12.7749766,7.00023944 C12.7749766,10.1894206 10.1886032,12.7758663 6.99952797,12.7758663 Z" id="形状"></path>
                    <path d="M6.43433807,10.0659983 C6.21505632,10.0611592 6.00317916,10.1368384 5.84835451,10.2753025 C5.69142543,10.4155686 5.61297526,10.5899247 5.61297526,10.7979227 C5.61297526,11.0059207 5.69192841,11.1798414 5.84835451,11.3201075 C6.00526922,11.4595028 6.20091323,11.5294118 6.43433807,11.5294118 C6.66774852,11.5294118 6.86339253,11.45949 7.02030724,11.3201075 C7.17723632,11.1798415 7.2556865,11.0059207 7.2556865,10.7979227 C7.2556865,10.5890539 7.17722196,10.4155686 7.02030724,10.2753025 C6.86548607,10.1368417 6.65361487,10.0611627 6.43433807,10.0659983 L6.43433807,10.0659983 Z M8.44577517,3.79063695 C8.22471331,3.61458236 7.9628775,3.48404307 7.67884894,3.40828281 C7.36571267,3.32409778 7.039257,3.28601965 6.71235546,3.29555001 C6.35782794,3.30254218 6.0258482,3.3510392 5.715942,3.44106664 C5.42620843,3.5215945 5.15298771,3.6433293 4.90685186,3.80156061 C4.68374292,3.94572515 4.49823473,4.13115731 4.36303222,4.34515736 C4.22975058,4.55715729 4.16095525,4.79651579 4.16346498,5.03950846 C4.16346498,5.21910233 4.21591838,5.35543693 4.32086831,5.44851225 C4.42531525,5.54202298 4.59841148,5.59227443 4.840157,5.5992666 C5.03335797,5.5992666 5.22263571,5.55251124 5.407516,5.45900051 C5.59285615,5.36636061 5.68553341,5.2260945 5.68553341,5.03950846 C5.68553341,4.85292242 5.78605713,4.7161524 5.98710455,4.63005645 C6.20314711,4.54112844 6.43763729,4.49335478 6.6755806,4.48979036 C6.93350764,4.48279819 7.15513405,4.53130799 7.34001433,4.63530698 C7.52488024,4.73930597 7.6175575,4.93900555 7.6175575,5.23265127 C7.6175575,5.35500152 7.60627643,5.46467365 7.58127124,5.56125786 C7.55542918,5.66232033 7.51504857,5.75998553 7.46113138,5.85183009 C7.39488139,5.96121644 7.31581786,6.06404295 7.22526353,6.15858934 C7.12473981,6.26608442 7.00215692,6.38450316 6.8570119,6.51384559 C6.66742867,6.67528503 6.49732449,6.85396092 6.34947852,7.04695407 C6.08897423,7.38607106 5.89114251,7.76020106 5.76350934,8.15511128 C5.71104156,8.32334607 5.6850448,8.46580203 5.6850448,8.58028928 C5.6850448,8.80357784 5.7571287,8.962208 5.90227374,9.05965023 C6.04693018,9.15665705 6.22443824,9.20471864 6.43382072,9.20471864 C6.64271461,9.20471864 6.82023704,9.15316096 6.96487908,9.04916197 C7.10953552,8.94516298 7.18259664,8.78872268 7.18259664,8.5807247 C7.18259664,8.44482551 7.19290049,8.31854377 7.21300523,8.20449192 C7.23632849,8.08157436 7.28327677,7.96316457 7.35178401,7.85447339 C7.42435653,7.73605463 7.52880346,7.60365154 7.66610204,7.45639327 C7.8405974,7.27340203 8.02623106,7.09908257 8.2221656,6.93422127 C8.56786945,6.63969193 8.79981408,6.3657165 8.9155421,6.11052775 C9.03334704,5.85208928 9.09715739,5.57664082 9.10382826,5.29775789 C9.11167471,4.96784508 9.05774112,4.67768264 8.94005867,4.42600278 C8.83067114,4.18394884 8.66176634,3.96683389 8.44577517,3.79063695 L8.44577517,3.79063695 Z" id="形状"></path>
                </g>
            </g>
        </g>
    </g>
</svg>