<?xml version="1.0" encoding="UTF-8"?>
<svg width="53px" height="30px" viewBox="0 0 53 30" version="1.1" xmlns="http://www.w3.org/2000/svg" xmlns:xlink="http://www.w3.org/1999/xlink">
    <title>LP问号</title>
    <defs>
        <filter id="filter-1">
            <feColorMatrix in="SourceGraphic" type="matrix" values="0 0 0 0 0.089078 0 0 0 0 0.089078 0 0 0 0 0.089334 0 0 0 1.000000 0"></feColorMatrix>
        </filter>
        <filter id="filter-2">
            <feColorMatrix in="SourceGraphic" type="matrix" values="0 0 0 0 0.089078 0 0 0 0 0.089078 0 0 0 0 0.089334 0 0 0 1.000000 0"></feColorMatrix>
        </filter>
    </defs>
    <g id="PC" stroke="none" stroke-width="1" fill="none" fill-rule="evenodd">
        <g id="流动性挖矿-交易对" transform="translate(-407.000000, -1460.000000)">
            <g id="立即申请" transform="translate(361.000000, 1423.000000)">
                <g id="编组-6" transform="translate(46.000000, 36.000000)">
                    <g id="LP问号" transform="translate(0.000000, 1.000000)">
                        <g id="MDX1备份-10" transform="translate(23.000000, 0.000000)">
                            <circle id="椭圆形" stroke="#BDC4D0" fill="#E7EBF2" cx="15" cy="15" r="14.5"></circle>
                            <g id="编组-2" transform="translate(6.000000, 8.250000)" fill="#CAD0DB">
                                <path d="M0.00222044807,11.9593609 C0.00222044807,13.1724144 1.09027675,14.1428571 2.41358847,14.1428571 L2.64884389,14.1428571 L2.59003004,4.08799161 C2.59003004,3.73755394 2.67825082,3.44102976 2.85469238,3.17146232 C3.03113394,2.90189488 3.29579629,2.71319767 3.64867941,2.5514572 C4.00156254,2.41667348 4.35444566,2.36275999 4.67792186,2.41667348 C5.00139806,2.47058697 5.32487426,2.60537069 5.5895366,2.84798139 L9.88294796,6.37931486 C9.91235489,6.4062716 10.0887965,6.54105532 10.2358311,6.67583904 C10.676935,7.02627671 10.9121904,7.21497392 10.9121904,7.78106555 C10.9121904,8.26628694 10.7063419,8.69759485 10.3534588,9.02107577 C10.0005757,9.3445567 9.53006484,9.53325391 9.00074015,9.53325391 C8.47141546,9.53325391 8.00090463,9.3445567 7.6480215,9.02107577 C7.29513838,8.69759485 7.08928989,8.26628694 7.08928989,7.78106555 C7.08928989,7.18801718 7.35395223,6.97236323 7.82446306,6.59496881 C7.88327692,6.54105532 8.23616004,6.24453114 8.38319468,6.13670416 L6.41293056,4.51929952 L6.06004744,4.8158237 C5.00139806,5.67843951 4.44266644,6.13670416 4.44266644,7.80802229 C4.44266644,8.96716229 4.94258421,9.99151856 5.76597817,10.7463074 C6.58937212,11.5010962 7.73624228,11.9593609 8.97133322,11.9593609 C10.2358311,11.9593609 11.3532943,11.5010962 12.1766883,10.7463074 C13.0000822,9.99151856 13.5,8.94020554 13.5,7.80802229 C13.5,6.16366091 12.9118615,5.67843951 11.882619,4.89669394 C11.8238052,4.84278045 11.7649913,4.78886696 11.5591428,4.62712649 L7.35395223,1.04187954 C6.70699983,0.502744656 5.9130128,0.152306983 5.08961884,0.0444800068 C4.26622488,-0.0633469693 3.41342399,0.0175232628 2.59003004,0.367960935 C1.76663608,0.691441864 1.11968368,1.23057674 0.678579772,1.8775386 C0.237475865,2.52450046 -0.0271864791,3.27928929 0.00222044807,4.08799161 L0.00222044807,11.9593609 L0.00222044807,11.9593609 Z" id="路径"></path>
                                <path d="M11.8636364,3.30314585 L12.3896104,2.8447501 C12.6525974,2.60207 12.974026,2.46724772 13.2954545,2.41331881 C13.6168831,2.3593899 13.9675325,2.41331881 14.3181818,2.54814109 C14.6396104,2.68296337 14.9025974,2.89867901 15.1071429,3.16832357 C15.2824675,3.43796813 15.3993506,3.73457715 15.3701299,4.08511508 L15.3116883,14.1428571 L15.5454545,14.1428571 C16.8603896,14.1428571 17.9123377,13.1721367 17.9415584,11.9587362 L18,4.08511508 C18,3.2761814 17.7662338,2.49421217 17.3279221,1.87402969 C16.8896104,1.22688275 16.2175325,0.714558083 15.4285714,0.364020155 C14.6103896,0.0404466839 13.762987,-0.0674111399 12.9448052,0.0404466839 C12.1266234,0.148304508 11.3376623,0.498842435 10.6948052,1.03813155 L10.1688312,1.4965273 L9.64285714,1.95492306 L11.6006494,3.57279041 L11.8636364,3.30314585 Z" id="路径"></path>
                            </g>
                            <g filter="url(#filter-1)" id="编组-11">
                                <g transform="translate(9.849796, 6.050000)">
                                    <path d="M5.45419066,-4.23365047e-13 C8.88899976,-4.23365047e-13 10.9485741,2.44144773 10.9485741,5.27062916 C10.9485741,7.19502772 10.1213211,8.50237611 8.2716455,9.86854768 L7.50824308,10.413348 C7.00276954,10.791512 6.82264557,11.0539127 6.75330231,11.8098625 L6.72838249,12.1960261 L6.71024582,12.9358103 L6.70414689,13.5554395 C6.69836953,14.2457712 6.13406158,14.8007122 5.44372982,14.7950236 C4.75339806,14.7891575 4.19845707,14.2248495 4.20423444,13.5345178 L4.21653176,12.7850166 L4.24302036,12.1237525 C4.35401625,10.1592429 4.744675,9.3763997 6.04391942,8.39234892 L6.48514297,8.07329479 C7.98072743,7.03289039 8.44857407,6.3575488 8.44857407,5.27062916 C8.44857407,3.73689955 7.40514131,2.5 5.45419066,2.5 C3.92492493,2.5 2.98930912,3.21109819 2.43399386,4.84688722 C2.21207199,5.50060123 1.50222886,5.85063792 0.84851485,5.62871604 C0.194800843,5.40679417 -0.155235843,4.69695104 0.0666860287,4.04323703 C0.957577437,1.41894323 2.82452878,-4.23365047e-13 5.45419066,-4.23365047e-13 Z" id="路径-5" fill="#10283F" fill-rule="nonzero"></path>
                                    <circle id="椭圆形" fill="#10283F" cx="5.45419066" cy="17.3574505" r="1.66666667"></circle>
                                </g>
                            </g>
                        </g>
                        <g id="MDX1备份-9">
                            <circle id="椭圆形" stroke="#BDC4D0" fill="#E7EBF2" cx="15" cy="15" r="14.5"></circle>
                            <g id="编组-2" transform="translate(6.000000, 8.250000)" fill="#CAD0DB">
                                <path d="M0.00222044807,11.9593609 C0.00222044807,13.1724144 1.09027675,14.1428571 2.41358847,14.1428571 L2.64884389,14.1428571 L2.59003004,4.08799161 C2.59003004,3.73755394 2.67825082,3.44102976 2.85469238,3.17146232 C3.03113394,2.90189488 3.29579629,2.71319767 3.64867941,2.5514572 C4.00156254,2.41667348 4.35444566,2.36275999 4.67792186,2.41667348 C5.00139806,2.47058697 5.32487426,2.60537069 5.5895366,2.84798139 L9.88294796,6.37931486 C9.91235489,6.4062716 10.0887965,6.54105532 10.2358311,6.67583904 C10.676935,7.02627671 10.9121904,7.21497392 10.9121904,7.78106555 C10.9121904,8.26628694 10.7063419,8.69759485 10.3534588,9.02107577 C10.0005757,9.3445567 9.53006484,9.53325391 9.00074015,9.53325391 C8.47141546,9.53325391 8.00090463,9.3445567 7.6480215,9.02107577 C7.29513838,8.69759485 7.08928989,8.26628694 7.08928989,7.78106555 C7.08928989,7.18801718 7.35395223,6.97236323 7.82446306,6.59496881 C7.88327692,6.54105532 8.23616004,6.24453114 8.38319468,6.13670416 L6.41293056,4.51929952 L6.06004744,4.8158237 C5.00139806,5.67843951 4.44266644,6.13670416 4.44266644,7.80802229 C4.44266644,8.96716229 4.94258421,9.99151856 5.76597817,10.7463074 C6.58937212,11.5010962 7.73624228,11.9593609 8.97133322,11.9593609 C10.2358311,11.9593609 11.3532943,11.5010962 12.1766883,10.7463074 C13.0000822,9.99151856 13.5,8.94020554 13.5,7.80802229 C13.5,6.16366091 12.9118615,5.67843951 11.882619,4.89669394 C11.8238052,4.84278045 11.7649913,4.78886696 11.5591428,4.62712649 L7.35395223,1.04187954 C6.70699983,0.502744656 5.9130128,0.152306983 5.08961884,0.0444800068 C4.26622488,-0.0633469693 3.41342399,0.0175232628 2.59003004,0.367960935 C1.76663608,0.691441864 1.11968368,1.23057674 0.678579772,1.8775386 C0.237475865,2.52450046 -0.0271864791,3.27928929 0.00222044807,4.08799161 L0.00222044807,11.9593609 L0.00222044807,11.9593609 Z" id="路径"></path>
                                <path d="M11.8636364,3.30314585 L12.3896104,2.8447501 C12.6525974,2.60207 12.974026,2.46724772 13.2954545,2.41331881 C13.6168831,2.3593899 13.9675325,2.41331881 14.3181818,2.54814109 C14.6396104,2.68296337 14.9025974,2.89867901 15.1071429,3.16832357 C15.2824675,3.43796813 15.3993506,3.73457715 15.3701299,4.08511508 L15.3116883,14.1428571 L15.5454545,14.1428571 C16.8603896,14.1428571 17.9123377,13.1721367 17.9415584,11.9587362 L18,4.08511508 C18,3.2761814 17.7662338,2.49421217 17.3279221,1.87402969 C16.8896104,1.22688275 16.2175325,0.714558083 15.4285714,0.364020155 C14.6103896,0.0404466839 13.762987,-0.0674111399 12.9448052,0.0404466839 C12.1266234,0.148304508 11.3376623,0.498842435 10.6948052,1.03813155 L10.1688312,1.4965273 L9.64285714,1.95492306 L11.6006494,3.57279041 L11.8636364,3.30314585 Z" id="路径"></path>
                            </g>
                            <g filter="url(#filter-2)" id="编组-11">
                                <g transform="translate(9.849796, 6.050000)">
                                    <path d="M5.45419066,-4.23365047e-13 C8.88899976,-4.23365047e-13 10.9485741,2.44144773 10.9485741,5.27062916 C10.9485741,7.19502772 10.1213211,8.50237611 8.2716455,9.86854768 L7.50824308,10.413348 C7.00276954,10.791512 6.82264557,11.0539127 6.75330231,11.8098625 L6.72838249,12.1960261 L6.71024582,12.9358103 L6.70414689,13.5554395 C6.69836953,14.2457712 6.13406158,14.8007122 5.44372982,14.7950236 C4.75339806,14.7891575 4.19845707,14.2248495 4.20423444,13.5345178 L4.21653176,12.7850166 L4.24302036,12.1237525 C4.35401625,10.1592429 4.744675,9.3763997 6.04391942,8.39234892 L6.48514297,8.07329479 C7.98072743,7.03289039 8.44857407,6.3575488 8.44857407,5.27062916 C8.44857407,3.73689955 7.40514131,2.5 5.45419066,2.5 C3.92492493,2.5 2.98930912,3.21109819 2.43399386,4.84688722 C2.21207199,5.50060123 1.50222886,5.85063792 0.84851485,5.62871604 C0.194800843,5.40679417 -0.155235843,4.69695104 0.0666860287,4.04323703 C0.957577437,1.41894323 2.82452878,-4.23365047e-13 5.45419066,-4.23365047e-13 Z" id="路径-5" fill="#10283F" fill-rule="nonzero"></path>
                                    <circle id="椭圆形" fill="#10283F" cx="5.45419066" cy="17.3574505" r="1.66666667"></circle>
                                </g>
                            </g>
                        </g>
                    </g>
                </g>
            </g>
        </g>
    </g>
</svg>