<?xml version="1.0" encoding="UTF-8"?>
<svg width="14px" height="14px" viewBox="0 0 14 14" version="1.1" xmlns="http://www.w3.org/2000/svg" xmlns:xlink="http://www.w3.org/1999/xlink">
    <title>提示</title>
    <g id="页面-1" stroke="none" stroke-width="1" fill="none" fill-rule="evenodd">
        <g id="当前一期-进行中" transform="translate(-1076.000000, -518.000000)">
            <g id="编组-10" transform="translate(360.000000, 292.000000)">
                <g id="编组-34" transform="translate(670.000000, 143.000000)">
                    <g id="编组-33" transform="translate(46.000000, 80.000000)">
                        <g id="提示" transform="translate(0.000000, 3.000000)">
                            <circle id="椭圆形" fill="#F6454F" cx="7" cy="7" r="7"></circle>
                            <path d="M6.6859167,8.74229146 C7.02850156,8.73020174 7.34997863,8.92012718 7.52459402,9.23777363 C7.6992094,9.55542008 7.6992094,9.95030021 7.52459402,10.2679467 C7.34997863,10.5855931 7.02850156,10.7755185 6.6859167,10.7634288 C6.17962486,10.7455619 5.77777778,10.2983902 5.77777778,9.75286014 C5.77777778,9.20733011 6.17962486,8.76015836 6.6859167,8.74229146 Z M6.69594435,3.11111111 C7.02693136,3.11111111 7.31009221,3.35385362 7.39320742,3.71160912 L7.40876746,3.79615159 L7.41351887,3.88388368 L7.41351887,6.8823858 C7.41238928,7.28595123 7.12309227,7.62062717 6.74939213,7.6506854 C6.40060532,7.67873975 6.08792454,7.4326202 5.99949264,7.05552009 L5.98404389,6.9727603 L5.97836982,6.88139313 L5.97836982,3.88388368 C5.97836982,3.45686255 6.29942474,3.11111111 6.69594435,3.11111111 Z" id="形状" fill="#FFFFFF" fill-rule="nonzero"></path>
                        </g>
                    </g>
                </g>
            </g>
        </g>
    </g>
</svg>